<svg width="32" height="32" fill="none" xmlns="http://www.w3.org/2000/svg"><path fill-rule="evenodd" clip-rule="evenodd" d="M19.779 8.048a1.62 1.62 0 011.183 1.14l.776 2.841c1.007.077 1.902.764 2.178 1.776a2.382 2.382 0 01-.98 2.605l.775 2.84a1.582 1.582 0 01-.443 1.568 1.657 1.657 0 01-1.613.38l-1.812-.542a12.989 12.989 0 00-4.352-.53l.613 2.243a.8.8 0 01-.578.981l-2.368.622a.819.819 0 01-1-.566l-.748-2.736c-1.52-.14-2.863-1.186-3.281-2.717-.537-1.967.653-3.988 2.658-4.515l.086-.023a12.802 12.802 0 006.023-3.547l1.292-1.359a1.655 1.655 0 011.59-.461zm-6.73 12.43l.476 1.739.789-.207-.465-1.7c-.268.048-.534.104-.8.168zm9.296-6.23l-.016-.058a.902.902 0 01.016.059zm-2.962-4.645l-1.292 1.358-.022.023a14.444 14.444 0 01-6.773 3.98l-.086.022c-1.133.298-1.806 1.44-1.502 2.552.303 1.111 1.468 1.77 2.602 1.473l.085-.022a14.66 14.66 0 017.895.125l.03.009 1.813.543-.499-1.826-1.752-6.412-.499-1.825z" fill="#12CCC1"/></svg>