<svg width="219" height="159" fill="none" xmlns="http://www.w3.org/2000/svg"><path opacity=".4" d="M82.323 122.884l-29.149.113c-3.188-.056-6.414.623-8.848 2.038l-40.28 23.244c-5.642 2.66-5.774 9.886 2.094 9.867l71.636.019 4.547-3v-32.281z" fill="#50197C"/><path d="M120.528 4.024L74.531 30.569a2.734 2.734 0 00-1.358 2.34v113.539c0 2.076 1.037 5.283 5.094 4.434l42.525-24.225c3.283-1.811 6.679-5.282 8.132-8.754.641-1.528 1.321-3.528 1.321-4.603l.113-106.352c.037-4.452-5.962-5.17-9.83-2.924z" fill="url(#paint0_linear_383_5117)"/><path d="M128.452 2.76c-1.585-.924-3.773-.792-6.188.604L80.889 27.249c-4.792 2.773-8.678 9.471-8.66 14.999l-.037 109.917c0 2.736.98 4.66 2.528 5.566l-3.736-2.17c-1.566-.905-2.528-2.83-2.528-5.566l.038-109.917c-.02-5.509 3.868-12.225 8.66-14.999l41.393-23.885c2.415-1.396 4.604-1.528 6.188-.604l3.717 2.17z" fill="url(#paint1_linear_383_5117)"/><path d="M122.283 3.383L80.889 27.249c-4.792 2.773-8.678 9.471-8.66 14.999l-.037 109.917c.019 5.509 3.924 7.735 8.716 4.962l41.375-23.885c4.792-2.774 8.679-9.49 8.66-14.999l.037-109.917c0-5.51-3.905-7.717-8.697-4.943zm7.528 110.785c0 1.66-.887 3.188-2.321 4.018l-12.226 7.056-25.526 14.735-13.773 7.943c-1 .585-2.264-.151-2.264-1.302l.02-102.521A19.286 19.286 0 0183.38 27.38l5.962-3.434c.32-.188.679-.226 1.037-.132l4.151 1.076c.302.075.623.037.887-.114l12.697-7.32a1.75 1.75 0 00.491-.415l6.282-7.679a2.38 2.38 0 01.566-.49l8.358-4.83c2.66-1.528 5.981.377 5.981 3.452l.019 106.673z" fill="#353131"/><path d="M106.51 132.808c-.415 0-.887.132-1.339.415l-4.642 2.679c-1.377.792-2.452 2.509-2.452 3.905v2.434c0 1.038.622 1.736 1.566 1.736.415 0 .886-.132 1.339-.415l4.641-2.679c1.378-.793 2.453-2.509 2.453-3.906v-2.433c0-1.038-.623-1.736-1.566-1.736z" fill="#262424"/><path d="M105.095 140.619c1.378-.793 2.472-2.528 2.472-3.943v-2.453c0-.585-.208-1.038-.547-1.358a1.434 1.434 0 00-.51-.095c-.415 0-.886.132-1.358.415l-4.679 2.698c-1.396.793-2.472 2.528-2.472 3.943v2.453c0 .585.208 1.038.548 1.358.15.057.32.095.509.095.415 0 .887-.151 1.358-.415l4.679-2.698z" fill="#353131"/><path d="M106.454 16.325l-7.452 4.302c-.472.283-.868.113-.868-.359 0-.471.377-1.075.868-1.358l7.452-4.302c.472-.283.868-.113.868.359 0 .471-.396 1.075-.868 1.358z" fill="#191414"/><path d="M70.55 61.001c.17.19.32.416.415.66.113.265.189.548.189.812v9.132c0 .34-.113.584-.32.697l-.774.453c.188-.113.32-.358.32-.698v-9.131c0-.264-.075-.547-.188-.812a2.614 2.614 0 00-.415-.66 1.82 1.82 0 00-.472-.396l-.302-.17c-.302-.17-.566-.188-.773-.075l.773-.453c.189-.113.472-.094.774.075l.301.17c.17.095.34.227.472.396z" fill="#F6F4F7"/><path d="M70.38 62.926v9.131c0 .698-.49.962-1.075.623l-.301-.17c-.585-.34-1.076-1.17-1.076-1.868v-9.131c0-.68.49-.962 1.076-.623l.301.17c.604.34 1.076 1.189 1.076 1.868z" fill="#CBC6CF"/><path d="M70.55 47.059c.17.189.32.415.415.66.113.264.189.547.189.812v9.131c0 .34-.113.585-.32.698l-.774.453c.188-.113.32-.359.32-.698v-9.132c0-.264-.075-.547-.188-.811a2.614 2.614 0 00-.415-.66 1.82 1.82 0 00-.472-.397l-.302-.17c-.302-.17-.566-.188-.773-.075l.773-.453c.189-.113.472-.094.774.076l.301.17c.17.094.34.245.472.396z" fill="#F6F4F7"/><path d="M70.38 48.983v9.132c0 .698-.49.962-1.075.622l-.301-.17c-.585-.34-1.076-1.17-1.076-1.867v-9.132c0-.679.49-.962 1.076-.622l.301.17c.604.34 1.076 1.188 1.076 1.867z" fill="#CBC6CF"/><path d="M95.436 20.74c-.585.34-1.076 1.17-1.076 1.849 0 .68.49.962 1.076.623.585-.34 1.075-1.17 1.075-1.85 0-.697-.471-.962-1.075-.622z" fill="#191414"/><path opacity=".1" d="M94.643 22.4c.018-.51.377-1.114.83-1.36.453-.244.792-.018.773.491-.019.51-.377 1.114-.83 1.359-.434.245-.773.019-.773-.49z" fill="#CFD5D5"/><path opacity=".1" d="M95.04 22.23c0-.283.207-.603.452-.735.245-.133.434-.02.415.264 0 .283-.207.604-.453.735-.245.133-.433.02-.415-.264z" fill="#CFD5D5"/><path opacity=".2" d="M95.304 22.098c0-.095.075-.226.17-.264.093-.056.15 0 .15.094s-.076.226-.17.264c-.075.037-.15 0-.15-.094z" fill="#CFD5D5"/><path opacity=".7" d="M85.776 51.474v96.654l57.807-33.375V18.099L85.776 51.474z" fill="#CFE9FF"/><path d="M143.583 18.476L85.776 51.851V41.173l57.807-33.357v10.66z" fill="#DD5CD2"/><path opacity=".5" d="M143.584 49.813l-14.415-4.716-30.884 44.506v37.809l45.299-26.168v-51.43z" fill="#455CBA"/><path d="M133.037 59.794l-30.885 22.263v37.809c3.32-1.925 34.903-20.15 60.354-34.847V47.21l-29.469 12.584z" fill="#FFC522"/><path d="M102.152 82.057l2.264.943 30.771-.528 25.867-31.715 1.452-3.547-29.469-9.66-30.885 44.507z" fill="#DD5CD2"/><path opacity=".7" d="M102.152 82.057v37.809l2.264-3.076V83l-2.264-.943z" fill="#EB9A1E"/><path opacity=".3" d="M161.054 84.076l-56.638 32.714-2.264 3.076 60.354-34.847-1.452-.943z" fill="#EB9A1E"/><path opacity=".1" d="M161.054 50.738v33.337l1.452.944V47.21l-1.452 3.528z" fill="#EB9A1E"/><path opacity=".7" d="M161.129 83.981c-.057-.019-25.753-1.736-25.753-1.736l-.189.227 25.828 1.736 1.359.886a.393.393 0 00.113-.075v-.151l-1.358-.887z" fill="#EB9A1E"/><path opacity=".7" d="M104.322 116.715l-2.17 2.943v.208c.075-.038.17-.095.264-.151l2.094-2.849 30.696-34.394h-.339l-30.545 34.243z" fill="#EB9A1E"/><path d="M156.582 71l-47.846 27.64V60.644l47.846-27.62V71z" fill="#FFFAEB"/><path d="M148.262 58.172L116.793 76.34c-1.642.943-2.962.377-2.962-1.245v-6.17c0-1.64 1.32-3.735 2.962-4.678l31.469-18.17c1.642-.942 2.962-.376 2.962 1.246v6.17c0 1.64-1.32 3.716-2.962 4.678z" fill="#A072CC"/><path d="M87.832 46.795v-.283c0-.076.038-.151.132-.189l.397-.226c.094-.057.132-.038.132.056v.246c0 .547.264.66.792.34l.793-.454c.528-.301.792-.735.792-1.282V44.7c0-.434-.359-.51-1.076-.227-.301.113-.603.227-.886.34-.302.094-.547.113-.774.019-.207-.095-.32-.302-.32-.68v-.434c0-.415.113-.81.358-1.188.245-.377.566-.68.981-.925l1-.584c.415-.227.736-.302.962-.208.245.094.359.358.359.774v.226c0 .094-.038.15-.114.208l-.415.245c-.075.037-.113.019-.113-.076v-.15c0-.548-.264-.66-.792-.36l-.755.435c-.528.302-.811.755-.811 1.32v.359c0 .302.207.396.603.283.17-.057.378-.132.585-.208.208-.075.434-.15.66-.226.227-.056.416-.094.605-.113a.462.462 0 01.433.17c.114.132.17.32.17.584v.416c0 .415-.113.81-.358 1.188-.245.377-.566.68-.962.925l-1.038.603c-.415.227-.736.302-.981.208-.246-.151-.359-.415-.359-.83zm8.113-3.34L94.04 44.55c-.416.245-.736.302-.982.207-.245-.094-.358-.358-.358-.773v-1.925c0-.415.113-.811.358-1.188a2.67 2.67 0 01.981-.906l.755-.434c.415-.245.736-.302.962-.207.227.094.34.358.34.773v1.151c0 .094-.038.15-.132.208l-2.547 1.471c-.057.038-.094.076-.094.132v.547c0 .529.245.642.754.34l1.83-1.057c.076-.056.132-.037.132.057v.32c.038.076-.019.133-.094.19zm-2.51-1.018l1.944-1.113c.057-.038.094-.076.094-.151v-.699c0-.509-.245-.622-.754-.34l-.604.36c-.51.282-.755.697-.755 1.207v.698c0 .056.02.075.076.038zm6.453-1.717v.34a.196.196 0 01-.132.188l-1.302.755c-.415.245-.735.301-.98.207-.246-.094-.36-.358-.36-.773v-1.925c0-.415.114-.811.36-1.188a2.67 2.67 0 01.98-.906l1.302-.755c.076-.056.132-.037.132.057v.32a.196.196 0 01-.132.19l-1.226.716c-.49.283-.755.698-.755 1.208v1.868c0 .528.245.641.755.358l1.226-.717c.094-.038.132-.019.132.057zm2.679-1.094l-.509.282c-.415.246-.736.302-.962.208-.227-.094-.34-.358-.34-.773V36.21c0-.076.038-.151.132-.208l.415-.226c.076-.057.132-.038.132.056v3.094c0 .529.245.642.755.359l.509-.302c.264-.15.472-.34.623-.566.151-.226.207-.472.207-.736v-3.056c0-.076.038-.151.132-.208l.416-.226c.075-.057.132-.038.132.056v4.34c0 .075-.038.15-.132.207l-.416.227c-.075.056-.132.038-.132-.057v-.358a2.368 2.368 0 01-.962 1.019zm3.377-1.944l-.396.227c-.075.056-.132.037-.132-.057v-4.34c0-.075.038-.15.132-.188l.396-.226c.076-.057.132-.038.132.056v.359c.095-.189.208-.359.378-.566a2.41 2.41 0 01.585-.49l.358-.208c.076-.038.113-.02.113.056v.34c0 .037 0 .075-.019.113-.018.038-.056.057-.094.075l-.49.284c-.265.15-.472.358-.623.603-.151.245-.208.51-.208.793v2.98c0 .076-.056.133-.132.19zm5.509-3.188l-1.905 1.094c-.415.245-.736.302-.981.207-.245-.094-.359-.358-.359-.773v-1.924c0-.416.114-.812.359-1.189s.566-.68.981-.906l.755-.433c.415-.246.735-.302.962-.208.226.094.358.358.358.774v1.15c0 .095-.038.151-.132.208l-2.547 1.471c-.056.038-.094.076-.094.132v.548c0 .528.245.641.754.34l1.831-1.057c.094-.057.132-.038.132.056v.321c.018.075-.019.132-.114.189zm-2.49-1.02l1.943-1.112c.057-.038.095-.076.095-.151v-.698c0-.51-.246-.623-.755-.34l-.604.359c-.509.283-.754.698-.754 1.207v.698c-.019.057.018.076.075.038zm8.735-3.037v.34c0 .075-.037.132-.132.189l-1.302.754c-.415.246-.735.302-.981.208-.245-.095-.358-.359-.358-.774V29.23c0-.415.113-.811.358-1.189.246-.377.566-.679.981-.905l1.302-.755c.076-.056.132-.038.132.057v.34c0 .075-.037.131-.132.188l-1.226.717c-.491.283-.755.698-.755 1.207v1.868c0 .528.245.642.755.359l1.226-.717c.076-.057.132-.038.132.037zm2.925-1.245l-.774.453c-.415.245-.736.302-.981.207-.245-.094-.358-.358-.358-.773v-1.924c0-.416.113-.812.358-1.189s.566-.68.981-.906l.774-.452c.415-.246.735-.302.981-.208.245.094.358.359.358.774v1.924c0 .415-.113.811-.358 1.189a2.674 2.674 0 01-.981.905zm-.698-.17l.622-.358c.51-.283.755-.698.755-1.208V25.57c0-.51-.245-.623-.755-.34l-.622.359c-.51.283-.755.698-.755 1.207v1.887c0 .528.245.641.755.34zm4.924-2.264l-.529.302c-.415.227-.735.302-.962.208-.226-.095-.339-.359-.339-.774V24.57c0-.415.113-.811.339-1.17a2.79 2.79 0 01.962-.905l.529-.302c.471-.265.773-.283.924-.057.038-.019.038-2.113.038-2.113 0-.094.038-.15.113-.189l.415-.245c.076-.038.113-.019.113.057v6.075a.206.206 0 01-.113.188l-.415.246c-.075.037-.113.018-.113-.057v-.358c-.189.415-.491.754-.962 1.018zm.962-1.943v-1.792c0-.264-.076-.434-.208-.49-.151-.057-.339-.02-.622.131l-.547.321c-.491.283-.755.698-.755 1.207v1.868c0 .529.245.642.755.359l.547-.32a2.02 2.02 0 00.622-.567 1.33 1.33 0 00.208-.717zm5.037-1.51l-1.905 1.095c-.415.245-.736.302-.981.208-.246-.095-.359-.359-.359-.774V21.91c0-.415.113-.812.359-1.189.245-.377.566-.68.981-.905l.754-.434c.416-.246.736-.302.963-.208.226.094.339.358.339.774v1.15c0 .095-.037.151-.132.208l-2.547 1.471c-.056.038-.094.076-.094.133v.547c0 .528.245.641.755.34l1.83-1.057c.075-.057.132-.038.132.056v.321c.019.076-.019.132-.095.189zm-2.509-1.018l1.943-1.113c.057-.038.095-.076.095-.132v-.698c0-.51-.246-.623-.755-.34l-.623.359c-.509.283-.754.698-.754 1.207v.698c0 .038.037.057.094.019z" fill="#FFFAEB"/><path d="M164.77 27.022c0 3.359-2.717 7.641-6.075 9.585-3.358 1.943-6.075.792-6.075-2.566 0-3.358 2.717-7.641 6.075-9.584 3.358-1.944 6.075-.793 6.075 2.565z" fill="#DB3E3E"/><path d="M156.525 29.947v-1.113c0-.151.076-.321.208-.472l1.245-1.49c.208-.246.377-.416.528-.491l1.095-.66c.188-.113.283-.076.283.113v8.188a.544.544 0 01-.057.264.692.692 0 01-.207.189l-1.189.679c-.189.113-.283.075-.283-.113V28.4l-1.34 1.528c-.188.207-.283.207-.283.019zm-36.771 37.846c.453.529.189 1.68-.603 2.566-.774.906-1.774 1.208-2.227.698-.452-.51-.188-1.679.604-2.566.793-.905 1.774-1.207 2.226-.698zm3.378-2.547c-.774.906-1.057 2.057-.604 2.566.453.529 1.453.208 2.226-.698.774-.906 1.057-2.056.604-2.566-.453-.51-1.453-.188-2.226.698zm5.584-3.226c-.773.906-1.056 2.057-.604 2.566.453.528 1.453.207 2.227-.698.773-.906 1.056-2.056.603-2.566-.452-.51-1.433-.208-2.226.698zm5.604-3.226c-.774.906-1.057 2.056-.604 2.566.453.528 1.453.207 2.226-.698.774-.906 1.057-2.057.604-2.566-.453-.51-1.453-.208-2.226.698zm5.584-3.226c-.773.905-1.056 2.056-.604 2.566.453.509 1.453.207 2.227-.699.773-.905 1.056-2.056.603-2.565-.452-.51-1.434-.208-2.226.698zm5.603-3.226c-.773.905-1.056 2.056-.603 2.565.453.529 1.452.208 2.226-.698.774-.905 1.057-2.056.604-2.566-.453-.509-1.453-.207-2.227.699z" fill="#FFFAEB"/><defs><linearGradient id="paint0_linear_383_5117" x1="67.017" y1="26.591" x2="134.23" y2="123.99" gradientUnits="userSpaceOnUse"><stop stop-color="#5917FF"/><stop offset=".159" stop-color="#6D22F8"/><stop offset=".485" stop-color="#A13DE7"/><stop offset=".946" stop-color="#F569CA"/><stop offset="1" stop-color="#FF6EC7"/></linearGradient><linearGradient id="paint1_linear_383_5117" x1="93.842" y1="58.319" x2="101.389" y2="45.249" gradientUnits="userSpaceOnUse"><stop stop-color="#C0B9C8"/><stop offset="1" stop-color="#F6F4F7"/></linearGradient></defs></svg>