<svg width="40" height="40" fill="none" xmlns="http://www.w3.org/2000/svg"><path d="M11.667 10H8.334c-.92 0-1.667.746-1.667 1.667v5c0 .92.746 1.666 1.667 1.666h3.333c.92 0 1.667-.746 1.667-1.666v-5c0-.92-.746-1.667-1.667-1.667z" fill="#646E82" stroke="#646E82" stroke-width="3.333" stroke-linecap="round" stroke-linejoin="round"/><path d="M10 6.667V10m0 8.333v15" stroke="#646E82" stroke-width="3.333" stroke-linecap="round" stroke-linejoin="round"/><path d="M21.667 23.333h-3.333c-.92 0-1.667.747-1.667 1.667v5c0 .92.746 1.667 1.667 1.667h3.333c.92 0 1.667-.747 1.667-1.667v-5c0-.92-.747-1.667-1.667-1.667z" fill="#646E82" stroke="#646E82" stroke-width="3.333" stroke-linecap="round" stroke-linejoin="round"/><path d="M20 6.667v16.666m0 8.334v1.666" stroke="#646E82" stroke-width="3.333" stroke-linecap="round" stroke-linejoin="round"/><path d="M31.667 8.333h-3.333c-.92 0-1.667.747-1.667 1.667v6.667c0 .92.746 1.666 1.667 1.666h3.333c.92 0 1.667-.746 1.667-1.666V10c0-.92-.747-1.667-1.667-1.667z" fill="#646E82" stroke="#646E82" stroke-width="3.333" stroke-linecap="round" stroke-linejoin="round"/><path d="M30 6.667v1.666m0 10v15" stroke="#646E82" stroke-width="3.333" stroke-linecap="round" stroke-linejoin="round"/></svg>