<svg width="20" height="20" fill="none" xmlns="http://www.w3.org/2000/svg"><path d="M17.5 10a7.5 7.5 0 11-15 0 7.5 7.5 0 0115 0z" stroke="#646E82" stroke-width="2"/><path d="M13.333 10c0 4.142-1.492 7.5-3.333 7.5-1.841 0-3.333-3.358-3.333-7.5 0-4.142 1.492-7.5 3.333-7.5 1.84 0 3.333 3.358 3.333 7.5z" stroke="#646E82" stroke-width="2"/><path d="M16.667 13.996c-1.488-.908-3.861-1.496-6.535-1.496-2.838 0-5.337.662-6.798 1.667m13.333-8.261C15.209 6.87 12.79 7.5 10.054 7.5c-2.805 0-5.276-.662-6.72-1.667" stroke="#646E82" stroke-width="2"/></svg>