<svg width="40" height="40" fill="none" xmlns="http://www.w3.org/2000/svg"><path d="M32.083 19.583l-2.642-9.249a3.333 3.333 0 00-3.205-2.417H13.764a3.333 3.333 0 00-3.205 2.417l-2.642 9.25" stroke="#646E82" stroke-width="2.5" stroke-linecap="round" stroke-linejoin="round"/><path d="M17.024 20.615c-.43-.56-1.033-1.032-1.74-1.032H7.918v9.167a3.333 3.333 0 003.333 3.333h17.5a3.333 3.333 0 003.333-3.333v-9.167h-7.368c-.706 0-1.308.472-1.739 1.032A3.744 3.744 0 0120 22.083a3.744 3.744 0 01-2.976-1.468z" fill="#646E82" stroke="#646E82" stroke-width="2.5" stroke-linecap="round" stroke-linejoin="round"/></svg>