<svg width="40" height="40" fill="none" xmlns="http://www.w3.org/2000/svg"><path fill-rule="evenodd" clip-rule="evenodd" d="M36.667 20c0 9.205-7.462 16.667-16.667 16.667-9.205 0-16.666-7.462-16.666-16.667 0-9.205 7.461-16.667 16.666-16.667S36.667 10.795 36.667 20zm-16.532-9.84a5.79 5.79 0 00-4.63 2.292 1.458 1.458 0 102.324 1.763 2.876 2.876 0 015.053 2.535 2.876 2.876 0 01-1.721 1.882 3.96 3.96 0 00-2.617 3.95 1.458 1.458 0 102.912-.165 1.041 1.041 0 01.732-1.055 5.792 5.792 0 00-2.053-11.201zm1.324 18.173a1.458 1.458 0 10-2.917 0v.017a1.458 1.458 0 102.917 0v-.017z" fill="#646E82"/></svg>