<svg width="32" height="32" fill="none" xmlns="http://www.w3.org/2000/svg"><path d="M24 12H8a1 1 0 00-1 1v2a1 1 0 001 1h16a1 1 0 001-1v-2a1 1 0 00-1-1zm-8 0v13" stroke="#5636D7" stroke-width="2" stroke-linecap="round" stroke-linejoin="round"/><path d="M23 16v7a2 2 0 01-2 2H11a2 2 0 01-2-2v-7m2.5-4a2.5 2.5 0 010-5c.965-.016 1.91.452 2.713 1.343.802.892 1.425 2.166 1.787 3.657.362-1.49.985-2.765 1.787-3.657.803-.891 1.748-1.36 2.713-1.343a2.5 2.5 0 010 5" stroke="#5636D7" stroke-width="2" stroke-linecap="round" stroke-linejoin="round"/></svg>