<svg width="160" height="160" fill="none" xmlns="http://www.w3.org/2000/svg"><path fill-rule="evenodd" clip-rule="evenodd" d="M33 32.833v93.335c0 7.364 5.97 13.332 13.333 13.332h45.334c2.334-2.334 3-3.5 8-8-3.5-7.5-3.096-17 4.333-23.5s19.167-4.5 22.333-2V52.833L93 19.5H46.333A13.334 13.334 0 0033 32.833z" fill="url(#paint0_linear_370_4139)"/><path d="M93.333 20v26.667A6.667 6.667 0 00100 53.333h26.666" fill="#6713BB"/><path d="M138.583 145.097l-3.85.91c-.863.21-1.54.863-1.726 1.726l-.817 3.43c-.443 1.867-2.823 2.427-4.06.957L117 139.333l-11.13 12.81c-1.237 1.47-3.617.91-4.06-.956l-.817-3.43c-.21-.864-.886-1.54-1.726-1.727l-3.85-.91c-1.774-.42-2.404-2.637-1.12-3.92l9.1-9.1c2.52 3.733 6.51 6.37 11.153 7.047.793.14 1.61.21 2.45.21.84 0 1.657-.07 2.45-.21 4.643-.677 8.633-3.314 11.153-7.047l9.1 9.1c1.284 1.26.654 3.477-1.12 3.897z" fill="#FFC440"/><path d="M133.333 123c0 3.383-1.003 6.487-2.73 9.077-2.52 3.733-6.51 6.37-11.153 7.046-.793.14-1.61.21-2.45.21-.84 0-1.657-.07-2.45-.21-4.643-.676-8.633-3.313-11.153-7.046a16.258 16.258 0 01-2.73-9.077c0-9.03 7.303-16.333 16.333-16.333 9.03 0 16.333 7.303 16.333 16.333z" fill="#0065FF"/><path d="M118.353 115.953l1.377 2.754c.186.373.676.746 1.12.816l2.496.42c1.587.257 1.96 1.424.817 2.567l-1.937 1.937c-.326.326-.513.956-.396 1.423l.56 2.403c.443 1.89-.56 2.637-2.24 1.634l-2.334-1.377c-.42-.257-1.12-.257-1.54 0l-2.333 1.377c-1.68.98-2.683.256-2.24-1.634l.56-2.403c.093-.443-.07-1.097-.397-1.423l-1.936-1.937c-1.144-1.143-.77-2.287.816-2.567l2.497-.42c.42-.07.91-.443 1.097-.816l1.376-2.754c.677-1.493 1.89-1.493 2.637 0z" fill="#fff"/><rect x="53" y="65" width="55" height="4" rx="2" fill="#fff"/><rect x="53" y="77" width="55" height="4" rx="2" fill="#fff"/><rect x="53" y="89" width="55" height="4" rx="2" fill="#fff"/><rect x="53" y="101" width="26" height="4" rx="2" fill="#fff"/><rect x="53" y="113" width="26" height="4" rx="2" fill="#fff"/><defs><linearGradient id="paint0_linear_370_4139" x1="116.5" y1="-18.5" x2="22" y2="163.5" gradientUnits="userSpaceOnUse"><stop stop-color="#6E22F8"/><stop offset="1" stop-color="#DD5CD3"/></linearGradient></defs></svg>