<svg width="32" height="32" viewBox="0 0 32 32" fill="none" xmlns="http://www.w3.org/2000/svg">
<path d="M17.6667 12.6667V11C17.6667 10.558 17.4911 10.1341 17.1785 9.82153C16.866 9.50897 16.442 9.33337 16 9.33337H10.1667C9.72464 9.33337 9.30072 9.50897 8.98816 9.82153C8.67559 10.1341 8.5 10.558 8.5 11V21C8.5 21.4421 8.67559 21.866 8.98816 22.1785C9.30072 22.4911 9.72464 22.6667 10.1667 22.6667H16C16.442 22.6667 16.866 22.4911 17.1785 22.1785C17.4911 21.866 17.6667 21.4421 17.6667 21V19.3334" stroke="#EBA02F" stroke-width="2" stroke-linecap="round" stroke-linejoin="round"/>
<path d="M22.6666 16H11.8333M11.8333 16L14.3333 13.5M11.8333 16L14.3333 18.5" stroke="#EBA02F" stroke-width="2" stroke-linecap="round" stroke-linejoin="round"/>
</svg>
