<svg width="32" height="32" fill="none" xmlns="http://www.w3.org/2000/svg"><path d="M23.111 12.444H8.89a.889.889 0 00-.889.89v1.777c0 .491.398.889.889.889h14.22a.889.889 0 00.889-.889v-1.778a.889.889 0 00-.889-.889zm-7.111 0V24" stroke="#D9467B" stroke-width="1.75" stroke-linecap="round" stroke-linejoin="round"/><path d="M22.222 16v6.222A1.778 1.778 0 0120.445 24h-8.89a1.778 1.778 0 01-1.777-1.778V16M12 12.444A2.223 2.223 0 0112 8c.858-.015 1.698.401 2.411 1.194.714.793 1.268 1.925 1.59 3.25.32-1.325.874-2.457 1.588-3.25C18.302 8.4 19.143 7.985 20 8a2.222 2.222 0 010 4.444" stroke="#D9467B" stroke-width="1.75" stroke-linecap="round" stroke-linejoin="round"/></svg>