<svg width="244" height="244" fill="none" xmlns="http://www.w3.org/2000/svg"><path d="M126.353 29.967c-49.17-1.432-91.76 33.752-98.195 79.918-7.035 50.476 31.687 95.893 79.333 103.167 59.264 9.047 116.747-43.295 111.585-100.079-3.888-42.782-42.742-81.55-92.723-83.006z" fill="#F4F7FA"/><path d="M124.443 168.762l15.037 6.562s6.197-6.479 4.887-13.531c-2.672-14.387 10.116-15.724 15.388-17.085 7.951-2.052 13.178-6.905 7.747-13.903-6.145-7.918 6.072-16.524 19.391-17.988 13.033-1.432 18.007-25.426-10.485-24.916-17.016.304-21.357 16.31-25.47 23.872-4.113 7.562-16.087 3.111-16.276 14.459-.162 9.694 3.722 18.507-3.694 21.984-7.416 3.477-10.688 9.576-6.525 20.546z" fill="#D8DEE8"/><g opacity=".5" fill="#BEB8F2"><path opacity=".5" d="M130.343 172.998l.337.079c.049-.209 5.024-21.102 16.202-40.328 10.297-17.712 28.119-37.59 54.546-31.711l.075-.338c-11.764-2.617-22.829-.436-32.89 6.482-8.036 5.527-15.449 14.072-22.034 25.399-11.202 19.27-16.187 40.207-16.236 40.417z"/><path opacity=".5" d="M164.535 110.254l.332.098c3.27-11.054 13.763-24.204 13.868-24.336l-.27-.217c-.106.133-10.641 13.337-13.93 24.455zm6.829-4.426c13.591-1.995 22.181 5.557 22.266 5.633l.232-.258c-.087-.077-8.791-7.737-22.549-5.718l.051.343zm-31.105 39.888c10.08-13.418 32.037-8.206 32.247-8.137l.129-.321c-.199-.087-22.483-5.287-32.653 8.25l.277.208zm2.669-6.385l.339.071c2.195-10.481-5.344-21.642-5.421-21.754l-.285.196c.076.111 7.531 11.152 5.367 21.487zm-11.394 30.475c3-5.626 13.33-6.609 13.434-6.618l-.031-.345c-.432.038-10.621 1.009-13.708 6.801l.305.162zm1.112-4.963l.337.083c1.209-4.894-3.461-12.971-4.995-15.626-.217-.374-.404-.699-.427-.763l-.329.108c.03.091.153.306.456.829 1.518 2.624 6.135 10.61 4.958 15.369z"/></g><path d="M102.987 147.1c4.32 1.775 5.561 6.131 5.964 9.425-.342.29-.465.544-.745.912-2.523 3.323-4.308 4.202-7.312 7.084-.647.62-3.098 1.864-4.133 2.308l-1.941.796s-9.37-5.272-6.974-10.903c2.394-5.63-5.869-11.766-9.845-15.557-2.442-2.328-2.814-4.175-3.574-5.174-8.045-10.578-13.64-10.957-14.142-16.004-.555-5.572 6.103-6.705 5.82-12.798-.322-6.88-9.027-10.054-7.876-16.633.198-1.128.431-2.281 1.264-3.561 2.056-3.16 5.66-3.474 5.681-7.414.044-7.918 5.181-15.049 13.225-13.675 7.94 1.355 11.344 14.44 6.173 31.58-2.287 12.609-.78 14.547 3.792 18.513 3.203 2.778 13.726 8.187 11.933 15.369-1.793 7.182-2.25 13.703 2.69 15.732z" fill="#D8DEE8"/><g opacity=".5" fill="#FCFDFE"><path opacity=".5" d="M102.659 163.247l-.257.169a195.37 195.37 0 01-2.775-4.252c-6.638-10.479-11.977-21.241-15.868-31.989-3.296-9.107-5.601-18.331-6.851-27.416-1.005-7.307-1.337-14.562-.985-21.567.248-4.924.828-9.673 1.724-14.117.156-.774.36-1.561.558-2.322.263-1.014.535-2.061.695-3.088l.298.024c-.163 1.042-.436 2.097-.701 3.117-.197.757-.4 1.54-.555 2.306-.893 4.429-1.472 9.165-1.718 14.075-.352 6.987-.02 14.226.982 21.515 1.248 9.066 3.548 18.272 6.838 27.362 3.884 10.73 9.214 21.475 15.843 31.937a195.626 195.626 0 002.772 4.246z"/><path opacity=".5" d="M79.207 110.662l-.292.088C75.85 98.877 58.527 86.71 58.353 86.588l.187-.239c.175.123 17.579 12.345 20.667 24.313zm11.653 32.294l-.282.119c-3.081-7.77 5.095-22.61 5.178-22.759l.264.123c-.083.148-8.194 14.868-5.16 22.517zm2.155 4.238l-.26.164c-2.937-4.589-9.6-9.17-18.762-12.897-.461-.187-.462-.187-.491-.232l.258-.167-.13.083.09-.121c.03.016.203.087.405.169 9.215 3.748 15.923 8.365 18.89 13.001zm7.961 13.461l-.293.088c-1.532-5.833 4.173-13.421 4.23-13.497l.239.161c-.056.075-5.674 7.547-4.176 13.248zm1.343 2.906c-4.022-2.801-9.09-4.526-15.494-5.273l.056-.288c6.453.753 11.564 2.494 15.625 5.322l-.187.239zm-26.23-81.25l-.296.072c-1.314-6.718-4.337-13.376-5.33-15.565-.24-.529-.324-.716-.34-.787l.293-.083c.014.054.151.356.326.74.995 2.195 4.026 8.875 5.347 15.623zm.432 11.336l-.299-.015C77 87.138 87.615 78.434 88.066 78.066l.186.217c-.11.088-10.967 8.99-11.73 15.364z"/></g><path d="M161.258 171.35c-.945.351-2.292-4.767-7.93-9.27-1.409-1.126-8.665-7.796-15.35-4.596l-3.893 1.864c-2.593-2.288-4.613-4.926-1.321-8.044 5.112-4.842-.123-14.863-3.679-17.518-4.401-3.285-14.477-11.143-6.692-18.743 6.48-6.328 11.963-9.191 7.458-18.8-4.506-9.607-2.229-18.262 7.087-22.42 9.804-4.376 11.173-20.29 21.09-20.391 17.279-.175 16.13 26.79 2.881 41.354-13.249 14.564-.788 15.193 3.786 22.592.385.711.928 1.843 1.316 3.301 2.384 8.975-5.27 14.74-7.825 24.447-3.484 13.236 4.663 25.632 3.072 26.224z" fill="url(#paint0_linear_394_5836)"/><g opacity=".5" fill="#FCFDFE"><path opacity=".5" d="M145.359 152.516l-.485.146c-9.708-33.536-2.177-72.053 19.654-100.52l.401.276c-21.739 28.346-29.238 66.701-19.57 100.098z"/><path opacity=".5" d="M141.72 133.737l-.448.233c-6.49-12.098-22.585-15.803-22.748-15.839l.132-.469c.164.037 16.473 3.787 23.064 16.075zm2.031 12.557l-.503.005c.417-14.013 23.348-27.858 23.58-27.996l.254.406c-.229.136-22.922 13.839-23.331 27.585zm-.15-47.028l-.501.046c-.661-11.066-14.238-21.58-14.375-21.685l.322-.38c.139.106 13.882 10.75 14.554 22.02zm6.694-21.629l-.428-.236c6.953-11.026 24.264-15.904 24.438-15.952l.122.461c-.172.048-17.288 4.874-24.132 15.727z"/></g><path d="M145.221 169.637c-.228.981-5.239-.716-12.106 1.504-1.715.554-11.281 2.93-12.297 10.271l-.592 4.274c-3.339.902-6.652 1.133-7.438-3.333-1.221-6.934-12.467-8.093-16.643-6.59-5.167 1.86-17.278 5.933-19.326-4.752-1.705-8.896-1.071-15.048-11.571-16.587-10.5-1.54-16.464-8.212-14.797-18.276 1.756-10.591-10.766-20.508-5.381-28.837 9.382-14.511 31.244 1.316 36.087 20.4 4.844 19.084 12.24 9.035 20.935 9.3.806.07 2.049.241 3.479.722 8.802 2.959 9.39 12.524 16.079 20.008 9.122 10.205 23.955 10.243 23.571 11.896z" fill="url(#paint1_linear_394_5836)"/><g opacity=".5" fill="#FCFDFE"><path opacity=".5" d="M120.743 172.517l-.146.484c-33.33-10.394-61.31-37.915-73.019-71.824l.45-.183c11.66 33.766 39.523 61.172 72.715 71.523z"/><path opacity=".5" d="M103.07 165.196l-.054.503c-13.67-1.258-25.637 10.128-25.756 10.243l-.318-.369c.12-.116 12.242-11.653 26.128-10.377zm11.595 5.231l-.273.422c-11.46-8.075-10.365-34.839-10.353-35.109l.478.012c-.012.267-1.094 26.754 10.148 34.675zM75.351 144.62l-.238.444c-9.596-5.551-25.854-.023-26.017.034l-.14-.479c.165-.057 16.621-5.652 26.395.001zm-14.353-17.511l-.433.226c-5.364-11.88.112-29.011.168-29.183l.452.153c-.055.17-5.467 17.11-.187 28.804z"/></g><path d="M123.799 200.006c-.443.019-.866.028-1.271.028-16.046 0-56.511 3.101-68.464-31.642C43.082 136.483 84.03 87.556 90.78 79.794c.599-.69.929-1.054.929-1.054s-1.783-1.312 34.31-2.703c41.45 31.79 48.001 56.957 48.001 56.957 13.186 51.563-33.026 66.305-50.22 67.012z" fill="url(#paint2_linear_394_5836)"/><path opacity=".3" d="M123.799 200.006c-.443.019-.866.028-1.271.028-16.046 0-56.511 3.101-68.464-31.642C43.082 136.484 84.03 87.556 90.78 79.794c1.72-.267 3.377-.185 4.953.305.602.188-84.028 108.478 28.067 119.907z" fill="url(#paint3_linear_394_5836)"/><path d="M84.845 51.477s6.731-11.448 16.234-7.23c9.503 4.218 17.158 7.38 22.174 4.368 5.015-3.012 7.639-5.4 9.033 1.216 1.394 6.616-17.612 22.884-17.612 22.884s-29.037 0-29.83-21.238z" fill="url(#paint4_linear_394_5836)"/><path opacity=".2" d="M84.845 56.499s6.731-11.448 16.234-7.23c9.503 4.218 17.158 7.38 22.174 4.368 5.015-3.012 7.639-5.4 9.033 1.216 1.394 6.616-17.612 22.884-17.612 22.884s-29.037 0-29.83-21.238z" fill="url(#paint5_linear_394_5836)"/><path d="M133.714 67.719c-2.693 4.002-5.835 7.432-8.6 8.845-3.469 1.77-9.646 2.844-15.798 3.293-6.155.445-12.288.266-15.653-.468l-.006-.003c-.835-.183-1.497-.399-1.95-.647 0 0-10.876-17.27-11.032-25.327-.053-2.558.976-4.187 3.772-4.042 11.617.6 11.88 7.078 19.8 5.27 7.919-1.808 13.726-13.858 19.005-6.023 5.28 7.83 10.955-3.315 15.707.3 3.067 2.333-.342 11.514-5.245 18.802z" fill="url(#paint6_linear_394_5836)"/><path d="M91.07 77.702s21.378 6.127 35.357-1.94c1.204 1.522 1.829 2.011 1.829 2.011s-10.269 9.378-38.048 2.682c0 0 .675-1.985.862-2.753z" fill="url(#paint7_linear_394_5836)"/><path opacity=".2" d="M133.714 67.719c-2.694 4.002-5.835 7.432-8.601 8.845-3.468 1.77-9.645 2.844-15.797 3.292l-15.653-.467-.007-.004c-.835-.182-1.497-.398-1.95-.646 0 0-10.875-17.27-11.032-25.327.132-.141 4.407-4.658 9.533 5.026 5.21 9.833 7.094 18.406 13.265 14.278 6.173-4.131 15.693-20.345 17.37-12.71 1.673 7.637-4.502 14.986 0 13.77 3.509-.948 10.27-6.19 12.872-6.057z" fill="url(#paint8_linear_394_5836)"/><path opacity=".9" d="M118.632 104.662c1.317-.047 2.423.86 2.473 2.029l.169 3.999a74.002 74.002 0 0113.77.978c1.157.192 1.986 1.115 1.924 2.181l-.298 5.107c-.08 1.36-1.534 2.338-2.971 1.956a33.977 33.977 0 00-3.948-.798c-2.35-.333-4.819-.433-7.41-.3l-.678.035.496 11.681c7.009.834 12.195 2.501 15.617 5.001 3.409 2.49 5.228 5.922 5.466 10.319.258 4.78-1.343 8.876-4.833 12.298-3.53 3.46-8.629 5.853-15.341 7.162l.2 4.728c.053 1.26-1.01 2.401-2.378 2.547l-.045.005c-1.371.147-2.527-.762-2.577-2.029l-.183-4.674-1.101.11a79.401 79.401 0 01-9.182.405 62.947 62.947 0 01-6.395-.426c-1.262-.151-2.154-1.105-2.072-2.275l.488-6.986c.106-1.502 1.74-2.59 3.327-2.248 1.849.397 3.716.689 5.601.876 2.934.292 5.894.331 8.88.118l-.483-13.382c-6.802-.599-11.945-2.142-15.371-4.628-3.44-2.496-5.227-6.02-5.353-10.548-.13-4.66 1.58-8.463 5.099-11.405 3.483-2.91 8.483-4.749 14.96-5.53l-.162-4.095c-.046-1.176.989-2.164 2.311-2.211zm-1.777 15.664c-2.05.387-3.637 1.085-4.755 2.096-1.122 1.014-1.658 2.257-1.606 3.729.05 1.396.629 2.497 1.734 3.3 1.104.802 2.79 1.339 5.052 1.612l-.425-10.737zm5.251 23.164l.517 12.248c2.269-.307 3.985-1.034 5.152-2.178 1.163-1.14 1.702-2.596 1.62-4.369-.075-1.615-.694-2.877-1.86-3.789-1.167-.914-2.974-1.551-5.429-1.912z" fill="url(#paint9_linear_394_5836)"/><path d="M43.714 200.736v6.89c0 2.226 13.907 4.031 31.062 4.031s31.062-1.805 31.062-4.031v-6.89H43.714z" fill="url(#paint10_linear_394_5836)"/><path d="M105.839 200.736c0 2.226-13.907 4.031-31.062 4.031-17.154 0-31.061-1.805-31.061-4.031s13.907-4.031 31.061-4.031c17.155 0 31.062 1.805 31.062 4.031z" fill="url(#paint11_linear_394_5836)"/><path d="M74.776 205.045c-15.193 0-31.08-1.452-31.08-4.25 0-.154.055-.424.209-.424s.087.212.087.365c0 1.775 12.643 3.753 30.784 3.753s30.783-1.978 30.783-3.753c0-.153.026-.298.18-.298s.117.206.117.36c.001 2.798-15.886 4.247-31.08 4.247z" fill="url(#paint12_linear_394_5836)"/><path d="M71.841 200.96c.305-.211.63-.419.976-.624.344-.205.792-.391 1.335-.557.546-.165 1.228-.3 2.047-.405.82-.104 1.844-.159 3.067-.165a41.04 41.04 0 013.38.114c1.052.082 1.98.205 2.78.368.798.163 1.45.366 1.953.606.499.241.796.516.892.827l3.498.035c.253.002.478.023.67.062.196.04.29.09.29.151l.002.288-4.497-.043c-.158.353-.56.676-1.205.968-.643.293-1.465.547-2.466.761l-1.638-.227a1.932 1.932 0 01-.361-.086c-.095-.034-.14-.072-.14-.112 0-.056.126-.119.379-.19.253-.071.54-.159.858-.264a8.7 8.7 0 00.938-.371c.305-.143.51-.313.616-.511l-10.613-.105c-.28.205-.594.406-.938.604-.347.198-.805.376-1.376.535-.572.158-1.284.286-2.135.386-.856.098-1.925.151-3.22.157-.973.005-1.92-.032-2.848-.111a19.443 19.443 0 01-2.47-.352c-.72-.157-1.31-.35-1.773-.58-.46-.231-.718-.495-.771-.795l-2.88-.03a3.748 3.748 0 01-.68-.06c-.198-.039-.3-.089-.3-.153l-.001-.288 3.937.037c.174-.303.53-.568 1.076-.793.545-.225 1.211-.425 1.998-.601l1.319.181c.4.057.599.122.6.198 0 .041-.082.091-.247.152-.17.06-.364.133-.592.216a5.427 5.427 0 00-.655.296 1.392 1.392 0 00-.48.384l9.675.097zm-9.712.393c.079.188.255.351.523.488.267.137.6.249 1 .338.4.088.85.152 1.348.194.5.041 1.025.06 1.571.058a16.536 16.536 0 001.669-.083 9.704 9.704 0 001.248-.211c.358-.088.673-.192.939-.309a5.23 5.23 0 00.717-.384l-9.015-.091zm23.104-.257c-.08-.192-.272-.36-.572-.504a5.15 5.15 0 00-1.15-.363 12.8 12.8 0 00-1.631-.219 25.373 25.373 0 00-2.05-.066c-.664.003-1.24.033-1.718.089a8.701 8.701 0 00-1.248.227 4.509 4.509 0 00-.896.331 6.34 6.34 0 00-.688.405l9.953.1z" fill="#FCB048"/><path d="M74.78 197.141c-13.85 0-28.27 1.219-30.577 3.578.09.083.174.171.252.265 1.944-1.638 13.852-3.287 30.325-3.287 16.897 0 28.995 1.735 30.461 3.414a2.76 2.76 0 01.232-.263c-1.905-2.443-16.596-3.707-30.692-3.707z" fill="url(#paint13_linear_394_5836)"/><path d="M35.08 193.499v6.889c0 2.227 13.906 4.031 31.061 4.031s31.062-1.804 31.062-4.031v-6.889H35.08z" fill="url(#paint14_linear_394_5836)"/><path d="M97.203 193.499c0 2.226-13.906 4.031-31.061 4.031s-31.062-1.805-31.062-4.031c0-2.227 13.907-4.031 31.062-4.031s31.061 1.804 31.061 4.031z" fill="url(#paint15_linear_394_5836)"/><path d="M66.142 197.808c-15.193 0-31.08-1.451-31.08-4.25 0-.154.054-.424.208-.424s.087.211.087.365c0 1.775 12.643 3.753 30.784 3.753 18.14 0 30.783-1.978 30.783-3.753 0-.154.027-.298.18-.298.154 0 .117.206.117.359 0 2.799-15.886 4.248-31.08 4.248z" fill="url(#paint16_linear_394_5836)"/><path d="M63.206 193.723c.305-.211.63-.418.976-.624.344-.205.792-.39 1.335-.556.546-.166 1.228-.301 2.047-.405.82-.105 1.844-.16 3.067-.166 1.2-.006 2.326.032 3.38.115 1.051.082 1.98.204 2.78.368.798.163 1.45.366 1.953.606.499.24.796.516.892.826l3.498.036c.253.001.478.022.67.062.196.04.29.09.29.151l.002.288-4.497-.044c-.158.353-.56.676-1.205.969-.643.292-1.465.545-2.466.76l-1.638-.228a1.862 1.862 0 01-.361-.085c-.095-.034-.14-.072-.141-.113 0-.055.126-.118.38-.189.252-.071.539-.159.857-.265a8.71 8.71 0 00.938-.37c.306-.143.51-.313.616-.511l-10.613-.106a9.866 9.866 0 01-.937.605c-.347.198-.805.377-1.377.535-.571.159-1.284.287-2.135.386-.855.099-1.925.151-3.22.157-.973.005-1.92-.032-2.847-.11a19.444 19.444 0 01-2.471-.352c-.72-.157-1.31-.35-1.773-.581-.46-.231-.718-.495-.771-.794l-2.88-.03a3.66 3.66 0 01-.68-.06c-.198-.038-.3-.089-.3-.153v-.288l3.936.038c.174-.304.53-.569 1.076-.794.545-.225 1.211-.425 1.998-.601l1.319.181c.4.057.599.123.6.198 0 .04-.081.091-.247.151-.17.061-.364.133-.591.217a5.42 5.42 0 00-.656.296c-.214.113-.373.24-.48.384l9.676.096zm-9.712.393c.079.189.255.351.523.488.267.138.6.249 1 .338.4.088.85.153 1.347.194a17.68 17.68 0 001.572.058 16.553 16.553 0 001.669-.082 9.864 9.864 0 001.248-.211 5.198 5.198 0 001.655-.693l-9.014-.092zm23.104-.258c-.079-.191-.272-.359-.571-.503a5.15 5.15 0 00-1.15-.363 12.797 12.797 0 00-1.632-.219 24.922 24.922 0 00-2.05-.066c-.663.003-1.239.033-1.717.089a8.853 8.853 0 00-1.248.226 4.62 4.62 0 00-.897.332 6.34 6.34 0 00-.688.405l9.953.099z" fill="#FCB048"/><path d="M66.146 189.904c-13.85 0-28.27 1.219-30.577 3.578.09.083.174.173.252.266 1.944-1.638 13.852-3.287 30.325-3.287 16.896 0 28.994 1.735 30.46 3.413.072-.092.15-.18.232-.263-1.904-2.443-16.596-3.707-30.692-3.707z" fill="url(#paint17_linear_394_5836)"/><path d="M42.53 186.283v6.89c0 2.226 13.907 4.031 31.062 4.031s31.062-1.805 31.062-4.031v-6.89H42.53z" fill="url(#paint18_linear_394_5836)"/><path d="M104.654 186.283c0 2.226-13.907 4.031-31.062 4.031s-31.061-1.805-31.061-4.031 13.906-4.031 31.061-4.031 31.062 1.805 31.062 4.031z" fill="url(#paint19_linear_394_5836)"/><path d="M73.592 190.592c-15.193 0-31.08-1.451-31.08-4.25 0-.154.055-.423.209-.423s.087.211.087.365c0 1.775 12.643 3.753 30.784 3.753 18.14 0 30.783-1.978 30.783-3.753 0-.154.026-.298.18-.298s.117.205.117.359c0 2.798-15.887 4.247-31.08 4.247z" fill="url(#paint20_linear_394_5836)"/><path d="M70.657 186.508c.305-.211.629-.419.976-.624.344-.205.792-.391 1.334-.556.546-.166 1.229-.301 2.048-.406.82-.104 1.843-.159 3.067-.165 1.2-.006 2.326.032 3.38.114 1.051.082 1.979.205 2.78.368.798.164 1.45.366 1.952.606.5.241.796.516.892.827l3.498.035c.254.002.478.023.67.062.196.04.29.09.29.151l.002.289-4.496-.044c-.158.353-.56.676-1.206.968-.642.293-1.465.546-2.465.761l-1.638-.228a1.855 1.855 0 01-.362-.086c-.095-.034-.14-.071-.14-.112 0-.055.126-.118.379-.189.253-.071.54-.16.858-.265.318-.104.63-.228.938-.371.305-.142.51-.313.616-.511l-10.613-.105c-.28.205-.594.406-.938.605-.347.198-.805.376-1.376.535-.572.158-1.284.287-2.136.386-.855.099-1.925.151-3.22.157-.972.005-1.92-.032-2.847-.11a19.627 19.627 0 01-2.47-.352c-.72-.157-1.31-.35-1.773-.581-.46-.231-.718-.495-.771-.795l-2.88-.029a3.748 3.748 0 01-.68-.06c-.199-.038-.3-.089-.3-.153l-.001-.288 3.937.037c.174-.303.53-.568 1.076-.793.545-.226 1.211-.425 1.998-.601l1.318.181c.401.056.6.122.6.197 0 .041-.08.092-.246.152l-.592.216a5.595 5.595 0 00-.655.296 1.392 1.392 0 00-.48.384l9.676.097zm-9.713.393c.08.189.256.351.523.488s.6.249 1 .338c.401.088.85.152 1.348.194.501.041 1.026.06 1.572.058a16.533 16.533 0 001.668-.083 9.535 9.535 0 001.249-.211 5.172 5.172 0 001.655-.693l-9.015-.091zm23.105-.258c-.08-.191-.272-.359-.572-.503a5.15 5.15 0 00-1.15-.363 12.8 12.8 0 00-1.631-.219 25.345 25.345 0 00-2.05-.067c-.664.004-1.24.033-1.717.089a8.984 8.984 0 00-1.249.227 4.573 4.573 0 00-.896.331 6.51 6.51 0 00-.688.406l9.953.099z" fill="#FCB048"/><path d="M73.597 182.689c-13.85 0-28.27 1.219-30.578 3.578.09.083.174.172.252.265 1.944-1.638 13.852-3.287 30.325-3.287 16.897 0 28.995 1.735 30.461 3.414.071-.092.148-.18.232-.263-1.905-2.444-16.597-3.707-30.692-3.707z" fill="url(#paint21_linear_394_5836)"/><path d="M47.052 179.047v6.89c0 2.226 13.907 4.031 31.062 4.031s31.061-1.805 31.061-4.031v-6.89H47.052z" fill="url(#paint22_linear_394_5836)"/><path d="M78.114 183.078c17.155 0 31.062-1.805 31.062-4.031s-13.907-4.031-31.062-4.031-31.061 1.805-31.061 4.031 13.907 4.031 31.061 4.031z" fill="url(#paint23_linear_394_5836)"/><path d="M78.114 183.356c-15.193 0-31.08-1.451-31.08-4.25 0-.154.055-.424.209-.424s.087.211.087.365c0 1.775 12.643 3.752 30.784 3.752s30.783-1.977 30.783-3.752c0-.154.026-.298.18-.298s.117.205.117.359c0 2.799-15.887 4.248-31.08 4.248z" fill="url(#paint24_linear_394_5836)"/><path d="M75.18 179.271c.304-.211.629-.419.975-.624.344-.205.792-.391 1.335-.557.546-.165 1.228-.3 2.047-.405.82-.104 1.844-.16 3.067-.165 1.2-.006 2.326.032 3.38.114 1.051.082 1.98.205 2.78.368.798.163 1.45.366 1.952.606.5.241.797.516.893.827l3.497.035c.254.002.479.023.671.062.195.04.29.09.29.151l.002.288-4.497-.043c-.158.353-.56.675-1.206.968-.642.293-1.464.546-2.465.761l-1.638-.227a1.93 1.93 0 01-.362-.086c-.094-.034-.14-.072-.14-.112 0-.056.127-.119.38-.19.253-.071.54-.159.858-.264a8.7 8.7 0 00.938-.371c.305-.143.509-.313.616-.511l-10.613-.105a10.08 10.08 0 01-.938.604c-.347.198-.805.376-1.376.535-.572.158-1.284.286-2.136.386-.855.098-1.925.151-3.22.157a31.59 31.59 0 01-2.847-.111 19.641 19.641 0 01-2.47-.351c-.72-.157-1.31-.35-1.773-.581-.46-.231-.718-.495-.772-.795l-2.879-.03a3.747 3.747 0 01-.68-.06c-.199-.038-.3-.089-.3-.153l-.001-.288 3.937.037c.174-.303.53-.568 1.076-.793.545-.225 1.211-.425 1.998-.601l1.318.181c.4.057.6.122.6.198 0 .041-.08.091-.246.152-.17.06-.364.133-.592.216a5.42 5.42 0 00-.655.296 1.394 1.394 0 00-.48.384l9.675.097zm-9.713.393c.079.188.255.351.523.488.267.137.6.249 1 .338.4.088.85.152 1.348.194.501.041 1.025.06 1.572.058a16.525 16.525 0 001.669-.083 9.69 9.69 0 001.248-.211c.357-.089.673-.192.938-.31.267-.117.503-.245.717-.383l-9.015-.091zm23.103-.258c-.079-.191-.271-.359-.571-.503a5.149 5.149 0 00-1.15-.363 12.795 12.795 0 00-1.632-.219 25.376 25.376 0 00-2.05-.066c-.663.003-1.239.033-1.717.089a8.699 8.699 0 00-1.248.227 4.506 4.506 0 00-.896.331 6.342 6.342 0 00-.688.405l9.952.099z" fill="#FCB048"/><path d="M78.118 175.452c-13.85 0-28.27 1.219-30.577 3.578.09.083.174.171.251.265 1.944-1.638 13.852-3.287 30.326-3.287 16.896 0 28.994 1.735 30.46 3.414a2.76 2.76 0 01.232-.263c-1.904-2.443-16.596-3.707-30.692-3.707z" fill="url(#paint25_linear_394_5836)"/><path d="M43.714 171.239v6.89c0 2.226 13.907 4.031 31.062 4.031s31.062-1.805 31.062-4.031v-6.89H43.714z" fill="url(#paint26_linear_394_5836)"/><path d="M105.839 171.239c0 2.226-13.907 4.031-31.062 4.031-17.154 0-31.061-1.805-31.061-4.031 0-2.227 13.907-4.031 31.061-4.031 17.155 0 31.062 1.804 31.062 4.031z" fill="url(#paint27_linear_394_5836)"/><path d="M74.776 175.548c-15.193 0-31.08-1.451-31.08-4.25 0-.154.055-.424.209-.424s.087.211.087.365c0 1.775 12.643 3.752 30.784 3.752s30.783-1.977 30.783-3.752c0-.154.026-.298.18-.298s.117.205.117.359c.001 2.799-15.886 4.248-31.08 4.248z" fill="url(#paint28_linear_394_5836)"/><path d="M71.841 171.464c.305-.211.63-.419.976-.624.344-.206.792-.391 1.335-.557.546-.166 1.228-.3 2.047-.405.82-.105 1.844-.16 3.067-.166 1.2-.006 2.326.032 3.38.115 1.052.081 1.98.204 2.78.368.798.163 1.45.366 1.953.606.499.24.796.516.892.826l3.498.036c.253.001.478.022.67.062.196.04.29.09.29.151l.002.288-4.497-.043c-.158.352-.56.675-1.205.968-.643.292-1.465.546-2.466.761l-1.638-.228a1.863 1.863 0 01-.361-.085c-.095-.034-.14-.072-.14-.113 0-.055.126-.118.379-.189.253-.071.54-.159.858-.265a8.71 8.71 0 00.938-.37c.305-.143.51-.314.616-.512l-10.613-.105c-.28.205-.594.407-.938.605-.347.198-.805.377-1.376.535-.572.159-1.284.287-2.135.386-.856.099-1.925.151-3.22.157a31.99 31.99 0 01-2.848-.11 19.624 19.624 0 01-2.47-.352c-.72-.157-1.31-.35-1.773-.581-.46-.231-.718-.495-.771-.794l-2.88-.03a3.84 3.84 0 01-.68-.06c-.198-.038-.3-.089-.3-.153l-.001-.288 3.937.037c.174-.303.53-.568 1.076-.793.545-.225 1.211-.425 1.998-.601l1.319.181c.4.057.599.122.6.198 0 .041-.082.091-.247.152-.17.06-.364.133-.592.216a5.427 5.427 0 00-.655.296 1.392 1.392 0 00-.48.384l9.675.096zm-9.712.392c.079.189.255.352.523.488.267.138.6.25 1 .338.4.089.85.153 1.348.194a17.68 17.68 0 001.571.058 16.563 16.563 0 001.669-.082 9.704 9.704 0 001.248-.211 5.187 5.187 0 001.655-.693l-9.014-.092zm23.104-.258c-.08-.191-.272-.359-.572-.503a5.15 5.15 0 00-1.15-.363 12.8 12.8 0 00-1.631-.219 25.373 25.373 0 00-2.05-.066c-.664.003-1.24.033-1.718.089a8.701 8.701 0 00-1.248.227 4.509 4.509 0 00-.896.331 6.34 6.34 0 00-.688.405l9.953.099z" fill="#FCB048"/><path d="M74.78 167.644c-13.85 0-28.27 1.219-30.577 3.578.09.084.174.173.252.266 1.944-1.638 13.852-3.287 30.325-3.287 16.897 0 28.995 1.735 30.461 3.413a2.89 2.89 0 01.232-.263c-1.905-2.443-16.596-3.707-30.692-3.707z" fill="url(#paint29_linear_394_5836)"/><path d="M35.08 164.002v6.89c0 2.226 13.906 4.031 31.061 4.031s31.062-1.805 31.062-4.031v-6.89H35.08z" fill="url(#paint30_linear_394_5836)"/><path d="M66.142 168.033c17.155 0 31.061-1.805 31.061-4.031s-13.906-4.031-31.061-4.031-31.062 1.805-31.062 4.031 13.907 4.031 31.062 4.031z" fill="url(#paint31_linear_394_5836)"/><path d="M66.142 168.311c-15.193 0-31.08-1.45-31.08-4.25 0-.153.054-.424.208-.424s.087.211.087.365c0 1.775 12.643 3.753 30.784 3.753 18.14 0 30.783-1.978 30.783-3.753 0-.154.027-.298.18-.298.154 0 .117.205.117.359 0 2.799-15.886 4.248-31.08 4.248z" fill="url(#paint32_linear_394_5836)"/><path d="M63.206 164.227c.305-.211.63-.419.976-.625.344-.205.792-.39 1.335-.556.546-.166 1.228-.301 2.047-.405.82-.105 1.844-.16 3.067-.166 1.2-.006 2.326.032 3.38.115a22.71 22.71 0 012.78.368c.798.163 1.45.366 1.953.606.499.24.796.516.892.826l3.498.036c.253.001.478.022.67.062.196.04.29.09.29.151l.002.288-4.497-.043c-.158.352-.56.675-1.205.968-.643.292-1.465.546-2.466.761l-1.638-.228a1.938 1.938 0 01-.361-.085c-.095-.035-.14-.072-.141-.113 0-.055.126-.118.38-.189.252-.071.539-.159.857-.265.318-.104.63-.228.938-.371.306-.142.51-.313.616-.511l-10.613-.105c-.279.205-.593.407-.937.605-.347.198-.805.376-1.377.535-.571.158-1.284.287-2.135.386-.855.099-1.925.151-3.22.157-.973.005-1.92-.032-2.847-.11a19.626 19.626 0 01-2.471-.352c-.72-.157-1.31-.35-1.773-.58-.46-.231-.718-.496-.771-.795l-2.88-.03a3.748 3.748 0 01-.68-.06c-.198-.038-.3-.089-.3-.153v-.288l3.936.037c.174-.303.53-.567 1.076-.793.545-.225 1.211-.425 1.998-.601l1.319.181c.4.056.599.122.6.198 0 .041-.081.091-.247.152-.17.06-.364.133-.591.217a5.42 5.42 0 00-.656.296c-.214.113-.373.24-.48.384l9.676.095zm-9.712.392c.079.189.255.351.523.488.267.138.6.249 1 .338.4.088.85.153 1.347.194a17.68 17.68 0 001.572.058 16.553 16.553 0 001.669-.082 9.688 9.688 0 001.248-.211 5.198 5.198 0 001.655-.693l-9.014-.092zm23.104-.257c-.079-.191-.272-.359-.571-.503a5.15 5.15 0 00-1.15-.363 12.797 12.797 0 00-1.632-.219 25.345 25.345 0 00-2.05-.067 15.93 15.93 0 00-1.717.089 8.988 8.988 0 00-1.248.227c-.35.095-.653.205-.897.332a6.34 6.34 0 00-.688.405l9.953.099z" fill="#FCB048"/><path d="M66.146 160.407c-13.85 0-28.27 1.219-30.577 3.578.09.084.174.172.252.266 1.944-1.638 13.852-3.287 30.325-3.287 16.896 0 28.994 1.735 30.46 3.413.072-.092.15-.18.232-.263-1.904-2.443-16.596-3.707-30.692-3.707z" fill="url(#paint33_linear_394_5836)"/><path d="M42.53 156.787v6.89c0 2.226 13.907 4.031 31.062 4.031s31.062-1.805 31.062-4.031v-6.89H42.53z" fill="url(#paint34_linear_394_5836)"/><path d="M73.592 160.818c17.155 0 31.062-1.805 31.062-4.031s-13.907-4.031-31.062-4.031c-17.154 0-31.061 1.805-31.061 4.031s13.907 4.031 31.061 4.031z" fill="url(#paint35_linear_394_5836)"/><path d="M73.592 161.096c-15.193 0-31.08-1.451-31.08-4.25 0-.154.055-.424.209-.424s.087.212.087.366c0 1.775 12.643 3.752 30.784 3.752 18.14 0 30.783-1.977 30.783-3.752 0-.154.026-.298.18-.298s.117.205.117.359c0 2.798-15.887 4.247-31.08 4.247z" fill="url(#paint36_linear_394_5836)"/><path d="M70.657 157.011c.305-.211.629-.419.976-.625.344-.205.792-.39 1.334-.556.546-.166 1.229-.301 2.048-.405.82-.105 1.843-.16 3.067-.166 1.2-.006 2.326.032 3.38.114 1.051.082 1.979.205 2.78.369.798.163 1.45.365 1.952.605.5.241.796.517.892.827l3.498.036c.254.001.478.022.67.062.196.04.29.09.29.151l.002.288-4.496-.044c-.158.353-.56.676-1.206.969-.642.292-1.465.546-2.465.761l-1.638-.228a1.855 1.855 0 01-.362-.086c-.095-.034-.14-.071-.14-.112 0-.055.126-.118.379-.189.253-.071.54-.16.858-.265.318-.104.63-.228.938-.371.305-.142.51-.313.616-.511l-10.613-.105c-.28.205-.594.406-.938.604-.347.198-.805.377-1.376.535-.572.159-1.284.287-2.136.386-.855.099-1.925.151-3.22.158-.972.005-1.92-.032-2.847-.11a19.433 19.433 0 01-2.47-.353c-.72-.157-1.31-.35-1.773-.58-.46-.231-.718-.495-.771-.795l-2.88-.03a3.748 3.748 0 01-.68-.06c-.199-.038-.3-.089-.3-.153l-.001-.288 3.937.038c.174-.304.53-.568 1.076-.794.545-.225 1.211-.425 1.998-.601l1.318.181c.401.057.6.122.6.198 0 .041-.08.091-.246.152-.17.06-.364.133-.592.217a5.434 5.434 0 00-.655.296 1.392 1.392 0 00-.48.384l9.676.096zm-9.713.393c.08.188.256.351.523.488s.6.249 1 .338c.401.088.85.152 1.348.194.501.041 1.026.06 1.572.058a16.533 16.533 0 001.668-.083 9.706 9.706 0 001.249-.211 5.172 5.172 0 001.655-.693l-9.015-.091zm23.105-.257c-.08-.192-.272-.36-.572-.504a5.15 5.15 0 00-1.15-.363 12.8 12.8 0 00-1.631-.219 25.841 25.841 0 00-2.05-.066c-.664.003-1.24.033-1.717.089a8.697 8.697 0 00-1.249.227 4.51 4.51 0 00-.896.331 6.34 6.34 0 00-.688.405l9.953.1z" fill="#FCB048"/><path d="M73.597 153.192c-13.85 0-28.27 1.219-30.578 3.578.09.083.174.172.252.265 1.944-1.638 13.852-3.287 30.325-3.287 16.897 0 28.995 1.735 30.461 3.414.071-.092.148-.181.232-.263-1.905-2.443-16.597-3.707-30.692-3.707z" fill="url(#paint37_linear_394_5836)"/><path d="M38.654 149.55v6.89c0 2.226 13.907 4.031 31.062 4.031s31.062-1.805 31.062-4.031v-6.89H38.654z" fill="url(#paint38_linear_394_5836)"/><path d="M69.717 153.581c17.155 0 31.062-1.804 31.062-4.031 0-2.226-13.907-4.031-31.062-4.031-17.154 0-31.061 1.805-31.061 4.031 0 2.227 13.907 4.031 31.061 4.031z" fill="url(#paint39_linear_394_5836)"/><path d="M69.716 153.859c-15.193 0-31.08-1.451-31.08-4.25 0-.154.055-.424.209-.424s.087.211.087.365c0 1.775 12.643 3.753 30.784 3.753s30.783-1.978 30.783-3.753c0-.154.026-.298.18-.298s.117.206.117.359c.001 2.799-15.887 4.248-31.08 4.248z" fill="url(#paint40_linear_394_5836)"/><path d="M66.781 149.775c.304-.211.63-.419.976-.625.344-.205.792-.391 1.334-.557.546-.165 1.229-.3 2.048-.405.82-.104 1.844-.16 3.067-.165a41.04 41.04 0 013.38.114c1.051.082 1.98.205 2.78.368.798.163 1.45.366 1.952.606.5.241.797.516.893.827l3.497.035c.254.002.478.023.671.062.195.04.29.09.29.151l.001.288-4.496-.043c-.158.353-.56.675-1.206.968-.642.293-1.464.547-2.465.761l-1.638-.227a1.932 1.932 0 01-.362-.086c-.094-.034-.14-.072-.14-.112 0-.056.126-.119.379-.19.253-.071.54-.159.858-.264a8.7 8.7 0 00.938-.371c.305-.143.51-.313.616-.511l-10.613-.105a10.29 10.29 0 01-.938.605c-.347.198-.804.376-1.376.534-.572.159-1.284.287-2.136.386-.854.099-1.925.152-3.22.158-.972.004-1.92-.033-2.847-.111a19.445 19.445 0 01-2.47-.352c-.72-.157-1.31-.35-1.773-.581-.46-.231-.718-.495-.771-.795l-2.88-.029a3.84 3.84 0 01-.68-.06c-.199-.038-.3-.09-.3-.153l-.001-.288 3.937.037c.174-.303.53-.567 1.076-.792.545-.226 1.211-.426 1.998-.602l1.319.181c.4.057.599.123.6.198 0 .041-.082.092-.247.152-.17.061-.364.133-.592.217a5.27 5.27 0 00-.655.296c-.215.113-.373.24-.48.384l9.676.096zm-9.713.392c.08.189.256.351.523.488.268.138.6.25 1 .338.401.088.85.153 1.348.194a17.68 17.68 0 001.572.058 16.553 16.553 0 001.669-.082 9.69 9.69 0 001.248-.211 5.191 5.191 0 001.655-.693l-9.015-.092zm23.104-.258c-.079-.191-.272-.359-.571-.503a5.15 5.15 0 00-1.15-.363 12.795 12.795 0 00-1.632-.219 25.373 25.373 0 00-2.05-.066c-.663.003-1.239.033-1.717.089a8.7 8.7 0 00-1.248.227 4.51 4.51 0 00-.897.331 6.34 6.34 0 00-.688.405l9.953.099z" fill="#FCB048"/><path d="M69.721 145.955c-13.85 0-28.27 1.219-30.577 3.578.09.084.174.173.251.266 1.945-1.638 13.853-3.287 30.325-3.287 16.897 0 28.995 1.735 30.461 3.413a2.89 2.89 0 01.232-.263c-1.904-2.442-16.596-3.707-30.692-3.707z" fill="url(#paint41_linear_394_5836)"/><path d="M109.615 154.407l-5.614 3.994c-1.814 1.29 4.776 13.669 14.719 27.648 9.944 13.979 19.475 24.266 21.289 22.976l5.614-3.994-36.008-50.624z" fill="url(#paint42_linear_394_5836)"/><path d="M145.623 205.03c-1.814 1.291-11.346-8.995-21.289-22.975-9.944-13.979-16.534-26.358-14.72-27.648 1.814-1.291 11.346 8.995 21.29 22.975 9.943 13.979 16.533 26.358 14.719 27.648z" fill="url(#paint43_linear_394_5836)"/><path d="M124.107 182.216c-8.806-12.38-16.832-26.167-14.551-27.79.125-.088.377-.201.466-.075.089.125-.122.194-.247.283-1.446 1.028 4.27 12.477 14.786 27.26 10.515 14.782 19.455 23.939 20.901 22.909.125-.088.258-.151.346-.025.089.125-.099.214-.224.303-2.281 1.622-12.671-10.485-21.477-22.865z" fill="url(#paint44_linear_394_5836)"/><path d="M125.734 177.457c.349.126.706.27 1.075.433.366.162.777.419 1.226.765.451.349.957.827 1.517 1.434.56.607 1.199 1.41 1.912 2.403a41.198 41.198 0 011.867 2.822c.542.904.98 1.731 1.311 2.478.33.746.543 1.393.638 1.942.093.546.041.948-.156 1.206l1.998 2.871c.146.208.26.402.338.582.081.182.095.289.045.324l-.234.169-2.571-3.689c-.379.075-.875-.065-1.487-.422-.611-.354-1.294-.877-2.049-1.568l-.764-1.467a1.991 1.991 0 01-.14-.344c-.027-.097-.023-.156.011-.18.044-.032.169.035.374.2s.443.348.712.546c.27.199.551.382.847.55.292.166.549.233.773.205l-6.065-8.709a10.012 10.012 0 01-1.036-.414c-.362-.168-.773-.438-1.234-.811-.46-.374-.978-.88-1.552-1.517-.576-.64-1.239-1.481-1.995-2.532a32.09 32.09 0 01-1.56-2.385 19.265 19.265 0 01-1.145-2.217c-.29-.678-.474-1.27-.555-1.781-.078-.509-.012-.872.201-1.09l-1.645-2.364a3.693 3.693 0 01-.345-.589c-.084-.184-.101-.296-.05-.333l.235-.169 2.251 3.23c.348-.034.77.103 1.27.418.5.313 1.049.74 1.647 1.28l.617 1.179c.186.359.248.559.186.603-.033.024-.121-.013-.266-.113-.147-.103-.319-.22-.519-.356a5.354 5.354 0 00-.621-.363 1.396 1.396 0 00-.591-.169l5.529 7.942zm-5.949-7.687c-.108.174-.138.412-.095.709.043.297.144.633.304 1.011.161.377.369.781.624 1.211.257.432.544.87.863 1.314.373.517.717.955 1.035 1.312.316.354.614.652.896.894.279.24.546.437.796.586.251.148.492.267.728.362l-5.151-7.399zm13.601 18.678c.11-.176.135-.43.079-.758-.056-.328-.181-.712-.371-1.148a12.65 12.65 0 00-.767-1.456 25.106 25.106 0 00-1.134-1.709c-.388-.538-.745-.99-1.068-1.347a8.793 8.793 0 00-.909-.886 4.508 4.508 0 00-.789-.538 6.495 6.495 0 00-.729-.326l5.688 8.168z" fill="#FCB048"/><path d="M130.551 177.639c-8.028-11.286-17.38-22.331-20.64-22.844a2.68 2.68 0 01-.07.359c2.462.635 10.708 9.383 20.256 22.807 9.793 13.768 15.392 24.633 14.874 26.8.116.005.233.017.349.037.887-2.969-6.599-15.673-14.769-27.159z" fill="url(#paint45_linear_394_5836)"/><defs><linearGradient id="paint0_linear_394_5836" x1="135.44" y1="100.744" x2="283.526" y2="169.222" gradientUnits="userSpaceOnUse"><stop offset=".004" stop-color="#E38DDD"/><stop offset="1" stop-color="#9571F6"/></linearGradient><linearGradient id="paint1_linear_394_5836" x1="72.083" y1="152.242" x2="210.866" y2="66.464" gradientUnits="userSpaceOnUse"><stop offset=".004" stop-color="#E38DDD"/><stop offset="1" stop-color="#9571F6"/></linearGradient><linearGradient id="paint2_linear_394_5836" x1="52.204" y1="138.071" x2="176.354" y2="138.071" gradientUnits="userSpaceOnUse"><stop offset=".004" stop-color="#6165D7"/><stop offset="1" stop-color="#AA80F9"/></linearGradient><linearGradient id="paint3_linear_394_5836" x1="52.204" y1="139.874" x2="123.799" y2="139.874" gradientUnits="userSpaceOnUse"><stop offset=".004" stop-color="#6165D7"/><stop offset="1" stop-color="#AA80F9"/></linearGradient><linearGradient id="paint4_linear_394_5836" x1="109.073" y1="49.642" x2="95.653" y2="98.653" gradientUnits="userSpaceOnUse"><stop offset=".004" stop-color="#6165D7"/><stop offset="1" stop-color="#AA80F9"/></linearGradient><linearGradient id="paint5_linear_394_5836" x1="109.073" y1="54.664" x2="95.653" y2="103.675" gradientUnits="userSpaceOnUse"><stop offset=".004" stop-color="#6165D7"/><stop offset="1" stop-color="#AA80F9"/></linearGradient><linearGradient id="paint6_linear_394_5836" x1="80.673" y1="63.047" x2="140.126" y2="63.047" gradientUnits="userSpaceOnUse"><stop offset=".004" stop-color="#6165D7"/><stop offset="1" stop-color="#AA80F9"/></linearGradient><linearGradient id="paint7_linear_394_5836" x1="90.208" y1="79.314" x2="128.256" y2="79.314" gradientUnits="userSpaceOnUse"><stop stop-color="#444B8C"/><stop offset=".996" stop-color="#26264F"/></linearGradient><linearGradient id="paint8_linear_394_5836" x1="80.675" y1="66.047" x2="133.714" y2="66.047" gradientUnits="userSpaceOnUse"><stop offset=".004" stop-color="#6165D7"/><stop offset="1" stop-color="#AA80F9"/></linearGradient><linearGradient id="paint9_linear_394_5836" x1="109.219" y1="105.828" x2="128.136" y2="176.726" gradientUnits="userSpaceOnUse"><stop offset=".004" stop-color="#EBEFF2"/><stop offset="1" stop-color="#fff"/></linearGradient><linearGradient id="paint10_linear_394_5836" x1="38.404" y1="206.196" x2="109.873" y2="206.196" gradientUnits="userSpaceOnUse"><stop stop-color="#FCB148"/><stop offset=".052" stop-color="#FDBA46"/><stop offset=".142" stop-color="#FFC244"/><stop offset=".318" stop-color="#FFC444"/><stop offset=".485" stop-color="#FDB946"/><stop offset=".775" stop-color="#F99C4D"/><stop offset=".866" stop-color="#F8924F"/><stop offset="1" stop-color="#F8924F"/></linearGradient><linearGradient id="paint11_linear_394_5836" x1="74.468" y1="198.145" x2="78.236" y2="229.687" gradientUnits="userSpaceOnUse"><stop stop-color="#FFDB44"/><stop offset="1" stop-color="#FEEF06"/></linearGradient><linearGradient id="paint12_linear_394_5836" x1="74.304" y1="196.739" x2="75.461" y2="206.426" gradientUnits="userSpaceOnUse"><stop stop-color="#FFDB44"/><stop offset="1" stop-color="#FEEF06"/></linearGradient><linearGradient id="paint13_linear_394_5836" x1="75.391" y1="205.41" x2="74.238" y2="195.757" gradientUnits="userSpaceOnUse"><stop offset=".004" stop-color="#F36F56"/><stop offset=".306" stop-color="#F99C4C"/><stop offset=".545" stop-color="#FDB946"/><stop offset=".682" stop-color="#FFC444"/><stop offset=".804" stop-color="#FFC244"/><stop offset=".867" stop-color="#FEBA46"/><stop offset=".916" stop-color="#FCAD49"/><stop offset=".958" stop-color="#F99A4D"/><stop offset=".996" stop-color="#F58152"/><stop offset="1" stop-color="#F57E53"/></linearGradient><linearGradient id="paint14_linear_394_5836" x1="29.769" y1="198.959" x2="101.238" y2="198.959" gradientUnits="userSpaceOnUse"><stop stop-color="#FCB148"/><stop offset=".052" stop-color="#FDBA46"/><stop offset=".142" stop-color="#FFC244"/><stop offset=".318" stop-color="#FFC444"/><stop offset=".485" stop-color="#FDB946"/><stop offset=".775" stop-color="#F99C4D"/><stop offset=".866" stop-color="#F8924F"/><stop offset="1" stop-color="#F8924F"/></linearGradient><linearGradient id="paint15_linear_394_5836" x1="65.832" y1="190.908" x2="69.6" y2="222.45" gradientUnits="userSpaceOnUse"><stop stop-color="#FFDB44"/><stop offset="1" stop-color="#FEEF06"/></linearGradient><linearGradient id="paint16_linear_394_5836" x1="65.668" y1="189.502" x2="66.826" y2="199.189" gradientUnits="userSpaceOnUse"><stop stop-color="#FFDB44"/><stop offset="1" stop-color="#FEEF06"/></linearGradient><linearGradient id="paint17_linear_394_5836" x1="66.757" y1="198.173" x2="65.603" y2="188.521" gradientUnits="userSpaceOnUse"><stop offset=".004" stop-color="#F36F56"/><stop offset=".306" stop-color="#F99C4C"/><stop offset=".545" stop-color="#FDB946"/><stop offset=".682" stop-color="#FFC444"/><stop offset=".804" stop-color="#FFC244"/><stop offset=".867" stop-color="#FEBA46"/><stop offset=".916" stop-color="#FCAD49"/><stop offset=".958" stop-color="#F99A4D"/><stop offset=".996" stop-color="#F58152"/><stop offset="1" stop-color="#F57E53"/></linearGradient><linearGradient id="paint18_linear_394_5836" x1="37.219" y1="191.744" x2="108.689" y2="191.744" gradientUnits="userSpaceOnUse"><stop stop-color="#FCB148"/><stop offset=".052" stop-color="#FDBA46"/><stop offset=".142" stop-color="#FFC244"/><stop offset=".318" stop-color="#FFC444"/><stop offset=".485" stop-color="#FDB946"/><stop offset=".775" stop-color="#F99C4D"/><stop offset=".866" stop-color="#F8924F"/><stop offset="1" stop-color="#F8924F"/></linearGradient><linearGradient id="paint19_linear_394_5836" x1="73.283" y1="183.693" x2="77.051" y2="215.235" gradientUnits="userSpaceOnUse"><stop stop-color="#FFDB44"/><stop offset="1" stop-color="#FEEF06"/></linearGradient><linearGradient id="paint20_linear_394_5836" x1="73.119" y1="182.286" x2="74.276" y2="191.973" gradientUnits="userSpaceOnUse"><stop stop-color="#FFDB44"/><stop offset="1" stop-color="#FEEF06"/></linearGradient><linearGradient id="paint21_linear_394_5836" x1="74.207" y1="190.958" x2="73.054" y2="181.305" gradientUnits="userSpaceOnUse"><stop offset=".004" stop-color="#F36F56"/><stop offset=".306" stop-color="#F99C4C"/><stop offset=".545" stop-color="#FDB946"/><stop offset=".682" stop-color="#FFC444"/><stop offset=".804" stop-color="#FFC244"/><stop offset=".867" stop-color="#FEBA46"/><stop offset=".916" stop-color="#FCAD49"/><stop offset=".958" stop-color="#F99A4D"/><stop offset=".996" stop-color="#F58152"/><stop offset="1" stop-color="#F57E53"/></linearGradient><linearGradient id="paint22_linear_394_5836" x1="41.741" y1="184.507" x2="113.211" y2="184.507" gradientUnits="userSpaceOnUse"><stop stop-color="#FCB148"/><stop offset=".052" stop-color="#FDBA46"/><stop offset=".142" stop-color="#FFC244"/><stop offset=".318" stop-color="#FFC444"/><stop offset=".485" stop-color="#FDB946"/><stop offset=".775" stop-color="#F99C4D"/><stop offset=".866" stop-color="#F8924F"/><stop offset="1" stop-color="#F8924F"/></linearGradient><linearGradient id="paint23_linear_394_5836" x1="77.805" y1="176.456" x2="81.573" y2="207.998" gradientUnits="userSpaceOnUse"><stop stop-color="#FFDB44"/><stop offset="1" stop-color="#FEEF06"/></linearGradient><linearGradient id="paint24_linear_394_5836" x1="77.641" y1="175.05" x2="78.798" y2="184.737" gradientUnits="userSpaceOnUse"><stop stop-color="#FFDB44"/><stop offset="1" stop-color="#FEEF06"/></linearGradient><linearGradient id="paint25_linear_394_5836" x1="78.729" y1="183.721" x2="77.576" y2="174.068" gradientUnits="userSpaceOnUse"><stop offset=".004" stop-color="#F36F56"/><stop offset=".306" stop-color="#F99C4C"/><stop offset=".545" stop-color="#FDB946"/><stop offset=".682" stop-color="#FFC444"/><stop offset=".804" stop-color="#FFC244"/><stop offset=".867" stop-color="#FEBA46"/><stop offset=".916" stop-color="#FCAD49"/><stop offset=".958" stop-color="#F99A4D"/><stop offset=".996" stop-color="#F58152"/><stop offset="1" stop-color="#F57E53"/></linearGradient><linearGradient id="paint26_linear_394_5836" x1="38.404" y1="176.699" x2="109.873" y2="176.699" gradientUnits="userSpaceOnUse"><stop stop-color="#FCB148"/><stop offset=".052" stop-color="#FDBA46"/><stop offset=".142" stop-color="#FFC244"/><stop offset=".318" stop-color="#FFC444"/><stop offset=".485" stop-color="#FDB946"/><stop offset=".775" stop-color="#F99C4D"/><stop offset=".866" stop-color="#F8924F"/><stop offset="1" stop-color="#F8924F"/></linearGradient><linearGradient id="paint27_linear_394_5836" x1="74.468" y1="168.649" x2="78.236" y2="200.191" gradientUnits="userSpaceOnUse"><stop stop-color="#FFDB44"/><stop offset="1" stop-color="#FEEF06"/></linearGradient><linearGradient id="paint28_linear_394_5836" x1="74.304" y1="167.242" x2="75.461" y2="176.929" gradientUnits="userSpaceOnUse"><stop stop-color="#FFDB44"/><stop offset="1" stop-color="#FEEF06"/></linearGradient><linearGradient id="paint29_linear_394_5836" x1="75.391" y1="175.913" x2="74.238" y2="166.261" gradientUnits="userSpaceOnUse"><stop offset=".004" stop-color="#F36F56"/><stop offset=".306" stop-color="#F99C4C"/><stop offset=".545" stop-color="#FDB946"/><stop offset=".682" stop-color="#FFC444"/><stop offset=".804" stop-color="#FFC244"/><stop offset=".867" stop-color="#FEBA46"/><stop offset=".916" stop-color="#FCAD49"/><stop offset=".958" stop-color="#F99A4D"/><stop offset=".996" stop-color="#F58152"/><stop offset="1" stop-color="#F57E53"/></linearGradient><linearGradient id="paint30_linear_394_5836" x1="29.769" y1="169.463" x2="101.238" y2="169.463" gradientUnits="userSpaceOnUse"><stop stop-color="#FCB148"/><stop offset=".052" stop-color="#FDBA46"/><stop offset=".142" stop-color="#FFC244"/><stop offset=".318" stop-color="#FFC444"/><stop offset=".485" stop-color="#FDB946"/><stop offset=".775" stop-color="#F99C4D"/><stop offset=".866" stop-color="#F8924F"/><stop offset="1" stop-color="#F8924F"/></linearGradient><linearGradient id="paint31_linear_394_5836" x1="65.832" y1="161.412" x2="69.6" y2="192.954" gradientUnits="userSpaceOnUse"><stop stop-color="#FFDB44"/><stop offset="1" stop-color="#FEEF06"/></linearGradient><linearGradient id="paint32_linear_394_5836" x1="65.668" y1="160.005" x2="66.826" y2="169.692" gradientUnits="userSpaceOnUse"><stop stop-color="#FFDB44"/><stop offset="1" stop-color="#FEEF06"/></linearGradient><linearGradient id="paint33_linear_394_5836" x1="66.757" y1="168.677" x2="65.603" y2="159.024" gradientUnits="userSpaceOnUse"><stop offset=".004" stop-color="#F36F56"/><stop offset=".306" stop-color="#F99C4C"/><stop offset=".545" stop-color="#FDB946"/><stop offset=".682" stop-color="#FFC444"/><stop offset=".804" stop-color="#FFC244"/><stop offset=".867" stop-color="#FEBA46"/><stop offset=".916" stop-color="#FCAD49"/><stop offset=".958" stop-color="#F99A4D"/><stop offset=".996" stop-color="#F58152"/><stop offset="1" stop-color="#F57E53"/></linearGradient><linearGradient id="paint34_linear_394_5836" x1="37.219" y1="162.247" x2="108.689" y2="162.247" gradientUnits="userSpaceOnUse"><stop stop-color="#FCB148"/><stop offset=".052" stop-color="#FDBA46"/><stop offset=".142" stop-color="#FFC244"/><stop offset=".318" stop-color="#FFC444"/><stop offset=".485" stop-color="#FDB946"/><stop offset=".775" stop-color="#F99C4D"/><stop offset=".866" stop-color="#F8924F"/><stop offset="1" stop-color="#F8924F"/></linearGradient><linearGradient id="paint35_linear_394_5836" x1="73.283" y1="154.196" x2="77.051" y2="185.738" gradientUnits="userSpaceOnUse"><stop stop-color="#FFDB44"/><stop offset="1" stop-color="#FEEF06"/></linearGradient><linearGradient id="paint36_linear_394_5836" x1="73.119" y1="152.79" x2="74.276" y2="162.477" gradientUnits="userSpaceOnUse"><stop stop-color="#FFDB44"/><stop offset="1" stop-color="#FEEF06"/></linearGradient><linearGradient id="paint37_linear_394_5836" x1="74.207" y1="161.461" x2="73.054" y2="151.808" gradientUnits="userSpaceOnUse"><stop offset=".004" stop-color="#F36F56"/><stop offset=".306" stop-color="#F99C4C"/><stop offset=".545" stop-color="#FDB946"/><stop offset=".682" stop-color="#FFC444"/><stop offset=".804" stop-color="#FFC244"/><stop offset=".867" stop-color="#FEBA46"/><stop offset=".916" stop-color="#FCAD49"/><stop offset=".958" stop-color="#F99A4D"/><stop offset=".996" stop-color="#F58152"/><stop offset="1" stop-color="#F57E53"/></linearGradient><linearGradient id="paint38_linear_394_5836" x1="33.344" y1="155.01" x2="104.813" y2="155.01" gradientUnits="userSpaceOnUse"><stop stop-color="#FCB148"/><stop offset=".052" stop-color="#FDBA46"/><stop offset=".142" stop-color="#FFC244"/><stop offset=".318" stop-color="#FFC444"/><stop offset=".485" stop-color="#FDB946"/><stop offset=".775" stop-color="#F99C4D"/><stop offset=".866" stop-color="#F8924F"/><stop offset="1" stop-color="#F8924F"/></linearGradient><linearGradient id="paint39_linear_394_5836" x1="69.408" y1="146.96" x2="73.175" y2="178.502" gradientUnits="userSpaceOnUse"><stop stop-color="#FFDB44"/><stop offset="1" stop-color="#FEEF06"/></linearGradient><linearGradient id="paint40_linear_394_5836" x1="69.243" y1="145.553" x2="70.4" y2="155.24" gradientUnits="userSpaceOnUse"><stop stop-color="#FFDB44"/><stop offset="1" stop-color="#FEEF06"/></linearGradient><linearGradient id="paint41_linear_394_5836" x1="70.332" y1="154.224" x2="69.178" y2="144.572" gradientUnits="userSpaceOnUse"><stop offset=".004" stop-color="#F36F56"/><stop offset=".306" stop-color="#F99C4C"/><stop offset=".545" stop-color="#FDB946"/><stop offset=".682" stop-color="#FFC444"/><stop offset=".804" stop-color="#FFC244"/><stop offset=".867" stop-color="#FEBA46"/><stop offset=".916" stop-color="#FCAD49"/><stop offset=".958" stop-color="#F99A4D"/><stop offset=".996" stop-color="#F58152"/><stop offset="1" stop-color="#F57E53"/></linearGradient><linearGradient id="paint42_linear_394_5836" x1="102.088" y1="153.244" x2="143.512" y2="211.485" gradientUnits="userSpaceOnUse"><stop stop-color="#FCB148"/><stop offset=".052" stop-color="#FDBA46"/><stop offset=".142" stop-color="#FFC244"/><stop offset=".318" stop-color="#FFC444"/><stop offset=".485" stop-color="#FDB946"/><stop offset=".775" stop-color="#F99C4D"/><stop offset=".866" stop-color="#F8924F"/><stop offset="1" stop-color="#F8924F"/></linearGradient><linearGradient id="paint43_linear_394_5836" x1="129.55" y1="177.965" x2="106.033" y2="199.315" gradientUnits="userSpaceOnUse"><stop stop-color="#FFDB44"/><stop offset="1" stop-color="#FEEF06"/></linearGradient><linearGradient id="paint44_linear_394_5836" x1="130.601" y1="177.017" x2="123.379" y2="183.573" gradientUnits="userSpaceOnUse"><stop stop-color="#FFDB44"/><stop offset="1" stop-color="#FEEF06"/></linearGradient><linearGradient id="paint45_linear_394_5836" x1="124.167" y1="182.928" x2="131.363" y2="176.395" gradientUnits="userSpaceOnUse"><stop offset=".004" stop-color="#F36F56"/><stop offset=".306" stop-color="#F99C4C"/><stop offset=".545" stop-color="#FDB946"/><stop offset=".682" stop-color="#FFC444"/><stop offset=".804" stop-color="#FFC244"/><stop offset=".867" stop-color="#FEBA46"/><stop offset=".916" stop-color="#FCAD49"/><stop offset=".958" stop-color="#F99A4D"/><stop offset=".996" stop-color="#F58152"/><stop offset="1" stop-color="#F57E53"/></linearGradient></defs></svg>