<svg width="195" height="134" fill="none" xmlns="http://www.w3.org/2000/svg"><path opacity=".4" d="M162.636 94.633l-52.494-28.66L68.503 90.01l-4.904-19.57L0 106.316l1.843 1.062h47.059l44.622 25.755c.61.343 4.217.343 4.826 0l64.286-37.11a.794.794 0 000-1.39z" fill="#50197C"/><path d="M100.912 7.887c-.266-.047-.547 0-.828.157l-63.38 36.594.468.093 63.38-36.594c.281-.156.563-.203.828-.156l-.468-.094zM50.12 103.91L36.204 47.309l-.469-.094 13.916 56.602c.157.624.547 1.03 1.016 1.124l.468.094c-.468-.094-.859-.5-1.015-1.125z" fill="#C0B9C8"/><path d="M37.172 44.716l-.468-.094c-.781.453-1.203 1.609-.968 2.593l.468.094c-.25-.984.187-2.14.968-2.593z" fill="#E0DBE1"/><path d="M116.296 65.707L102.38 9.106c-.234-.984-1.062-1.422-1.843-.969l-63.38 36.595c-.781.453-1.203 1.608-.968 2.592l13.916 56.602c.234.984 1.062 1.421 1.843.968l63.38-36.594c.781-.453 1.218-1.609.968-2.593z" fill="#282525"/><path d="M113.562 61.365L100.896 9.793 37.609 46.34l12.698 51.557 63.255-36.532z" fill="url(#paint0_linear_206_3357)"/><path d="M51.323 104.129v1.765c0 .297.188.593.578.812l44.497 25.692c.781.453 2.03.453 2.796 0l62.959-36.594c.374-.218.577-.515.577-.796v-1.765L51.323 104.129z" fill="url(#paint1_linear_206_3357)"/><path d="M162.153 92.43l-44.498-25.692c-.781-.453-2.03-.453-2.795 0l-62.959 36.594c-.765.453-.765 1.172 0 1.625l44.497 25.692c.781.453 2.03.453 2.796 0l62.959-36.594c.781-.453.781-1.187 0-1.624z" fill="url(#paint2_linear_206_3357)"/><path d="M110.704 74.547v-.187c-.031-.125.032-.25.203-.344l2.952-1.702c.281-.172.75-.172 1.031 0l2.483 1.437c.172.094.219.219.203.343v.188c.032.125-.031.25-.203.344l-2.952 1.702c-.281.172-.749.172-1.03 0l-2.484-1.437c-.171-.094-.218-.219-.203-.344zm4.967-2.39l2.483 1.438c.281.171.75.171 1.031 0l2.952-1.703c.172-.093.219-.218.203-.343v-.188c.031-.125-.031-.25-.203-.343l-2.483-1.437c-.281-.172-.75-.172-1.031 0l-2.952 1.702c-.172.094-.219.219-.203.344v.187c-.031.11.031.235.203.344zm-9.527 5.483l2.483 1.437c.281.172.75.172 1.031 0l2.952-1.703c.172-.093.218-.218.203-.343v-.188c.031-.124-.031-.25-.203-.343l-2.484-1.437c-.281-.172-.749-.172-1.03 0l-2.952 1.702c-.172.094-.219.219-.203.344v.187c-.016.125.046.25.203.344zm-35.782 30.628l2.483 1.437c.281.172.75.172 1.03 0l2.953-1.703c.171-.093.218-.218.203-.343v-.188c.03-.125-.032-.25-.203-.343l-2.484-1.437c-.28-.172-.75-.172-1.03 0l-2.952 1.702c-.172.094-.22.219-.203.344v.187c-.032.11.03.25.203.344zm10.37-15.978l2.484 1.437c.28.172.75.172 1.03 0l2.952-1.702c.172-.094.219-.219.203-.344v-.187c.032-.125-.03-.25-.203-.344l-2.483-1.437c-.281-.172-.75-.172-1.03 0l-2.953 1.703c-.172.093-.218.218-.203.343v.188c-.015.109.047.25.203.343zm9.528-5.498l2.483 1.437c.281.172.75.172 1.03 0l2.953-1.702c.171-.094.218-.219.203-.344v-.187c.03-.125-.032-.25-.203-.344l-2.484-1.437c-.28-.172-.75-.172-1.03 0l-2.952 1.703c-.172.093-.22.218-.204.343v.188c-.03.125.032.25.204.343zm9.511-5.497l2.484 1.437c.281.171.749.171 1.03 0l4.483-2.593c.172-.094.219-.219.203-.344v-.187c.031-.125-.031-.25-.203-.344l-2.483-1.437c-.282-.171-.75-.171-1.031 0l-4.483 2.593c-.171.094-.218.219-.203.344v.187c-.015.125.032.25.203.344zm-4.763 2.748l2.483 1.438c.281.171.75.171 1.03 0l2.953-1.703c.171-.094.218-.219.203-.344v-.187c.031-.125-.032-.25-.203-.344l-2.484-1.437c-.28-.171-.75-.171-1.03 0l-2.952 1.703c-.172.094-.22.219-.203.344v.187c-.016.125.046.25.203.343zm-9.512 5.498l2.483 1.437c.281.172.75.172 1.031 0l2.952-1.702c.172-.094.219-.219.203-.344v-.187c.031-.125-.031-.25-.203-.344l-2.483-1.437c-.281-.172-.75-.172-1.031 0l-2.952 1.703c-.172.093-.219.218-.203.343v.188c-.016.125.031.25.203.343zm20.242-6.638l2.483 1.437c.281.172.75.172 1.031 0l2.952-1.702c.171-.094.218-.219.203-.344v-.187c.031-.125-.032-.25-.203-.344l-2.484-1.437c-.281-.171-.749-.171-1.031 0l-2.951 1.703c-.172.093-.219.218-.203.343v.188c-.016.11.031.25.203.343zM67.675 104.88l2.484 1.437c.28.171.75.171 1.03 0l2.952-1.703c.172-.094.219-.218.203-.343v-.188c.032-.125-.031-.25-.203-.343l-2.483-1.437c-.281-.172-.75-.172-1.031 0l-2.952 1.702c-.172.094-.219.219-.203.344v.187c-.016.109.031.25.203.344zm33.299-19.227l2.483 1.437c.281.172.75.172 1.031 0l2.952-1.702c.172-.094.219-.219.203-.344v-.187c.031-.125-.031-.25-.203-.344l-2.483-1.437c-.281-.172-.75-.172-1.031 0l-2.952 1.703c-.172.093-.219.218-.203.343v.188c-.016.109.047.234.203.343zm-4.748 2.733l2.483 1.437c.281.172.75.172 1.031 0l2.952-1.702c.172-.094.219-.219.203-.344v-.187c.031-.125-.031-.25-.203-.344l-2.483-1.437c-.282-.171-.75-.171-1.031 0l-2.952 1.703c-.172.094-.219.219-.203.344v.187c-.031.125.031.25.203.343zm-4.764 2.75l2.483 1.436c.282.172.75.172 1.031 0l2.952-1.702c.172-.094.219-.219.203-.344v-.187c.032-.125-.03-.25-.203-.344l-2.483-1.437c-.281-.172-.75-.172-1.03 0l-2.953 1.703c-.172.093-.219.218-.203.343v.188c-.016.125.031.25.203.343zM72.44 102.13l2.483 1.437c.281.172.75.172 1.03 0l2.953-1.703c.172-.093.219-.218.203-.343v-.188c.031-.125-.031-.25-.203-.343l-2.484-1.437c-.28-.172-.75-.172-1.03 0l-2.952 1.702c-.172.094-.219.219-.203.344v.187c-.032.11.031.25.203.344zm4.748-2.749l2.483 1.437c.281.172.75.172 1.031 0l2.952-1.703c.172-.093.219-.218.203-.343v-.188c.031-.124-.031-.25-.203-.343-3.64-2.109-2.421-2.062-6.466.265-.172.094-.219.219-.203.344v.187c-.016.125.047.25.203.344zm4.764-2.749l2.483 1.437c.281.172.75.172 1.03 0l2.953-1.702c.171-.094.218-.22.203-.344v-.188c.03-.124-.032-.25-.203-.343l-2.484-1.437c-.28-.172-.75-.172-1.03 0l-2.953 1.702c-.171.094-.218.22-.203.344v.188c-.03.124.032.25.204.343zm4.748-2.749c2.436 1.406 2.858 1.812 3.514 1.437l2.952-1.702c.171-.094.218-.219.203-.344v-.187c.03-.125-.032-.25-.203-.344l-2.484-1.437c-.28-.172-.75-.172-1.03 0l-2.953 1.703c-.171.093-.218.218-.202.343v.188c-.016.124.046.25.203.343zm-8.481 18.102v-.187c.03-.125-.032-.25-.203-.344l-2.484-1.437c-.28-.172-.75-.172-1.03 0l-4.483 2.593c-.172.094-.219.219-.203.343v.188c-.031.125.031.25.203.344l2.483 1.436c.281.172.75.172 1.031 0l4.483-2.592c.171-.078.234-.219.203-.344zm-5.967-1.593v-.187c.032-.125-.03-.25-.203-.344l-2.483-1.437c-.281-.172-.75-.172-1.03 0l-2.953 1.703c-.172.093-.218.218-.203.343v.188c-.031.125.031.249.203.343l2.484 1.437c.28.172.75.172 1.03 0l2.952-1.702c.172-.094.235-.219.203-.344zm3.733-15.353c3.577 2.062 2.343 2.108 6.466-.266.172-.093.219-.218.203-.343v-.187c.032-.125-.03-.25-.203-.344l-2.483-1.437c-.281-.172-.75-.172-1.03 0l-2.953 1.702c-.172.094-.218.219-.203.344v.187c-.016.11.031.25.203.344zm49.855-10.496v-.187c.031-.125-.032-.25-.203-.344l-2.484-1.437c-.281-.171-.749-.171-1.031 0l-2.951 1.703c-.172.093-.219.218-.204.343v.188c-.031.125.032.25.204.343l2.483 1.437c.281.172.75.172 1.031 0l2.952-1.702c.171-.094.218-.219.203-.344zm-56.258 22.46v-.188c.03-.125-.032-.25-.204-.343l-2.483-1.437c-.281-.172-.75-.172-1.03 0l-4.483 2.593c-.172.093-.219.218-.203.343v.188c-.031.125.031.249.203.343l2.483 1.437c.281.172.75.172 1.031 0l4.483-2.593c.171-.093.218-.218.203-.343zm1.64-9.215l2.483 1.437c.281.172.75.172 1.03 0l2.953-1.703c.171-.093.218-.218.203-.343v-.188c.03-.125-.032-.25-.203-.343l-2.484-1.437c-.28-.172-.75-.172-1.03 0l-2.953 1.702c-.171.094-.218.219-.203.344v.187c-.015.11.047.234.204.344zm-4.749 2.733l2.484 1.437c.281.172.75.172 1.03 0l2.953-1.702c.171-.094.218-.219.203-.344v-.187c.03-.125-.032-.25-.203-.344l-2.484-1.437c-.28-.172-.75-.172-1.03 0l-2.953 1.703c-.171.093-.218.218-.203.343v.187c-.03.125.032.25.203.344zm-2.858 4.873v-.187c.032-.125-.031-.25-.203-.344l-2.483-1.437c-.281-.172-.75-.172-1.03 0l-2.953 1.703c-.172.093-.218.218-.203.343v.188c-.031.125.031.25.203.343l2.483 1.437c.282.172.75.172 1.031 0l2.952-1.702c.172-.078.219-.219.203-.344zm-1.905-2.124l2.483 1.437c.281.172.75.172 1.031 0l2.952-1.703c.172-.093.219-.218.203-.343v-.188c.031-.125-.031-.249-.203-.343l-2.483-1.437c-.282-.172-.75-.172-1.031 0l-2.952 1.702c-.172.094-.219.219-.203.344v.187c-.016.125.031.25.203.344zm77.983-21.913c.032-.125-.031-.25-.203-.344l-2.483-1.436c-.281-.172-.75-.172-1.031 0l-2.952 1.702c-.172.094-.218.219-.203.344v.187c-.031.125.031.25.203.344l2.484 1.437c.281.171.749.171 1.03 0l2.952-1.703c.172-.094.219-.219.203-.343v-.094a.097.097 0 000-.094zm-18.851 5.357l-2.484-1.437c-.281-.171-.749-.171-1.03 0l-2.952 1.703c-.172.093-.219.218-.203.343v.188c-.032.125.031.25.203.344l2.483 1.436c.281.172.75.172 1.031 0l2.952-1.702c.172-.094.218-.219.203-.344v-.187c.015-.11-.031-.25-.203-.344zm9.558-5.466l-2.483-1.437c-.281-.172-.75-.172-1.031 0l-2.952 1.702c-.172.094-.218.219-.203.344v.187c-.031.125.031.25.203.344l2.484 1.437c.281.172.749.172 1.03 0l2.952-1.703c.172-.093.219-.218.203-.343v-.188c.016-.124-.047-.25-.203-.343zm-19.07 10.964l-2.483-1.437c-.281-.172-.75-.172-1.031 0l-2.952 1.703c-.172.093-.219.218-.203.343v.188c-.031.124.031.25.203.343l2.483 1.437c.281.172.75.172 1.031 0l2.952-1.702c.172-.094.219-.219.203-.344v-.187c.016-.125-.031-.25-.203-.344zm17.165-13.088v.187c-.031.125.031.25.203.344l2.483 1.437c.281.171.75.171 1.031 0l2.952-1.703c.172-.093.219-.218.203-.343v-.188c.031-.125-.031-.25-.203-.343l-2.483-1.437c-.282-.172-.75-.172-1.031 0l-2.952 1.702c-.172.078-.234.219-.203.344zM92.29 103.207l-2.483-1.436c-.282-.172-.75-.172-1.031 0l-2.952 1.702c-.172.094-.219.219-.203.344v.187c-.031.125.031.25.203.344l2.483 1.437c.281.171.75.171 1.031 0l2.952-1.703c.172-.094.219-.219.203-.343v-.188c.031-.125-.031-.25-.203-.344zm9.527-5.497l-2.483-1.437c-.281-.172-.75-.172-1.03 0l-2.953 1.702c-.172.094-.218.219-.203.344v.187c-.031.125.031.25.203.344l2.484 1.437c.28.172.75.172 1.03 0l2.952-1.703c.172-.093.219-.218.203-.343v-.188c.016-.125-.047-.25-.203-.343zm-4.763 2.749l-2.484-1.437c-.28-.172-.75-.172-1.03 0l-2.953 1.702c-.171.094-.218.219-.203.344v.187c-.03.125.032.25.204.344l2.483 1.437c.281.172.75.172 1.03 0l2.953-1.703c.171-.093.218-.218.203-.343v-.188c.015-.125-.032-.25-.203-.343zm-9.512 5.482l-2.483-1.437c-.282-.172-.75-.172-1.031 0l-2.952 1.702c-.172.094-.219.219-.203.344v.187c-.031.125.031.25.203.344l2.483 1.437c.281.172.75.172 1.031 0l2.952-1.703c.172-.093.219-.218.203-.343v-.188c.016-.109-.047-.234-.203-.343zm-4.764 2.749l-2.483-1.437c-.281-.172-.75-.172-1.03 0l-2.953 1.702c-.172.094-.218.219-.203.344v.187c-.031.125.031.25.203.344l2.484 1.437c.28.171.75.171 1.03 0l2.952-1.703c.172-.093.219-.218.203-.343v-.188c.032-.109-.03-.25-.203-.343zm23.787-13.73l-2.483-1.436c-.281-.172-.75-.172-1.031 0l-2.952 1.702c-.172.094-.218.22-.203.344v.187c-.031.125.031.25.203.344l2.484 1.437c.281.172.749.172 1.03 0l2.952-1.703c.172-.093.219-.218.203-.343v-.187c.032-.125-.031-.25-.203-.344zm9.528-5.497l-2.484-1.437c-.281-.172-.749-.172-1.031 0l-2.951 1.703c-.172.093-.219.218-.203.343v.188c-.032.125.031.25.203.343l2.483 1.437c.281.172.75.172 1.031 0l2.952-1.702c.171-.094.218-.219.203-.344v-.187c.015-.11-.047-.25-.203-.344zM90.197 109.33l-2.483-1.437c-.281-.172-.75-.172-1.031 0l-2.952 1.702c-.172.094-.219.219-.203.344v.188c-.031.124.031.249.203.343l2.483 1.437c.282.172.75.172 1.031 0l2.952-1.702c.172-.094.219-.219.203-.344v-.187c.031-.125-.031-.25-.203-.344zm4.764-2.749l-2.484-1.437c-.28-.172-.75-.172-1.03 0l-2.952 1.703c-.172.093-.219.218-.203.343v.188c-.032.125.03.25.203.343l2.483 1.437c.281.172.75.172 1.03 0l2.953-1.702c.172-.094.218-.219.203-.344v-.187c.015-.11-.031-.25-.203-.344zm-9.512 5.498l-2.483-1.437c-.281-.172-.75-.172-1.031 0l-2.952 1.702c-.172.094-.219.219-.203.344v.187c-.031.125.031.25.203.344l2.483 1.437c.281.172.75.172 1.031 0l2.952-1.703c.172-.093.219-.218.203-.343v-.188c.016-.124-.047-.249-.203-.343zm-4.764 2.749l-2.483-1.437c-.281-.172-.75-.172-1.03 0l-2.953 1.702c-.171.094-.218.219-.203.344v.187c-.031.125.031.25.203.344l2.484 1.437c.28.172.75.172 1.03 0l2.952-1.703c.172-.093.219-.218.203-.343v-.188c.016-.125-.03-.25-.203-.343zm35.72-30.597l-2.483-1.437c-.281-.172-.75-.172-1.031 0l-4.483 2.593c-.171.093-.218.218-.203.343v.188c-.031.125.032.25.203.343l2.484 1.437c.281.172.749.172 1.031 0l4.482-2.592c.172-.094.219-.22.203-.344v-.187c.031-.11-.031-.25-.203-.344zm8.606 4.998l-2.483-1.437c-.282-.172-.75-.172-1.031 0l-4.483 2.593c-.172.093-.218.218-.203.343v.188c-.031.125.031.25.203.343l2.484 1.437c.281.172.749.172 1.03 0l4.483-2.593c.172-.093.219-.218.203-.343v-.187c.016-.11-.031-.25-.203-.344zm9.73-5.467l-2.483-1.436c-.281-.172-.75-.172-1.031 0l-2.952 1.702c-.172.094-.219.219-.203.343v.188c-.031.125.031.25.203.344l2.484 1.436c.281.172.749.172 1.03 0l2.952-1.702c.172-.094.219-.219.203-.344v-.187c.016-.125-.031-.25-.203-.344zm-4.748 2.734l-2.483-1.437c-.281-.172-.75-.172-1.031 0l-2.952 1.702c-.172.094-.219.219-.203.344v.187c-.031.125.031.25.203.344l2.483 1.437c.282.172.75.172 1.031 0l2.952-1.703c.172-.093.219-.218.203-.343v-.188c.016-.11-.047-.234-.203-.343zm-11.167 6.356l-2.483-1.437c-.282-.171-.75-.171-1.031 0l-22.038 12.73c-.172.093-.219.218-.203.343v.188c-.031.125.031.25.203.343l2.483 1.437c.281.172.75.172 1.031 0l22.038-12.729c.172-.094.219-.219.203-.344v-.187c.016-.125-.031-.25-.203-.344zm-18.227.516l-2.483-1.437c-.281-.172-.75-.172-1.031 0l-2.952 1.702c-.172.094-.219.219-.203.344v.187c-.031.125.031.25.203.344l2.483 1.437c.281.172.75.172 1.031 0l2.952-1.702c.172-.094.219-.22.203-.344v-.188c.031-.124-.031-.25-.203-.343zM95.851 96.1l-2.483-1.437c-.281-.172-.75-.172-1.031 0l-2.952 1.703c-.172.093-.219.218-.203.343v.188c-.031.125.031.25.203.343l2.483 1.437c.281.172.75.172 1.031 0l2.952-1.702c.172-.094.219-.219.203-.344v-.187c.016-.11-.047-.235-.203-.344zm9.512-5.482l-2.484-1.437c-.281-.172-.749-.172-1.03 0l-2.952 1.703c-.172.093-.219.218-.203.343v.187c-.032.125.03.25.203.344l2.483 1.437c.281.172.75.172 1.031 0l2.952-1.702c.172-.094.218-.22.203-.344v-.187c.015-.125-.031-.25-.203-.344zM119.81 74.11v.188c-.031.124.031.25.203.343l2.483 1.437c.281.172.75.172 1.031 0l2.952-1.702c.172-.094.219-.219.203-.344v-.187c.031-.125-.031-.25-.203-.344l-2.483-1.437c-.281-.172-.75-.172-1.031 0l-2.952 1.703c-.172.078-.234.218-.203.343zm-9.684 13.76l-2.483-1.437c-.281-.172-.75-.172-1.031 0l-2.952 1.703c-.172.093-.218.218-.203.343v.188c-.031.125.031.25.203.343l2.484 1.437c.281.172.749.172 1.03 0l2.952-1.702c.172-.094.219-.219.203-.344v-.187c.016-.125-.046-.25-.203-.344zM91.087 98.85l-2.483-1.437c-.281-.172-.75-.172-1.03 0l-2.953 1.702c-.171.094-.218.22-.203.344v.188c-.031.124.031.25.203.343l2.484 1.437c.28.172.75.172 1.03 0l2.952-1.702c.172-.094.219-.22.203-.344v-.188c.016-.109-.03-.25-.203-.343zm-9.511 5.498l-2.484-1.437c-.28-.172-.75-.172-1.03 0l-2.952 1.702c-.172.094-.22.219-.204.344v.187c-.03.125.032.25.204.344l2.483 1.437c.281.172.75.172 1.03 0l2.953-1.703c.171-.093.218-.218.203-.343v-.188c.015-.125-.032-.25-.203-.343zm4.763-2.749l-2.483-1.437c-.281-.172-.75-.172-1.03 0l-2.953 1.702c-.172.094-.218.219-.203.344v.187c-.031.125.031.25.203.344l2.484 1.437c.28.172.75.172 1.03 0l2.952-1.703c.172-.093.219-.218.203-.343v-.188c.016-.109-.046-.25-.203-.343z" fill="#C0B9C8"/><path d="M63.412 105.316l-2.952 1.702c-.281.172-.75.172-1.03 0l-2.484-1.437c-.281-.171-.281-.437 0-.593l2.952-1.702c.28-.172.75-.172 1.03 0l2.484 1.436c.28.157.28.438 0 .594zm4.764-3.342l-2.484-1.437c-.281-.172-.75-.172-1.03 0l-2.953 1.702c-.28.172-.28.437 0 .594l2.484 1.437c.28.171.75.171 1.03 0l2.953-1.703c.28-.156.28-.422 0-.593zm4.748-2.75l-2.484-1.436c-.281-.172-.75-.172-1.03 0l-2.953 1.702c-.28.172-.28.438 0 .594l2.484 1.437c.28.171.75.171 1.03 0l2.953-1.703c.296-.156.296-.421 0-.593zm4.763-2.748l-2.483-1.437c-.281-.172-.75-.172-1.031 0l-2.952 1.702c-.281.172-.281.438 0 .594l2.483 1.437c.282.172.75.172 1.031 0l2.952-1.703c.281-.156.281-.421 0-.593zm4.764-2.749l-2.483-1.437c-.282-.172-.75-.172-1.031 0l-2.952 1.703c-.281.171-.281.437 0 .593l2.483 1.437c.281.172.75.172 1.03 0l2.953-1.703c.281-.156.281-.421 0-.593zm4.748-2.749l-2.483-1.437c-.282-.172-.75-.172-1.031 0l-2.952 1.703c-.281.171-.281.437 0 .593l2.483 1.437c.281.172.75.172 1.031 0l2.952-1.702c.297-.157.297-.422 0-.594zm4.764-2.733l-2.484-1.437c-.28-.172-.75-.172-1.03 0l-2.953 1.702c-.28.172-.28.438 0 .594l2.484 1.437c.28.172.75.172 1.03 0l2.953-1.703c.28-.171.28-.437 0-.593zm4.748-2.749l-2.484-1.437c-.28-.172-.75-.172-1.03 0l-2.953 1.703c-.28.171-.28.437 0 .593l2.484 1.437c.281.172.75.172 1.03 0l2.953-1.703c.296-.171.296-.437 0-.593zm4.763-2.749l-2.483-1.437c-.281-.172-.75-.172-1.03 0l-2.953 1.703c-.281.171-.281.437 0 .593l2.484 1.437c.28.172.75.172 1.03 0l2.952-1.702c.281-.157.281-.438 0-.594zm6.295-3.639l-2.484-1.437c-.281-.172-.75-.172-1.031 0l-4.482 2.593c-.281.172-.281.437 0 .593l2.483 1.437c.281.172.75.172 1.031 0l4.483-2.593c.281-.156.281-.421 0-.593zm17.867 4.748l-2.483-1.437c-.281-.172-.75-.172-1.031 0l-2.952 1.703c-.281.171-.281.437 0 .593l2.483 1.437c.282.172.75.172 1.031 0l2.952-1.702c.281-.157.281-.422 0-.594zm4.764-2.749l-2.484-1.437c-.281-.171-.749-.171-1.03 0l-2.952 1.703c-.281.171-.281.437 0 .593l2.483 1.437c.281.172.75.172 1.031 0l2.952-1.702c.281-.156.281-.422 0-.594zm4.748-2.733l-2.483-1.437c-.282-.172-.75-.172-1.031 0l-2.952 1.703c-.281.171-.281.437 0 .593l2.483 1.437c.281.172.75.172 1.031 0l2.952-1.703c.297-.171.297-.437 0-.593zm-5.154 7.997l-2.484-1.437c-.281-.172-.749-.172-1.03 0l-2.952 1.702c-.281.172-.281.438 0 .594l2.483 1.436c.281.172.75.172 1.031 0l2.952-1.702c.281-.156.281-.422 0-.593zm4.748-2.75l-2.484-1.436c-.281-.172-.749-.172-1.03 0l-2.952 1.702c-.281.172-.281.438 0 .594l2.483 1.437c.281.171.75.171 1.031 0l2.952-1.703c.281-.156.281-.421 0-.593zm4.763-2.748l-2.483-1.437c-.281-.172-.75-.172-1.031 0l-2.952 1.702c-.281.172-.281.438 0 .594l2.484 1.437c.281.172.749.172 1.031 0l2.951-1.703c.282-.156.282-.421 0-.593zm-70.127 25.443l-2.483-1.437c-.281-.172-.75-.172-1.031 0l-4.483 2.592c-.28.172-.28.438 0 .594l2.484 1.437c.28.172.75.172 1.03 0l4.483-2.593c.281-.156.281-.422 0-.593zm4.764-2.749l-2.484-1.437c-.28-.172-.75-.172-1.03 0l-2.952 1.702c-.282.172-.282.437 0 .594l2.483 1.437c.281.171.75.171 1.03 0l2.953-1.703c.28-.156.28-.422 0-.593zm4.748-2.749l-2.484-1.437c-.28-.172-.75-.172-1.03 0l-2.952 1.702c-.281.172-.281.438 0 .594l2.483 1.437c.281.172.75.172 1.03 0l2.953-1.703c.297-.156.297-.421 0-.593zm4.763-2.733l-2.483-1.437c-.281-.172-.75-.172-1.03 0l-2.953 1.702c-.28.172-.28.437 0 .594l2.484 1.436c.28.172.75.172 1.03 0l2.953-1.702c.28-.172.28-.437 0-.593zm4.764-2.75L85.934 93.9c-.281-.172-.75-.172-1.031 0l-2.953 1.7c-.281.172-.281.438 0 .594l2.483 1.437c.282.171.75.171 1.031 0l2.952-1.703c.281-.172.281-.437 0-.593zm4.748-2.748l-2.483-1.437c-.281-.172-.75-.172-1.031 0l-2.952 1.702c-.281.172-.281.438 0 .594l2.483 1.437c.282.172.75.172 1.031 0l2.952-1.703c.281-.156.281-.437 0-.593zm4.764-2.75l-2.484-1.436c-.28-.172-.75-.172-1.03 0l-2.952 1.703c-.281.171-.281.437 0 .593l2.483 1.437c.281.172.75.172 1.03 0l2.953-1.703c.281-.156.281-.421 0-.593zm4.748-2.748l-2.483-1.437c-.282-.172-.75-.172-1.031 0l-2.952 1.703c-.281.171-.281.437 0 .593l2.483 1.437c.281.172.75.172 1.031 0l2.952-1.702c.297-.157.297-.422 0-.594zm4.764-2.749l-2.484-1.437c-.281-.172-.749-.172-1.031 0l-2.952 1.703c-.281.172-.281.437 0 .593l2.484 1.437c.281.172.75.172 1.031 0l2.952-1.702c.281-.156.281-.422 0-.594zm4.763-2.749l-2.483-1.436c-.281-.172-.75-.172-1.031 0l-2.952 1.702c-.281.172-.281.437 0 .593l2.483 1.437c.282.172.75.172 1.031 0l2.952-1.702c.281-.156.281-.422 0-.594zm-40.14 28.114l-2.483-1.437c-.281-.172-.75-.172-1.03 0l-2.953 1.702c-.28.172-.28.438 0 .594l2.484 1.437c.28.171.75.171 1.03 0l2.953-1.703c.28-.156.28-.421 0-.593zm4.749-2.734l-2.484-1.436c-.281-.172-.75-.172-1.03 0l-2.953 1.702c-.28.172-.28.437 0 .594l2.484 1.436c.28.172.75.172 1.03 0l2.953-1.702c.296-.172.296-.437 0-.594zm4.763-2.748l-2.483-1.437c-.281-.172-.75-.172-1.031 0l-2.952 1.702c-.281.172-.281.437 0 .594l2.484 1.437c.28.171.75.171 1.03 0l2.952-1.703c.281-.172.281-.437 0-.593zm4.764-2.749l-2.484-1.437c-.28-.172-.75-.172-1.03 0l-2.952 1.702c-.281.172-.281.438 0 .594l2.483 1.437c.281.172.75.172 1.031 0l2.952-1.703c.281-.156.281-.437 0-.593zm-5.654 13.213l-2.483-1.437c-.282-.172-.75-.172-1.031 0l-2.952 1.703c-.281.171-.281.437 0 .593l2.483 1.437c.281.172.75.172 1.031 0l2.952-1.702c.281-.157.281-.422 0-.594zm4.764-2.749l-2.484-1.437c-.28-.171-.75-.171-1.03 0l-2.953 1.703c-.28.172-.28.437 0 .593l2.484 1.437c.281.172.75.172 1.03 0l2.953-1.702c.28-.156.28-.422 0-.594zm4.748-2.733l-2.484-1.437c-.28-.172-.75-.172-1.03 0l-2.952 1.702c-.282.172-.282.438 0 .594l2.483 1.437c.281.172.75.172 1.03 0l2.953-1.703c.296-.171.296-.437 0-.593zm4.763-2.749l-2.483-1.437c-.281-.172-.75-.172-1.03 0l-2.953 1.703c-.28.171-.28.437 0 .593l2.484 1.437c.28.172.75.172 1.03 0l2.952-1.702c.281-.172.281-.438 0-.594zm30.05-17.352l-2.483-1.437c-.281-.172-.75-.172-1.031 0l-4.482 2.593c-.281.171-.281.437 0 .593l2.483 1.437c.281.172.75.172 1.031 0l4.482-2.593c.282-.156.282-.437 0-.593zm-33.923 9.62l-2.483-1.436c-.282-.172-.75-.172-1.031 0l-2.952 1.702c-.281.172-.281.438 0 .594l2.483 1.437c.281.172.75.172 1.031 0l2.952-1.703c.281-.156.281-.437 0-.593zm4.764-2.748l-2.484-1.437c-.28-.172-.75-.172-1.03 0l-2.953 1.703c-.28.171-.28.437 0 .593l2.484 1.437c.281.172.75.172 1.03 0l2.953-1.703c.28-.156.28-.421 0-.593zm4.748-2.749l-2.484-1.437c-.28-.172-.75-.172-1.03 0l-2.953 1.703c-.28.172-.28.437 0 .593l2.484 1.437c.281.172.75.172 1.03 0l2.953-1.702c.296-.156.296-.422 0-.594zm4.763-2.749l-2.483-1.437c-.281-.171-.75-.171-1.031 0l-2.952 1.703c-.28.172-.28.437 0 .593l2.484 1.437c.281.172.749.172 1.03 0l2.952-1.702c.281-.156.281-.422 0-.594zm4.764-2.749l-2.483-1.436c-.282-.172-.75-.172-1.031 0l-2.952 1.702c-.281.172-.281.437 0 .593l2.483 1.437c.281.172.75.172 1.031 0l2.952-1.702c.281-.156.281-.422 0-.594zm6.279-3.623l-2.484-1.437c-.281-.172-.749-.172-1.031 0l-4.482 2.593c-.281.171-.281.437 0 .593l2.483 1.437c.281.172.75.172 1.031 0l4.483-2.593c.296-.156.296-.437 0-.593zm-38.375 27.207l-2.484-1.436c-.28-.172-.75-.172-1.03 0l-4.483 2.592c-.281.172-.281.438 0 .594l2.483 1.437c.282.171.75.171 1.031 0l4.483-2.593c.28-.156.28-.437 0-.594zm4.748-2.748l-2.483-1.437c-.282-.172-.75-.172-1.031 0l-2.952 1.702c-.281.172-.281.437 0 .594l2.483 1.437c.281.171.75.171 1.03 0l2.953-1.703c.297-.156.297-.437 0-.593zm4.764-2.749l-2.484-1.437c-.281-.172-.75-.172-1.03 0l-2.953 1.702c-.28.172-.28.438 0 .594l2.484 1.437c.28.171.75.171 1.03 0l2.953-1.703c.28-.156.28-.421 0-.593zm4.747-2.749l-2.483-1.437c-.281-.172-.75-.172-1.03 0l-2.953 1.702c-.28.172-.28.438 0 .594l2.484 1.437c.28.172.75.172 1.03 0l2.953-1.703c.296-.156.296-.421 0-.593zm4.764-2.749l-2.483-1.437c-.281-.172-.75-.172-1.031 0l-2.952 1.703c-.281.171-.281.437 0 .593l2.484 1.437c.28.172.75.172 1.03 0l2.952-1.703c.281-.156.281-.421 0-.593zm21.772-7.59l-2.483-1.438c-.281-.171-.75-.171-1.031 0l-22.037 12.73c-.282.171-.282.437 0 .593l2.483 1.437c.281.172.75.172 1.03 0l22.038-12.73c.282-.17.282-.436 0-.593zm-17.008 4.841l-2.483-1.437c-.282-.172-.75-.172-1.031 0l-2.952 1.703c-.281.171-.281.437 0 .593l2.483 1.437c.281.172.75.172 1.031 0l2.952-1.702c.281-.156.281-.422 0-.594zm4.748-2.733l-2.483-1.437c-.282-.172-.75-.172-1.031 0l-2.952 1.702c-.281.172-.281.438 0 .594l2.483 1.437c.281.172.75.172 1.031 0l2.952-1.703c.297-.171.297-.437 0-.593zm4.764-2.749l-2.484-1.437c-.281-.172-.749-.172-1.031 0l-2.952 1.703c-.281.171-.281.437 0 .593l2.484 1.437c.281.172.75.172 1.031 0l2.952-1.703c.281-.171.281-.437 0-.593zm4.763-2.749l-2.483-1.437c-.281-.172-.75-.172-1.031 0l-2.952 1.703c-.281.171-.281.437 0 .593l2.483 1.437c.282.172.75.172 1.031 0l2.952-1.702c.281-.157.281-.438 0-.594zm4.748-2.749l-2.483-1.437c-.281-.171-.75-.171-1.031 0l-2.952 1.703c-.281.172-.281.437 0 .593l2.484 1.437c.281.172.749.172 1.03 0l2.952-1.702c.281-.156.281-.438 0-.594zm-8.231-10.245l-2.483-1.437c-.281-.172-.75-.172-1.031 0l-2.952 1.702c-.281.172-.281.437 0 .594l2.484 1.436c.281.172.749.172 1.03 0l2.952-1.702c.297-.156.297-.437 0-.593zm4.764-2.75l-2.483-1.436c-.282-.172-.75-.172-1.031 0l-2.952 1.702c-.281.172-.281.438 0 .594l2.483 1.437c.281.171.75.171 1.031 0l2.952-1.703c.281-.156.281-.422 0-.593zm4.748-2.748l-2.483-1.437c-.281-.172-.75-.172-1.031 0l-2.952 1.702c-.281.172-.281.438 0 .594l2.483 1.437c.281.172.75.172 1.031 0l2.952-1.703c.297-.156.297-.421 0-.593zm4.342 2.514l-2.483-1.437c-.282-.171-.75-.171-1.031 0l-2.952 1.703c-.281.172-.281.437 0 .593l2.483 1.437c.281.172.75.172 1.031 0l2.952-1.702c.297-.172.297-.437 0-.594z" fill="#3D3838"/><path opacity=".2" d="M139.193 103.988l-21.866 12.62c-.484.281-1.281.281-1.78 0l-14.494-8.356c-.485-.281-.485-.749 0-1.031l21.866-12.62c.484-.28 1.28-.28 1.78 0l14.494 8.372c.484.281.484.734 0 1.015z" fill="#E0DBE1"/><path d="M101.052 107.487l21.866-12.62c.485-.28 1.281-.28 1.781 0l14.494 8.372c.187.109.297.25.344.375.078-.235-.047-.469-.344-.641l-14.494-8.371c-.484-.281-1.281-.281-1.781 0l-21.866 12.619c-.296.172-.421.422-.343.641.047-.141.156-.266.343-.375z" fill="#E0DBE1"/><path opacity=".4" d="M115.546 67.504l-61.927 35.75-.094.063 2.108 1.218 61.912-35.75.094-.063-2.093-1.218zm-59.913 36.875l-1.843-1.062 61.756-35.657 1.843 1.062-61.756 35.657z" fill="#C0B9C8"/><path d="M122.512 76.765l-3.264-1.89c-.36-.203-.938-.203-1.297 0l-7.465 4.31c-.203.11-.282.266-.25.422v.188c-.032.156.047.312.25.421l6.512 3.764c.36.203.938.203 1.297 0l12.385-7.153c.203-.11.281-.266.25-.422v-.187c.031-.156-.047-.312-.25-.422l-2.421-1.405a.927.927 0 00-.859 0l-4.154 2.374a.863.863 0 01-.734 0z" fill="#C0B9C8"/><path d="M130.681 75.672l-2.421-1.406a.927.927 0 00-.859 0l-4.155 2.374c-.203.11-.531.11-.718 0l-3.265-1.89c-.359-.203-.937-.203-1.296 0l-7.466 4.311c-.359.203-.359.531 0 .75l6.513 3.764c.36.203.937.203 1.297 0l12.385-7.153c.344-.219.344-.547-.015-.75z" fill="#3D3838"/><path opacity=".4" d="M49.48 42.264l6.34 54.462 64.708-37.36-6.341-54.462-64.707 37.36z" fill="#CFE9FF"/><path opacity=".7" d="M61.334 41.967V95.57l66.145-38.203V3.78L61.334 41.967z" fill="#CFE9FF"/><path d="M61.334 38.187v4.623l66.145-38.187V0L61.334 38.187zm44.169 30.191L61.334 93.883V52.416l44.169-25.505v41.467z" fill="#788EFF"/><path d="M105.503 53.462L61.334 78.968V52.416l44.169-25.505v26.551z" fill="#FFFFD6"/><path d="M61.334 44.513v9.137l66.145-38.188V6.326L61.334 44.513z" fill="#5672CC"/><path d="M61.334 44.513v9.137l66.145-38.188V6.326L61.334 44.513z" fill="#788EFF"/><path d="M105.02 19.289v34.689l22.459-12.98V6.327L105.02 19.289z" fill="#5672CC"/><path d="M64.317 49.464V45.48c0-.093.047-.172.141-.218l1.64-.953c.344-.203.609-.266.812-.188.188.078.281.282.281.625v2.109c0 .343-.094.671-.28.968a2.229 2.229 0 01-.813.75l-1.64.952c-.094.063-.14.032-.14-.062zm.922-1.109l.718-.422a.835.835 0 00.297-.265.647.647 0 00.094-.36v-2.014c0-.14-.031-.219-.094-.25-.062-.031-.156 0-.297.078l-.718.422c-.047.03-.078.062-.078.109v2.655c0 .063.031.078.078.047zm3.295-5.295v3.983a.236.236 0 01-.14.219l-.563.328c-.093.047-.14.031-.14-.063v-3.982c0-.094.047-.172.14-.219l.563-.328c.093-.047.14-.031.14.063zm2.296 2.796l-.703.406c-.343.203-.624.266-.812.188-.187-.079-.28-.282-.28-.64V43.7c0-.343.093-.67.28-.968.188-.296.453-.546.813-.75l.702-.405c.344-.203.61-.266.797-.188.187.078.281.297.281.64v.204a.236.236 0 01-.14.218l-.563.328c-.093.047-.14.031-.14-.062v-.156c0-.14-.032-.219-.094-.25-.063-.032-.156 0-.297.078l-.422.265a.836.836 0 00-.296.266.647.647 0 00-.094.36v2.014c0 .14.031.219.094.25.062.031.156 0 .296-.078l.438-.25a.836.836 0 00.297-.266.612.612 0 00.093-.359v-.422c0-.046-.031-.062-.078-.03l-.39.233c-.094.047-.14.032-.14-.062v-.453c0-.094.046-.172.14-.219l1.155-.671c.11-.063.157-.032.157.062v1.11c0 .343-.094.67-.282.967a2.51 2.51 0 01-.812.75zm2.421-5.529v3.983a.236.236 0 01-.14.219l-.563.328c-.093.046-.14.03-.14-.063v-3.983c0-.093.047-.172.14-.218l.563-.328c.093-.047.14-.032.14.062zm1.874 3.046l-.562.328c-.094.062-.14.031-.14-.063v-3.326c0-.047-.032-.063-.079-.032l-.75.438c-.093.046-.14.03-.14-.063v-.453c0-.094.047-.172.14-.218l2.5-1.453c.093-.047.14-.031.14.062v.453a.235.235 0 01-.14.219l-.75.437c-.047.032-.078.079-.078.125v3.327c0 .094-.047.156-.14.219zm1.734-1l-.64.375c-.079.047-.11.016-.079-.094l1.047-4.592a.365.365 0 01.203-.25l.874-.515c.11-.062.172-.062.204.031l1.046 3.374c.031.078 0 .14-.078.187l-.64.375c-.047.031-.079.031-.094.031-.016-.015-.031-.03-.047-.093l-.188-.625-1.296.75-.187.843c-.016.063-.016.11-.047.14 0 0-.031.032-.078.063zm.968-4.014l-.484 2.187.984-.562-.484-1.64-.016.015zm4.264.984l-2.186 1.265c-.094.047-.14.032-.14-.062v-3.983c0-.094.046-.172.14-.219l.562-.328c.094-.046.14-.03.14.063v3.311c0 .047.032.063.079.031l1.405-.812c.094-.047.125-.031.125.063v.453c.016.093-.031.171-.125.218zm2.937-1.687l-.922.531c-.094.063-.156.047-.172-.046l-.703-3.577c-.015-.078.032-.156.141-.219l.687-.39c.11-.063.156-.047.156.047l.39 3.045c.048-.031.688-3.686.688-3.686a.275.275 0 01.14-.203l.75-.422c.078-.046.125-.046.14.032l.657 2.92c.047-.03.437-3.514.437-3.514 0-.093.063-.172.156-.234l.688-.39c.109-.063.156-.047.14.062L87.683 36a.336.336 0 01-.157.234l-.937.547c-.093.047-.14.03-.156-.047l-.593-2.765c-.032.016-.625 3.468-.625 3.468a.52.52 0 01-.187.218zm3.982-2.296l-.64.375c-.078.047-.11.016-.078-.093l1.046-4.592a.364.364 0 01.203-.25l.875-.515c.11-.063.172-.063.203.03l1.046 3.374c.032.078 0 .14-.078.188l-.64.375a.155.155 0 01-.094.03c-.015-.015-.031-.03-.047-.093l-.187-.625-1.296.75-.188.843c-.016.063-.016.11-.047.141 0 0-.03.031-.078.063zm.969-4.013l-.485 2.186.984-.562-.484-1.64-.015.016zm4.264.983l-2.187 1.266c-.094.047-.14.03-.14-.063V29.55c0-.093.046-.171.14-.218l.562-.328c.094-.047.14-.032.14.062v3.311c0 .047.032.063.079.032l1.406-.813c.093-.046.125-.03.125.063v.453c.015.093-.032.172-.125.218zm2.655-1.53l-2.187 1.265c-.093.047-.14.031-.14-.062V28.02c0-.094.047-.172.14-.219l.563-.328c.093-.047.14-.031.14.063v3.31c0 .048.031.063.078.032l1.406-.812c.094-.047.125-.031.125.062v.453c0 .11-.047.172-.125.219zm2.624-1.515l-2.171 1.25c-.094.046-.14.03-.14-.063v-3.983c0-.094.046-.172.14-.219l2.171-1.25c.094-.046.125-.03.125.063v.453a.25.25 0 01-.125.219l-1.39.797c-.047.03-.078.078-.078.125v.859c0 .046.031.062.078.03l1.14-.655c.094-.047.14-.031.14.062v.453a.236.236 0 01-.14.219l-1.14.656c-.047.031-.078.078-.078.125v.921c0 .047.031.063.078.032l1.39-.797c.094-.047.125-.031.125.063v.452c.016.063-.031.141-.125.188zm1.858-1.062l-.562.328c-.094.062-.141.031-.141-.063v-3.326c0-.047-.031-.063-.078-.032l-.75.438c-.093.046-.14.03-.14-.063v-.453c0-.093.047-.172.14-.218l2.5-1.453c.093-.047.14-.031.14.063v.452a.236.236 0 01-.14.22l-.75.436c-.047.032-.078.079-.078.125v3.327c0 .078-.047.156-.141.219z" fill="#FFFFD6"/><path d="M114.062 56.695V33.892l11.823-6.825V49.87l-11.823 6.825z" fill="#FEF0FF"/><path d="M114.062 51.932V40.281l11.808-6.826.015 13.214-5.232 3.03V48.12l-6.591 3.811z" fill="#D4CBDC"/><path opacity=".2" d="M124.871 40.062l-4.217-5.154c.062-.032 4.279 5.107 4.279 5.107l-.062.047zm.734-.422l-4.217-5.154c-.063.031 4.139 5.185 4.139 5.185l.078-.03zm-1.328.765l-4.217-5.154c-.062.032 4.139 5.186 4.139 5.186l.078-.032zm-.656.375l-4.217-5.154c-.062.031 4.139 5.186 4.139 5.186l.078-.032zm2.249-1.999l-3.826-4.67c-.063.031 3.826 4.795 3.826 4.795v-.125zm-2.905 2.39l-4.217-5.154c-.062.03 4.139 5.185 4.139 5.185l.078-.031zm2.905-4.78l-2.499-3.045c-.062.031 2.499 3.17 2.499 3.17v-.124zm0-3.576l-.5-.61c-.062.032.5.735.5.735v-.125zm0 1.187l-1.171-1.422c-.063.032 1.171 1.547 1.171 1.547v-.125zm0 1.203l-1.827-2.234c-.063.031 1.827 2.358 1.827 2.358v-.124zm0 2.373l-3.155-3.857c-.062.03 3.155 3.982 3.155 3.982v-.125zm-3.577 3.968l-4.217-5.154c-.062.03 4.139 5.185 4.139 5.185l.078-.031zm-7.278 4.201l-.953-1.171v.124l.891 1.078.062-.031zm1.328-.765l-2.281-2.796v.125l2.218 2.702.063-.031zm.656-.375l-2.937-3.592v.124l2.874 3.515.063-.047zm-2.64 1.53l-.297-.359v.125l.219.281.078-.046zm1.312-.765l-1.624-1.983v.124l1.546 1.89.078-.03zm1.999-1.156l-3.608-4.404v.125l3.546 4.326.062-.047zm2.64-1.515l-4.217-5.154c-.063.032 4.139 5.186 4.139 5.186l.078-.032zm.656-.39l-4.217-5.154c-.063.031 4.139 5.185 4.139 5.185l.078-.031zm.671-.375l-4.217-5.154c-.062.031 4.139 5.185 4.139 5.185l.078-.03zm-2.655 1.515l-4.217-5.154c-.062.031 4.139 5.185 4.139 5.185l.078-.03zm.672-.375l-4.217-5.154c-.063.031 4.139 5.186 4.139 5.186l.078-.032zm-1.328.766l-4.217-5.155c-.062.047 4.139 5.186 4.139 5.186l.078-.031z" fill="#7F7799"/><path opacity=".6" d="M120.653 51.885v-7.84l5.217-3.015.016 7.84-5.233 3.015zm-6.591 4.123v-8.153l1.671-.968v7.34l-1.671 1.781z" fill="#D3AEC3"/><path d="M123.761 42.217c0-2.17-1.749-2.905-3.904-1.671-2.156 1.25-3.905 4.014-3.905 6.17-.015.015 7.809-4.499 7.809-4.499z" fill="#D4A8C6"/><path d="M114.062 47.965v-.297l11.808-6.825v.296l-11.808 6.826z" fill="#7F7799"/><path d="M123.652 32.175v-3.25l1.656-.968v3.265l-1.656.953z" fill="#3263A8"/><path d="M124.183 43.685c0-.218-.093-.406-.218-.468.015-.016.765-.36.765-.36.109-.046.125-.03.125.047v1.016l.281-.063c.031-.031.031-1.39.031-1.39-.031-.016-1.405.687-1.405.687l-.047.125c.187.063.281.172.281.39 0 .266-.187.657-.734.969-.422.234-.734.25-.734-.094 0-.28.203-.546.437-.765.063-.063.094-.11.094-.172 0-.078-.078-.172-.219-.093-.187.109-.468.546-.468 1.077 0 .672.406.734.921.438.594-.329.89-.86.89-1.344zm1.031 1.531c0-.672-.593-.562-1.405-.094-.813.469-1.406 1.047-1.406 1.718 0 .672.593.563 1.406.094.812-.469 1.405-1.046 1.405-1.718zm-2.671 1.546c0-.39.61-.843 1.266-1.218.655-.375 1.265-.625 1.265-.234 0 .39-.594.843-1.265 1.218-.672.375-1.266.625-1.266.234zm2.671.609c0-.671-.593-.562-1.405-.093-.813.468-1.406 1.046-1.406 1.718 0 .671.593.562 1.406.093.812-.468 1.405-1.046 1.405-1.718zm-2.671 1.546c0-.39.61-.843 1.266-1.218.655-.375 1.265-.625 1.265-.234 0 .39-.594.843-1.265 1.218-.672.375-1.266.625-1.266.234z" fill="#6B6597"/><path d="M116.186 34.174c0-.157-.062-.282-.156-.328 0-.016.531-.25.531-.25.063-.031.078-.016.078.031v.703l.188-.047c.015-.031.015-.968.015-.968-.031-.016-.968.468-.968.468l-.031.094c.14.047.203.125.203.265 0 .172-.125.453-.5.672-.281.172-.5.172-.5-.063 0-.203.141-.374.297-.53a.142.142 0 00.063-.125c0-.063-.063-.11-.157-.063-.125.078-.312.375-.312.75 0 .468.281.515.64.312.406-.219.609-.593.609-.921zm.703 1.046c0-.468-.406-.39-.968-.062-.563.328-.969.718-.969 1.187 0 .468.406.39.969.062.562-.312.968-.718.968-1.187zm-1.828 1.062c0-.265.407-.578.875-.843.453-.266.875-.422.875-.156 0 .265-.406.578-.875.843-.468.266-.875.422-.875.156zm1.828.422c0-.469-.406-.39-.968-.063-.563.328-.969.719-.969 1.187 0 .469.406.39.969.063.562-.313.968-.719.968-1.187zm-1.828 1.062c0-.266.407-.578.875-.843.453-.266.875-.422.875-.157 0 .266-.406.578-.875.844-.468.265-.875.421-.875.156z" fill="#F2D972"/><path d="M122.887 51.026l-.453-.562.078-.094.453.562-.078.094zm-.313.14l-.453-.562-.078.094.453.562.078-.093zm-.39.235l-.453-.562-.078.093.453.563.078-.094zm-.406.219l-.453-.563-.078.094.453.562.078-.093zm-.391.234l-.453-.562-.078.093.453.563.078-.094zm-.406.234l-.453-.562-.078.094.453.562.078-.094zm-.39.219l-.453-.563-.078.094.453.563.078-.094zm-.406.234l-.453-.562-.078.093.453.563.078-.094zm-.391.234l-.453-.562-.078.094.453.562.078-.094z" fill="#6B6597"/><path d="M125.183 29.566c0-.39-.312-.515-.703-.297-.39.219-.703.719-.703 1.11 0 .39.313.515.703.296.391-.219.703-.718.703-1.109zm-1.312.765c0-.343.281-.765.609-.968.344-.187.609-.078.609.266 0 .343-.281.765-.609.968-.328.187-.609.078-.609-.266z" fill="#F2D972"/><path d="M125.276 40.234l-.343.359-.063.406-.265-.125-.375.281.172-.437-.172-.234.375-.157.265-.421.063.343.343-.015zm-.999-2.03l-.063-.344-.265.421-.375.157.172.234-.172.437.375-.281.265.125.063-.406.343-.36-.343.016zm-1.734-.735l-.062-.343-.266.421-.375.157.172.234-.172.437.375-.281.266.125.062-.406.344-.36-.344.016zm-2.436.75l-.063-.344-.265.422-.375.156.172.234-.172.438.375-.281.265.125.063-.407.343-.359-.343.016zm-2.437 2.062l-.062-.344-.266.422-.375.156.172.234-.172.437.375-.28.266.124.062-.406.344-.36-.344.017zm-1.734 2.733l-.062-.344-.266.422-.374.156.171.234-.171.438.374-.282.266.126.062-.407.344-.359-.344.016zm-.656 2.811l-.062-.344-.266.422-.374.156.171.235-.171.437.374-.281.266.125.062-.406.344-.36-.344.016z" fill="#C99223"/><path d="M106.628 63.536V42.061l9.34-5.389v21.46l-9.34 5.404z" fill="#FEF0FF"/><path d="M115.53 37.22l-8.418 4.857v20.882l8.418-4.858V37.22zm-6.856 24.567c-.391.234-.719.047-.719-.422v-18.68c0-.452.328-1.015.719-1.249l5.263-3.03c.391-.234.719-.047.719.422v18.68c0 .453-.328 1.015-.719 1.25l-5.263 3.03z" fill="#687A51"/><path d="M115.499 47.668c0-2.077-1.874-2.687-4.186-1.359-2.311 1.328-4.186 4.108-4.186 6.185s1.875 2.687 4.186 1.359c2.312-1.328 4.186-4.108 4.186-6.185zm-8.325 4.81c0-2.046 1.859-4.779 4.139-6.106 2.281-1.312 4.139-.719 4.139 1.327s-1.858 4.78-4.139 6.107c-2.28 1.312-4.139.719-4.139-1.328z" fill="#A5AA9F"/><path d="M111.313 53.697c-2.233 1.296-4.045.718-4.045-1.265 0-1.984 1.812-4.655 4.045-5.936 2.234-1.296 4.045-.718 4.045 1.266 0 1.983-1.811 4.638-4.045 5.935z" fill="#A5AA9F"/><path d="M111.314 53.166c-1.906 1.109-3.452.609-3.452-1.093 0-1.703 1.546-3.968 3.452-5.077 1.905-1.108 3.451-.609 3.451 1.094 0 1.702-1.546 3.982-3.451 5.076z" fill="#FFF9E1"/><path d="M110.158 56.18v-.718l-.235.156v.703l.235-.14zm0 .39l-.235.141v3.077l.235-.14V56.57zm0-14.197v-.718l-.235.14v.719l.235-.14zm0 .375l-.235.14v3.078l.235-.141v-3.077zm3.904-3.686l-.343.188v3.732l.343-.203v-3.717z" fill="#687A51"/><path d="M114.062 54.118l-.343.203v3.718l.343-.188v-3.733z" fill="#A5AA9F"/><path d="M108.486 59.429l.734-.422c.015-.016-.047-.343-.047-.343-.031.015-.062.124-.062.124 0 .047-.016.063-.063.094l-.578.328c-.047-.016-.062-.11-.062-.11-.047.032-.047.547-.047.547.047-.03.062-.125.062-.125 0-.046.016-.062.063-.093zm.734.281c0-.266-.203-.25-.437-.11-.234.141-.437.344-.437.61 0 .265.203.25.437.109.234-.14.437-.344.437-.61zm-.812.468c0-.125.234-.265.375-.343.141-.078.375-.203.375-.078s-.234.265-.375.343c-.141.078-.375.188-.375.078zm.812.344c0-.265-.203-.25-.437-.11-.234.141-.437.344-.437.61s.203.25.437.11c.234-.126.437-.344.437-.61zm-.812.469c0-.125.234-.266.375-.344.141-.078.375-.203.375-.078s-.234.265-.375.344c-.141.078-.375.187-.375.078z" fill="#687A51"/><path d="M114.858 55.868l.5-.281c0-.016-.031-.219-.031-.219-.078.14-.469.36-.469.36-.078-.063-.078.28-.078.28.047-.109.047-.125.078-.14zm.501.187c0-.187-.141-.156-.297-.078-.156.094-.297.234-.297.406 0 .188.141.156.297.078.156-.093.297-.234.297-.406zm-.547.313c0-.079.156-.172.25-.235.094-.062.25-.14.25-.062 0 .078-.156.172-.25.234-.094.063-.25.14-.25.063zm.547.218c0-.187-.141-.156-.297-.078-.156.094-.297.234-.297.406 0 .188.141.157.297.078.156-.078.297-.218.297-.406zm-.547.328c0-.078.156-.172.25-.234.094-.062.25-.14.25-.063 0 .079-.156.172-.25.235-.094.047-.25.14-.25.062zm.046-17.368l.5-.28c0-.016-.031-.22-.031-.22-.078.141-.469.36-.469.36-.078-.063-.078.281-.078.281.047-.11.047-.125.078-.14zm.501.172c0-.187-.141-.156-.297-.078-.156.094-.297.234-.297.406 0 .188.141.156.297.078s.297-.218.297-.406zm-.547.328c0-.078.156-.172.25-.234.094-.063.25-.14.25-.063 0 .078-.156.172-.25.235-.094.047-.25.14-.25.062zm.547.219c0-.188-.141-.156-.297-.078-.156.094-.297.234-.297.406 0 .187.141.156.297.078s.297-.219.297-.406zm-.547.312c0-.078.156-.172.25-.234.094-.063.25-.14.25-.063 0 .079-.156.172-.25.235-.094.062-.25.156-.25.062zm-7.107 2.78c-.109.063-.156.047-.156-.015v-.688c0-.062.047-.125.094-.156.109-.062.156-.047.156.016v.094l.75-.438.016-.11a.223.223 0 01.093-.14c.094-.062.141-.047.141 0l.062.422c0 .047 0 .078-.015.11-.032.062-.063.093-.078.109l-.969.562-.015.11c.015.03-.032.109-.079.124zm.5 2.046c-.437.25-.671.172-.671-.203 0-.28.14-.546.375-.765-.235.063-.375-.063-.375-.328 0-.375.25-.734.671-.984.438-.25.672-.172.672.203 0 .281-.141.547-.375.765.234-.062.375.063.375.328.016.375-.234.735-.672.984z" fill="#FFF9E1"/><path d="M107.783 43.013l.984-.578c.015-.031-.047-.453-.047-.453-.047.032-.078.157-.078.157-.016.062-.032.078-.078.124l-.781.453c-.047.032-.063.016-.063-.03l-.015-.126c-.063.031-.063.734-.063.734.063-.031.078-.172.078-.172 0-.062.016-.078.063-.109zm1.015.36c0-.36-.281-.328-.578-.156-.312.172-.577.453-.577.828 0 .359.281.328.577.14.297-.172.578-.453.578-.812zm-1.093.625c0-.156.312-.36.5-.469.187-.11.5-.281.5-.11 0 .157-.313.36-.5.47-.188.109-.5.265-.5.109zm1.093.468c0-.36-.281-.328-.578-.14-.312.171-.577.453-.577.827 0 .36.281.328.577.157.297-.204.578-.485.578-.844zm-1.093.625c0-.156.312-.36.5-.469.187-.11.5-.28.5-.11 0 .173-.313.36-.5.47-.188.109-.5.265-.5.109zm5.014 11.058c0-.656-.453-.922-1.031-.594-.562.328-1.031 1.125-1.031 1.78 0 .657.453.922 1.031.594.562-.343 1.031-1.124 1.031-1.78zm-1.937 1.109c0-.578.406-1.297.906-1.578.5-.297.906-.062.906.531 0 .578-.406 1.297-.906 1.578-.5.297-.906.062-.906-.531zm1.937-14.931c0-.657-.453-.922-1.031-.594-.562.328-1.031 1.125-1.031 1.78 0 .656.453.922 1.031.594.562-.344 1.031-1.124 1.031-1.78zm-1.937 1.108c0-.578.406-1.296.906-1.577.5-.297.906-.063.906.53 0 .579-.406 1.297-.906 1.578-.5.297-.906.063-.906-.53z" fill="#A5AA9F"/><path d="M112.157 56.867c-.047-.046-.047-.14 0-.234.062-.14.062-.234.015-.281-.062-.078-.062-.172-.015-.265.047-.094 0-.157-.063-.126l-.531.313a.595.595 0 00-.14.14l-.406.703c0 .032.406.266.406.266.031.015.078.015.14-.016l.531-.312c.063-.032.11-.14.063-.188zm0-13.822c-.047-.047-.047-.14 0-.234.062-.141.062-.235.015-.282-.062-.078-.062-.171-.015-.265s0-.156-.063-.125l-.531.312a.596.596 0 00-.14.14l-.406.704c0 .031.406.265.406.265.031.016.078.016.14-.015l.531-.313c.063-.047.11-.156.063-.187zm-.313 7.247l.11-.406 1.327-.766c-.031.22-.172.5-.624.953-.11.125-.172.219-.172.39 0 .141.078.5.39.329.266-.157.687-.844.703-1.843l.515-.297v-.422l-.515.297c-.031-.843-.406-1.312-1.218-.843-.594.343-.922 1.03-1.14 1.827l-.125.453-1.515.875c.031-.157.14-.516.749-1.125.141-.156.203-.265.203-.453 0-.187-.187-.422-.468-.265-.219.124-.75.75-.781 2.014l-.672.39v.422l.672-.39c0 .687.344 1.437 1.265.906.703-.422 1.046-1.109 1.296-2.046zm.25-.906c.078-.406.281-.812.594-.984.328-.187.578-.062.593.312l-1.187.672zm-2.514 1.874l1.39-.796c-.141.484-.406.906-.797 1.14-.375.219-.593.062-.593-.344z" fill="#687A51"/><path d="M108.377 57.29v-1.813l.094-.062v1.827l-.094.047zm0-9.247v-1.828l.094-.046v1.811l-.094.063z" fill="#A5AA9F"/><path d="M127.573 62.334l-22.6 13.041c-1.219.703-2.218.281-2.218-.937V57.273c0-1.218.999-2.795 2.218-3.498l22.6-13.042c.937-.546 1.702-.218 1.702.719v18.195c0 .937-.765 2.14-1.702 2.687z" fill="#788EFF"/><path d="M120.732 48.808l-2.656 1.53c-1.655.954-2.998 3.078-2.998 4.749 0 1.655 1.343 2.233 2.998 1.265l2.656-1.53v-6.014z" fill="#5672CC"/><path d="M128.697 50.23l-9.73 5.607c-1.656.952-3.015.39-3.015-1.266 0-1.655 1.343-3.78 3.015-4.748l9.73-5.607c.547-.312.984-.125.984.422v4.045c0 .531-.437 1.234-.984 1.547z" fill="#83ACFF"/><path d="M120.06 52.322c0 .781-.625 1.765-1.406 2.218-.781.453-1.405.188-1.405-.593 0-.781.624-1.765 1.405-2.218.781-.453 1.406-.188 1.406.593z" fill="#FEF0FF"/><path opacity=".7" d="M84.184 48.308l17.04-9.824c.484-.281.89-.172.89.25l-.016 10.152c0 .422-.39 1-.89 1.28l-17.04 9.825c-.484.281-.89.172-.89-.25l.015-10.152c0-.422.406-1 .89-1.28zm-19.68 11.371l17.04-9.825c.485-.28.89-.171.89.25l-.015 10.153c0 .421-.39 1-.89 1.28l-17.04 9.824c-.484.281-.89.172-.89-.25l.015-10.152c0-.437.406-1 .89-1.28z" fill="#CCCBB0"/><path opacity=".5" d="M84.309 50.948c-.156-.11-.422-.078-.719.093l-17.04 9.825c-.484.28-.89.859-.89 1.28l-.016 10.152c0 .172.063.282.172.344l.266.156 18.477-21.694-.25-.156zm19.679-11.355c-.156-.11-.422-.078-.719.094l-17.04 9.824c-.484.281-.89.859-.89 1.28l-.015 10.153c0 .171.062.28.172.343l.265.156 18.477-21.694-.25-.156z" fill="#AAA98A"/><path d="M86.465 49.62l17.039-9.824c.484-.28.891-.172.891.25l-.016 10.152c0 .422-.391 1-.89 1.28l-17.04 9.825c-.484.281-.89.172-.89-.25l.015-10.152c0-.422.39-1 .89-1.28z" fill="#D84141"/><path d="M99.24 43.03l3.468-2c.328-.187.578-.11.578.172v1.124c0 .282-.266.656-.578.828l-3.468 2c-.328.187-.577.109-.577-.173v-1.124c0-.281.265-.656.578-.828z" fill="#FFFFD6"/><path d="M87.12 59.897l2.593-1.5c.25-.14.437-.42.437-.64v-1.249c0-.203-.203-.266-.437-.125l-2.593 1.5c-.25.14-.437.421-.437.64v1.25c0 .218.188.265.437.124z" fill="#FFC440"/><path opacity=".6" d="M87.042 57.945c-.031.016-.047.047-.078.062v1.953c.031 0 .047-.016.078-.032v-.484l.812-.468c.047.187.266.234.516.078.265-.156.484-.438.515-.672l.859-.5v.485c.031-.016.047-.032.078-.063v-1.983c-.031.015-.047.015-.078.03v.547l-.859.5c-.031-.203-.25-.25-.516-.094-.265.157-.484.453-.515.703l-.812.469v-.531zm1.859.36v-.829l.843-.484v.844l-.843.468zm-.531.686c-.22.125-.407.094-.438-.062l.89-.516c-.046.22-.234.453-.453.578zm0-1.608c.218-.125.406-.094.437.078l-.89.515a.997.997 0 01.453-.593zm-.453.656l.906-.516v.828c0 .016-.906.531-.906.531v-.843zm-.079.047v.827c0 .016-.812.484-.812.484v-.843l.813-.468z" fill="#D88C1D"/><path d="M101.521 50.932c0 .516-.422 1.172-.922 1.468-.515.297-.921.126-.921-.39 0-.515.421-1.171.921-1.468.5-.297.922-.11.922.39z" fill="#992E2E"/><path d="M103.661 49.698c0 .516-.422 1.172-.922 1.469-.515.296-.921.124-.921-.39 0-.516.422-1.172.921-1.47.5-.296.922-.108.922.391z" fill="#FFC440"/><path d="M90.12 53.025v.5c0 .11-.094.25-.203.312l-2.609 1.5c-.109.062-.203.03-.203-.079v-.5c0-.109.094-.25.203-.312l2.609-1.499c.11-.063.203-.031.203.078zm3.92-2.452l-2.608 1.5c-.11.062-.203.202-.203.312v.5c0 .109.094.14.203.078l2.608-1.5c.11-.062.203-.203.203-.312v-.5c-.015-.11-.094-.14-.203-.078zm4.108-2.374l-2.608 1.5c-.11.062-.204.202-.204.312v.5c0 .109.094.14.204.078l2.608-1.5c.11-.062.203-.203.203-.312v-.5c0-.11-.094-.14-.203-.078zm4.107-2.374l-2.608 1.5c-.11.062-.203.202-.203.312v.5c0 .109.094.14.203.078l2.608-1.5c.11-.062.204-.203.204-.312v-.5c0-.11-.094-.14-.204-.078z" fill="#FFFFD6"/><path d="M86.637 51.666V50.59c.031-.047.468-.297.468-.297.094-.047.156-.063.203-.047.047.016.078.078.078.156v.594a.518.518 0 01-.28.437l-.438.25c-.016.016-.031 0-.031-.016zm.187-.234l.25-.14a.244.244 0 00.125-.204v-.578c0-.093-.047-.109-.125-.062l-.25.14c-.016.032-.016.828-.016.828 0 .032.016.032.016.016zm1.39-.64l-.562.328c-.031-.016-.031-1.094-.031-1.094.03-.046.593-.374.593-.374.031.015.031.109.031.109-.03.047-.437.281-.437.281-.016.031-.016.328-.016.328.016 0 .36-.187.36-.187.03.015.03.109.03.109-.03.047-.374.25-.374.25-.016.031-.016.343-.016.343.016 0 .422-.218.422-.218.031.015.031.11.031.11 0-.017-.015 0-.03.015zm.25-.188v-1.077c.032-.047.453-.282.453-.282.094-.046.156-.062.203-.046.047.015.078.078.078.156v.094a.35.35 0 01-.14.28c.047-.015.078-.015.11 0 .03.016.046.047.046.11v.11a.421.421 0 01-.078.234.475.475 0 01-.203.187l-.437.25c-.016.016-.032.016-.032-.016zm.188-.718l.234-.125c.094-.047.14-.125.14-.203v-.078c0-.078-.046-.11-.124-.047l-.25.11c-.016.03-.016.327-.016.327 0 .016.016.016.016.016zm0 .5l.25-.14a.214.214 0 00.125-.204v-.11c0-.077-.047-.093-.14-.046l-.235.14c-.016.032-.016.36-.016.36h.016zm.968-1.516v1.078a.568.568 0 01-.14.11c-.032-.016-.032-1.094-.032-1.094a.574.574 0 01.14-.109c.032-.016.032 0 .032.016zm.578.766l-.11.063c-.031-.016-.031-.953-.031-.953-.016 0-.234.125-.234.125-.031-.016-.031-.11-.031-.11.03-.047.687-.421.687-.421.03.015.031.109.031.109-.031.047-.25.172-.25.172-.016.031-.016.968-.016.968-.015.031-.03.047-.046.047zm1.342-.766l-.202.126c-.094.046-.156.062-.203.046-.047-.015-.078-.078-.078-.156v-.593c0-.094.03-.172.078-.25a.475.475 0 01.203-.188l.203-.125c.094-.046.156-.062.203-.046.047.015.078.078.078.156v.078a.57.57 0 01-.14.11c-.032-.173-.079-.204-.157-.157l-.156.094c-.078.047-.125.109-.125.203v.578c0 .093.047.109.125.062l.156-.094a.244.244 0 00.125-.203c.031-.125.14-.187.14-.187.032.016.032.094.032.094a.473.473 0 01-.078.25.508.508 0 01-.203.203zm.547-.327l-.124.078c-.016-.016.296-1.265.296-1.265.047-.047.219-.157.219-.157.047 0 .344.906.344.906-.016.047-.141.11-.141.11-.031-.016-.094-.203-.094-.203l-.39.218-.063.266c-.015.031-.031.047-.047.047zm.297-1.125l-.156.656.312-.187-.156-.469zm.75.532l-.11.061c-.03-.015-.03-1.093-.03-1.093.03-.047.437-.28.437-.28.094-.048.156-.063.203-.048.047.016.078.078.078.156v.157c0 .14-.062.25-.172.359l.203.312c-.015.047-.125.11-.125.11-.062 0-.25-.297-.25-.297l-.171.11c-.016.03-.016.42-.016.42-.016 0-.016.016-.047.032zm.047-.61l.219-.125a.214.214 0 00.125-.203v-.156c0-.094-.047-.11-.125-.063l-.219.125c-.016.032-.016.406-.016.406 0 .016.016.016.016.016zm.781.11v-1.078c.031-.047.468-.297.468-.297.094-.047.157-.063.203-.047.047.016.079.078.079.156v.594a.518.518 0 01-.282.437l-.437.25c-.031 0-.031 0-.031-.016zm.187-.235l.25-.14c.078-.047.125-.11.125-.204v-.577c0-.094-.047-.11-.125-.063l-.25.14c-.015.032-.015.828-.015.828 0 .016 0 .016.015.016z" fill="#FFC440"/><path d="M66.77 60.99l17.039-9.824c.484-.28.89-.171.89.25l-.015 10.153c0 .421-.39 1-.89 1.28l-17.04 9.824c-.485.281-.89.172-.89-.25l.015-10.152c.015-.437.406-1 .89-1.28z" fill="#FFC522"/><path d="M79.56 54.384l3.468-2c.328-.187.578-.109.578.172v1.125c0 .281-.265.656-.578.844l-3.467 1.999c-.328.187-.578.109-.578-.172v-1.125c0-.28.265-.656.578-.843z" fill="#FFFFD6"/><path d="M67.44 71.268l2.593-1.5c.25-.14.438-.421.438-.64v-1.25c0-.202-.203-.265-.438-.124l-2.592 1.5c-.25.14-.438.421-.438.64v1.25c0 .202.188.265.438.124z" fill="#FFE845"/><path opacity=".6" d="M67.362 69.3c-.031.015-.047.047-.078.062v1.953c.031 0 .047-.016.078-.032V70.8l.812-.468c.047.187.266.234.516.078.265-.157.484-.438.515-.672l.86-.5v.485a.276.276 0 00.077-.063v-1.984c-.03.016-.046.016-.078.032v.546l-.859.5c-.031-.203-.25-.25-.515-.094-.266.157-.484.453-.516.703l-.812.469V69.3zm1.859.359v-.828l.843-.484v.843l-.843.469c0 .016 0 0 0 0zm-.531.687c-.219.125-.406.094-.438-.062l.89-.516c-.046.219-.233.453-.452.578zm0-1.609c.219-.124.406-.093.437.079l-.89.515c.047-.203.234-.453.453-.594zm-.453.657l.906-.516v.828c0 .016-.906.53-.906.53v-.843zm-.078.046v.828c0 .016-.812.484-.812.484v-.843l.812-.469z" fill="#D88C1D"/><path d="M81.84 62.303c0 .515-.421 1.171-.92 1.468-.516.297-.922.125-.922-.39 0-.516.421-1.172.921-1.469.5-.297.922-.125.922.39z" fill="#D84141"/><path d="M83.98 61.069c0 .515-.421 1.171-.92 1.468-.516.297-.922.125-.922-.39 0-.516.421-1.172.921-1.469.5-.296.922-.125.922.39z" fill="#FFE845"/><path d="M70.44 64.395v.5c0 .11-.094.25-.204.313l-2.608 1.499c-.11.062-.203.031-.203-.078v-.5c0-.11.094-.25.203-.312l2.608-1.5c.11-.078.203-.031.203.078zm3.92-2.467l-2.609 1.499c-.11.062-.203.203-.203.312v.5c0 .11.094.14.203.078l2.608-1.5c.11-.062.204-.202.204-.312v-.5c-.016-.093-.094-.14-.204-.077zm4.107-2.374l-2.608 1.499c-.11.062-.203.203-.203.312v.5c0 .11.093.14.203.078l2.608-1.5c.11-.062.203-.202.203-.311v-.5c0-.11-.094-.14-.203-.078zm4.108-2.375l-2.609 1.5c-.109.062-.203.203-.203.312v.5c0 .11.094.14.203.078l2.609-1.5c.11-.062.203-.202.203-.312v-.5c0-.109-.094-.14-.203-.078zm-15.15 5.592l-.203.125c-.094.047-.157.063-.203.047-.047-.016-.079-.078-.079-.156v-.594c0-.093.032-.171.079-.25a.475.475 0 01.203-.187l.203-.125c.078-.047.156-.062.203-.047.046.016.078.078.078.156v.078c-.032.047-.14.11-.14.11-.032-.172-.079-.203-.157-.156l-.156.093c-.078.047-.125.11-.125.203v.578c0 .094.047.11.125.063l.156-.094c.078-.047.125-.11.125-.203.031-.125.14-.187.14-.187.032.015.032.093.032.093a.472.472 0 01-.078.25.628.628 0 01-.203.203zm.625-.359l-.11.062c-.03-.015-.03-1.093-.03-1.093.03-.047.437-.281.437-.281.093-.047.156-.063.203-.047.046.016.078.078.078.156v.14c0 .141-.063.25-.172.36l.203.312c-.016.047-.125.11-.125.11-.047 0-.25-.297-.25-.297l-.172.11c-.015.03-.015.421-.015.421-.016.016-.016.031-.047.047zm.047-.61l.218-.124a.214.214 0 00.125-.203v-.156c0-.094-.047-.11-.125-.063l-.218.14c-.016.032-.016.407-.016.407h.016zm1.373-.202l-.561.328c-.032-.016-.032-1.093-.032-1.093.032-.047.594-.375.594-.375.031.015.031.11.031.11-.031.046-.437.28-.437.28-.016.031-.016.328-.016.328.016 0 .36-.187.36-.187.03.015.03.11.03.11-.03.046-.374.249-.374.249-.016.031-.016.344-.016.344.016 0 .422-.22.422-.22.031.017.031.11.031.11-.015-.015-.015 0-.031.016zm.25-.187v-1.078c.031-.047.469-.297.469-.297.094-.047.156-.062.203-.047.047.016.078.078.078.156v.594a.471.471 0 01-.078.25.474.474 0 01-.203.187l-.438.25c-.03.016-.03.016-.03-.015zm.188-.22l.25-.14c.078-.047.124-.11.124-.203v-.578c0-.093-.046-.109-.124-.062l-.25.14c-.016.032-.016.828-.016.828 0 .016 0 .016.016.016zm.968-1.514v1.078a.563.563 0 01-.14.109c-.031-.016-.031-1.093-.031-1.093.03-.047.14-.11.14-.11.016-.015.031-.015.031.016zm.578.765l-.11.063c-.03-.016-.03-.953-.03-.953a3.14 3.14 0 00-.235.125c-.031-.016-.031-.11-.031-.11.031-.046.687-.421.687-.421.031.015.031.11.031.11-.03.046-.25.17-.25.17-.015.032-.015.97-.015.97l-.047.046zm1.344-.765l-.203.125c-.094.046-.157.062-.203.046-.047-.015-.078-.078-.078-.156v-.593c0-.094.03-.172.078-.25a.474.474 0 01.203-.188l.203-.124c.093-.047.156-.063.203-.047.046.015.078.078.078.156v.078a.57.57 0 01-.14.11c-.032-.172-.079-.204-.157-.157l-.156.094c-.078.047-.125.11-.125.203v.578c0 .093.047.11.125.062l.156-.093c.078-.047.125-.11.125-.204.031-.125.14-.187.14-.187.032.016.032.094.032.094a.519.519 0 01-.078.25 1.25 1.25 0 01-.203.203zm.546-.329l-.125.079c-.016-.016.297-1.265.297-1.265.046-.047.218-.156.218-.156.047 0 .344.906.344.906-.016.046-.14.109-.14.109-.032-.016-.094-.203-.094-.203l-.39.218-.063.266-.047.047zm.297-1.124l-.157.656.313-.187-.156-.469zm.749.516l-.109.062c-.031-.016-.031-1.093-.031-1.093.031-.047.437-.281.437-.281.078-.047.157-.063.203-.047.047.015.079.078.079.156v.156c0 .14-.063.25-.172.36l.203.312c-.016.047-.125.11-.125.11-.063 0-.25-.298-.25-.298l-.172.11c-.016.03-.016.421-.016.421-.015.016-.03.032-.046.032zm.047-.594l.22-.125a.214.214 0 00.124-.203v-.156c0-.094-.047-.11-.125-.063l-.219.125c-.015.032-.015.407-.015.407 0 .015.015.015.015.015zm.766.094v-1.078c.03-.047.468-.297.468-.297.094-.046.156-.062.203-.046.047.015.078.078.078.156v.593a.518.518 0 01-.28.438l-.438.25c-.016.015-.031.015-.031-.016zm.203-.219l.25-.14c.078-.047.124-.11.124-.203v-.578c0-.094-.046-.11-.124-.063l-.25.14c-.016.032-.016.829-.016.829-.016.015 0 .015.016.015z" fill="#FFFFD6"/><path d="M115.265 17.758l1.952-1.124v.468l-1.952 1.125v-.469zm-2.515 5.154l-3.046 1.765v.469l3.608-2.077 1.25-.719v-.468l-1.812 1.03zm2.702-2.951v-.469l-1.531.875-.999.578v.468l.999-.578 1.531-.875zm-3.249 1.42l-2.499 1.453v.469l2.499-1.453v-.468zm1.297-2.139l1.046-.609v-.469l-1.812 1.047-3.03 1.75v.468l3.796-2.187zm-2.968-.14L113 17.68v-.468l-2.468 1.421-.796.469v.468l.796-.468zm4.92-2.843l.797-.453v-.468l-1.047.609-1.484.859v.468l1.734-1.015zm1.781 4.06l-1.953 1.125v.469l1.953-1.125v-.468zm-3.811 8.903l-3.718 2.14v.469l3.718-2.14v-.469zm-3.686 3.983v.469l.749-.438 3.124-1.796v-.468l-2.655 1.53-1.218.703zm7.497-9.886l-2.687 1.546-1.796 1.03v.47l1.796-1.032 2.687-1.546v-.468zm-.375 5.778l-.672.39-1.858 1.079v.468l1.483-.859 1.047-.609v-.469zm-4.936-.859l-2.218 1.281v.469l2.218-1.281 2.468-1.421v-.469l-2.468 1.421zm3.186-1.843v.469l1.297-.75v-.468l-1.297.75zm-.968 2.89l2.343-1.359v-.469l-2.343 1.36v.468zm-4.436-1.156l2.328-1.343v-.469l-2.328 1.343v.47zm13.339-11.152l-1.828 1.047v.468l1.828-1.046v-.469zm-.032-5.544l-1.093.64v.469l1.093-.64v-.47zm-1.811 1.046l-.937.547v.468l.937-.546v-.469zm1.827.797l-1.796 1.046v.469l1.796-1.047v-.468zm-2.702 3.405l-.765.437v.469l.765-.438v-.468zm.719.062l1.999-1.156v-.468l-1.999 1.155v.47zm1.967 8.809l-1.702.984v.468l1.702-.983v-.469zm.016-1.874l-3.202 1.858v.469l3.202-1.859v-.468zm-2.436 3.264l-.938.547v.468l.938-.546v-.469zm-.079-3.202l2.515-1.452v-.469l-2.515 1.453v.468zm.703-2.249l1.828-1.046v-.469l-1.828 1.047v.468zm4.655-6.153l-.781.452v.469l.781-.453v-.468zm-.032-5.545l-1.093.64v.469l1.093-.64v-.47zm.016 1.843l-.765.437v.469l.765-.438v-.468zm-.937 2.405v.469l.953-.547v-.469l-.953.547zm.921 9.871l-.656.375v.469l.656-.375v-.469zm.032-1.874l-.984.562v.469l.984-.563v-.468zm-.438-1.14l.438-.25v-.469l-.438.25v.469zm-.343-1.656l.781-.453v-.468l-.781.452v.47zm-18.102 7.466l.812-.469v-.468l-.812.468v.469zm-.016-5.545l.5-.281v-.469l-.5.282v.468zm.016 1.843l.828-.484v-.469l-.828.485v.468zm.015 1.375v.468l.641-.375v-.468l-.641.375zm-.046 10.901l.937-.546v-.469l-.937.547v.468zm.031-1.874l.609-.36v-.468l-.609.36v.468zm1.156-2.999l-1.156.672v.468l1.156-.671v-.469zm-.344-1.64l-.812.469v.468l.812-.468v-.469z" fill="#92BEFF"/><path d="M63.77 56.602c0 .5.344.703.781.453.438-.25.781-.86.781-1.36 0-.499-.343-.702-.78-.452-.438.25-.782.859-.782 1.359z" fill="#FFC522"/><path d="M83.622 45.122c0 .5.343.703.78.453.438-.25.781-.859.781-1.359s-.343-.703-.78-.453c-.422.25-.781.86-.781 1.359zm8.73-4.576l1.359-.781v.328l-1.359.78v-.327zm-1.234 1.03l.734-.421v-.328l-1.25.718-2.092 1.219v.328l2.608-1.515zm-2.061-.093l1.702-.984v-.328l-1.702.984-.547.312v.328l.547-.312zm3.42-1.968l.547-.312v-.328l-.719.421-1.03.594v.328l1.202-.703zm3.811-2.53l-.765.437v.328l.765-.437v-.328zm-1.25.734l-.656.375v.328l.656-.375v-.328zm1.266.547l-1.25.718v.328l1.25-.718v-.328zm1.952-2.421l-.765.437v.328l.765-.437v-.328zm.016 1.28l-.532.297v.328l.532-.297v-.328zm-11.683 5.78l.344-.204v-.328l-.344.203v.328zm.016 1.28l.577-.328v-.328l-.578.328v.328z" fill="#D84141"/><path d="M70.955 52.9l-2.124 1.218v.328l2.499-1.436.875-.5v-.328l-1.25.718zm1.859-2.03v-.328l-1.047.609-.703.406v.328l.703-.406 1.047-.61zm-2.249.968l-1.734 1v.328l1.734-1v-.328zm3.498-.734l-1.359.797v.312l1.359-.78v-.329zm2.593-1.499l-1.265.734v.328l1.265-.734v-.328zm-1.875-.203l-.53.312v.328l.53-.312v-.328zm.5.047l1.375-.797v-.328l-1.375.797v.328zm3.343-.969l-.547.313v.312l.547-.312v-.313zm-.657-.906v.313l.656-.375v-.328l-.656.39zm-11.01 7.966l.562-.328v-.328l-.563.328v.328zm0-1.625v.328l.453-.25v-.328l-.453.25z" fill="#FFC522"/><defs><linearGradient id="paint0_linear_206_3357" x1="42.315" y1="113.982" x2="100.364" y2="9.077" gradientUnits="userSpaceOnUse"><stop stop-color="#5917FF"/><stop offset=".159" stop-color="#6D22F8"/><stop offset=".485" stop-color="#A13DE7"/><stop offset=".946" stop-color="#F569CA"/><stop offset="1" stop-color="#FF6EC7"/></linearGradient><linearGradient id="paint1_linear_206_3357" x1="95.929" y1="112.988" x2="100.423" y2="112.988" gradientUnits="userSpaceOnUse"><stop stop-color="#C0B9C8"/><stop offset="1" stop-color="#E0DBE1"/></linearGradient><linearGradient id="paint2_linear_206_3357" x1="51.322" y1="98.686" x2="151.855" y2="98.686" gradientUnits="userSpaceOnUse"><stop stop-color="#F8F6FA"/><stop offset="1" stop-color="#FBF8FC"/></linearGradient></defs></svg>