<svg width="40" height="40" fill="none" xmlns="http://www.w3.org/2000/svg"><path fill-rule="evenodd" clip-rule="evenodd" d="M21.216 5a2.568 2.568 0 012.568 2.568c0 1.092.705 2.039 1.664 2.56.15.081.298.166.444.254.941.567 2.12.703 3.075.157a2.612 2.612 0 013.554.953l1.174 2.015a2.573 2.573 0 01-.945 3.528c-.95.544-1.423 1.63-1.4 2.725a11.305 11.305 0 010 .48c-.023 1.095.45 2.181 1.4 2.725a2.573 2.573 0 01.945 3.528l-1.174 2.015a2.612 2.612 0 01-3.554.953c-.954-.546-2.134-.41-3.075.157a10.82 10.82 0 01-.444.254c-.959.521-1.664 1.468-1.664 2.56A2.568 2.568 0 0121.216 35h-2.431a2.568 2.568 0 01-2.569-2.568c0-1.092-.704-2.039-1.663-2.56a10.82 10.82 0 01-.444-.254c-.941-.567-2.121-.703-3.075-.157a2.612 2.612 0 01-3.554-.953l-1.174-2.015a2.573 2.573 0 01.945-3.528c.95-.544 1.423-1.63 1.4-2.725a11.306 11.306 0 010-.48c.023-1.095-.45-2.181-1.4-2.725a2.573 2.573 0 01-.945-3.528l1.174-2.015a2.612 2.612 0 013.554-.953c.954.546 2.134.41 3.075-.157.146-.088.294-.173.444-.254.959-.521 1.663-1.468 1.663-2.56A2.568 2.568 0 0118.785 5h2.431zM25 20a5 5 0 11-10 0 5 5 0 0110 0z" fill="#646E82"/></svg>