<svg width="226" height="226" fill="none" xmlns="http://www.w3.org/2000/svg"><path d="M28.25 113c0-46.806 37.944-84.75 84.75-84.75s84.75 37.944 84.75 84.75-37.944 84.75-84.75 84.75S28.25 159.806 28.25 113z" stroke="#46B64B" stroke-opacity=".1" stroke-width="18.833"/><path d="M150.667 84.75l-47.084 56.5-28.25-25.682" stroke="#46B64B" stroke-opacity=".1" stroke-width="18.833" stroke-linecap="round" stroke-linejoin="round"/><path opacity=".4" d="M97.016 89.222c-3.32-1.924-7.999-2.547-12.263-1.943-4.264-.623-8.943.019-12.282 1.943l-43.657 25.206c-5.057 2.924-5.095 7.66-.057 10.584L129.24 182.97c2.584 1.491 5.98 2.208 9.376 2.17h5.755l1-68.033-48.356-27.885z" fill="#50197C"/><path d="M189.652 150.859l-48.525 28.017c-.887.51-1.963.51-2.849 0l-103.767-59.92c-1.906-1.094-4.264-3.736-1.358-7l44.563-26.092c3.396-2.038 8.358-3.32 12.282-2.811 1.736.226 3.924.641 4.905 1.226l97.258 56.015c4.094 2.358 1.585 8.188-2.509 10.565z" fill="url(#paint0_linear_1011_4029)"/><path d="M197.5 142.633L97.016 84.675c-5.037-2.924-13.225-2.924-18.282 0l-43.657 25.206c-5.056 2.924-5.094 7.66-.056 10.584l100.483 57.959c5.038 2.924 13.226 2.924 18.282 0l43.658-25.206c5.056-2.925 5.094-7.66.056-10.585zm-63.562 33.055l-99.71-57.543c-2.377-1.378-2.377-4.83 0-6.208l11.264-6.509c.188-.113.415-.188.622-.207l8.66-1.019c.17-.019.32-.075.471-.151l13.603-7.867c.208-.114.359-.283.472-.49l3.264-5.793a.975.975 0 01.34-.34l6.924-4a16.395 16.395 0 0116.433 0l96.238 55.544c.812.472.812 1.661 0 2.132L136.41 175.65c-.792.472-1.717.472-2.472.038z" fill="#353131"/><path d="M177.219 159.538l-2.566-1.49c-1.283-.736-3.434-.661-4.906.188l-5.735 3.321c-.491.283-.868.641-1.076 1.019-.49.867-.188 1.811.774 2.377l2.566 1.49c1.283.736 3.434.661 4.905-.188l5.736-3.321c.49-.283.868-.641 1.075-1.019.491-.868.189-1.811-.773-2.377z" fill="#262424"/><path d="M177.256 160.161l-2.584-1.491c-1.283-.736-3.453-.66-4.925.189l-5.754 3.32c-.491.283-.868.642-1.094 1.019-.095.17-.151.359-.189.528.094.491.396.944.943 1.246l2.585 1.49c1.283.736 3.453.66 4.924-.189l5.755-3.32c.49-.283.868-.642 1.094-1.019.094-.17.151-.358.189-.528-.095-.491-.397-.944-.944-1.245z" fill="#353131"/><path d="M64.773 94.599l-9.093 5.245c-.51.283-.548.736-.114.981.434.245 1.189.226 1.698-.076l9.094-5.244c.51-.283.547-.736.113-.981-.434-.246-1.188-.208-1.698.075z" fill="#191414"/><path d="M53.038 132.879a3.373 3.373 0 00-.378-.735c-.188-.246-.396-.472-.641-.604l-8.358-4.811c-.321-.189-.604-.189-.793-.076l-.83.472c.208-.113.49-.094.793.076l8.358 4.811c.245.132.452.339.641.603.17.227.302.472.377.736.076.208.114.434.114.642v.358c0 .359-.133.623-.34.736l.83-.472c.208-.113.34-.377.34-.736v-.358c.018-.208-.038-.434-.114-.642z" fill="#F9F7FB"/><path d="M51.19 132.012l-8.359-4.811c-.622-.359-1.132-.057-1.132.66v.359c0 .716.51 1.603 1.132 1.962l8.358 4.811c.623.358 1.132.056 1.132-.661v-.358c.019-.717-.49-1.604-1.132-1.962z" fill="#C0B9C8"/><path d="M65.791 140.219a3.358 3.358 0 00-.377-.736c-.189-.246-.397-.472-.642-.604l-8.358-4.811c-.32-.189-.603-.189-.792-.075l-.83.471c.207-.113.49-.094.792.076l8.358 4.811c.245.132.453.339.642.603.17.227.301.472.377.736.075.208.113.434.113.642v.358c0 .359-.132.623-.34.736l.83-.472c.208-.113.34-.377.34-.736v-.358a1.98 1.98 0 00-.113-.641z" fill="#F9F7FB"/><path d="M63.943 139.37l-8.358-4.811c-.623-.359-1.132-.076-1.132.66v.358c0 .717.51 1.604 1.132 1.963l8.358 4.811c.622.358 1.132.056 1.132-.661v-.358c0-.717-.51-1.604-1.132-1.962z" fill="#C0B9C8"/><path d="M53.963 103.032c-.623.359-1.604.359-2.227 0-.603-.358-.603-.924 0-1.282.623-.359 1.604-.359 2.227 0 .603.358.603.924 0 1.282z" fill="#191414"/><path opacity=".1" d="M52.056 102.881c.453.245 1.189.226 1.642-.038.453-.283.434-.698-.038-.943-.453-.245-1.189-.226-1.641.038-.434.264-.416.698.037.943z" fill="#CFD5D5"/><path opacity=".1" d="M52.397 102.617c.245.133.641.132.886-.018.246-.151.227-.378-.018-.51-.246-.132-.642-.132-.887.019-.227.151-.227.377.019.509z" fill="#CFD5D5"/><path opacity=".2" d="M52.68 102.448c.094.056.245.037.32 0 .095-.057.095-.132 0-.189-.094-.057-.245-.038-.34 0-.075.057-.075.151.02.189z" fill="#CFD5D5"/><path d="M201.255 147.878c0 1.925-1.264 3.868-3.811 5.34l-43.658 25.206c-5.056 2.924-13.244 2.924-18.282 0L35.021 120.465c-2.49-1.453-3.755-3.358-3.755-5.264l.019 4.566c0 1.906 1.264 3.811 3.754 5.264l100.484 57.958c5.038 2.925 13.226 2.925 18.282 0l43.658-25.206c2.547-1.471 3.811-3.396 3.811-5.339l-.019-4.566z" fill="url(#paint1_linear_1011_4029)"/><path d="M178.483 167.82l-5.924 3.415c-.698.396-1.246.151-1.246-.528 0-.698.566-1.566 1.246-1.962l5.924-3.415c.698-.396 1.245-.151 1.245.528.019.679-.547 1.547-1.245 1.962z" fill="#262424"/><mask id="a" style="mask-type:alpha" maskUnits="userSpaceOnUse" x="171" y="165" width="9" height="7"><path d="M178.482 167.82l-5.924 3.415c-.698.396-1.245.151-1.245-.528 0-.698.566-1.566 1.245-1.962l5.924-3.415c.699-.396 1.246-.151 1.246.528.019.679-.547 1.547-1.246 1.962z" fill="#262424"/></mask><g mask="url(#a)"><path d="M170.313 168.744l-.83.472 2.924 1.698.831-.472-2.925-1.698zm1.811-1.038l-.83.472 2.925 1.698.83-.472-2.925-1.698zm1.812-1.056l-.83.471 2.924 1.698.83-.471-2.924-1.698zm1.811-1.038l-.83.472 2.924 1.698.83-.472-2.924-1.698z" fill="#9E6512"/></g><path opacity=".7" d="M194.255 124.352l-58.788 33.941-97.315-56.204 58.77-33.922 97.333 56.185z" fill="#CFE9FF"/><path d="M97.3 68.374l-58.77 33.941-7.283-4.207 58.789-33.922 7.263 4.188z" fill="#788EFF"/><path d="M47.756 105.164l-1.132.661.585.358.603-.358 8.83 5.112-.604.34.604.34.585-.34 8.83 5.094-.585.34.585.339 1.15-.66-19.451-11.226z" fill="#fff"/><path opacity=".9" d="M96.186 33.697l-3.66 3.264-4.15 4.887-3.944.905-4.81.49-7.132 4.944-5.113 6.49-6.301 4.603-5.415 5.868h-4.623l-3.414 8.17v31.922l55.826-32.225V32.263l-4.773.415-2.49 1.02z" fill="#A82EDB"/><path d="M98.733 32.433l-2.754 1.151-3.528 3.132-4.208 5-3.792.867-4.83.51-7.15 4.962-5.113 6.509-6.283 4.566-5.414 5.886-4.68.038-3.32 7.905v.905l3.51-8.47 4.622-.038 5.395-5.868 6.396-4.717 4.981-6.358 7.113-5 4.81-.528L88.376 42c.02 0 4.17-4.906 4.17-4.906l3.603-3.226 2.68-1.094 4.678-.378v-.32l-4.773.358z" fill="#B84BFF"/><path opacity=".9" d="M100.715 46.885l-3.66 1.17-4.151 2.622-3.943.887-4.811 4.868-5.604 2.452-6.64 8.98-6.302 4.604-5.415 5.868-4.603 3.83-3.434 8.169v17.508l55.826-32.205V45.45l-4.773 2.755-2.49-1.32z" fill="#E952EB"/><path d="M103.261 47.998l-2.471-1.302-3.717 1.189-4.132 2.623-3.962.905-4.83 4.868-5.622 2.471-6.66 9-6.282 4.565-5.415 5.887-4.679 3.886-3.32 7.906v.622l3.509-8.358 4.584-3.81 5.377-5.85 6.283-4.584 6.66-8.98L84.13 56.6c.038-.018 4.85-4.867 4.85-4.867l3.886-.887c.019 0 4.17-2.641 4.17-2.641l3.603-1.151 2.509 1.32 4.849-2.792v-.32l-4.736 2.735z" fill="#FF61F1"/><path opacity=".9" d="M106.28 57.695l-4.358 1.679-3.943 3.471-4.906 2.83-4.773 5.49-5.452 3.717-5.849 6.358-7.547 6.528-4.962 6.396-4.094 3.49-3.15 3.717v9.396l55.826-32.206v-24.79l-6.792 3.924z" fill="#7934E5"/><path d="M106.299 57.526l-4.358 1.68c-.038.018-3.981 3.49-3.981 3.49l-4.905 2.83-4.812 5.509-5.414 3.716-5.887 6.358-7.546 6.547-4.962 6.396-4.075 3.471-3.113 3.774v.358l3.207-3.886 4.075-3.472 4.962-6.396 7.547-6.546 5.83-6.32 5.433-3.718 4.792-5.49 4.887-2.81 3.943-3.472 4.358-1.68 6.792-3.924v-.32l-6.773 3.905z" fill="#9252FF"/><path opacity=".9" d="M110.94 70.864l-4.358 1.264-3.944 4.962-5.886 5-3.792.037-5.056 4.453-4.245 7.131-8.849 5.113-7.282 7.66-3.189 4.452-2.434 1.415v1.132l55.827-32.224v-14.3l-6.792 3.905z" fill="#6780FF"/><path d="M110.959 70.695l-4.415 1.264-3.962 5.018-5.81 4.944-3.793.037-5.15 4.528-4.227 7.113-8.792 5.075-7.377 7.735-3.15 4.396-2.396 1.397v.32l2.509-1.452 3.188-4.472 7.264-7.622 8.886-5.132 4.245-7.15 5.038-4.472 3.792-.037 5.867-4.962 3.925-4.943 4.301-1.227 6.83-3.943v-.32l-6.773 3.905z" fill="#7DDDFF"/><path opacity=".9" d="M116.09 78.392l-4.358.944-3.924 4.037-5.905 4.547-3.793.793-5.056 4.452-7.188 3.717-5.49 5.452-6.113 4.358-4.773 6.283-2.434 1.415v2.075l55.826-32.243v-9.735l-6.792 3.906z" fill="#FFC41D"/><path d="M116.11 78.223l-4.396.962-3.981 4.075-5.811 4.471-3.792.793-5.151 4.547-7.17 3.698-5.433 5.395-6.188 4.453-4.736 6.226-2.415 1.377v.321l2.51-1.434 4.792-6.301 6.075-4.34 5.528-5.452 7.188-3.755 5.056-4.471 3.792-.792 5.849-4.49 3.924-4 4.302-.944 6.83-3.924v-.32l-6.773 3.905z" fill="#FFD91F"/><path d="M49.944 53.62l.415-.226c.057.038.057.151.057.151a.104.104 0 01-.057.094l-.415.227v.453a.104.104 0 01-.056.094l-.132.075c-.057-.037-.057-.471-.057-.471l-.415.245c-.057-.019-.057-.15-.057-.15 0-.039.02-.076.057-.095l.415-.245v-.434c0-.038.019-.076.057-.095l.132-.075c.056 0 .056.453.056.453zm.811.585v-.283c0-.132.057-.264.151-.415l.529-.792a.599.599 0 00.132-.34v-.094c0-.15-.076-.189-.208-.094l-.132.075c-.075.038-.132.094-.15.151-.02.057-.057.113-.057.189v.113c0 .038-.02.057-.057.075l-.189.114c-.056-.02-.056-.151-.056-.151 0-.151.037-.283.113-.415a.823.823 0 01.32-.302l.227-.132c.132-.076.245-.095.32-.057.076.038.114.132.114.283v.132c0 .151-.057.32-.17.49l-.547.793a.359.359 0 00-.056.17v.094l.735-.434c.057.02.057.189.057.189 0 .038-.019.057-.057.075l-1 .566c-.019.057-.019.038-.019 0zm1.661-1.32v.245a.574.574 0 01-.057.207l-.15.378c-.076.019-.076-.68-.076-.68 0-.037.019-.056.056-.075l.189-.113c.019 0 .038 0 .038.038zm1.019-.17l-.283.17c-.132.075-.246.094-.321.056-.076-.037-.113-.132-.113-.283V51.64c0-.15.037-.283.113-.415a1.04 1.04 0 01.32-.32l.284-.17c.132-.076.245-.094.32-.057.076.038.114.132.114.283v1.02a.809.809 0 01-.114.414.751.751 0 01-.32.32zm-.246-.132l.208-.113a.376.376 0 00.208-.34v-1c0-.15-.076-.189-.208-.113l-.208.113a.376.376 0 00-.207.34v1c.019.17.075.188.207.113zm.944-1.755v-.188c0-.038.019-.057.038-.095l.301-.358.095-.094.17-.095c.056.019.056 1.906.056 1.906 0 .037-.019.056-.038.075l-.188.113c-.057-.018-.057-1.622-.057-1.622l-.302.377c-.056.019-.075.02-.075-.019zm1.622-.509l-.17.094c-.038.019-.056.038-.094.076-.075.132-.094.17-.132.188l-.17.095c-.057-.02-.057-.981-.057-.981 0-.038.02-.057.057-.076l.962-.547c.057.019.057.189.057.189 0 .037-.019.056-.057.075l-.736.415v.566a.503.503 0 01.246-.283l.17-.094c.132-.076.245-.095.32-.057.076.038.113.132.113.283v.359c0 .15-.037.283-.113.415a1.038 1.038 0 01-.32.32l-.246.133c-.132.075-.245.094-.32.056-.076-.038-.114-.132-.114-.283 0-.113.02-.15.057-.17l.17-.094c.056.245.113.283.245.208l.17-.095a.376.376 0 00.207-.34v-.301c0-.095-.019-.151-.056-.17-.057-.038-.114-.019-.189.019z" fill="#A82EDB"/><path d="M47.737 54.224l-1.038 2.547 2.076-1.207-1.038-1.34z" fill="#6FAF00"/><path d="M61.811 46.772l.416-.227c.056.038.056.151.056.151a.104.104 0 01-.056.095l-.416.226v.453a.104.104 0 01-.056.094l-.132.076c-.057-.038-.057-.472-.057-.472l-.415.245c-.057-.018-.057-.15-.057-.15 0-.038.02-.076.057-.095l.415-.226v-.434c0-.038.019-.076.057-.095l.132-.075c.056-.019.056.434.056.434zm1.434-.774l-.17.095a.322.322 0 00-.094.075c-.075.132-.094.17-.132.189l-.17.094c-.056-.019-.056-.981-.056-.981 0-.038.019-.057.056-.075l.963-.548c.056.02.056.19.056.19 0 .037-.019.056-.056.075l-.736.415v.566a.503.503 0 01.245-.283l.17-.095c.132-.075.245-.094.32-.056.076.037.114.132.114.283v.358a.809.809 0 01-.113.415 1.04 1.04 0 01-.321.321l-.245.132c-.133.075-.246.094-.321.057-.076-.038-.113-.132-.113-.283 0-.114.018-.151.056-.17l.17-.094c.057.245.113.283.245.207l.17-.094a.376.376 0 00.208-.34v-.302c0-.094-.02-.15-.057-.17-.038-.037-.094-.018-.189.02zm1.057.019v.246a.573.573 0 01-.057.207l-.151.377c-.075.02-.075-.679-.075-.679 0-.038.018-.056.056-.075l.189-.113c.019-.02.038 0 .038.037zm1.302-.321l-.17.095c-.057-.02-.057-.34-.057-.34l-.754.434c-.057.038-.076.019-.076-.038v-.094c0-.038 0-.094.019-.132l.641-1.585a.292.292 0 00.038-.094c.057-.057.302-.189.302-.189.057-.038.076-.019.076.038v1.245l.207-.113c.057.019.057.17.057.17a.104.104 0 01-.057.094l-.207.113v.321c.018.019 0 .057-.02.075zm-.227-.528v-1.094l-.566 1.415.566-.32zm1.359-1.188l-.17.094a.33.33 0 00-.094.075c-.076.132-.095.17-.132.189l-.17.094c-.057-.019-.057-.98-.057-.98 0-.038.019-.057.057-.076l.962-.547c.057.018.057.188.057.188 0 .038-.02.057-.057.076l-.736.415v.566a.503.503 0 01.245-.283l.17-.094c.132-.076.245-.095.321-.057.075.038.113.132.113.283v.358a.812.812 0 01-.113.415 1.042 1.042 0 01-.32.321l-.246.132c-.132.076-.245.095-.32.057-.076-.038-.114-.132-.114-.283 0-.113.019-.151.057-.17l.17-.094c.056.245.113.283.245.207l.17-.094a.376.376 0 00.207-.34v-.302c0-.094-.019-.15-.057-.17-.056-.037-.094-.018-.188.02zm1.547.17l-.302.17c-.132.075-.245.112-.32.075-.076-.038-.114-.132-.114-.283v-.17c0-.189.056-.359.189-.49-.133.018-.19-.076-.19-.265v-.15c0-.152.039-.284.114-.397a.987.987 0 01.32-.302l.303-.17c.132-.075.245-.113.32-.075.076.038.114.132.114.264v.151a.603.603 0 01-.057.264.561.561 0 01-.132.208c.132-.02.189.075.189.264v.17c0 .15-.038.283-.114.415a1.042 1.042 0 01-.32.32zm-.264-.963l.226-.132a.376.376 0 00.207-.34v-.15c0-.076-.018-.114-.056-.133-.038-.018-.076 0-.151.038l-.227.132c-.075.038-.113.095-.15.132a.319.319 0 00-.057.19v.15c0 .15.075.189.207.113zm0 .85l.226-.133c.075-.038.113-.094.15-.132a.319.319 0 00.058-.189v-.17c0-.15-.076-.188-.208-.113l-.227.133a.376.376 0 00-.207.339v.17c0 .075.019.113.057.132.019.019.075 0 .15-.038z" fill="#E952EB"/><path d="M59.604 47.376l-1.038 2.528 2.076-1.189-1.038-1.34z" fill="#6FAF00"/><path d="M73.509 40.263l-.566.32c-.057-.018-.057-.17-.057-.17 0-.037.019-.056.057-.075l.566-.32c.056.019.056.17.056.17a.27.27 0 01-.056.075zm.226-.773v-.19c0-.037.02-.056.038-.094l.302-.358.094-.094.17-.095c.057.019.057 1.906.057 1.906 0 .037-.02.056-.038.075l-.189.113c-.056-.019-.056-1.622-.056-1.622l-.302.377c-.057.019-.076.02-.076-.019zm1.283.339v.245a.573.573 0 01-.057.208l-.15.377c-.076.019-.076-.68-.076-.68 0-.037.019-.056.057-.075l.188-.113c.02 0 .038 0 .038.038zm1.038-.169l-.283.17c-.132.075-.246.093-.321.056-.076-.038-.113-.132-.113-.283v-1.02c0-.15.037-.282.113-.414a1.04 1.04 0 01.32-.321l.284-.17c.132-.075.245-.094.32-.056.076.037.114.132.114.283v1.018a.873.873 0 01-.434.736zm-.246-.133l.208-.113a.376.376 0 00.207-.34v-1c0-.15-.075-.188-.207-.113l-.208.114a.376.376 0 00-.207.34v.999c0 .17.075.207.207.113zm1.736-.736l-.283.17c-.132.076-.245.095-.32.057-.076-.038-.114-.132-.114-.283v-1.019c0-.151.038-.283.113-.415a1.04 1.04 0 01.321-.32l.283-.17c.132-.076.245-.095.32-.057.076.038.114.132.114.283v1.019a.87.87 0 01-.434.736zm-.245-.113l.207-.113a.376.376 0 00.208-.34v-1c0-.15-.076-.188-.208-.113l-.207.113a.376.376 0 00-.208.34v1c0 .15.076.189.208.113zm1.49-1.717l.151-.094a.376.376 0 00.208-.34v-.15c0-.152-.076-.19-.208-.095l-.17.094c-.075.038-.113.095-.15.133a.318.318 0 00-.057.188c0 .132-.019.151-.056.17l-.19.113c-.056-.019-.056-.113-.056-.113 0-.151.038-.283.113-.415a.823.823 0 01.321-.302l.245-.151c.133-.075.246-.094.321-.056.076.037.113.132.113.282v.17c0 .189-.075.34-.226.472.15-.057.226.019.226.207v.17a.802.802 0 01-.113.415 1.04 1.04 0 01-.32.321l-.246.151c-.132.075-.245.094-.32.057-.076-.038-.114-.133-.114-.283v-.114c0-.037.019-.056.057-.075l.189-.113c.056.019.056.132.056.132 0 .075.019.113.057.132.037.019.075 0 .15-.038l.17-.094a.376.376 0 00.208-.34v-.17c0-.15-.076-.188-.208-.094l-.15.094c-.057-.019-.057-.17-.057-.17 0-.037.019-.075.056-.094z" fill="#7934E5"/><path d="M71.471 42.47l-1.037-1.358 2.075-1.189-1.038 2.547z" fill="#DB3E3E"/><path d="M85.546 33.056l.415-.226c.056.037.056.15.056.15a.104.104 0 01-.056.095l-.415.226v.453a.104.104 0 01-.057.094l-.132.076c-.057-.038-.057-.472-.057-.472l-.415.245c-.056-.019-.056-.15-.056-.15 0-.038.019-.076.056-.095l.415-.245v-.453c0-.038.02-.075.057-.094l.132-.076c.057.038.057.472.057.472zm.735-.811v-.19c0-.037.02-.056.038-.093l.302-.359.095-.094.17-.095c.056.02.056 1.906.056 1.906 0 .038-.019.057-.038.075l-.188.114c-.057-.02-.057-1.623-.057-1.623l-.302.378c-.057.018-.076.018-.076-.02zm1.283.339v.245a.572.572 0 01-.056.208l-.151.377c-.076.02-.076-.679-.076-.679 0-.038.02-.057.057-.075l.189-.114c.018 0 .037 0 .037.038zm.755-1.132l.15-.094a.376.376 0 00.208-.34v-.15c0-.152-.075-.19-.207-.095l-.17.094c-.075.038-.113.095-.15.132a.318.318 0 00-.058.19c0 .131-.018.15-.056.169l-.189.113c-.056-.019-.056-.113-.056-.113 0-.151.037-.283.113-.415a.823.823 0 01.32-.302l.246-.151c.132-.075.245-.094.32-.057.076.038.114.133.114.283v.151c0 .189-.076.34-.227.472.151-.057.227.019.227.208v.17a.808.808 0 01-.113.414 1.04 1.04 0 01-.321.321l-.245.151c-.132.076-.246.094-.321.057-.076-.038-.113-.132-.113-.283v-.114c0-.037.019-.056.056-.075l.189-.113c.056.019.056.132.056.132 0 .075.02.113.057.132.038.019.076 0 .151-.038l.17-.094a.376.376 0 00.207-.34v-.17c0-.15-.075-.188-.207-.094l-.151.095c-.057-.02-.057-.17-.057-.17a.262.262 0 01.057-.076zm1.717.132l-.302.17c-.132.075-.245.113-.32.075-.076-.037-.114-.131-.114-.282v-.17c0-.189.057-.359.189-.49-.132.018-.189-.076-.189-.265v-.15c0-.152.038-.284.114-.416a.988.988 0 01.32-.302l.302-.17c.132-.075.245-.113.32-.075.076.038.114.132.114.264v.151a.601.601 0 01-.057.264.561.561 0 01-.132.208c.132-.02.189.075.189.264v.207a.808.808 0 01-.434.717zm-.264-.962l.226-.132a.376.376 0 00.208-.34V30c0-.076-.019-.114-.057-.133-.037-.018-.094 0-.15.038l-.227.132c-.076.038-.113.095-.151.132a.319.319 0 00-.057.189v.15c0 .152.076.19.208.114zm0 .85l.226-.133c.076-.038.114-.094.151-.132a.318.318 0 00.057-.189v-.17c0-.15-.076-.188-.208-.113l-.226.132a.376.376 0 00-.208.34v.17c0 .075.02.113.057.132.038.019.076 0 .151-.038zm1.735-.737l-.264.151c-.132.076-.245.095-.32.057-.076-.038-.114-.132-.114-.283v-1.02c0-.15.038-.283.114-.415a1.04 1.04 0 01.32-.32l.566-.322c.057.02.057.19.057.19 0 .037-.019.056-.057.075l-.528.302a.376.376 0 00-.208.34v.263l.434-.245c.132-.076.246-.094.321-.057.076.038.113.132.113.283V30c0 .15-.037.282-.113.415a.87.87 0 01-.32.32zm-.226-.132l.189-.113a.376.376 0 00.207-.34v-.245c0-.15-.075-.189-.207-.113l-.397.226v.472c0 .151.076.189.208.113z" fill="#6780FF"/><path d="M83.338 33.66l-1.037 2.547 2.075-1.19-1.038-1.358z" fill="#6FAF00"/><path d="M97.243 26.566l-.566.32c-.057-.018-.057-.17-.057-.17 0-.037.02-.056.057-.075l.566-.32c.056.018.056.17.056.17-.018.018-.018.056-.056.075zm.793-.717l.15-.095a.376.376 0 00.208-.34v-.15c0-.151-.075-.189-.208-.094l-.17.094c-.075.038-.113.094-.15.132a.319.319 0 00-.057.189c0 .132-.019.15-.056.17l-.19.113c-.056-.02-.056-.113-.056-.113 0-.151.038-.284.114-.416a.824.824 0 01.32-.301l.245-.151c.133-.076.246-.095.321-.057.076.038.114.132.114.283v.17c0 .188-.076.34-.227.471.151-.056.227.02.227.208v.17a.809.809 0 01-.114.415 1.04 1.04 0 01-.32.32l-.246.152c-.132.075-.245.094-.32.056-.076-.038-.114-.132-.114-.283v-.113c0-.038.02-.057.057-.075l.189-.114c.056.02.056.132.056.132 0 .076.02.114.057.132.037.02.075 0 .15-.037l.17-.095a.376.376 0 00.208-.34v-.17c0-.15-.075-.188-.208-.093l-.15.094c-.057-.019-.057-.17-.057-.17 0-.038.019-.075.057-.094zm1.226-.019v.245a.573.573 0 01-.057.208l-.15.377c-.076.019-.076-.68-.076-.68 0-.037.019-.056.056-.075l.189-.113c.019 0 .038 0 .038.038zm.981-.151l-.585.34c-.057-.02-.057-.19-.057-.19 0-.037.02-.056.057-.075l.528-.301a.376.376 0 00.208-.34v-.245l-.434.245c-.132.075-.245.094-.32.057-.076-.038-.114-.133-.114-.283v-.283c0-.151.038-.283.113-.415a1.04 1.04 0 01.32-.321l.265-.151c.132-.076.245-.095.321-.057.075.038.113.132.113.283v1.019a.812.812 0 01-.113.415c-.038.113-.151.227-.302.302zm-.227-.868l.397-.226v-.49c0-.152-.076-.19-.208-.114l-.189.113a.376.376 0 00-.207.34v.264c0 .17.075.189.207.113zm1.623-.981l-.17.094c-.038.02-.056.038-.094.076-.076.132-.095.17-.132.189l-.17.094c-.057-.02-.057-.981-.057-.981 0-.038.019-.057.057-.076l.962-.547c.057.02.057.189.057.189 0 .038-.019.056-.057.075l-.736.415v.566a.505.505 0 01.246-.283l.169-.094c.132-.075.246-.094.321-.057.076.038.113.133.113.283v.359c0 .15-.037.283-.113.415a1.036 1.036 0 01-.321.32l-.245.133c-.132.075-.245.094-.321.056-.075-.037-.113-.132-.113-.283 0-.113.019-.15.057-.17l.17-.094c.056.245.113.283.245.208l.17-.095a.375.375 0 00.207-.34v-.301c0-.094-.019-.151-.056-.17-.057-.038-.114-.019-.189.019zm1.264-.792l.151-.095a.375.375 0 00.207-.34v-.15c0-.151-.075-.189-.207-.095l-.17.095c-.076.038-.113.094-.151.132a.317.317 0 00-.057.189c0 .132-.018.15-.056.17l-.189.113c-.056-.02-.056-.114-.056-.114a.802.802 0 01.433-.717l.246-.15c.132-.076.245-.095.32-.057.076.038.114.132.114.283v.17c0 .188-.076.34-.227.471.151-.056.227.02.227.208v.17c0 .15-.038.283-.114.415a1.034 1.034 0 01-.32.32l-.246.151c-.132.076-.245.095-.32.057-.076-.038-.113-.132-.113-.283v-.113c0-.038.018-.057.056-.076l.189-.113c.056.019.056.132.056.132 0 .076.019.113.057.132.038.02.075 0 .151-.037l.17-.095a.375.375 0 00.207-.34v-.17c0-.15-.075-.188-.207-.093l-.151.094c-.057-.019-.057-.17-.057-.17 0-.038.019-.075.057-.094z" fill="#FFC41D"/><path d="M95.206 28.754l-1.038-1.34 2.075-1.188-1.037 2.528z" fill="#DB3E3E"/><path d="M46.624 58.13v.584l.585-.339v8.83l-.585.34v.603l.585-.34v8.811l-.585.359v.584l.585-.34v8.83l-.585.34v.604l.585-.359v8.83l-.585.358v.585l.585-.34v8.83l-.585.34v.603l1.15-.66V57.469l-1.15.66z" fill="#E4E2E8"/><path d="M81.15 114.277l-8.226 4.754-2.132-1.226 8.226-4.754 2.132 1.226z" fill="#FFD91F"/><path d="M75.735 119.711l.208-.114c.188-.113.188-.207 0-.32l-.19-.114a.566.566 0 00-.546 0l-.227.133c-.094.056-.132.113-.132.151 0 .056.038.094.132.15l.114.057c.037.019.037.057 0 .076l-.246.132c-.037.018-.075.018-.132 0l-.113-.076c-.189-.113-.264-.207-.264-.339 0-.114.094-.227.283-.34l.32-.189a1.32 1.32 0 01.586-.17c.207 0 .396.057.566.151l.207.114c.226.132.264.264.113.415.245-.095.49-.057.717.075l.208.132c.188.113.264.208.264.34 0 .113-.094.226-.283.339l-.32.189a1.312 1.312 0 01-.586.17c-.207 0-.396-.057-.566-.151l-.132-.076c-.038-.018-.038-.056 0-.075l.245-.132a.16.16 0 01.133 0l.132.075a.513.513 0 00.264.076c.094 0 .17-.019.264-.076l.226-.132c.189-.113.189-.207 0-.32l-.207-.114c-.189-.113-.359-.094-.547 0l-.208.114c-.038.018-.075.018-.132 0l-.17-.095c-.019 0-.019-.038.019-.056zm2.453-.453l.453.264c.037.019.037.057 0 .075l-.246.151c-.037.019-.075.019-.132 0l-.453-.264c-.037-.019-.037-.038 0-.075l.246-.151c.056-.019.094-.019.132 0zm.452-1.132l-.226.132c-.057.019-.076.057-.094.075.019.114.019.151-.02.17l-.226.132c-.037.019-.075.019-.132 0l-1.17-.679c-.037-.019-.037-.056 0-.075l1.265-.736a.16.16 0 01.132 0l.207.132c.038.019.038.057 0 .075l-.962.548.68.396c-.076-.095-.038-.189.131-.283l.227-.132a1.13 1.13 0 01.547-.151c.189 0 .377.056.547.151l.434.245c.189.113.264.207.264.339 0 .114-.094.227-.264.34l-.32.189a1.087 1.087 0 01-.586.151c-.207 0-.396-.057-.585-.151l-.094-.057c-.038-.019-.038-.056 0-.075l.227-.132a.16.16 0 01.132 0l.094.056a.484.484 0 00.547 0l.208-.132c.188-.113.188-.207 0-.321l-.378-.226a.687.687 0 00-.302-.094c-.075.019-.17.056-.283.113zm3.208-.377l-.755.433c-.056.019-.094.038-.132 0l-.189-.113c-.037-.019-.037-.056.02-.075l.698-.415c.17-.095.17-.208 0-.321l-.302-.17-.566.34a1.312 1.312 0 01-.585.17c-.208 0-.397-.057-.585-.151l-.359-.208c-.188-.113-.283-.226-.283-.339 0-.114.095-.227.283-.34l.359-.208c.189-.113.377-.151.585-.169.207-.019.396.056.585.151l1.245.716c.188.114.264.208.264.34 0 .132-.094.245-.283.359zm-1.51-.529l.529-.302-.585-.339a.484.484 0 00-.547 0l-.245.151c-.17.094-.17.207 0 .32l.32.189a.58.58 0 00.529-.019zm2.887-.264l-.264.151c-.057.019-.075.019-.113-.019l-1.189-1.603-.943.547a.16.16 0 01-.132 0l-.208-.114c-.037-.018-.037-.056 0-.075l1.264-.736a.16.16 0 01.132 0l.227.132a.325.325 0 01.113.113l1.132 1.529c.038 0 .038.037-.019.075z" fill="#fff"/><path d="M92.45 107.749l-8.225 4.754-2.132-1.226 8.226-4.754 2.132 1.226z" fill="#6780FF"/><path d="M88.564 113.862l-.396.226a1.085 1.085 0 01-1.132.019l-.207-.113c-.227-.132-.302-.264-.19-.415-.245.057-.47.019-.716-.113l-.189-.113c-.17-.095-.264-.208-.264-.321 0-.113.094-.227.283-.321l.396-.226c.189-.113.378-.17.566-.17.189 0 .378.038.566.151l.189.113c.113.076.189.132.226.208.038.075.02.132-.019.207a.932.932 0 01.698.113l.19.113c.188.114.263.208.263.321.02.113-.075.208-.264.321zm-1.698-.585l.302-.17c.189-.094.17-.207-.019-.32l-.189-.114a.52.52 0 00-.264-.075.476.476 0 00-.264.075l-.302.17c-.094.057-.132.113-.132.151 0 .057.038.094.132.151l.19.113c.188.132.376.132.546.019zm1.038.604l.302-.17c.094-.057.132-.113.132-.151 0-.057-.038-.094-.132-.151l-.208-.113c-.189-.113-.377-.113-.547 0l-.302.17c-.189.094-.17.207.02.321l.207.113a.52.52 0 00.264.075.758.758 0 00.264-.094zm1.509-1.095l.453.265c.038.018.038.056 0 .075l-.245.151c-.038.019-.076.019-.132 0l-.453-.264c-.038-.019-.038-.038 0-.076l.245-.151a.168.168 0 01.132 0zm.17-1.075l.207-.113c.19-.113.19-.208 0-.321l-.188-.113a.566.566 0 00-.547 0l-.227.132c-.094.057-.132.113-.132.151 0 .057.038.094.132.151l.113.056c.038.019.038.057 0 .076l-.245.132c-.038.019-.075.019-.132 0l-.113-.075c-.189-.114-.264-.208-.264-.34 0-.113.094-.226.283-.34l.32-.188a1.3 1.3 0 01.585-.17c.208 0 .397.057.566.151l.208.113c.226.132.264.264.113.415a.803.803 0 01.717.076l.208.132c.188.113.264.207.264.339 0 .113-.095.227-.283.34l-.321.188a1.3 1.3 0 01-.585.17c-.207 0-.396-.056-.566-.151l-.132-.075c-.038-.019-.038-.057 0-.076l.245-.132a.16.16 0 01.132 0l.132.076a.52.52 0 00.265.075c.094 0 .17-.019.264-.075l.226-.132c.189-.113.189-.208 0-.321l-.207-.113c-.189-.113-.359-.095-.547 0l-.208.113c-.038.019-.076.019-.132 0l-.17-.094c-.019 0-.038-.019.019-.057zm3.604-.509l-.397.226c-.188.113-.377.17-.566.17a1.07 1.07 0 01-.566-.151l-.207-.113c-.226-.132-.302-.264-.189-.415a.975.975 0 01-.717-.114l-.188-.113c-.17-.094-.264-.207-.264-.32 0-.114.094-.227.283-.321l.396-.227a1.09 1.09 0 01.566-.169c.188 0 .377.037.566.151l.189.113c.113.075.188.132.226.207.038.076.019.132-.019.208a.927.927 0 01.698.113l.189.113c.188.113.264.208.264.321 0 .113-.094.207-.264.321zm-1.698-.585l.302-.17c.188-.094.17-.207-.02-.321l-.188-.113a.52.52 0 00-.264-.075.476.476 0 00-.264.075l-.302.17c-.094.057-.132.113-.132.151 0 .056.038.094.132.151l.189.113c.17.132.358.132.547.019zm1.018.604l.302-.17c.095-.057.132-.113.132-.151 0-.057-.037-.095-.132-.151l-.207-.113c-.189-.114-.377-.114-.547 0l-.302.169c-.189.095-.17.208.019.321l.207.113a.513.513 0 00.264.076.632.632 0 00.264-.094zm2.585-1.132l-.754.434c-.057.018-.095.037-.132 0l-.19-.114c-.037-.018-.037-.056.02-.075l.698-.415c.17-.095.17-.208 0-.321l-.302-.17-.566.34a1.313 1.313 0 01-.585.17c-.208 0-.396-.057-.585-.151l-.358-.208c-.189-.113-.283-.226-.283-.339 0-.114.094-.227.283-.34l.358-.208a1.31 1.31 0 01.585-.169c.207 0 .396.056.585.151l1.245.717c.189.113.264.207.264.339-.019.151-.094.264-.283.359zm-1.528-.51l.528-.302-.585-.339a.484.484 0 00-.547 0l-.245.151c-.17.094-.17.207 0 .32l.32.189c.19.076.36.076.53-.019z" fill="#fff"/><path d="M103.771 101.221l-8.226 4.755-2.15-1.227 8.244-4.754 2.132 1.226z" fill="#7934E5"/><path d="M97.507 106.617l-.226-.132c-.038-.019-.057-.057-.038-.075l.151-.359c.02-.038.038-.075.076-.094l.226-.132c.038-.019.076-.019.132 0l2.264 1.302c.038.018.038.056 0 .075l-.245.132c-.038.019-.076.019-.132 0l-1.944-1.132-.17.377c0 .057-.037.057-.094.038zm2.962-.226l.453.264c.038.019.038.056 0 .075l-.245.151c-.038.019-.075.019-.132 0l-.453-.264c-.038-.019-.038-.038 0-.075l.245-.151c.057-.019.095-.019.132 0zm.83.037l-.339-.188c-.151-.095-.227-.208-.189-.34l.132-.736c.019-.132-.019-.226-.151-.302l-.113-.075a.566.566 0 00-.547 0l-.189.113c-.094.057-.132.113-.132.151 0 .057.057.094.151.151l.132.076c.038.018.038.056 0 .075l-.245.132a.16.16 0 01-.132 0l-.151-.075c-.189-.114-.264-.208-.264-.34 0-.113.094-.226.283-.34l.283-.169c.188-.114.377-.151.566-.151.207 0 .396.056.566.151l.151.094c.188.113.283.245.245.415l-.132.755c-.019.056.019.113.075.151l.114.075.962-.566a.16.16 0 01.132 0l.188.113c.038.019.038.057 0 .076l-1.301.754c0 .038-.038.038-.095 0zm1.17-2.15l.208-.114c.188-.113.188-.207 0-.32l-.189-.114a.566.566 0 00-.547 0l-.227.133c-.094.056-.132.113-.132.15 0 .057.038.095.132.151l.114.057c.037.019.037.057 0 .076l-.246.132c-.037.018-.075.018-.132 0l-.113-.076c-.189-.113-.264-.207-.264-.34 0-.113.094-.226.283-.339l.321-.189c.188-.113.377-.151.585-.17.207 0 .396.057.566.151l.207.114c.227.132.264.264.113.415.246-.095.491-.057.717.075l.208.132c.188.113.264.208.264.34 0 .113-.094.226-.283.339l-.321.189a1.309 1.309 0 01-.585.17c-.207 0-.396-.057-.566-.151l-.132-.076c-.037-.018-.037-.056 0-.075l.246-.132a.16.16 0 01.132 0l.132.075a.51.51 0 00.264.076c.094 0 .17-.019.264-.076l.226-.132c.189-.113.189-.207 0-.32l-.207-.114a.484.484 0 00-.547 0l-.208.114c-.038.018-.075.018-.132 0l-.17-.095c-.037 0-.037-.037.019-.056zm3.547-.491l-.358.208a1.09 1.09 0 01-.585.151c-.208 0-.397-.057-.585-.151l-1.245-.717c-.189-.114-.283-.227-.283-.34 0-.113.094-.226.283-.34l.735-.433c.038-.019.076-.019.132 0l.189.113c.038.019.038.037 0 .075l-.698.396c-.189.095-.17.208 0 .321l.321.189.566-.34c.188-.113.377-.151.585-.17.207 0 .396.057.585.151l.32.189c.189.113.264.208.264.34.038.151-.037.264-.226.358zm-.623 0l.246-.151c.169-.094.169-.207 0-.321l-.302-.169a.48.48 0 00-.547 0l-.529.301.566.34c.208.094.378.094.566 0z" fill="#fff"/><path d="M115.072 94.693l-8.226 4.755-2.132-1.226 8.226-4.755 2.132 1.226z" fill="#E952EB"/><path d="M111.468 100.636l-.226.132c-.038.019-.076.019-.132 0l-.396-.226-.981.566c-.076.038-.151.038-.208 0l-.113-.076c-.057-.037-.094-.056-.113-.094l-.642-1.34c.038-.132.378-.32.378-.32.075-.038.15-.038.207 0l1.509.868.265-.151c.037-.02.075-.02.132 0l.188.113c.057.019.057.057 0 .075l-.264.151.396.227c.038.037.038.056 0 .075zm-1.056-.283l-1.321-.754.585 1.188.736-.434zm1.566-.603l.452.264c.038.018.038.056 0 .075l-.245.151c-.038.019-.075.019-.132 0l-.453-.264c-.037-.019-.037-.038 0-.076l.246-.15c.056-.02.094-.02.132 0zm1.849-.472l-.359.207a1.083 1.083 0 01-.585.151 1.28 1.28 0 01-.584-.15l-1.246-.718c-.188-.113-.283-.226-.283-.34 0-.112.095-.226.283-.339l.736-.434c.038-.019.076-.019.132 0l.189.114c.038.018.038.037 0 .075l-.698.396c-.189.095-.17.208 0 .32l.321.19.566-.34c.188-.113.377-.151.584-.17.208 0 .397.057.585.151l.321.189c.189.113.264.207.264.34.057.15-.038.245-.226.358zm-.623 0l.245-.151c.17-.094.17-.208 0-.32l-.301-.17a.485.485 0 00-.548 0l-.528.301.566.34c.208.094.396.094.566 0zm2.604-1.132l-.397.226a1.09 1.09 0 01-.566.17c-.188 0-.377-.038-.566-.15l-.207-.114c-.226-.132-.302-.264-.189-.415-.245.056-.471.019-.717-.113l-.188-.114c-.17-.094-.264-.207-.264-.32 0-.114.094-.227.282-.321l.397-.227a1.09 1.09 0 01.566-.17c.188 0 .377.038.566.152l.188.113c.114.075.189.132.227.207.038.076.019.133-.019.208a.929.929 0 01.698.113l.189.113c.188.114.264.208.264.321 0 .094-.095.208-.264.32zm-1.717-.585l.302-.17c.188-.094.169-.207-.019-.32l-.189-.114a.516.516 0 00-.264-.075.471.471 0 00-.264.075l-.302.17c-.094.057-.132.113-.132.151 0 .057.038.094.132.15l.189.114a.521.521 0 00.547.019zm1.037.604l.302-.17c.095-.057.132-.113.132-.151 0-.057-.037-.094-.132-.151l-.207-.113c-.189-.113-.378-.113-.547 0l-.302.17c-.189.113-.17.207.019.32l.207.114a.518.518 0 00.264.075 1.11 1.11 0 00.264-.094zm2.585-1.132l-.754.434c-.057.019-.095.037-.133 0l-.188-.114c-.038-.018-.038-.056.019-.075l.698-.415c.169-.094.169-.208 0-.32l-.302-.17-.566.339c-.189.113-.377.15-.585.17-.208 0-.396-.057-.585-.151l-.358-.208c-.189-.113-.283-.226-.283-.34 0-.113.094-.226.283-.339l.358-.207a1.3 1.3 0 01.585-.17c.208 0 .396.056.585.15l1.245.718c.189.113.264.207.264.34-.019.15-.094.263-.283.358zm-1.528-.529l.528-.301-.585-.34a.483.483 0 00-.547 0l-.245.151c-.17.094-.17.208 0 .32l.321.19c.17.094.358.094.528-.02z" fill="#fff"/><path d="M126.392 88.165l-8.244 4.755-2.132-1.226 8.244-4.755 2.132 1.227z" fill="#A82EDB"/><path d="M121.261 93.524l-.227.132c-.056.019-.075.056-.094.075.019.113.019.151-.019.17l-.226.132c-.038.019-.076.019-.132 0l-1.17-.68c-.038-.018-.038-.056 0-.075l1.264-.735a.16.16 0 01.132 0l.207.132c.038.019.038.056 0 .075l-.962.547.679.396c-.075-.094-.037-.188.132-.283l.227-.132c.17-.094.358-.15.547-.15.189 0 .377.056.547.15l.434.246c.189.113.264.207.264.34 0 .112-.094.226-.264.339l-.321.188a1.076 1.076 0 01-.585.151 1.28 1.28 0 01-.584-.15l-.095-.057c-.037-.019-.037-.057 0-.076l.227-.132a.16.16 0 01.132 0l.094.057a.483.483 0 00.547 0l.208-.132c.188-.113.188-.208 0-.32l-.378-.227a.69.69 0 00-.301-.095 1.44 1.44 0 00-.283.114zm2.131-.359l.453.264c.038.02.038.057 0 .076l-.245.15c-.038.02-.076.02-.132 0l-.453-.264c-.038-.018-.038-.037 0-.075l.245-.151c.057-.038.095-.038.132 0zm1.887-.509l-.396.226c-.189.113-.377.17-.566.17-.189 0-.377-.038-.566-.151l-.208-.113c-.226-.132-.301-.264-.188-.415a.975.975 0 01-.717-.114l-.189-.113c-.17-.094-.264-.207-.264-.32 0-.114.094-.227.283-.321l.396-.227c.189-.113.378-.17.566-.17.189 0 .378.038.566.152l.189.113c.113.075.189.132.226.207.038.076.019.132-.019.208a.931.931 0 01.699.113l.188.113c.189.113.264.208.264.32.019.114-.075.227-.264.322zm-1.698-.566l.302-.17c.189-.094.17-.208-.019-.32l-.188-.114a.52.52 0 00-.265-.076.473.473 0 00-.264.076l-.302.17c-.094.056-.132.113-.132.15 0 .057.038.095.132.152l.189.113a.521.521 0 00.547.019zm1.038.585l.302-.17c.094-.057.132-.113.132-.151 0-.057-.038-.094-.132-.151l-.208-.113c-.188-.114-.377-.114-.547 0l-.302.17c-.188.113-.17.207.019.32l.208.113a.513.513 0 00.264.076.5.5 0 00.264-.094zm1.226-1.793l-.226.132c-.057.02-.076.057-.094.076.018.113.018.15-.019.17l-.227.132c-.037.019-.075.019-.132 0l-1.169-.68c-.038-.018-.038-.056 0-.075l1.264-.736a.162.162 0 01.132 0l.207.132c.038.02.038.057 0 .076l-.962.547.679.396c-.075-.094-.038-.189.132-.283l.227-.132c.169-.094.358-.15.547-.15.188 0 .377.056.547.15l.434.245c.188.114.264.208.264.34 0 .113-.094.226-.264.34l-.321.188a1.085 1.085 0 01-.585.151c-.207 0-.396-.057-.585-.15l-.094-.058c-.038-.018-.038-.056 0-.075l.226-.132a.16.16 0 01.132 0l.095.057a.483.483 0 00.547 0l.208-.133c.188-.113.188-.207 0-.32l-.378-.227a.69.69 0 00-.302-.094 1.117 1.117 0 00-.283.113zm3.226-.396l-.358.208c-.189.113-.377.15-.585.15-.208 0-.396-.056-.585-.15l-1.245-.717c-.189-.114-.283-.227-.283-.34 0-.113.094-.226.283-.34l.736-.433c.037-.02.075-.02.132 0l.188.113c.038.019.038.037 0 .075l-.698.396c-.188.095-.169.208 0 .321l.321.189.566-.34c.189-.113.377-.15.585-.17.208 0 .396.057.585.151l.321.189c.188.113.264.208.264.34.056.132-.038.245-.227.358zm-.622-.019l.245-.15c.17-.095.17-.208 0-.321l-.302-.17a.483.483 0 00-.547 0l-.528.302.566.34c.207.112.396.112.566 0z" fill="#fff"/><path d="M125.77 118.428l24.243-5.377c5.132 7.735-1.547 16.395-14.923 19.357a57.85 57.85 0 01-2.585.49l-6.735-14.47z" fill="#FFD91F"/><path d="M125.769 118.428l-20.168-9.434c7.226-5.15 18.772-6.943 29.47-4.565l-9.302 13.999z" fill="#E952EB"/><path d="M125.769 118.428l-25.639 2.339c-1.189-4.358.66-8.339 5.471-11.773l20.168 9.434z" fill="#8022B2"/><path d="M125.769 118.428l6.717 14.47c-13.848 2.151-28.093-2.603-31.79-10.603-.246-.528-.416-1-.566-1.528l25.639-2.339z" fill="#7948D8"/><path d="M125.77 118.428l9.301-14c7.132 1.585 12.188 4.51 14.923 8.623l-24.224 5.377z" fill="#7BA4FF"/><path d="M137.391 142.52l2.906-1.679.698.396-2.906 1.68-.698-.397zm1.774 5.34l-4.528 2.622.698.396 5.377-3.094 1.867-1.075-.698-.397-2.716 1.548zm1.962-3.51l-.698-.396-2.264 1.321-1.491.868.698.396 1.491-.868 2.264-1.321zm-5.528 2.378l-3.736 2.15.698.397 3.736-2.151-.698-.396zm-.132-2.302l1.566-.906-.698-.396-2.698 1.547-4.491 2.604.699.396 5.622-3.245zm-7.188.962l3.66-2.113-.698-.396-3.66 2.113-1.189.679.698.396 1.189-.679zm7.339-4.226l1.169-.679-.698-.397-1.566.906-2.207 1.283.698.396 2.604-1.509zm10.225 2.83l-2.905 1.679.698.396 2.905-1.679-.698-.396zm8.623-4.962l-2.717 1.566.698.396 2.717-1.566-.698-.396zm-8.302-4.754l-1.622.943.698.396 1.622-.943-.698-.396zm-2.698 1.547l-1.396.811.698.396 1.396-.811-.698-.396zm5.472.018l-2.679 1.548.698.396 2.679-1.547-.698-.397zm-1.264 3.906l-1.151.66.698.396 1.151-.66-.698-.396zm1.773-.208l2.981-1.717-.698-.396-2.981 1.717.698.396zm9.226-2.943l-1.17.679.698.396 1.17-.679-.698-.396zm-8.302-4.754l-1.622.943.698.396 1.622-.943-.698-.396zm2.793 1.566l-1.132.66.698.396 1.132-.66-.698-.396zm1.358 2.396l.698.396 1.415-.83-.698-.396-1.415.83zm-23.225 17.395l1.208-.698-.698-.396-1.208.698.698.396zm-8.301-4.755l.736-.434-.698-.396-.736.434.698.396zm2.773 1.585l1.246-.717-.699-.396-1.245.717.698.396zm2.095 1.17l.698.396.943-.547-.698-.396-.943.547zm35.242-23.527l2.906-1.679.698.396-2.906 1.679-.698-.396zm1.774 5.34l-4.528 2.622.698.396 5.377-3.094 1.868-1.075-.699-.397-2.716 1.548zm1.943-3.51l-.698-.396-2.264 1.321-1.491.868.698.396 1.491-.868 2.264-1.321zm-5.528 2.396l-3.736 2.151.698.396 3.736-2.15-.698-.397zm-.132-2.301l1.566-.906-.698-.396-2.698 1.547-4.49 2.603.698.397 5.622-3.245zm-7.169.943l3.66-2.113-.698-.396-3.661 2.113-1.188.679.698.396 1.189-.679zm7.32-4.226l1.17-.679-.699-.397-1.565.906-2.208 1.283.698.396 2.604-1.509zm10.226 2.849l-2.906 1.679.698.396 2.906-1.679-.698-.396zm8.64-4.981l-2.716 1.566.698.396 2.717-1.566-.699-.396zm-8.32-4.755l-1.622.944.698.396 1.622-.943-.698-.397zm-2.698 1.566l-1.396.812.698.396 1.396-.811-.698-.397zm5.491 0l-2.679 1.547.698.397 2.679-1.547-.698-.397zm-1.264 3.925l-1.151.66.698.396 1.151-.66-.698-.396zm1.754-.227l2.981-1.717-.698-.396-2.981 1.717.698.396zm9.245-2.943l-1.17.679.698.396 1.17-.679-.698-.396zm-8.302-4.754l-1.622.943.698.396 1.622-.943-.698-.396zm2.774 1.584l-1.132.661.698.396 1.132-.641-.698-.416zm1.358 2.397l.698.396 1.415-.83-.698-.397-1.415.831zm-33.563 26.564l-.698-.396-2.264 1.32-1.49.868.698.396 1.49-.868 2.264-1.32zm-5.528 2.396l-3.735 2.151.698.396 3.735-2.151-.698-.396zm12.075-6.981l-1.151.661.698.396 1.151-.661-.698-.396zm1.773-.226l2.981-1.717-.698-.396-2.981 1.717.698.396zm5.057-3.717l.698.396 1.415-.83-.698-.396-1.415.83zm-26.64 15.376l.698.397.943-.548-.698-.396-.943.547zm38.96-21.696l-.698-.396-2.264 1.32-1.491.868.698.396 1.491-.868 2.264-1.32zm-5.528 2.396l-3.736 2.151.698.396 3.736-2.151-.698-.396zm12.093-6.981l-1.151.66.698.397 1.151-.661-.698-.396zm1.755-.207l2.981-1.717-.698-.396-2.981 1.716.698.397zm5.075-3.736l.698.396 1.415-.811-.698-.396-1.415.811zm-67.845 21.3l1.208-.698-.698-.396-1.208.698.698.396zm-8.301-4.735l.736-.434-.698-.396-.736.434.698.396zm2.773 1.566l1.245-.717-.698-.396-1.245.717.698.396zm2.095 1.17l.698.396.943-.547-.698-.397-.943.548zm56.524-29.451l-1.17.679.698.396 1.17-.679-.698-.396zm-8.301-4.755l-1.623.944.698.396 1.623-.943-.698-.397zm2.773 1.585l-1.132.66.698.397 1.132-.661-.698-.396zm1.358 2.396l.698.396 1.415-.83-.698-.396-1.415.83zm-62.297 24.508l1.207-.698-.698-.396-1.207.698.698.396zm-8.32-4.755l.735-.433-.698-.397-.736.434.698.396zm2.792 1.566l1.245-.717-.698-.396-1.245.717.698.396zm2.075 1.189l.698.396.943-.547-.698-.396-.943.547zm56.543-29.47l-1.169.68.698.396 1.17-.679-.699-.397zm-8.32-4.735l-1.622.943.698.396 1.622-.943-.698-.396zm2.793 1.566l-1.133.641.699.396 1.132-.641-.698-.396zm1.358 2.396l.698.396 1.415-.83-.698-.396-1.415.83zM91.13 130.012l1.208-.698-.698-.397-1.208.698.698.397zm-8.32-4.755l.736-.434-.698-.396-.736.434.698.396zm2.792 1.585l1.246-.717-.698-.396-1.246.717.698.396zm2.095 1.17l.698.396.943-.547-.698-.396-.943.547zm56.524-29.452l-1.17.68.699.396 1.169-.679-.698-.396zm-8.301-4.754l-1.623.944.698.396 1.623-.943-.698-.397zm2.773 1.567l-1.132.66.698.396 1.132-.66-.698-.397zm1.359 2.414l.698.397 1.415-.83-.698-.397-1.415.83z" fill="#fff"/><defs><linearGradient id="paint0_linear_1011_4029" x1="118.21" y1="84.05" x2="103.117" y2="216.116" gradientUnits="userSpaceOnUse"><stop stop-color="#5917FF"/><stop offset=".159" stop-color="#6D22F8"/><stop offset=".485" stop-color="#A13DE7"/><stop offset=".946" stop-color="#F569CA"/><stop offset="1" stop-color="#FF6EC7"/></linearGradient><linearGradient id="paint1_linear_1011_4029" x1="134.36" y1="150.204" x2="152.822" y2="150.204" gradientUnits="userSpaceOnUse"><stop stop-color="#C0B9C8"/><stop offset="1" stop-color="#E0DBE1"/></linearGradient></defs></svg>