<svg width="40" height="40" fill="none" xmlns="http://www.w3.org/2000/svg"><path d="M9.636 32.083H22.03c.941 0 1.682-.78 1.494-1.702-.517-2.546-2.208-7.048-7.69-7.048-5.484 0-7.174 4.502-7.692 7.048-.187.922.553 1.702 1.494 1.702zm22.07-2.59c-.572-2.58-1.991-6.16-5.456-6.16 2.083 2.5 3.212 6.603 1.667 8.75.595.099 1.544 0 1.544 0 1.428 0 2.555-1.196 2.245-2.59zm-15.873-12.41a4.583 4.583 0 100-9.166 4.583 4.583 0 000 9.166zm8.75 0c2.532 0 4.167-2.052 4.167-4.583s-1.635-4.583-4.167-4.583c1.25 3.75 1.25 5.416 0 9.166z" fill="#646E82" stroke="#646E82" stroke-width="2.5" stroke-linecap="round" stroke-linejoin="round"/></svg>