<svg width="44" height="44" fill="none" xmlns="http://www.w3.org/2000/svg"><rect width="44" height="44" rx="22" fill="#E5E5F1"/><path d="M15.782 29.25h7.436c.565 0 1.009-.468.896-1.021C23.805 26.7 22.79 24 19.5 24s-4.304 2.701-4.615 4.229c-.112.553.332 1.021.897 1.021zm13.242-1.554C28.68 26.148 27.829 24 25.75 24c1.25 1.5 1.927 3.962 1 5.25.357.059.927 0 .927 0 .856 0 1.532-.718 1.347-1.554zM19.5 20.25a2.75 2.75 0 100-5.5 2.75 2.75 0 000 5.5zm5.25 0c1.519 0 2.5-1.231 2.5-2.75s-.981-2.75-2.5-2.75c.75 2.25.75 3.25 0 5.5z" fill="#646E82" stroke="#646E82" stroke-width="1.5" stroke-linecap="round" stroke-linejoin="round"/></svg>