<svg width="26" height="26" fill="none" xmlns="http://www.w3.org/2000/svg"><path d="M3.25 7.583A4.333 4.333 0 017.583 3.25h10.834a4.333 4.333 0 014.333 4.333v10.834a4.333 4.333 0 01-4.333 4.333H7.583a4.333 4.333 0 01-4.333-4.333V7.583z" stroke="#A6ACB7" stroke-width="2"/><path d="M13 13a3.25 3.25 0 013.25-3.25h5.417c.598 0 1.083.485 1.083 1.083v4.334c0 .598-.485 1.083-1.083 1.083H16.25A3.25 3.25 0 0113 13z" stroke="#A6ACB7" stroke-width="2"/><path d="M16.25 13h.108" stroke="#A6ACB7" stroke-width="2" stroke-linecap="round"/></svg>