<svg width="179" height="105" fill="none" xmlns="http://www.w3.org/2000/svg"><path opacity=".4" d="M39.114 39.831L0 62.462l30.287 17.492h20.38L39.113 39.83z" fill="#50197C"/><path d="M50.652 79.953l72.63-41.943V27.02l-72.63 16.81v36.123z" fill="#D8D2B8"/><path d="M14.751 59.218l35.9 20.735V43.83l-35.9 4.399v10.99z" fill="#C4BEA3"/><path d="M123.283 27.02l-72.63 41.93-35.871-20.72L87.397 6.301l35.886 20.72z" fill="#FFF9E1"/><path d="M17.476 48.644L49.778 67.29l70.645-40.788L88.122 7.871 17.476 48.644zm96.046-25.06c1.525.874 1.495 2.311-.045 3.214l-63.21 36.493c-1.556.889-4.044.904-5.555.03L24.526 51.665c-1.526-.874-1.496-2.31.044-3.214l63.211-36.493c1.555-.888 4.043-.903 5.554-.03l20.187 11.657z" fill="#687A51"/><path d="M52.903 28.309c-7.035 4.058-5.54 11.522 3.303 16.632 8.856 5.11 21.771 5.969 28.791 1.91 7.035-4.057 5.54-11.522-3.303-16.631-8.841-5.11-21.756-5.969-28.791-1.911zm31.916 18.439c-6.93 3.999-19.683 3.14-28.436-1.91s-10.234-12.412-3.302-16.41c6.931-4 19.683-3.14 28.436 1.91s10.234 12.411 3.302 16.41z" fill="#A5AA9F"/><path d="M81.146 30.545c8.56 4.947 10.057 12.115 3.318 15.996-6.739 3.895-19.15 3.036-27.71-1.91-8.56-4.947-10.057-12.116-3.318-15.996 6.739-3.895 19.15-3.036 27.71 1.91z" fill="#A5AA9F"/><path d="M79.37 31.567c7.316 4.221 8.59 10.338 2.828 13.67-5.761 3.318-16.35 2.592-23.667-1.629-7.316-4.22-8.59-10.337-2.829-13.67 5.761-3.332 16.35-2.591 23.667 1.63z" fill="#FFF9E1"/><path d="M91.765 29.538l-2.429 1.392.948.548 2.43-1.407-.949-.533zm1.275-.74l.947.548 10.426-6.028-.947-.548-10.427 6.028zM45.009 56.523L42.58 57.93l.948.548 2.429-1.407-.948-.548zm1.289-.741l.933.548 10.426-6.013-.933-.548-10.426 6.013zm-19.831-5.82l1.303.74 12.589-7.271-1.289-.741-12.603 7.272z" fill="#687A51"/><path d="M77.444 20.534l1.288.74 12.604-7.257-1.303-.755-12.59 7.272z" fill="#A5AA9F"/><path d="M105.924 28.813l-2.829-1.63h-.089l-.992.785.148.09.371-.134c.148-.06.236-.06.414.044l2.237 1.289c.148.089.133.133.029.207l-.311.208.178.103 1.748-1.007-.178-.104-.356.178c-.133.045-.222.06-.37-.03zm-.488-3.037c-.919.534-.43 1.155.444 1.674.888.503 1.97.785 2.888.252.918-.534.444-1.155-.444-1.674-.889-.503-1.97-.77-2.888-.252zm3.11 1.807c-.4.237-1.348-.266-1.896-.577-.548-.311-1.407-.86-1.007-1.096.4-.237 1.348.266 1.896.577.548.311 1.407.86 1.007 1.096zm-.371-3.391c-.918.533-.429 1.155.444 1.673.889.504 1.97.785 2.888.252.919-.533.445-1.155-.444-1.674-.874-.503-1.955-.785-2.888-.251zm3.125 1.806c-.4.237-1.348-.266-1.896-.577-.548-.311-1.407-.86-1.007-1.096.4-.237 1.348.267 1.896.578.563.31 1.407.859 1.007 1.096z" fill="#687A51"/><path d="M81.843 14.461l-1.896-1.095c-.06 0-.71.533-.71.533l.103.059.251-.089c.104-.044.163-.044.282.03l1.496.859c.103.059.089.089.015.148l-.208.133.119.074 1.17-.681-.119-.074-.237.118c-.103.045-.163.045-.266-.015zm-.326-2.029c-.622.356-.296.77.296 1.126.592.34 1.318.533 1.94.178.622-.356.296-.77-.296-1.126-.607-.34-1.333-.533-1.94-.178zm2.088 1.215c-.267.163-.903-.178-1.274-.385-.37-.207-.933-.578-.666-.726.266-.163.903.178 1.274.385.355.208.933.563.666.726zm-.252-2.281c-.622.356-.296.77.296 1.126.593.34 1.319.533 1.94.177.623-.355.297-.77-.296-1.125-.592-.34-1.318-.533-1.94-.178zm2.089 1.215c-.267.162-.904-.178-1.274-.386-.37-.207-.933-.577-.667-.725.267-.163.904.178 1.274.385.37.207.933.563.666.726zM26.614 46.348l-1.895-1.096c-.06 0-.711.533-.711.533l.104.06.251-.09c.104-.044.163-.044.282.03l1.495.86c.104.059.09.088.015.147l-.207.134.119.074 1.17-.681-.119-.075-.237.119c-.104.044-.163.044-.267-.015zm-.326-2.028c-.622.355-.296.77.297 1.125.592.34 1.318.533 1.94.178.622-.356.296-.77-.296-1.126-.593-.34-1.333-.533-1.94-.178zm2.089 1.199c-.267.163-.904-.178-1.274-.385-.37-.208-.933-.578-.666-.726.266-.163.903.178 1.273.385.356.208.933.578.667.726zm-.252-2.266c-.622.355-.296.77.296 1.125.593.341 1.318.533 1.94.178.622-.355.296-.77-.296-1.125-.592-.341-1.318-.534-1.94-.178zm2.088 1.214c-.266.163-.903-.178-1.274-.385-.37-.207-.933-.578-.666-.726.267-.163.904.178 1.274.386.37.207.933.562.666.725zm22.794 18.321l.252.148c.192.118.192.296 0 .414l-2.355 1.363c-.208.118-.534.118-.726 0l-.252-.148c-.192-.104-.192-.281-.03-.4l.312-.222-2.889-1.674-.429.163c-.207.074-.474.06-.637-.03l-.207-.118c-.178-.104-.193-.267-.045-.385l1.319-1.052a.718.718 0 01.385-.118h.103a.84.84 0 01.4.089l3.718 2.147.37-.177a.8.8 0 01.71 0zm5.924-5.643c1.659.948 1.866 1.925.592 2.666-.933.533-2.073.607-3.273.237.637.696.519 1.347-.414 1.895-1.274.74-2.963.608-4.607-.34-1.658-.948-1.866-1.926-.592-2.666.933-.533 2.074-.607 3.273-.237-.637-.696-.518-1.348.415-1.896 1.273-.74 2.962-.622 4.606.34z" fill="#FFF9E1"/><path d="M51.644 63.217l-3.806-2.192h-.104l-1.318 1.052.207.118.49-.192c.206-.074.325-.074.547.059l2.992 1.733c.207.118.178.192.03.281l-.415.282.252.148 2.354-1.363-.251-.148-.49.237c-.162.089-.28.104-.488-.015zm-.651-4.073c-1.23.711-.593 1.555.592 2.237 1.185.681 2.651 1.051 3.88.34 1.23-.71.593-1.555-.592-2.236-1.185-.681-2.651-1.052-3.88-.34zm4.176 2.414c-.548.312-1.807-.355-2.547-.77-.74-.43-1.881-1.155-1.348-1.466.548-.311 1.807.355 2.547.77.756.43 1.896 1.155 1.348 1.466zm-.489-4.546c-1.229.71-.592 1.555.593 2.236 1.185.681 2.65 1.052 3.88.34 1.23-.71.593-1.554-.592-2.236-1.17-.681-2.636-1.051-3.88-.34zm4.192 2.414c-.548.31-1.807-.356-2.548-.77-.74-.43-1.88-1.156-1.347-1.467.548-.31 1.806.356 2.547.77.74.43 1.896 1.156 1.348 1.467zm27.947-38.359c-2.207 1.273-2.236 3.332-.074 4.576 2.177 1.259 5.717 1.23 7.923-.044 2.207-1.274 2.237-3.333.075-4.577-2.163-1.244-5.717-1.229-7.924.045zm7.435 4.295c-1.97 1.14-5.14 1.155-7.065.03-1.94-1.111-1.91-2.948.06-4.088 1.97-1.14 5.139-1.155 7.064-.03 1.925 1.126 1.91 2.947-.06 4.088zM40.047 48.066c-2.206 1.274-2.236 3.332-.074 4.576 2.178 1.26 5.717 1.23 7.924-.044 2.207-1.274 2.236-3.332.074-4.576-2.162-1.244-5.717-1.23-7.923.044zm7.435 4.295c-1.97 1.14-5.139 1.155-7.064.03-1.94-1.111-1.91-2.947.059-4.088 1.97-1.14 5.14-1.155 7.065-.03 1.94 1.126 1.91 2.948-.06 4.088z" fill="#A5AA9F"/><path d="M90.3 21.511c-.105.252-.415.43-.815.489l-.208.03c-.4.059-.71.236-.8.459l-.044.118c-.089.237-.4.415-.8.46-.4.058-.533.31-.266.458l2.043 1.17c.193.119.46.178.741.178l3.155-.015.118-.059.03-1.822c0-.163-.104-.31-.296-.43l-2.044-1.17c-.297-.147-.74-.073-.815.134zM43.513 48.525c-.104.252-.415.43-.815.49l-.207.029c-.4.059-.711.237-.8.459l-.044.118c-.09.237-.4.415-.8.46-.4.059-.533.31-.267.459l2.044 1.17c.193.118.46.177.74.177l3.155-.014.119-.06.03-1.821c0-.163-.104-.311-.297-.43l-2.044-1.17c-.296-.148-.74-.074-.814.133zm25.148-13.107l-1.57.43-5.095-2.933c.77-.31 2.03-.4 4.429.237.622.148 1.066.148 1.629-.163.474-.281 1.54-1.259.355-1.94-1.037-.592-4.147-.652-7.538 1.215l-1.97-1.14-1.407.814 1.97 1.14c-2.8 1.733-3.673 3.954-.563 5.746 2.296 1.333 5.243 1.082 8.338.252l1.777-.489 5.806 3.348c-.607.237-2 .503-5.228-.297-.77-.177-1.288-.162-1.896.178-.651.37-1.096 1.452-.03 2.074.845.488 3.925 1.036 8.295-1.304l2.562 1.481 1.407-.814-2.562-1.481c2.31-1.333 4.19-3.94.666-5.998-2.755-1.556-5.717-1.333-9.375-.356zm-3.525.918c-1.555.534-3.273.637-4.458-.044-1.229-.711-1.288-1.792-.089-2.577l4.547 2.621zM76.23 41.12l-5.332-3.08c1.881-.49 3.822-.43 5.332.43 1.452.843 1.333 1.88 0 2.65z" fill="#687A51"/><path d="M98.89 33.36l-6.177 3.569-.37-.223 6.176-3.569.37.222zM67.595 51.428l-6.176 3.57-.37-.208 6.176-3.57.37.208z" fill="#A5AA9F"/><path d="M59.034 22.666l-15.462 8.916 35.915 20.734L94.934 43.4l-35.9-20.734z" fill="#F9F8F2"/><path d="M94.935 54.464L79.473 63.38V52.317L94.935 43.4v11.063z" fill="#E5E2D8"/><path d="M93.231 44.378l-35.9-20.734 1.94-1.111 35.9 20.72V54.33l-1.94 1.125V44.379zm-14.055 8.116L43.261 31.76l1.94-1.111 35.9 20.735v11.078l-1.925 1.11V52.495z" fill="#788EFF"/><path d="M93.231 44.378l1.94-1.125V54.33l-1.94 1.125V44.379zm-14.055 8.116l1.925-1.11v11.078l-1.925 1.11V52.495z" fill="#576FD3"/><g opacity=".8" fill="#C4BEA3"><path opacity=".8" d="M53.895 49.206c-2.28-1.303-5.48-1.718-8.383-1.273-2.932-.444-6.19-.015-8.486 1.333-3.436 2-3.421 5.213.03 7.183 1.703.977 3.94 1.451 6.16 1.451h4.459c2.266 0 4.517-.489 6.25-1.496 3.436-2.014 3.42-5.228-.03-7.198z"/><path opacity=".8" d="M43.41 41.016c-2.282-1.303-5.48-1.718-8.383-1.273-2.933-.445-6.191-.015-8.487 1.333-3.436 1.999-3.421 5.213.03 7.183 1.703.977 3.94 1.451 6.16 1.451h4.459c2.266 0 4.517-.489 6.25-1.496 3.436-2.014 3.421-5.228-.03-7.198z"/></g><path opacity=".4" d="M140.462 46.556c-1.215-.075-2.518.148-3.54.74L79.354 80.605c-1.659.962-1.837 2.399-.4 3.228l34.479 19.861c.785.459 1.91.667 3.021.563l27.014-57.198c-.77-.459-1.896-.607-3.006-.503z" fill="#50197C"/><path d="M178.91 68.4c-.015.623-.459 1.274-1.348 1.793L119.994 103.5c-1.659.963-4.162 1.067-5.598.237l-34.479-19.86c-.71-.415-1.022-.963-.963-1.54.03-.326.045-.608.09-.993.073-.578.518-1.185 1.347-1.659l57.568-33.308c1.659-.963 4.162-1.067 5.598-.237L178.036 66c.607.356.933.815.963 1.319.014.4-.089.755-.089 1.08z" fill="#E0DBE1"/><path d="M137.944 46.392l-57.568 33.31c-1.66.962-1.837 2.398-.4 3.228l34.478 19.861c1.437.829 3.94.725 5.599-.237l57.568-33.309c1.659-.963 1.836-2.4.4-3.229l-34.479-19.86c-1.437-.83-3.94-.726-5.598.236z" fill="#788EFF"/><path d="M129.902 55.294c-.488.281-.799.651-.844 1.036-.044.37.163.726.593.963l2.28 1.303c.889.504 2.444.445 3.466-.148l8.264-4.784c.489-.28.8-.651.844-1.036.045-.385-.163-.726-.592-.963l-2.281-1.318c-.888-.504-2.444-.444-3.465.148l-8.265 4.799z" fill="#F0F2FF"/><path opacity=".4" d="M111.256 94.497c-.489.281-.8.651-.844 1.036-.045.37.163.726.592.963l4.369 2.518c.889.503 2.444.444 3.466-.148l9.005-5.213c.488-.282.799-.652.844-1.037.044-.385-.163-.726-.593-.963l-4.384-2.518c-.888-.503-2.443-.444-3.465.148l-8.99 5.214z" fill="#3452A5"/><path d="M127.518 93.756l-9.005 5.213c-.844.49-2.133.548-2.858.119l-4.384-2.518c-.741-.43-.637-1.155.207-1.644l9.005-5.213c.844-.489 2.132-.548 2.858-.118l4.384 2.517c.726.415.637 1.155-.207 1.644z" fill="#FFC440"/><path opacity=".6" d="M122.675 90.631l-2.829 1.644c-.903-.37-2.266-.281-3.199.252-.933.533-1.096 1.318-.444 1.836l-2.977 1.733L111.33 95c-.089.06-.163.119-.222.178l6.916 3.984c.104-.045.208-.074.311-.133l-1.718-.993 2.992-1.733c.904.341 2.222.237 3.125-.28.904-.52 1.081-1.29.489-1.808l2.843-1.644 1.704.978c.074-.06.148-.134.207-.193l-6.842-3.94a2.3 2.3 0 00-.341.12l1.881 1.095zm-3.318 5.584l-2.962 1.718-2.932-1.689 2.962-1.718 2.888 1.659c.015.015.029.015.044.03zm.533-.045l3.081-1.777c.474.444.296 1.081-.459 1.51-.755.445-1.851.534-2.622.267zm-.325-3.732l-3.096 1.792c-.518-.444-.37-1.096.4-1.555.785-.46 1.925-.548 2.696-.237zm3.154 1.777c.045.03-3.095 1.837-3.095 1.837-.045-.03-2.933-1.689-2.933-1.689l3.14-1.821 2.888 1.673zm.193-3.45l2.932 1.688-2.814 1.629c-.044-.03-2.932-1.688-2.932-1.688l2.814-1.63z" fill="#D88C1D"/><path d="M167.461 69.837c2.004 0 3.628-.941 3.628-2.103 0-1.161-1.624-2.103-3.628-2.103s-3.629.942-3.629 2.103c0 1.162 1.625 2.103 3.629 2.103z" fill="#F4AC1C"/><path d="M161.552 73.258c2.004 0 3.628-.941 3.628-2.103 0-1.161-1.624-2.103-3.628-2.103s-3.629.942-3.629 2.103c0 1.162 1.625 2.103 3.629 2.103z" fill="#B53333"/><path d="M99.585 88.173l-.547.326c-.252.148-.37.296-.37.474 0 .162.132.325.384.473l1.926 1.111a1.602 1.602 0 001.629 0l.548-.326c.252-.148.37-.296.385-.474 0-.163-.119-.325-.385-.474l-1.926-1.11a1.602 1.602 0 00-.814-.222 1.917 1.917 0 00-.83.222zm3.14 1.333c.326.177.326.37.015.548l-.459.266a.853.853 0 01-.933-.015l-1.881-1.096c-.326-.177-.326-.37-.015-.547l.46-.267c.31-.178.621-.178.947.015l1.866 1.096zm-.311-2.948l-.548.326c-.251.148-.37.296-.37.474 0 .163.133.326.385.474l1.926 1.11a1.602 1.602 0 001.629 0l.548-.325c.251-.148.37-.296.385-.474 0-.163-.119-.326-.385-.474l-1.926-1.11a1.602 1.602 0 00-.814-.223c-.311 0-.578.074-.83.222zm3.125 1.318c.326.178.326.37.015.548l-.459.267a.853.853 0 01-.933-.015l-1.881-1.096c-.326-.177-.326-.37-.015-.548l.459-.266c.311-.178.622-.178.948.014l1.866 1.096zm-.31-2.946l-.548.325c-.252.148-.371.296-.371.474 0 .163.134.326.385.474l1.926 1.11a1.602 1.602 0 001.629 0l.548-.325c.252-.148.37-.296.385-.474 0-.163-.119-.326-.385-.474l-1.926-1.11a1.602 1.602 0 00-.814-.223c-.311 0-.578.074-.829.222zm3.139 1.332c.326.178.326.37.015.548l-.459.267a.853.853 0 01-.933-.015l-1.881-1.096c-.326-.178-.326-.37-.015-.548l.459-.267c.311-.177.622-.177.948.015l1.866 1.096zm-.326-2.962l-.548.326c-.251.148-.37.296-.37.474 0 .163.133.326.385.474l1.925 1.11a1.608 1.608 0 001.63 0l.548-.325c.251-.148.37-.296.385-.474 0-.163-.134-.326-.385-.474l-1.926-1.11a1.605 1.605 0 00-.814-.223 1.62 1.62 0 00-.83.222zm3.14 1.333c.326.178.326.37.015.548l-.459.267a.853.853 0 01-.933-.015l-1.881-1.096c-.326-.178-.326-.37-.015-.548l.459-.267c.311-.177.622-.177.948.015l1.866 1.096zm3.732-5.303l-.548.327c-.252.148-.37.296-.37.474 0 .163.133.326.385.474l1.925 1.11a1.606 1.606 0 001.629 0l.548-.325c.252-.148.371-.297.385-.474 0-.163-.133-.326-.385-.474l-1.925-1.111a1.606 1.606 0 00-.815-.222 1.58 1.58 0 00-.829.222zm3.14 1.334c.326.178.326.37.015.548l-.459.266a.853.853 0 01-.933-.014l-1.881-1.096c-.326-.178-.326-.37-.015-.548l.459-.267c.311-.178.622-.178.948.015l1.866 1.096zm-.326-2.962l-.548.326c-.251.148-.37.296-.37.473 0 .163.133.326.385.474l1.926 1.111a1.602 1.602 0 001.629 0l.548-.326c.251-.148.37-.296.385-.474 0-.162-.134-.325-.385-.474l-1.926-1.11a1.605 1.605 0 00-.814-.222c-.311.014-.578.074-.83.222zm3.14 1.333c.326.177.326.37.015.548l-.459.266a.853.853 0 01-.933-.014l-1.881-1.096c-.326-.178-.326-.37-.015-.549l.459-.266c.311-.178.622-.178.948.015l1.866 1.096zm-.311-2.962l-.548.326c-.252.148-.37.296-.37.474 0 .162.133.325.385.473l1.925 1.111a1.608 1.608 0 001.629 0l.548-.326c.252-.148.371-.296.386-.474 0-.162-.134-.325-.386-.474l-1.925-1.11a1.605 1.605 0 00-.814-.222 1.92 1.92 0 00-.83.222zm3.125 1.333c.326.177.326.37.015.548l-.459.266a.853.853 0 01-.933-.015l-1.881-1.096c-.326-.177-.326-.37-.015-.547l.459-.267c.311-.178.622-.178.948.015l1.866 1.096zm-.311-2.962l-.548.325c-.252.148-.37.296-.37.474 0 .163.133.326.385.474l1.925 1.111a1.606 1.606 0 001.629 0l.548-.326c.252-.148.37-.296.385-.474 0-.163-.133-.326-.385-.474l-1.925-1.11a1.606 1.606 0 00-.815-.223 1.916 1.916 0 00-.829.222zm3.14 1.332c.326.178.326.37.015.548l-.46.267a.853.853 0 01-.933-.015l-1.881-1.096c-.325-.178-.325-.37-.014-.548l.459-.266c.311-.178.622-.178.948.014l1.866 1.096zm3.732-5.286l-.548.325c-.252.148-.37.296-.37.474 0 .163.133.326.385.474l1.925 1.11a1.608 1.608 0 001.63 0l.548-.325c.251-.148.37-.296.385-.474 0-.163-.134-.326-.385-.474l-1.926-1.11a1.605 1.605 0 00-.814-.223c-.311 0-.593.074-.83.222zm3.125 1.332c.326.178.326.37.015.548l-.459.267a.853.853 0 01-.933-.015l-1.881-1.096c-.326-.178-.326-.37-.015-.548l.459-.267c.311-.177.622-.177.948.015l1.866 1.096zm-.311-2.962l-.548.326c-.252.148-.37.296-.37.474 0 .163.133.326.385.474l1.925 1.11a1.606 1.606 0 001.629 0l.548-.325c.252-.148.371-.297.385-.474 0-.163-.133-.326-.385-.474l-1.925-1.111a1.606 1.606 0 00-.815-.222 1.58 1.58 0 00-.829.222zm3.14 1.333c.326.178.326.37.015.548l-.46.266a.853.853 0 01-.933-.014l-1.881-1.096c-.325-.178-.325-.37-.014-.548l.459-.267c.311-.178.622-.178.948.015l1.866 1.096zm-.326-2.963l-.548.326c-.252.149-.37.297-.37.475 0 .162.133.325.385.473l1.925 1.111a1.606 1.606 0 001.629 0l.548-.326c.252-.148.37-.296.385-.474 0-.162-.133-.325-.385-.474l-1.925-1.11a1.606 1.606 0 00-.815-.222 1.62 1.62 0 00-.829.222zm3.14 1.334c.326.177.326.37.015.548l-.46.266a.853.853 0 01-.933-.015l-1.881-1.096c-.325-.177-.325-.37-.014-.548l.459-.266c.311-.178.622-.178.948.015l1.866 1.096zm-.311-2.962l-.548.325c-.252.149-.37.297-.37.474 0 .163.133.326.385.474l1.925 1.111a1.606 1.606 0 001.629 0l.548-.326c.252-.148.371-.296.385-.474 0-.163-.133-.326-.385-.474l-1.925-1.11a1.606 1.606 0 00-.815-.223 1.58 1.58 0 00-.829.223zm3.125 1.333c.326.177.326.37.015.548l-.459.266a.853.853 0 01-.933-.015l-1.881-1.096c-.326-.177-.326-.37-.015-.548l.459-.266c.311-.178.622-.178.948.015l1.866 1.096zm3.732-5.302l-.548.325c-.252.148-.37.297-.37.474 0 .163.133.326.385.474l1.925 1.111a1.606 1.606 0 001.629 0l.548-.326c.252-.148.37-.296.385-.474 0-.163-.118-.326-.385-.474l-1.925-1.11a1.606 1.606 0 00-.815-.223 1.976 1.976 0 00-.829.223zm3.14 1.332c.326.178.326.37.015.548l-.46.267a.853.853 0 01-.933-.015l-1.881-1.096c-.325-.177-.325-.37-.014-.548l.459-.266c.311-.178.622-.178.948.015l1.866 1.096zm-.311-2.962l-.548.326c-.252.148-.37.296-.37.474 0 .163.133.326.385.474l1.925 1.11a1.606 1.606 0 001.629 0l.548-.325c.252-.148.371-.296.385-.474 0-.163-.118-.326-.385-.474l-1.925-1.11a1.606 1.606 0 00-.815-.223 1.916 1.916 0 00-.829.222zm3.125 1.333c.326.178.326.37.015.548l-.459.267a.853.853 0 01-.933-.015l-1.881-1.081c-.326-.178-.326-.37-.015-.548l.459-.267c.311-.178.622-.178.948.015l1.866 1.081zm-.311-2.947l-.548.326c-.252.148-.37.296-.37.474 0 .163.133.326.385.474l1.925 1.11a1.606 1.606 0 001.629 0l.548-.325c.252-.148.371-.297.385-.474 0-.163-.118-.326-.385-.474l-1.925-1.111a1.606 1.606 0 00-.815-.222 1.58 1.58 0 00-.829.222zm3.14 1.318c.326.178.326.37.015.548l-.46.267a.853.853 0 01-.933-.015l-1.88-1.096c-.326-.178-.326-.37-.015-.548l.459-.267c.311-.177.622-.177.948.015l1.866 1.096zm.488-3.169c-.296 0-.563.074-.814.222l-.548.326c-.252.148-.371.296-.371.474 0 .162.134.325.386.474l1.925 1.11a1.605 1.605 0 001.629 0l.548-.325c.252-.149.37-.297.385-.474 0-.163-.118-.326-.385-.474l-1.925-1.111a1.66 1.66 0 00-.83-.222zm2.326 1.54c.325.178.325.37.014.548l-.459.267a.853.853 0 01-.933-.015l-1.881-1.096c-.326-.178-.326-.37-.015-.548l.46-.267c.311-.178.622-.178.947.015l1.867 1.096z" fill="#F4A9FF"/><path d="M152.947 57.47c0 .178.133.341.4.49l1.985 1.155c.266.148.547.237.844.237.296 0 .563-.074.814-.222l.548-.326c.252-.148.371-.297.371-.474 0-.178-.134-.326-.4-.489l-1.985-1.155a1.906 1.906 0 00-.844-.237 1.67 1.67 0 00-.815.207l-.548.326c-.251.163-.37.311-.37.489zm.815.267c-.326-.192-.341-.37-.03-.562l.459-.267c.311-.178.622-.163.963.03l1.955 1.125c.326.193.34.37.044.548l-.459.267c-.311.178-.637.178-.963-.015l-1.969-1.126zm-3.643 1.363c0 .178.133.34.4.489l1.984 1.155c.267.148.548.237.844.237.297 0 .563-.074.815-.222l.548-.326c.252-.148.37-.296.37-.474s-.133-.326-.4-.489l-1.984-1.155a1.907 1.907 0 00-.845-.237c-.296 0-.577.074-.814.207l-.548.326c-.252.163-.37.326-.37.489zm.829.267c-.326-.193-.341-.37-.03-.563l.46-.267c.311-.178.622-.163.962.03l1.955 1.125c.326.193.341.37.045.548l-.459.267c-.311.178-.637.178-.963-.015l-1.97-1.125zm-3.658 1.363c0 .177.133.34.4.488l1.984 1.155c.267.148.548.237.844.237.297 0 .563-.074.815-.222l.548-.326c.252-.148.37-.296.37-.474s-.133-.326-.4-.489l-1.984-1.155a1.906 1.906 0 00-.844-.237c-.297 0-.578.074-.815.207l-.548.326c-.252.163-.37.326-.37.49zm.829.266c-.326-.193-.34-.37-.029-.563l.459-.267c.311-.177.622-.163.962.015l1.955 1.126c.326.192.341.37.045.548l-.459.266c-.311.178-.637.178-.963-.015l-1.97-1.11zm-3.644 1.362c0 .178.134.34.4.489l1.985 1.155c.267.148.548.237.844.237.296 0 .563-.074.815-.222l.548-.326c.251-.148.37-.296.37-.474s-.133-.326-.4-.489l-1.985-1.155a1.903 1.903 0 00-.844-.237c-.296 0-.577.074-.814.208l-.548.326c-.252.162-.385.325-.371.488zm.815.267c-.326-.193-.341-.37-.03-.563l.46-.267c.311-.177.622-.163.962.015l1.955 1.126c.326.192.341.37.045.548l-.459.266c-.312.178-.637.178-.963-.014l-1.97-1.111zm-7.701 3.717c0 .178.133.34.4.489l1.985 1.155c.266.148.548.237.844.237.296 0 .563-.074.814-.222l.548-.326c.252-.148.371-.296.371-.474 0-.177-.134-.326-.4-.488l-1.985-1.156a1.731 1.731 0 00-.844-.237 1.66 1.66 0 00-.815.208l-.548.325c-.251.163-.37.312-.37.49zm.815.267c-.326-.193-.341-.37-.03-.563l.459-.267c.311-.177.622-.162.963.03l1.955 1.126c.326.192.34.37.044.548l-.459.266c-.311.178-.637.178-.963-.015l-1.969-1.125zm-3.644 1.362c0 .178.133.341.4.49l1.984 1.154c.267.148.548.237.845.237.296 0 .562-.074.814-.222l.548-.326c.252-.148.37-.296.37-.474 0-.177-.133-.325-.399-.488l-1.985-1.156a1.906 1.906 0 00-.844-.237 1.67 1.67 0 00-.815.208l-.548.326c-.252.162-.37.31-.37.488zm.815.267c-.326-.193-.341-.37-.03-.563l.459-.266c.311-.178.622-.163.963.03l1.955 1.125c.326.192.34.37.044.548l-.459.266c-.311.178-.637.178-.963-.014l-1.969-1.126zm-3.644 1.362c0 .178.133.341.4.49l1.985 1.154c.266.149.548.237.844.237.296 0 .563-.074.814-.222l.548-.326c.252-.148.371-.296.371-.474 0-.177-.134-.325-.4-.488l-1.985-1.155a1.903 1.903 0 00-.844-.237 1.67 1.67 0 00-.815.207l-.548.326c-.251.163-.37.326-.37.489zm.815.267c-.326-.192-.341-.37-.03-.563l.459-.266c.311-.178.622-.163.963.014l1.955 1.126c.326.193.341.37.044.548l-.459.267c-.311.177-.637.177-.962-.015l-1.97-1.11zm-3.643 1.363c0 .177.133.34.399.488l1.985 1.156c.267.148.548.237.844.237.296 0 .563-.075.815-.223l.548-.325c.252-.148.37-.297.37-.474 0-.178-.133-.326-.4-.49l-1.984-1.154a1.732 1.732 0 00-.845-.237c-.296 0-.577.074-.814.207l-.548.326c-.252.163-.37.326-.37.489zm.829.266c-.326-.192-.341-.37-.03-.563l.459-.266c.311-.178.622-.163.963.015l1.955 1.125c.326.193.341.37.045.548l-.46.267c-.311.178-.636.178-.962-.015l-1.97-1.11zm-7.701 3.718c0 .177.133.34.399.488l1.985 1.156c.267.148.548.236.844.236.296 0 .563-.074.815-.222l.548-.326c.252-.148.37-.296.37-.473 0-.178-.133-.326-.4-.49l-1.984-1.154a1.907 1.907 0 00-.845-.237c-.296 0-.577.074-.814.207l-.548.326c-.252.148-.385.31-.37.489zm.814.266c-.326-.192-.34-.37-.029-.563l.459-.266c.311-.178.622-.163.962.03l1.955 1.125c.326.193.341.37.045.548l-.459.267c-.311.177-.637.177-.963-.015l-1.97-1.126zm-3.643 1.363c0 .177.133.34.4.489l1.984 1.155c.267.148.548.237.844.237.297 0 .563-.074.815-.223l.548-.325c.252-.148.37-.297.37-.474 0-.178-.133-.326-.4-.489l-1.984-1.155a1.907 1.907 0 00-.844-.237c-.297 0-.578.074-.815.207l-.548.326c-.252.163-.385.311-.37.489zm.814.266c-.326-.192-.34-.37-.029-.563l.459-.266c.311-.178.622-.163.963.03l1.955 1.125c.325.193.34.37.044.548l-.459.267c-.311.177-.637.177-.963-.015l-1.97-1.126zm-3.643 1.363c0 .178.133.34.4.489l1.984 1.155c.267.148.548.237.844.237.297 0 .563-.074.815-.222l.548-.326c.252-.148.37-.296.37-.474s-.133-.326-.4-.489l-1.984-1.155a1.906 1.906 0 00-.844-.237c-.297 0-.578.074-.815.207l-.548.326c-.252.163-.37.311-.37.489zm.814.267c-.325-.193-.34-.37-.029-.563l.459-.267c.311-.178.622-.163.962.03l1.955 1.125c.326.193.341.37.045.548l-.459.267c-.311.178-.637.178-.963-.015l-1.97-1.125zm-3.643 1.362c0 .178.134.34.4.489l1.985 1.155c.266.148.548.237.844.237.296 0 .563-.074.815-.222l.548-.326c.251-.148.37-.296.37-.474s-.133-.326-.4-.489l-1.985-1.155a1.903 1.903 0 00-.844-.237c-.296 0-.577.074-.814.208l-.548.325c-.252.163-.371.326-.371.49zm.815.267c-.326-.193-.341-.37-.03-.563l.459-.267c.311-.177.623-.163.963.015l1.955 1.126c.326.192.341.37.045.548l-.46.266c-.311.178-.636.178-.962-.014l-1.97-1.111zm-7.702 3.717c0 .178.134.34.4.489l1.985 1.155c.266.148.548.237.844.237.296 0 .563-.074.815-.222l.548-.326c.251-.148.37-.296.37-.474s-.133-.326-.4-.489l-1.985-1.155a1.903 1.903 0 00-.844-.237c-.296 0-.577.074-.814.207l-.548.326c-.252.148-.371.311-.371.489zm.83.252c-.326-.193-.341-.37-.03-.563l.459-.267c.311-.177.622-.163.963.03l1.955 1.126c.326.192.341.37.044.548l-.459.266c-.311.178-.637.178-.962-.015l-1.97-1.125zm-3.644 1.377c0 .178.134.34.4.489l1.985 1.155c.266.148.548.237.844.237.296 0 .563-.074.815-.222l.548-.326c.251-.148.37-.296.37-.474 0-.177-.133-.326-.4-.489l-1.985-1.155a1.728 1.728 0 00-.844-.237c-.296 0-.577.074-.814.208l-.548.325c-.252.149-.385.312-.371.49zm.815.267c-.326-.193-.341-.37-.03-.563l.459-.267c.311-.177.622-.162.963.03l1.955 1.126c.326.192.341.37.044.548l-.459.266c-.311.178-.636.178-.962-.015l-1.97-1.125zm-3.644 1.362c0 .178.134.341.4.49l1.985 1.154c.267.148.548.237.844.237.296 0 .563-.074.815-.222l.548-.326c.252-.148.37-.296.37-.474 0-.177-.133-.325-.4-.488l-1.984-1.156a1.907 1.907 0 00-.845-.237c-.296 0-.577.075-.814.208l-.548.326c-.252.163-.385.31-.371.488zm.815.267c-.326-.192-.341-.37-.03-.563l.46-.266c.311-.178.622-.163.962.03l1.955 1.125c.326.192.341.37.045.548l-.459.266c-.311.178-.637.178-.963-.014l-1.97-1.126zm-3.243 1.851l1.984 1.155c.267.148.548.237.844.237.297 0 .563-.074.815-.222l.548-.326c.252-.148.37-.296.37-.474 0-.177-.133-.325-.4-.488l-1.984-1.156a1.73 1.73 0 00-.844-.236c-.297 0-.578.074-.815.207l-.548.326c-.252.148-.37.296-.37.474 0 .192.133.355.4.503zm.414-.222c-.326-.193-.34-.37-.03-.563l.46-.266c.31-.178.622-.163.962.014l1.955 1.126c.326.193.341.37.045.548l-.459.267c-.311.177-.637.177-.963-.015l-1.97-1.11zm-8.945-6.132l-.534.311a1.441 1.441 0 01-.725.193 1.51 1.51 0 01-.74-.207l-1.6-.933c-.237-.134-.356-.282-.37-.43 0-.148.103-.281.34-.415l.533-.31c.222-.134.474-.193.726-.193s.503.074.74.207l.237.133c.06.03.06.06 0 .104l-.296.163a.16.16 0 01-.163 0l-.207-.118c-.237-.134-.474-.149-.696-.015l-.4.237c-.222.133-.222.266.015.4l1.57.903c.237.133.474.148.696.015l.4-.237c.222-.133.222-.267-.015-.4l-.208-.118c-.059-.03-.059-.06-.014-.09l.296-.162c.06-.03.118-.03.178 0l.237.133c.237.133.355.281.355.43-.03.118-.133.266-.355.4zm1.673-.977l-.296.163a.16.16 0 01-.163 0l-2.932-1.689c-.06-.03-.06-.059 0-.088l1.096-.637a1.42 1.42 0 01.74-.193c.267 0 .518.074.74.208l.4.237c.37.207.46.43.252.666.015.015 1.66.37 1.66.37.103.015.103.045.029.09l-.296.162c-.075.044-.149.06-.223.03l-1.614-.356-.474.267c-.044.015-.044.044-.015.06l1.067.606c.074.045.074.074.03.104zm-1.451-.977l.592-.341c.237-.133.222-.267 0-.4l-.4-.237a.656.656 0 00-.696 0l-.592.34c-.03.016-.03.045 0 .06l1.022.592s.044 0 .074-.014zm5.169-1.171l-1.496.86a.16.16 0 01-.163 0l-2.933-1.689c-.059-.03-.059-.06 0-.089l1.496-.859c.045-.03.104-.03.163 0l.252.148c.06.03.06.06.015.09l-1.067.606c-.044.015-.044.045-.014.06l.814.474c.03.014.074.014.104 0l.903-.519c.06-.03.119-.03.163 0l.252.148c.06.03.06.06 0 .09l-.903.517c-.045.015-.045.045-.015.06l.859.489c.03.014.074.014.103 0l1.067-.608c.044-.03.103-.03.163 0l.251.148c.03.015.03.045-.014.074zm.592-.429l-2.932-1.688c-.06-.03-.06-.06 0-.09l1.14-.666c.222-.133.474-.192.726-.192.266 0 .503.074.74.207l1.6.933c.237.133.355.282.355.43 0 .148-.103.296-.34.43l-1.14.666c-.045 0-.105 0-.149-.03zm.163-.474l.652-.385c.222-.133.222-.267-.015-.4l-1.57-.903c-.237-.134-.474-.148-.696-.015l-.652.385c-.03.015-.03.044 0 .06l2.177 1.258c.045.015.074.015.104 0zm-.044-2.992l2.932 1.689c.06.03.06.059 0 .089l-.296.162a.16.16 0 01-.163 0l-2.933-1.688c-.059-.03-.059-.06 0-.089l.297-.163a.16.16 0 01.163 0zm4.546.859l-.296.163c-.059.03-.119.03-.163 0l-2.562-1.48a.094.094 0 00-.089 0l-.592.34c-.06.03-.119.03-.163 0l-.252-.148c-.06-.03-.06-.06 0-.09l1.733-.991a.16.16 0 01.163 0l.251.148c.06.03.06.059 0 .089l-.592.34c-.03.015-.03.045 0 .06l2.562 1.48c.045.03.045.06 0 .09zm3.525-2.029l-.548.311a1.442 1.442 0 01-.726.193c-.252 0-.503-.074-.74-.208l-1.6-.933c-.237-.133-.355-.281-.37-.43-.015-.147.104-.28.34-.414l.548-.31c.223-.134.474-.193.726-.193s.504.074.741.207l.237.133c.059.03.059.06 0 .104l-.297.163a.158.158 0 01-.162 0l-.208-.119c-.237-.133-.474-.148-.696-.015l-.4.237c-.222.134-.222.267.015.4l1.57.904c.237.133.474.148.696.015l.4-.237c.222-.134.222-.267-.015-.4l-.207-.119c-.059-.03-.059-.059-.015-.089l.296-.163a.19.19 0 01.178 0l.237.134c.237.133.355.281.355.43-.015.118-.133.266-.355.4zm1.467-.844l-.341.193c-.045.03-.089.014-.133-.015l-2.118-2.163c-.045-.044-.03-.073.029-.118l.459-.267c.06-.03.134-.044.193-.014l3.747 1.229c.074.03.074.044.03.074l-.326.192c-.03.015-.059.03-.074.03a.207.207 0 01-.089-.03l-.8-.266-1.022.592.445.46c.044.044.044.073 0 .103zm-1.881-1.97l1.125 1.126.844-.489-1.955-.651-.014.014zm4.635.371l-.296.162a.16.16 0 01-.163 0l-2.933-1.688c-.059-.03-.059-.06 0-.089l1.096-.637a1.42 1.42 0 01.741-.192c.266 0 .518.074.74.207l.4.237c.37.208.459.43.252.667.015.014 1.659.37 1.659.37.103.015.103.044.029.089l-.296.163c-.074.044-.148.059-.222.03l-1.614-.356-.445.267c-.044.014-.044.044-.014.059l1.066.607c.059.044.059.074 0 .104zm-1.437-.993l.593-.34c.237-.134.222-.267 0-.4l-.4-.237a.656.656 0 00-.696 0l-.593.34c-.029.015-.029.045 0 .06l1.022.592c0 .015.045.015.074-.015zm3.51-.296l-2.932-1.688c-.059-.03-.059-.06 0-.09l1.14-.666c.222-.133.474-.192.726-.192.267 0 .503.074.74.207l1.6.933c.237.134.355.282.355.43 0 .148-.103.296-.34.43l-1.141.666c-.029 0-.088 0-.148-.03zm.178-.489l.652-.385c.222-.133.222-.266-.015-.4l-1.57-.903c-.237-.133-.474-.148-.696-.015l-.652.385c-.029.015-.029.045 0 .06l2.177 1.258c.045.03.074.03.104 0z" fill="#F0F2FF"/><path d="M67.328 7.93c-4.961 2.888-8.042 9.02-8.071 17.743l-.03 12.218 10.441-6.087V19.63c.03-8.723 3.11-14.87 8.072-17.743L67.328 7.93z" fill="#7621D8"/><path d="M124.511 44.763c-2.281-13.077-10.574-30.716-27.029-40.98-7.686-4.443-14.707-4.828-19.727-1.91L67.343 7.915c5.036-2.918 11.952-2.488 19.639 1.955 13.359 7.716 24.481 25.015 27.029 40.98l-3.614 2.104s7.464 8.353 10.5 13.196c0 0 6.547-20.01 7.302-23.534l-3.688 2.147z" fill="url(#paint0_linear_108_15888)"/><path d="M43.676 38.188a13.547 13.547 0 00-7.33.03c-3.378.977-5.08 2.784-5.11 4.59a30.78 30.78 0 00.014 2.03c.045 1.806 1.763 3.613 5.154 4.561 2.4.667 4.947.652 7.331-.03 3.377-.977 5.08-2.784 5.11-4.59.015-.682.015-1.349-.015-2.03-.044-1.821-1.762-3.614-5.154-4.561z" fill="url(#paint1_linear_108_15888)"/><path opacity=".2" d="M32.05 45l.014 1.926a3.91 3.91 0 01-.622-1.096l-.015-1.881c.134.355.356.71.622 1.051zm4.502 2.518l.014 1.925c.208.06.415.104.622.149l-.014-1.955a9.136 9.136 0 01-.622-.119zm2.562.37l.015 1.985c.207.015.414.015.622.015l-.015-1.97c-.222-.015-.415-.03-.622-.03zm-1.289-.133l.015 1.97.622.089-.015-1.955c-.207-.03-.414-.074-.622-.104zm-5.11-2.059l.016 1.896c.192.163.4.326.622.474l-.015-1.94c-.208-.133-.444-.267-.622-.43zm2.563 1.437l.015 1.91c.192.075.415.134.622.208l-.015-1.925c-.207-.074-.43-.119-.622-.193zm-1.274-.578l.015 1.911c.193.104.4.207.622.296l-.015-1.925a6.062 6.062 0 01-.622-.282zm6.384 1.348l.014 1.97c.208 0 .415-.015.622-.03l-.014-1.984c-.208.03-.415.044-.622.044zm6.368-1.836l.015 1.94c.222-.163.43-.326.622-.489l-.015-1.896c-.178.148-.415.297-.622.445zm-5.095 1.762l.015 1.955.622-.089-.015-1.97c-.207.045-.414.09-.622.104zm6.369-2.932l.014 1.925c.282-.37.49-.74.608-1.14l-.015-1.866c-.118.385-.34.74-.607 1.08zm-2.548 1.895l.015 1.926c.208-.104.43-.208.622-.311l-.015-1.91c-.192.103-.414.192-.622.295zm-1.273.49l.014 1.925c.208-.075.43-.134.623-.208l-.015-1.91c-.193.074-.415.133-.622.192zm-1.274.34l.015 1.955c.207-.045.414-.104.622-.148l-.015-1.94-.622.133z" fill="url(#paint2_linear_108_15888)"/><path d="M46.238 39.225c3.45 1.97 3.466 5.183.03 7.183-3.437 2-9.005 2.029-12.456.059-3.45-1.97-3.466-5.184-.03-7.183 3.436-2 9.005-2.029 12.456-.06z" fill="#FFCE45"/><path d="M45.675 39.55c3.14 1.792 3.155 4.725.03 6.546-3.125 1.822-8.205 1.837-11.345.045-3.14-1.792-3.155-4.725-.03-6.546 3.14-1.822 8.205-1.837 11.345-.045z" fill="#FFCE45"/><path opacity=".6" d="M34.493 40.024c3.036-1.777 7.983-1.792 11.034-.044 2.221 1.274 2.828 3.125 1.821 4.724 1.304-1.703.74-3.761-1.673-5.139-3.14-1.792-8.22-1.777-11.345.044-2.414 1.407-2.947 3.466-1.63 5.154-1.006-1.599-.414-3.45 1.793-4.739z" fill="#E0890B"/><path d="M43.631 35.27a13.547 13.547 0 00-7.33.03c-3.378.977-5.08 2.784-5.11 4.59-.015.682-.015 1.349.014 2.03.045 1.807 1.763 3.614 5.154 4.561 2.4.667 4.947.652 7.332-.03 3.376-.977 5.08-2.784 5.11-4.59a31.23 31.23 0 00-.016-2.03c-.044-1.821-1.762-3.628-5.154-4.561z" fill="url(#paint3_linear_108_15888)"/><path opacity=".2" d="M32.02 42.068l.015 1.925a3.91 3.91 0 01-.622-1.096l-.015-1.88c.134.355.356.71.622 1.051zm4.503 2.518l.014 1.925c.208.06.415.104.622.148l-.014-1.955c-.208-.03-.415-.059-.622-.118zm2.547.37l.015 1.985c.207.014.414.014.622.014l-.015-1.97c-.207 0-.415-.014-.622-.029zm-1.274-.133l.015 1.97.622.088-.015-1.955c-.207-.03-.414-.074-.622-.103zm-5.11-2.059l.016 1.896c.192.163.4.326.622.474l-.015-1.94c-.208-.134-.445-.267-.622-.43zm2.563 1.451l.015 1.911c.192.074.414.133.622.207l-.015-1.925c-.207-.074-.43-.133-.622-.193zm-1.289-.592l.015 1.91c.193.104.4.208.622.297l-.015-1.925c-.207-.09-.414-.178-.622-.282zm6.398 1.363l.015 1.97c.208 0 .415-.015.622-.03l-.014-1.985-.623.045zm6.369-1.852l.015 1.94c.222-.162.43-.325.622-.488l-.015-1.896c-.178.163-.415.296-.622.444zm-5.095 1.778l.015 1.955.622-.09-.015-1.97c-.207.03-.414.075-.622.105zm6.369-2.933l.015 1.925c.28-.37.488-.74.607-1.14l-.015-1.866c-.119.37-.34.726-.607 1.081zm-2.548 1.881l.015 1.925c.207-.103.43-.207.622-.31l-.015-1.911c-.192.103-.414.192-.622.296zm-1.273.489l.014 1.925c.208-.074.43-.133.622-.207l-.014-1.91a10.8 10.8 0 01-.622.192zm-1.274.34l.015 1.955c.207-.044.414-.103.622-.148l-.015-1.94-.622.133z" fill="url(#paint4_linear_108_15888)"/><path d="M46.209 36.306c3.45 1.97 3.465 5.184.03 7.184-3.437 1.999-9.005 2.029-12.456.059-3.451-1.97-3.466-5.184-.03-7.183 3.436-2.015 9.005-2.044 12.456-.06z" fill="#FFCE45"/><path d="M45.646 36.618c3.14 1.792 3.154 4.724.03 6.546-3.126 1.822-8.206 1.837-11.345.044-3.14-1.792-3.155-4.724-.03-6.546 3.125-1.821 8.205-1.836 11.345-.044z" fill="#FFCE45"/><path opacity=".6" d="M34.464 37.092c3.036-1.777 7.983-1.792 11.034-.045 2.221 1.274 2.828 3.125 1.821 4.725 1.304-1.703.74-3.762-1.673-5.14-3.14-1.791-8.22-1.777-11.345.045-2.414 1.407-2.947 3.466-1.63 5.154-1.006-1.585-.414-3.45 1.793-4.74z" fill="#E0890B"/><path d="M43.661 32.945a13.545 13.545 0 00-7.33.03c-3.378.977-5.08 2.784-5.11 4.59a31.23 31.23 0 00.014 2.03c.045 1.821 1.763 3.613 5.154 4.561 2.4.667 4.947.652 7.332-.03 3.376-.977 5.08-2.784 5.11-4.59a31.23 31.23 0 00-.016-2.03c-.059-1.806-1.777-3.613-5.154-4.561z" fill="url(#paint5_linear_108_15888)"/><path opacity=".2" d="M32.034 39.758l.015 1.925a3.91 3.91 0 01-.622-1.096l-.015-1.88c.134.355.356.71.622 1.05zm4.503 2.517l.015 1.926c.207.059.414.103.622.148l-.015-1.955c-.207-.03-.415-.06-.622-.119zm2.562.37l.015 1.985c.207.015.415.015.622.015l-.015-1.97c-.222 0-.415-.015-.622-.03zm-1.289-.133l.015 1.97.622.089-.015-1.955c-.207-.03-.414-.074-.622-.104zm-5.11-2.058l.016 1.895c.192.163.4.326.622.474l-.015-1.94c-.207-.133-.444-.266-.622-.43zm2.563 1.436l.015 1.91c.192.075.415.134.622.208l-.015-1.925c-.207-.06-.43-.119-.622-.193zm-1.288-.577l.014 1.91c.193.104.4.208.622.296l-.014-1.925a11.793 11.793 0 01-.622-.281zm6.398 1.362l.015 1.97c.207 0 .414-.015.622-.03l-.015-1.984-.622.044zm6.368-1.851l.015 1.94c.222-.163.43-.326.622-.489l-.015-1.895c-.178.162-.414.296-.622.444zM41.646 42.6l.015 1.955.622-.089-.015-1.97c-.207.03-.414.075-.622.104zm6.369-2.947l.015 1.925c.281-.37.488-.74.607-1.14l-.015-1.866c-.118.385-.34.74-.607 1.08zm-2.548 1.896l.015 1.925c.208-.104.43-.207.622-.311l-.014-1.91c-.193.103-.415.192-.623.296zm-1.273.488l.015 1.926c.207-.074.43-.134.622-.208l-.015-1.91c-.193.074-.415.133-.622.192zm-1.274.341l.015 1.955c.207-.044.414-.104.622-.148l-.015-1.94-.622.133z" fill="url(#paint6_linear_108_15888)"/><path d="M46.223 33.982c3.45 1.97 3.466 5.184.03 7.183-3.436 2-9.005 2.029-12.456.06-3.45-1.97-3.465-5.184-.03-7.184 3.436-2 9.005-2.029 12.456-.059z" fill="#FFCE45"/><path d="M45.66 34.307c3.14 1.793 3.155 4.725.03 6.547-3.125 1.821-8.205 1.836-11.345.044-3.14-1.792-3.154-4.724-.03-6.546 3.14-1.822 8.205-1.836 11.345-.044z" fill="#FFCE45"/><path opacity=".6" d="M34.478 34.781c3.036-1.777 7.983-1.792 11.034-.044 2.222 1.274 2.829 3.125 1.822 4.724 1.303-1.703.74-3.761-1.674-5.139-3.14-1.792-8.22-1.777-11.345.045-2.414 1.407-2.947 3.465-1.629 5.154-1.007-1.6-.414-3.451 1.792-4.74z" fill="#E0890B"/><path d="M43.676 30.634a13.545 13.545 0 00-7.33.03c-3.378.977-5.08 2.784-5.11 4.591-.015.681-.015 1.348.014 2.03.045 1.806 1.763 3.613 5.154 4.56 2.4.667 4.947.652 7.331-.029 3.377-.977 5.08-2.784 5.11-4.591.015-.681.015-1.348-.015-2.03-.044-1.82-1.762-3.613-5.154-4.56z" fill="url(#paint7_linear_108_15888)"/><path opacity=".2" d="M32.05 37.447l.014 1.925a3.91 3.91 0 01-.622-1.096l-.015-1.88c.134.355.356.71.622 1.051zm4.502 2.518l.014 1.925c.208.06.415.104.622.148l-.014-1.955a4.603 4.603 0 01-.622-.118zm2.562.37l.015 1.985c.207.014.414.014.622.014l-.015-1.97c-.222 0-.415-.029-.622-.029zm-1.289-.133l.015 1.97.622.088-.015-1.955c-.207-.03-.414-.074-.622-.103zm-5.11-2.059l.016 1.896c.192.163.4.326.622.474l-.015-1.94c-.208-.134-.444-.267-.622-.43zm2.563 1.437l.015 1.91c.192.074.415.134.622.208l-.015-1.926c-.207-.059-.43-.118-.622-.192zm-1.274-.578l.015 1.91c.193.104.4.208.622.297l-.015-1.926a6.02 6.02 0 01-.622-.28zm6.384 1.363l.014 1.97c.208 0 .415-.015.622-.03l-.014-1.985-.622.045zm6.368-1.852l.015 1.94c.222-.162.43-.325.622-.488l-.015-1.896c-.178.148-.415.296-.622.444zm-5.095 1.763l.015 1.955.622-.09-.015-1.969a4.531 4.531 0 01-.622.104zm6.369-2.933l.014 1.926c.282-.37.49-.74.608-1.14l-.015-1.867c-.118.385-.34.74-.607 1.081zm-2.548 1.896l.015 1.925c.208-.103.43-.207.622-.31l-.015-1.911c-.192.104-.414.192-.622.296zm-1.273.489l.014 1.925c.208-.074.43-.133.623-.207l-.015-1.91c-.193.073-.415.133-.622.192zm-1.274.34l.015 1.955c.207-.044.414-.103.622-.148l-.015-1.94-.622.133z" fill="url(#paint8_linear_108_15888)"/><path d="M46.238 31.671c3.45 1.97 3.466 5.184.03 7.183-3.437 2-9.005 2.03-12.456.06-3.45-1.97-3.466-5.184-.03-7.184 3.436-1.999 9.005-2.029 12.456-.059z" fill="#FFCE45"/><path d="M45.675 31.997c3.14 1.792 3.155 4.724.03 6.546s-8.205 1.837-11.345.044c-3.14-1.792-3.155-4.724-.03-6.546 3.14-1.821 8.205-1.836 11.345-.044z" fill="#FFCE45"/><path opacity=".6" d="M34.493 32.47c3.036-1.776 7.983-1.791 11.034-.044 2.221 1.274 2.828 3.125 1.821 4.725 1.304-1.703.74-3.762-1.673-5.14-3.14-1.791-8.22-1.777-11.345.045-2.414 1.407-2.947 3.466-1.63 5.154-1.006-1.6-.414-3.45 1.793-4.74z" fill="#E0890B"/><path d="M44.416 28.354a13.546 13.546 0 00-7.33.03c-3.377.977-5.08 2.784-5.11 4.59-.015.682-.015 1.348.015 2.03.044 1.806 1.762 3.613 5.154 4.561 2.399.666 4.946.652 7.33-.03 3.378-.977 5.08-2.784 5.11-4.59.015-.682.015-1.349-.014-2.03-.045-1.822-1.763-3.614-5.154-4.561z" fill="url(#paint9_linear_108_15888)"/><path opacity=".2" d="M32.805 35.151l.015 1.926a3.909 3.909 0 01-.622-1.096l-.015-1.881c.133.37.355.726.622 1.051zm4.502 2.533l.015 1.925c.207.06.415.104.622.148l-.015-1.954a9.122 9.122 0 01-.622-.119zm2.548.37l.015 1.985c.207.015.414.015.622.015l-.015-1.97c-.208-.015-.415-.03-.622-.03zm-1.274-.133l.015 1.97.622.089-.015-1.955c-.207-.03-.415-.074-.622-.104zm-5.11-2.059l.015 1.896c.193.163.4.326.622.474l-.015-1.94a5.087 5.087 0 01-.622-.43zm2.563 1.437l.014 1.91c.193.075.415.134.622.208l-.014-1.925c-.223-.075-.43-.119-.622-.193zm-1.289-.578l.015 1.91c.192.105.4.208.622.297l-.015-1.925c-.207-.09-.43-.178-.622-.282zm6.398 1.348l.015 1.97c.207 0 .415-.015.622-.03l-.03-1.97c-.207.015-.414.03-.607.03zm6.369-1.836l.014 1.94c.223-.163.43-.326.622-.489l-.014-1.896c-.178.148-.415.297-.622.445zm-5.095 1.762l.015 1.955.622-.089-.015-1.97c-.222.045-.415.09-.622.104zm6.368-2.932l.015 1.925c.282-.37.489-.74.607-1.14l-.014-1.867c-.119.386-.341.741-.608 1.082zm-2.547 1.88l.015 1.926c.207-.104.43-.208.622-.311l-.015-1.91a5.905 5.905 0 01-.622.295zm-1.274.504l.015 1.925c.207-.074.43-.133.622-.207l-.015-1.91c-.207.074-.414.118-.622.192zm-1.273.34l.014 1.956c.208-.045.415-.104.622-.148l-.014-1.94-.623.133z" fill="url(#paint10_linear_108_15888)"/><path d="M46.978 29.39c3.451 1.97 3.466 5.184.03 7.184-3.436 2-9.005 2.029-12.456.059-3.45-1.97-3.465-5.184-.03-7.183 3.437-2 9.02-2.03 12.456-.06z" fill="#FFCE45"/><path d="M46.43 29.716c3.14 1.792 3.155 4.725.03 6.546-3.125 1.822-8.205 1.837-11.345.045-3.14-1.792-3.154-4.725-.03-6.547 3.126-1.821 8.206-1.836 11.346-.044z" fill="#FFCE45"/><path opacity=".6" d="M35.248 30.19c3.037-1.777 7.983-1.792 11.034-.045 2.222 1.274 2.829 3.125 1.822 4.725 1.303-1.703.74-3.762-1.674-5.14-3.14-1.791-8.22-1.776-11.344.045-2.414 1.407-2.948 3.466-1.63 5.154-1.007-1.6-.414-3.45 1.792-4.739z" fill="#E0890B"/><path d="M44.343 25.865a13.544 13.544 0 00-7.331.03c-3.377.977-5.08 2.784-5.11 4.591-.015.681-.015 1.348.015 2.03.044 1.82 1.762 3.613 5.154 4.56 2.4.667 4.947.652 7.331-.029 3.377-.977 5.08-2.784 5.11-4.591.014-.681.014-1.348-.015-2.029-.045-1.822-1.763-3.614-5.154-4.562z" fill="url(#paint11_linear_108_15888)"/><path opacity=".2" d="M32.73 32.663l.016 1.926a3.907 3.907 0 01-.623-1.096l-.014-1.881c.133.37.355.71.622 1.051zm4.503 2.533l.015 1.925c.207.06.415.104.622.148l-.015-1.955c-.222-.044-.43-.074-.622-.118zm2.547.355l.015 1.985c.208.015.415.015.622.015l-.014-1.97a8.69 8.69 0 01-.623-.03zm-1.273-.118l.015 1.97.622.089-.015-1.956a9.084 9.084 0 00-.622-.103zm-5.11-2.059l.015 1.896c.193.163.4.326.622.474l-.015-1.94c-.222-.148-.444-.282-.622-.43zm2.547 1.437l.015 1.91c.193.074.415.134.622.208l-.014-1.926c-.208-.074-.415-.118-.623-.192zm-1.273-.593l.015 1.911c.192.104.4.207.622.296l-.015-1.925a3.34 3.34 0 01-.622-.282zm6.383 1.363l.015 1.97c.207 0 .415-.015.622-.03l-.015-1.985c-.207.015-.415.045-.622.045zm6.383-1.851l.015 1.94c.222-.163.43-.326.622-.489l-.014-1.896c-.178.163-.415.297-.623.445zm-5.094 1.777l.014 1.955.623-.089-.015-1.97c-.223.03-.415.074-.622.104zm6.368-2.932l.015 1.925c.281-.37.489-.74.607-1.14l-.015-1.867c-.118.37-.34.726-.607 1.082zm-2.547 1.88l.014 1.926c.208-.104.43-.208.623-.311l-.015-1.91a5.925 5.925 0 01-.622.295zm-1.274.49l.015 1.925c.207-.075.43-.134.622-.208l-.015-1.91c-.207.088-.415.133-.622.192zm-1.274.34l.015 1.955c.208-.045.415-.104.622-.148l-.015-1.94c-.207.059-.414.088-.622.133z" fill="url(#paint12_linear_108_15888)"/><path d="M40.722 35.596c4.858-.02 8.788-2.311 8.776-5.117-.012-2.805-3.96-5.063-8.819-5.043-4.858.02-8.788 2.311-8.776 5.117.012 2.805 3.96 5.063 8.819 5.043z" fill="#FFCE45"/><path d="M46.356 27.228c3.14 1.792 3.155 4.724.03 6.546s-8.205 1.837-11.345.044c-3.14-1.791-3.154-4.724-.03-6.546 3.126-1.821 8.206-1.851 11.345-.044z" fill="#FFCE45"/><path opacity=".6" d="M35.175 27.687c3.036-1.777 7.983-1.792 11.034-.044 2.221 1.273 2.828 3.125 1.821 4.724 1.303-1.703.74-3.762-1.673-5.14-3.14-1.791-8.22-1.776-11.345.045-2.414 1.407-2.947 3.466-1.63 5.154-1.006-1.584-.414-3.45 1.793-4.739z" fill="#E0890B"/><path d="M61.093 39.358a13.545 13.545 0 00-7.33.03c-3.378.977-5.08 2.784-5.11 4.59a31.23 31.23 0 00.014 2.03c.045 1.806 1.763 3.613 5.154 4.561 2.4.667 4.947.652 7.332-.03 3.376-.977 5.08-2.784 5.11-4.59a31.23 31.23 0 00-.016-2.03c-.044-1.821-1.762-3.613-5.154-4.561z" fill="url(#paint13_linear_108_15888)"/><path opacity=".2" d="M49.467 46.156l.014 1.925a3.91 3.91 0 01-.622-1.096l-.015-1.88c.134.37.356.725.623 1.05zm4.502 2.532l.015 1.925c.207.06.414.104.622.149l-.015-1.955a9.076 9.076 0 01-.622-.119zm2.562.356l.015 1.984c.207.015.415.015.622.015l-.015-1.97c-.222 0-.415-.015-.622-.03zm-1.288-.119l.014 1.97.622.089-.014-1.955c-.208-.03-.415-.074-.622-.104zm-5.11-2.058l.015 1.895c.192.163.4.326.622.474l-.015-1.94c-.207-.133-.444-.281-.622-.43zm2.562 1.436l.015 1.91c.193.075.415.134.622.208l-.015-1.925c-.207-.074-.43-.119-.622-.193zm-1.288-.578l.015 1.911c.192.104.4.207.622.296l-.015-1.925a11.446 11.446 0 01-.622-.282zm6.398 1.348l.015 1.97c.207 0 .414-.015.622-.03l-.015-1.984c-.208.03-.415.044-.622.044zm6.368-1.851l.015 1.94c.222-.163.43-.326.622-.489l-.015-1.895c-.177.163-.414.31-.622.444zm-5.095 1.777l.015 1.955.622-.089-.015-1.97a4.53 4.53 0 01-.622.104zm6.369-2.932l.015 1.925c.281-.37.489-.74.607-1.14l-.015-1.866c-.118.385-.34.74-.607 1.08zm-2.547 1.88l.014 1.926c.208-.104.43-.207.622-.311l-.014-1.91c-.193.118-.415.207-.622.296zm-1.274.504l.015 1.926c.207-.075.43-.134.622-.208l-.015-1.91c-.193.074-.415.118-.622.192zm-1.274.34l.015 1.956c.207-.045.415-.104.622-.148l-.015-1.94-.622.133z" fill="url(#paint14_linear_108_15888)"/><path d="M63.655 40.395c3.45 1.97 3.466 5.183.03 7.183-3.437 2-9.005 2.029-12.456.06-3.45-1.97-3.466-5.185-.03-7.184 3.436-2 9.005-2.029 12.456-.06z" fill="#FFCE45"/><path d="M63.092 40.72c3.14 1.792 3.155 4.725.03 6.547-3.125 1.821-8.205 1.836-11.345.044-3.14-1.792-3.155-4.724-.03-6.546 3.14-1.822 8.205-1.837 11.345-.045z" fill="#FFCE45"/><path opacity=".6" d="M51.91 41.194c3.036-1.777 7.983-1.792 11.034-.044 2.221 1.273 2.829 3.125 1.822 4.724 1.303-1.703.74-3.762-1.674-5.139-3.14-1.792-8.22-1.777-11.345.045-2.414 1.407-2.947 3.465-1.629 5.154-1.007-1.6-.415-3.451 1.792-4.74z" fill="#E0890B"/><path d="M60.294 36.425a13.545 13.545 0 00-7.331.03c-3.377.977-5.08 2.784-5.11 4.591-.015.681-.015 1.348.015 2.029.044 1.822 1.762 3.614 5.154 4.562 2.4.666 4.947.651 7.331-.03 3.377-.977 5.08-2.784 5.11-4.591.014-.681.014-1.348-.015-2.03-.045-1.806-1.763-3.613-5.154-4.56z" fill="url(#paint15_linear_108_15888)"/><path opacity=".2" d="M48.682 43.238l.014 1.925a3.91 3.91 0 01-.622-1.096l-.014-1.88c.133.355.34.71.622 1.05zm4.487 2.518l.015 1.925c.207.06.415.104.622.148l-.015-1.955a4.601 4.601 0 01-.622-.118zm2.562.37l.015 1.985c.207.014.415.014.622.014l-.015-1.97c-.207 0-.414-.014-.622-.029zm-1.288-.133l.015 1.97.622.088-.015-1.955c-.207-.03-.415-.074-.622-.103zm-5.11-2.059l.015 1.896c.193.163.4.326.622.474l-.015-1.94c-.207-.134-.444-.267-.622-.43zm2.563 1.437l.014 1.91c.193.074.415.133.622.208l-.014-1.926c-.208-.06-.43-.118-.623-.192zm-1.274-.578l.015 1.91c.192.104.4.208.622.297l-.015-1.926a6.05 6.05 0 01-.622-.281zm6.383 1.363l.015 1.97c.207 0 .415-.015.622-.03l-.015-1.985-.622.045zm6.368-1.852l.015 1.94c.223-.163.43-.325.622-.488l-.014-1.896c-.178.163-.415.296-.623.444zm-5.094 1.777l.015 1.955.622-.088-.015-1.97c-.208.03-.415.074-.622.103zm6.368-2.947l.015 1.926c.281-.37.489-.74.607-1.14l-.015-1.867c-.118.385-.34.74-.607 1.081zM62.1 45.03l.015 1.925c.207-.103.43-.207.622-.31l-.015-1.911c-.193.103-.415.192-.622.296zm-1.274.489l.015 1.925c.207-.074.43-.133.622-.207l-.015-1.91c-.192.073-.415.133-.622.192zm-1.274.34l.015 1.955c.208-.044.415-.103.622-.148l-.014-1.94-.623.133z" fill="url(#paint16_linear_108_15888)"/><path d="M62.855 37.462c3.451 1.97 3.466 5.184.03 7.183-3.436 2-9.005 2.03-12.456.06-3.45-1.97-3.465-5.184-.03-7.183 3.437-2 9.005-2.03 12.456-.06z" fill="#FFCE45"/><path d="M56.656 45.727c4.425-.018 8.004-2.109 7.993-4.67-.01-2.56-3.606-4.62-8.032-4.601-4.425.018-8.003 2.109-7.993 4.67.011 2.56 3.607 4.62 8.032 4.601z" fill="#FFCE45"/><path opacity=".6" d="M51.11 38.262c3.037-1.778 7.983-1.792 11.034-.045 2.222 1.274 2.829 3.125 1.822 4.725 1.303-1.703.74-3.762-1.674-5.14-3.14-1.791-8.22-1.777-11.345.045-2.414 1.407-2.947 3.466-1.629 5.154-1.007-1.6-.414-3.45 1.792-4.74z" fill="#E0890B"/><path d="M60.309 34.115a13.544 13.544 0 00-7.331.03c-3.377.977-5.08 2.784-5.11 4.59-.015.682-.015 1.348.015 2.03.044 1.806 1.762 3.613 5.154 4.561 2.399.667 4.946.652 7.33-.03 3.378-.977 5.08-2.784 5.11-4.59a31.23 31.23 0 00-.014-2.03c-.045-1.821-1.763-3.613-5.154-4.561z" fill="url(#paint17_linear_108_15888)"/><path opacity=".2" d="M48.697 40.928l.014 1.925a3.91 3.91 0 01-.621-1.096l-.015-1.88c.133.354.34.71.622 1.05zm4.487 2.517l.015 1.926c.207.059.415.103.622.148l-.015-1.955a4.601 4.601 0 01-.622-.119zm2.563.37l.014 1.985c.208.015.415.015.622.015l-.015-1.97c-.207 0-.414-.03-.622-.03zm-1.274-.133l.015 1.97.622.089-.03-1.97c-.207-.015-.4-.059-.607-.089zm-5.125-2.058l.015 1.895c.193.163.4.326.622.474l-.015-1.94c-.207-.133-.444-.266-.622-.43zm2.563 1.436l.014 1.91c.193.075.415.134.622.208l-.014-1.925c-.208-.06-.43-.119-.622-.193zm-1.274-.577l.015 1.91c.192.104.4.208.622.297l-.015-1.926a6.029 6.029 0 01-.622-.281zm6.383 1.362l.015 1.97c.207 0 .415-.015.622-.03l-.015-1.984-.622.044zm6.369-1.851l.014 1.94c.223-.163.43-.326.622-.489l-.014-1.895c-.178.148-.4.296-.622.444zm-5.095 1.762l.015 1.955.622-.088-.015-1.97a4.53 4.53 0 01-.622.103zm6.368-2.932l.015 1.925c.282-.37.489-.74.607-1.14l-.014-1.866c-.119.385-.326.74-.608 1.081zm-2.547 1.896l.015 1.925c.207-.104.43-.207.622-.311l-.015-1.91c-.193.103-.415.192-.622.296zm-1.274.488l.015 1.926c.207-.074.43-.133.622-.208l-.015-1.91c-.192.074-.414.133-.622.192zm-1.273.341l.014 1.955c.208-.044.415-.104.622-.148l-.014-1.94-.622.133z" fill="url(#paint18_linear_108_15888)"/><path d="M62.87 35.152c3.451 1.97 3.466 5.184.03 7.183-3.436 2-9.005 2.029-12.456.06-3.45-1.97-3.465-5.184-.03-7.184 3.437-2 9.005-2.029 12.456-.06z" fill="#FFCE45"/><path d="M62.308 35.477c3.14 1.793 3.154 4.725.03 6.547-3.126 1.821-8.206 1.836-11.345.044-3.14-1.792-3.155-4.724-.03-6.546 3.14-1.822 8.22-1.837 11.345-.045z" fill="#FFCE45"/><path opacity=".6" d="M51.126 35.951c3.036-1.777 7.983-1.792 11.034-.044 2.221 1.274 2.828 3.125 1.821 4.724 1.303-1.703.74-3.761-1.673-5.139-3.14-1.792-8.22-1.777-11.345.045-2.414 1.407-2.947 3.465-1.63 5.154-1.006-1.6-.414-3.451 1.793-4.74z" fill="#E0890B"/><path d="M51.659 46.245a13.545 13.545 0 00-7.331.03c-3.377.977-5.08 2.784-5.11 4.59-.015.682-.015 1.348.015 2.03.044 1.821 1.762 3.613 5.154 4.561 2.4.666 4.947.652 7.33-.03 3.378-.977 5.08-2.784 5.11-4.59.015-.682.015-1.349-.014-2.03-.045-1.822-1.763-3.628-5.154-4.561z" fill="url(#paint19_linear_108_15888)"/><path opacity=".2" d="M40.047 53.042l.015 1.926a3.909 3.909 0 01-.622-1.096l-.015-1.881c.133.355.34.71.622 1.051zm4.488 2.518l.014 1.926c.208.059.415.103.623.148l-.015-1.955a4.587 4.587 0 01-.622-.119zm2.562.37l.015 1.985c.207.015.414.015.622.015l-.015-1.97c-.208 0-.415-.015-.622-.03zm-1.274-.133l.015 1.97.622.089-.015-1.955c-.222-.03-.414-.074-.622-.104zM40.7 53.753l.015 1.896c.192.163.4.326.622.474l-.015-1.94c-.208-.148-.444-.282-.622-.43zm2.562 1.437l.015 1.91c.192.075.414.134.622.208l-.015-1.925c-.207-.075-.43-.134-.622-.193zm-1.274-.593l.015 1.911c.193.104.4.207.622.296l-.015-1.925a6.02 6.02 0 01-.622-.282zm6.383 1.363l.015 1.97c.208 0 .415-.015.622-.03l-.014-1.984-.623.044zm6.369-1.851l.015 1.94c.222-.163.43-.326.622-.489l-.015-1.896c-.178.163-.4.297-.622.445zm-5.095 1.777l.015 1.955.622-.089-.015-1.97c-.207.03-.414.074-.622.104zm6.369-2.932l.015 1.925c.28-.37.488-.74.607-1.14l-.015-1.867c-.119.37-.326.726-.607 1.082zm-2.548 1.88l.015 1.926c.208-.104.43-.207.622-.311l-.015-1.91c-.192.103-.4.192-.622.295zm-1.273.49l.014 1.925c.208-.074.43-.134.622-.208l-.014-1.91c-.193.074-.415.133-.622.192zm-1.274.34l.015 1.955c.207-.045.414-.104.622-.148l-.015-1.94-.622.133z" fill="url(#paint20_linear_108_15888)"/><path d="M54.22 47.282c3.451 1.97 3.466 5.183.03 7.183-3.436 2-9.005 2.029-12.455.059-3.451-1.97-3.466-5.184-.03-7.183 3.436-2.014 9.005-2.03 12.456-.06z" fill="#FFCE45"/><path d="M48.036 55.532c4.425-.019 8.004-2.11 7.993-4.67-.01-2.56-3.607-4.62-8.032-4.602-4.425.019-8.003 2.11-7.993 4.67.011 2.56 3.607 4.62 8.032 4.602z" fill="#FFCE45"/><path opacity=".6" d="M42.476 48.066c3.036-1.777 7.983-1.792 11.034-.044 2.221 1.273 2.828 3.125 1.821 4.724 1.304-1.703.74-3.762-1.673-5.139-3.14-1.792-8.22-1.777-11.345.044-2.414 1.407-2.947 3.466-1.63 5.154-1.006-1.584-.414-3.45 1.793-4.739z" fill="#E0890B"/><path d="M51.333 43.934a13.545 13.545 0 00-7.331.03c-3.377.977-5.08 2.784-5.11 4.59-.015.682-.015 1.349.015 2.03.044 1.807 1.762 3.614 5.154 4.562 2.4.666 4.947.651 7.331-.03 3.377-.977 5.08-2.784 5.11-4.591.014-.682.014-1.348-.015-2.03-.045-1.821-1.763-3.628-5.154-4.56z" fill="url(#paint21_linear_108_15888)"/><path opacity=".2" d="M39.721 50.732l.015 1.925a3.91 3.91 0 01-.622-1.096l-.015-1.88c.133.355.356.71.622 1.051zm4.503 2.518l.014 1.925c.208.06.415.104.622.148l-.014-1.955a4.604 4.604 0 01-.622-.118zm2.547.37l.015 1.985c.207.014.414.015.622.015l-.015-1.97a8.63 8.63 0 01-.622-.03zm-1.274-.133l.015 1.97.622.088-.015-1.955c-.207-.03-.414-.074-.622-.103zm-5.11-2.059l.015 1.896c.193.163.386.326.623.474l-.015-1.94c-.222-.134-.445-.267-.622-.43zm2.548 1.437l.015 1.91c.192.074.414.134.622.208l-.015-1.926c-.207-.059-.415-.118-.622-.192zm-1.274-.578l.015 1.91c.193.104.4.208.622.297l-.015-1.925c-.207-.09-.43-.178-.622-.282zm6.384 1.363l.014 1.97c.208 0 .415-.015.622-.03l-.014-1.985-.622.045zm6.383-1.852l.015 1.94c.222-.162.43-.325.622-.488l-.015-1.896c-.178.163-.415.296-.622.444zm-5.095 1.778l.015 1.955.622-.09-.015-1.969c-.222.03-.415.074-.622.104zm6.369-2.933l.014 1.925c.282-.37.49-.74.608-1.14l-.015-1.866c-.119.37-.34.726-.607 1.081zm-2.548 1.881l.015 1.925c.207-.103.43-.207.622-.31l-.015-1.911c-.207.103-.415.192-.622.296zm-1.274.489l.015 1.925c.208-.074.43-.133.622-.207l-.015-1.91a9.997 9.997 0 01-.622.192zm-1.273.34l.015 1.955c.207-.044.414-.103.622-.148l-.015-1.94-.622.133z" fill="url(#paint22_linear_108_15888)"/><path d="M53.895 44.956c3.45 1.97 3.465 5.183.03 7.183-3.437 2-9.005 2.029-12.456.06-3.451-1.97-3.466-5.184-.03-7.184 3.436-2 9.02-2.029 12.456-.06z" fill="#FFCE45"/><path d="M47.71 53.221c4.425-.018 8.004-2.109 7.993-4.669-.01-2.56-3.607-4.62-8.032-4.602-4.425.018-8.003 2.109-7.993 4.67.011 2.56 3.607 4.62 8.032 4.601z" fill="#FFCE45"/><path opacity=".6" d="M42.165 45.756c3.036-1.777 7.983-1.792 11.034-.044 2.221 1.273 2.828 3.124 1.821 4.724 1.303-1.703.74-3.762-1.673-5.14-3.14-1.791-8.22-1.776-11.345.045-2.414 1.407-2.947 3.466-1.63 5.154-1.006-1.584-.414-3.45 1.793-4.74z" fill="#E0890B"/><defs><linearGradient id="paint0_linear_108_15888" x1="46.539" y1="-12.984" x2="131.375" y2="51.75" gradientUnits="userSpaceOnUse"><stop stop-color="#7626F5"/><stop offset=".254" stop-color="#8328F6"/><stop offset=".726" stop-color="#A62FFA"/><stop offset="1" stop-color="#BD33FC"/></linearGradient><linearGradient id="paint1_linear_108_15888" x1="31.216" y1="43.799" x2="48.841" y2="43.799" gradientUnits="userSpaceOnUse"><stop stop-color="#D88000"/><stop offset="1" stop-color="#FFAC33"/></linearGradient><linearGradient id="paint2_linear_108_15888" x1="31.433" y1="46.858" x2="48.654" y2="46.858" gradientUnits="userSpaceOnUse"><stop stop-color="#D88F25"/><stop offset="1" stop-color="#EBA136"/></linearGradient><linearGradient id="paint3_linear_108_15888" x1="31.184" y1="40.872" x2="48.808" y2="40.872" gradientUnits="userSpaceOnUse"><stop stop-color="#D88000"/><stop offset="1" stop-color="#FFAC33"/></linearGradient><linearGradient id="paint4_linear_108_15888" x1="31.402" y1="43.931" x2="48.623" y2="43.931" gradientUnits="userSpaceOnUse"><stop stop-color="#D88F25"/><stop offset="1" stop-color="#EBA136"/></linearGradient><linearGradient id="paint5_linear_108_15888" x1="31.2" y1="38.56" x2="48.825" y2="38.56" gradientUnits="userSpaceOnUse"><stop stop-color="#D88000"/><stop offset="1" stop-color="#FFAC33"/></linearGradient><linearGradient id="paint6_linear_108_15888" x1="31.417" y1="41.619" x2="48.638" y2="41.619" gradientUnits="userSpaceOnUse"><stop stop-color="#D88F25"/><stop offset="1" stop-color="#EBA136"/></linearGradient><linearGradient id="paint7_linear_108_15888" x1="31.216" y1="36.248" x2="48.841" y2="36.248" gradientUnits="userSpaceOnUse"><stop stop-color="#D88000"/><stop offset="1" stop-color="#FFAC33"/></linearGradient><linearGradient id="paint8_linear_108_15888" x1="31.433" y1="39.307" x2="48.654" y2="39.307" gradientUnits="userSpaceOnUse"><stop stop-color="#D88F25"/><stop offset="1" stop-color="#EBA136"/></linearGradient><linearGradient id="paint9_linear_108_15888" x1="31.966" y1="33.965" x2="49.591" y2="33.965" gradientUnits="userSpaceOnUse"><stop stop-color="#D88000"/><stop offset="1" stop-color="#FFAC33"/></linearGradient><linearGradient id="paint10_linear_108_15888" x1="32.184" y1="37.024" x2="49.405" y2="37.024" gradientUnits="userSpaceOnUse"><stop stop-color="#D88F25"/><stop offset="1" stop-color="#EBA136"/></linearGradient><linearGradient id="paint11_linear_108_15888" x1="31.891" y1="31.471" x2="49.516" y2="31.471" gradientUnits="userSpaceOnUse"><stop stop-color="#D88000"/><stop offset="1" stop-color="#FFAC33"/></linearGradient><linearGradient id="paint12_linear_108_15888" x1="32.108" y1="34.53" x2="49.329" y2="34.53" gradientUnits="userSpaceOnUse"><stop stop-color="#D88F25"/><stop offset="1" stop-color="#EBA136"/></linearGradient><linearGradient id="paint13_linear_108_15888" x1="48.633" y1="44.968" x2="66.257" y2="44.968" gradientUnits="userSpaceOnUse"><stop stop-color="#D88000"/><stop offset="1" stop-color="#FFAC33"/></linearGradient><linearGradient id="paint14_linear_108_15888" x1="48.85" y1="48.027" x2="66.071" y2="48.027" gradientUnits="userSpaceOnUse"><stop stop-color="#D88F25"/><stop offset="1" stop-color="#EBA136"/></linearGradient><linearGradient id="paint15_linear_108_15888" x1="47.834" y1="42.04" x2="65.459" y2="42.04" gradientUnits="userSpaceOnUse"><stop stop-color="#D88000"/><stop offset="1" stop-color="#FFAC33"/></linearGradient><linearGradient id="paint16_linear_108_15888" x1="48.052" y1="45.099" x2="65.273" y2="45.099" gradientUnits="userSpaceOnUse"><stop stop-color="#D88F25"/><stop offset="1" stop-color="#EBA136"/></linearGradient><linearGradient id="paint17_linear_108_15888" x1="47.851" y1="39.729" x2="65.475" y2="39.729" gradientUnits="userSpaceOnUse"><stop stop-color="#D88000"/><stop offset="1" stop-color="#FFAC33"/></linearGradient><linearGradient id="paint18_linear_108_15888" x1="48.068" y1="42.788" x2="65.289" y2="42.788" gradientUnits="userSpaceOnUse"><stop stop-color="#D88F25"/><stop offset="1" stop-color="#EBA136"/></linearGradient><linearGradient id="paint19_linear_108_15888" x1="39.201" y1="51.847" x2="56.826" y2="51.847" gradientUnits="userSpaceOnUse"><stop stop-color="#D88000"/><stop offset="1" stop-color="#FFAC33"/></linearGradient><linearGradient id="paint20_linear_108_15888" x1="39.419" y1="54.906" x2="56.64" y2="54.906" gradientUnits="userSpaceOnUse"><stop stop-color="#D88F25"/><stop offset="1" stop-color="#EBA136"/></linearGradient><linearGradient id="paint21_linear_108_15888" x1="38.881" y1="49.535" x2="56.506" y2="49.535" gradientUnits="userSpaceOnUse"><stop stop-color="#D88000"/><stop offset="1" stop-color="#FFAC33"/></linearGradient><linearGradient id="paint22_linear_108_15888" x1="39.099" y1="52.594" x2="56.32" y2="52.594" gradientUnits="userSpaceOnUse"><stop stop-color="#D88F25"/><stop offset="1" stop-color="#EBA136"/></linearGradient></defs></svg>