<svg width="830" height="452" fill="none" xmlns="http://www.w3.org/2000/svg"><path stroke="#D5DBE4" d="M48 428.5h779M48 8.5h779m-779 105h779m-779 105h779m-779 105h779M61.5 429V9m51 420V9m51 420V9m51 420V9m51 420V9m51 420V9m51 420V9m51 420V9m51 420V9m51 420V9m51 420V9m51 420V9m51 420V9m51 420V9m51 420V9m51 420V9"/><path d="M100.032 448.12a3.28 3.28 0 01-1.8-.504c-.528-.344-.944-.84-1.248-1.488-.304-.656-.456-1.432-.456-2.328 0-.896.152-1.668.456-2.316.304-.656.72-1.152 1.248-1.488a3.224 3.224 0 011.8-.516c.672 0 1.272.172 1.8.516.536.336.956.832 1.26 1.488.304.648.456 1.42.456 2.316 0 .896-.152 1.672-.456 2.328-.304.648-.724 1.144-1.26 1.488a3.28 3.28 0 01-1.8.504zm0-1.356c.6 0 1.072-.248 1.416-.744.352-.496.528-1.236.528-2.22 0-.984-.176-1.724-.528-2.22-.344-.496-.816-.744-1.416-.744-.592 0-1.064.248-1.416.744-.344.496-.516 1.236-.516 2.22 0 .984.172 1.724.516 2.22.352.496.824.744 1.416.744zm8.029-3.696c.776.096 1.368.36 1.776.792.408.432.612.972.612 1.62 0 .488-.124.932-.372 1.332s-.624.72-1.128.96c-.496.232-1.104.348-1.824.348-.6 0-1.18-.084-1.74-.252a4.535 4.535 0 01-1.416-.72l.672-1.212c.304.256.672.46 1.104.612.44.144.892.216 1.356.216.552 0 .984-.112 1.296-.336.32-.232.48-.544.48-.936s-.152-.696-.456-.912c-.296-.224-.752-.336-1.368-.336h-.768v-1.068l1.908-2.268h-3.816V439.6h5.724v1.044l-2.04 2.424zm4.344 5.016a.97.97 0 01-.696-.276.977.977 0 01-.288-.72c0-.296.092-.536.276-.72a.984.984 0 01.708-.276c.28 0 .512.092.696.276.192.184.288.424.288.72a.977.977 0 01-.288.72.97.97 0 01-.696.276zm5.357.036a3.28 3.28 0 01-1.8-.504c-.528-.344-.944-.84-1.248-1.488-.304-.656-.456-1.432-.456-2.328 0-.896.152-1.668.456-2.316.304-.656.72-1.152 1.248-1.488a3.224 3.224 0 011.8-.516c.672 0 1.272.172 1.8.516.536.336.956.832 1.26 1.488.304.648.456 1.42.456 2.316 0 .896-.152 1.672-.456 2.328-.304.648-.724 1.144-1.26 1.488a3.28 3.28 0 01-1.8.504zm0-1.356c.6 0 1.072-.248 1.416-.744.352-.496.528-1.236.528-2.22 0-.984-.176-1.724-.528-2.22-.344-.496-.816-.744-1.416-.744-.592 0-1.064.248-1.416.744-.344.496-.516 1.236-.516 2.22 0 .984.172 1.724.516 2.22.352.496.824.744 1.416.744zm10.019-3.18c.44.2.776.472 1.008.816.24.336.36.732.36 1.188 0 .512-.144.96-.432 1.344-.28.384-.68.68-1.2.888-.52.2-1.124.3-1.812.3s-1.292-.1-1.812-.3c-.512-.208-.908-.504-1.188-.888a2.22 2.22 0 01-.42-1.344c0-.456.116-.852.348-1.188.232-.344.564-.616.996-.816a2.06 2.06 0 01-.78-.72 2.045 2.045 0 01-.264-1.044c0-.472.128-.884.384-1.236.264-.352.632-.624 1.104-.816.472-.192 1.016-.288 1.632-.288.624 0 1.172.096 1.644.288.472.192.84.464 1.104.816.264.352.396.764.396 1.236 0 .392-.092.736-.276 1.032-.184.296-.448.54-.792.732zm-2.076-2.88c-.488 0-.876.104-1.164.312-.28.208-.42.5-.42.876 0 .36.14.648.42.864.288.208.676.312 1.164.312.496 0 .888-.104 1.176-.312.288-.216.432-.504.432-.864 0-.376-.148-.668-.444-.876-.288-.208-.676-.312-1.164-.312zm0 6.192c.576 0 1.032-.12 1.368-.36.336-.24.504-.572.504-.996 0-.416-.168-.744-.504-.984-.336-.24-.792-.36-1.368-.36-.576 0-1.028.12-1.356.36-.328.24-.492.568-.492.984 0 .424.164.756.492.996.328.24.78.36 1.356.36zm-74.093-.216V448H45.42v-1.044l3.336-3.168c.376-.36.628-.672.756-.936.136-.272.204-.54.204-.804 0-.392-.132-.692-.396-.9-.264-.208-.652-.312-1.164-.312-.856 0-1.512.292-1.968.876l-1.092-.84c.328-.44.768-.78 1.32-1.02a4.574 4.574 0 011.872-.372c.912 0 1.64.216 2.184.648.544.432.816 1.02.816 1.764 0 .456-.096.884-.288 1.284-.192.4-.56.856-1.104 1.368l-2.244 2.136h3.96zm3.732-7.2c1.152 0 2.044.36 2.676 1.08.64.72.96 1.752.96 3.096 0 .944-.172 1.752-.516 2.424a3.612 3.612 0 01-1.452 1.524c-.616.344-1.332.516-2.148.516-.432 0-.84-.044-1.224-.132a3.433 3.433 0 01-.984-.408l.576-1.176c.416.272.948.408 1.596.408.808 0 1.44-.248 1.896-.744.456-.496.684-1.212.684-2.148v-.012a2.384 2.384 0 01-.948.66 3.67 3.67 0 01-1.296.216 3.44 3.44 0 01-1.488-.312 2.489 2.489 0 01-1.032-.912 2.482 2.482 0 01-.372-1.356c0-.544.136-1.02.408-1.428.272-.416.64-.736 1.104-.96a3.542 3.542 0 011.56-.336zm.12 4.08c.504 0 .912-.136 1.224-.408.32-.272.48-.616.48-1.032 0-.408-.156-.744-.468-1.008-.304-.272-.728-.408-1.272-.408-.488 0-.884.132-1.188.396-.304.256-.456.6-.456 1.032 0 .44.152.788.456 1.044.304.256.712.384 1.224.384zm5.367 4.524a.97.97 0 01-.696-.276.977.977 0 01-.288-.72c0-.296.092-.536.276-.72a.984.984 0 01.708-.276c.28 0 .512.092.696.276.192.184.288.424.288.72a.977.977 0 01-.288.72.97.97 0 01-.696.276zm5.357.036a3.28 3.28 0 01-1.8-.504c-.528-.344-.944-.84-1.248-1.488-.304-.656-.456-1.432-.456-2.328 0-.896.152-1.668.456-2.316.304-.656.72-1.152 1.248-1.488a3.224 3.224 0 011.8-.516c.672 0 1.272.172 1.8.516.536.336.956.832 1.26 1.488.304.648.456 1.42.456 2.316 0 .896-.152 1.672-.456 2.328-.304.648-.724 1.144-1.26 1.488a3.28 3.28 0 01-1.8.504zm0-1.356c.6 0 1.072-.248 1.416-.744.352-.496.528-1.236.528-2.22 0-.984-.176-1.724-.528-2.22-.344-.496-.816-.744-1.416-.744-.592 0-1.064.248-1.416.744-.344.496-.516 1.236-.516 2.22 0 .984.172 1.724.516 2.22.352.496.824.744 1.416.744zm10.848-7.164v1.044L73.772 448h-1.668l3.156-7.08h-3.3v1.428h-1.452V439.6h6.528zm-70.424-7.92V433H.42v-1.044l3.336-3.168c.376-.36.628-.672.756-.936.136-.272.204-.54.204-.804 0-.392-.132-.692-.396-.9-.264-.208-.652-.312-1.164-.312-.856 0-1.512.292-1.968.876l-1.092-.84c.328-.44.768-.78 1.32-1.02a4.574 4.574 0 011.872-.372c.912 0 1.64.216 2.184.648.544.432.816 1.02.816 1.764 0 .456-.096.884-.288 1.284-.192.4-.56.856-1.104 1.368l-2.244 2.136h3.96zm4.476-3.612c.776.096 1.368.36 1.776.792.408.432.612.972.612 1.62 0 .488-.124.932-.372 1.332s-.624.72-1.128.96c-.496.232-1.104.348-1.824.348-.6 0-1.18-.084-1.74-.252a4.535 4.535 0 01-1.416-.72l.672-1.212c.304.256.672.46 1.104.612.44.144.892.216 1.356.216.552 0 .984-.112 1.296-.336.32-.232.48-.544.48-.936s-.152-.696-.456-.912c-.296-.224-.752-.336-1.368-.336h-.768v-1.068l1.908-2.268H7.404V424.6h5.724v1.044l-2.04 2.424zm13.325 2.556a2.2 2.2 0 01-.72 1.656c-.472.448-1.16.72-2.064.816v1.344h-.984v-1.332a6.725 6.725 0 01-1.68-.324c-.528-.176-.948-.4-1.26-.672l.54-1.212a4.1 4.1 0 001.08.612c.424.16.864.26 1.32.3v-2.4a9.559 9.559 0 01-1.428-.444 2.558 2.558 0 01-.948-.72c-.256-.32-.384-.74-.384-1.26 0-.648.236-1.2.708-1.656.472-.456 1.156-.728 2.052-.816v-1.356h.984v1.332c.448.024.884.1 1.308.228a4.3 4.3 0 011.128.504l-.492 1.212a4.993 4.993 0 00-1.944-.648v2.424a8.996 8.996 0 011.428.444c.384.16.704.4.96.72.264.312.396.728.396 1.248zm-4.98-3.708c0 .264.104.476.312.636.208.16.508.296.9.408v-2.136c-.408.064-.712.192-.912.384-.2.192-.3.428-.3.708zm2.196 4.872c.424-.064.736-.188.936-.372a.877.877 0 00.312-.684.765.765 0 00-.324-.648c-.216-.168-.524-.308-.924-.42v2.124zm10.12-1.536l-1.117 1.056V433h-1.5v-8.904h1.5v5.376l3.108-2.88h1.8l-2.676 2.688 2.928 3.72h-1.824l-2.22-2.748zM4.104 323.068c.776.096 1.368.36 1.776.792.408.432.612.972.612 1.62 0 .488-.124.932-.372 1.332s-.624.72-1.128.96c-.496.232-1.104.348-1.824.348-.6 0-1.18-.084-1.74-.252a4.535 4.535 0 01-1.416-.72l.672-1.212c.304.256.672.46 1.104.612.44.144.892.216 1.356.216.552 0 .984-.112 1.296-.336.32-.232.48-.544.48-.936s-.152-.696-.456-.912c-.296-.224-.752-.336-1.368-.336h-.768v-1.068l1.908-2.268H.42V319.6h5.724v1.044l-2.04 2.424zm6.312-3.468v8.4h-1.56v-7.092H7.08V319.6h3.336zM22 325.624a2.2 2.2 0 01-.72 1.656c-.472.448-1.16.72-2.064.816v1.344h-.984v-1.332a6.725 6.725 0 01-1.68-.324c-.528-.176-.948-.4-1.26-.672l.54-1.212a4.1 4.1 0 001.08.612c.424.16.864.26 1.32.3v-2.4a9.559 9.559 0 01-1.428-.444 2.558 2.558 0 01-.948-.72c-.256-.32-.384-.74-.384-1.26 0-.648.236-1.2.708-1.656.472-.456 1.156-.728 2.052-.816v-1.356h.984v1.332c.448.024.884.1 1.308.228a4.3 4.3 0 011.128.504l-.492 1.212a4.993 4.993 0 00-1.944-.648v2.424a8.996 8.996 0 011.428.444c.384.16.704.4.96.72.264.312.396.728.396 1.248zm-4.98-3.708c0 .264.104.476.312.636.208.16.508.296.9.408v-2.136c-.408.064-.712.192-.912.384-.2.192-.3.428-.3.708zm2.196 4.872c.424-.064.736-.188.936-.372a.877.877 0 00.312-.684.765.765 0 00-.324-.648c-.216-.168-.524-.308-.924-.42v2.124zm10.12-1.536l-1.117 1.056V328h-1.5v-8.904h1.5v5.376l3.108-2.88h1.8l-2.676 2.688 2.928 3.72h-1.824l-2.22-2.748zM4.104 218.068c.776.096 1.368.36 1.776.792.408.432.612.972.612 1.62 0 .488-.124.932-.372 1.332s-.624.72-1.128.96c-.496.232-1.104.348-1.824.348-.6 0-1.18-.084-1.74-.252a4.535 4.535 0 01-1.416-.72l.672-1.212c.304.256.672.46 1.104.612.44.144.892.216 1.356.216.552 0 .984-.112 1.296-.336.32-.232.48-.544.48-.936s-.152-.696-.456-.912c-.296-.224-.752-.336-1.368-.336h-.768v-1.068l1.908-2.268H.42V214.6h5.724v1.044l-2.04 2.424zm6.24-3.588c1.152 0 2.044.36 2.676 1.08.64.72.96 1.752.96 3.096 0 .944-.172 1.752-.516 2.424a3.612 3.612 0 01-1.452 1.524c-.616.344-1.332.516-2.148.516-.432 0-.84-.044-1.224-.132a3.433 3.433 0 01-.984-.408l.576-1.176c.416.272.948.408 1.596.408.808 0 1.44-.248 1.896-.744.456-.496.684-1.212.684-2.148v-.012a2.384 2.384 0 01-.948.66 3.67 3.67 0 01-1.296.216 3.44 3.44 0 01-1.488-.312 2.489 2.489 0 01-1.032-.912 2.482 2.482 0 01-.372-1.356c0-.544.136-1.02.408-1.428.272-.416.64-.736 1.104-.96a3.542 3.542 0 011.56-.336zm.12 4.08c.504 0 .912-.136 1.224-.408.32-.272.48-.616.48-1.032 0-.408-.156-.744-.468-1.008-.304-.272-.728-.408-1.272-.408-.488 0-.884.132-1.188.396-.304.256-.456.6-.456 1.032 0 .44.152.788.456 1.044.304.256.712.384 1.224.384zm14.488 2.064a2.2 2.2 0 01-.72 1.656c-.472.448-1.16.72-2.064.816v1.344h-.984v-1.332a6.725 6.725 0 01-1.68-.324c-.528-.176-.948-.4-1.26-.672l.54-1.212a4.1 4.1 0 001.08.612c.424.16.864.26 1.32.3v-2.4a9.559 9.559 0 01-1.428-.444 2.558 2.558 0 01-.948-.72c-.256-.32-.384-.74-.384-1.26 0-.648.236-1.2.708-1.656.472-.456 1.156-.728 2.052-.816v-1.356h.984v1.332c.448.024.884.1 1.308.228a4.3 4.3 0 011.128.504l-.492 1.212a4.993 4.993 0 00-1.944-.648v2.424a8.996 8.996 0 011.428.444c.384.16.704.4.96.72.264.312.396.728.396 1.248zm-4.98-3.708c0 .264.104.476.312.636.208.16.508.296.9.408v-2.136c-.408.064-.712.192-.912.384-.2.192-.3.428-.3.708zm2.196 4.872c.424-.064.736-.188.936-.372a.877.877 0 00.312-.684.765.765 0 00-.324-.648c-.216-.168-.524-.308-.924-.42v2.124zm10.12-1.536l-1.116 1.056V223h-1.5v-8.904h1.5v5.376l3.107-2.88h1.8l-2.675 2.688L36.33 223h-1.824l-2.22-2.748zM8.016 116.092H6.528V118H5.016v-1.908H.408v-1.08l4.14-5.412h1.668l-3.9 5.172h2.748v-1.692h1.464v1.692h1.488v1.32zm6.454-6.492v1.044L11.206 118H9.537l3.156-7.08h-3.3v1.428H7.941V109.6h6.529zm10.88 6.024a2.2 2.2 0 01-.72 1.656c-.471.448-1.16.72-2.063.816v1.344h-.984v-1.332a6.725 6.725 0 01-1.68-.324c-.528-.176-.948-.4-1.26-.672l.54-1.212a4.1 4.1 0 001.08.612c.424.16.864.26 1.32.3v-2.4a9.559 9.559 0 01-1.428-.444 2.558 2.558 0 01-.948-.72c-.256-.32-.384-.74-.384-1.26 0-.648.236-1.2.708-1.656.472-.456 1.156-.728 2.052-.816v-1.356h.984v1.332c.448.024.884.1 1.308.228a4.3 4.3 0 011.128.504l-.492 1.212a4.993 4.993 0 00-1.944-.648v2.424a8.996 8.996 0 011.428.444c.384.16.704.4.96.72.264.312.396.728.396 1.248zm-4.98-3.708c0 .264.105.476.313.636.208.16.508.296.9.408v-2.136c-.408.064-.712.192-.912.384-.2.192-.3.428-.3.708zm2.197 4.872c.424-.064.736-.188.936-.372a.877.877 0 00.312-.684.765.765 0 00-.324-.648c-.216-.168-.524-.308-.924-.42v2.124zm10.119-1.536l-1.116 1.056V118h-1.5v-8.904h1.5v5.376l3.108-2.88h1.8l-2.676 2.688L36.73 118h-1.824l-2.22-2.748zM5.344 7.816c.552 0 1.048.108 1.488.324.44.208.784.508 1.032.9s.372.844.372 1.356c0 .544-.136 1.024-.408 1.44-.272.408-.64.724-1.104.948a3.542 3.542 0 01-1.56.336c-1.152 0-2.048-.36-2.688-1.08-.632-.72-.948-1.752-.948-3.096 0-.944.172-1.748.516-2.412.344-.672.824-1.18 1.44-1.524.624-.352 1.344-.528 2.16-.528.432 0 .836.048 1.212.144.384.088.716.22.996.396l-.576 1.176c-.416-.272-.948-.408-1.596-.408-.808 0-1.44.248-1.896.744-.456.496-.684 1.212-.684 2.148v.012c.248-.288.564-.504.948-.648a3.496 3.496 0 011.296-.228zm-.264 4.08c.488 0 .884-.128 1.188-.384.304-.264.456-.612.456-1.044 0-.44-.152-.788-.456-1.044-.304-.256-.712-.384-1.224-.384-.504 0-.916.136-1.236.408a1.31 1.31 0 00-.468 1.032c0 .408.152.748.456 1.02.312.264.74.396 1.284.396zm7.547-3.828c.776.096 1.368.36 1.776.792.408.432.612.972.612 1.62 0 .488-.124.932-.372 1.332s-.624.72-1.128.96c-.496.232-1.104.348-1.824.348-.6 0-1.18-.084-1.74-.252a4.535 4.535 0 01-1.416-.72l.672-1.212c.304.256.672.46 1.104.612.44.144.892.216 1.356.216.552 0 .984-.112 1.296-.336.32-.232.48-.544.48-.936s-.152-.696-.456-.912c-.296-.224-.752-.336-1.368-.336h-.768V8.176l1.908-2.268H8.943V4.6h5.724v1.044l-2.04 2.424zm13.325 2.556a2.2 2.2 0 01-.72 1.656c-.472.448-1.16.72-2.064.816v1.344h-.984v-1.332a6.725 6.725 0 01-1.68-.324c-.528-.176-.948-.4-1.26-.672l.54-1.212a4.1 4.1 0 001.08.612c.424.16.864.26 1.32.3v-2.4a9.559 9.559 0 01-1.428-.444 2.558 2.558 0 01-.948-.72c-.256-.32-.384-.74-.384-1.26 0-.648.236-1.2.708-1.656.472-.456 1.156-.728 2.052-.816V3.16h.984v1.332c.448.024.884.1 1.308.228a4.3 4.3 0 011.128.504l-.492 1.212a4.993 4.993 0 00-1.944-.648v2.424a8.996 8.996 0 011.428.444c.384.16.704.4.96.72.264.312.396.728.396 1.248zm-4.98-3.708c0 .264.104.476.312.636.208.16.508.296.9.408V5.824c-.408.064-.712.192-.912.384-.2.192-.3.428-.3.708zm2.196 4.872c.424-.064.736-.188.936-.372a.877.877 0 00.312-.684.765.765 0 00-.324-.648c-.216-.168-.524-.308-.924-.42v2.124zm10.12-1.536l-1.116 1.056V13h-1.5V4.096h1.5v5.376l3.108-2.88h1.8L34.404 9.28 37.33 13h-1.824l-2.22-2.748zM151.032 448.12a3.28 3.28 0 01-1.8-.504c-.528-.344-.944-.84-1.248-1.488-.304-.656-.456-1.432-.456-2.328 0-.896.152-1.668.456-2.316.304-.656.72-1.152 1.248-1.488a3.224 3.224 0 011.8-.516c.672 0 1.272.172 1.8.516.536.336.956.832 1.26 1.488.304.648.456 1.42.456 2.316 0 .896-.152 1.672-.456 2.328-.304.648-.724 1.144-1.26 1.488a3.28 3.28 0 01-1.8.504zm0-1.356c.6 0 1.072-.248 1.416-.744.352-.496.528-1.236.528-2.22 0-.984-.176-1.724-.528-2.22-.344-.496-.816-.744-1.416-.744-.592 0-1.064.248-1.416.744-.344.496-.516 1.236-.516 2.22 0 .984.172 1.724.516 2.22.352.496.824.744 1.416.744zm8.386-3.948c.552 0 1.048.108 1.488.324.44.208.784.508 1.032.9s.372.844.372 1.356c0 .544-.136 1.024-.408 1.44-.272.408-.64.724-1.104.948a3.542 3.542 0 01-1.56.336c-1.152 0-2.048-.36-2.688-1.08-.632-.72-.948-1.752-.948-3.096 0-.944.172-1.748.516-2.412.344-.672.824-1.18 1.44-1.524.624-.352 1.344-.528 2.16-.528.432 0 .836.048 1.212.144.384.088.716.22.996.396l-.576 1.176c-.416-.272-.948-.408-1.596-.408-.808 0-1.44.248-1.896.744-.456.496-.684 1.212-.684 2.148v.012c.248-.288.564-.504.948-.648a3.496 3.496 0 011.296-.228zm-.264 4.08c.488 0 .884-.128 1.188-.384.304-.264.456-.612.456-1.044 0-.44-.152-.788-.456-1.044-.304-.256-.712-.384-1.224-.384-.504 0-.916.136-1.236.408a1.31 1.31 0 00-.468 1.032c0 .408.152.748.456 1.02.312.264.74.396 1.284.396zm5.025 1.188a.97.97 0 01-.696-.276.977.977 0 01-.288-.72c0-.296.092-.536.276-.72a.984.984 0 01.708-.276c.28 0 .512.092.696.276.192.184.288.424.288.72a.977.977 0 01-.288.72.97.97 0 01-.696.276zm5.357.036a3.28 3.28 0 01-1.8-.504c-.528-.344-.944-.84-1.248-1.488-.304-.656-.456-1.432-.456-2.328 0-.896.152-1.668.456-2.316.304-.656.72-1.152 1.248-1.488a3.224 3.224 0 011.8-.516c.672 0 1.272.172 1.8.516.536.336.956.832 1.26 1.488.304.648.456 1.42.456 2.316 0 .896-.152 1.672-.456 2.328-.304.648-.724 1.144-1.26 1.488a3.28 3.28 0 01-1.8.504zm0-1.356c.6 0 1.072-.248 1.416-.744.352-.496.528-1.236.528-2.22 0-.984-.176-1.724-.528-2.22-.344-.496-.816-.744-1.416-.744-.592 0-1.064.248-1.416.744-.344.496-.516 1.236-.516 2.22 0 .984.172 1.724.516 2.22.352.496.824.744 1.416.744zm10.018-3.18c.44.2.776.472 1.008.816.24.336.36.732.36 1.188 0 .512-.144.96-.432 1.344-.28.384-.68.68-1.2.888-.52.2-1.124.3-1.812.3s-1.292-.1-1.812-.3c-.512-.208-.908-.504-1.188-.888a2.22 2.22 0 01-.42-1.344c0-.456.116-.852.348-1.188.232-.344.564-.616.996-.816a2.06 2.06 0 01-.78-.72 2.045 2.045 0 01-.264-1.044c0-.472.128-.884.384-1.236.264-.352.632-.624 1.104-.816.472-.192 1.016-.288 1.632-.288.624 0 1.172.096 1.644.288.472.192.84.464 1.104.816.264.352.396.764.396 1.236 0 .392-.092.736-.276 1.032-.184.296-.448.54-.792.732zm-2.076-2.88c-.488 0-.876.104-1.164.312-.28.208-.42.5-.42.876 0 .36.14.648.42.864.288.208.676.312 1.164.312.496 0 .888-.104 1.176-.312.288-.216.432-.504.432-.864 0-.376-.148-.668-.444-.876-.288-.208-.676-.312-1.164-.312zm0 6.192c.576 0 1.032-.12 1.368-.36.336-.24.504-.572.504-.996 0-.416-.168-.744-.504-.984-.336-.24-.792-.36-1.368-.36-.576 0-1.028.12-1.356.36-.328.24-.492.568-.492.984 0 .424.164.756.492.996.328.24.78.36 1.356.36zm24.98 1.224a3.28 3.28 0 01-1.8-.504c-.528-.344-.944-.84-1.248-1.488-.304-.656-.456-1.432-.456-2.328 0-.896.152-1.668.456-2.316.304-.656.72-1.152 1.248-1.488a3.224 3.224 0 011.8-.516c.672 0 1.272.172 1.8.516.536.336.956.832 1.26 1.488.304.648.456 1.42.456 2.316 0 .896-.152 1.672-.456 2.328-.304.648-.724 1.144-1.26 1.488a3.28 3.28 0 01-1.8.504zm0-1.356c.6 0 1.072-.248 1.416-.744.352-.496.528-1.236.528-2.22 0-.984-.176-1.724-.528-2.22-.344-.496-.816-.744-1.416-.744-.592 0-1.064.248-1.416.744-.344.496-.516 1.236-.516 2.22 0 .984.172 1.724.516 2.22.352.496.824.744 1.416.744zm7.402-7.284c1.152 0 2.044.36 2.676 1.08.64.72.96 1.752.96 3.096 0 .944-.172 1.752-.516 2.424a3.612 3.612 0 01-1.452 1.524c-.616.344-1.332.516-2.148.516-.432 0-.84-.044-1.224-.132a3.433 3.433 0 01-.984-.408l.576-1.176c.416.272.948.408 1.596.408.808 0 1.44-.248 1.896-.744.456-.496.684-1.212.684-2.148v-.012a2.384 2.384 0 01-.948.66 3.67 3.67 0 01-1.296.216 3.44 3.44 0 01-1.488-.312 2.489 2.489 0 01-1.032-.912 2.482 2.482 0 01-.372-1.356c0-.544.136-1.02.408-1.428.272-.416.64-.736 1.104-.96a3.542 3.542 0 011.56-.336zm.12 4.08c.504 0 .912-.136 1.224-.408.32-.272.48-.616.48-1.032 0-.408-.156-.744-.468-1.008-.304-.272-.728-.408-1.272-.408-.488 0-.884.132-1.188.396-.304.256-.456.6-.456 1.032 0 .44.152.788.456 1.044.304.256.712.384 1.224.384zm5.367 4.524a.97.97 0 01-.696-.276.977.977 0 01-.288-.72c0-.296.092-.536.276-.72a.984.984 0 01.708-.276c.28 0 .512.092.696.276.192.184.288.424.288.72a.977.977 0 01-.288.72.97.97 0 01-.696.276zm5.357.036a3.28 3.28 0 01-1.8-.504c-.528-.344-.944-.84-1.248-1.488-.304-.656-.456-1.432-.456-2.328 0-.896.152-1.668.456-2.316.304-.656.72-1.152 1.248-1.488a3.224 3.224 0 011.8-.516c.672 0 1.272.172 1.8.516.536.336.956.832 1.26 1.488.304.648.456 1.42.456 2.316 0 .896-.152 1.672-.456 2.328-.304.648-.724 1.144-1.26 1.488a3.28 3.28 0 01-1.8.504zm0-1.356c.6 0 1.072-.248 1.416-.744.352-.496.528-1.236.528-2.22 0-.984-.176-1.724-.528-2.22-.344-.496-.816-.744-1.416-.744-.592 0-1.064.248-1.416.744-.344.496-.516 1.236-.516 2.22 0 .984.172 1.724.516 2.22.352.496.824.744 1.416.744zm10.018-3.18c.44.2.776.472 1.008.816.24.336.36.732.36 1.188 0 .512-.144.96-.432 1.344-.28.384-.68.68-1.2.888-.52.2-1.124.3-1.812.3s-1.292-.1-1.812-.3c-.512-.208-.908-.504-1.188-.888a2.22 2.22 0 01-.42-1.344c0-.456.116-.852.348-1.188.232-.344.564-.616.996-.816a2.06 2.06 0 01-.78-.72 2.045 2.045 0 01-.264-1.044c0-.472.128-.884.384-1.236.264-.352.632-.624 1.104-.816.472-.192 1.016-.288 1.632-.288.624 0 1.172.096 1.644.288.472.192.84.464 1.104.816.264.352.396.764.396 1.236 0 .392-.092.736-.276 1.032-.184.296-.448.54-.792.732zm-2.076-2.88c-.488 0-.876.104-1.164.312-.28.208-.42.5-.42.876 0 .36.14.648.42.864.288.208.676.312 1.164.312.496 0 .888-.104 1.176-.312.288-.216.432-.504.432-.864 0-.376-.148-.668-.444-.876-.288-.208-.676-.312-1.164-.312zm0 6.192c.576 0 1.032-.12 1.368-.36.336-.24.504-.572.504-.996 0-.416-.168-.744-.504-.984-.336-.24-.792-.36-1.368-.36-.576 0-1.028.12-1.356.36-.328.24-.492.568-.492.984 0 .424.164.756.492.996.328.24.78.36 1.356.36zm26.104-7.296v8.4h-1.56v-7.092h-1.776V439.6h3.336zm7.751 7.08V448h-6.192v-1.044l3.336-3.168c.376-.36.628-.672.756-.936.136-.272.204-.54.204-.804 0-.392-.132-.692-.396-.9-.264-.208-.652-.312-1.164-.312-.856 0-1.512.292-1.968.876l-1.092-.84c.328-.44.768-.78 1.32-1.02a4.574 4.574 0 011.872-.372c.912 0 1.64.216 2.184.648.544.432.816 1.02.816 1.764 0 .456-.096.884-.288 1.284-.192.4-.56.856-1.104 1.368l-2.244 2.136h3.96zm1.953 1.404a.97.97 0 01-.696-.276.977.977 0 01-.288-.72c0-.296.092-.536.276-.72a.984.984 0 01.708-.276c.28 0 .512.092.696.276.192.184.288.424.288.72a.977.977 0 01-.288.72.97.97 0 01-.696.276zm5.357.036a3.28 3.28 0 01-1.8-.504c-.528-.344-.944-.84-1.248-1.488-.304-.656-.456-1.432-.456-2.328 0-.896.152-1.668.456-2.316.304-.656.72-1.152 1.248-1.488a3.224 3.224 0 011.8-.516c.672 0 1.272.172 1.8.516.536.336.956.832 1.26 1.488.304.648.456 1.42.456 2.316 0 .896-.152 1.672-.456 2.328-.304.648-.724 1.144-1.26 1.488a3.28 3.28 0 01-1.8.504zm0-1.356c.6 0 1.072-.248 1.416-.744.352-.496.528-1.236.528-2.22 0-.984-.176-1.724-.528-2.22-.344-.496-.816-.744-1.416-.744-.592 0-1.064.248-1.416.744-.344.496-.516 1.236-.516 2.22 0 .984.172 1.724.516 2.22.352.496.824.744 1.416.744zm10.019-3.18c.44.2.776.472 1.008.816.24.336.36.732.36 1.188 0 .512-.144.96-.432 1.344-.28.384-.68.68-1.2.888-.52.2-1.124.3-1.812.3s-1.292-.1-1.812-.3c-.512-.208-.908-.504-1.188-.888a2.22 2.22 0 01-.42-1.344c0-.456.116-.852.348-1.188.232-.344.564-.616.996-.816a2.06 2.06 0 01-.78-.72 2.045 2.045 0 01-.264-1.044c0-.472.128-.884.384-1.236.264-.352.632-.624 1.104-.816.472-.192 1.016-.288 1.632-.288.624 0 1.172.096 1.644.288.472.192.84.464 1.104.816.264.352.396.764.396 1.236 0 .392-.092.736-.276 1.032-.184.296-.448.54-.792.732zm-2.076-2.88c-.488 0-.876.104-1.164.312-.28.208-.42.5-.42.876 0 .36.14.648.42.864.288.208.676.312 1.164.312.496 0 .888-.104 1.176-.312.288-.216.432-.504.432-.864 0-.376-.148-.668-.444-.876-.288-.208-.676-.312-1.164-.312zm0 6.192c.576 0 1.032-.12 1.368-.36.336-.24.504-.572.504-.996 0-.416-.168-.744-.504-.984-.336-.24-.792-.36-1.368-.36-.576 0-1.028.12-1.356.36-.328.24-.492.568-.492.984 0 .424.164.756.492.996.328.24.78.36 1.356.36z" fill="#A6ACB7"/><path d="M304.797 439.6v8.4h-1.56v-7.092h-1.776V439.6h3.336zm4.295 3.252c1.184 0 2.06.232 2.628.696.568.456.852 1.08.852 1.872 0 .504-.124.96-.372 1.368-.248.408-.62.732-1.116.972-.496.24-1.108.36-1.836.36-.6 0-1.18-.084-1.74-.252-.56-.176-1.032-.416-1.416-.72l.66-1.212c.312.256.684.46 1.116.612.44.144.892.216 1.356.216.552 0 .984-.112 1.296-.336.32-.232.48-.548.48-.948 0-.432-.172-.756-.516-.972-.336-.224-.916-.336-1.74-.336h-2.028l.432-4.572h4.932v1.308h-3.612l-.18 1.944h.804zm5.315 5.232a.97.97 0 01-.696-.276.977.977 0 01-.288-.72c0-.296.092-.536.276-.72a.984.984 0 01.708-.276c.28 0 .512.092.696.276.192.184.288.424.288.72a.977.977 0 01-.288.72.97.97 0 01-.696.276zm5.357.036a3.28 3.28 0 01-1.8-.504c-.528-.344-.944-.84-1.248-1.488-.304-.656-.456-1.432-.456-2.328 0-.896.152-1.668.456-2.316.304-.656.72-1.152 1.248-1.488a3.224 3.224 0 011.8-.516c.672 0 1.272.172 1.8.516.536.336.956.832 1.26 1.488.304.648.456 1.42.456 2.316 0 .896-.152 1.672-.456 2.328-.304.648-.724 1.144-1.26 1.488a3.28 3.28 0 01-1.8.504zm0-1.356c.6 0 1.072-.248 1.416-.744.352-.496.528-1.236.528-2.22 0-.984-.176-1.724-.528-2.22-.344-.496-.816-.744-1.416-.744-.592 0-1.064.248-1.416.744-.344.496-.516 1.236-.516 2.22 0 .984.172 1.724.516 2.22.352.496.824.744 1.416.744zm10.019-3.18c.44.2.776.472 1.008.816.24.336.36.732.36 1.188 0 .512-.144.96-.432 1.344-.28.384-.68.68-1.2.888-.52.2-1.124.3-1.812.3s-1.292-.1-1.812-.3c-.512-.208-.908-.504-1.188-.888a2.22 2.22 0 01-.42-1.344c0-.456.116-.852.348-1.188.232-.344.564-.616.996-.816a2.06 2.06 0 01-.78-.72 2.045 2.045 0 01-.264-1.044c0-.472.128-.884.384-1.236.264-.352.632-.624 1.104-.816.472-.192 1.016-.288 1.632-.288.624 0 1.172.096 1.644.288.472.192.84.464 1.104.816.264.352.396.764.396 1.236 0 .392-.092.736-.276 1.032-.184.296-.448.54-.792.732zm-2.076-2.88c-.488 0-.876.104-1.164.312-.28.208-.42.5-.42.876 0 .36.14.648.42.864.288.208.676.312 1.164.312.496 0 .888-.104 1.176-.312.288-.216.432-.504.432-.864 0-.376-.148-.668-.444-.876-.288-.208-.676-.312-1.164-.312zm0 6.192c.576 0 1.032-.12 1.368-.36.336-.24.504-.572.504-.996 0-.416-.168-.744-.504-.984-.336-.24-.792-.36-1.368-.36-.576 0-1.028.12-1.356.36-.328.24-.492.568-.492.984 0 .424.164.756.492.996.328.24.78.36 1.356.36z" fill="#282C33"/><path d="M355.828 439.6v8.4h-1.56v-7.092h-1.776V439.6h3.336zm7.115 3.984c.44.2.776.472 1.008.816.24.336.36.732.36 1.188 0 .512-.144.96-.432 1.344-.28.384-.68.68-1.2.888-.52.2-1.124.3-1.812.3s-1.292-.1-1.812-.3c-.512-.208-.908-.504-1.188-.888a2.22 2.22 0 01-.42-1.344c0-.456.116-.852.348-1.188.232-.344.564-.616.996-.816a2.06 2.06 0 01-.78-.72 2.045 2.045 0 01-.264-1.044c0-.472.128-.884.384-1.236.264-.352.632-.624 1.104-.816.472-.192 1.016-.288 1.632-.288.624 0 1.172.096 1.644.288.472.192.84.464 1.104.816.264.352.396.764.396 1.236 0 .392-.092.736-.276 1.032-.184.296-.448.54-.792.732zm-2.076-2.88c-.488 0-.876.104-1.164.312-.28.208-.42.5-.42.876 0 .36.14.648.42.864.288.208.676.312 1.164.312.496 0 .888-.104 1.176-.312.288-.216.432-.504.432-.864 0-.376-.148-.668-.444-.876-.288-.208-.676-.312-1.164-.312zm0 6.192c.576 0 1.032-.12 1.368-.36.336-.24.504-.572.504-.996 0-.416-.168-.744-.504-.984-.336-.24-.792-.36-1.368-.36-.576 0-1.028.12-1.356.36-.328.24-.492.568-.492.984 0 .424.164.756.492.996.328.24.78.36 1.356.36zm5.509 1.188a.97.97 0 01-.696-.276.977.977 0 01-.288-.72c0-.296.092-.536.276-.72a.984.984 0 01.708-.276c.28 0 .512.092.696.276.192.184.288.424.288.72a.977.977 0 01-.288.72.97.97 0 01-.696.276zm5.357.036a3.28 3.28 0 01-1.8-.504c-.528-.344-.944-.84-1.248-1.488-.304-.656-.456-1.432-.456-2.328 0-.896.152-1.668.456-2.316.304-.656.72-1.152 1.248-1.488a3.224 3.224 0 011.8-.516c.672 0 1.272.172 1.8.516.536.336.956.832 1.26 1.488.304.648.456 1.42.456 2.316 0 .896-.152 1.672-.456 2.328-.304.648-.724 1.144-1.26 1.488a3.28 3.28 0 01-1.8.504zm0-1.356c.6 0 1.072-.248 1.416-.744.352-.496.528-1.236.528-2.22 0-.984-.176-1.724-.528-2.22-.344-.496-.816-.744-1.416-.744-.592 0-1.064.248-1.416.744-.344.496-.516 1.236-.516 2.22 0 .984.172 1.724.516 2.22.352.496.824.744 1.416.744zm10.018-3.18c.44.2.776.472 1.008.816.24.336.36.732.36 1.188 0 .512-.144.96-.432 1.344-.28.384-.68.68-1.2.888-.52.2-1.124.3-1.812.3s-1.292-.1-1.812-.3c-.512-.208-.908-.504-1.188-.888a2.22 2.22 0 01-.42-1.344c0-.456.116-.852.348-1.188.232-.344.564-.616.996-.816a2.06 2.06 0 01-.78-.72 2.045 2.045 0 01-.264-1.044c0-.472.128-.884.384-1.236.264-.352.632-.624 1.104-.816.472-.192 1.016-.288 1.632-.288.624 0 1.172.096 1.644.288.472.192.84.464 1.104.816.264.352.396.764.396 1.236 0 .392-.092.736-.276 1.032-.184.296-.448.54-.792.732zm-2.076-2.88c-.488 0-.876.104-1.164.312-.28.208-.42.5-.42.876 0 .36.14.648.42.864.288.208.676.312 1.164.312.496 0 .888-.104 1.176-.312.288-.216.432-.504.432-.864 0-.376-.148-.668-.444-.876-.288-.208-.676-.312-1.164-.312zm0 6.192c.576 0 1.032-.12 1.368-.36.336-.24.504-.572.504-.996 0-.416-.168-.744-.504-.984-.336-.24-.792-.36-1.368-.36-.576 0-1.028.12-1.356.36-.328.24-.492.568-.492.984 0 .424.164.756.492.996.328.24.78.36 1.356.36zm30.314-.216V448h-6.192v-1.044l3.336-3.168c.376-.36.628-.672.756-.936.136-.272.204-.54.204-.804 0-.392-.132-.692-.396-.9-.264-.208-.652-.312-1.164-.312-.856 0-1.512.292-1.968.876l-1.092-.84c.328-.44.768-.78 1.32-1.02a4.574 4.574 0 011.872-.372c.912 0 1.64.216 2.184.648.544.432.816 1.02.816 1.764 0 .456-.096.884-.288 1.284-.192.4-.56.856-1.104 1.368l-2.244 2.136h3.96zm3.804-7.08v8.4h-1.56v-7.092h-1.776V439.6h3.336zm2.603 8.484a.97.97 0 01-.696-.276.977.977 0 01-.288-.72c0-.296.092-.536.276-.72a.984.984 0 01.708-.276c.28 0 .512.092.696.276.192.184.288.424.288.72a.977.977 0 01-.288.72.97.97 0 01-.696.276zm5.357.036a3.28 3.28 0 01-1.8-.504c-.528-.344-.944-.84-1.248-1.488-.304-.656-.456-1.432-.456-2.328 0-.896.152-1.668.456-2.316.304-.656.72-1.152 1.248-1.488a3.224 3.224 0 011.8-.516c.672 0 1.272.172 1.8.516.536.336.956.832 1.26 1.488.304.648.456 1.42.456 2.316 0 .896-.152 1.672-.456 2.328-.304.648-.724 1.144-1.26 1.488a3.28 3.28 0 01-1.8.504zm0-1.356c.6 0 1.072-.248 1.416-.744.352-.496.528-1.236.528-2.22 0-.984-.176-1.724-.528-2.22-.344-.496-.816-.744-1.416-.744-.592 0-1.064.248-1.416.744-.344.496-.516 1.236-.516 2.22 0 .984.172 1.724.516 2.22.352.496.824.744 1.416.744zm10.018-3.18c.44.2.776.472 1.008.816.24.336.36.732.36 1.188 0 .512-.144.96-.432 1.344-.28.384-.68.68-1.2.888-.52.2-1.124.3-1.812.3s-1.292-.1-1.812-.3c-.512-.208-.908-.504-1.188-.888a2.22 2.22 0 01-.42-1.344c0-.456.116-.852.348-1.188.232-.344.564-.616.996-.816a2.06 2.06 0 01-.78-.72 2.045 2.045 0 01-.264-1.044c0-.472.128-.884.384-1.236.264-.352.632-.624 1.104-.816.472-.192 1.016-.288 1.632-.288.624 0 1.172.096 1.644.288.472.192.84.464 1.104.816.264.352.396.764.396 1.236 0 .392-.092.736-.276 1.032-.184.296-.448.54-.792.732zm-2.076-2.88c-.488 0-.876.104-1.164.312-.28.208-.42.5-.42.876 0 .36.14.648.42.864.288.208.676.312 1.164.312.496 0 .888-.104 1.176-.312.288-.216.432-.504.432-.864 0-.376-.148-.668-.444-.876-.288-.208-.676-.312-1.164-.312zm0 6.192c.576 0 1.032-.12 1.368-.36.336-.24.504-.572.504-.996 0-.416-.168-.744-.504-.984-.336-.24-.792-.36-1.368-.36-.576 0-1.028.12-1.356.36-.328.24-.492.568-.492.984 0 .424.164.756.492.996.328.24.78.36 1.356.36zm31.087-.216V448h-6.192v-1.044l3.336-3.168c.376-.36.628-.672.756-.936.136-.272.204-.54.204-.804 0-.392-.132-.692-.396-.9-.264-.208-.652-.312-1.164-.312-.856 0-1.512.292-1.968.876l-1.092-.84c.328-.44.768-.78 1.32-1.02a4.574 4.574 0 011.872-.372c.912 0 1.64.216 2.184.648.544.432.816 1.02.816 1.764 0 .456-.096.884-.288 1.284-.192.4-.56.856-1.104 1.368l-2.244 2.136h3.96zm4.476-3.612c.776.096 1.368.36 1.776.792.408.432.612.972.612 1.62 0 .488-.124.932-.372 1.332s-.624.72-1.128.96c-.496.232-1.104.348-1.824.348-.6 0-1.18-.084-1.74-.252a4.535 4.535 0 01-1.416-.72l.672-1.212c.304.256.672.46 1.104.612.44.144.892.216 1.356.216.552 0 .984-.112 1.296-.336.32-.232.48-.544.48-.936s-.152-.696-.456-.912c-.296-.224-.752-.336-1.368-.336h-.768v-1.068l1.908-2.268h-3.816V439.6h5.724v1.044l-2.04 2.424zm4.345 5.016a.97.97 0 01-.696-.276.977.977 0 01-.288-.72c0-.296.092-.536.276-.72a.984.984 0 01.708-.276c.28 0 .512.092.696.276.192.184.288.424.288.72a.977.977 0 01-.288.72.97.97 0 01-.696.276zm5.357.036a3.28 3.28 0 01-1.8-.504c-.528-.344-.944-.84-1.248-1.488-.304-.656-.456-1.432-.456-2.328 0-.896.152-1.668.456-2.316.304-.656.72-1.152 1.248-1.488a3.224 3.224 0 011.8-.516c.672 0 1.272.172 1.8.516.536.336.956.832 1.26 1.488.304.648.456 1.42.456 2.316 0 .896-.152 1.672-.456 2.328-.304.648-.724 1.144-1.26 1.488a3.28 3.28 0 01-1.8.504zm0-1.356c.6 0 1.072-.248 1.416-.744.352-.496.528-1.236.528-2.22 0-.984-.176-1.724-.528-2.22-.344-.496-.816-.744-1.416-.744-.592 0-1.064.248-1.416.744-.344.496-.516 1.236-.516 2.22 0 .984.172 1.724.516 2.22.352.496.824.744 1.416.744zm10.018-3.18c.44.2.776.472 1.008.816.24.336.36.732.36 1.188 0 .512-.144.96-.432 1.344-.28.384-.68.68-1.2.888-.52.2-1.124.3-1.812.3s-1.292-.1-1.812-.3c-.512-.208-.908-.504-1.188-.888a2.22 2.22 0 01-.42-1.344c0-.456.116-.852.348-1.188.232-.344.564-.616.996-.816a2.06 2.06 0 01-.78-.72 2.045 2.045 0 01-.264-1.044c0-.472.128-.884.384-1.236.264-.352.632-.624 1.104-.816.472-.192 1.016-.288 1.632-.288.624 0 1.172.096 1.644.288.472.192.84.464 1.104.816.264.352.396.764.396 1.236 0 .392-.092.736-.276 1.032-.184.296-.448.54-.792.732zm-2.076-2.88c-.488 0-.876.104-1.164.312-.28.208-.42.5-.42.876 0 .36.14.648.42.864.288.208.676.312 1.164.312.496 0 .888-.104 1.176-.312.288-.216.432-.504.432-.864 0-.376-.148-.668-.444-.876-.288-.208-.676-.312-1.164-.312zm0 6.192c.576 0 1.032-.12 1.368-.36.336-.24.504-.572.504-.996 0-.416-.168-.744-.504-.984-.336-.24-.792-.36-1.368-.36-.576 0-1.028.12-1.356.36-.328.24-.492.568-.492.984 0 .424.164.756.492.996.328.24.78.36 1.356.36zm28.069-.216V448h-6.192v-1.044l3.336-3.168c.376-.36.628-.672.756-.936.136-.272.204-.54.204-.804 0-.392-.132-.692-.396-.9-.264-.208-.652-.312-1.164-.312-.856 0-1.512.292-1.968.876l-1.092-.84c.328-.44.768-.78 1.32-1.02a4.574 4.574 0 011.872-.372c.912 0 1.64.216 2.184.648.544.432.816 1.02.816 1.764 0 .456-.096.884-.288 1.284-.192.4-.56.856-1.104 1.368l-2.244 2.136h3.96zm4.682-3.864c.552 0 1.048.108 1.488.324.44.208.784.508 1.032.9s.372.844.372 1.356c0 .544-.136 1.024-.408 1.44-.272.408-.64.724-1.104.948a3.542 3.542 0 01-1.56.336c-1.152 0-2.048-.36-2.688-1.08-.632-.72-.948-1.752-.948-3.096 0-.944.172-1.748.516-2.412.344-.672.824-1.18 1.44-1.524.624-.352 1.344-.528 2.16-.528.432 0 .836.048 1.212.144.384.088.716.22.996.396l-.576 1.176c-.416-.272-.948-.408-1.596-.408-.808 0-1.44.248-1.896.744-.456.496-.684 1.212-.684 2.148v.012c.248-.288.564-.504.948-.648a3.496 3.496 0 011.296-.228zm-.264 4.08c.488 0 .884-.128 1.188-.384.304-.264.456-.612.456-1.044 0-.44-.152-.788-.456-1.044-.304-.256-.712-.384-1.224-.384-.504 0-.916.136-1.236.408a1.31 1.31 0 00-.468 1.032c0 .408.152.748.456 1.02.312.264.74.396 1.284.396zm5.024 1.188a.97.97 0 01-.696-.276.977.977 0 01-.288-.72c0-.296.092-.536.276-.72a.984.984 0 01.708-.276c.28 0 .512.092.696.276.192.184.288.424.288.72a.977.977 0 01-.288.72.97.97 0 01-.696.276zm5.357.036a3.28 3.28 0 01-1.8-.504c-.528-.344-.944-.84-1.248-1.488-.304-.656-.456-1.432-.456-2.328 0-.896.152-1.668.456-2.316.304-.656.72-1.152 1.248-1.488a3.224 3.224 0 011.8-.516c.672 0 1.272.172 1.8.516.536.336.956.832 1.26 1.488.304.648.456 1.42.456 2.316 0 .896-.152 1.672-.456 2.328-.304.648-.724 1.144-1.26 1.488a3.28 3.28 0 01-1.8.504zm0-1.356c.6 0 1.072-.248 1.416-.744.352-.496.528-1.236.528-2.22 0-.984-.176-1.724-.528-2.22-.344-.496-.816-.744-1.416-.744-.592 0-1.064.248-1.416.744-.344.496-.516 1.236-.516 2.22 0 .984.172 1.724.516 2.22.352.496.824.744 1.416.744zm10.019-3.18c.44.2.776.472 1.008.816.24.336.36.732.36 1.188 0 .512-.144.96-.432 1.344-.28.384-.68.68-1.2.888-.52.2-1.124.3-1.812.3s-1.292-.1-1.812-.3c-.512-.208-.908-.504-1.188-.888a2.22 2.22 0 01-.42-1.344c0-.456.116-.852.348-1.188.232-.344.564-.616.996-.816a2.06 2.06 0 01-.78-.72 2.045 2.045 0 01-.264-1.044c0-.472.128-.884.384-1.236.264-.352.632-.624 1.104-.816.472-.192 1.016-.288 1.632-.288.624 0 1.172.096 1.644.288.472.192.84.464 1.104.816.264.352.396.764.396 1.236 0 .392-.092.736-.276 1.032-.184.296-.448.54-.792.732zm-2.076-2.88c-.488 0-.876.104-1.164.312-.28.208-.42.5-.42.876 0 .36.14.648.42.864.288.208.676.312 1.164.312.496 0 .888-.104 1.176-.312.288-.216.432-.504.432-.864 0-.376-.148-.668-.444-.876-.288-.208-.676-.312-1.164-.312zm0 6.192c.576 0 1.032-.12 1.368-.36.336-.24.504-.572.504-.996 0-.416-.168-.744-.504-.984-.336-.24-.792-.36-1.368-.36-.576 0-1.028.12-1.356.36-.328.24-.492.568-.492.984 0 .424.164.756.492.996.328.24.78.36 1.356.36zm27.37-.216V448h-6.192v-1.044l3.336-3.168c.376-.36.628-.672.756-.936.136-.272.204-.54.204-.804 0-.392-.132-.692-.396-.9-.264-.208-.652-.312-1.164-.312-.856 0-1.512.292-1.968.876l-1.092-.84c.328-.44.768-.78 1.32-1.02a4.574 4.574 0 011.872-.372c.912 0 1.64.216 2.184.648.544.432.816 1.02.816 1.764 0 .456-.096.884-.288 1.284-.192.4-.56.856-1.104 1.368l-2.244 2.136h3.96zm3.732-7.2c1.152 0 2.044.36 2.676 1.08.64.72.96 1.752.96 3.096 0 .944-.172 1.752-.516 2.424a3.612 3.612 0 01-1.452 1.524c-.616.344-1.332.516-2.148.516-.432 0-.84-.044-1.224-.132a3.433 3.433 0 01-.984-.408l.576-1.176c.416.272.948.408 1.596.408.808 0 1.44-.248 1.896-.744.456-.496.684-1.212.684-2.148v-.012a2.384 2.384 0 01-.948.66 3.67 3.67 0 01-1.296.216 3.44 3.44 0 01-1.488-.312 2.489 2.489 0 01-1.032-.912 2.482 2.482 0 01-.372-1.356c0-.544.136-1.02.408-1.428.272-.416.64-.736 1.104-.96a3.542 3.542 0 011.56-.336zm.12 4.08c.504 0 .912-.136 1.224-.408.32-.272.48-.616.48-1.032 0-.408-.156-.744-.468-1.008-.304-.272-.728-.408-1.272-.408-.488 0-.884.132-1.188.396-.304.256-.456.6-.456 1.032 0 .44.152.788.456 1.044.304.256.712.384 1.224.384zm5.367 4.524a.97.97 0 01-.696-.276.977.977 0 01-.288-.72c0-.296.092-.536.276-.72a.984.984 0 01.708-.276c.28 0 .512.092.696.276.192.184.288.424.288.72a.977.977 0 01-.288.72.97.97 0 01-.696.276zm5.357.036a3.28 3.28 0 01-1.8-.504c-.528-.344-.944-.84-1.248-1.488-.304-.656-.456-1.432-.456-2.328 0-.896.152-1.668.456-2.316.304-.656.72-1.152 1.248-1.488a3.224 3.224 0 011.8-.516c.672 0 1.272.172 1.8.516.536.336.956.832 1.26 1.488.304.648.456 1.42.456 2.316 0 .896-.152 1.672-.456 2.328-.304.648-.724 1.144-1.26 1.488a3.28 3.28 0 01-1.8.504zm0-1.356c.6 0 1.072-.248 1.416-.744.352-.496.528-1.236.528-2.22 0-.984-.176-1.724-.528-2.22-.344-.496-.816-.744-1.416-.744-.592 0-1.064.248-1.416.744-.344.496-.516 1.236-.516 2.22 0 .984.172 1.724.516 2.22.352.496.824.744 1.416.744zm10.018-3.18c.44.2.776.472 1.008.816.24.336.36.732.36 1.188 0 .512-.144.96-.432 1.344-.28.384-.68.68-1.2.888-.52.2-1.124.3-1.812.3s-1.292-.1-1.812-.3c-.512-.208-.908-.504-1.188-.888a2.22 2.22 0 01-.42-1.344c0-.456.116-.852.348-1.188.232-.344.564-.616.996-.816a2.06 2.06 0 01-.78-.72 2.045 2.045 0 01-.264-1.044c0-.472.128-.884.384-1.236.264-.352.632-.624 1.104-.816.472-.192 1.016-.288 1.632-.288.624 0 1.172.096 1.644.288.472.192.84.464 1.104.816.264.352.396.764.396 1.236 0 .392-.092.736-.276 1.032-.184.296-.448.54-.792.732zm-2.076-2.88c-.488 0-.876.104-1.164.312-.28.208-.42.5-.42.876 0 .36.14.648.42.864.288.208.676.312 1.164.312.496 0 .888-.104 1.176-.312.288-.216.432-.504.432-.864 0-.376-.148-.668-.444-.876-.288-.208-.676-.312-1.164-.312zm0 6.192c.576 0 1.032-.12 1.368-.36.336-.24.504-.572.504-.996 0-.416-.168-.744-.504-.984-.336-.24-.792-.36-1.368-.36-.576 0-1.028.12-1.356.36-.328.24-.492.568-.492.984 0 .424.164.756.492.996.328.24.78.36 1.356.36zm28.88-3.828c.776.096 1.368.36 1.776.792.408.432.612.972.612 1.62 0 .488-.124.932-.372 1.332s-.624.72-1.128.96c-.496.232-1.104.348-1.824.348-.6 0-1.18-.084-1.74-.252a4.535 4.535 0 01-1.416-.72l.672-1.212c.304.256.672.46 1.104.612.44.144.892.216 1.356.216.552 0 .984-.112 1.296-.336.32-.232.48-.544.48-.936s-.152-.696-.456-.912c-.296-.224-.752-.336-1.368-.336h-.768v-1.068l1.908-2.268h-3.816V439.6h5.724v1.044l-2.04 2.424zm6.312-3.468v8.4h-1.56v-7.092h-1.776V439.6h3.336zm2.603 8.484a.97.97 0 01-.696-.276.977.977 0 01-.288-.72c0-.296.092-.536.276-.72a.984.984 0 01.708-.276c.28 0 .512.092.696.276.192.184.288.424.288.72a.977.977 0 01-.288.72.97.97 0 01-.696.276zm5.357.036a3.28 3.28 0 01-1.8-.504c-.528-.344-.944-.84-1.248-1.488-.304-.656-.456-1.432-.456-2.328 0-.896.152-1.668.456-2.316.304-.656.72-1.152 1.248-1.488a3.224 3.224 0 011.8-.516c.672 0 1.272.172 1.8.516.536.336.956.832 1.26 1.488.304.648.456 1.42.456 2.316 0 .896-.152 1.672-.456 2.328-.304.648-.724 1.144-1.26 1.488a3.28 3.28 0 01-1.8.504zm0-1.356c.6 0 1.072-.248 1.416-.744.352-.496.528-1.236.528-2.22 0-.984-.176-1.724-.528-2.22-.344-.496-.816-.744-1.416-.744-.592 0-1.064.248-1.416.744-.344.496-.516 1.236-.516 2.22 0 .984.172 1.724.516 2.22.352.496.824.744 1.416.744zm10.018-3.18c.44.2.776.472 1.008.816.24.336.36.732.36 1.188 0 .512-.144.96-.432 1.344-.28.384-.68.68-1.2.888-.52.2-1.124.3-1.812.3s-1.292-.1-1.812-.3c-.512-.208-.908-.504-1.188-.888a2.22 2.22 0 01-.42-1.344c0-.456.116-.852.348-1.188.232-.344.564-.616.996-.816a2.06 2.06 0 01-.78-.72 2.045 2.045 0 01-.264-1.044c0-.472.128-.884.384-1.236.264-.352.632-.624 1.104-.816.472-.192 1.016-.288 1.632-.288.624 0 1.172.096 1.644.288.472.192.84.464 1.104.816.264.352.396.764.396 1.236 0 .392-.092.736-.276 1.032-.184.296-.448.54-.792.732zm-2.076-2.88c-.488 0-.876.104-1.164.312-.28.208-.42.5-.42.876 0 .36.14.648.42.864.288.208.676.312 1.164.312.496 0 .888-.104 1.176-.312.288-.216.432-.504.432-.864 0-.376-.148-.668-.444-.876-.288-.208-.676-.312-1.164-.312zm0 6.192c.576 0 1.032-.12 1.368-.36.336-.24.504-.572.504-.996 0-.416-.168-.744-.504-.984-.336-.24-.792-.36-1.368-.36-.576 0-1.028.12-1.356.36-.328.24-.492.568-.492.984 0 .424.164.756.492.996.328.24.78.36 1.356.36zm26.673 1.224a3.28 3.28 0 01-1.8-.504c-.528-.344-.944-.84-1.248-1.488-.304-.656-.456-1.432-.456-2.328 0-.896.152-1.668.456-2.316.304-.656.72-1.152 1.248-1.488a3.224 3.224 0 011.8-.516c.672 0 1.272.172 1.8.516.536.336.956.832 1.26 1.488.304.648.456 1.42.456 2.316 0 .896-.152 1.672-.456 2.328-.304.648-.724 1.144-1.26 1.488a3.28 3.28 0 01-1.8.504zm0-1.356c.6 0 1.072-.248 1.416-.744.352-.496.528-1.236.528-2.22 0-.984-.176-1.724-.528-2.22-.344-.496-.816-.744-1.416-.744-.592 0-1.064.248-1.416.744-.344.496-.516 1.236-.516 2.22 0 .984.172 1.724.516 2.22.352.496.824.744 1.416.744zm8.029-3.696c.776.096 1.368.36 1.776.792.408.432.612.972.612 1.62 0 .488-.124.932-.372 1.332s-.624.72-1.128.96c-.496.232-1.104.348-1.824.348-.6 0-1.18-.084-1.74-.252a4.535 4.535 0 01-1.416-.72l.672-1.212c.304.256.672.46 1.104.612.44.144.892.216 1.356.216.552 0 .984-.112 1.296-.336.32-.232.48-.544.48-.936s-.152-.696-.456-.912c-.296-.224-.752-.336-1.368-.336h-.768v-1.068l1.908-2.268h-3.816V439.6h5.724v1.044l-2.04 2.424zm4.344 5.016a.97.97 0 01-.696-.276.977.977 0 01-.288-.72c0-.296.092-.536.276-.72a.984.984 0 01.708-.276c.28 0 .512.092.696.276.192.184.288.424.288.72a.977.977 0 01-.288.72.97.97 0 01-.696.276zm5.357.036a3.28 3.28 0 01-1.8-.504c-.528-.344-.944-.84-1.248-1.488-.304-.656-.456-1.432-.456-2.328 0-.896.152-1.668.456-2.316.304-.656.72-1.152 1.248-1.488a3.224 3.224 0 011.8-.516c.672 0 1.272.172 1.8.516.536.336.956.832 1.26 1.488.304.648.456 1.42.456 2.316 0 .896-.152 1.672-.456 2.328-.304.648-.724 1.144-1.26 1.488a3.28 3.28 0 01-1.8.504zm0-1.356c.6 0 1.072-.248 1.416-.744.352-.496.528-1.236.528-2.22 0-.984-.176-1.724-.528-2.22-.344-.496-.816-.744-1.416-.744-.592 0-1.064.248-1.416.744-.344.496-.516 1.236-.516 2.22 0 .984.172 1.724.516 2.22.352.496.824.744 1.416.744zm7.403-7.284c1.152 0 2.044.36 2.676 1.08.64.72.96 1.752.96 3.096 0 .944-.172 1.752-.516 2.424a3.612 3.612 0 01-1.452 1.524c-.616.344-1.332.516-2.148.516-.432 0-.84-.044-1.224-.132a3.433 3.433 0 01-.984-.408l.576-1.176c.416.272.948.408 1.596.408.808 0 1.44-.248 1.896-.744.456-.496.684-1.212.684-2.148v-.012a2.384 2.384 0 01-.948.66 3.67 3.67 0 01-1.296.216 3.44 3.44 0 01-1.488-.312 2.489 2.489 0 01-1.032-.912 2.482 2.482 0 01-.372-1.356c0-.544.136-1.02.408-1.428.272-.416.64-.736 1.104-.96a3.542 3.542 0 011.56-.336zm.12 4.08c.504 0 .912-.136 1.224-.408.32-.272.48-.616.48-1.032 0-.408-.156-.744-.468-1.008-.304-.272-.728-.408-1.272-.408-.488 0-.884.132-1.188.396-.304.256-.456.6-.456 1.032 0 .44.152.788.456 1.044.304.256.712.384 1.224.384zm25.86 4.56a3.28 3.28 0 01-1.8-.504c-.528-.344-.944-.84-1.248-1.488-.304-.656-.456-1.432-.456-2.328 0-.896.152-1.668.456-2.316.304-.656.72-1.152 1.248-1.488a3.224 3.224 0 011.8-.516c.672 0 1.272.172 1.8.516.536.336.956.832 1.26 1.488.304.648.456 1.42.456 2.316 0 .896-.152 1.672-.456 2.328-.304.648-.724 1.144-1.26 1.488a3.28 3.28 0 01-1.8.504zm0-1.356c.6 0 1.072-.248 1.416-.744.352-.496.528-1.236.528-2.22 0-.984-.176-1.724-.528-2.22-.344-.496-.816-.744-1.416-.744-.592 0-1.064.248-1.416.744-.344.496-.516 1.236-.516 2.22 0 .984.172 1.724.516 2.22.352.496.824.744 1.416.744zm8.386-3.948c.552 0 1.048.108 1.488.324.44.208.784.508 1.032.9s.372.844.372 1.356c0 .544-.136 1.024-.408 1.44-.272.408-.64.724-1.104.948a3.542 3.542 0 01-1.56.336c-1.152 0-2.048-.36-2.688-1.08-.632-.72-.948-1.752-.948-3.096 0-.944.172-1.748.516-2.412.344-.672.824-1.18 1.44-1.524.624-.352 1.344-.528 2.16-.528.432 0 .836.048 1.212.144.384.088.716.22.996.396l-.576 1.176c-.416-.272-.948-.408-1.596-.408-.808 0-1.44.248-1.896.744-.456.496-.684 1.212-.684 2.148v.012c.248-.288.564-.504.948-.648a3.496 3.496 0 011.296-.228zm-.264 4.08c.488 0 .884-.128 1.188-.384.304-.264.456-.612.456-1.044 0-.44-.152-.788-.456-1.044-.304-.256-.712-.384-1.224-.384-.504 0-.916.136-1.236.408a1.31 1.31 0 00-.468 1.032c0 .408.152.748.456 1.02.312.264.74.396 1.284.396zm5.025 1.188a.97.97 0 01-.696-.276.977.977 0 01-.288-.72c0-.296.092-.536.276-.72a.984.984 0 01.708-.276c.28 0 .512.092.696.276.192.184.288.424.288.72a.977.977 0 01-.288.72.97.97 0 01-.696.276zm5.357.036a3.28 3.28 0 01-1.8-.504c-.528-.344-.944-.84-1.248-1.488-.304-.656-.456-1.432-.456-2.328 0-.896.152-1.668.456-2.316.304-.656.72-1.152 1.248-1.488a3.224 3.224 0 011.8-.516c.672 0 1.272.172 1.8.516.536.336.956.832 1.26 1.488.304.648.456 1.42.456 2.316 0 .896-.152 1.672-.456 2.328-.304.648-.724 1.144-1.26 1.488a3.28 3.28 0 01-1.8.504zm0-1.356c.6 0 1.072-.248 1.416-.744.352-.496.528-1.236.528-2.22 0-.984-.176-1.724-.528-2.22-.344-.496-.816-.744-1.416-.744-.592 0-1.064.248-1.416.744-.344.496-.516 1.236-.516 2.22 0 .984.172 1.724.516 2.22.352.496.824.744 1.416.744zm7.402-7.284c1.152 0 2.044.36 2.676 1.08.64.72.96 1.752.96 3.096 0 .944-.172 1.752-.516 2.424a3.612 3.612 0 01-1.452 1.524c-.616.344-1.332.516-2.148.516-.432 0-.84-.044-1.224-.132a3.433 3.433 0 01-.984-.408l.576-1.176c.416.272.948.408 1.596.408.808 0 1.44-.248 1.896-.744.456-.496.684-1.212.684-2.148v-.012a2.384 2.384 0 01-.948.66 3.67 3.67 0 01-1.296.216 3.44 3.44 0 01-1.488-.312 2.489 2.489 0 01-1.032-.912 2.482 2.482 0 01-.372-1.356c0-.544.136-1.02.408-1.428.272-.416.64-.736 1.104-.96a3.542 3.542 0 011.56-.336zm.12 4.08c.504 0 .912-.136 1.224-.408.32-.272.48-.616.48-1.032 0-.408-.156-.744-.468-1.008-.304-.272-.728-.408-1.272-.408-.488 0-.884.132-1.188.396-.304.256-.456.6-.456 1.032 0 .44.152.788.456 1.044.304.256.712.384 1.224.384zm24.603 4.56a3.28 3.28 0 01-1.8-.504c-.528-.344-.944-.84-1.248-1.488-.304-.656-.456-1.432-.456-2.328 0-.896.152-1.668.456-2.316.304-.656.72-1.152 1.248-1.488a3.224 3.224 0 011.8-.516c.672 0 1.272.172 1.8.516.536.336.956.832 1.26 1.488.304.648.456 1.42.456 2.316 0 .896-.152 1.672-.456 2.328-.304.648-.724 1.144-1.26 1.488a3.28 3.28 0 01-1.8.504zm0-1.356c.6 0 1.072-.248 1.416-.744.352-.496.528-1.236.528-2.22 0-.984-.176-1.724-.528-2.22-.344-.496-.816-.744-1.416-.744-.592 0-1.064.248-1.416.744-.344.496-.516 1.236-.516 2.22 0 .984.172 1.724.516 2.22.352.496.824.744 1.416.744zm7.402-7.284c1.152 0 2.044.36 2.676 1.08.64.72.96 1.752.96 3.096 0 .944-.172 1.752-.516 2.424a3.612 3.612 0 01-1.452 1.524c-.616.344-1.332.516-2.148.516-.432 0-.84-.044-1.224-.132a3.433 3.433 0 01-.984-.408l.576-1.176c.416.272.948.408 1.596.408.808 0 1.44-.248 1.896-.744.456-.496.684-1.212.684-2.148v-.012a2.384 2.384 0 01-.948.66 3.67 3.67 0 01-1.296.216 3.44 3.44 0 01-1.488-.312 2.489 2.489 0 01-1.032-.912 2.482 2.482 0 01-.372-1.356c0-.544.136-1.02.408-1.428.272-.416.64-.736 1.104-.96a3.542 3.542 0 011.56-.336zm.12 4.08c.504 0 .912-.136 1.224-.408.32-.272.48-.616.48-1.032 0-.408-.156-.744-.468-1.008-.304-.272-.728-.408-1.272-.408-.488 0-.884.132-1.188.396-.304.256-.456.6-.456 1.032 0 .44.152.788.456 1.044.304.256.712.384 1.224.384zm5.367 4.524a.97.97 0 01-.696-.276.977.977 0 01-.288-.72c0-.296.092-.536.276-.72a.984.984 0 01.708-.276c.28 0 .512.092.696.276.192.184.288.424.288.72a.977.977 0 01-.288.72.97.97 0 01-.696.276zm5.357.036a3.28 3.28 0 01-1.8-.504c-.528-.344-.944-.84-1.248-1.488-.304-.656-.456-1.432-.456-2.328 0-.896.152-1.668.456-2.316.304-.656.72-1.152 1.248-1.488a3.224 3.224 0 011.8-.516c.672 0 1.272.172 1.8.516.536.336.956.832 1.26 1.488.304.648.456 1.42.456 2.316 0 .896-.152 1.672-.456 2.328-.304.648-.724 1.144-1.26 1.488a3.28 3.28 0 01-1.8.504zm0-1.356c.6 0 1.072-.248 1.416-.744.352-.496.528-1.236.528-2.22 0-.984-.176-1.724-.528-2.22-.344-.496-.816-.744-1.416-.744-.592 0-1.064.248-1.416.744-.344.496-.516 1.236-.516 2.22 0 .984.172 1.724.516 2.22.352.496.824.744 1.416.744zm7.402-7.284c1.152 0 2.044.36 2.676 1.08.64.72.96 1.752.96 3.096 0 .944-.172 1.752-.516 2.424a3.612 3.612 0 01-1.452 1.524c-.616.344-1.332.516-2.148.516-.432 0-.84-.044-1.224-.132a3.433 3.433 0 01-.984-.408l.576-1.176c.416.272.948.408 1.596.408.808 0 1.44-.248 1.896-.744.456-.496.684-1.212.684-2.148v-.012a2.384 2.384 0 01-.948.66 3.67 3.67 0 01-1.296.216 3.44 3.44 0 01-1.488-.312 2.489 2.489 0 01-1.032-.912 2.482 2.482 0 01-.372-1.356c0-.544.136-1.02.408-1.428.272-.416.64-.736 1.104-.96a3.542 3.542 0 011.56-.336zm.12 4.08c.504 0 .912-.136 1.224-.408.32-.272.48-.616.48-1.032 0-.408-.156-.744-.468-1.008-.304-.272-.728-.408-1.272-.408-.488 0-.884.132-1.188.396-.304.256-.456.6-.456 1.032 0 .44.152.788.456 1.044.304.256.712.384 1.224.384zm11.025-3.96v8.4h-1.56v-7.092h-1.776V439.6h3.336zm7.75 7.08V448h-6.192v-1.044l3.336-3.168c.376-.36.628-.672.756-.936.136-.272.204-.54.204-.804 0-.392-.132-.692-.396-.9-.264-.208-.652-.312-1.164-.312-.856 0-1.512.292-1.968.876l-1.092-.84c.328-.44.768-.78 1.32-1.02a4.574 4.574 0 011.872-.372c.912 0 1.64.216 2.184.648.544.432.816 1.02.816 1.764 0 .456-.096.884-.288 1.284-.192.4-.56.856-1.104 1.368l-2.244 2.136h3.96zm1.954 1.404a.97.97 0 01-.696-.276.977.977 0 01-.288-.72c0-.296.092-.536.276-.72a.984.984 0 01.708-.276c.28 0 .512.092.696.276.192.184.288.424.288.72a.977.977 0 01-.288.72.97.97 0 01-.696.276zm5.357.036a3.28 3.28 0 01-1.8-.504c-.528-.344-.944-.84-1.248-1.488-.304-.656-.456-1.432-.456-2.328 0-.896.152-1.668.456-2.316.304-.656.72-1.152 1.248-1.488a3.224 3.224 0 011.8-.516c.672 0 1.272.172 1.8.516.536.336.956.832 1.26 1.488.304.648.456 1.42.456 2.316 0 .896-.152 1.672-.456 2.328-.304.648-.724 1.144-1.26 1.488a3.28 3.28 0 01-1.8.504zm0-1.356c.6 0 1.072-.248 1.416-.744.352-.496.528-1.236.528-2.22 0-.984-.176-1.724-.528-2.22-.344-.496-.816-.744-1.416-.744-.592 0-1.064.248-1.416.744-.344.496-.516 1.236-.516 2.22 0 .984.172 1.724.516 2.22.352.496.824.744 1.416.744zm7.402-7.284c1.152 0 2.044.36 2.676 1.08.64.72.96 1.752.96 3.096 0 .944-.172 1.752-.516 2.424a3.612 3.612 0 01-1.452 1.524c-.616.344-1.332.516-2.148.516-.432 0-.84-.044-1.224-.132a3.433 3.433 0 01-.984-.408l.576-1.176c.416.272.948.408 1.596.408.808 0 1.44-.248 1.896-.744.456-.496.684-1.212.684-2.148v-.012a2.384 2.384 0 01-.948.66 3.67 3.67 0 01-1.296.216 3.44 3.44 0 01-1.488-.312 2.489 2.489 0 01-1.032-.912 2.482 2.482 0 01-.372-1.356c0-.544.136-1.02.408-1.428.272-.416.64-.736 1.104-.96a3.542 3.542 0 011.56-.336zm.12 4.08c.504 0 .912-.136 1.224-.408.32-.272.48-.616.48-1.032 0-.408-.156-.744-.468-1.008-.304-.272-.728-.408-1.272-.408-.488 0-.884.132-1.188.396-.304.256-.456.6-.456 1.032 0 .44.152.788.456 1.044.304.256.712.384 1.224.384z" fill="#A6ACB7"/><path d="M61.5 401.5H48v27h778.5v-384l-51 15.5-51 52.5-50 34-52 14h-51l-51 19h-50l-52 9.5-51 75.5-51 15-51 47-51 7.5-51 25-51 10-51 32.5z" fill="url(#paint0_linear_851_5340)"/><path stroke="#282C33" d="M316.5 9v420"/><path d="M48 401.5h13.5l51-32.5 51-10.5 51-24.5 51-7.5 51-46.5 51-15.5 51-75.5 51-9.5h51l51-19h51l51-14L724 113l51-53 51-15" stroke="#0065FF" stroke-width="2" stroke-linecap="round"/><circle cx="214.5" cy="334.5" r="3.5" fill="#fff" stroke="#0065FF" stroke-width="2"/><circle cx="163.5" cy="358.5" r="3.5" fill="#fff" stroke="#0065FF" stroke-width="2"/><circle cx="112.5" cy="369.5" r="3.5" fill="#fff" stroke="#0065FF" stroke-width="2"/><circle cx="61.5" cy="401.5" r="3.5" fill="#fff" stroke="#0065FF" stroke-width="2"/><circle cx="265.5" cy="326.5" r="3.5" fill="#fff" stroke="#0065FF" stroke-width="2"/><circle cx="316.5" cy="280.5" r="3.5" fill="#fff" stroke="#0065FF" stroke-width="2"/><circle cx="367.5" cy="264.5" r="3.5" fill="#fff" stroke="#0065FF" stroke-width="2"/><circle cx="418.5" cy="189.5" r="3.5" fill="#fff" stroke="#0065FF" stroke-width="2"/><circle cx="469.5" cy="179.5" r="3.5" fill="#fff" stroke="#0065FF" stroke-width="2"/><circle cx="520.5" cy="179.5" r="3.5" fill="#fff" stroke="#0065FF" stroke-width="2"/><circle cx="571.5" cy="160.5" r="3.5" fill="#fff" stroke="#0065FF" stroke-width="2"/><circle cx="622.5" cy="160.5" r="3.5" fill="#fff" stroke="#0065FF" stroke-width="2"/><circle cx="673.5" cy="146.5" r="3.5" fill="#fff" stroke="#0065FF" stroke-width="2"/><circle cx="724.5" cy="112.5" r="3.5" fill="#fff" stroke="#0065FF" stroke-width="2"/><circle cx="775.5" cy="60.5" r="3.5" fill="#fff" stroke="#0065FF" stroke-width="2"/><circle cx="825.5" cy="44.5" r="3.5" fill="#fff" stroke="#0065FF" stroke-width="2"/><defs><linearGradient id="paint0_linear_851_5340" x1="269.5" y1="215.5" x2="309.75" y2="428.5" gradientUnits="userSpaceOnUse"><stop stop-color="#0065FF" stop-opacity=".19"/><stop offset="1" stop-color="#0065FF" stop-opacity=".04"/></linearGradient></defs></svg>