<svg width="361" height="100" fill="none" xmlns="http://www.w3.org/2000/svg"><g clip-path="url(#clip0_951_2925)"><path d="M0 78.571c30 0 23-5.357 40-5.357s18-16.428 40-16.428 15 11.428 40 11.428 18-26.785 40-26.785S178.5 30 200 30s22 16.071 39.5 16.071 21 12.858 40.5 12.858 20-33.215 40-33.215S339 0 360 0" stroke="#4A92FF"/><path d="M40 73.214c-17 0-10 5.357-40 5.357v19.643h360V0c-21 0-20 25.714-40 25.714S299.5 58.93 280 58.93s-23-12.86-40.5-12.86S221.5 30 200 30s-18 11.429-40 11.429-15 26.785-40 26.785-18-11.428-40-11.428-23 16.428-40 16.428z" fill="url(#paint0_linear_951_2925)" fill-opacity=".2"/></g><defs><linearGradient id="paint0_linear_951_2925" x1="180" y1="0" x2="180" y2="98.571" gradientUnits="userSpaceOnUse"><stop stop-color="#0065FF"/><stop offset="1" stop-color="#0065FF" stop-opacity="0"/></linearGradient><clipPath id="clip0_951_2925"><path fill="#fff" d="M0 0h361v100H0z"/></clipPath></defs></svg>