<svg width="61" height="36" fill="none" xmlns="http://www.w3.org/2000/svg"><path d="M12.552 18.755L.694 27.365c4.659-5.04 4.82-7.238 5.717-10.5 1.906-6.93 8.47-10.185 13.13-10.5 3.726-.252 6.387 1.33 7.093 2.1L17.53 15.08c.763-.802 2.418-2.177 2.329-2.94-.086-.735-1.165-.84-2.33-.525-2.626.71-4.376 4.865-4.976 7.14zm9.741-3.15c0-.475.141-1.96 0-2.73l12.917-9.66c-2.33 2.415-6.903 7.413-6.564 8.085.339.672.353 3.15.317 4.305-2.364.14-6.67.028-6.67 0zm-10.27 4.83l-6.988 5.04c0 .63.275 2.352 1.376 4.2 1.101 1.848 3.706 2.45 4.87 2.52L26.106 21.38c-2.647 1.931-5.082 1.68-5.082 1.68-1.377 3.57-3.643 4.305-5.93 4.305-2.858 0-3.494-1.575-3.494-3.36 0-1.428.283-2.975.424-3.57zm17.576-.42L8.846 35.24c1.694-.875 2.33-2.415 8.153-3.045 3.081-.333 7.941-3.15 9.212-6.825 1.016-2.94 2.682-4.795 3.388-5.355zm14.823-8.61h-5.506L53.316.8c-2.436 2.205-5.718 5.67-4.13 5.67h11.011l-1.164 4.935h-7.941L49.08 19.49l-10.482 7.77c.918-1.015 2.647-2.205 3.282-5.25.37-1.776 1.87-7.805 2.541-10.605zM40.61 27.26c3.31-2.412 10.12-7.383 11.96-8.762-5.23 4.027-6.246 11.31-6.455 13.382h-6.67l1.165-4.62zM37.751 6.47h5.823l-11.54 8.715c2.647-2.625 5.505-4.725 5.717-8.715z" fill="#282C33"/></svg>