<svg width="156" height="129" fill="none" xmlns="http://www.w3.org/2000/svg"><path opacity=".4" d="M155.609 91.185l-50.095-27.35-39.736 22.938-4.68-18.675L.407 102.334l1.758 1.013h44.908l42.583 24.578c.581.328 4.024.328 4.605 0l61.348-35.414a.758.758 0 000-1.326z" fill="#50197C"/><path d="M96.707 8.404a1.18 1.18 0 00-.79.15l-60.483 34.92.447.09L96.364 8.642a1.18 1.18 0 01.79-.15l-.447-.089zm-48.471 91.634l-13.28-54.014-.447-.09L47.79 99.95c.15.596.522.984.97 1.073l.446.089c-.447-.089-.82-.477-.968-1.073z" fill="#C0B9C8"/><path d="M35.88 43.55l-.447-.09c-.745.432-1.147 1.535-.924 2.474l.447.09c-.238-.94.18-2.042.925-2.474z" fill="#E0DBE1"/><path d="M111.387 63.581L98.107 9.567c-.223-.939-1.013-1.356-1.758-.924L35.866 43.565c-.746.432-1.148 1.535-.925 2.474l13.28 54.014c.224.939 1.014 1.356 1.76.924l60.482-34.921c.746-.433 1.163-1.536.924-2.475z" fill="#282525"/><path d="M108.779 59.438L96.692 10.223 36.298 45.1l12.117 49.2 60.364-34.862z" fill="url(#paint0_linear_93_14664)"/><path d="M49.384 100.247v1.684c0 .283.18.566.552.775l42.463 24.518c.745.432 1.938.432 2.668 0l60.081-34.921c.357-.209.551-.492.551-.76v-1.685L49.384 100.247z" fill="url(#paint1_linear_93_14664)"/><path d="M155.148 89.083l-42.463-24.518c-.745-.432-1.938-.432-2.668 0l-60.08 34.922c-.73.432-.73 1.118 0 1.55L92.4 125.555c.745.432 1.937.432 2.668 0l60.08-34.922c.746-.432.746-1.132 0-1.55z" fill="url(#paint2_linear_93_14664)"/><path d="M106.051 72.017v-.179c-.03-.119.03-.238.194-.327l2.817-1.625c.268-.164.715-.164.983 0l2.37 1.371c.164.09.209.209.194.328v.18c.03.118-.03.238-.194.327l-2.817 1.625c-.268.163-.715.163-.984 0l-2.369-1.372c-.164-.089-.209-.208-.194-.328zm4.739-2.28l2.37 1.371c.269.164.716.164.984 0l2.817-1.624c.164-.09.209-.209.194-.328v-.18c.03-.118-.03-.238-.194-.327l-2.37-1.371c-.268-.164-.715-.164-.984 0l-2.817 1.624c-.163.09-.208.209-.193.328v.18c-.03.103.03.223.193.327zm-9.091 5.232l2.369 1.37c.269.165.716.165.984 0l2.817-1.624c.164-.09.209-.209.194-.328v-.178c.03-.12-.03-.239-.194-.328l-2.37-1.372c-.268-.164-.715-.164-.983 0l-2.817 1.625c-.164.09-.209.209-.194.328v.179c-.015.119.045.238.194.328zm-34.147 29.228l2.37 1.371c.268.164.715.164.984 0l2.817-1.625c.164-.089.208-.208.193-.328v-.179c.03-.119-.03-.238-.193-.327l-2.37-1.372c-.268-.164-.716-.164-.984 0l-2.817 1.625c-.164.089-.209.209-.194.328v.179c-.03.104.03.238.194.328zm9.897-15.248l2.37 1.371c.268.164.715.164.983 0l2.817-1.624c.164-.09.209-.209.194-.328v-.179c.03-.12-.03-.238-.194-.328l-2.37-1.371c-.268-.164-.715-.164-.983 0l-2.817 1.625c-.164.089-.209.208-.194.327v.18c-.015.103.045.238.194.327zm9.092-5.246l2.37 1.37c.268.165.715.165.983 0l2.817-1.624c.164-.09.209-.208.194-.328v-.179c.03-.119-.03-.238-.194-.327l-2.37-1.372c-.268-.163-.715-.163-.983 0l-2.817 1.625c-.164.09-.209.209-.194.328v.179c-.03.119.03.238.194.328zm9.077-5.247l2.37 1.371c.268.164.715.164.983 0l4.278-2.474c.164-.09.208-.208.193-.328v-.179c.03-.119-.029-.238-.193-.327l-2.37-1.372c-.268-.163-.716-.163-.984 0l-4.277 2.475c-.164.089-.21.208-.194.328v.179c-.015.119.03.238.194.327zm-4.546 2.623l2.37 1.372c.268.164.715.164.983 0l2.817-1.625c.164-.09.209-.209.194-.328v-.179c.03-.119-.03-.238-.194-.328l-2.37-1.37c-.268-.165-.715-.165-.983 0l-2.817 1.624c-.164.09-.209.209-.194.328v.179c-.015.119.045.238.194.328zm-9.077 5.247l2.37 1.371c.268.164.715.164.983 0l2.817-1.624c.164-.09.209-.21.194-.328v-.18c.03-.118-.03-.238-.194-.327l-2.37-1.371c-.268-.164-.715-.164-.983 0l-2.817 1.624c-.164.09-.209.209-.194.328v.179c-.015.12.03.239.194.328zm19.316-6.335l2.37 1.372c.268.164.715.164.984 0l2.817-1.625c.164-.09.208-.209.193-.328v-.179c.03-.119-.029-.238-.193-.328l-2.37-1.37c-.268-.165-.716-.165-.984 0l-2.817 1.624c-.164.09-.209.208-.194.328v.178c-.015.105.03.239.194.328zm-36.323 20.971l2.37 1.371c.269.164.716.164.984 0l2.817-1.624c.164-.09.209-.209.194-.328v-.179c.03-.119-.03-.238-.194-.328l-2.37-1.371c-.268-.164-.715-.164-.984 0l-2.817 1.625c-.163.089-.208.208-.193.327v.179c-.015.105.03.239.194.328zm31.777-18.347l2.37 1.37c.268.165.715.165.984 0l2.817-1.624c.164-.09.208-.208.193-.328v-.178c.03-.12-.029-.239-.193-.328l-2.37-1.372c-.268-.164-.716-.164-.984 0l-2.817 1.625c-.164.09-.209.209-.194.328v.179c-.014.104.045.223.194.328zm-4.53 2.608l2.369 1.371c.268.164.716.164.984 0l2.817-1.624c.164-.09.208-.21.194-.328v-.18c.03-.118-.03-.238-.194-.327l-2.37-1.371c-.268-.164-.715-.164-.984 0l-2.817 1.624c-.164.09-.209.209-.194.328v.18c-.03.118.03.237.194.327zm-4.547 2.623l2.37 1.371c.268.164.715.164.984 0l2.817-1.624c.164-.09.209-.209.194-.328v-.179c.03-.12-.03-.238-.194-.328l-2.37-1.371c-.268-.164-.716-.164-.984 0l-2.817 1.624c-.164.09-.208.21-.194.328v.18c-.014.118.03.238.194.327zM69.534 98.34l2.37 1.371c.269.164.716.164.984 0l2.817-1.624c.164-.09.209-.209.194-.328v-.18c.03-.118-.03-.238-.194-.327l-2.37-1.371c-.268-.164-.715-.164-.984 0l-2.817 1.624c-.163.09-.208.209-.193.328v.18c-.03.103.03.238.193.327zm4.531-2.623l2.37 1.371c.269.164.716.164.984 0l2.817-1.625c.164-.089.209-.208.194-.328v-.179c.03-.119-.03-.238-.194-.327-3.473-2.012-2.31-1.968-6.17.253-.165.09-.21.209-.194.328v.179c-.015.12.044.238.193.328zm4.546-2.623l2.37 1.37c.269.165.716.165.984 0l2.817-1.624c.164-.09.209-.208.194-.328v-.179c.03-.119-.03-.238-.194-.328l-2.37-1.37c-.268-.165-.715-.165-.984 0l-2.817 1.624c-.164.09-.208.209-.193.328v.179c-.03.119.03.238.193.328zm4.531-2.624c2.326 1.342 2.728 1.73 3.354 1.372l2.817-1.625c.164-.09.209-.209.194-.328v-.179c.03-.119-.03-.238-.194-.328l-2.37-1.37c-.268-.165-.715-.165-.984 0l-2.817 1.624c-.164.09-.208.208-.193.328v.179c-.015.119.044.238.193.327zm-8.093 17.275v-.179c.03-.119-.03-.238-.194-.328l-2.37-1.371c-.268-.164-.715-.164-.983 0l-4.278 2.474c-.164.089-.209.209-.194.328v.179c-.03.119.03.238.194.328l2.37 1.371c.268.164.716.164.984 0l4.277-2.474c.164-.075.224-.209.194-.328zm-5.693-1.52v-.179c.03-.12-.03-.239-.194-.328l-2.37-1.371c-.268-.164-.716-.164-.984 0l-2.817 1.624c-.164.09-.208.209-.194.328v.179c-.03.119.03.238.194.328l2.37 1.371c.268.164.715.164.984 0l2.817-1.625c.164-.089.223-.208.194-.327zm3.562-14.652c3.413 1.968 2.235 2.012 6.17-.253.164-.09.209-.209.194-.328v-.179c.03-.119-.03-.238-.194-.328l-2.37-1.37c-.268-.165-.715-.165-.983 0l-2.817 1.624c-.164.09-.209.208-.194.328v.179c-.015.104.03.238.194.327zm47.575-10.016v-.179c.03-.119-.029-.238-.193-.327l-2.37-1.372c-.268-.163-.716-.163-.984 0l-2.817 1.625c-.164.09-.209.209-.194.328v.179c-.029.119.03.238.194.328l2.37 1.37c.268.165.715.165.984 0l2.817-1.624c.164-.09.208-.208.193-.328zM66.807 102.99v-.179c.03-.119-.03-.238-.194-.328l-2.37-1.371c-.268-.164-.715-.164-.983 0l-4.278 2.474c-.164.09-.209.209-.194.328v.179c-.03.119.03.239.194.328l2.37 1.371c.268.164.715.164.984 0l4.277-2.474c.164-.089.209-.208.194-.328zm1.565-8.794l2.37 1.372c.268.164.715.164.983 0l2.817-1.625c.164-.09.209-.208.194-.328v-.179c.03-.119-.03-.238-.194-.328l-2.37-1.37c-.268-.165-.715-.165-.983 0l-2.817 1.624c-.164.09-.209.209-.194.328v.179c-.015.104.045.223.194.328zm-4.531 2.609l2.37 1.371c.268.164.715.164.983 0l2.817-1.624c.164-.09.209-.21.194-.328v-.18c.03-.119-.03-.238-.194-.327l-2.37-1.371c-.268-.164-.715-.164-.983 0l-2.817 1.624c-.164.09-.209.209-.194.328v.179c-.03.12.03.238.194.328zm-2.728 4.65v-.179c.03-.119-.03-.238-.194-.328l-2.37-1.37c-.268-.165-.715-.165-.983 0l-2.817 1.624c-.164.089-.209.208-.194.328v.178c-.03.12.03.239.194.328l2.37 1.372c.268.164.715.164.983 0l2.818-1.625c.163-.074.208-.209.193-.328zm-1.818-2.027l2.37 1.371c.268.164.715.164.983 0l2.817-1.624c.164-.09.21-.209.194-.328v-.18c.03-.118-.03-.238-.194-.327l-2.37-1.371c-.268-.164-.715-.164-.983 0l-2.817 1.624c-.164.09-.209.21-.194.328v.18c-.015.118.03.238.194.327zm74.419-20.911c.03-.12-.03-.239-.194-.328l-2.37-1.371c-.268-.164-.715-.164-.983 0l-2.817 1.624c-.164.09-.209.209-.194.328v.18c-.03.118.03.238.194.327l2.369 1.371c.269.164.716.164.984 0l2.817-1.624c.164-.09.209-.209.194-.328v-.09a.094.094 0 000-.09zm-17.99 5.112l-2.37-1.371c-.268-.164-.715-.164-.984 0l-2.817 1.625c-.164.089-.208.208-.193.328v.179c-.03.118.029.238.193.327l2.37 1.371c.269.164.716.164.984 0l2.817-1.624c.164-.09.209-.209.194-.328v-.179c.015-.104-.03-.238-.194-.328zm9.122-5.216l-2.37-1.372c-.269-.164-.716-.164-.984 0l-2.817 1.625c-.164.09-.209.209-.194.328v.179c-.03.119.03.238.194.328l2.37 1.37c.268.165.715.165.984 0l2.817-1.624c.164-.09.208-.209.193-.328v-.179c.015-.119-.044-.238-.193-.328zm-18.199 10.463l-2.37-1.372c-.268-.164-.715-.164-.984 0l-2.817 1.625c-.163.09-.208.209-.193.328v.179c-.03.119.03.238.193.328l2.37 1.37c.269.165.716.165.984 0l2.817-1.624c.164-.09.209-.208.194-.328v-.178c.015-.12-.03-.239-.194-.328zm16.38-12.49v.179c-.03.119.03.238.194.327l2.37 1.371c.268.164.715.164.984 0l2.816-1.624c.164-.09.209-.209.194-.328v-.179c.03-.12-.03-.238-.194-.328l-2.369-1.371c-.269-.164-.716-.164-.984 0l-2.817 1.625c-.164.074-.224.208-.194.328zM88.478 99.367l-2.37-1.37c-.268-.165-.715-.165-.983 0l-2.817 1.624c-.164.09-.209.209-.194.328v.179c-.03.119.03.238.194.327l2.37 1.372c.268.164.715.164.983 0l2.817-1.625c.164-.089.209-.209.194-.328v-.179c.03-.119-.03-.238-.194-.328zm9.092-5.246L95.2 92.75c-.268-.164-.715-.164-.984 0L91.4 94.374c-.164.09-.21.21-.194.328v.18c-.03.118.03.238.194.327l2.37 1.371c.268.164.715.164.983 0l2.817-1.624c.164-.09.209-.209.194-.328v-.18c.015-.118-.045-.237-.194-.327zm-4.546 2.623l-2.37-1.371c-.268-.164-.715-.164-.983 0l-2.817 1.625c-.164.089-.209.208-.194.328v.179c-.03.119.03.238.194.327l2.37 1.372c.268.164.715.164.983 0l2.817-1.625c.164-.09.209-.209.194-.328v-.179c.015-.12-.03-.238-.194-.328zm-9.077 5.232l-2.37-1.371c-.268-.164-.715-.164-.983 0l-2.817 1.624c-.164.09-.209.209-.194.328v.179c-.03.119.03.238.194.328l2.37 1.371c.268.164.715.164.983 0l2.817-1.625c.164-.089.209-.208.194-.328v-.178c.015-.105-.045-.224-.194-.328zm-4.546 2.623l-2.37-1.371c-.268-.164-.715-.164-.983 0l-2.817 1.624c-.164.09-.209.209-.194.328v.179c-.03.119.03.239.194.328l2.37 1.371c.268.164.715.164.983 0l2.817-1.624c.164-.09.209-.209.194-.328v-.179c.03-.104-.03-.239-.194-.328zm22.7-13.101l-2.37-1.371c-.268-.164-.715-.164-.983 0L95.93 91.75c-.163.09-.208.209-.193.328v.179c-.03.12.03.238.194.328l2.37 1.371c.268.164.715.164.983 0l2.817-1.625c.164-.089.209-.208.194-.328v-.179c.03-.118-.03-.238-.194-.327zm9.092-5.247l-2.37-1.37c-.268-.165-.715-.165-.984 0l-2.817 1.624c-.164.09-.208.208-.193.328v.178c-.03.12.029.239.193.328l2.37 1.372c.269.164.716.164.984 0l2.817-1.625c.164-.09.209-.209.194-.328v-.179c.015-.104-.045-.238-.194-.328zM86.481 105.21l-2.37-1.371c-.268-.164-.715-.164-.984 0l-2.816 1.624c-.165.09-.21.209-.194.328v.179c-.03.119.03.239.194.328l2.37 1.371c.268.164.715.164.983 0l2.817-1.624c.164-.09.209-.209.194-.328v-.179c.03-.119-.03-.239-.194-.328zm4.546-2.623l-2.37-1.371c-.268-.164-.715-.164-.984 0l-2.817 1.624c-.164.09-.208.209-.193.328v.179c-.03.119.03.238.193.328l2.37 1.371c.269.164.716.164.984 0l2.817-1.625c.164-.089.209-.208.194-.327v-.179c.015-.105-.03-.239-.194-.328zm-9.077 5.246l-2.37-1.371c-.268-.164-.715-.164-.984 0l-2.817 1.625c-.163.089-.208.208-.193.328v.178c-.03.12.03.239.194.328l2.37 1.372c.268.164.715.164.983 0l2.817-1.625c.164-.089.209-.209.194-.328v-.179c.015-.119-.045-.238-.194-.328zm-4.546 2.623l-2.37-1.371c-.268-.164-.715-.164-.984 0l-2.816 1.625c-.164.089-.21.209-.194.328v.179c-.03.119.03.238.194.328l2.37 1.371c.268.164.715.164.983 0l2.817-1.625c.164-.089.209-.209.194-.328v-.179c.015-.119-.03-.238-.194-.328zm34.087-29.198l-2.37-1.37c-.268-.165-.715-.165-.984 0l-4.277 2.473c-.164.09-.209.209-.194.328v.179c-.03.12.03.239.194.328l2.37 1.371c.268.164.715.164.983 0l4.278-2.474c.164-.09.209-.209.194-.328v-.179c.03-.104-.03-.238-.194-.328zm8.212 4.77l-2.369-1.371c-.269-.164-.716-.164-.984 0l-4.278 2.474c-.164.09-.208.208-.193.328v.178c-.03.12.029.239.193.328l2.37 1.372c.268.164.716.164.984 0l4.277-2.475c.164-.089.209-.208.194-.327v-.18c.015-.104-.03-.238-.194-.327zm9.286-5.217l-2.37-1.371c-.268-.164-.715-.164-.983 0l-2.817 1.625c-.164.089-.209.208-.194.328v.179c-.03.118.03.238.194.327l2.369 1.371c.269.164.716.164.984 0l2.817-1.624c.164-.09.209-.209.194-.328v-.179c.015-.12-.03-.238-.194-.328zm-4.531 2.608l-2.37-1.37c-.268-.165-.715-.165-.983 0l-2.817 1.624c-.164.09-.209.209-.194.328v.179c-.03.119.03.238.194.327l2.369 1.372c.269.164.716.164.984 0l2.817-1.625c.164-.09.209-.209.194-.328v-.179c.015-.104-.045-.223-.194-.328zm-10.657 6.067l-2.37-1.371c-.268-.164-.715-.164-.983 0l-21.03 12.147c-.165.089-.21.208-.195.328v.178c-.03.12.03.239.194.328l2.37 1.372c.268.164.715.164.984 0L113.8 90.32c.164-.09.209-.208.194-.327v-.18c.015-.119-.03-.238-.194-.327zm-17.394.492l-2.37-1.372c-.268-.164-.715-.164-.983 0l-2.817 1.625c-.164.09-.209.209-.194.328v.179c-.03.119.03.238.194.328l2.37 1.37c.268.165.715.165.984 0l2.817-1.624c.163-.09.208-.209.193-.328v-.179c.03-.119-.03-.238-.194-.328zm-4.53 2.608l-2.37-1.371c-.269-.164-.716-.164-.984 0l-2.817 1.624c-.164.09-.209.209-.194.328v.179c-.03.12.03.239.194.328l2.37 1.371c.268.164.715.164.984 0l2.816-1.624c.164-.09.21-.21.194-.328v-.18c.015-.104-.044-.223-.194-.327zm9.076-5.232l-2.37-1.37c-.268-.165-.715-.165-.983 0l-2.817 1.624c-.164.09-.209.208-.194.328v.179c-.03.119.03.238.194.327l2.37 1.372c.268.164.715.164.983 0l2.817-1.625c.164-.09.209-.209.194-.328v-.179c.015-.119-.03-.238-.194-.328zM114.74 71.6v.179c-.03.12.03.239.194.328l2.37 1.371c.268.164.715.164.984 0l2.817-1.624c.163-.09.208-.21.193-.328v-.18c.03-.118-.03-.238-.193-.327l-2.37-1.371c-.269-.164-.716-.164-.984 0l-2.817 1.624c-.164.075-.224.209-.194.328zm-9.241 13.131l-2.37-1.371c-.268-.164-.715-.164-.983 0l-2.817 1.624c-.164.09-.209.21-.194.328v.18c-.03.118.03.238.194.327l2.37 1.371c.268.164.715.164.983 0l2.817-1.624c.164-.09.209-.209.194-.328v-.179c.015-.12-.045-.238-.194-.328zM87.331 95.21l-2.37-1.371c-.269-.164-.716-.164-.984 0l-2.817 1.624c-.164.09-.209.21-.194.328v.18c-.03.118.03.238.194.327l2.37 1.371c.268.164.715.164.984 0l2.817-1.624c.163-.09.208-.209.193-.328v-.179c.015-.104-.03-.239-.193-.328zm-9.077 5.246l-2.37-1.37c-.269-.165-.716-.165-.984 0l-2.817 1.624c-.164.089-.209.209-.194.328v.179c-.03.119.03.238.194.328l2.37 1.371c.268.164.715.164.984 0l2.817-1.625c.164-.089.208-.209.193-.328v-.179c.015-.119-.03-.238-.193-.328zm4.545-2.623l-2.37-1.37c-.268-.165-.715-.165-.983 0l-2.817 1.624c-.164.09-.209.208-.194.328v.179c-.03.119.03.238.194.327l2.37 1.372c.268.164.715.164.984 0l2.816-1.625c.164-.09.21-.209.194-.328v-.179c.015-.104-.044-.238-.194-.328z" fill="#C0B9C8"/><path d="M60.92 101.38l-2.817 1.624c-.268.164-.715.164-.984 0l-2.37-1.371c-.268-.164-.268-.417 0-.566l2.817-1.625c.269-.164.716-.164.984 0l2.37 1.371c.268.149.268.418 0 .567zm4.546-3.19l-2.37-1.371c-.268-.164-.715-.164-.984 0l-2.817 1.624c-.268.164-.268.418 0 .567l2.37 1.371c.269.164.716.164.984 0l2.817-1.625c.268-.149.268-.402 0-.566zm4.531-2.623l-2.37-1.371c-.268-.164-.715-.164-.983 0l-2.818 1.624c-.268.164-.268.418 0 .567l2.37 1.37c.269.165.716.165.984 0l2.817-1.624c.283-.149.283-.402 0-.566zm4.546-2.623l-2.37-1.372c-.268-.164-.715-.164-.984 0l-2.817 1.625c-.268.164-.268.417 0 .566l2.37 1.371c.268.165.716.165.984 0l2.817-1.624c.268-.15.268-.403 0-.566zm4.546-2.624l-2.37-1.37c-.268-.165-.715-.165-.984 0l-2.817 1.624c-.268.164-.268.417 0 .566l2.37 1.371c.268.164.716.164.984 0l2.817-1.624c.268-.15.268-.403 0-.567zm4.53-2.623l-2.369-1.371c-.268-.164-.715-.164-.984 0L77.45 87.95c-.268.164-.268.417 0 .566l2.37 1.371c.269.164.716.164.984 0l2.817-1.625c.283-.148.283-.402 0-.566zm4.547-2.608l-2.37-1.371c-.268-.164-.716-.164-.984 0l-2.817 1.624c-.268.164-.268.418 0 .567l2.37 1.37c.268.165.716.165.984 0l2.817-1.624c.268-.164.268-.417 0-.566zm4.53-2.623l-2.369-1.372c-.268-.164-.715-.164-.984 0l-2.817 1.625c-.268.164-.268.417 0 .566l2.37 1.372c.268.163.716.163.984 0l2.817-1.625c.283-.164.283-.417 0-.566zm4.547-2.624l-2.37-1.37c-.268-.165-.716-.165-.984 0l-2.817 1.624c-.268.164-.268.417 0 .566l2.37 1.371c.268.164.716.164.984 0l2.817-1.624c.268-.15.268-.418 0-.567zm6.006-3.472l-2.37-1.372c-.268-.163-.715-.163-.983 0l-4.278 2.474c-.268.165-.268.418 0 .567l2.37 1.371c.268.164.715.164.984 0l4.277-2.474c.269-.15.269-.402 0-.566zM120.3 80.9l-2.37-1.37c-.268-.165-.715-.165-.983 0l-2.817 1.624c-.269.164-.269.417 0 .566l2.37 1.372c.268.164.715.164.983 0l2.817-1.625c.268-.149.268-.402 0-.566zm4.546-2.623l-2.37-1.37c-.268-.165-.715-.165-.983 0l-2.817 1.624c-.269.164-.269.417 0 .566l2.369 1.371c.269.164.716.164.984 0l2.817-1.624c.268-.15.268-.403 0-.567zm4.531-2.608l-2.37-1.371c-.268-.164-.715-.164-.983 0l-2.817 1.624c-.269.164-.269.418 0 .567l2.369 1.371c.269.164.716.164.984 0l2.817-1.624c.283-.165.283-.418 0-.567zm-4.918 7.631l-2.37-1.37c-.269-.165-.716-.165-.984 0l-2.817 1.624c-.268.164-.268.417 0 .566l2.37 1.371c.268.164.715.164.984 0l2.817-1.624c.268-.15.268-.403 0-.567zm4.531-2.623l-2.37-1.371c-.269-.164-.716-.164-.984 0l-2.817 1.624c-.268.164-.268.418 0 .567l2.37 1.371c.268.164.715.164.984 0l2.817-1.625c.268-.149.268-.402 0-.566zm4.546-2.623l-2.37-1.371c-.269-.164-.716-.164-.984 0l-2.817 1.624c-.268.164-.268.418 0 .567l2.37 1.37c.268.165.715.165.984 0l2.817-1.624c.268-.149.268-.402 0-.566zm-66.922 24.28l-2.37-1.372c-.269-.164-.716-.164-.984 0l-4.277 2.474c-.269.164-.269.418 0 .567l2.37 1.371c.268.164.715.164.983 0l4.278-2.474c.268-.149.268-.403 0-.566zm4.546-2.624l-2.37-1.371c-.269-.164-.716-.164-.984 0l-2.817 1.625c-.268.164-.268.417 0 .566l2.37 1.371c.268.164.715.164.984 0l2.817-1.624c.268-.149.268-.403 0-.567zm4.53-2.623l-2.37-1.371c-.267-.164-.715-.164-.983 0L69.52 97.34c-.268.163-.268.417 0 .566l2.37 1.371c.268.164.715.164.984 0l2.817-1.625c.283-.149.283-.402 0-.566zm4.547-2.608l-2.37-1.371c-.269-.164-.716-.164-.984 0l-2.817 1.624c-.268.164-.268.418 0 .567l2.37 1.37c.268.165.715.165.983 0l2.818-1.624c.268-.164.268-.417 0-.566zm4.545-2.623l-2.37-1.372c-.268-.164-.715-.164-.983 0l-2.817 1.625c-.268.164-.268.417 0 .566l2.37 1.371c.268.164.715.164.983 0l2.817-1.624c.269-.164.269-.417 0-.566zm4.531-2.624l-2.37-1.37c-.268-.165-.715-.165-.983 0l-2.817 1.624c-.268.164-.268.417 0 .566l2.37 1.371c.268.164.715.164.983 0l2.817-1.624c.269-.15.269-.418 0-.567zm4.546-2.623l-2.37-1.371c-.268-.164-.715-.164-.983 0l-2.817 1.624c-.268.164-.268.418 0 .567l2.37 1.371c.268.164.715.164.983 0l2.817-1.624c.269-.15.269-.403 0-.567zm4.531-2.623l-2.37-1.371c-.268-.164-.715-.164-.983 0l-2.817 1.624c-.268.164-.268.418 0 .567l2.37 1.37c.268.165.715.165.983 0l2.817-1.624c.284-.149.284-.402 0-.566zm4.546-2.623l-2.37-1.372c-.268-.163-.715-.163-.983 0l-2.817 1.625c-.269.164-.269.417 0 .566l2.37 1.372c.268.164.715.164.983 0l2.817-1.625c.269-.149.269-.402 0-.566zm4.546-2.624l-2.37-1.37c-.268-.165-.715-.165-.983 0l-2.817 1.624c-.269.164-.269.417 0 .566l2.37 1.371c.268.164.715.164.983 0l2.817-1.624c.268-.15.268-.403 0-.567zm-38.305 26.829l-2.37-1.371c-.268-.164-.715-.164-.983 0l-2.817 1.624c-.269.164-.269.418 0 .567l2.37 1.371c.268.164.715.164.983 0l2.817-1.625c.268-.149.268-.402 0-.566zm4.531-2.609l-2.37-1.371c-.268-.164-.715-.164-.983 0l-2.817 1.625c-.269.164-.269.417 0 .566l2.37 1.371c.268.164.715.164.983 0l2.817-1.624c.284-.164.284-.417 0-.567zm4.546-2.623l-2.37-1.37c-.268-.165-.715-.165-.983 0l-2.817 1.624c-.269.164-.269.417 0 .566l2.37 1.371c.268.164.715.164.983 0l2.817-1.624c.268-.164.268-.418 0-.567zm4.546-2.623l-2.37-1.371c-.268-.164-.715-.164-.983 0l-2.817 1.624c-.269.164-.269.418 0 .567L79 99.904c.268.164.715.164.983 0L82.8 98.28c.268-.15.268-.418 0-.567zm-5.395 12.609l-2.37-1.371c-.269-.164-.716-.164-.984 0l-2.817 1.625c-.268.164-.268.417 0 .566l2.37 1.371c.268.164.715.164.984 0l2.817-1.624c.268-.149.268-.403 0-.567zm4.546-2.623l-2.37-1.371c-.269-.164-.716-.164-.984 0l-2.817 1.625c-.268.164-.268.417 0 .566l2.37 1.371c.268.164.715.164.984 0l2.817-1.624c.268-.15.268-.403 0-.567zm4.53-2.608l-2.37-1.371c-.268-.164-.715-.164-.983 0l-2.817 1.624c-.268.164-.268.418 0 .567l2.37 1.371c.268.164.715.164.984 0l2.817-1.625c.283-.164.283-.417 0-.566zm4.547-2.623l-2.37-1.372c-.269-.164-.716-.164-.984 0l-2.817 1.625c-.268.164-.268.417 0 .566l2.37 1.372c.268.164.715.164.983 0l2.818-1.625c.268-.164.268-.417 0-.566zm28.676-16.56l-2.37-1.37c-.268-.165-.715-.165-.984 0l-4.277 2.474c-.268.163-.268.417 0 .566l2.37 1.371c.268.164.715.164.983 0l4.278-2.474c.268-.15.268-.417 0-.566zM87.331 95.09l-2.37-1.371c-.268-.164-.715-.164-.983 0l-2.817 1.624c-.269.164-.269.418 0 .567l2.37 1.37c.268.165.715.165.983 0l2.817-1.624c.268-.149.268-.417 0-.566zm4.546-2.623l-2.37-1.372c-.268-.163-.715-.163-.984 0l-2.816 1.625c-.269.164-.269.417 0 .566l2.37 1.372c.268.163.715.163.983 0l2.817-1.625c.268-.15.268-.402 0-.566zm4.531-2.624l-2.37-1.37c-.268-.165-.715-.165-.983 0l-2.818 1.624c-.268.164-.268.417 0 .566l2.37 1.371c.269.164.716.164.984 0l2.817-1.624c.283-.15.283-.403 0-.567zm4.546-2.623l-2.37-1.371c-.268-.164-.715-.164-.984 0l-2.817 1.625c-.268.163-.268.417 0 .566l2.37 1.371c.269.164.716.164.984 0l2.817-1.624c.268-.15.268-.403 0-.567zm4.546-2.623l-2.37-1.371c-.268-.164-.715-.164-.984 0l-2.817 1.624c-.268.164-.268.418 0 .567l2.37 1.37c.268.165.716.165.984 0l2.817-1.624c.268-.149.268-.402 0-.566zm5.992-3.458l-2.37-1.371c-.269-.164-.716-.164-.984 0l-4.278 2.474c-.268.164-.268.417 0 .566l2.37 1.372c.268.164.716.164.984 0l4.278-2.475c.283-.149.283-.417 0-.566zm-36.621 25.964l-2.37-1.371c-.268-.164-.715-.164-.984 0l-4.277 2.474c-.269.164-.269.417 0 .566l2.37 1.372c.268.163.715.163.983 0l4.278-2.475c.268-.149.268-.417 0-.566zm4.53-2.623l-2.369-1.371c-.268-.164-.715-.164-.984 0l-2.817 1.624c-.268.164-.268.417 0 .567l2.37 1.371c.268.164.716.164.984 0l2.817-1.625c.283-.149.283-.417 0-.566zm4.547-2.623l-2.37-1.372c-.268-.164-.716-.164-.984 0l-2.817 1.625c-.268.164-.268.417 0 .566l2.37 1.372c.268.163.715.163.984 0l2.817-1.625c.268-.149.268-.402 0-.566zm4.53-2.624l-2.37-1.37c-.267-.165-.715-.165-.983 0l-2.817 1.624c-.268.164-.268.417 0 .566l2.37 1.371c.268.164.716.164.984 0l2.817-1.624c.283-.15.283-.403 0-.567zm4.547-2.623l-2.37-1.371c-.268-.164-.716-.164-.984 0l-2.817 1.624c-.268.164-.268.418 0 .567l2.37 1.371c.268.164.715.164.984 0l2.817-1.624c.268-.15.268-.403 0-.567zm20.777-7.243l-2.37-1.372c-.268-.164-.715-.164-.984 0l-21.03 12.148c-.269.163-.269.417 0 .566l2.37 1.371c.268.164.715.164.983 0l21.031-12.147c.268-.164.268-.418 0-.567zm-16.231 4.62l-2.37-1.371c-.268-.164-.716-.164-.984 0L91.4 94.24c-.268.164-.268.418 0 .567l2.37 1.37c.268.165.715.165.984 0l2.817-1.624c.268-.149.268-.402 0-.566zm4.531-2.608l-2.37-1.372c-.269-.164-.716-.164-.984 0l-2.817 1.625c-.268.164-.268.417 0 .566l2.37 1.372c.268.164.715.164.984 0l2.817-1.625c.283-.164.283-.417 0-.566zm4.546-2.624l-2.37-1.37c-.269-.165-.716-.165-.984 0l-2.817 1.624c-.268.164-.268.417 0 .566l2.37 1.371c.268.164.715.164.984 0l2.817-1.624c.268-.164.268-.418 0-.567zm4.545-2.623l-2.369-1.371c-.269-.164-.716-.164-.984 0l-2.817 1.624c-.268.164-.268.418 0 .567l2.37 1.371c.268.164.715.164.983 0l2.817-1.624c.269-.15.269-.418 0-.567zm4.531-2.623l-2.369-1.371c-.269-.164-.716-.164-.984 0l-2.817 1.624c-.268.164-.268.418 0 .567l2.37 1.37c.268.165.715.165.984 0l2.816-1.624c.269-.149.269-.417 0-.566zm-7.854-9.778l-2.37-1.37c-.268-.165-.716-.165-.984 0l-2.817 1.624c-.268.164-.268.417 0 .566l2.37 1.371c.268.164.715.164.984 0l2.817-1.624c.283-.15.283-.418 0-.567zm4.546-2.623l-2.37-1.37c-.268-.165-.716-.165-.984 0l-2.817 1.624c-.268.164-.268.417 0 .566l2.37 1.371c.268.164.715.164.984 0l2.817-1.624c.268-.15.268-.403 0-.567zm4.531-2.623l-2.37-1.371c-.268-.164-.716-.164-.984 0l-2.817 1.624c-.268.164-.268.418 0 .567l2.37 1.371c.268.164.715.164.984 0l2.817-1.625c.283-.149.283-.402 0-.566zm4.143 2.4l-2.37-1.372c-.268-.163-.715-.163-.983 0l-2.817 1.625c-.269.164-.269.417 0 .566l2.369 1.372c.269.164.716.164.984 0l2.817-1.625c.283-.164.283-.417 0-.566z" fill="#3D3838"/><path opacity=".2" d="M133.238 100.113l-20.866 12.043c-.462.268-1.222.268-1.699 0l-13.832-7.974c-.462-.269-.462-.716 0-.984l20.867-12.043c.462-.268 1.222-.268 1.699 0l13.831 7.989c.462.268.462.7 0 .969z" fill="#E0DBE1"/><path d="M96.84 103.451l20.867-12.043c.462-.268 1.223-.268 1.699 0l13.832 7.99a.731.731 0 01.328.357c.074-.224-.045-.447-.328-.611l-13.832-7.989c-.462-.268-1.222-.268-1.699 0l-20.866 12.043c-.283.164-.403.402-.328.611.045-.134.149-.253.328-.358z" fill="#E0DBE1"/><path opacity=".4" d="M110.672 65.296L51.575 99.412l-.09.06 2.013 1.162 59.082-34.116.089-.06-1.997-1.162zm-57.174 35.189l-1.76-1.013 58.934-34.027 1.758 1.013-58.933 34.027z" fill="#C0B9C8"/><path d="M117.32 74.133l-3.115-1.803c-.343-.194-.894-.194-1.237 0l-7.125 4.114c-.193.104-.268.253-.238.402v.179c-.03.149.045.298.238.402l6.216 3.592c.343.194.894.194 1.237 0l11.819-6.826c.194-.105.268-.254.239-.403v-.179c.029-.148-.045-.297-.239-.402l-2.31-1.341a.886.886 0 00-.82 0l-3.964 2.265a.824.824 0 01-.701 0z" fill="#C0B9C8"/><path d="M125.115 73.09l-2.31-1.34a.886.886 0 00-.82 0l-3.964 2.265c-.194.104-.507.104-.686 0l-3.115-1.804c-.343-.194-.894-.194-1.237 0l-7.124 4.114c-.343.194-.343.507 0 .715l6.215 3.592c.343.194.894.194 1.237 0l11.819-6.826c.328-.209.328-.522-.015-.715z" fill="#3D3838"/><path opacity=".4" d="M47.624 41.21l6.052 51.972 61.75-35.652-6.052-51.972-61.75 35.652z" fill="#CFE9FF"/><path opacity=".7" d="M58.938 40.926V92.08l63.121-36.457V4.484L58.938 40.926z" fill="#CFE9FF"/><path d="M58.938 37.32v4.411L122.059 5.29V.878L58.938 37.319zm42.149 28.81l-42.15 24.34V50.897l42.15-24.34V66.13z" fill="#788EFF"/><path d="M101.087 51.896l-42.15 24.34V50.898l42.15-24.34v25.338z" fill="#FFFFD6"/><path d="M58.938 43.356v8.72l63.121-36.443V6.914L58.938 43.356z" fill="#5672CC"/><path d="M58.938 43.356v8.72l63.121-36.443V6.914L58.938 43.356z" fill="#788EFF"/><path d="M100.626 19.285v33.103l21.433-12.386V6.914l-21.433 12.37z" fill="#5672CC"/><path d="M61.784 48.08v-3.8c0-.09.045-.164.134-.209l1.565-.909c.328-.194.582-.253.775-.179.18.075.269.269.269.596v2.013c0 .327-.09.64-.269.924a2.126 2.126 0 01-.775.715l-1.565.91c-.09.059-.134.029-.134-.06zm.88-1.058l.685-.402a.797.797 0 00.283-.253.62.62 0 00.09-.343V44.1c0-.134-.03-.209-.09-.238-.06-.03-.149 0-.283.074l-.685.403c-.045.03-.075.06-.075.104v2.534c0 .06.03.074.075.044zm3.144-5.052v3.8c0 .09-.044.164-.134.21l-.536.312c-.09.045-.135.03-.135-.06v-3.8c0-.09.045-.164.135-.209l.536-.313c.09-.045.134-.03.134.06zM68 44.638l-.671.387c-.328.194-.597.254-.776.179-.178-.075-.268-.268-.268-.611V42.58c0-.328.09-.641.268-.924.18-.283.433-.522.776-.716l.67-.387c.328-.194.582-.254.76-.18.18.075.269.284.269.612v.194c0 .09-.045.164-.135.208l-.536.313c-.09.045-.134.03-.134-.06v-.148c0-.134-.03-.209-.09-.239s-.149 0-.283.075l-.402.253a.797.797 0 00-.283.254.617.617 0 00-.09.342V44.1c0 .134.03.209.09.239s.149 0 .283-.075l.417-.238a.798.798 0 00.283-.254c.06-.09.09-.194.09-.343v-.402c0-.045-.03-.06-.075-.03l-.373.224c-.089.044-.134.03-.134-.06v-.432c0-.09.045-.164.134-.209l1.103-.64c.105-.06.15-.03.15.059v1.058c0 .328-.09.641-.269.924a2.394 2.394 0 01-.775.716zm2.31-5.277v3.801c0 .09-.046.164-.135.209l-.537.313c-.089.044-.134.03-.134-.06v-3.8c0-.09.045-.164.134-.21l.537-.312c.09-.045.134-.03.134.06zm1.788 2.907l-.536.313c-.09.06-.135.03-.135-.06v-3.175c0-.044-.03-.06-.074-.03l-.715.418c-.09.045-.135.03-.135-.06v-.432c0-.09.045-.164.135-.209l2.384-1.386c.09-.044.134-.03.134.06v.432c0 .09-.044.164-.134.209l-.715.417c-.045.03-.075.075-.075.12v3.174c0 .09-.044.15-.134.209zm1.655-.954l-.611.358c-.075.044-.105.014-.075-.09l.999-4.382a.347.347 0 01.194-.238l.834-.492c.104-.06.164-.06.194.03l.999 3.22c.03.074 0 .133-.075.178l-.611.358c-.045.03-.075.03-.09.03-.014-.016-.03-.03-.044-.09l-.18-.596-1.236.715-.18.805c-.014.06-.014.104-.044.134 0 0-.03.03-.074.06zm.924-3.83l-.462 2.086.939-.537-.462-1.565-.015.015zm4.069.938l-2.087 1.208c-.09.044-.134.03-.134-.06v-3.8c0-.09.045-.165.134-.21l.537-.312c.089-.045.134-.03.134.06v3.16c0 .044.03.059.074.029l1.342-.775c.09-.045.119-.03.119.06v.432c.015.09-.03.164-.12.208zm2.801-1.609l-.879.506c-.09.06-.149.045-.164-.044l-.67-3.413c-.016-.075.03-.15.133-.21l.656-.372c.105-.06.15-.044.15.045l.372 2.906c.045-.03.656-3.517.656-3.517a.262.262 0 01.134-.194l.715-.402c.075-.045.12-.045.134.03l.626 2.787c.045-.03.418-3.354.418-3.354 0-.09.06-.164.149-.223l.656-.373c.104-.06.149-.045.134.06l-.686 4.188a.32.32 0 01-.149.223l-.894.522c-.09.045-.134.03-.15-.045l-.566-2.638c-.03.015-.596 3.31-.596 3.31a.496.496 0 01-.179.208zm3.801-2.191l-.61.357c-.075.045-.105.015-.075-.089l.998-4.382a.348.348 0 01.194-.238l.835-.492c.104-.06.164-.06.194.03l.998 3.219c.03.074 0 .134-.074.179l-.611.357c-.045.03-.075.03-.09.03-.015-.015-.03-.03-.045-.09l-.178-.595-1.237.715-.18.805c-.014.06-.014.104-.044.134 0 0-.03.03-.075.06zm.924-3.83l-.462 2.086.94-.537-.463-1.565-.015.015zm4.07.938l-2.087 1.207c-.09.045-.134.03-.134-.06v-3.8c0-.09.045-.164.134-.209l.537-.313c.09-.044.134-.03.134.06v3.16c0 .045.03.06.075.03l1.34-.775c.09-.045.12-.03.12.06v.431c.015.09-.03.165-.12.21zm2.534-1.46l-2.087 1.207c-.09.044-.134.03-.134-.06v-3.8c0-.09.044-.164.134-.21l.537-.312c.089-.045.134-.03.134.06v3.16c0 .044.03.059.074.03l1.342-.776c.089-.045.119-.03.119.06v.432a.222.222 0 01-.12.209zm2.503-1.446l-2.072 1.192c-.09.045-.134.03-.134-.06v-3.8c0-.09.045-.164.134-.209l2.072-1.192c.09-.045.119-.03.119.06v.432c0 .09-.045.164-.12.208l-1.326.76c-.045.03-.074.075-.074.12v.82c0 .044.03.06.074.03l1.088-.627c.09-.044.134-.03.134.06v.432c0 .09-.044.164-.134.209l-1.088.626c-.045.03-.074.074-.074.12v.879c0 .044.03.06.074.03l1.327-.76c.09-.046.119-.03.119.059v.432c.015.06-.03.134-.12.179zm1.774-1.014l-.536.313c-.09.06-.134.03-.134-.06V24.89c0-.045-.03-.06-.075-.03l-.715.417c-.09.045-.134.03-.134-.06v-.431c0-.09.044-.164.134-.209l2.385-1.386c.089-.045.134-.03.134.06v.432c0 .09-.045.164-.135.208l-.715.418c-.045.03-.075.074-.075.119v3.175c0 .074-.044.149-.134.208z" fill="#FFFFD6"/><path d="M109.256 54.981v-21.76l11.283-6.514v21.761l-11.283 6.513z" fill="#FEF0FF"/><path d="M109.255 50.436v-11.12l11.268-6.513.015 12.61-4.993 2.891V46.8l-6.29 3.637z" fill="#D4CBDC"/><path opacity=".2" d="M119.569 39.108l-4.024-4.918c.06-.03 4.084 4.873 4.084 4.873l-.06.045zm.701-.402l-4.025-4.919c-.059.03 3.95 4.949 3.95 4.949l.075-.03zm-1.267.73l-4.024-4.919c-.06.03 3.949 4.949 3.949 4.949l.075-.03zm-.626.358l-4.024-4.919c-.06.03 3.949 4.949 3.949 4.949l.075-.03zm2.146-1.908l-3.652-4.457c-.059.03 3.652 4.576 3.652 4.576v-.12zm-2.772 2.28l-4.024-4.918c-.06.03 3.949 4.948 3.949 4.948l.075-.03zm2.772-4.56l-2.385-2.907c-.059.03 2.385 3.026 2.385 3.026v-.12zm0-3.414l-.477-.58c-.06.029.477.7.477.7v-.12zm0 1.133l-1.118-1.356c-.059.03 1.118 1.475 1.118 1.475v-.119zm0 1.148l-1.744-2.132c-.059.03 1.744 2.251 1.744 2.251v-.12zm0 2.265l-3.011-3.681c-.059.03 3.011 3.8 3.011 3.8v-.119zm-3.413 3.786l-4.024-4.919c-.06.03 3.949 4.949 3.949 4.949l.075-.03zm-6.946 4.01l-.909-1.118v.119l.85 1.028.059-.03zm1.267-.73l-2.176-2.669v.12l2.117 2.578.059-.03zm.626-.359l-2.802-3.428v.12l2.743 3.353.059-.045zm-2.519 1.461l-.283-.343v.12l.209.268.074-.045zm1.252-.73l-1.55-1.893v.119l1.476 1.803.074-.03zm1.908-1.103l-3.443-4.203v.119l3.383 4.129.06-.045zm2.519-1.446l-4.024-4.919c-.06.03 3.949 4.949 3.949 4.949l.075-.03zm.626-.373l-4.024-4.918c-.06.03 3.949 4.948 3.949 4.948l.075-.03zm.641-.357l-4.024-4.919c-.06.03 3.949 4.948 3.949 4.948l.075-.03zm-2.534 1.446l-4.024-4.92c-.06.03 3.95 4.95 3.95 4.95l.074-.03zm.641-.358l-4.024-4.919c-.06.03 3.949 4.948 3.949 4.948l.075-.03zm-1.267.73l-4.024-4.919c-.06.045 3.95 4.949 3.95 4.949l.074-.03z" fill="#7F7799"/><path opacity=".6" d="M115.544 50.391v-7.482l4.979-2.877.014 7.482-4.993 2.877zm-6.289 3.935v-7.78l1.595-.925v7.006l-1.595 1.699z" fill="#D3AEC3"/><path d="M118.511 41.165c0-2.072-1.669-2.772-3.726-1.595-2.057 1.193-3.726 3.83-3.726 5.887-.015.015 7.452-4.292 7.452-4.292z" fill="#D4A8C6"/><path d="M109.255 46.65v-.283l11.268-6.514v.284l-11.268 6.513z" fill="#7F7799"/><path d="M118.406 31.581v-3.1l1.58-.924v3.115l-1.58.91z" fill="#3263A8"/><path d="M118.914 42.566c0-.209-.09-.388-.209-.447.015-.015.73-.343.73-.343.105-.045.119-.03.119.045v.968l.269-.06c.03-.029.03-1.326.03-1.326-.03-.014-1.342.656-1.342.656l-.045.12c.179.06.269.163.269.372 0 .253-.179.626-.701.924-.402.224-.7.239-.7-.09 0-.268.193-.52.417-.73.06-.06.089-.104.089-.164 0-.074-.074-.163-.208-.089-.179.104-.447.522-.447 1.028 0 .641.387.701.879.418.566-.313.85-.82.85-1.282zm.984 1.461c0-.641-.567-.537-1.342-.09-.775.447-1.341.999-1.341 1.64 0 .64.566.536 1.341.09.775-.448 1.342-1 1.342-1.64zm-2.549 1.475c0-.372.581-.805 1.207-1.162.626-.358 1.208-.597 1.208-.224s-.567.805-1.208 1.163c-.641.357-1.207.596-1.207.223zm2.549.582c0-.641-.567-.537-1.342-.09-.775.447-1.341.999-1.341 1.64 0 .64.566.536 1.341.089.775-.447 1.342-.999 1.342-1.64zm-2.549 1.475c0-.373.581-.805 1.207-1.162.626-.358 1.208-.597 1.208-.224 0 .372-.567.805-1.208 1.162-.641.358-1.207.597-1.207.224z" fill="#6B6597"/><path d="M111.282 33.489c0-.149-.059-.268-.149-.313 0-.015.507-.238.507-.238.06-.03.074-.015.074.03v.67l.179-.045c.015-.03.015-.924.015-.924-.03-.015-.924.447-.924.447l-.03.09c.134.045.194.12.194.253 0 .164-.119.432-.477.641-.268.164-.477.164-.477-.06 0-.193.134-.357.283-.506a.135.135 0 00.06-.12c0-.06-.06-.104-.149-.06-.119.075-.298.359-.298.716 0 .447.268.492.611.298.387-.208.581-.566.581-.879zm.672.999c0-.447-.388-.373-.924-.06-.537.313-.925.686-.925 1.133 0 .447.388.372.925.06.536-.299.924-.686.924-1.133zM110.21 35.5c0-.253.387-.551.834-.805.433-.253.835-.402.835-.149 0 .254-.387.552-.835.805-.447.254-.834.403-.834.15zm1.744.404c0-.448-.388-.373-.924-.06-.537.313-.925.686-.925 1.133 0 .447.388.372.925.06.536-.299.924-.686.924-1.133zm-1.744 1.013c0-.253.387-.551.834-.805.433-.253.835-.402.835-.149 0 .254-.387.552-.835.805-.447.253-.834.402-.834.15z" fill="#F2D972"/><path d="M117.676 49.571l-.433-.536.075-.09.432.537-.074.09zm-.298.134l-.433-.536-.074.09.432.536.075-.09zm-.373.224l-.432-.537-.075.09.432.536.075-.09zm-.388.209l-.432-.537-.074.09.432.536.074-.09zm-.372.223l-.432-.536-.075.089.432.537.075-.09zm-.388.224l-.432-.537-.074.09.432.536.074-.09zm-.372.208l-.433-.536-.074.09.432.536.075-.09zm-.388.224l-.432-.537-.075.09.433.536.074-.09zm-.372.223l-.433-.536-.074.09.432.536.075-.09z" fill="#6B6597"/><path d="M119.867 29.092c0-.372-.298-.492-.67-.283-.373.209-.671.686-.671 1.058 0 .373.298.492.671.283.372-.208.67-.685.67-1.058zm-1.252.73c0-.327.269-.73.582-.924.327-.178.581-.074.581.254s-.268.73-.581.924c-.313.179-.582.074-.582-.253z" fill="#F2D972"/><path d="M119.956 39.272l-.328.343-.059.387-.254-.119-.357.268.164-.417-.164-.224.357-.148.254-.403.059.328.328-.015zm-.954-1.938l-.059-.327-.254.402-.357.15.164.223-.164.417.357-.268.254.119.059-.388.328-.342-.328.014zm-1.654-.7l-.06-.328-.253.403-.358.148.164.224-.164.417.358-.268.253.12.06-.388.328-.343-.328.015zm-2.325.715l-.06-.327-.253.402-.358.149.164.224-.164.417.358-.268.253.119.06-.388.328-.343-.328.015zm-2.325 1.968l-.06-.328-.253.402-.358.15.164.223-.164.417.358-.268.253.12.06-.388.328-.343-.328.015zm-1.655 2.608l-.059-.328-.254.403-.357.149.164.223-.164.418.357-.269.254.12.059-.388.328-.343-.328.015zm-.626 2.683l-.059-.328-.254.402-.357.15.164.223-.164.417.357-.268.254.12.059-.388.328-.343-.328.015z" fill="#C99223"/><path d="M102.161 61.51V41.016l8.913-5.142v20.479l-8.913 5.157z" fill="#FEF0FF"/><path d="M110.657 36.395l-8.034 4.636v19.927l8.034-4.635V36.395zm-6.543 23.445c-.373.224-.686.045-.686-.402V41.612c0-.432.313-.969.686-1.192l5.022-2.892c.373-.223.686-.044.686.403v17.826c0 .432-.313.968-.686 1.192l-5.022 2.891z" fill="#687A51"/><path d="M110.627 46.367c0-1.983-1.789-2.564-3.995-1.297-2.206 1.267-3.994 3.92-3.994 5.902 0 1.983 1.788 2.564 3.994 1.297 2.206-1.267 3.995-3.92 3.995-5.902zm-7.945 4.59c0-1.952 1.774-4.56 3.95-5.827 2.176-1.252 3.95-.686 3.95 1.267 0 1.952-1.774 4.56-3.95 5.827-2.176 1.252-3.95.686-3.95-1.267z" fill="#A5AA9F"/><path d="M106.633 52.12c-2.132 1.237-3.861.686-3.861-1.207 0-1.893 1.729-4.442 3.861-5.664 2.131-1.237 3.86-.686 3.86 1.207 0 1.893-1.729 4.427-3.86 5.664z" fill="#A5AA9F"/><path d="M106.632 51.613c-1.818 1.058-3.294.581-3.294-1.043 0-1.625 1.476-3.786 3.294-4.844 1.819-1.058 3.294-.581 3.294 1.043 0 1.625-1.475 3.8-3.294 4.844z" fill="#FFF9E1"/><path d="M105.531 54.49v-.686l-.224.15v.67l.224-.134zm-.002.372l-.224.134v2.937l.224-.134v-2.937zm.002-13.548v-.686l-.224.135v.685l.224-.134zm-.002.358l-.224.134v2.936l.224-.134v-2.936zm3.727-3.518l-.328.18v3.561l.328-.194v-3.547z" fill="#687A51"/><path d="M109.256 52.522l-.328.194v3.547l.328-.178v-3.563z" fill="#A5AA9F"/><path d="M103.934 57.59l.701-.403c.015-.014-.045-.328-.045-.328-.03.015-.06.12-.06.12 0 .044-.015.06-.059.09l-.552.312c-.044-.015-.059-.104-.059-.104-.045.03-.045.521-.045.521.045-.03.06-.119.06-.119 0-.044.014-.06.059-.09zm.701.268c0-.253-.194-.238-.417-.104-.224.134-.418.328-.418.581 0 .253.194.239.418.104.223-.134.417-.328.417-.58zm-.775.447c0-.119.223-.253.358-.328.134-.074.357-.193.357-.074 0 .119-.223.253-.357.328-.135.074-.358.178-.358.074zm.775.328c0-.253-.194-.238-.417-.104-.224.134-.418.328-.418.581 0 .254.194.239.418.104.223-.119.417-.328.417-.58zm-.775.447c0-.119.223-.253.358-.328.134-.074.357-.193.357-.074 0 .12-.223.253-.357.328-.135.074-.358.179-.358.074z" fill="#687A51"/><path d="M110.016 54.192l.477-.269c0-.015-.029-.208-.029-.208-.075.134-.448.342-.448.342-.074-.06-.074.269-.074.269.045-.105.045-.12.074-.134zm.476.178c0-.178-.134-.149-.283-.074-.149.09-.283.224-.283.387 0 .18.134.15.283.075.149-.09.283-.224.283-.388zm-.522.299c0-.075.15-.164.239-.224s.238-.134.238-.06c0 .075-.149.164-.238.224s-.239.134-.239.06zm.522.208c0-.179-.134-.149-.283-.074-.149.09-.283.223-.283.387 0 .18.134.15.283.075.149-.075.283-.209.283-.388zm-.522.313c0-.074.15-.164.239-.223.089-.06.238-.134.238-.06 0 .075-.149.164-.238.224-.089.044-.239.134-.239.06zm.046-16.574l.477-.268c0-.015-.029-.209-.029-.209-.075.134-.448.343-.448.343-.074-.06-.074.268-.074.268.045-.104.045-.119.074-.134zm.476.164c0-.179-.134-.149-.283-.074-.149.09-.283.223-.283.387 0 .179.134.15.283.075.149-.075.283-.209.283-.388zm-.522.313c0-.074.15-.164.239-.223.089-.06.238-.134.238-.06 0 .075-.149.164-.238.223-.089.045-.239.135-.239.06zm.522.209c0-.179-.134-.15-.283-.075-.149.09-.283.224-.283.388 0 .179.134.149.283.075.149-.075.283-.21.283-.388zm-.522.298c0-.075.15-.164.239-.224s.238-.134.238-.06c0 .075-.149.165-.238.224-.089.06-.239.15-.239.06zm-6.78 2.653c-.105.06-.149.045-.149-.015v-.656c0-.06.045-.119.089-.149.105-.06.149-.044.149.015v.09l.716-.418.015-.104a.216.216 0 01.089-.134c.089-.06.134-.045.134 0l.06.402c0 .045 0 .075-.015.105-.03.06-.06.089-.075.104l-.924.536-.015.105c.015.03-.029.104-.074.119zm.477 1.953c-.418.238-.641.163-.641-.194 0-.269.134-.522.358-.73-.224.06-.358-.06-.358-.314 0-.357.238-.7.641-.939.417-.238.641-.164.641.194 0 .268-.134.522-.358.73.224-.06.358.06.358.313.015.358-.224.701-.641.94z" fill="#FFF9E1"/><path d="M103.264 41.925l.939-.552c.014-.03-.045-.432-.045-.432-.045.03-.075.149-.075.149-.015.06-.03.074-.074.12l-.745.431c-.045.03-.06.015-.06-.03l-.015-.119c-.06.03-.06.7-.06.7.06-.029.075-.163.075-.163 0-.06.015-.075.06-.105zm.968.343c0-.343-.268-.313-.551-.15-.298.165-.552.433-.552.79 0 .344.269.314.552.135.283-.164.551-.432.551-.775zm-1.043.596c0-.149.298-.343.477-.447.179-.104.477-.268.477-.104 0 .149-.298.343-.477.447-.179.104-.477.253-.477.104zm1.043.447c0-.343-.268-.313-.551-.134-.298.164-.552.432-.552.79 0 .343.269.313.552.15.283-.195.551-.463.551-.806zm-1.043.596c0-.149.298-.342.477-.447.179-.104.477-.268.477-.104 0 .164-.298.343-.477.447-.179.104-.477.253-.477.104zm4.785 10.553c0-.626-.432-.88-.984-.566-.537.313-.984 1.073-.984 1.699 0 .626.433.879.984.566.537-.328.984-1.073.984-1.7zm-1.848 1.058c0-.551.387-1.237.864-1.505.477-.283.865-.06.865.507 0 .55-.388 1.237-.865 1.505-.477.283-.864.06-.864-.507zm1.848-14.248c0-.627-.432-.88-.984-.567-.537.313-.984 1.073-.984 1.699 0 .626.433.88.984.566.537-.328.984-1.073.984-1.699zm-1.848 1.057c0-.551.387-1.237.864-1.505.477-.283.865-.06.865.507 0 .551-.388 1.237-.865 1.505-.477.283-.864.06-.864-.507z" fill="#A5AA9F"/><path d="M107.437 55.146c-.045-.045-.045-.135 0-.224.06-.134.06-.224.015-.268-.06-.075-.06-.164-.015-.254s0-.149-.059-.119l-.507.298a.55.55 0 00-.134.134l-.388.671c0 .03.388.253.388.253.029.015.074.015.134-.014l.507-.299c.059-.03.104-.134.059-.178zm0-13.191c-.045-.045-.045-.134 0-.224.06-.134.06-.223.015-.268-.06-.075-.06-.164-.015-.253.045-.09 0-.15-.059-.12l-.507.298a.55.55 0 00-.134.135l-.388.67c0 .03.388.254.388.254.029.015.074.015.134-.015l.507-.298c.059-.045.104-.15.059-.18zm-.298 6.915l.104-.387 1.267-.73c-.03.209-.164.477-.596.909-.104.12-.164.209-.164.373 0 .134.075.477.373.313.253-.15.655-.805.67-1.76l.492-.282v-.403l-.492.284c-.029-.805-.387-1.253-1.162-.805-.567.328-.88.983-1.088 1.744l-.119.432-1.446.834c.03-.149.134-.492.715-1.073.134-.149.194-.253.194-.432s-.179-.403-.447-.253c-.209.119-.716.715-.745 1.922l-.641.373v.402l.641-.372c0 .655.328 1.371 1.207.864.671-.402.999-1.058 1.237-1.952zm.238-.864c.075-.387.269-.775.567-.939.313-.179.551-.06.566.298l-1.133.641zm-2.399 1.789l1.326-.76c-.134.462-.387.864-.76 1.088-.358.208-.566.06-.566-.328z" fill="#687A51"/><path d="M103.831 55.548v-1.73l.089-.059v1.744l-.089.045zm0-8.824v-1.743l.089-.045v1.729l-.089.06z" fill="#A5AA9F"/><path d="M122.148 60.362l-21.567 12.446c-1.163.67-2.117.268-2.117-.895v-16.38c0-1.163.954-2.668 2.117-3.339l21.567-12.445c.894-.522 1.624-.209 1.624.686v17.363c0 .895-.73 2.042-1.624 2.564z" fill="#788EFF"/><path d="M115.619 47.455l-2.534 1.46c-1.58.91-2.861 2.937-2.861 4.531 0 1.58 1.281 2.132 2.861 1.208l2.534-1.461v-5.738z" fill="#5672CC"/><path d="M123.221 48.811l-9.286 5.35c-1.58.91-2.876.373-2.876-1.206 0-1.58 1.281-3.607 2.876-4.532l9.286-5.35c.521-.298.939-.12.939.402v3.86c0 .507-.418 1.178-.939 1.476z" fill="#83ACFF"/><path d="M114.978 50.808c0 .745-.596 1.684-1.341 2.117-.745.432-1.342.179-1.342-.567 0-.745.597-1.684 1.342-2.116.745-.432 1.341-.179 1.341.566z" fill="#FEF0FF"/><path opacity=".7" d="M80.742 46.978l16.261-9.375c.462-.269.85-.164.85.238l-.015 9.688c0 .403-.373.954-.85 1.222l-16.26 9.375c-.463.269-.85.164-.85-.238l.015-9.688c0-.403.387-.954.85-1.222zm-18.779 10.85l16.26-9.375c.463-.268.85-.164.85.239l-.015 9.688c0 .402-.372.954-.85 1.222l-16.26 9.375c-.462.268-.85.164-.85-.239l.015-9.688c0-.417.388-.953.85-1.222z" fill="#CCCBB0"/><path opacity=".5" d="M80.862 49.497c-.15-.105-.403-.075-.686.09l-16.26 9.374c-.463.268-.85.82-.85 1.222l-.015 9.688c0 .164.06.269.164.328l.253.15L81.1 49.645l-.238-.15zm18.779-10.836c-.149-.104-.402-.075-.686.09l-16.26 9.374c-.462.269-.85.82-.85 1.223l-.015 9.688c0 .163.06.268.164.328l.253.149L99.88 38.81l-.239-.149z" fill="#AAA98A"/><path d="M82.92 48.23l16.26-9.375c.462-.268.85-.164.85.238l-.015 9.688c0 .403-.373.954-.85 1.222l-16.26 9.375c-.463.269-.85.164-.85-.238l.015-9.688c0-.402.372-.954.85-1.222z" fill="#D84141"/><path d="M95.11 41.94l3.31-1.908c.312-.179.55-.104.55.164v1.073c0 .269-.252.626-.55.79l-3.31 1.908c-.313.179-.55.104-.55-.164V42.73c0-.268.252-.626.55-.79z" fill="#FFFFD6"/><path d="M83.545 58.037l2.474-1.43c.239-.135.418-.403.418-.612v-1.192c0-.194-.194-.254-.418-.12l-2.474 1.431c-.238.134-.417.403-.417.611v1.193c0 .208.179.253.417.119z" fill="#FFC440"/><path opacity=".6" d="M83.47 56.174c-.03.015-.045.045-.075.06v1.863c.03 0 .045-.015.075-.03v-.462l.775-.447c.045.178.254.223.492.074.253-.149.462-.417.492-.64l.82-.478v.462a.262.262 0 00.074-.06v-1.892c-.03.015-.045.015-.075.03v.521l-.82.477c-.029-.194-.238-.238-.491-.09-.253.15-.462.433-.492.672l-.775.447v-.507zm1.774.343v-.79l.805-.462v.805l-.805.447zm-.507.655c-.209.12-.388.09-.417-.06l.85-.491c-.046.209-.224.432-.433.551zm0-1.535c.209-.119.387-.09.417.075l-.85.492a.95.95 0 01.433-.567zm-.432.626l.864-.491v.79c0 .014-.864.506-.864.506v-.805zm-.075.045v.79c0 .015-.775.462-.775.462v-.805l.775-.447z" fill="#D88C1D"/><path d="M97.288 49.482c0 .492-.403 1.118-.88 1.4-.492.284-.88.12-.88-.372s.403-1.118.88-1.4c.477-.284.88-.105.88.372z" fill="#992E2E"/><path d="M99.33 48.304c0 .492-.403 1.118-.88 1.401-.492.284-.88.12-.88-.372s.403-1.118.88-1.401c.477-.284.88-.105.88.372z" fill="#FFC440"/><path d="M86.407 51.479v.477c0 .104-.09.238-.193.298l-2.49 1.43c-.104.06-.193.03-.193-.074v-.477c0-.104.09-.238.194-.298l2.489-1.43c.104-.06.193-.03.193.074zm3.741-2.34l-2.489 1.43c-.104.06-.193.194-.193.299v.477c0 .104.089.134.193.074l2.49-1.43c.104-.06.193-.194.193-.299v-.477c-.015-.104-.09-.134-.194-.074zm3.92-2.266l-2.489 1.431c-.104.06-.194.194-.194.298v.477c0 .105.09.134.194.075l2.49-1.431c.104-.06.193-.194.193-.298v-.477c0-.105-.09-.134-.194-.075zm3.92-2.265l-2.489 1.43c-.104.06-.194.195-.194.299v.477c0 .104.09.134.194.074l2.49-1.43c.104-.06.193-.194.193-.299v-.477c0-.104-.09-.134-.194-.074z" fill="#FFFFD6"/><path d="M83.082 50.182v-1.028c.03-.045.448-.283.448-.283.09-.045.149-.06.193-.045.045.015.075.074.075.149v.566a.495.495 0 01-.268.418l-.418.238c-.015.015-.03 0-.03-.015zm.18-.223l.238-.135a.233.233 0 00.12-.193v-.552c0-.09-.046-.104-.12-.06l-.239.135c-.014.03-.014.79-.014.79 0 .03.014.03.014.015zm1.325-.612l-.536.314c-.03-.015-.03-1.044-.03-1.044.03-.044.566-.357.566-.357.03.014.03.104.03.104-.03.045-.417.268-.417.268-.015.03-.015.313-.015.313.015 0 .343-.179.343-.179.03.015.03.105.03.105-.03.044-.358.238-.358.238-.015.03-.015.328-.015.328.015 0 .402-.209.402-.209.03.015.03.105.03.105 0-.015-.015 0-.03.014zm.239-.178V48.14c.03-.044.432-.268.432-.268.09-.045.15-.06.194-.045.045.015.075.075.075.15v.089a.339.339 0 01-.134.268c.044-.015.074-.015.104 0s.045.045.045.104v.105c0 .074-.03.164-.075.223a.453.453 0 01-.194.18l-.417.238c-.015.015-.03.015-.03-.015zm.179-.686l.224-.12c.089-.044.134-.118.134-.193v-.074c0-.075-.045-.105-.12-.045l-.238.104c-.015.03-.015.313-.015.313 0 .015.015.015.015.015zm0 .477l.239-.134a.206.206 0 00.119-.194v-.104c0-.075-.045-.09-.134-.045l-.224.134c-.015.03-.015.343-.015.343h.015zm.925-1.446v1.029a.56.56 0 01-.135.104c-.03-.015-.03-1.043-.03-1.043a.542.542 0 01.134-.105c.03-.015.03 0 .03.015zm.551.731l-.104.06c-.03-.016-.03-.91-.03-.91-.015 0-.223.12-.223.12-.03-.016-.03-.105-.03-.105.03-.045.656-.402.656-.402.03.014.03.104.03.104-.03.045-.24.164-.24.164-.014.03-.014.924-.014.924-.015.03-.03.045-.045.045zm1.282-.731l-.194.12c-.09.044-.149.06-.194.044-.044-.015-.074-.074-.074-.149v-.566c0-.09.03-.164.074-.239a.453.453 0 01.194-.178l.194-.12c.09-.044.149-.06.194-.044.044.015.074.074.074.149v.074a.545.545 0 01-.134.105c-.03-.164-.075-.194-.15-.15l-.148.09c-.075.045-.12.104-.12.194v.551c0 .09.045.104.12.06l.149-.09a.233.233 0 00.12-.194c.029-.119.133-.178.133-.178.03.015.03.09.03.09a.45.45 0 01-.074.238.485.485 0 01-.194.193zm.521-.313l-.119.075c-.015-.015.283-1.207.283-1.207.045-.045.209-.15.209-.15.045 0 .328.865.328.865-.015.045-.134.104-.134.104-.03-.015-.09-.194-.09-.194l-.372.21-.06.252c-.015.03-.03.045-.045.045zm.283-1.073l-.148.626.298-.179-.15-.447zm.716.507l-.104.06c-.03-.015-.03-1.044-.03-1.044.03-.045.417-.268.417-.268.09-.045.15-.06.194-.045.045.015.075.075.075.15v.148c0 .134-.06.239-.164.343l.193.298c-.015.045-.119.105-.119.105-.06 0-.238-.284-.238-.284l-.164.105c-.015.03-.015.402-.015.402-.015 0-.015.015-.045.03zm.045-.581l.208-.12a.203.203 0 00.12-.193v-.15c0-.089-.045-.104-.12-.06l-.208.12c-.015.03-.015.388-.015.388 0 .015.015.015.015.015zm.745.104V45.13c.03-.045.447-.284.447-.284.09-.044.149-.06.194-.044.044.015.074.074.074.149v.566a.495.495 0 01-.268.417l-.417.239c-.03 0-.03 0-.03-.015zm.179-.224l.238-.134c.075-.044.12-.104.12-.194v-.551c0-.09-.045-.104-.12-.06l-.238.135c-.015.03-.015.79-.015.79 0 .014 0 .014.015.014z" fill="#FFC440"/><path d="M64.124 59.08l16.26-9.375c.463-.268.85-.164.85.239l-.015 9.688c0 .402-.372.954-.85 1.222l-16.26 9.375c-.462.268-.85.164-.85-.239l.015-9.687c.015-.418.388-.954.85-1.223z" fill="#FFC522"/><path d="M76.33 52.776l3.31-1.908c.313-.179.551-.105.551.164v1.073c0 .268-.253.626-.551.805l-3.31 1.908c-.312.178-.55.104-.55-.164V53.58c0-.268.253-.625.55-.804z" fill="#FFFFD6"/><path d="M64.766 68.89l2.474-1.432c.238-.134.417-.402.417-.61v-1.193c0-.194-.194-.253-.417-.12l-2.474 1.432c-.239.134-.418.402-.418.61v1.193c0 .194.179.253.418.12z" fill="#FFE845"/><path opacity=".6" d="M64.69 67.01c-.03.014-.044.044-.074.06v1.862c.03 0 .044-.015.074-.03v-.462l.775-.447c.045.18.254.224.492.075.254-.15.462-.418.492-.641l.82-.477v.462a.262.262 0 00.074-.06V65.46c-.03.014-.044.014-.074.03v.521l-.82.477c-.03-.194-.239-.239-.492-.09-.253.15-.462.433-.492.671l-.775.447v-.506zm1.774.342v-.79l.805-.462v.805l-.805.447c0 .015 0 0 0 0zm-.507.656c-.208.12-.387.09-.417-.06l.85-.491c-.045.208-.224.432-.433.551zm0-1.535c.209-.12.388-.09.418.075l-.85.491c.045-.193.224-.432.432-.566zm-.432.626l.864-.492v.79c0 .015-.864.507-.864.507v-.805zm-.075.045v.79c0 .015-.775.462-.775.462v-.805l.775-.447z" fill="#D88C1D"/><path d="M78.507 60.332c0 .492-.403 1.118-.88 1.401-.491.284-.879.12-.879-.372s.402-1.118.88-1.401c.476-.283.879-.12.879.372z" fill="#D84141"/><path d="M80.549 59.155c0 .492-.403 1.118-.88 1.4-.491.284-.879.12-.879-.372s.402-1.118.88-1.4c.476-.284.879-.12.879.372z" fill="#FFE845"/><path d="M67.627 62.33v.476c0 .105-.09.239-.194.299l-2.49 1.43c-.104.06-.193.03-.193-.074v-.477c0-.105.09-.239.194-.298l2.489-1.431c.104-.075.194-.03.194.075zm3.74-2.355l-2.488 1.43c-.105.06-.194.194-.194.298v.477c0 .105.09.135.194.075l2.489-1.43c.104-.06.193-.195.193-.299v-.477c-.015-.09-.089-.134-.193-.075zm3.92-2.266l-2.489 1.43c-.104.06-.193.195-.193.299v.477c0 .104.09.134.194.074l2.489-1.43c.104-.06.193-.194.193-.298v-.478c0-.104-.09-.134-.193-.074zm3.92-2.266l-2.489 1.431c-.104.06-.193.194-.193.298v.477c0 .105.09.134.193.075l2.49-1.43c.104-.06.193-.195.193-.299v-.477c0-.104-.09-.134-.194-.075zM64.75 60.78l-.194.119c-.09.044-.15.06-.194.044-.045-.015-.074-.074-.074-.149v-.566c0-.09.03-.164.074-.239a.453.453 0 01.194-.178l.194-.12c.074-.044.149-.06.193-.044.045.014.075.074.075.149v.074a.541.541 0 01-.134.105c-.03-.164-.075-.194-.15-.15l-.148.09c-.075.045-.12.104-.12.194v.551c0 .09.045.105.12.06l.149-.09c.074-.044.119-.104.119-.193a.31.31 0 01.134-.18c.03.016.03.09.03.09a.45.45 0 01-.075.239.591.591 0 01-.193.193zm.596-.343l-.104.06c-.03-.016-.03-1.044-.03-1.044.03-.045.417-.268.417-.268.09-.045.15-.06.194-.045.045.015.075.074.075.149v.134c0 .134-.06.239-.164.343l.193.298c-.015.045-.119.104-.119.104-.045 0-.238-.283-.238-.283l-.164.105c-.015.03-.015.402-.015.402-.015.015-.015.03-.045.045zm.045-.582l.208-.119c.09-.045.12-.12.12-.194v-.149c0-.09-.045-.104-.12-.06l-.208.135c-.015.03-.015.387-.015.387h.015zm1.311-.193l-.536.313c-.03-.015-.03-1.044-.03-1.044.03-.044.566-.357.566-.357.03.015.03.104.03.104-.03.045-.417.268-.417.268-.015.03-.015.313-.015.313.015 0 .343-.179.343-.179.03.015.03.105.03.105-.03.044-.358.238-.358.238-.015.03-.015.328-.015.328.015 0 .402-.209.402-.209.03.015.03.105.03.105-.015-.015-.015 0-.03.015zm.238-.179v-1.029c.03-.044.448-.283.448-.283.089-.044.149-.06.193-.044.045.014.075.074.075.148v.567a.45.45 0 01-.075.238.454.454 0 01-.193.18l-.418.238c-.03.015-.03.015-.03-.015zm.18-.209l.238-.134c.074-.045.119-.104.119-.194v-.551c0-.09-.045-.105-.12-.06l-.238.134c-.015.03-.015.79-.015.79 0 .015 0 .015.015.015zm.923-1.446v1.029a.544.544 0 01-.134.104c-.03-.015-.03-1.043-.03-1.043a.534.534 0 01.134-.104c.015-.015.03-.015.03.014zm.552.731l-.105.06c-.03-.016-.03-.91-.03-.91-.014 0-.223.12-.223.12-.03-.016-.03-.105-.03-.105.03-.045.656-.402.656-.402.03.014.03.104.03.104-.03.045-.239.164-.239.164-.015.03-.015.924-.015.924l-.044.045zm1.282-.731l-.194.12c-.09.044-.15.06-.194.044-.045-.015-.074-.074-.074-.149v-.566c0-.09.03-.164.074-.239a.453.453 0 01.194-.178l.194-.12c.089-.044.149-.06.193-.044.045.014.075.074.075.148v.075a.534.534 0 01-.134.104c-.03-.164-.075-.193-.15-.149l-.148.09c-.075.044-.12.104-.12.194v.551c0 .09.045.104.12.06l.149-.09c.074-.044.119-.104.119-.194.03-.119.134-.178.134-.178.03.014.03.089.03.089 0 .075-.03.164-.075.239-.06.074-.119.134-.193.193zm.521-.313l-.12.075c-.014-.015.284-1.207.284-1.207.045-.045.209-.15.209-.15.044 0 .328.865.328.865-.015.045-.135.104-.135.104-.03-.014-.089-.193-.089-.193l-.373.208-.06.254-.044.044zm.283-1.073l-.149.626.298-.179-.149-.447zm.716.492l-.105.06c-.03-.015-.03-1.044-.03-1.044.03-.044.418-.268.418-.268.074-.045.15-.06.194-.045.044.015.074.075.074.15v.148c0 .135-.06.239-.164.343l.194.298c-.015.045-.12.105-.12.105-.059 0-.238-.283-.238-.283l-.163.104c-.015.03-.015.402-.015.402-.015.015-.03.03-.045.03zm.045-.566l.208-.12a.203.203 0 00.12-.193v-.15c0-.089-.045-.104-.12-.059l-.208.12c-.015.029-.015.387-.015.387 0 .015.015.015.015.015zm.729.089V55.43c.03-.045.447-.284.447-.284.09-.044.15-.06.194-.044.045.015.075.074.075.149v.566a.495.495 0 01-.269.417l-.417.239c-.015.015-.03.015-.03-.015zm.194-.209l.239-.134c.074-.044.119-.104.119-.194v-.551c0-.09-.045-.104-.12-.06l-.238.135c-.015.03-.015.79-.015.79-.015.014 0 .014.015.014z" fill="#FFFFD6"/><path d="M110.402 17.824l1.864-1.073v.447l-1.864 1.073v-.447zm-2.399 4.919l-2.907 1.684v.447l3.443-1.982 1.193-.686v-.447l-1.729.984zm2.578-2.817v-.447l-1.46.834-.954.552v.447l.954-.552 1.46-.834zm-3.1 1.356l-2.385 1.386v.447l2.385-1.386v-.447zm1.237-2.042l.999-.581v-.447l-1.729.998-2.892 1.67v.447l3.622-2.087zm-2.832-.134l2.355-1.356v-.448l-2.355 1.357-.76.447v.447l.76-.447zm4.695-2.713l.76-.432v-.447l-.998.581-1.416.82v.447l1.654-.969zm1.699 3.876l-1.863 1.073v.447l1.863-1.073v-.447zm-3.636 8.495l-3.548 2.042v.447l3.548-2.042v-.447zm-3.518 3.8v.448l.716-.417 2.981-1.714v-.448l-2.534 1.461-1.163.67zm7.154-9.434l-2.563 1.476-1.714.983v.448l1.714-.984 2.563-1.476v-.447zm-.357 5.515l-.641.373-1.774 1.028v.447l1.416-.82.999-.58v-.448zm-4.71-.82l-2.117 1.222v.447l2.117-1.222 2.355-1.356v-.447l-2.355 1.356zm3.04-1.759v.448l1.237-.716v-.447l-1.237.715zm-.924 2.758l2.236-1.297v-.447l-2.236 1.297v.447zm-4.233-1.103l2.221-1.282v-.447l-2.221 1.282v.447zm12.729-10.642l-1.744.999v.447l1.744-.999v-.447zm-.03-5.291l-1.043.61v.448l1.043-.611v-.447zm-1.729.998l-.894.522v.447l.894-.521v-.448zm1.744.76l-1.714 1v.446l1.714-.998v-.447zm-2.578 3.25l-.731.417v.447l.731-.417v-.447zm.685.06l1.908-1.104v-.447l-1.908 1.103v.447zm1.878 8.406l-1.624.939v.447l1.624-.94v-.446zm.015-1.789l-3.055 1.774v.447l3.055-1.774v-.447zm-2.325 3.115l-.894.522v.447l.894-.522v-.447zm-.075-3.055l2.4-1.387V21.7l-2.4 1.386v.448zm.671-2.147l1.744-.998v-.447l-1.744.998v.447zm4.442-5.872l-.746.432v.447l.746-.432v-.447zm-.03-5.291l-1.043.61v.448l1.043-.611v-.447zm.015 1.759l-.731.417v.447l.731-.417v-.447zm-.894 2.295v.447l.909-.522v-.447l-.909.522zm.879 9.42l-.626.357v.448l.626-.358v-.447zm.03-1.789l-.939.537v.447l.939-.537v-.447zm-.418-1.088l.418-.239v-.447l-.418.239v.447zm-.328-1.58l.746-.432v-.447l-.746.432v.447zm-17.274 7.125l.775-.448v-.447l-.775.447v.448zm-.015-5.292l.477-.268v-.447l-.477.268v.447zm.015 1.76l.79-.463v-.447l-.79.462v.447zm.015 1.31v.448l.611-.358v-.447l-.611.358zm-.045 10.404l.894-.521v-.448l-.894.522v.447zm.03-1.788l.581-.343v-.447l-.581.343v.447zm1.103-2.862l-1.103.64v.448l1.103-.64v-.448zm-.328-1.565l-.775.447v.447l.775-.447v-.447z" fill="#92BEFF"/><path opacity=".7" d="M88.106 64.64c0-1.863-1.312-2.623-2.921-1.7L74.87 68.859c-1.61.924-2.922 3.19-2.922 5.052v4.174c0 1.863 1.297 2.638 2.922 1.699l10.314-5.917c1.61-.924 2.92-3.19 2.92-5.053V64.64z" fill="#455CBA"/><path opacity=".7" d="M92.86 65.966l-14.427 17.26-.612-.358c-.536-.313-.864-.969-.864-1.908v-4.173c0-1.863 1.297-4.129 2.921-5.053l10.314-5.917c.805-.462 1.536-.507 2.057-.194l.611.343z" fill="#CFE9FF"/><path d="M90.804 66.175L80.49 72.092c-1.61.924-2.922 3.19-2.922 5.053v4.173c0 1.863 1.297 2.638 2.922 1.7L90.804 77.1c1.61-.924 2.921-3.19 2.921-5.053v-4.173c0-1.863-1.312-2.623-2.921-1.699z" fill="#83ACFF"/><path d="M80.683 80.603l-.715.402c-.12.075-.179.045-.179-.06v-5.037c0-.12.06-.209.179-.284l.715-.402c.12-.075.18-.045.18.075v.268a2.068 2.068 0 01.849-.954l.343-.194c.432-.253.745-.313.968-.209.224.105.328.373.328.82v1.535c0 .433-.104.835-.328 1.193-.223.358-.536.67-.968.909l-.343.194c-.18.104-.343.164-.492.164-.15.015-.268-.03-.328-.15-.03.015-.03 1.431-.03 1.431 0 .15-.06.239-.179.299zm.746-2.475l.372-.208c.179-.105.298-.209.373-.328a.83.83 0 00.119-.447v-1.431c0-.179-.045-.283-.12-.313-.074-.03-.208 0-.372.104l-.372.209c-.388.223-.582.536-.582.969v1.147c.015.418.209.522.582.298zm4.247-1.535l-.193.12c-.433.253-.775.327-1.014.238-.238-.09-.358-.358-.358-.805v-1.535c0-.432.12-.85.358-1.222.239-.373.581-.686 1.014-.94l1.922-1.117c.12-.075.18-.045.18.074v3.905c0 .12-.06.21-.18.284l-.7.402c-.12.075-.179.045-.179-.074v-.269c-.09.209-.209.373-.358.552a3.695 3.695 0 01-.492.387zm.85-2.042v-1.699c0-.06-.03-.074-.104-.03l-.79.447c-.18.105-.298.21-.373.328a.828.828 0 00-.104.448v1.43c0 .18.03.284.104.313.075.03.194 0 .373-.104l.313-.179c.387-.208.581-.536.581-.954zm2.668 1.416l-.537.313c-.104.06-.164.03-.164-.09v-.55c0-.12.06-.21.164-.284l.18-.104c.342-.209.58-.388.715-.552.119-.164.223-.417.283-.73l-.447.253c-.105.06-.18.045-.209-.06l-.969-3.114c-.03-.105.015-.18.12-.254l.745-.432c.104-.06.178-.045.208.06L90 73.09c.03-.015.745-3.503.745-3.503.015-.134.09-.223.209-.298l.7-.402c.134-.075.194-.045.164.089l-1.013 4.65c-.12.537-.313.999-.567 1.372-.253.402-.61.715-1.043.968z" fill="#fff"/><defs><linearGradient id="paint0_linear_93_14664" x1="40.788" y1="109.649" x2="96.184" y2="9.54" gradientUnits="userSpaceOnUse"><stop stop-color="#5917FF"/><stop offset=".159" stop-color="#6D22F8"/><stop offset=".485" stop-color="#A13DE7"/><stop offset=".946" stop-color="#F569CA"/><stop offset="1" stop-color="#FF6EC7"/></linearGradient><linearGradient id="paint1_linear_93_14664" x1="91.951" y1="108.701" x2="96.239" y2="108.701" gradientUnits="userSpaceOnUse"><stop stop-color="#C0B9C8"/><stop offset="1" stop-color="#E0DBE1"/></linearGradient><linearGradient id="paint2_linear_93_14664" x1="49.384" y1="95.052" x2="145.321" y2="95.052" gradientUnits="userSpaceOnUse"><stop stop-color="#F8F6FA"/><stop offset="1" stop-color="#FBF8FC"/></linearGradient></defs></svg>