<svg width="18" height="18" viewBox="0 0 18 18" fill="none" xmlns="http://www.w3.org/2000/svg">
<rect x="4" y="4" width="10" height="10" rx="3" fill="#0065FF"/>
<path d="M6 1H12V-1H6V1ZM17 6V12H19V6H17ZM12 17H6V19H12V17ZM1 12V6H-1V12H1ZM6 17C3.23858 17 1 14.7614 1 12H-1C-1 15.866 2.13401 19 6 19V17ZM17 12C17 14.7614 14.7614 17 12 17V19C15.866 19 19 15.866 19 12H17ZM12 1C14.7614 1 17 3.23858 17 6H19C19 2.13401 15.866 -1 12 -1V1ZM6 -1C2.13401 -1 -1 2.13401 -1 6H1C1 3.23858 3.23858 1 6 1V-1Z" fill="#0065FF"/>
</svg>
