<svg width="219" height="159" viewBox="0 0 219 159" fill="none" xmlns="http://www.w3.org/2000/svg">
<path opacity="0.4" d="M82.3232 122.884L53.1742 122.997C49.9858 122.941 46.7596 123.62 44.3258 125.035L4.04544 148.279C-1.59569 150.939 -1.72776 158.165 6.13964 158.146L77.7764 158.165L82.3232 155.165V122.884Z" fill="#50197C"/>
<path d="M120.528 4.02402L74.5313 30.5694C73.7011 31.06 73.1729 31.9467 73.1729 32.9089V146.448C73.1729 148.524 74.2105 151.731 78.2669 150.882L120.792 126.657C124.075 124.846 127.471 121.375 128.924 117.903C129.565 116.375 130.245 114.375 130.245 113.3L130.358 6.94836C130.395 2.49582 124.396 1.77889 120.528 4.02402Z" fill="url(#paint0_linear_383_5117)"/>
<path d="M128.452 2.76C126.867 1.83553 124.679 1.9676 122.264 3.36373L80.8892 27.2489C76.0971 30.0223 72.2105 36.72 72.2294 42.2479L72.1917 152.165C72.1917 154.901 73.1727 156.825 74.7198 157.731L70.9842 155.561C69.4183 154.656 68.4561 152.731 68.4561 149.995L68.4938 40.0783C68.4749 34.5692 72.3615 27.8527 77.1536 25.0793L118.547 1.19407C120.962 -0.202065 123.151 -0.334132 124.735 0.590335L128.452 2.76Z" fill="url(#paint1_linear_383_5117)"/>
<path d="M122.283 3.38257L80.8894 27.2489C76.0973 30.0223 72.2108 36.72 72.2296 42.2479L72.1919 152.165C72.2108 157.674 76.1162 159.9 80.9083 157.127L122.283 133.242C127.075 130.468 130.962 123.752 130.943 118.243L130.98 8.32563C130.98 2.81657 127.075 0.609169 122.283 3.38257ZM129.811 114.168C129.811 115.828 128.924 117.356 127.49 118.186L115.264 125.242L89.7379 139.977L75.9652 147.92C74.9653 148.505 73.7012 147.769 73.7012 146.618L73.7201 44.0968C73.7201 37.1916 77.3991 30.8336 83.3798 27.381L89.3417 23.9472C89.6624 23.7586 90.0209 23.7208 90.3794 23.8152L94.53 24.8906C94.8319 24.966 95.1526 24.9283 95.4168 24.7774L108.114 17.4571C108.303 17.3439 108.472 17.2118 108.605 17.042L114.887 9.36331C115.038 9.17464 115.246 9.00483 115.453 8.87277L123.811 4.0429C126.471 2.5147 129.792 4.42024 129.792 7.4955L129.811 114.168Z" fill="#353131"/>
<path d="M106.51 132.808C106.095 132.808 105.623 132.94 105.171 133.223L100.529 135.902C99.1521 136.694 98.0767 138.411 98.0767 139.807V142.241C98.0767 143.279 98.6993 143.977 99.6426 143.977C100.058 143.977 100.529 143.845 100.982 143.562L105.623 140.883C107.001 140.09 108.076 138.374 108.076 136.977V134.544C108.076 133.506 107.453 132.808 106.51 132.808Z" fill="#262424"/>
<path d="M105.095 140.619C106.473 139.826 107.567 138.091 107.567 136.676V134.223C107.567 133.638 107.359 133.185 107.02 132.865C106.869 132.808 106.699 132.77 106.51 132.77C106.095 132.77 105.624 132.902 105.152 133.185L100.473 135.883C99.0769 136.676 98.0015 138.411 98.0015 139.826V142.279C98.0015 142.864 98.209 143.317 98.5486 143.637C98.6995 143.694 98.8693 143.732 99.058 143.732C99.4731 143.732 99.9447 143.581 100.416 143.317L105.095 140.619Z" fill="#353131"/>
<path d="M106.454 16.3251L99.0017 20.6267C98.53 20.9097 98.1338 20.7399 98.1338 20.2682C98.1338 19.7966 98.5111 19.1928 99.0017 18.9098L106.454 14.6082C106.926 14.3252 107.322 14.495 107.322 14.9667C107.322 15.4384 106.926 16.0421 106.454 16.3251Z" fill="#191414"/>
<path d="M70.5501 61.0014C70.7199 61.1901 70.8708 61.4165 70.9652 61.6617C71.0784 61.9259 71.1538 62.2089 71.1538 62.473V71.6045C71.1538 71.9441 71.0406 72.1893 70.8331 72.3025L70.0596 72.7553C70.2482 72.6421 70.3803 72.3968 70.3803 72.0572V62.9258C70.3803 62.6617 70.3048 62.3787 70.1916 62.1145C70.0784 61.8693 69.9464 61.6429 69.7766 61.4542C69.6256 61.2844 69.4747 61.1523 69.3049 61.058L69.003 60.8882C68.7012 60.7184 68.437 60.6995 68.2295 60.8127L69.003 60.3599C69.1917 60.2467 69.4747 60.2656 69.7766 60.4354L70.0784 60.6052C70.2482 60.6995 70.418 60.8316 70.5501 61.0014Z" fill="#F6F4F7"/>
<path d="M70.3809 62.9259V72.0573C70.3809 72.7554 69.8904 73.0195 69.3055 72.6799L69.0036 72.5101C68.4188 72.1706 67.9282 71.3404 67.9282 70.6423V61.5109C67.9282 60.8317 68.4188 60.5487 69.0036 60.8883L69.3055 61.0581C69.9092 61.3977 70.3809 62.2467 70.3809 62.9259Z" fill="#CBC6CF"/>
<path d="M70.5501 47.0589C70.7199 47.2476 70.8708 47.474 70.9652 47.7192C71.0784 47.9834 71.1538 48.2664 71.1538 48.5305V57.662C71.1538 58.0016 71.0406 58.2468 70.8331 58.36L70.0596 58.8128C70.2482 58.6996 70.3803 58.4544 70.3803 58.1148V48.9833C70.3803 48.7192 70.3048 48.4362 70.1916 48.172C70.0784 47.9268 69.9464 47.7004 69.7766 47.5117C69.6256 47.3419 69.4747 47.2098 69.3049 47.1155L69.003 46.9457C68.7012 46.7759 68.437 46.757 68.2295 46.8702L69.003 46.4174C69.1917 46.3042 69.4747 46.3231 69.7766 46.4929L70.0784 46.6627C70.2482 46.757 70.418 46.908 70.5501 47.0589Z" fill="#F6F4F7"/>
<path d="M70.3809 48.9833V58.1147C70.3809 58.8128 69.8904 59.0769 69.3055 58.7373L69.0036 58.5675C68.4188 58.2279 67.9282 57.3978 67.9282 56.6997V47.5683C67.9282 46.8891 68.4188 46.6061 69.0036 46.9457L69.3055 47.1155C69.9092 47.4551 70.3809 48.3041 70.3809 48.9833Z" fill="#CBC6CF"/>
<path d="M95.4358 20.7399C94.8509 21.0795 94.3604 21.9097 94.3604 22.5889C94.3604 23.2681 94.8509 23.5511 95.4358 23.2115C96.0206 22.8719 96.5112 22.0417 96.5112 21.3625C96.5112 20.6645 96.0395 20.4003 95.4358 20.7399Z" fill="#191414"/>
<path opacity="0.1" d="M94.6426 22.3993C94.6614 21.8899 95.0199 21.2862 95.4727 21.0409C95.9255 20.7956 96.2651 21.022 96.2463 21.5314C96.2274 22.0408 95.8689 22.6446 95.4161 22.8898C94.9822 23.1351 94.6426 22.9087 94.6426 22.3993Z" fill="#CFD5D5"/>
<path opacity="0.1" d="M95.0394 22.2304C95.0394 21.9474 95.2469 21.6267 95.4922 21.4946C95.7375 21.3625 95.9261 21.4757 95.9073 21.7587C95.9073 22.0417 95.6997 22.3625 95.4545 22.4945C95.2092 22.6266 95.0205 22.5134 95.0394 22.2304Z" fill="#CFD5D5"/>
<path opacity="0.2" d="M95.3037 22.0976C95.3037 22.0035 95.379 21.8717 95.4731 21.8341C95.5672 21.7776 95.6237 21.8341 95.6237 21.9282C95.6237 22.0223 95.5484 22.154 95.4543 22.1917C95.379 22.2293 95.3037 22.1917 95.3037 22.0976Z" fill="#CFD5D5"/>
<path opacity="0.7" d="M85.7759 51.4738V148.128L143.583 114.753V18.0986L85.7759 51.4738Z" fill="#CFE9FF"/>
<path d="M143.583 18.476L85.7759 51.8511V41.1726L143.583 7.81628V18.476Z" fill="#DD5CD2"/>
<path opacity="0.5" d="M143.584 49.8135L129.169 45.0968L98.2847 89.6033V127.412L143.584 101.244V49.8135Z" fill="#455CBA"/>
<path d="M133.037 59.794L102.152 82.0567V119.866C105.472 117.941 137.055 99.7159 162.506 85.0188V47.21L133.037 59.794Z" fill="#FFC522"/>
<path d="M102.152 82.0568L104.416 83.0001L135.187 82.4718L161.054 50.757L162.506 47.21L133.037 37.5503L102.152 82.0568Z" fill="#DD5CD2"/>
<path opacity="0.7" d="M102.152 82.0568V119.866L104.416 116.79V83.0001L102.152 82.0568Z" fill="#EB9A1E"/>
<path opacity="0.3" d="M161.054 84.0756L104.416 116.79L102.152 119.866L162.506 85.0189L161.054 84.0756Z" fill="#EB9A1E"/>
<path opacity="0.1" d="M161.054 50.738V84.0754L162.506 85.0188V47.21L161.054 50.738Z" fill="#EB9A1E"/>
<path opacity="0.7" d="M161.129 83.9811C161.072 83.9622 135.376 82.2454 135.376 82.2454L135.187 82.4718L161.015 84.2075L162.374 85.0942C162.412 85.0754 162.449 85.0565 162.487 85.0188V84.8678L161.129 83.9811Z" fill="#EB9A1E"/>
<path opacity="0.7" d="M104.322 116.715L102.152 119.658V119.866C102.227 119.828 102.322 119.771 102.416 119.715L104.51 116.866L135.206 82.4718H134.867L104.322 116.715Z" fill="#EB9A1E"/>
<path d="M156.582 71.0008L108.736 98.6405V60.643L156.582 33.0222V71.0008Z" fill="#FFFAEB"/>
<path d="M148.262 58.1715L116.793 76.3401C115.151 77.2834 113.831 76.7174 113.831 75.0949V68.9255C113.831 67.2841 115.151 65.1899 116.793 64.2465L148.262 46.0779C149.904 45.1346 151.224 45.7006 151.224 47.3231V53.4925C151.224 55.1339 149.904 57.2093 148.262 58.1715Z" fill="#A072CC"/>
<path d="M87.8323 46.7948V46.5118C87.8323 46.4363 87.8701 46.3609 87.9644 46.3231L88.3606 46.0967C88.4549 46.0401 88.4927 46.059 88.4927 46.1533V46.3986C88.4927 46.9457 88.7568 47.0589 89.2851 46.7382L90.0775 46.2854C90.6057 45.9835 90.8699 45.5496 90.8699 45.0025V44.7006C90.8699 44.2667 90.5114 44.1912 89.7945 44.4742C89.4926 44.5874 89.1907 44.7006 88.9077 44.8138C88.6059 44.9081 88.3606 44.927 88.1342 44.8327C87.9267 44.7383 87.8135 44.5308 87.8135 44.1535V43.7195C87.8135 43.3045 87.9267 42.9083 88.1719 42.5309C88.4172 42.1536 88.7379 41.8517 89.153 41.6065L90.1529 41.0216C90.568 40.7952 90.8887 40.7197 91.1151 40.8141C91.3604 40.9084 91.4736 41.1725 91.4736 41.5876V41.814C91.4736 41.9083 91.4359 41.9649 91.3604 42.0215L90.9453 42.2668C90.8699 42.3045 90.8321 42.2857 90.8321 42.1913V42.0404C90.8321 41.4933 90.568 41.3801 90.0397 41.6819L89.2851 42.1159C88.7568 42.4177 88.4738 42.8705 88.4738 43.4365V43.795C88.4738 44.0969 88.6813 44.1912 89.0775 44.078C89.2473 44.0214 89.4549 43.9459 89.6624 43.8705C89.8699 43.795 90.0963 43.7195 90.3227 43.6441C90.5491 43.5875 90.7378 43.5497 90.9265 43.5309C91.1151 43.512 91.2472 43.5686 91.3604 43.7007C91.4736 43.8327 91.5302 44.0214 91.5302 44.2855V44.7006C91.5302 45.1157 91.417 45.5119 91.1717 45.8892C90.9265 46.2665 90.6057 46.5684 90.2095 46.8137L89.1719 47.4174C88.7568 47.6438 88.4361 47.7193 88.1908 47.6249C87.9455 47.474 87.8323 47.2099 87.8323 46.7948ZM95.945 43.4554L94.0395 44.5497C93.6244 44.7949 93.3037 44.8515 93.0584 44.7572C92.8131 44.6629 92.6999 44.3987 92.6999 43.9837V42.0593C92.6999 41.6442 92.8131 41.248 93.0584 40.8707C93.3037 40.4933 93.6244 40.1915 94.0395 39.9651L94.7941 39.5311C95.2092 39.2859 95.5299 39.2293 95.7563 39.3236C95.9827 39.4179 96.0959 39.6821 96.0959 40.0971V41.248C96.0959 41.3423 96.0582 41.3989 95.9639 41.4555L93.4169 42.9271C93.3603 42.9649 93.3225 43.0026 93.3225 43.0592V43.6063C93.3225 44.1346 93.5678 44.2478 94.0772 43.9459L95.9073 42.8894C95.9827 42.8328 96.0393 42.8517 96.0393 42.946V43.2667C96.0771 43.3422 96.0205 43.3988 95.945 43.4554ZM93.4357 42.4366L95.379 41.3235C95.4356 41.2857 95.4733 41.248 95.4733 41.1725V40.4745C95.4733 39.9651 95.2281 39.8519 94.7187 40.1349L94.1149 40.4933C93.6055 40.7763 93.3603 41.1914 93.3603 41.7008V42.3989C93.3603 42.4555 93.3791 42.4743 93.4357 42.4366ZM99.8881 40.7197V41.0593C99.8881 41.1348 99.8504 41.2103 99.7561 41.248L98.4543 42.0027C98.0392 42.2479 97.7185 42.3045 97.4732 42.2102C97.2279 42.1159 97.1147 41.8517 97.1147 41.4367V39.5123C97.1147 39.0972 97.2279 38.701 97.4732 38.3237C97.7185 37.9463 98.0392 37.6445 98.4543 37.4181L99.7561 36.6634C99.8315 36.6068 99.8881 36.6257 99.8881 36.72V37.0407C99.8881 37.1162 99.8504 37.1917 99.7561 37.2294L98.5297 37.9463C98.0392 38.2293 97.7751 38.6444 97.7751 39.1538V41.0216C97.7751 41.5499 98.0203 41.6631 98.5297 41.3801L99.7561 40.6631C99.8504 40.6254 99.8881 40.6443 99.8881 40.7197ZM102.567 39.6255L102.058 39.9085C101.643 40.1537 101.322 40.2103 101.096 40.116C100.869 40.0217 100.756 39.7575 100.756 39.3425V36.2106C100.756 36.1351 100.794 36.0597 100.888 36.0031L101.303 35.7767C101.379 35.7201 101.435 35.7389 101.435 35.8333V38.9274C101.435 39.4557 101.68 39.5689 102.19 39.2859L102.699 38.984C102.963 38.8331 103.171 38.6444 103.322 38.418C103.473 38.1916 103.529 37.9463 103.529 37.6822V34.6258C103.529 34.5503 103.567 34.4749 103.661 34.4183L104.077 34.1919C104.152 34.1353 104.209 34.1541 104.209 34.2485V38.5878C104.209 38.6633 104.171 38.7387 104.077 38.7953L103.661 39.0217C103.586 39.0783 103.529 39.0595 103.529 38.9651V38.6067C103.322 39.0217 103.02 39.3613 102.567 39.6255ZM105.944 37.6822L105.548 37.9086C105.473 37.9652 105.416 37.9463 105.416 37.852V33.5127C105.416 33.4372 105.454 33.3617 105.548 33.324L105.944 33.0976C106.02 33.041 106.076 33.0599 106.076 33.1542V33.5127C106.171 33.324 106.284 33.1542 106.454 32.9467C106.624 32.758 106.812 32.5882 107.039 32.4561L107.397 32.2486C107.473 32.2109 107.51 32.2297 107.51 32.3052V32.6448C107.51 32.6825 107.51 32.7203 107.491 32.758C107.473 32.7957 107.435 32.8146 107.397 32.8335L106.907 33.1165C106.642 33.2674 106.435 33.4749 106.284 33.7202C106.133 33.9655 106.076 34.2296 106.076 34.5126V37.4935C106.076 37.569 106.02 37.6256 105.944 37.6822ZM111.453 34.4937L109.548 35.588C109.133 35.8333 108.812 35.8899 108.567 35.7955C108.322 35.7012 108.208 35.4371 108.208 35.022V33.0976C108.208 32.6825 108.322 32.2863 108.567 31.909C108.812 31.5317 109.133 31.2298 109.548 31.0034L110.303 30.5695C110.718 30.3242 111.038 30.2676 111.265 30.3619C111.491 30.4563 111.623 30.7204 111.623 31.1355V32.2863C111.623 32.3807 111.585 32.4373 111.491 32.4939L108.944 33.9655C108.888 34.0032 108.85 34.0409 108.85 34.0975V34.6447C108.85 35.1729 109.095 35.2861 109.604 34.9843L111.435 33.9277C111.529 33.8711 111.567 33.89 111.567 33.9843V34.3051C111.585 34.3805 111.548 34.4371 111.453 34.4937ZM108.963 33.4749L110.906 32.3618C110.963 32.3241 111.001 32.2863 111.001 32.2109V31.5128C111.001 31.0034 110.755 30.8902 110.246 31.1732L109.642 31.5317C109.133 31.8147 108.888 32.2297 108.888 32.7391V33.4372C108.869 33.4938 108.906 33.5127 108.963 33.4749ZM117.698 30.4374V30.777C117.698 30.8525 117.661 30.9091 117.566 30.9657L116.264 31.7203C115.849 31.9656 115.529 32.0222 115.283 31.9279C115.038 31.8335 114.925 31.5694 114.925 31.1543V29.2299C114.925 28.8149 115.038 28.4187 115.283 28.0413C115.529 27.664 115.849 27.3621 116.264 27.1357L117.566 26.3811C117.642 26.3245 117.698 26.3433 117.698 26.4377V26.7773C117.698 26.8527 117.661 26.9093 117.566 26.9659L116.34 27.6829C115.849 27.9659 115.585 28.3809 115.585 28.8903V30.7581C115.585 31.2864 115.83 31.3996 116.34 31.1166L117.566 30.3997C117.642 30.3431 117.698 30.3619 117.698 30.4374ZM120.623 29.1922L119.849 29.645C119.434 29.8903 119.113 29.9469 118.868 29.8525C118.623 29.7582 118.51 29.4941 118.51 29.079V27.1546C118.51 26.7395 118.623 26.3433 118.868 25.966C119.113 25.5887 119.434 25.2868 119.849 25.0604L120.623 24.6076C121.038 24.3623 121.358 24.3057 121.604 24.4001C121.849 24.4944 121.962 24.7585 121.962 25.1736V27.098C121.962 27.5131 121.849 27.9093 121.604 28.2866C121.358 28.6639 121.038 28.9658 120.623 29.1922ZM119.925 29.0224L120.547 28.6639C121.057 28.3809 121.302 27.9659 121.302 27.4565V25.5698C121.302 25.0604 121.057 24.9472 120.547 25.2302L119.925 25.5887C119.415 25.8717 119.17 26.2867 119.17 26.7961V28.6828C119.17 29.2111 119.415 29.3243 119.925 29.0224ZM124.849 26.7584L124.32 27.0603C123.905 27.2867 123.585 27.3621 123.358 27.2678C123.132 27.1735 123.019 26.9093 123.019 26.4943V24.5699C123.019 24.1548 123.132 23.7586 123.358 23.4001C123.585 23.0417 123.905 22.7398 124.32 22.4945L124.849 22.1927C125.32 21.9285 125.622 21.9097 125.773 22.1361C125.811 22.1172 125.811 20.023 125.811 20.023C125.811 19.9287 125.849 19.8721 125.924 19.8343L126.339 19.5891C126.415 19.5513 126.452 19.5702 126.452 19.6457V25.7207C126.452 25.7962 126.415 25.8717 126.339 25.9094L125.924 26.1547C125.849 26.1924 125.811 26.1735 125.811 26.0981V25.7396C125.622 26.1547 125.32 26.4943 124.849 26.7584ZM125.811 24.8151V23.0228C125.811 22.7587 125.735 22.5889 125.603 22.5323C125.452 22.4757 125.264 22.5134 124.981 22.6643L124.434 22.9851C123.943 23.2681 123.679 23.6831 123.679 24.1925V26.0603C123.679 26.5886 123.924 26.7018 124.434 26.4188L124.981 26.0981C125.245 25.9471 125.452 25.7396 125.603 25.5321C125.735 25.3245 125.811 25.0793 125.811 24.8151ZM130.848 23.3058L128.943 24.4001C128.528 24.6453 128.207 24.7019 127.962 24.6076C127.716 24.5133 127.603 24.2491 127.603 23.8341V21.9097C127.603 21.4946 127.716 21.0984 127.962 20.7211C128.207 20.3437 128.528 20.0419 128.943 19.8155L129.697 19.3815C130.113 19.1363 130.433 19.0797 130.66 19.174C130.886 19.2683 130.999 19.5325 130.999 19.9475V21.0984C130.999 21.1927 130.962 21.2493 130.867 21.3059L128.32 22.7775C128.264 22.8153 128.226 22.853 128.226 22.9096V23.4567C128.226 23.985 128.471 24.0982 128.981 23.7963L130.811 22.7398C130.886 22.6832 130.943 22.7021 130.943 22.7964V23.1171C130.962 23.1926 130.924 23.2492 130.848 23.3058ZM128.339 22.287L130.282 21.1739C130.339 21.1361 130.377 21.0984 130.377 21.0418V20.3437C130.377 19.8343 130.131 19.7211 129.622 20.0041L128.999 20.3626C128.49 20.6456 128.245 21.0607 128.245 21.5701V22.2681C128.245 22.3059 128.282 22.3247 128.339 22.287Z" fill="#FFFAEB"/>
<path d="M164.77 27.0224C164.77 30.3807 162.053 34.6634 158.695 36.6067C155.337 38.55 152.62 37.3991 152.62 34.0408C152.62 30.6826 155.337 26.3998 158.695 24.4566C162.053 22.5133 164.77 23.6642 164.77 27.0224Z" fill="#DB3E3E"/>
<path d="M156.525 29.9468V28.8337C156.525 28.6827 156.601 28.5129 156.733 28.362L157.978 26.8715C158.186 26.6263 158.355 26.4565 158.506 26.381L159.601 25.7207C159.789 25.6075 159.884 25.6452 159.884 25.8339V34.022C159.884 34.1352 159.865 34.2107 159.827 34.2861C159.789 34.3427 159.714 34.4182 159.62 34.4748L158.431 35.154C158.242 35.2672 158.148 35.2295 158.148 35.0408V28.3997L156.808 29.9279C156.62 30.1355 156.525 30.1355 156.525 29.9468Z" fill="#FFFAEB"/>
<path d="M119.754 67.7933C120.207 68.3216 119.943 69.4725 119.151 70.3592C118.377 71.2648 117.377 71.5667 116.924 71.0573C116.472 70.5479 116.736 69.3781 117.528 68.4914C118.321 67.5858 119.302 67.2839 119.754 67.7933ZM123.132 65.2463C122.358 66.1519 122.075 67.3028 122.528 67.8122C122.981 68.3405 123.981 68.0197 124.754 67.1141C125.528 66.2085 125.811 65.0577 125.358 64.5483C124.905 64.0389 123.905 64.3596 123.132 65.2463ZM128.716 62.0201C127.943 62.9257 127.66 64.0766 128.112 64.586C128.565 65.1143 129.565 64.7935 130.339 63.8879C131.112 62.9823 131.395 61.8315 130.942 61.3221C130.49 60.8127 129.509 61.1145 128.716 62.0201ZM134.32 58.7939C133.546 59.6995 133.263 60.8504 133.716 61.3598C134.169 61.8881 135.169 61.5673 135.942 60.6617C136.716 59.7561 136.999 58.6053 136.546 58.0959C136.093 57.5865 135.093 57.8883 134.32 58.7939ZM139.904 55.5677C139.131 56.4733 138.848 57.6242 139.3 58.1336C139.753 58.643 140.753 58.3411 141.527 57.4355C142.3 56.5299 142.583 55.3791 142.13 54.8697C141.678 54.3603 140.696 54.6621 139.904 55.5677ZM145.507 52.3415C144.734 53.2471 144.451 54.398 144.904 54.9074C145.357 55.4357 146.356 55.1149 147.13 54.2093C147.904 53.3037 148.187 52.1529 147.734 51.6435C147.281 51.1341 146.281 51.4359 145.507 52.3415Z" fill="#FFFAEB"/>
<defs>
<linearGradient id="paint0_linear_383_5117" x1="67.0168" y1="26.591" x2="134.23" y2="123.99" gradientUnits="userSpaceOnUse">
<stop stop-color="#5917FF"/>
<stop offset="0.1588" stop-color="#6D22F8"/>
<stop offset="0.4847" stop-color="#A13DE7"/>
<stop offset="0.9459" stop-color="#F569CA"/>
<stop offset="1" stop-color="#FF6EC7"/>
</linearGradient>
<linearGradient id="paint1_linear_383_5117" x1="93.8423" y1="58.3195" x2="101.389" y2="45.2487" gradientUnits="userSpaceOnUse">
<stop stop-color="#C0B9C8"/>
<stop offset="1" stop-color="#F6F4F7"/>
</linearGradient>
</defs>
</svg>
