<svg width="40" height="40" viewBox="0 0 40 40" fill="none" xmlns="http://www.w3.org/2000/svg">
<path fill-rule="evenodd" clip-rule="evenodd" d="M36.6668 20C36.6668 29.2047 29.2049 36.6667 20.0002 36.6667C10.7954 36.6667 3.3335 29.2047 3.3335 20C3.3335 10.7952 10.7954 3.33333 20.0002 3.33333C29.2049 3.33333 36.6668 10.7952 36.6668 20ZM20.1354 10.1609C19.239 10.1584 18.3542 10.364 17.5508 10.7616C16.7474 11.1591 16.0472 11.7377 15.5054 12.4519C15.0185 13.0935 15.1441 14.0083 15.7857 14.4951C16.4273 14.9819 17.3421 14.8564 17.8289 14.2148C18.0979 13.8603 18.4455 13.5731 18.8443 13.3757C19.2431 13.1784 19.6823 13.0763 20.1273 13.0775C20.5723 13.0788 21.0109 13.1833 21.4086 13.3828C21.8064 13.5824 22.1524 13.8715 22.4193 14.2275C22.6863 14.5835 22.867 14.9966 22.9473 15.4343C23.0275 15.872 23.005 16.3223 22.8816 16.7499C22.7582 17.1774 22.5372 17.5704 22.2361 17.8981C21.9385 18.2219 21.5706 18.473 21.1608 18.6323C20.361 18.919 19.6745 19.4555 19.2029 20.1627C18.727 20.8767 18.4959 21.7259 18.5445 22.5826C18.5901 23.3867 19.2789 24.0016 20.0831 23.956C20.8872 23.9104 21.5021 23.2215 21.4565 22.4174C21.4437 22.192 21.5045 21.9685 21.6298 21.7806C21.755 21.5927 21.9379 21.4507 22.1509 21.3758C22.1634 21.3714 22.1757 21.3668 22.1881 21.3621C23.0253 21.0419 23.7769 20.5318 24.3835 19.8718C24.9901 19.2118 25.4352 18.42 25.6838 17.5588C25.9324 16.6975 25.9777 15.7903 25.8162 14.9086C25.6546 14.0268 25.2905 13.1947 24.7527 12.4775C24.2148 11.7604 23.5179 11.1779 22.7166 10.7759C21.9154 10.3739 21.0318 10.1634 20.1354 10.1609ZM21.4588 28.3333C21.4588 27.5279 20.8059 26.875 20.0005 26.875C19.1951 26.875 18.5422 27.5279 18.5422 28.3333V28.35C18.5422 29.1554 19.1951 29.8083 20.0005 29.8083C20.8059 29.8083 21.4588 29.1554 21.4588 28.35V28.3333Z" fill="#646E82"/>
</svg>
