<svg width="180" height="150" viewBox="0 0 180 150" fill="none" xmlns="http://www.w3.org/2000/svg">
<path opacity="0.4" d="M75.3348 53.1097C72.0143 51.1853 67.3354 50.5627 63.0715 51.1665C58.8077 50.5439 54.1287 51.1853 50.7893 53.1097L7.13187 78.3156C2.0756 81.2399 2.03787 85.9755 7.07527 88.8998L107.559 146.858C110.144 148.349 113.54 149.066 116.936 149.028H122.69L123.69 80.9947L75.3348 53.1097Z" fill="#50197C"/>
<path d="M167.97 114.747L119.445 142.764C118.558 143.274 117.482 143.274 116.596 142.764L12.8291 82.8436C10.9236 81.7494 8.56526 79.108 11.4707 75.8441L56.0338 49.7515C59.4298 47.7139 64.3917 46.431 68.316 46.9404C70.0517 47.1668 72.2402 47.5818 73.2213 48.1667L170.479 104.182C174.573 106.54 172.064 112.389 167.97 114.747Z" fill="url(#paint0_linear_383_5170)"/>
<path d="M179.573 111.785C179.573 113.71 178.309 115.653 175.762 117.124L132.104 142.33C127.048 145.255 118.86 145.255 113.822 142.33L13.3384 84.3718C10.848 82.9191 9.58398 81.0136 9.58398 79.108L9.60284 83.6738C9.60284 85.5793 10.8669 87.4848 13.3573 88.9376L113.841 146.896C118.879 149.82 127.067 149.82 132.123 146.896L175.78 121.69C178.327 120.219 179.61 118.294 179.591 116.351L179.573 111.785Z" fill="url(#paint1_linear_383_5170)"/>
<path d="M175.818 106.521L75.3343 48.5629C70.2969 45.6385 62.1088 45.6385 57.0525 48.5629L13.3951 73.7687C8.3388 76.6931 8.30104 81.4286 13.3384 84.3529L113.822 142.311C118.86 145.236 127.048 145.236 132.104 142.311L175.762 117.105C180.818 114.181 180.856 109.446 175.818 106.521ZM112.256 139.576L12.546 82.0323C10.1688 80.6551 10.1688 77.2025 12.546 75.8252L23.8094 69.3162C23.9981 69.203 24.2245 69.1275 24.432 69.1087L33.0918 68.0899C33.2616 68.071 33.4126 68.0144 33.5635 67.9389L47.1664 60.0715C47.3739 59.9583 47.5249 59.7885 47.6381 59.581L50.902 53.7889C50.9775 53.6569 51.0907 53.5437 51.2416 53.4493L58.1657 49.4496C63.2408 46.5064 69.5045 46.5064 74.5985 49.4496L170.837 104.993C171.649 105.465 171.649 106.653 170.837 107.125L114.728 139.538C113.936 140.01 113.011 140.01 112.256 139.576Z" fill="#353131"/>
<path d="M155.536 123.445L152.97 121.954C151.688 121.218 149.537 121.294 148.065 122.143L142.33 125.463C141.839 125.746 141.462 126.105 141.254 126.482C140.764 127.35 141.066 128.293 142.028 128.859L144.594 130.35C145.877 131.086 148.027 131.01 149.499 130.161L155.234 126.841C155.725 126.558 156.102 126.199 156.31 125.822C156.8 124.935 156.499 123.992 155.536 123.445Z" fill="#262424"/>
<path d="M155.574 124.048L152.989 122.558C151.706 121.822 149.537 121.897 148.065 122.746L142.311 126.067C141.82 126.35 141.443 126.708 141.217 127.086C141.122 127.256 141.066 127.444 141.028 127.614C141.122 128.105 141.424 128.557 141.971 128.859L144.556 130.35C145.839 131.104 148.009 131.01 149.48 130.161L155.235 126.841C155.725 126.558 156.102 126.199 156.329 125.822C156.423 125.652 156.48 125.463 156.517 125.293C156.423 124.822 156.121 124.369 155.574 124.048Z" fill="#353131"/>
<path d="M43.0913 58.4868L33.9976 63.7317C33.4882 64.0147 33.4504 64.4675 33.8844 64.7128C34.3183 64.958 35.073 64.9392 35.5824 64.6373L44.6761 59.3924C45.1855 59.1094 45.2232 58.6566 44.7893 58.4113C44.3554 58.166 43.6007 58.2038 43.0913 58.4868Z" fill="#191414"/>
<path d="M31.3553 96.7672C31.2609 96.5031 31.1289 96.2578 30.9779 96.0314C30.7893 95.7862 30.5817 95.5598 30.3365 95.4277L21.9785 90.6167C21.6578 90.428 21.3748 90.428 21.1861 90.5412L20.356 91.0129C20.5635 90.8997 20.8465 90.9186 21.1484 91.0884L29.5063 95.8994C29.7516 96.0314 29.9591 96.239 30.1478 96.5031C30.3176 96.7295 30.4496 96.9748 30.5251 97.2389C30.6006 97.4464 30.6383 97.6728 30.6383 97.8804V98.2388C30.6383 98.5973 30.5063 98.8614 30.2987 98.9746L31.1289 98.503C31.3364 98.3898 31.4684 98.1256 31.4684 97.7672V97.4087C31.4873 97.2012 31.4307 96.9748 31.3553 96.7672Z" fill="#F9F7FB"/>
<path d="M29.5261 95.9182L21.1681 91.1072C20.5455 90.7487 20.0361 91.0506 20.0361 91.7675V92.126C20.0361 92.8429 20.5455 93.7297 21.1681 94.0881L29.5261 98.918C30.1487 99.2765 30.6581 98.9746 30.6581 98.2577V97.8992C30.6581 97.1445 30.1487 96.2767 29.5261 95.9182Z" fill="#C0B9C8"/>
<path d="M44.1092 104.125C44.0148 103.861 43.8827 103.616 43.7318 103.389C43.5431 103.144 43.3356 102.918 43.0903 102.786L34.7324 97.9747C34.4117 97.7861 34.1287 97.7861 33.94 97.8993L33.1099 98.3709C33.3174 98.2577 33.6004 98.2766 33.9023 98.4464L42.2602 103.257C42.5055 103.389 42.713 103.597 42.9017 103.861C43.0715 104.088 43.2035 104.333 43.279 104.597C43.3545 104.804 43.3922 105.031 43.3922 105.238V105.597C43.3922 105.955 43.2601 106.219 43.0526 106.333L43.8827 105.861C44.0903 105.748 44.2224 105.484 44.2224 105.125V104.767C44.2224 104.559 44.1846 104.333 44.1092 104.125Z" fill="#F9F7FB"/>
<path d="M42.2609 103.257L33.903 98.4464C33.2804 98.088 32.771 98.3898 32.771 99.1068V99.4652C32.771 100.182 33.2804 101.069 33.903 101.427L42.2609 106.238C42.8835 106.597 43.3929 106.295 43.3929 105.578V105.22C43.3929 104.503 42.8835 103.616 42.2609 103.257Z" fill="#C0B9C8"/>
<path d="M32.2806 66.939C31.658 67.2975 30.677 67.2975 30.0544 66.939C29.4506 66.5805 29.4506 66.0145 30.0544 65.6561C30.677 65.2976 31.658 65.2976 32.2806 65.6561C32.8844 65.9957 32.8844 66.5805 32.2806 66.939Z" fill="#191414"/>
<path opacity="0.1" d="M30.3752 66.7692C30.828 67.0144 31.5637 66.9956 32.0165 66.7314C32.4693 66.4484 32.4505 66.0334 31.9788 65.7881C31.526 65.5428 30.7902 65.5617 30.3374 65.8258C29.9035 66.09 29.9224 66.5239 30.3752 66.7692Z" fill="#CFD5D5"/>
<path opacity="0.1" d="M30.7147 66.5239C30.9599 66.6559 31.3561 66.6559 31.6014 66.505C31.8467 66.3541 31.8278 66.1277 31.5825 65.9956C31.3373 65.8635 30.9411 65.8635 30.6958 66.0145C30.4694 66.1465 30.4694 66.3729 30.7147 66.5239Z" fill="#CFD5D5"/>
<path opacity="0.2" d="M30.998 66.354C31.0923 66.4106 31.2433 66.3918 31.3376 66.354C31.4319 66.2974 31.4319 66.222 31.3376 66.1654C31.2433 66.1088 31.0923 66.1276 30.998 66.1654C30.9037 66.2031 30.9037 66.2974 30.998 66.354Z" fill="#CFD5D5"/>
<path d="M156.801 131.708L150.877 135.123C150.178 135.519 149.631 135.274 149.631 134.595C149.631 133.897 150.197 133.029 150.877 132.633L156.801 129.218C157.499 128.822 158.046 129.048 158.046 129.746C158.065 130.425 157.499 131.312 156.801 131.708Z" fill="#262424"/>
<mask id="mask0_383_5170" style="mask-type:alpha" maskUnits="userSpaceOnUse" x="149" y="129" width="10" height="7">
<path d="M156.801 131.708L150.877 135.123C150.178 135.519 149.631 135.274 149.631 134.595C149.631 133.897 150.197 133.029 150.877 132.633L156.801 129.218C157.499 128.822 158.046 129.048 158.046 129.746C158.065 130.425 157.499 131.312 156.801 131.708Z" fill="#262424"/>
</mask>
<g mask="url(#mask0_383_5170)">
<path d="M148.631 132.633L147.801 133.105L150.726 134.803L151.556 134.331L148.631 132.633ZM150.443 131.595L149.612 132.067L152.537 133.765L153.367 133.293L150.443 131.595ZM152.254 130.558L151.424 131.029L154.348 132.727L155.178 132.256L152.254 130.558ZM154.065 129.501L153.235 129.973L156.159 131.671L156.989 131.199L154.065 129.501Z" fill="#9E6512"/>
</g>
<path opacity="0.7" d="M172.574 88.2394L113.785 122.181L16.4707 65.9956L75.2404 32.0544L172.574 88.2394Z" fill="#CFE9FF"/>
<path d="M75.6176 32.262L16.848 66.2031L9.56543 62.0147L68.3539 28.0736L75.6176 32.262Z" fill="#DD5CD2"/>
<path opacity="0.5" d="M86.2774 42.997L35.3751 72.4479C33.9035 73.2969 33.7526 74.5798 35.0167 75.2968L65.5052 92.8616C66.7693 93.5974 68.9955 93.5031 70.4482 92.6541L121.351 63.2032C122.822 62.3542 122.973 61.0713 121.709 60.3544L91.2205 42.7895C89.9564 42.0537 87.749 42.148 86.2774 42.997Z" fill="#455CBA"/>
<path opacity="0.7" d="M122.558 50.4871C122.558 51.0343 122.143 51.6191 121.369 52.0719L70.4669 81.5228C68.9953 82.3718 66.7879 82.4661 65.5238 81.7303L35.0353 64.1655C34.4127 63.807 34.1297 63.3165 34.1863 62.8071C34.224 62.5241 34.1674 61.9392 34.2052 61.5996C34.2618 61.0902 34.6579 60.5619 35.3937 60.128L86.2771 30.696C87.7487 29.847 89.9561 29.7527 91.2202 30.4885L121.709 48.0533C122.256 48.3741 122.539 48.7703 122.558 49.2042C122.595 49.5438 122.558 50.2041 122.558 50.4871Z" fill="#CFE9FF"/>
<path d="M91.239 30.4885C89.9749 29.7527 87.7487 29.847 86.296 30.696L35.3937 60.1469C33.9221 60.9959 33.7711 62.2788 35.0352 62.9957L54.6754 74.2969L110.634 41.6387L91.239 30.4885Z" fill="#9423F7"/>
<path d="M114.709 44.0348L121.935 48.2043C122.935 48.959 122.727 50.1099 121.369 50.9023L70.4667 80.3531C68.9951 81.2021 66.7877 81.2965 65.5236 80.5607L58.543 76.5421L114.709 44.0348Z" fill="#FF80B7"/>
<path d="M107.729 39.9973L114.954 44.1668L58.5432 76.5232L51.5625 72.5046L107.729 39.9973Z" fill="#291B2A"/>
<path d="M107.446 50.8267C107.012 51.0719 106.748 51.4116 106.71 51.7323C106.672 52.0719 106.861 52.3737 107.238 52.5813L109.257 53.7322C110.049 54.185 111.408 54.1284 112.313 53.6001L117.634 50.5248C118.068 50.2795 118.332 49.9399 118.369 49.6192C118.407 49.2796 118.219 48.9778 117.841 48.7702L115.822 47.6194C115.03 47.1666 113.672 47.2232 112.766 47.7514L107.446 50.8267Z" fill="#FEDCFF"/>
<path d="M86.2401 36.8655C87.4853 37.5824 89.5229 37.5824 90.7869 36.8655C92.0321 36.1486 92.0321 34.96 90.7869 34.243C89.5417 33.5261 87.5041 33.5261 86.2401 34.243C84.9949 34.96 84.9949 36.1486 86.2401 36.8655Z" fill="#DD3E3E"/>
<path d="M83.2967 40.4124C85.068 40.4124 86.504 39.5846 86.504 38.5634C86.504 37.5423 85.068 36.7145 83.2967 36.7145C81.5253 36.7145 80.0894 37.5423 80.0894 38.5634C80.0894 39.5846 81.5253 40.4124 83.2967 40.4124Z" fill="#FFC440"/>
<path d="M41.9973 62.3731L41.4313 62.6938C41.186 62.8259 40.9408 62.9014 40.6766 62.9014C40.4125 62.9014 40.1672 62.8448 39.9408 62.6938L38.356 61.7882C38.1296 61.6562 37.9976 61.5052 38.0164 61.3543C38.0164 61.2034 38.1485 61.0524 38.3749 60.9204L38.9409 60.5996C39.1862 60.4676 39.4314 60.3921 39.6956 60.3921C39.9597 60.3921 40.2049 60.4487 40.4313 60.5996L40.6578 60.7317C40.7144 60.7694 40.7144 60.7883 40.6578 60.826L40.3559 60.9958C40.2993 61.0336 40.2427 61.0336 40.1861 60.9958L39.9786 60.8826C39.7522 60.7506 39.5069 60.7506 39.2805 60.8826L38.8654 61.1279C38.6391 61.26 38.6391 61.392 38.8654 61.5241L40.4125 62.4108C40.6389 62.5429 40.8841 62.5429 41.1105 62.4108L41.5256 62.1656C41.752 62.0335 41.752 61.9014 41.5256 61.7694L41.3181 61.6562C41.2615 61.6184 41.2615 61.5996 41.3181 61.5618L41.6199 61.392C41.6765 61.3543 41.7331 61.3543 41.7897 61.392L42.0162 61.5241C42.2426 61.6562 42.3557 61.8071 42.3557 61.958C42.3557 62.109 42.2237 62.241 41.9973 62.3731Z" fill="#FEDCFF"/>
<path d="M43.7332 61.3732L43.4314 61.543C43.3748 61.5807 43.3182 61.5807 43.2616 61.543L40.375 59.8827C40.3184 59.845 40.3184 59.8261 40.375 59.7884L41.507 59.1281C41.7522 58.996 41.9975 58.9205 42.2616 58.9205C42.5258 58.9205 42.7711 58.9771 43.0163 59.1092L43.4125 59.3356C43.771 59.5431 43.8465 59.7695 43.6389 59.9959C43.6578 60.0148 45.3181 60.3355 45.3181 60.3355C45.4124 60.3544 45.4312 60.3733 45.3558 60.4299L45.0539 60.5997C44.9785 60.6374 44.903 60.6563 44.8275 60.6374L43.2239 60.3167L42.7333 60.5997C42.7144 60.6563 43.771 61.26 43.771 61.26C43.7898 61.3166 43.7898 61.3355 43.7332 61.3732ZM42.3182 60.3921L42.9408 60.0337C43.1861 59.9016 43.1861 59.7507 42.9597 59.6186L42.5635 59.3922C42.3371 59.2601 42.0918 59.2601 41.8466 59.3922L41.224 59.7507C41.224 59.8073 42.2239 60.3921 42.2239 60.3921C42.2617 60.411 42.2805 60.411 42.3182 60.3921Z" fill="#FEDCFF"/>
<path d="M47.6384 59.128L46.0725 60.0336C46.0159 60.0713 45.9593 60.0713 45.9027 60.0336L43.0161 58.3733C42.9595 58.3356 42.9595 58.3167 43.0161 58.279L44.582 57.3734C44.6386 57.3357 44.6952 57.3357 44.7329 57.3734L44.9782 57.5055C45.0348 57.5432 45.0348 57.5621 44.9782 57.5998L43.8651 58.2413C43.8462 58.2979 44.6575 58.7695 44.6575 58.7695C44.6952 58.7884 44.7329 58.7884 44.7707 58.7695L45.714 58.2224C45.7706 58.1847 45.8272 58.1847 45.8838 58.2224L46.1291 58.3545C46.1857 58.3922 46.1857 58.4111 46.1291 58.4488L45.1857 58.9959C45.1669 59.0525 46.0159 59.5431 46.0159 59.5431C46.0536 59.5619 46.0913 59.5619 46.1291 59.5431L47.2422 58.9016C47.2988 58.8639 47.3554 58.8639 47.3931 58.9016L47.6384 59.0337C47.6762 59.0714 47.6762 59.0903 47.6384 59.128Z" fill="#FEDCFF"/>
<path d="M48.2425 58.6752L45.3559 57.015C45.2993 56.9772 45.2993 56.9584 45.3559 56.9206L46.5445 56.2225C46.7898 56.0905 47.0351 56.015 47.2992 56.015C47.5633 56.015 47.8086 56.0716 48.0539 56.2037L49.6387 57.1093C49.8651 57.2414 49.9783 57.3923 49.9783 57.5432C49.9783 57.6942 49.8462 57.8451 49.6198 57.9772L48.4312 58.6752C48.3557 58.713 48.2991 58.713 48.2425 58.6752ZM48.4501 58.1847L49.1293 57.7885C49.3556 57.6564 49.3556 57.5244 49.1293 57.3923L47.5822 56.5056C47.3558 56.3735 47.1105 56.3735 46.8841 56.5056L46.2049 56.9018C46.2049 56.9584 48.3369 58.2036 48.3369 58.2036C48.3746 58.2036 48.4123 58.2036 48.4501 58.1847Z" fill="#FEDCFF"/>
<path d="M48.5628 55.1661L51.4494 56.8263C51.506 56.8641 51.506 56.8829 51.4494 56.9207L51.1287 57.1093C51.0721 57.1471 51.0155 57.1471 50.9589 57.1093L48.0722 55.4491C48.0156 55.4113 48.0156 55.3925 48.0722 55.3547L48.3741 55.1849C48.4496 55.1283 48.5062 55.1283 48.5628 55.1661Z" fill="#FEDCFF"/>
<path d="M53.1098 55.9585L52.808 56.1283C52.7514 56.1661 52.6948 56.1661 52.6382 56.1283L50.11 54.6756C50.0723 54.6567 50.0534 54.6567 50.0157 54.6756L49.3931 55.0341C49.3365 55.0718 49.2799 55.0718 49.2233 55.0341L48.978 54.902C48.9214 54.8643 48.9214 54.8454 48.978 54.8077L50.7892 53.77C50.8458 53.7323 50.9024 53.7323 50.959 53.77L51.2043 53.9021C51.2609 53.9398 51.2609 53.9587 51.2043 53.9964L50.5817 54.3549C50.5817 54.4115 53.091 55.8642 53.091 55.8642C53.1664 55.9019 53.1664 55.9208 53.1098 55.9585Z" fill="#FEDCFF"/>
<path d="M56.8078 53.8266L56.2418 54.1473C55.9966 54.2794 55.7513 54.3548 55.4872 54.3548C55.2231 54.3548 54.9778 54.2982 54.7514 54.1473L53.1666 53.2417C52.9402 53.1096 52.8081 52.9587 52.827 52.8078C52.827 52.6568 52.959 52.5059 53.1854 52.3739L53.7515 52.0531C53.9967 51.921 54.242 51.8456 54.5061 51.8456C54.7702 51.8456 55.0155 51.9022 55.2419 52.0531L55.4683 52.1852C55.5249 52.2229 55.5249 52.2418 55.4683 52.2795L55.1665 52.4493C55.1099 52.487 55.0532 52.487 54.9966 52.4493L54.7891 52.3361C54.5627 52.2041 54.3174 52.2041 54.091 52.3361L53.676 52.5814C53.4496 52.7134 53.4496 52.8455 53.676 52.9776L55.2231 53.8643C55.4495 53.9964 55.6947 53.9964 55.9211 53.8643L56.3362 53.619C56.5626 53.487 56.5626 53.3549 56.3362 53.2228L56.1286 53.1096C56.072 53.0719 56.072 53.053 56.1286 53.0153L56.4305 52.8455C56.4871 52.8078 56.5437 52.8078 56.6003 52.8455L56.8267 52.9776C57.0531 53.1096 57.1663 53.2606 57.1663 53.4115C57.1663 53.5436 57.0342 53.6945 56.8078 53.8266Z" fill="#FEDCFF"/>
<path d="M58.3358 52.9398L57.9774 53.1473C57.9396 53.1662 57.8831 53.1662 57.8453 53.1284L55.8077 50.9776C55.77 50.9399 55.7889 50.9022 55.8455 50.8644L56.336 50.5814C56.3926 50.5437 56.468 50.5437 56.5246 50.5626L60.2603 51.7512C60.3357 51.77 60.3357 51.8078 60.2791 51.8266L59.9395 52.0342C59.7697 52.0342 58.9773 51.7889 58.9773 51.7889L57.9019 52.4115L58.3358 52.8832C58.3736 52.8832 58.3736 52.9209 58.3358 52.9398ZM56.5246 50.9965L57.6189 52.1285L58.5056 51.6191L56.5624 50.9965H56.5246Z" fill="#FEDCFF"/>
<path d="M61.2225 51.2794L60.9206 51.4492C60.864 51.487 60.8075 51.487 60.7508 51.4492L57.8642 49.789C57.8076 49.7512 57.8076 49.7324 57.8642 49.6946L58.9962 49.0343C59.2415 48.9022 59.4868 48.8268 59.7509 48.8268C60.015 48.8268 60.2603 48.8834 60.5056 49.0154L60.9018 49.2418C61.2603 49.4494 61.3357 49.6758 61.1282 49.9022C61.147 49.921 62.8073 50.2418 62.8073 50.2418C62.9017 50.2606 62.9205 50.2795 62.8451 50.3361L62.5432 50.5059C62.4677 50.5436 62.3923 50.5625 62.3168 50.5436L60.7131 50.2229L60.2226 50.5059C60.2037 50.5625 61.2603 51.1662 61.2603 51.1662C61.2791 51.2228 61.2791 51.2417 61.2225 51.2794ZM59.8075 50.2984L60.4301 49.9399C60.6754 49.8078 60.6754 49.6569 60.449 49.5248L60.0528 49.2984C59.8264 49.1664 59.5811 49.1664 59.3358 49.2984L58.7132 49.6569C58.7132 49.7135 59.7132 50.2984 59.7132 50.2984C59.732 50.3361 59.7698 50.3361 59.8075 50.2984Z" fill="#FEDCFF"/>
<path d="M63.392 49.94L60.5053 48.2797C60.4487 48.242 60.4487 48.2231 60.5053 48.1854L61.6939 47.4873C61.9392 47.3553 62.1845 47.2798 62.4486 47.2798C62.7128 47.2798 62.958 47.3364 63.2033 47.4684L64.7881 48.3741C65.0145 48.5061 65.1277 48.657 65.1277 48.808C65.1277 48.9589 64.9956 49.1099 64.7692 49.2419L63.5806 49.94C63.4863 49.9589 63.4486 49.9589 63.392 49.94ZM63.5995 49.4495L64.2787 49.0533C64.5051 48.9212 64.5051 48.7891 64.2787 48.6571L62.7316 47.7703C62.5052 47.6382 62.26 47.6382 62.0336 47.7703L61.3544 48.1665C61.3544 48.2231 63.4863 49.4683 63.4863 49.4683C63.524 49.4683 63.5617 49.4683 63.5995 49.4495Z" fill="#FEDCFF"/>
<path opacity="0.6" d="M74.2592 72.3349L73.995 72.184L70.3726 74.2782L70.6368 74.4291L74.2592 72.3349ZM75.8251 72.316L76.0892 72.467L79.7116 70.3728L79.4475 70.2218L75.8251 72.316ZM81.8436 67.9578L83.9755 66.7315L83.7113 66.5806L81.5794 67.8069L81.8436 67.9578ZM79.7305 70.0709L79.9946 70.2218L81.5794 69.3162L81.3153 69.1653L79.7305 70.0709ZM74.278 72.0142L74.5421 72.1651L78.2023 70.052L77.9381 69.9011L74.278 72.0142ZM81.2775 67.9767L78.2211 69.7313L78.4853 69.8822L81.5417 68.1276L81.2775 67.9767ZM81.3719 70.335L79.3343 71.5048L79.5984 71.6557L81.636 70.486L81.3719 70.335ZM81.919 70.3162L83.7679 69.2408L83.5038 69.0898L81.6549 70.1652L81.919 70.3162ZM81.8624 69.1464L84.2396 67.7692L83.9755 67.6182L81.5983 68.9955L81.8624 69.1464ZM79.0513 71.6746L74.3724 74.3725L74.6365 74.5234L79.3154 71.8255L79.0513 71.6746ZM72.8442 75.2404L68.6935 77.6364L68.9576 77.7874L73.1083 75.3913L72.8442 75.2404ZM70.6368 75.3158L67.6558 77.0327L67.92 77.1836L70.9009 75.4668L70.6368 75.3158ZM74.3346 74.6932L74.0705 74.5423L73.1271 75.0894L73.3913 75.2404L74.3346 74.6932ZM70.3537 74.58L70.0896 74.4291L66.6182 76.429L66.8823 76.5799L70.3537 74.58ZM75.8062 72.6368L75.5421 72.4858L70.9198 75.146L71.1839 75.297L75.8062 72.6368Z" fill="#791F94"/>
<path d="M65.3354 77.0326C65.2033 77.1081 65.2033 77.2402 65.3354 77.3345C65.4863 77.41 65.7127 77.41 65.8448 77.3345C65.9768 77.259 65.9768 77.127 65.8448 77.0326C65.7127 76.9383 65.4674 76.9572 65.3354 77.0326ZM66.373 77.6364C66.2409 77.7118 66.2409 77.8439 66.373 77.9382C66.5051 78.0326 66.7504 78.0137 66.8824 77.9382C67.0145 77.8628 67.0145 77.7307 66.8824 77.6364C66.7504 77.542 66.5239 77.5609 66.373 77.6364ZM67.4107 78.2401C67.2786 78.3156 67.2786 78.4476 67.4107 78.542C67.5427 78.6363 67.788 78.6174 67.9201 78.542C68.0522 78.4665 68.0522 78.3344 67.9201 78.2401C67.788 78.1646 67.5616 78.1458 67.4107 78.2401Z" fill="#791F94"/>
<path opacity="0.6" d="M98.1826 59.7131L101.88 57.5811L101.616 57.4302L97.9185 59.5621L98.1826 59.7131Z" fill="#791F94"/>
<path opacity="0.6" d="M94.7299 62.9204L94.4658 62.7694L98.1259 60.6564L98.39 60.8073L94.7299 62.9204Z" fill="#791F94"/>
<path opacity="0.6" d="M96.0127 60.6753L97.6353 59.7319L97.8994 59.8829L96.258 60.8262L96.0127 60.6753Z" fill="#791F94"/>
<path opacity="0.6" d="M93.9372 62.1656L93.6919 62.0147L95.7107 60.845L95.9748 60.9959L93.9372 62.1656Z" fill="#791F94"/>
<path opacity="0.6" d="M99.6543 57.3736L101.277 56.4303L101.541 56.5812L99.9184 57.5246L99.6543 57.3736Z" fill="#791F94"/>
<path opacity="0.6" d="M104.937 55.5245L105.201 55.6755L102.164 57.4301L101.899 57.2791L104.937 55.5245Z" fill="#791F94"/>
<path opacity="0.6" d="M89.2207 66.1088L88.9565 65.939L94.1827 62.9392L94.4468 63.0901L89.2207 66.1088Z" fill="#791F94"/>
<path opacity="0.6" d="M92.3525 61.5808L96.0126 59.4678L96.2768 59.6187L92.6166 61.7318L92.3525 61.5808Z" fill="#791F94"/>
<path opacity="0.6" d="M96.3145 59.2979L99.3709 57.5433L99.6161 57.6943L96.5597 59.4489L96.3145 59.2979Z" fill="#791F94"/>
<path opacity="0.6" d="M87.1455 64.8825L86.8813 64.7315L92.0696 61.7506L92.3338 61.9015L87.1455 64.8825Z" fill="#791F94"/>
<path opacity="0.6" d="M101.579 56.2604L103.899 54.9209L104.163 55.0718L101.843 56.4114L101.579 56.2604Z" fill="#791F94"/>
<path opacity="0.6" d="M93.6547 62.3355L88.1646 65.5051L87.9004 65.3542L93.3906 62.1846L93.6547 62.3355Z" fill="#791F94"/>
<path d="M85.5038 65.3918C85.3718 65.4673 85.3718 65.5993 85.5038 65.6937C85.6548 65.7691 85.8812 65.7691 86.0133 65.6937C86.1453 65.6182 86.1453 65.4861 86.0133 65.3918C85.8812 65.2975 85.6548 65.2975 85.5038 65.3918Z" fill="#791F94"/>
<path d="M87.0698 65.9957C87.2208 66.0711 87.2208 66.2032 87.0698 66.2975C86.9378 66.373 86.7114 66.373 86.5605 66.2975C86.4095 66.2221 86.4095 66.09 86.5605 65.9957C86.6925 65.9013 86.9189 65.9013 87.0698 65.9957Z" fill="#791F94"/>
<path d="M88.1075 66.5805C88.2584 66.656 88.2584 66.7881 88.1075 66.8824C87.9754 66.9579 87.749 66.9579 87.5981 66.8824C87.4471 66.8069 87.4471 66.6749 87.5981 66.5805C87.7301 66.5051 87.9565 66.5051 88.1075 66.5805Z" fill="#791F94"/>
<path opacity="0.5" d="M85.5041 104.37L73.9199 97.6915L130.463 65.0333L142.047 71.731L85.5041 104.37Z" fill="#455CBA"/>
<g opacity="0.5">
<path opacity="0.5" d="M147.783 89.5034C150.839 91.2769 150.839 94.1258 147.802 95.8992L128.369 107.2C125.331 108.974 120.407 108.974 117.332 107.2L110.483 103.257C107.427 101.484 107.408 98.6349 110.446 96.8615L129.878 85.5603C132.916 83.7869 137.859 83.7869 140.915 85.5603L147.783 89.5034Z" fill="#455CBA"/>
</g>
<path opacity="0.7" d="M150.084 80.4475L108.2 87.7678L108.219 89.1073C108.219 90.277 108.993 91.4279 110.521 92.3147L117.369 96.2578C120.426 98.0313 125.35 98.0313 128.406 96.2578L147.839 84.9566C149.348 84.0699 150.103 82.919 150.122 81.7682L150.084 80.4475Z" fill="#CFE9FF"/>
<path d="M147.783 77.2401C150.839 79.0136 150.839 81.8625 147.802 83.6359L128.369 94.9371C125.331 96.7106 120.407 96.7106 117.332 94.9371L110.483 90.9939C107.427 89.2205 107.408 86.3716 110.446 84.5981L129.878 73.297C132.916 71.5236 137.859 71.5236 140.915 73.297L147.783 77.2401Z" fill="url(#paint2_linear_383_5170)"/>
<path d="M125.633 91.5976L124.426 92.2957C124.237 92.4089 124.03 92.4089 123.841 92.2957L115.294 87.3526C115.106 87.2394 115.106 87.1262 115.294 87.013L116.502 86.315C116.69 86.2018 116.898 86.2018 117.087 86.315L117.558 86.5791C117.464 86.3338 117.464 86.1263 117.596 85.8999C117.728 85.6735 117.955 85.4848 118.238 85.315L118.822 84.9754C119.539 84.5604 120.294 84.3528 121.068 84.3717C121.841 84.3906 122.596 84.5981 123.332 85.032L125.935 86.5414C126.671 86.9753 127.067 87.4092 127.086 87.8432C127.105 88.296 126.765 88.711 126.029 89.145L125.445 89.4846C125.162 89.6544 124.803 89.7864 124.426 89.8619C124.03 89.9374 123.652 89.9374 123.294 89.843C123.237 89.8808 125.633 91.258 125.633 91.258C125.841 91.3712 125.841 91.4844 125.633 91.5976ZM123.445 88.862L124.067 88.5035C124.369 88.3337 124.52 88.1639 124.52 88.013C124.52 87.862 124.369 87.7111 124.067 87.5224L121.634 86.1263C121.332 85.9565 121.049 85.8622 120.803 85.8622C120.539 85.8622 120.275 85.9565 119.973 86.1263L119.351 86.4848C118.709 86.8621 118.728 87.2583 119.445 87.6734L121.388 88.8054C122.105 89.2204 122.784 89.2393 123.445 88.862ZM132.18 85.598L131.84 85.7867C131.105 86.2206 130.331 86.4282 129.52 86.447C128.709 86.4659 127.954 86.2395 127.199 85.8056L124.596 84.2962C123.86 83.8623 123.482 83.4284 123.501 82.9567C123.501 82.485 123.879 82.0511 124.633 81.6172L127.897 79.7305C128.105 79.6173 128.312 79.6173 128.501 79.7305L135.123 83.5604C135.312 83.6736 135.312 83.7868 135.104 83.9189L133.916 84.5981C133.727 84.7113 133.52 84.7113 133.331 84.5981L132.859 84.334C132.954 84.5792 132.954 84.7868 132.821 85.0132C132.689 85.2396 132.482 85.4282 132.18 85.598ZM130.991 83.2397L128.124 81.5794C128.029 81.5228 127.916 81.5228 127.803 81.5794L126.482 82.353C126.18 82.5228 126.029 82.6926 126.029 82.8246C126.029 82.9756 126.18 83.1265 126.482 83.2963L128.916 84.6924C129.218 84.8622 129.501 84.9566 129.746 84.9566C129.991 84.9566 130.274 84.8811 130.576 84.6924L131.105 84.3906C131.746 84.051 131.708 83.6548 130.991 83.2397ZM140.538 83.5416L139.632 84.0698C139.444 84.183 139.255 84.1642 139.048 84.051L138.104 83.5038C137.897 83.3906 137.878 83.2774 138.066 83.1642L138.368 82.9944C138.953 82.6548 139.274 82.3718 139.33 82.1454C139.368 81.919 139.217 81.6549 138.859 81.3153L138.104 81.7492C137.916 81.8624 137.708 81.8624 137.444 81.787L129.558 79.1456C129.312 79.0702 129.275 78.957 129.463 78.8438L130.727 78.108C130.916 77.9948 131.123 77.9948 131.369 78.0702L137.802 80.372C137.859 80.3342 133.84 76.6364 133.84 76.6364C133.689 76.5043 133.689 76.3722 133.897 76.259L135.085 75.5798C135.312 75.4478 135.519 75.4478 135.67 75.5987L140.84 80.5795C141.406 81.1455 141.689 81.6738 141.651 82.1643C141.67 82.6548 141.293 83.1076 140.538 83.5416Z" fill="#F8F5F4"/>
<path opacity="0.7" d="M85.5041 91.8242L73.9199 85.1265V86.3528L85.5041 93.0505L142.047 60.4112V59.1848L85.5041 91.8242Z" fill="#CFE9FF"/>
<path d="M85.5041 91.8241L73.9199 85.1264L130.463 52.4871L142.047 59.1847L85.5041 91.8241Z" fill="#F8F5F4"/>
<path d="M80.9196 85.7678L80.5234 85.9942C80.3724 86.0885 80.2026 86.1263 80.0328 86.1263C79.863 86.1263 79.6933 86.0885 79.5423 85.9942L78.3915 85.3339C78.2405 85.2395 78.165 85.1452 78.165 85.0509C78.165 84.9565 78.2405 84.8622 78.3915 84.7679L78.7876 84.5415C78.9386 84.4471 79.1084 84.4094 79.2782 84.4094C79.448 84.4094 79.6178 84.4471 79.7687 84.5415L80.9196 85.2018C81.0705 85.2961 81.146 85.3905 81.146 85.4848C81.1648 85.5791 81.0894 85.6735 80.9196 85.7678ZM80.3536 85.8433L80.6932 85.6546C80.8819 85.5414 80.8818 85.4471 80.6743 85.3339L79.5423 84.6735C79.3537 84.5603 79.165 84.5603 78.9763 84.6735L78.6367 84.8622C78.448 84.9754 78.4669 85.0697 78.6556 85.1829L79.7876 85.8433C79.9762 85.9565 80.1649 85.9565 80.3536 85.8433ZM82.0705 85.1075L81.9195 85.2018C81.8818 85.2207 81.8629 85.2207 81.8252 85.2018L80.2215 84.2773C80.2215 84.2207 80.3725 84.1453 80.3725 84.1453C80.4102 84.1264 80.429 84.1264 80.4668 84.1453L80.5989 84.2207C80.58 84.1641 80.58 84.1264 80.6177 84.0698C80.6366 84.0132 80.6932 83.9566 80.7875 83.9189L80.9196 83.8434C81.0139 83.8434 81.1271 83.9189 81.1271 83.9189C81.1271 83.9755 80.9573 84.0698 80.9573 84.0698C80.863 84.1264 80.8064 84.183 80.8252 84.2585C80.8252 84.3151 80.8818 84.3905 80.995 84.4471L82.0893 85.0886C82.1082 85.0697 82.1082 85.0886 82.0705 85.1075ZM83.5986 84.2207L83.41 84.3339C83.259 84.4283 83.1081 84.466 82.9383 84.466C82.7685 84.466 82.5987 84.4283 82.4478 84.3339L81.7308 83.9189C81.5799 83.8245 81.5044 83.7302 81.5044 83.6359C81.5044 83.5415 81.5799 83.4472 81.7308 83.3529L81.9195 83.2397C82.0893 83.1453 82.2591 83.1076 82.4289 83.1453C82.4478 83.1453 81.6742 82.6925 81.6742 82.6925C81.6742 82.6359 81.8252 82.5605 81.8252 82.5605C81.9195 82.5605 84.1458 83.8623 84.1458 83.8623C84.1458 83.9189 83.9949 83.9943 83.9949 83.9943C83.9571 84.0132 83.9383 84.0132 83.9005 83.9943L83.7684 83.9189C83.825 84.0321 83.7684 84.1264 83.5986 84.2207ZM83.4289 83.7113L82.7685 83.334C82.6742 83.2774 82.561 83.2585 82.4666 83.2585C82.3534 83.2585 82.2591 83.2963 82.1648 83.3529L81.9573 83.4661C81.7686 83.5793 81.7874 83.6736 81.9761 83.7868L82.6742 84.183C82.8628 84.2962 83.0515 84.2962 83.2402 84.183L83.4477 84.0698C83.542 84.0132 83.5986 83.9566 83.5986 83.9C83.5798 83.8434 83.5232 83.7679 83.4289 83.7113ZM85.806 82.9378L85.108 83.3529C84.9571 83.4472 84.7873 83.4849 84.6175 83.4849C84.4477 83.4849 84.2778 83.4472 84.1269 83.3529L83.41 82.9378C83.259 82.8435 83.1836 82.7491 83.1836 82.6548C83.1836 82.5605 83.259 82.4661 83.41 82.3718L83.693 82.202C83.8439 82.1077 84.0137 82.0699 84.1835 82.0699C84.3533 82.0699 84.5231 82.1077 84.6741 82.202L85.0891 82.4473C85.0891 82.5039 84.1458 83.051 84.1458 83.051C84.1458 83.0887 84.3533 83.2019 84.3533 83.2019C84.542 83.3151 84.7306 83.3151 84.9193 83.2019L85.5985 82.8057C85.6362 82.7869 85.6551 82.7869 85.6929 82.8057L85.806 82.8812C85.8438 82.9189 85.8249 82.9378 85.806 82.9378ZM83.976 82.9567L84.6929 82.5416C84.6929 82.5039 84.4288 82.3529 84.4288 82.3529C84.2401 82.2397 84.0514 82.2397 83.8628 82.3529L83.6364 82.485C83.4477 82.5982 83.4477 82.6925 83.6364 82.8057L83.9005 82.9567C83.9383 82.9755 83.9571 82.9755 83.976 82.9567ZM86.4664 82.5605L86.3155 82.6548C86.2777 82.6737 86.2588 82.6737 86.2211 82.6548L84.6175 81.7303C84.6175 81.6737 84.7684 81.5983 84.7684 81.5983C84.8061 81.5794 84.825 81.5794 84.8627 81.5983L84.9948 81.6737C84.9759 81.6171 84.9759 81.5794 85.0136 81.5228C85.0325 81.4662 85.0891 81.4096 85.1834 81.3719L85.3155 81.2964C85.3533 81.2775 85.3721 81.2775 85.4099 81.2964L85.5419 81.3719C85.5419 81.4285 85.3533 81.5228 85.3533 81.5228C85.2589 81.5794 85.2023 81.636 85.2212 81.7115C85.2212 81.7681 85.2778 81.8435 85.391 81.9001L86.4852 82.5416C86.5041 82.5227 86.5041 82.5416 86.4664 82.5605ZM86.7683 80.6738L86.5796 80.787C86.5419 80.8059 86.523 80.8059 86.4852 80.787L86.3532 80.7115C86.3532 80.6549 86.5418 80.5606 86.5418 80.5606C86.5418 80.5229 86.2589 80.3531 86.2589 80.3531C86.2589 80.2965 86.4098 80.221 86.4098 80.221C86.5041 80.221 86.7871 80.3908 86.7871 80.3908C86.8626 80.3908 87.2022 80.1833 87.2022 80.1833C87.2399 80.1644 87.2588 80.1644 87.2965 80.1833L87.4286 80.2587C87.4286 80.3153 87.0701 80.5229 87.0701 80.5229C87.0701 80.5606 88.0134 81.1077 88.0134 81.1077C88.2021 81.2209 88.3908 81.2209 88.5795 81.1077L88.7115 81.0323C88.7492 81.0134 88.7681 81.0134 88.8059 81.0323L88.9379 81.1077C88.9379 81.1643 88.7681 81.2587 88.7681 81.2587C88.6172 81.353 88.4474 81.3907 88.2776 81.3907C88.1078 81.3907 87.938 81.353 87.7871 81.2587L86.8249 80.6927C86.806 80.6738 86.7871 80.6738 86.7683 80.6738ZM90.0888 80.4663L89.8058 80.6361C89.6549 80.7304 89.485 80.7681 89.3152 80.7681C89.1454 80.7681 88.9756 80.7304 88.8247 80.6361L88.1078 80.221C87.9569 80.1267 87.8814 80.0323 87.8814 79.938C87.8814 79.8437 87.9569 79.7493 88.1078 79.655L88.3908 79.4852C88.5417 79.3909 88.7115 79.3531 88.8813 79.3531C89.0511 79.3531 89.2209 79.3909 89.3718 79.4852L90.0888 79.9003C90.2397 79.9946 90.3152 80.0889 90.3152 80.1833C90.3152 80.2965 90.2397 80.3908 90.0888 80.4663ZM89.6171 80.504L89.8435 80.3719C90.0322 80.2587 90.0322 80.1644 89.8435 80.0512L89.1455 79.655C88.9568 79.5418 88.7681 79.5418 88.5795 79.655L88.353 79.7871C88.1644 79.9003 88.1644 79.9946 88.353 80.1078L89.0511 80.504C89.2398 80.5983 89.4285 80.5983 89.6171 80.504ZM89.5794 79.0513L89.3907 79.1645C89.353 79.1833 89.3341 79.1833 89.2964 79.1645L89.2021 79.089C89.2021 79.0324 89.3907 78.9381 89.3907 78.9381C89.3907 78.9003 89.1077 78.7305 89.1077 78.7305C89.1077 78.6739 89.2587 78.5985 89.2587 78.5985C89.2964 78.5796 89.3152 78.5796 89.353 78.5985L89.636 78.7683C89.7115 78.7683 90.0511 78.5607 90.0511 78.5607C90.0888 78.5419 90.1077 78.5419 90.1454 78.5607L90.2775 78.6362C90.2775 78.6928 89.919 78.9003 89.919 78.9003C89.919 78.9381 90.8623 79.4852 90.8623 79.4852C91.051 79.5984 91.2396 79.5984 91.4283 79.4852L91.5604 79.4097C91.5981 79.3909 91.617 79.3909 91.6547 79.4097L91.7868 79.4852C91.7868 79.5418 91.617 79.6361 91.617 79.6361C91.4661 79.7305 91.2962 79.7682 91.1264 79.7682C90.9566 79.7682 90.7869 79.7305 90.6359 79.6361L89.6737 79.0701C89.636 79.0324 89.6171 79.0324 89.5794 79.0513ZM92.7867 78.9192L92.6169 79.0135C92.466 79.1079 92.2962 79.1456 92.1264 79.1456C91.9566 79.1456 91.7868 79.1079 91.6359 79.0135L90.9189 78.5985C90.768 78.5041 90.6925 78.4098 90.6925 78.3155C90.6925 78.2211 90.768 78.1268 90.9189 78.0325L91.6359 77.6174C91.6736 77.5985 91.6924 77.5985 91.7302 77.6174L93.3339 78.5419C93.3339 78.5985 93.1829 78.6739 93.1829 78.6739C93.1452 78.6928 93.1263 78.6928 93.0886 78.6739L92.9754 78.5985C93.0131 78.7117 92.9565 78.806 92.7867 78.9192ZM92.6358 78.4098L91.6925 77.8627C91.6359 77.8627 91.1642 78.1268 91.1642 78.1268C90.9755 78.24 90.9944 78.3343 91.183 78.4475L91.8811 78.8437C92.0698 78.9569 92.2585 78.9569 92.4471 78.8437L92.6358 78.7305C92.7301 78.6739 92.7867 78.6173 92.7867 78.5607C92.7678 78.523 92.7301 78.4664 92.6358 78.4098ZM94.0508 78.1834L93.8998 78.2777C93.8621 78.2966 93.8433 78.2966 93.8055 78.2777L91.5604 76.9759C91.5604 76.9193 91.7113 76.8439 91.7113 76.8439C91.749 76.825 91.7679 76.825 91.8057 76.8439L94.0508 78.1457C94.0885 78.1457 94.0885 78.1645 94.0508 78.1834Z" fill="#CFCAD4"/>
<path d="M86.6739 88.579L86.3532 88.7677C86.2777 88.8054 86.2022 88.8054 86.1268 88.7677L85.7117 88.5224C85.4098 88.6922 85.108 88.7865 84.8061 88.7677C84.5042 88.7677 84.2024 88.6922 83.9382 88.5224L83.8439 88.4658C83.7684 88.4281 83.7684 88.3715 83.8439 88.3337L84.2967 88.0696C84.3722 88.0319 84.4476 88.0319 84.5231 88.0696C84.6929 88.1639 84.825 88.2017 84.9193 88.2017C85.0136 88.2017 85.1457 88.1639 85.2966 88.0696L85.5042 87.9375C85.6362 87.8621 85.7117 87.7866 85.7117 87.73C85.7117 87.6734 85.6362 87.5979 85.4853 87.5036C85.3155 87.4093 85.2212 87.3715 85.108 87.3904C84.9948 87.3904 84.9004 87.4093 84.825 87.447C84.7495 87.4847 84.5986 87.5413 84.391 87.6357C84.1835 87.73 84.0137 87.8055 83.9005 87.8432C83.7873 87.8809 83.6364 87.9187 83.4854 87.9375C83.1647 87.9753 82.8062 87.8998 82.4289 87.6734L82.2214 87.5602C81.9384 87.3904 81.8063 87.2206 81.8063 87.0508C81.8063 86.881 81.9384 86.7112 82.2214 86.5414C82.2591 86.5225 81.8252 86.2773 81.8252 86.2773C81.7497 86.2395 81.7497 86.1829 81.8252 86.1452L82.1459 85.9565C82.2214 85.9188 82.2968 85.9188 82.3723 85.9565L82.7874 86.2018C83.0515 86.0509 83.3345 85.9754 83.6364 85.9754C83.9382 85.9754 84.2212 86.0697 84.5042 86.2207L84.5986 86.2773C84.674 86.315 84.674 86.3716 84.5986 86.4093L84.1458 86.6735C84.0703 86.7112 83.9948 86.7112 83.9194 86.6735C83.7496 86.5791 83.6364 86.5414 83.5232 86.5414C83.4288 86.5414 83.2968 86.5791 83.1458 86.6735L82.976 86.7678C82.8251 86.8621 82.7496 86.9187 82.7685 86.9942C82.7685 87.0508 82.8628 87.1263 83.0138 87.2206L83.127 87.2772C83.2024 87.3149 83.2968 87.3338 83.3911 87.3338C83.4854 87.3338 83.5798 87.3149 83.6552 87.2772C83.7496 87.2395 83.9005 87.164 84.108 87.0697C84.3156 86.9753 84.4854 86.8999 84.5986 86.8621C84.7306 86.8244 84.8627 86.8055 85.0136 86.7867C85.3344 86.7489 85.674 86.8433 86.0324 87.0508L86.24 87.164C86.523 87.3338 86.655 87.5036 86.655 87.6734C86.655 87.8432 86.523 88.013 86.2588 88.1828C86.24 88.1828 86.655 88.4281 86.655 88.4281C86.7494 88.5035 86.7494 88.5413 86.6739 88.579ZM87.5418 87.3527L87.0324 87.0508C86.8248 86.9376 86.7494 86.7867 86.7682 86.598L86.9192 85.5415C86.9569 85.3717 86.8814 85.2396 86.7305 85.1453L86.5607 85.0509C86.4475 84.9943 86.3532 84.9566 86.24 84.9566C86.1456 84.9566 86.0324 84.9943 85.9192 85.0698L85.7306 85.183C85.6174 85.2585 85.5608 85.3151 85.5608 85.3717C85.5608 85.4283 85.6174 85.4849 85.7306 85.5415L85.9004 85.6358C85.9758 85.6735 85.9758 85.7301 85.9004 85.7679L85.4476 86.032C85.3721 86.0697 85.2966 86.0697 85.2212 86.032L85.0325 85.9188C84.7495 85.749 84.6174 85.5981 84.6174 85.4094C84.6174 85.2396 84.7684 85.0698 85.0514 84.9L85.4664 84.6736C85.7494 84.5038 86.0513 84.4283 86.3532 84.4283C86.655 84.4283 86.9569 84.5038 87.221 84.6736L87.4286 84.8057C87.7116 84.9755 87.8248 85.1641 87.8059 85.3905L87.655 86.4659C87.655 86.5225 87.6738 86.5414 87.7116 86.5791L87.8059 86.6357L89.0888 85.8999C89.1643 85.8622 89.2398 85.8622 89.3152 85.8999L89.6926 86.1075C89.7681 86.1452 89.7681 86.2018 89.6926 86.2395L87.7682 87.3527C87.6927 87.3904 87.6172 87.3904 87.5418 87.3527ZM91.7491 85.0509L91.2208 85.3528C90.9378 85.5226 90.6359 85.5981 90.3341 85.5981C90.0322 85.5981 89.7303 85.5226 89.4473 85.3528L87.7493 84.3717C87.4663 84.2019 87.3343 84.0321 87.3343 83.8623C87.3343 83.6925 87.4852 83.5227 87.7682 83.3529L88.2964 83.0511C88.5794 82.8813 88.8625 82.8058 89.1643 82.8058C89.4662 82.8058 89.7681 82.8813 90.0511 83.0511L91.7491 84.0321C92.0321 84.2019 92.1641 84.3717 92.1641 84.5415C92.1641 84.7302 92.0321 84.8811 91.7491 85.0509ZM90.7302 84.9566L91.051 84.7679C91.1642 84.6925 91.2208 84.6359 91.2208 84.5793C91.2208 84.5227 91.1642 84.4661 91.051 84.3906L89.4095 83.4473C89.2963 83.3907 89.1832 83.3529 89.0888 83.3529C88.9945 83.3529 88.8813 83.3907 88.7681 83.4473L88.4474 83.6359C88.3342 83.6925 88.2776 83.768 88.2776 83.8246C88.2776 83.8812 88.3342 83.9378 88.4474 84.0133L90.0888 84.9566C90.202 85.0321 90.3152 85.0509 90.4095 85.0509C90.5227 85.0509 90.617 85.0132 90.7302 84.9566ZM94.6168 83.3907L94.0885 83.6925C93.8055 83.8623 93.5036 83.9378 93.2018 83.9378C92.8999 83.9378 92.598 83.8623 92.315 83.6925L90.617 82.7115C90.334 82.5417 90.202 82.3719 90.202 82.2021C90.202 82.0323 90.3529 81.8625 90.6359 81.6927L91.1642 81.3908C91.4472 81.221 91.7302 81.1455 92.0509 81.1455C92.3528 81.1455 92.6547 81.221 92.9377 81.3908L94.6357 82.3719C94.9187 82.5417 95.0507 82.7115 95.0507 82.8813C95.0507 83.0511 94.8998 83.2209 94.6168 83.3907ZM93.6168 83.2963L93.9376 83.1077C94.0508 83.0322 94.1074 82.9756 94.1074 82.919C94.1074 82.8624 94.0508 82.8058 93.9376 82.7303L92.2962 81.787C92.183 81.7304 92.0698 81.6927 91.9754 81.6927C91.8811 81.6927 91.7679 81.7304 91.6547 81.787L91.334 81.9757C91.2208 82.0511 91.1642 82.1077 91.1642 82.1643C91.1642 82.2209 91.2208 82.2775 91.334 82.353L92.9754 83.2963C93.0886 83.3718 93.2018 83.3907 93.2961 83.3907C93.3905 83.3907 93.5036 83.3529 93.6168 83.2963ZM95.9186 81.7493L96.5789 82.1266C96.6544 82.1643 96.6544 82.2021 96.5978 82.2587L96.1261 82.5417C96.0507 82.5794 95.9752 82.5794 95.8997 82.5417L95.2394 82.1643C95.1639 82.1266 95.1639 82.0889 95.2394 82.0323L95.7111 81.7493C95.7865 81.7115 95.8431 81.7115 95.9186 81.7493ZM98.5977 81.0889L98.0694 81.3908C97.7864 81.5606 97.4845 81.6361 97.1827 81.6361C96.8808 81.6361 96.5789 81.5606 96.2959 81.3908L94.5979 80.4097C94.3149 80.2399 94.1829 80.0701 94.1829 79.9003C94.1829 79.7305 94.3338 79.5607 94.6168 79.3909L95.145 79.0891C95.428 78.9193 95.711 78.8438 96.0318 78.8438C96.3336 78.8438 96.6355 78.9193 96.9185 79.0891L98.6165 80.0701C98.8995 80.2399 99.0316 80.3909 99.0316 80.5795C99.0127 80.7682 98.8807 80.938 98.5977 81.0889ZM97.5789 80.9946L97.8996 80.8059C98.0128 80.7305 98.0694 80.6739 98.0694 80.6173C98.0694 80.5607 98.0128 80.5041 97.8996 80.4286L96.2582 79.4853C96.145 79.4098 96.0318 79.3909 95.9375 79.3909C95.8431 79.3909 95.7299 79.4287 95.6167 79.4853L95.296 79.6739C95.1828 79.7494 95.1262 79.806 95.1262 79.8626C95.1262 79.9192 95.1828 79.9758 95.296 80.0513L96.9374 80.9946C97.0506 81.0512 97.1638 81.0889 97.2581 81.0889C97.3713 81.0889 97.4657 81.0701 97.5789 80.9946ZM101.484 79.4287L100.937 79.7494C100.654 79.9192 100.352 79.9947 100.05 79.9947C99.7485 79.9947 99.4467 79.9192 99.1637 79.7494L97.4657 78.7683C97.1827 78.5985 97.0506 78.4287 97.0506 78.2589C97.0506 78.0891 97.2016 77.9193 97.4846 77.7495L98.0128 77.4477C98.2958 77.2779 98.5788 77.2024 98.8807 77.2024C99.1825 77.2024 99.4844 77.2779 99.7674 77.4477L101.465 78.4287C101.748 78.5985 101.88 78.7495 101.88 78.9381C101.899 79.1079 101.748 79.2777 101.484 79.4287ZM100.465 79.3343L100.786 79.1457C100.899 79.0891 100.956 79.0136 100.956 78.957C100.956 78.9004 100.899 78.8438 100.786 78.7683L99.1448 77.825C99.0316 77.7495 98.9184 77.7307 98.8241 77.7307C98.7297 77.7307 98.6165 77.7684 98.5033 77.825L98.1826 78.0137C98.0694 78.0891 98.0128 78.1457 98.0128 78.2023C98.0128 78.2589 98.0694 78.3155 98.1826 78.391L99.824 79.3343C99.9372 79.4098 100.05 79.4287 100.145 79.4287C100.239 79.4287 100.352 79.4098 100.465 79.3343Z" fill="#788EFF"/>
<path d="M123.652 62.7506C124.501 63.2411 124.501 64.0335 123.652 64.5429C122.803 65.0335 121.407 65.0335 120.558 64.5429C119.709 64.0524 119.709 63.26 120.558 62.7506C121.407 62.2601 122.803 62.2601 123.652 62.7506Z" fill="#CFCAD4"/>
<path d="M123.011 62.8638L122.105 63.392L121.2 62.8638L120.747 63.1279L121.653 63.6373L120.747 64.1656L121.2 64.4297L122.105 63.9014L123.011 64.4297L123.464 64.1656L122.558 63.6373L123.464 63.1279L123.011 62.8638Z" fill="#F8F5F4"/>
<path d="M126.011 62.524L123.86 61.2788C123.86 61.2222 124.709 60.7317 124.709 60.7317C124.86 60.6373 125.048 60.5996 125.218 60.5996C125.407 60.5996 125.577 60.6373 125.728 60.7317L126.935 61.4297C127.086 61.5241 127.18 61.6184 127.18 61.7316C127.18 61.8448 127.105 61.9391 126.935 62.0335L126.086 62.524C126.067 62.5429 126.048 62.5429 126.011 62.524ZM126.124 62.241L126.709 61.9014C126.897 61.7882 126.897 61.675 126.69 61.5618L125.501 60.8826C125.294 60.7694 125.105 60.7694 124.898 60.8826L124.313 61.2222C124.313 61.2599 126.048 62.2599 126.048 62.2599C126.086 62.2599 126.105 62.2599 126.124 62.241Z" fill="#CFCAD4"/>
<path d="M129.18 60.7506L128.444 61.1845C128.294 61.2788 128.105 61.3166 127.935 61.3166C127.746 61.3166 127.577 61.2788 127.426 61.1845L126.671 60.7506C126.501 60.6562 126.426 60.5619 126.426 60.4487C126.426 60.3355 126.501 60.2412 126.671 60.1468L126.973 59.977C127.124 59.8827 127.294 59.845 127.482 59.845C127.671 59.845 127.841 59.8827 127.992 59.977L128.426 60.2412C128.426 60.2978 127.445 60.8638 127.445 60.8638C127.445 60.9015 127.652 61.0336 127.652 61.0336C127.86 61.1468 128.048 61.1468 128.256 61.0336L128.973 60.6185C129.011 60.5996 129.029 60.5996 129.067 60.6185L129.199 60.694C129.218 60.7128 129.218 60.7317 129.18 60.7506ZM127.256 60.7506L128.011 60.3166C128.011 60.2789 127.746 60.128 127.746 60.128C127.539 60.0148 127.35 60.0148 127.162 60.128L126.916 60.26C126.728 60.3732 126.728 60.4864 126.916 60.5996L127.18 60.7506C127.218 60.7694 127.237 60.7694 127.256 60.7506Z" fill="#CFCAD4"/>
<path d="M128.18 59.5243L127.991 59.6375C127.954 59.6564 127.935 59.6564 127.897 59.6375L127.765 59.562C127.765 59.5054 127.954 59.3922 127.954 59.3922C127.954 59.3545 127.652 59.1847 127.652 59.1847C127.652 59.1281 127.803 59.0338 127.803 59.0338C127.84 59.0149 127.859 59.0149 127.897 59.0338L128.199 59.2036C128.274 59.2036 128.633 58.9772 128.633 58.9772C128.671 58.9583 128.708 58.9583 128.727 58.9772L128.859 59.0526C128.859 59.1092 128.482 59.3168 128.482 59.3168C128.482 59.3545 129.482 59.9394 129.482 59.9394C129.671 60.0526 129.878 60.0526 130.086 59.9394L130.218 59.8639C130.255 59.845 130.293 59.845 130.312 59.8639L130.444 59.9394C130.444 59.996 130.274 60.0903 130.274 60.0903C130.123 60.1846 129.935 60.2224 129.765 60.2412C129.576 60.2412 129.406 60.2035 129.256 60.1092L128.237 59.5243C128.237 59.5054 128.218 59.5054 128.18 59.5243Z" fill="#CFCAD4"/>
<path d="M131.558 59.3734L131.369 59.4866C131.218 59.5809 131.029 59.6187 130.859 59.6187C130.671 59.6187 130.501 59.5809 130.35 59.4866L129.595 59.0527C129.426 58.9583 129.35 58.864 129.35 58.7508C129.35 58.6376 129.426 58.5433 129.595 58.4489L130.35 58.015C130.388 57.9961 130.407 57.9961 130.444 58.015L132.124 58.9772C132.124 59.0338 131.973 59.1281 131.973 59.1281C131.935 59.147 131.916 59.147 131.878 59.1281L131.746 59.0527C131.784 59.1659 131.727 59.2791 131.558 59.3734ZM131.369 58.8451L130.388 58.2791C130.312 58.2791 129.841 58.5621 129.841 58.5621C129.652 58.6753 129.652 58.7885 129.859 58.9017L130.576 59.3168C130.784 59.43 130.973 59.43 131.161 59.3168L131.369 59.2036C131.482 59.147 131.52 59.0715 131.52 59.0149C131.539 58.9583 131.482 58.9017 131.369 58.8451Z" fill="#CFCAD4"/>
<path d="M130.595 57.5244L130.274 57.3357C130.274 57.2791 130.425 57.1848 130.425 57.1848C130.463 57.1659 130.482 57.1659 130.52 57.1848L130.84 57.3735C130.84 57.4301 130.671 57.5244 130.671 57.5244C130.671 57.5433 130.633 57.5433 130.595 57.5244ZM132.633 58.6941L130.954 57.7319C130.954 57.6753 131.105 57.581 131.105 57.581C131.142 57.5621 131.161 57.5621 131.199 57.581L132.878 58.5432C132.878 58.5998 132.727 58.6941 132.727 58.6941C132.689 58.713 132.652 58.713 132.633 58.6941Z" fill="#CFCAD4"/>
<path d="M133.652 58.1658L133.501 58.2602C133.463 58.279 133.444 58.279 133.406 58.2602L131.048 56.9018C131.048 56.8452 131.199 56.7508 131.199 56.7508C131.237 56.732 131.255 56.732 131.293 56.7508L133.652 58.1092C133.689 58.1281 133.689 58.147 133.652 58.1658Z" fill="#CFCAD4"/>
<path d="M134.803 57.5056L134.18 57.864C134.142 57.8829 134.124 57.8829 134.086 57.864L133.973 57.7886C133.973 57.732 134.557 57.3924 134.557 57.3924C134.746 57.2792 134.765 57.2037 134.633 57.1282C134.444 57.015 134.293 56.9962 134.142 57.0528L133.558 57.1848C133.388 57.2226 133.256 57.2414 133.124 57.2414C133.01 57.2414 132.897 57.2037 132.784 57.1282C132.501 56.9584 132.52 56.7886 132.822 56.6188L133.388 56.2981C133.425 56.2792 133.444 56.2792 133.482 56.2981L133.595 56.3736C133.595 56.4302 133.067 56.732 133.067 56.732C132.992 56.7886 132.935 56.8264 132.935 56.8641C132.935 56.9018 132.954 56.9396 132.991 56.9773C133.142 57.0716 133.293 57.0716 133.463 57.0339L134.067 56.9018C134.237 56.8641 134.369 56.8452 134.501 56.8641C134.614 56.883 134.746 56.9396 134.878 57.015C135.161 57.1282 135.123 57.298 134.803 57.5056Z" fill="#CFCAD4"/>
<path d="M64.8824 36.0543L25.5266 58.7886L22.8853 57.2604L62.2411 34.5449L64.8824 36.0543Z" fill="#91338C"/>
<path d="M42.5254 1.79233C41.2236 1.03767 39.9407 0.4528 38.6767 0C38.7333 0.132067 38.8276 0.301869 38.8842 0.415069C38.0541 0.415069 37.6201 0.415066 36.8277 0.4528C36.9787 0.754666 37.1296 1.05654 37.2805 1.3584C36.4504 1.3584 36.0164 1.3584 35.224 1.39613C35.375 1.698 35.5259 1.99987 35.6769 2.30174C34.8467 2.30174 34.4128 2.30173 33.6204 2.33947C33.7713 2.64133 33.9222 2.9432 34.0732 3.24507C33.2808 3.24507 32.8846 3.24507 32.0356 3.26393C32.1865 3.5658 32.3375 3.86767 32.4884 4.16953C31.6583 4.16953 31.2243 4.16953 30.4319 4.20727C30.5829 4.50913 30.7338 4.811 30.8847 5.11287C30.0546 5.11287 29.6207 5.11287 28.8283 5.1506C28.9792 5.45247 29.1301 5.75433 29.2811 6.0562C28.4509 6.0562 28.017 6.0562 27.2246 6.09393C27.3755 6.3958 27.5265 6.69767 27.6774 6.99953C26.8473 6.99953 26.4133 6.99953 25.6209 7.03727C25.7719 7.33913 25.9228 7.641 26.0737 7.94287C25.2436 7.94287 24.8096 7.94287 24.0173 7.9806C24.1682 8.28246 24.3191 8.58433 24.4701 8.8862C23.6399 8.8862 23.206 8.8862 22.4136 8.92393C22.5645 9.2258 22.7154 9.52767 22.8664 9.82953C22.0551 9.82953 21.6023 9.82953 20.8099 9.86726C20.9609 10.1691 21.1118 10.471 21.2627 10.7729C20.4703 10.7729 20.0741 10.7729 19.2251 10.7917C19.3761 11.0936 19.527 11.3955 19.6779 11.6973C18.8478 11.6973 18.4139 11.6973 17.6215 11.7351C17.7724 12.0369 17.9233 12.3388 18.0743 12.6407C17.2441 12.6407 16.8102 12.6407 16.0178 12.6784C16.1687 12.9803 16.3197 13.2821 16.4706 13.584C15.6405 13.584 15.2065 13.584 14.4141 13.6217C14.5651 13.9236 14.716 14.2255 14.8669 14.5273C14.0368 14.5273 13.6028 14.5273 12.8104 14.5651C12.9614 14.8669 13.1123 15.1688 13.2633 15.4707C12.4331 15.4707 11.9992 15.4707 11.2068 15.5084C11.3577 15.8103 11.5086 16.1121 11.6596 16.414C10.8294 16.414 10.3955 16.414 9.60312 16.4517C9.75406 16.7536 9.905 17.0555 10.0559 17.3573C9.2258 17.3573 8.79187 17.3573 7.99947 17.3951C8.15041 17.6969 8.30132 17.9988 8.45226 18.3007C7.65986 18.3007 7.26365 18.3007 6.41465 18.3195C6.56559 18.6214 6.71653 18.9233 6.86746 19.2251C6.03733 19.2251 5.6034 19.2251 4.811 19.2629C4.96194 19.5647 5.11285 19.8666 5.26379 20.1685C4.43365 20.1685 3.99973 20.1685 3.20733 20.2062C3.35826 20.5081 3.5092 20.8099 3.66014 21.1118C2.83 21.1118 2.39608 21.1118 1.60368 21.1495C1.75461 21.4514 1.90553 21.7533 2.05646 22.0551C1.24519 22.0551 0.7924 22.0551 0 22.0929C0.0943333 22.2815 0.20754 22.5079 0.301873 22.6966C1.50934 23.1305 2.73567 23.7154 3.98087 24.4323C14.6405 30.5829 23.2814 45.5441 23.2437 57.7886L25.4511 59.0715L61.6562 38.1673V35.4693C61.826 22.9041 53.1851 7.94287 42.5254 1.79233Z" fill="#F8F5F4"/>
<path d="M15.4515 25.4889L14.6968 25.9228C15.5458 26.7718 16.6589 27.9415 17.4513 28.8283L18.206 28.3943C17.4136 27.4887 16.3005 26.3379 15.4515 25.4889Z" fill="#968EA0"/>
<path d="M16.9421 24.621L16.1875 25.0549C17.0365 25.9039 18.1496 27.0736 18.942 27.9604L19.6967 27.5264C18.9043 26.6208 17.7911 25.47 16.9421 24.621Z" fill="#968EA0"/>
<path d="M17.7909 24.1304L17.6211 24.2436C18.4701 25.0926 19.5832 26.2623 20.3756 27.149L20.5454 27.0358C19.7342 26.1491 18.6399 24.9794 17.7909 24.1304Z" fill="#968EA0"/>
<path d="M18.5267 23.6965L18.3569 23.8097C19.2059 24.6587 20.3191 25.8285 21.1115 26.7152L21.2812 26.602C20.4889 25.7153 19.3946 24.5455 18.5267 23.6965Z" fill="#968EA0"/>
<path d="M19.9041 22.9042L19.1494 23.3381C19.9984 24.1871 21.1116 25.3568 21.9039 26.2436L22.6586 25.8096C21.8662 24.904 20.7531 23.7532 19.9041 22.9042Z" fill="#968EA0"/>
<path d="M21.3943 22.0173L20.6396 22.4513C21.4886 23.3003 22.6018 24.47 23.3942 25.3567L24.1488 24.9228C23.3564 24.0361 22.2433 22.8852 21.3943 22.0173Z" fill="#968EA0"/>
<path d="M22.8851 21.1683L22.1304 21.6023C22.9794 22.4513 24.0925 23.621 24.8849 24.5077L25.6396 24.0738C24.8472 23.1682 23.7341 22.0173 22.8851 21.1683Z" fill="#968EA0"/>
<path d="M23.7718 20.6401L23.4888 20.8099C24.3378 21.6589 25.4509 22.8287 26.2433 23.7154L26.5263 23.5456C25.715 22.6589 24.6208 21.508 23.7718 20.6401Z" fill="#968EA0"/>
<path d="M25.5832 19.6025L24.5078 20.2251C25.3568 21.0741 26.4699 22.2439 27.2623 23.1306L28.3378 22.508C27.5265 21.6213 26.4322 20.4515 25.5832 19.6025Z" fill="#968EA0"/>
<path d="M27.0357 18.7534L26.3564 19.1496C27.2055 19.9986 28.3186 21.1684 29.111 22.0551L29.7902 21.6589C28.9789 20.7722 27.8847 19.6024 27.0357 18.7534Z" fill="#968EA0"/>
<path d="M27.9601 18.2251L27.7715 18.3383C28.6205 19.1873 29.7336 20.357 30.526 21.2438L30.7147 21.1306C29.9034 20.225 28.8091 19.0741 27.9601 18.2251Z" fill="#968EA0"/>
<path d="M29.4319 17.3573L28.6772 17.7912C29.5262 18.6402 30.6394 19.81 31.4318 20.6967L32.1865 20.2628C31.3941 19.376 30.2809 18.2063 29.4319 17.3573Z" fill="#968EA0"/>
<path d="M30.9221 16.4895L30.1675 16.9234C31.0165 17.7724 32.1296 18.9422 32.922 19.8289L33.6767 19.395C32.8843 18.5082 31.7711 17.3385 30.9221 16.4895Z" fill="#968EA0"/>
<path d="M31.7712 15.9989L31.5825 16.1121C32.4315 16.9611 33.5446 18.1308 34.337 19.0176L34.5257 18.9044C33.7144 18.0176 32.6202 16.8479 31.7712 15.9989Z" fill="#968EA0"/>
<path d="M32.5072 15.5651L32.3374 15.6594C33.1864 16.5084 34.2995 17.6781 35.0919 18.5649L35.2617 18.4705C34.4693 17.5838 33.3562 16.4141 32.5072 15.5651Z" fill="#968EA0"/>
<path d="M33.884 14.7726L33.1294 15.2065C33.9784 16.0555 35.0915 17.2253 35.8839 18.112L36.6386 17.678C35.8273 16.7913 34.733 15.6216 33.884 14.7726Z" fill="#968EA0"/>
<path d="M35.3748 13.9048L34.6201 14.3387C35.4691 15.1877 36.5822 16.3575 37.3746 17.2442L38.1293 16.8103C37.3369 15.9235 36.2238 14.7538 35.3748 13.9048Z" fill="#968EA0"/>
<path d="M36.865 13.0367L36.1104 13.4707C36.9594 14.3197 38.0725 15.4894 38.8649 16.3761L39.6196 15.9422C38.8272 15.0555 37.714 13.8857 36.865 13.0367Z" fill="#968EA0"/>
<path d="M37.7332 12.5275L37.4502 12.6973C38.2992 13.5463 39.4123 14.716 40.2047 15.6027L40.4877 15.4329C39.6953 14.5462 38.601 13.3765 37.7332 12.5275Z" fill="#968EA0"/>
<path d="M39.5441 11.4709L38.4688 12.0935C39.3178 12.9425 40.4309 14.1123 41.2233 14.999L42.2987 14.3764C41.5063 13.4897 40.3931 12.3199 39.5441 11.4709Z" fill="#968EA0"/>
<path d="M42.2234 9.92383L40.3179 11.0181C41.1669 11.8671 42.28 13.0368 43.0724 13.9236L44.9779 12.8293C44.1855 11.9426 43.0724 10.7728 42.2234 9.92383Z" fill="#968EA0"/>
<path d="M43.1476 9.37671L42.959 9.48991C43.808 10.3389 44.9211 11.5086 45.7135 12.3954L45.9022 12.2822C45.1098 11.3954 43.9966 10.2446 43.1476 9.37671Z" fill="#968EA0"/>
<path d="M52.5629 13.0181L52.7138 13.2256C40.2429 20.4704 28.5456 27.2813 16.0748 34.5261L15.9238 34.3185C28.3947 27.0549 40.092 20.2629 52.5629 13.0181Z" fill="#968EA0"/>
<path d="M58.3925 24.0361L58.4868 24.2814C46.0159 31.5262 34.3186 38.3371 21.8478 45.5819L21.7534 45.3366C34.2243 38.0918 45.9216 31.2809 58.3925 24.0361Z" fill="#968EA0"/>
<path d="M12.0557 20.9232H12.2067C12.3953 21.0553 12.4519 21.1119 12.5462 21.2628C12.5651 21.1873 12.5651 21.1307 12.6406 20.9987C12.716 20.8666 12.716 20.8666 12.9047 20.8289L13.1688 20.9232L13.2066 21.0175C13.1311 21.1119 13.0556 21.2251 12.6594 21.376C12.7538 21.3571 12.9802 21.3005 13.2254 21.3005C13.4518 21.3194 13.4518 21.3194 13.5461 21.4137L13.4895 21.6024L13.3575 21.659C13.0556 21.6213 12.8292 21.5458 12.6028 21.3949C12.3764 21.6213 12.2633 21.6779 11.9803 21.7722L11.8293 21.7156L11.6973 21.5458L11.7539 21.4515C12.0557 21.3571 12.2444 21.376 12.584 21.376C12.3765 21.3383 12.2821 21.3005 12.2821 21.3005L12.1689 21.2817L12.0746 21.2439L11.8671 21.1496C11.8293 21.1307 11.8482 21.0175 11.8482 21.0175L12.0557 20.9232Z" fill="#968EA0"/>
<path d="M12.6025 21.4137C12.4327 21.8099 12.4328 21.8099 12.4516 21.9608L12.5837 22.0363L12.8667 22.0174C12.9044 21.9986 12.9422 21.9608 12.9799 21.942C12.9233 21.6778 12.8101 21.5835 12.6025 21.4137Z" fill="#968EA0"/>
<path d="M15.2065 19.9044C15.4895 20.1119 15.5272 20.1874 15.6027 20.4138C15.5649 20.4327 15.5272 20.4704 15.4894 20.4893H15.2065L15.0744 20.4138C15.0555 20.2629 15.0555 20.2629 15.0933 20.0742C15.2065 19.9044 15.2065 19.9044 15.2065 19.9044Z" fill="#968EA0"/>
<path d="M14.6591 19.4138H14.81C15.0176 19.5648 15.093 19.678 15.1496 19.7723C15.1874 19.678 15.1874 19.6214 15.244 19.5082C15.3194 19.3761 15.3194 19.3761 15.5081 19.3384L15.7534 19.4327L15.81 19.527C15.7534 19.6025 15.6402 19.7346 15.2628 19.8855C15.942 19.7157 16.1118 19.8666 16.1684 19.9232L16.1118 20.1119L15.9798 20.1685C15.6779 20.1308 15.4515 20.0553 15.2251 19.9044C14.9987 20.1308 14.8855 20.1685 14.6214 20.2817L14.4704 20.244L14.3384 20.0742L14.395 19.9798C14.6968 19.8855 14.9232 19.9044 15.2251 19.9044C15.0176 19.8666 14.9232 19.8289 14.9232 19.8289L14.8289 19.7912L14.7157 19.7534L14.5082 19.6402C14.4704 19.6214 14.4704 19.527 14.4704 19.527L14.6591 19.4138Z" fill="#968EA0"/>
<path d="M17.8288 18.3761C18.1118 18.6025 18.1495 18.678 18.225 18.8855C18.1873 18.9044 18.1495 18.9421 18.1118 18.961L17.8288 18.9798L17.6967 18.9044C17.659 18.7723 17.659 18.7723 17.7156 18.5648C17.8288 18.3761 17.8288 18.3761 17.8288 18.3761Z" fill="#968EA0"/>
<path d="M17.2626 17.9046H17.4324C17.6588 18.0555 17.7531 18.2064 17.772 18.263C17.7909 18.131 17.8286 18.0744 17.8663 17.9989C17.9418 17.8668 17.9418 17.8668 18.1305 17.8291L18.3757 17.9234L18.4323 18.0178C18.3757 18.0932 18.2625 18.2253 17.8852 18.3762C18.0739 18.3196 18.2625 18.3008 18.5078 18.3008C18.6965 18.3008 18.6964 18.3008 18.7908 18.414L18.7342 18.6026L18.6021 18.6592C18.3003 18.6215 18.0739 18.546 17.8475 18.3951C17.6399 18.6026 17.5834 18.6215 17.2249 18.7724L17.074 18.7158L16.9419 18.546L16.9985 18.4517C17.3003 18.3574 17.5267 18.3762 17.8286 18.3762C17.7154 18.3574 17.6211 18.3385 17.6211 18.3385L17.5079 18.3196L17.4135 18.2819L17.3004 18.2442L17.0928 18.131C17.0551 18.1121 17.0551 18.0178 17.0551 18.0178L17.2626 17.9046Z" fill="#968EA0"/>
<path d="M31.2807 9.75412H31.4316C31.6203 9.88619 31.6769 9.94279 31.7712 10.0937C31.7901 10.0183 31.7901 9.96166 31.8656 9.82959C31.941 9.69752 31.941 9.69752 32.1297 9.65979L32.3938 9.75412L32.4316 9.84846C32.375 9.92393 32.2617 10.056 31.8844 10.2069C32.5636 10.0371 32.7334 10.1881 32.79 10.2447L32.7334 10.4333L32.6014 10.5088C32.2995 10.4711 32.0731 10.3956 31.8467 10.2447C31.6203 10.4711 31.5071 10.5088 31.243 10.622L31.092 10.5654L30.96 10.3956L31.0166 10.3013C31.3184 10.2069 31.5071 10.2258 31.8467 10.2258C31.6392 10.1881 31.5448 10.1503 31.5448 10.1503L31.4316 10.1315L31.3373 10.0937L31.1298 9.99939C31.092 9.98052 31.1109 9.86732 31.1109 9.86732L31.2807 9.75412Z" fill="#968EA0"/>
<path d="M31.8281 10.2446C31.6583 10.6408 31.6584 10.6408 31.6961 10.7729L31.8281 10.8484L32.1111 10.8295C32.1489 10.8106 32.1866 10.7729 32.2054 10.754C32.1677 10.4899 31.9979 10.3767 31.8281 10.2446Z" fill="#968EA0"/>
<path d="M34.4503 8.71643C34.7333 8.92396 34.7711 8.99943 34.8466 9.22583C34.8088 9.2447 34.7711 9.28243 34.7334 9.3013H34.4503L34.3183 9.22583C34.2806 9.09376 34.2806 9.09376 34.3372 8.88623C34.4504 8.71643 34.4503 8.71643 34.4503 8.71643Z" fill="#968EA0"/>
<path d="M33.9033 8.22598H34.0542C34.2806 8.37691 34.3372 8.49011 34.3938 8.58445C34.4126 8.47125 34.4504 8.39578 34.4881 8.32031C34.5636 8.18825 34.5636 8.18825 34.7522 8.15051L34.9975 8.24485L35.0541 8.33918C34.9975 8.41465 34.8843 8.54671 34.507 8.69765C34.7522 8.64105 34.922 8.62218 35.1296 8.62218C35.2994 8.62218 35.2994 8.62218 35.4126 8.73538L35.356 8.92404L35.2239 8.98064C34.9221 8.94291 34.6957 8.86744 34.4693 8.69765C34.2429 8.92404 34.1296 8.96178 33.8655 9.07498L33.7146 9.03724L33.5825 8.86744L33.6391 8.77311C33.941 8.67878 34.1674 8.69765 34.4693 8.69765C34.2617 8.65991 34.1674 8.62218 34.1674 8.62218L34.073 8.58445L33.9598 8.54671L33.7523 8.43351C33.7146 8.41465 33.7146 8.32031 33.7146 8.32031L33.9033 8.22598Z" fill="#968EA0"/>
<path d="M37.054 7.20715C37.337 7.43355 37.3748 7.50902 37.4502 7.71655C37.4125 7.73542 37.3747 7.77315 37.337 7.79202L37.054 7.81089L36.9219 7.73542C36.9031 7.60335 36.9031 7.60335 36.9597 7.39582C37.054 7.20715 37.054 7.20715 37.054 7.20715Z" fill="#968EA0"/>
<path d="M36.5071 6.71658H36.6769C36.8467 6.82978 36.8844 6.88638 37.0165 7.07505C37.0353 6.96185 37.0731 6.86751 37.1108 6.81091C37.1863 6.67885 37.1863 6.67885 37.375 6.64111L37.6202 6.73545L37.6768 6.82978C37.5825 6.94298 37.507 7.03732 37.1108 7.18825C37.1863 7.16938 37.4316 7.11278 37.6957 7.11278C37.9221 7.13165 37.9221 7.13165 38.0164 7.22598L37.9598 7.41465L37.8278 7.47125C37.5259 7.43352 37.2995 7.35805 37.0731 7.20711C36.8467 7.43351 36.7335 7.49012 36.4505 7.58445L36.2996 7.54672L36.1675 7.37691L36.2241 7.28258C36.4882 7.20712 36.7712 7.24485 37.0542 7.20711C36.8467 7.16938 36.7523 7.13165 36.7523 7.13165L36.658 7.09391L36.5448 7.05618L36.3373 6.94298C36.2995 6.92411 36.2996 6.82978 36.2996 6.82978L36.5071 6.71658Z" fill="#968EA0"/>
<path d="M28.2812 10.1125C29.583 10.8672 29.7339 10.9993 31.696 12.452C28.1869 14.4896 24.6965 16.5272 21.1873 18.5648C19.9233 17.5837 19.8101 17.5083 17.7725 16.2253C21.2817 14.1689 24.772 12.1313 28.2812 10.1125Z" fill="#968EA0"/>
<path d="M60.3545 35.7712L60.3356 34.6958C59.2036 35.3561 57.6755 36.2429 56.5435 36.9032L56.5623 37.9786C57.7698 37.2805 59.1659 36.4693 60.3545 35.7712Z" fill="#968EA0"/>
<path d="M35.4127 50.223L35.3938 49.1288C31.545 51.3739 28.1491 53.336 24.3003 55.5812L24.3191 56.6754C28.1868 54.4303 31.5639 52.4682 35.4127 50.223Z" fill="#968EA0"/>
<path d="M27.4511 49.3741C26.1493 50.1288 25.3003 50.6193 23.9985 51.3929L24.0929 51.9023C25.3947 51.1476 26.2437 50.6571 27.5455 49.8835L27.4511 49.3741Z" fill="#968EA0"/>
<path d="M34.828 45.0914C33.6771 45.7518 32.13 46.6574 30.9792 47.3177C30.0547 47.8648 28.8095 48.5818 27.8662 49.1289L27.9605 49.6383C30.2811 48.2988 32.5829 46.9404 34.9034 45.6008L34.828 45.0914Z" fill="#968EA0"/>
<path d="M38.2808 43.0916C37.3752 43.6198 36.1678 44.3179 35.2622 44.8462L35.3565 45.3556C36.2621 44.8273 37.4696 44.1292 38.3752 43.601L38.2808 43.0916Z" fill="#968EA0"/>
<path d="M41.1291 41.4313C40.3933 41.8463 39.4311 42.4123 38.6953 42.8463L38.7897 43.3557C39.5254 42.9406 40.4877 42.3746 41.2234 41.9407L41.1291 41.4313Z" fill="#968EA0"/>
<path d="M46.3554 38.3938C44.7517 39.3183 43.1481 40.2616 41.5444 41.1861L41.6387 41.6955C42.7896 41.0351 44.3178 40.1295 45.4876 39.4692C45.7705 39.2994 46.1667 39.073 46.4497 38.9032L46.3554 38.3938Z" fill="#968EA0"/>
<path d="M33.9788 43.318C30.3376 45.4311 27.1491 47.28 23.5078 49.4119L23.621 49.9213C27.2623 47.8083 30.4508 45.9593 34.092 43.8274L33.9788 43.318Z" fill="#968EA0"/>
<path d="M39.8466 39.9219C38.0355 40.9784 36.2243 42.0349 34.4131 43.0726L34.5263 43.582C36.3375 42.5255 38.1486 41.4689 39.9598 40.4313L39.8466 39.9219Z" fill="#968EA0"/>
<path d="M44.8083 37.0353C43.2989 37.922 41.7896 38.7899 40.2803 39.6766L40.3935 40.186C41.5443 39.5257 43.0725 38.6201 44.2423 37.9597C44.4498 37.8465 44.7328 37.6767 44.9403 37.5635L44.8083 37.0353Z" fill="#968EA0"/>
<path d="M47.6576 35.375C46.9407 35.7901 45.9596 36.3561 45.2427 36.79L45.3559 37.2994C46.0728 36.8843 47.0539 36.3183 47.7708 35.8844L47.6576 35.375Z" fill="#968EA0"/>
<path d="M28.3191 44.2802C26.3758 45.4121 24.9042 46.2611 22.9609 47.3931L23.1119 47.9025C25.0552 46.7705 26.5268 45.9215 28.47 44.7896L28.3191 44.2802Z" fill="#968EA0"/>
<path d="M35.6962 39.9785C33.3756 41.318 31.055 42.6765 28.7344 44.016L28.8853 44.5254C30.0362 43.8651 31.5833 42.9595 32.7341 42.2991C33.6586 41.752 34.9038 41.0351 35.8471 40.4879L35.6962 39.9785Z" fill="#968EA0"/>
<path d="M39.1486 37.9786C38.243 38.5069 37.0355 39.205 36.1299 39.7332L36.2808 40.2426C37.1864 39.7144 38.3939 39.0163 39.2995 38.488L39.1486 37.9786Z" fill="#968EA0"/>
<path d="M41.9973 36.3184C41.2615 36.7334 40.2993 37.2994 39.5635 37.7334L39.7144 38.2428C40.4502 37.8277 41.4124 37.2617 42.1482 36.8278L41.9973 36.3184Z" fill="#968EA0"/>
<path d="M47.8839 32.9036C46.0539 33.9601 44.2427 35.0166 42.4126 36.092L42.5635 36.6014C44.3936 35.5449 46.2048 34.4884 48.0349 33.413L47.8839 32.9036Z" fill="#968EA0"/>
<path d="M28.3001 37.9598C25.7154 39.4692 23.6023 40.6955 21.0176 42.186L21.244 42.6765C23.8287 41.1672 25.9418 39.9408 28.5265 38.4504L28.3001 37.9598Z" fill="#968EA0"/>
<path d="M34.1485 34.5638C32.9976 35.2242 31.4505 36.1298 30.2996 36.7901C29.828 37.0731 29.1865 37.4316 28.7148 37.7146L28.9412 38.2051C30.0921 37.5448 31.6203 36.6392 32.7901 35.9788C33.2617 35.6958 33.9032 35.3374 34.3748 35.0544L34.1485 34.5638Z" fill="#968EA0"/>
<path d="M39.1106 31.6771C37.6012 32.5639 36.0919 33.4317 34.5825 34.3185L34.8089 34.809C36.3183 33.9223 37.8276 33.0544 39.337 32.1677L39.1106 31.6771Z" fill="#968EA0"/>
<path d="M44.5257 28.5453C42.8655 29.5075 41.2052 30.4697 39.5449 31.4319L39.7713 31.9224C41.4316 30.9602 43.0919 29.998 44.7521 29.0358L44.5257 28.5453Z" fill="#968EA0"/>
<path d="M27.7337 35.7712C25.0169 37.356 22.7529 38.6578 20.0361 40.2426L20.2814 40.7332C22.9982 39.1484 25.2622 37.8466 27.979 36.2618L27.7337 35.7712Z" fill="#968EA0"/>
<path d="M31.1866 33.7714C30.281 34.2996 29.0736 34.9977 28.168 35.526L28.4132 36.0165C29.3188 35.4882 30.5263 34.7902 31.4319 34.2619L31.1866 33.7714Z" fill="#968EA0"/>
<path d="M34.0358 32.1111C33.3 32.5261 32.3378 33.0921 31.6021 33.5261L31.8473 34.0166C32.5831 33.6015 33.5453 33.0355 34.2811 32.6016L34.0358 32.1111Z" fill="#968EA0"/>
<path d="M39.9411 28.6774C38.111 29.7339 36.2998 30.7904 34.4697 31.8658L34.715 32.3564C36.545 31.2998 38.3563 30.2433 40.1863 29.1679L39.9411 28.6774Z" fill="#968EA0"/>
<path d="M45.3928 25.5078C43.7137 26.4889 42.0346 27.4511 40.3555 28.4321L40.6007 28.9227C42.2799 27.9416 43.959 26.9794 45.6381 25.9983L45.3928 25.5078Z" fill="#968EA0"/>
<path d="M26.2811 34.0922C23.7152 35.5826 21.621 36.809 19.0552 38.2994L19.3193 38.79C21.8852 37.2995 23.9793 36.0732 26.5452 34.5827L26.2811 34.0922Z" fill="#968EA0"/>
<path d="M32.1489 30.696C30.3377 31.7526 28.5265 32.8091 26.7153 33.8468L26.9795 34.3373C28.7907 33.2808 30.6018 32.2242 32.413 31.1866L32.1489 30.696Z" fill="#968EA0"/>
<path d="M37.1108 27.8096C35.6015 28.6963 34.0922 29.5642 32.564 30.4509L32.8281 30.9414C34.3374 30.0547 35.8467 29.1868 37.3749 28.3001L37.1108 27.8096Z" fill="#968EA0"/>
<path d="M39.9597 26.1493C39.2239 26.5644 38.2617 27.1304 37.5259 27.5643L37.79 28.0548C38.5258 27.6398 39.488 27.0738 40.2238 26.6398L39.9597 26.1493Z" fill="#968EA0"/>
<path d="M43.8276 23.9042C42.7899 24.5079 41.4127 25.3003 40.375 25.904L40.6391 26.3946C41.6768 25.7908 43.0541 24.9984 44.0917 24.3947L43.8276 23.9042Z" fill="#968EA0"/>
<path d="M20.0553 35.1864C19.3007 35.6203 18.7535 35.9411 17.98 36.3939L18.263 36.8655C19.0176 36.4316 19.5648 36.1109 20.3383 35.6581L20.0553 35.1864Z" fill="#968EA0"/>
<path d="M27.4322 30.9036C25.1116 32.2431 22.8099 33.6015 20.4893 34.941L20.7722 35.4127C23.0929 34.0732 25.3946 32.7148 27.7152 31.3752L27.4322 30.9036Z" fill="#968EA0"/>
<path d="M30.8849 28.9038C29.9793 29.4321 28.7718 30.1301 27.8662 30.6584L28.1492 31.1301C29.0548 30.6018 30.2623 29.9037 31.1679 29.3755L30.8849 28.9038Z" fill="#968EA0"/>
<path d="M33.7336 27.2435C32.9978 27.6586 32.0356 28.2246 31.2998 28.6585L31.5828 29.1302C32.3186 28.7151 33.2808 28.1491 34.0166 27.7152L33.7336 27.2435Z" fill="#968EA0"/>
<path d="M39.6198 23.8286C37.7897 24.8851 35.9785 25.9417 34.1484 26.9982L34.4314 27.4699C36.2615 26.4133 38.0727 25.3568 39.9028 24.3003L39.6198 23.8286Z" fill="#968EA0"/>
<path d="M43.0728 21.8099C42.1673 22.3382 40.9598 23.0363 40.0542 23.5645L40.3372 24.0362C41.2428 23.5079 42.4502 22.8099 43.3558 22.2816L43.0728 21.8099Z" fill="#968EA0"/>
<defs>
<linearGradient id="paint0_linear_383_5170" x1="10.1042" y1="94.986" x2="172.569" y2="94.986" gradientUnits="userSpaceOnUse">
<stop stop-color="#5917FF"/>
<stop offset="0.1588" stop-color="#6D22F8"/>
<stop offset="0.4847" stop-color="#A13DE7"/>
<stop offset="0.9459" stop-color="#F569CA"/>
<stop offset="1" stop-color="#FF6EC7"/>
</linearGradient>
<linearGradient id="paint1_linear_383_5170" x1="112.678" y1="114.097" x2="131.14" y2="114.097" gradientUnits="userSpaceOnUse">
<stop stop-color="#C0B9C8"/>
<stop offset="1" stop-color="#E0DBE1"/>
</linearGradient>
<linearGradient id="paint2_linear_383_5170" x1="108.189" y1="84.1176" x2="150.082" y2="84.1176" gradientUnits="userSpaceOnUse">
<stop stop-color="#8930EF"/>
<stop offset="0.4499" stop-color="#BC4BDE"/>
<stop offset="1" stop-color="#FF6EC7"/>
</linearGradient>
</defs>
</svg>
