<svg width="160" height="160" viewBox="0 0 160 160" fill="none" xmlns="http://www.w3.org/2000/svg">
<path fill-rule="evenodd" clip-rule="evenodd" d="M33 32.8333V52.8333C33 72.4706 33 101.552 33 126.168C33 133.532 38.9695 139.5 46.3333 139.5H66.3333H91.667C94.0014 137.166 94.667 136 99.667 131.5C96.167 124 96.5714 114.5 104 108C111.429 101.5 123.167 103.5 126.333 106V52.8333L93 19.5H46.3333C42.7971 19.5 39.4057 20.9048 36.9052 23.4052C34.4048 25.9057 33 29.2971 33 32.8333Z" fill="url(#paint0_linear_370_4139)"/>
<path d="M93.333 20V46.6667C93.333 48.4348 94.0354 50.1305 95.2856 51.3807C96.5359 52.631 98.2316 53.3333 99.9997 53.3333H126.666" fill="#6713BB"/>
<path d="M138.583 145.097L134.733 146.007C133.87 146.217 133.193 146.87 133.007 147.733L132.19 151.163C131.747 153.03 129.367 153.59 128.13 152.12L117 139.333L105.87 152.143C104.633 153.613 102.253 153.053 101.81 151.187L100.993 147.757C100.783 146.893 100.107 146.217 99.2667 146.03L95.4167 145.12C93.6434 144.7 93.0134 142.483 94.2967 141.2L103.397 132.1C105.917 135.833 109.907 138.47 114.55 139.147C115.343 139.287 116.16 139.357 117 139.357C117.84 139.357 118.657 139.287 119.45 139.147C124.093 138.47 128.083 135.833 130.603 132.1L139.703 141.2C140.987 142.46 140.357 144.677 138.583 145.097Z" fill="#FFC440"/>
<path d="M133.333 123C133.333 126.383 132.33 129.487 130.603 132.077C128.083 135.81 124.093 138.447 119.45 139.123C118.657 139.263 117.84 139.333 117 139.333C116.16 139.333 115.343 139.263 114.55 139.123C109.907 138.447 105.917 135.81 103.397 132.077C101.67 129.487 100.667 126.383 100.667 123C100.667 113.97 107.97 106.667 117 106.667C126.03 106.667 133.333 113.97 133.333 123Z" fill="#0065FF"/>
<path d="M118.353 115.953L119.73 118.707C119.916 119.08 120.406 119.453 120.85 119.523L123.346 119.943C124.933 120.2 125.306 121.367 124.163 122.51L122.226 124.447C121.9 124.773 121.713 125.403 121.83 125.87L122.39 128.273C122.833 130.163 121.83 130.91 120.15 129.907L117.816 128.53C117.396 128.273 116.696 128.273 116.276 128.53L113.943 129.907C112.263 130.887 111.26 130.163 111.703 128.273L112.263 125.87C112.356 125.427 112.193 124.773 111.866 124.447L109.93 122.51C108.786 121.367 109.16 120.223 110.746 119.943L113.243 119.523C113.663 119.453 114.153 119.08 114.34 118.707L115.716 115.953C116.393 114.46 117.606 114.46 118.353 115.953Z" fill="white"/>
<rect x="53" y="65" width="55" height="4" rx="2" fill="white"/>
<rect x="53" y="77" width="55" height="4" rx="2" fill="white"/>
<rect x="53" y="89" width="55" height="4" rx="2" fill="white"/>
<rect x="53" y="101" width="26" height="4" rx="2" fill="white"/>
<rect x="53" y="113" width="26" height="4" rx="2" fill="white"/>
<defs>
<linearGradient id="paint0_linear_370_4139" x1="116.5" y1="-18.5" x2="22" y2="163.5" gradientUnits="userSpaceOnUse">
<stop stop-color="#6E22F8"/>
<stop offset="1" stop-color="#DD5CD3"/>
</linearGradient>
</defs>
</svg>
