<svg width="20" height="20" viewBox="0 0 20 20" fill="none" xmlns="http://www.w3.org/2000/svg">
<path fill-rule="evenodd" clip-rule="evenodd" d="M9.62082 5.53569C9.95704 6.75049 9.57887 8.01784 8.75025 8.79901C8.59315 8.94713 8.54252 9.18655 8.66595 9.36375C8.92868 9.74092 9.22749 10.0994 9.56254 10.4348C9.8971 10.7696 10.2548 11.0682 10.631 11.3309C10.8087 11.4549 11.0488 11.4034 11.1967 11.245C11.9766 10.4098 13.2476 10.0275 14.4658 10.3651C16.1077 10.8202 17.0318 12.411 16.5299 13.9181C15.059 18.3348 9.39605 13.9571 7.71943 12.2792C6.00229 10.5608 1.69194 4.93043 6.07046 3.47007C7.57652 2.96773 9.16605 3.89254 9.62082 5.53569Z" stroke="#646E82" stroke-width="2"/>
</svg>
