<svg width="244" height="244" viewBox="0 0 244 244" fill="none" xmlns="http://www.w3.org/2000/svg">
<path d="M126.353 29.9666C77.1835 28.5348 34.5927 63.7189 28.1579 109.885C21.1227 160.361 59.845 205.778 107.491 213.052C166.755 222.099 224.238 169.757 219.076 112.973C215.188 70.1911 176.334 31.4221 126.353 29.9666Z" fill="#F4F7FA"/>
<path d="M124.443 168.762L139.48 175.324C139.48 175.324 145.677 168.845 144.367 161.793C141.695 147.406 154.483 146.069 159.755 144.708C167.706 142.656 172.933 137.803 167.502 130.805C161.357 122.887 173.574 114.281 186.893 112.817C199.926 111.385 204.9 87.3908 176.408 87.9005C159.392 88.205 155.051 104.211 150.938 111.773C146.825 119.335 134.851 114.884 134.662 126.232C134.5 135.926 138.384 144.739 130.968 148.216C123.552 151.693 120.28 157.792 124.443 168.762Z" fill="#D8DEE8"/>
<g opacity="0.5">
<path opacity="0.5" d="M130.343 172.998L130.68 173.077C130.729 172.868 135.704 151.975 146.882 132.749C157.179 115.037 175.001 95.1587 201.428 101.038L201.503 100.7C189.739 98.0828 178.674 100.264 168.613 107.182C160.577 112.709 153.164 121.254 146.579 132.581C135.377 151.851 130.392 172.788 130.343 172.998Z" fill="#BEB8F2"/>
<path opacity="0.5" d="M164.535 110.254L164.867 110.352C168.137 99.2981 178.63 86.1478 178.735 86.0162L178.465 85.7992C178.359 85.932 167.824 99.1357 164.535 110.254Z" fill="#BEB8F2"/>
<path opacity="0.5" d="M171.364 105.828C184.955 103.833 193.545 111.385 193.63 111.461L193.862 111.203C193.775 111.126 185.071 103.466 171.313 105.485L171.364 105.828Z" fill="#BEB8F2"/>
<path opacity="0.5" d="M140.259 145.716C150.339 132.298 172.296 137.51 172.506 137.579L172.635 137.258C172.436 137.171 150.152 131.971 139.982 145.508L140.259 145.716Z" fill="#BEB8F2"/>
<path opacity="0.5" d="M142.928 139.331L143.267 139.402C145.462 128.921 137.923 117.76 137.846 117.648L137.561 117.844C137.637 117.955 145.092 128.996 142.928 139.331Z" fill="#BEB8F2"/>
<path opacity="0.5" d="M131.534 169.806C134.534 164.18 144.864 163.197 144.968 163.188L144.937 162.843C144.505 162.881 134.316 163.852 131.229 169.644L131.534 169.806Z" fill="#BEB8F2"/>
<path opacity="0.5" d="M132.646 164.843L132.983 164.926C134.192 160.032 129.522 151.955 127.988 149.3C127.771 148.926 127.584 148.601 127.561 148.537L127.232 148.645C127.262 148.736 127.385 148.951 127.688 149.474C129.206 152.098 133.823 160.084 132.646 164.843Z" fill="#BEB8F2"/>
</g>
<path d="M102.987 147.1C107.307 148.875 108.548 153.231 108.951 156.525C108.609 156.815 108.486 157.069 108.206 157.437C105.683 160.76 103.898 161.639 100.894 164.521C100.247 165.141 97.7956 166.385 96.761 166.829L94.8196 167.625C94.8196 167.625 85.4502 162.353 87.8455 156.722C90.2401 151.092 81.977 144.956 78.0006 141.165C75.5587 138.837 75.1871 136.99 74.4275 135.991C66.382 125.413 60.7878 125.034 60.2846 119.987C59.7296 114.415 66.3879 113.282 66.1045 107.189C65.7835 100.309 57.0778 97.1349 58.2294 90.5561C58.4267 89.4282 58.6602 88.2746 59.4935 86.9948C61.5494 83.8346 65.1528 83.5209 65.1745 79.5814C65.2179 71.6629 70.3551 64.5324 78.3992 65.9056C86.3387 67.2611 89.7429 80.3463 84.5722 97.4861C82.2848 110.095 83.7922 112.033 88.3644 115.999C91.5667 118.777 102.09 124.186 100.297 131.368C98.5039 138.55 98.0475 145.071 102.987 147.1Z" fill="#D8DEE8"/>
<g opacity="0.5">
<path opacity="0.5" d="M102.659 163.247L102.402 163.416C101.458 162.009 100.524 160.579 99.6273 159.164C92.9887 148.685 87.6496 137.923 83.7594 127.175C80.4631 118.068 78.158 108.844 76.9077 99.7585C75.9028 92.4523 75.5713 85.1968 75.9232 78.1925C76.1705 73.2684 76.7505 68.5186 77.6469 64.0746C77.8028 63.3006 78.0074 62.514 78.2047 61.753C78.4677 60.7395 78.74 59.6919 78.8998 58.6646L79.1978 58.6889C79.0353 59.7307 78.7617 60.7856 78.4967 61.8056C78.3 62.5626 78.0968 63.3453 77.9422 64.1115C77.0485 68.541 76.4704 73.2769 76.2237 78.1872C75.8725 85.1744 76.2033 92.4129 77.2063 99.702C78.4539 108.768 80.7545 117.974 84.0442 127.064C87.9278 137.794 93.2583 148.539 99.8871 159.001C100.784 160.414 101.715 161.842 102.659 163.247Z" fill="#FCFDFE"/>
<path opacity="0.5" d="M79.2075 110.662L78.9148 110.75C75.8507 98.8766 58.5273 86.7101 58.353 86.5884L58.5398 86.349C58.7154 86.472 76.119 98.6944 79.2075 110.662Z" fill="#FCFDFE"/>
<path opacity="0.5" d="M90.8601 142.956L90.578 143.075C87.4968 135.305 95.673 120.465 95.7558 120.316L96.0196 120.439C95.9367 120.587 87.8263 135.307 90.8601 142.956Z" fill="#FCFDFE"/>
<path opacity="0.5" d="M93.0154 147.194L92.7556 147.358C89.8184 142.769 83.1548 138.188 73.9926 134.461C73.5316 134.274 73.5315 134.274 73.502 134.229L73.7598 134.062L73.6309 134.145L73.7203 134.024C73.7492 134.04 73.9229 134.111 74.1248 134.193C83.3396 137.941 90.0479 142.558 93.0154 147.194Z" fill="#FCFDFE"/>
<path opacity="0.5" d="M100.976 160.655L100.683 160.743C99.1508 154.91 104.856 147.322 104.913 147.246L105.152 147.407C105.096 147.482 99.4783 154.954 100.976 160.655Z" fill="#FCFDFE"/>
<path opacity="0.5" d="M102.319 163.561C98.2966 160.76 93.2286 159.035 86.8247 158.288L86.8806 158C93.3338 158.753 98.4453 160.494 102.506 163.322L102.319 163.561Z" fill="#FCFDFE"/>
<path opacity="0.5" d="M76.0886 82.3114L75.7926 82.3831C74.4786 75.6655 71.4565 69.0065 70.4634 66.8184C70.2227 66.289 70.1392 66.1022 70.1221 66.0312L70.4161 65.9476C70.4299 66.0016 70.5673 66.3041 70.7416 66.6875C71.7367 68.8829 74.7679 75.5629 76.0886 82.3114Z" fill="#FCFDFE"/>
<path opacity="0.5" d="M76.5214 93.6468L76.2222 93.6323C77.0002 87.1383 87.6145 78.4339 88.0664 78.0663L88.2518 78.2827C88.142 78.3715 77.285 87.2738 76.5214 93.6468Z" fill="#FCFDFE"/>
</g>
<path d="M161.258 171.35C160.313 171.701 158.966 166.583 153.328 162.08C151.919 160.954 144.663 154.284 137.978 157.484C136.681 158.105 135.383 158.727 134.085 159.348C131.492 157.06 129.472 154.422 132.764 151.304C137.876 146.462 132.641 136.441 129.085 133.786C124.684 130.501 114.608 122.643 122.393 115.043C128.873 108.715 134.356 105.852 129.851 96.2438C125.345 86.6357 127.622 77.9813 136.938 73.8228C146.742 69.4465 148.111 53.5326 158.028 53.432C175.307 53.2571 174.158 80.222 160.909 94.7864C147.66 109.35 160.121 109.979 164.695 117.378C165.08 118.089 165.623 119.221 166.011 120.679C168.395 129.654 160.741 135.419 158.186 145.126C154.702 158.362 162.849 170.758 161.258 171.35Z" fill="url(#paint0_linear_394_5836)"/>
<g opacity="0.5">
<path opacity="0.5" d="M145.359 152.516L144.874 152.662C135.166 119.126 142.697 80.6087 164.528 52.1429L164.929 52.4179C143.19 80.7639 135.691 119.119 145.359 152.516Z" fill="#FCFDFE"/>
<path opacity="0.5" d="M141.72 133.737L141.272 133.97C134.782 121.872 118.687 118.167 118.524 118.131L118.656 117.662C118.82 117.699 135.129 121.449 141.72 133.737Z" fill="#FCFDFE"/>
<path opacity="0.5" d="M143.751 146.294L143.248 146.299C143.665 132.286 166.596 118.441 166.828 118.303L167.082 118.709C166.853 118.845 144.16 132.548 143.751 146.294Z" fill="#FCFDFE"/>
<path opacity="0.5" d="M143.601 99.2664L143.1 99.3125C142.439 88.2463 128.862 77.732 128.725 77.6267L129.047 77.2466C129.186 77.3531 142.929 87.9964 143.601 99.2664Z" fill="#FCFDFE"/>
<path opacity="0.5" d="M150.295 77.6374L149.867 77.4006C156.82 66.3752 174.131 61.4965 174.305 61.4485L174.427 61.9102C174.255 61.9575 157.139 66.7836 150.295 77.6374Z" fill="#FCFDFE"/>
</g>
<path d="M145.221 169.637C144.993 170.618 139.982 168.921 133.115 171.141C131.4 171.695 121.834 174.071 120.818 181.412C120.621 182.837 120.424 184.261 120.226 185.686C116.887 186.588 113.574 186.819 112.788 182.353C111.567 175.419 100.321 174.26 96.1452 175.763C90.9778 177.623 78.8666 181.696 76.8186 171.011C75.1139 162.115 75.7479 155.963 65.248 154.424C54.7481 152.884 48.7843 146.212 50.4515 136.148C52.2068 125.557 39.6853 115.64 45.0697 107.311C54.4522 92.7997 76.3135 108.627 81.1573 127.711C86.0011 146.795 93.3968 136.746 102.092 137.011C102.898 137.081 104.141 137.252 105.571 137.733C114.373 140.692 114.961 150.257 121.65 157.741C130.772 167.946 145.605 167.984 145.221 169.637Z" fill="url(#paint1_linear_394_5836)"/>
<g opacity="0.5">
<path opacity="0.5" d="M120.743 172.517L120.597 173.001C87.2666 162.607 59.2875 135.086 47.5781 101.177L48.0286 100.994C59.6887 134.76 87.5514 162.166 120.743 172.517Z" fill="#FCFDFE"/>
<path opacity="0.5" d="M103.07 165.196L103.016 165.699C89.3464 164.441 77.3793 175.827 77.2602 175.942L76.9419 175.573C77.0623 175.457 89.184 163.92 103.07 165.196Z" fill="#FCFDFE"/>
<path opacity="0.5" d="M114.665 170.427L114.392 170.849C102.932 162.774 104.027 136.01 104.039 135.74L104.517 135.752C104.505 136.019 103.423 162.506 114.665 170.427Z" fill="#FCFDFE"/>
<path opacity="0.5" d="M75.3513 144.62L75.1132 145.064C65.517 139.513 49.2591 145.041 49.096 145.098L48.9565 144.619C49.121 144.562 65.5775 138.967 75.3513 144.62Z" fill="#FCFDFE"/>
<path opacity="0.5" d="M60.9983 127.109L60.5649 127.335C55.2007 115.455 60.6767 98.3235 60.7326 98.1519L61.1851 98.3051C61.1298 98.4741 55.7176 115.415 60.9983 127.109Z" fill="#FCFDFE"/>
</g>
<path d="M123.799 200.006C123.356 200.025 122.933 200.034 122.528 200.034C106.482 200.034 66.017 203.135 54.0643 168.392C43.0817 136.483 84.0303 87.5559 90.7787 79.7939C91.3779 79.1033 91.708 78.7396 91.708 78.7396C91.708 78.7396 89.9251 77.4276 126.018 76.0372C167.468 107.827 174.019 132.994 174.019 132.994C187.205 184.557 140.993 199.299 123.799 200.006Z" fill="url(#paint2_linear_394_5836)"/>
<path opacity="0.3" d="M123.799 200.006C123.356 200.025 122.933 200.034 122.528 200.034C106.482 200.034 66.017 203.135 54.0643 168.392C43.0817 136.484 84.0303 87.5559 90.7787 79.794C92.4986 79.5269 94.1559 79.6091 95.7317 80.0985C96.3342 80.2866 11.7037 188.577 123.799 200.006Z" fill="url(#paint3_linear_394_5836)"/>
<path d="M84.8447 51.4768C84.8447 51.4768 91.5761 40.0291 101.079 44.2469C110.582 48.4646 118.237 51.6274 123.253 48.6152C128.268 45.603 130.892 43.2156 132.286 49.8312C133.68 56.4469 114.674 72.7146 114.674 72.7146C114.674 72.7146 85.6366 72.7146 84.8447 51.4768Z" fill="url(#paint4_linear_394_5836)"/>
<path opacity="0.2" d="M84.8447 56.4988C84.8447 56.4988 91.5761 45.0512 101.079 49.269C110.582 53.4867 118.237 56.6495 123.253 53.6373C128.268 50.6251 130.892 48.2377 132.286 54.8533C133.68 61.469 114.674 77.7367 114.674 77.7367C114.674 77.7367 85.6366 77.7367 84.8447 56.4988Z" fill="url(#paint5_linear_394_5836)"/>
<path d="M133.714 67.7189C131.021 71.7209 127.879 75.1514 125.114 76.5641C121.645 78.3346 115.468 79.4079 109.316 79.8565C103.161 80.3024 97.0281 80.1228 93.6634 79.3889L93.6568 79.3856C92.8215 79.2034 92.1599 78.987 91.7074 78.7391C91.7074 78.7391 80.8313 61.4696 80.6748 53.4124C80.6215 50.854 81.6508 49.2249 84.4473 49.3696C96.0639 49.9694 96.3276 56.4476 104.247 54.6396C112.166 52.8316 117.973 40.7822 123.252 48.6165C128.532 56.4476 134.207 45.3018 138.959 48.9177C142.026 51.2499 138.617 60.4305 133.714 67.7189Z" fill="url(#paint6_linear_394_5836)"/>
<path d="M91.0702 77.7018C91.0702 77.7018 112.448 83.8294 126.427 75.7629C127.631 77.2842 128.256 77.7735 128.256 77.7735C128.256 77.7735 117.987 87.1507 90.208 80.4548C90.2087 80.4548 90.8834 78.4699 91.0702 77.7018Z" fill="url(#paint7_linear_394_5836)"/>
<path opacity="0.2" d="M133.714 67.7189C131.02 71.7209 127.879 75.1513 125.113 76.564C121.645 78.3345 115.468 79.4079 109.316 79.8564L93.6629 79.3888L93.6563 79.3855C92.821 79.2033 92.1594 78.9869 91.7069 78.739C91.7069 78.739 80.8308 61.4696 80.6743 53.4123C80.8059 53.2709 85.0814 48.7539 90.2067 58.4376C95.4169 68.2713 97.3005 76.8435 103.472 72.7159C109.645 68.585 119.165 52.3705 120.842 60.0069C122.515 67.6432 116.34 74.9915 120.842 73.7768C124.351 72.8284 131.112 67.5867 133.714 67.7189Z" fill="url(#paint8_linear_394_5836)"/>
<g opacity="0.9">
<path opacity="0.9" d="M118.632 104.662C119.949 104.615 121.055 105.522 121.105 106.691L121.274 110.69C123.914 110.63 126.561 110.713 129.214 110.938C131.168 111.104 133.111 111.347 135.044 111.668C136.201 111.86 137.03 112.783 136.968 113.849L136.67 118.956C136.59 120.316 135.136 121.294 133.699 120.912C132.412 120.571 131.095 120.304 129.751 120.114C127.401 119.781 124.932 119.681 122.341 119.814L121.663 119.849L122.159 131.53C129.168 132.364 134.354 134.031 137.776 136.531C141.185 139.021 143.004 142.453 143.242 146.85C143.5 151.63 141.899 155.726 138.409 159.148C134.879 162.608 129.78 165.001 123.068 166.31L123.268 171.038C123.321 172.298 122.258 173.439 120.89 173.585L120.845 173.59C119.474 173.737 118.318 172.828 118.268 171.561L118.085 166.887L116.984 166.997C113.8 167.315 110.739 167.45 107.802 167.402C105.625 167.366 103.492 167.224 101.407 166.976C100.145 166.825 99.253 165.871 99.3352 164.701L99.8232 157.715C99.9285 156.213 101.563 155.125 103.15 155.467C104.999 155.864 106.866 156.156 108.751 156.343C111.685 156.635 114.645 156.674 117.631 156.461L117.148 143.079C110.346 142.48 105.203 140.937 101.777 138.451C98.3375 135.955 96.5499 132.431 96.4243 127.903C96.2948 123.243 98.0041 119.44 101.523 116.498C105.006 113.588 110.006 111.749 116.483 110.968L116.321 106.873C116.275 105.697 117.31 104.709 118.632 104.662ZM116.855 120.326C114.805 120.713 113.218 121.411 112.1 122.422C110.978 123.436 110.442 124.679 110.494 126.151C110.544 127.547 111.123 128.648 112.228 129.451C113.332 130.253 115.018 130.79 117.28 131.063L116.855 120.326ZM122.106 143.49L122.623 155.738C124.892 155.431 126.608 154.704 127.775 153.56C128.938 152.42 129.477 150.964 129.395 149.191C129.32 147.576 128.701 146.314 127.535 145.402C126.368 144.488 124.561 143.851 122.106 143.49Z" fill="url(#paint9_linear_394_5836)"/>
</g>
<path d="M43.7144 200.736V207.626C43.7144 209.852 57.621 211.657 74.776 211.657C91.9309 211.657 105.838 209.852 105.838 207.626V200.736H43.7144Z" fill="url(#paint10_linear_394_5836)"/>
<path d="M105.839 200.736C105.839 202.962 91.9324 204.767 74.7774 204.767C57.6225 204.767 43.7158 202.962 43.7158 200.736C43.7158 198.51 57.6225 196.705 74.7774 196.705C91.9324 196.705 105.839 198.51 105.839 200.736Z" fill="url(#paint11_linear_394_5836)"/>
<path d="M74.7764 205.045C59.5833 205.045 43.6963 203.593 43.6963 200.795C43.6963 200.641 43.7509 200.371 43.9048 200.371C44.0587 200.371 43.9922 200.583 43.9922 200.736C43.9922 202.511 56.6349 204.489 74.7757 204.489C92.9172 204.489 105.559 202.511 105.559 200.736C105.559 200.583 105.585 200.438 105.739 200.438C105.893 200.438 105.856 200.644 105.856 200.798C105.857 203.596 89.9695 205.045 74.7764 205.045Z" fill="url(#paint12_linear_394_5836)"/>
<path d="M71.8414 200.96C72.1459 200.749 72.4708 200.541 72.8174 200.336C73.1614 200.131 73.6093 199.945 74.1519 199.779C74.6977 199.614 75.3798 199.479 76.1992 199.374C77.0187 199.27 78.0434 199.215 79.266 199.209C80.4663 199.203 81.5922 199.241 82.6465 199.323C83.6975 199.405 84.6254 199.528 85.4265 199.691C86.2243 199.854 86.876 200.057 87.3785 200.297C87.8777 200.538 88.175 200.813 88.271 201.124L91.7685 201.159C92.0224 201.161 92.2467 201.182 92.4394 201.221C92.6347 201.261 92.7294 201.311 92.7294 201.372L92.7307 201.66L88.2341 201.617C88.0763 201.97 87.6745 202.293 87.0286 202.585C86.3861 202.878 85.564 203.132 84.563 203.346L82.9253 203.119C82.7787 203.096 82.6583 203.068 82.5636 203.033C82.4689 202.999 82.4235 202.961 82.4235 202.921C82.4235 202.865 82.5498 202.802 82.803 202.731C83.0562 202.66 83.3423 202.572 83.6606 202.467C83.9789 202.362 84.2907 202.239 84.5991 202.096C84.9043 201.953 85.1082 201.783 85.2147 201.585L74.6017 201.48C74.3229 201.685 74.0085 201.886 73.6645 202.084C73.3173 202.282 72.8595 202.46 72.288 202.619C71.7165 202.777 71.0042 202.905 70.1525 203.005C69.2975 203.103 68.2275 203.156 66.9325 203.162C65.9598 203.167 65.0127 203.13 64.0854 203.051C63.158 202.973 62.334 202.855 61.6145 202.699C60.895 202.542 60.305 202.349 59.842 202.119C59.3823 201.888 59.1238 201.624 59.0706 201.324L56.1912 201.294C55.9374 201.293 55.7131 201.272 55.5112 201.234C55.3126 201.195 55.2113 201.145 55.2113 201.081L55.21 200.793L59.1468 200.83C59.3211 200.527 59.6776 200.262 60.2228 200.037C60.768 199.812 61.4343 199.612 62.2209 199.436L63.5395 199.617C63.94 199.674 64.1387 199.739 64.1393 199.815C64.1393 199.856 64.0584 199.906 63.8927 199.967C63.7237 200.027 63.529 200.1 63.3014 200.183C63.0772 200.267 62.8568 200.366 62.6457 200.479C62.4313 200.592 62.2728 200.72 62.1663 200.863L71.8414 200.96ZM62.1288 201.353C62.2077 201.541 62.384 201.704 62.6516 201.841C62.9193 201.978 63.2514 202.09 63.652 202.179C64.0525 202.267 64.5017 202.331 64.9996 202.373C65.5007 202.414 66.0249 202.433 66.5714 202.431C67.2087 202.427 67.7651 202.4 68.24 202.348C68.7115 202.296 69.1272 202.226 69.4882 202.137C69.846 202.049 70.161 201.945 70.4267 201.828C70.6931 201.71 70.9299 201.582 71.1436 201.444L62.1288 201.353ZM85.2325 201.096C85.1536 200.904 84.9609 200.736 84.661 200.592C84.3611 200.448 83.9763 200.327 83.5107 200.229C83.045 200.131 82.5011 200.058 81.8796 200.01C81.2614 199.962 80.5781 199.941 79.8296 199.944C79.166 199.947 78.5906 199.977 78.1124 200.033C77.6343 200.089 77.2186 200.164 76.8641 200.26C76.5129 200.354 76.2111 200.465 75.9677 200.591C75.7211 200.717 75.4909 200.852 75.2798 200.996L85.2325 201.096Z" fill="#FCB048"/>
<path d="M74.7807 197.141C60.9306 197.141 46.5103 198.36 44.2031 200.719C44.2932 200.802 44.3774 200.89 44.455 200.984C46.3991 199.346 58.3071 197.697 74.7801 197.697C91.6766 197.697 103.775 199.432 105.241 201.111C105.313 201.019 105.39 200.93 105.473 200.848C103.568 198.405 88.8768 197.141 74.7807 197.141Z" fill="url(#paint13_linear_394_5836)"/>
<path d="M35.0796 193.499V200.388C35.0796 202.615 48.9863 204.419 66.1413 204.419C83.2962 204.419 97.2029 202.615 97.2029 200.388V193.499H35.0796Z" fill="url(#paint14_linear_394_5836)"/>
<path d="M97.2034 193.499C97.2034 195.725 83.2967 197.53 66.1417 197.53C48.9868 197.53 35.0801 195.725 35.0801 193.499C35.0801 191.272 48.9868 189.468 66.1417 189.468C83.2967 189.468 97.2034 191.272 97.2034 193.499Z" fill="url(#paint15_linear_394_5836)"/>
<path d="M66.1416 197.808C50.9485 197.808 35.0615 196.357 35.0615 193.558C35.0615 193.404 35.1161 193.134 35.27 193.134C35.4239 193.134 35.3575 193.345 35.3575 193.499C35.3575 195.274 48.0001 197.252 66.1409 197.252C84.2818 197.252 96.9244 195.274 96.9244 193.499C96.9244 193.345 96.9507 193.201 97.1046 193.201C97.2585 193.201 97.221 193.407 97.221 193.56C97.2217 196.359 81.3347 197.808 66.1416 197.808Z" fill="url(#paint16_linear_394_5836)"/>
<path d="M63.2064 193.723C63.5109 193.512 63.8358 193.305 64.1824 193.099C64.5263 192.894 64.9742 192.709 65.5168 192.543C66.0627 192.377 66.7454 192.242 67.5642 192.138C68.3836 192.033 69.4083 191.978 70.6309 191.972C71.8312 191.966 72.9572 192.004 74.0114 192.087C75.0624 192.169 75.9904 192.291 76.7915 192.455C77.5892 192.618 78.241 192.821 78.7435 193.061C79.2426 193.301 79.5399 193.577 79.6359 193.887L83.1335 193.923C83.3874 193.924 83.6116 193.945 83.8043 193.985C83.9997 194.025 84.0944 194.075 84.0944 194.136L84.0957 194.424L79.5991 194.38C79.4413 194.733 79.0394 195.056 78.3936 195.349C77.751 195.641 76.9289 195.894 75.9279 196.109L74.2903 195.881C74.1436 195.859 74.0233 195.831 73.9286 195.796C73.8339 195.762 73.7885 195.724 73.7878 195.683C73.7878 195.628 73.9141 195.565 74.1673 195.494C74.4205 195.423 74.7066 195.335 75.0249 195.229C75.3432 195.125 75.655 195.001 75.9634 194.859C76.2686 194.716 76.4725 194.546 76.579 194.348L65.966 194.242C65.6871 194.448 65.3728 194.649 65.0288 194.847C64.6815 195.045 64.2238 195.224 63.6523 195.382C63.0807 195.541 62.3685 195.669 61.5168 195.768C60.6618 195.867 59.5917 195.919 58.2968 195.925C57.324 195.93 56.377 195.893 55.4497 195.815C54.5223 195.737 53.6982 195.619 52.9787 195.463C52.2592 195.306 51.6693 195.113 51.2063 194.882C50.7466 194.651 50.4881 194.387 50.4348 194.088L47.5555 194.058C47.3016 194.057 47.0773 194.037 46.8754 193.998C46.6768 193.96 46.5755 193.909 46.5755 193.845L46.5742 193.557L50.5111 193.595C50.6854 193.291 51.0419 193.026 51.5871 192.801C52.1323 192.576 52.7985 192.376 53.5851 192.2L54.9038 192.381C55.3043 192.438 55.5029 192.504 55.5036 192.579C55.5036 192.619 55.4227 192.67 55.257 192.73C55.0879 192.791 54.8933 192.863 54.6657 192.947C54.4414 193.031 54.2211 193.13 54.01 193.243C53.7956 193.356 53.6371 193.483 53.5305 193.627L63.2064 193.723ZM53.4937 194.116C53.5726 194.305 53.7489 194.467 54.0166 194.604C54.2842 194.742 54.6164 194.853 55.0169 194.942C55.4174 195.03 55.8666 195.095 56.3645 195.136C56.8656 195.178 57.3898 195.197 57.9363 195.194C58.5743 195.191 59.13 195.163 59.6049 195.112C60.0764 195.06 60.4928 194.989 60.8532 194.901C61.2103 194.812 61.5253 194.709 61.7917 194.591C62.058 194.473 62.2948 194.346 62.5086 194.208L53.4937 194.116ZM76.5981 193.858C76.5192 193.667 76.3265 193.499 76.0266 193.355C75.7267 193.211 75.3419 193.09 74.8763 192.992C74.4107 192.894 73.8667 192.821 73.2452 192.773C72.627 192.725 71.9437 192.703 71.1952 192.707C70.5316 192.71 69.9562 192.74 69.478 192.796C68.9999 192.852 68.5842 192.927 68.2297 193.022C67.8792 193.117 67.5767 193.228 67.3333 193.354C67.0867 193.48 66.8565 193.615 66.6454 193.759L76.5981 193.858Z" fill="#FCB048"/>
<path d="M66.1464 189.904C52.2963 189.904 37.876 191.123 35.5688 193.482C35.659 193.565 35.7431 193.655 35.8207 193.748C37.7648 192.11 49.6728 190.461 66.1458 190.461C83.0423 190.461 95.1403 192.196 96.6063 193.874C96.678 193.782 96.7556 193.694 96.8384 193.611C94.9338 191.168 80.2419 189.904 66.1464 189.904Z" fill="url(#paint17_linear_394_5836)"/>
<path d="M42.5303 186.283V193.173C42.5303 195.399 56.4369 197.204 73.5919 197.204C90.7469 197.204 104.654 195.399 104.654 193.173V186.283H42.5303Z" fill="url(#paint18_linear_394_5836)"/>
<path d="M104.654 186.283C104.654 188.509 90.7473 190.314 73.5924 190.314C56.4374 190.314 42.5308 188.509 42.5308 186.283C42.5308 184.057 56.4374 182.252 73.5924 182.252C90.7473 182.252 104.654 184.057 104.654 186.283Z" fill="url(#paint19_linear_394_5836)"/>
<path d="M73.5923 190.592C58.3992 190.592 42.5122 189.141 42.5122 186.342C42.5122 186.188 42.5668 185.919 42.7207 185.919C42.8746 185.919 42.8082 186.13 42.8082 186.284C42.8082 188.059 55.4508 190.037 73.5916 190.037C91.7325 190.037 104.375 188.059 104.375 186.284C104.375 186.13 104.401 185.986 104.555 185.986C104.709 185.986 104.672 186.191 104.672 186.345C104.672 189.143 88.7854 190.592 73.5923 190.592Z" fill="url(#paint20_linear_394_5836)"/>
<path d="M70.657 186.508C70.9615 186.297 71.2857 186.089 71.633 185.884C71.977 185.679 72.4248 185.493 72.9674 185.328C73.5133 185.162 74.196 185.027 75.0148 184.922C75.8343 184.818 76.8583 184.763 78.0816 184.757C79.2818 184.751 80.4078 184.789 81.462 184.871C82.513 184.953 83.441 185.076 84.2421 185.239C85.0398 185.403 85.6916 185.605 86.194 185.845C86.6932 186.086 86.9905 186.361 87.0865 186.672L90.5841 186.707C90.8379 186.709 91.0622 186.73 91.2549 186.769C91.4502 186.809 91.5449 186.859 91.5449 186.92L91.5463 187.209L87.0497 187.165C86.8918 187.518 86.49 187.841 85.8442 188.133C85.2016 188.426 84.3795 188.679 83.3785 188.894L81.7409 188.666C81.5942 188.644 81.4739 188.615 81.3792 188.58C81.2845 188.546 81.2391 188.509 81.2384 188.468C81.2384 188.413 81.3647 188.35 81.6179 188.279C81.8711 188.208 82.1572 188.119 82.4755 188.014C82.7938 187.91 83.1056 187.786 83.414 187.643C83.7192 187.501 83.9231 187.33 84.0296 187.132L73.4166 187.027C73.1378 187.232 72.8234 187.433 72.4794 187.632C72.1322 187.83 71.6744 188.008 71.1029 188.167C70.5314 188.325 69.8191 188.454 68.9674 188.553C68.1124 188.652 67.0424 188.704 65.7474 188.71C64.7747 188.715 63.8276 188.678 62.9003 188.6C61.973 188.521 61.1489 188.404 60.4294 188.248C59.7099 188.091 59.12 187.898 58.6569 187.667C58.1972 187.436 57.9388 187.172 57.8855 186.872L55.0062 186.843C54.7523 186.842 54.528 186.821 54.3261 186.783C54.1275 186.745 54.0262 186.694 54.0262 186.63L54.0249 186.342L57.9618 186.379C58.1361 186.076 58.4925 185.811 59.0377 185.586C59.583 185.36 60.2492 185.161 61.0358 184.985L62.3544 185.166C62.755 185.222 62.9536 185.288 62.9542 185.363C62.9542 185.404 62.8733 185.455 62.7076 185.515C62.5386 185.576 62.3439 185.648 62.1163 185.731C61.8921 185.816 61.6718 185.914 61.4606 186.027C61.2462 186.14 61.0877 186.268 60.9812 186.411L70.657 186.508ZM60.9444 186.901C61.0233 187.09 61.2002 187.252 61.4672 187.389C61.7342 187.526 62.067 187.638 62.4676 187.727C62.8681 187.815 63.3173 187.879 63.8151 187.921C64.3163 187.962 64.8405 187.981 65.387 187.979C66.0243 187.975 66.5807 187.948 67.0555 187.896C67.5271 187.845 67.9427 187.774 68.3038 187.685C68.6616 187.597 68.9766 187.493 69.2423 187.376C69.5087 187.258 69.7454 187.13 69.9592 186.992L60.9444 186.901ZM84.0487 186.643C83.9698 186.452 83.7771 186.284 83.4772 186.14C83.1773 185.996 82.7925 185.875 82.3269 185.777C81.8612 185.679 81.3173 185.606 80.6958 185.558C80.0776 185.51 79.3943 185.488 78.6458 185.491C77.9822 185.495 77.4061 185.524 76.9286 185.58C76.4505 185.637 76.0348 185.712 75.6804 185.807C75.3292 185.902 75.0273 186.012 74.7839 186.138C74.5373 186.265 74.3071 186.4 74.096 186.544L84.0487 186.643Z" fill="#FCB048"/>
<path d="M73.5967 182.689C59.7465 182.689 45.3262 183.908 43.019 186.267C43.1091 186.35 43.1933 186.439 43.2709 186.532C45.215 184.894 57.123 183.245 73.596 183.245C90.4925 183.245 102.591 184.98 104.057 186.659C104.128 186.567 104.205 186.479 104.289 186.396C102.384 183.952 87.6921 182.689 73.5967 182.689Z" fill="url(#paint21_linear_394_5836)"/>
<path d="M47.0522 179.047V185.937C47.0522 188.163 60.9589 189.968 78.1139 189.968C95.2688 189.968 109.175 188.163 109.175 185.937V179.047H47.0522Z" fill="url(#paint22_linear_394_5836)"/>
<path d="M78.1144 183.078C95.2692 183.078 109.176 181.273 109.176 179.047C109.176 176.821 95.2692 175.016 78.1144 175.016C60.9595 175.016 47.0527 176.821 47.0527 179.047C47.0527 181.273 60.9595 183.078 78.1144 183.078Z" fill="url(#paint23_linear_394_5836)"/>
<path d="M78.1143 183.356C62.9211 183.356 47.0342 181.905 47.0342 179.106C47.0342 178.952 47.0888 178.682 47.2427 178.682C47.3966 178.682 47.3301 178.893 47.3301 179.047C47.3301 180.822 59.9728 182.799 78.1136 182.799C96.2551 182.799 108.897 180.822 108.897 179.047C108.897 178.893 108.923 178.749 109.077 178.749C109.231 178.749 109.194 178.954 109.194 179.108C109.194 181.907 93.3067 183.356 78.1143 183.356Z" fill="url(#paint24_linear_394_5836)"/>
<path d="M75.1793 179.271C75.4838 179.06 75.8087 178.852 76.1553 178.647C76.4993 178.442 76.9471 178.256 77.4897 178.09C78.0356 177.925 78.7183 177.79 79.5371 177.685C80.3565 177.581 81.3812 177.525 82.6038 177.52C83.8041 177.514 84.9301 177.552 85.9843 177.634C87.0353 177.716 87.9633 177.839 88.7643 178.002C89.5621 178.165 90.2139 178.368 90.7163 178.608C91.2155 178.849 91.5128 179.124 91.6088 179.435L95.1064 179.47C95.3602 179.472 95.5845 179.493 95.7772 179.532C95.9725 179.572 96.0672 179.622 96.0672 179.683L96.0685 179.971L91.572 179.928C91.4141 180.281 91.0123 180.603 90.3665 180.896C89.7239 181.189 88.9018 181.442 87.9008 181.657L86.2632 181.43C86.1165 181.407 85.9962 181.379 85.9015 181.344C85.8068 181.31 85.7614 181.272 85.7614 181.232C85.7614 181.176 85.8876 181.113 86.1409 181.042C86.3941 180.971 86.6802 180.883 86.9985 180.778C87.3168 180.673 87.6285 180.55 87.937 180.407C88.2421 180.264 88.446 180.094 88.5526 179.896L77.9396 179.791C77.6607 179.996 77.3463 180.197 77.0024 180.395C76.6551 180.593 76.1974 180.771 75.6259 180.93C75.0543 181.088 74.3421 181.216 73.4904 181.316C72.6354 181.414 71.5653 181.467 70.2704 181.473C69.2976 181.478 68.3506 181.441 67.4233 181.362C66.4959 181.284 65.6719 181.166 64.9523 181.011C64.2328 180.854 63.6429 180.661 63.1799 180.43C62.7202 180.199 62.4617 179.935 62.4084 179.635L59.5291 179.605C59.2752 179.604 59.051 179.583 58.8491 179.545C58.6504 179.507 58.5492 179.456 58.5492 179.392L58.5479 179.104L62.4847 179.141C62.659 178.838 63.0155 178.573 63.5607 178.348C64.1059 178.123 64.7721 177.923 65.5587 177.747L66.8774 177.928C67.2779 177.985 67.4765 178.05 67.4772 178.126C67.4772 178.167 67.3963 178.217 67.2306 178.278C67.0615 178.338 66.8669 178.411 66.6393 178.494C66.415 178.578 66.1947 178.677 65.9836 178.79C65.7692 178.903 65.6107 179.031 65.5041 179.174L75.1793 179.271ZM65.4667 179.664C65.5456 179.852 65.7218 180.015 65.9895 180.152C66.2572 180.289 66.5893 180.401 66.9898 180.49C67.3904 180.578 67.8396 180.642 68.3381 180.684C68.8392 180.725 69.3634 180.744 69.9099 180.742C70.5479 180.738 71.1036 180.711 71.5785 180.659C72.05 180.607 72.4663 180.537 72.8268 180.448C73.1839 180.359 73.4996 180.256 73.7653 180.138C74.0316 180.021 74.2684 179.893 74.4821 179.755L65.4667 179.664ZM88.5703 179.406C88.4914 179.215 88.2987 179.047 87.9988 178.903C87.6989 178.759 87.3142 178.638 86.8485 178.54C86.3829 178.442 85.839 178.369 85.2175 178.321C84.5992 178.273 83.9159 178.252 83.1675 178.255C82.5039 178.258 81.9284 178.288 81.4503 178.344C80.9721 178.4 80.5565 178.475 80.202 178.571C79.8508 178.665 79.5489 178.776 79.3056 178.902C79.0589 179.028 78.8288 179.163 78.6176 179.307L88.5703 179.406Z" fill="#FCB048"/>
<path d="M78.1181 175.452C64.268 175.452 49.8477 176.671 47.5405 179.03C47.6306 179.113 47.7148 179.201 47.7924 179.295C49.7365 177.657 61.6445 176.008 78.1175 176.008C95.014 176.008 107.112 177.743 108.578 179.422C108.65 179.33 108.727 179.241 108.81 179.159C106.906 176.716 92.2142 175.452 78.1181 175.452Z" fill="url(#paint25_linear_394_5836)"/>
<path d="M43.7144 171.239V178.129C43.7144 180.355 57.621 182.16 74.776 182.16C91.9309 182.16 105.838 180.355 105.838 178.129V171.239H43.7144Z" fill="url(#paint26_linear_394_5836)"/>
<path d="M105.839 171.239C105.839 173.465 91.9324 175.27 74.7774 175.27C57.6225 175.27 43.7158 173.465 43.7158 171.239C43.7158 169.012 57.6225 167.208 74.7774 167.208C91.9324 167.208 105.839 169.012 105.839 171.239Z" fill="url(#paint27_linear_394_5836)"/>
<path d="M74.7764 175.548C59.5833 175.548 43.6963 174.097 43.6963 171.298C43.6963 171.144 43.7509 170.874 43.9048 170.874C44.0587 170.874 43.9922 171.085 43.9922 171.239C43.9922 173.014 56.6349 174.991 74.7757 174.991C92.9172 174.991 105.559 173.014 105.559 171.239C105.559 171.085 105.585 170.941 105.739 170.941C105.893 170.941 105.856 171.146 105.856 171.3C105.857 174.099 89.9695 175.548 74.7764 175.548Z" fill="url(#paint28_linear_394_5836)"/>
<path d="M71.8414 171.464C72.1459 171.253 72.4708 171.045 72.8174 170.84C73.1614 170.634 73.6093 170.449 74.1519 170.283C74.6977 170.117 75.3798 169.983 76.1992 169.878C77.0187 169.773 78.0434 169.718 79.266 169.712C80.4663 169.706 81.5922 169.744 82.6465 169.827C83.6975 169.908 84.6254 170.031 85.4265 170.195C86.2243 170.358 86.876 170.561 87.3785 170.801C87.8777 171.041 88.175 171.317 88.271 171.627L91.7685 171.663C92.0224 171.664 92.2467 171.685 92.4394 171.725C92.6347 171.765 92.7294 171.815 92.7294 171.876L92.7307 172.164L88.2341 172.121C88.0763 172.473 87.6745 172.796 87.0286 173.089C86.3861 173.381 85.564 173.635 84.563 173.85L82.9253 173.622C82.7787 173.6 82.6583 173.572 82.5636 173.537C82.4689 173.503 82.4235 173.465 82.4235 173.424C82.4235 173.369 82.5498 173.306 82.803 173.235C83.0562 173.164 83.3423 173.076 83.6606 172.97C83.9789 172.866 84.2907 172.742 84.5991 172.6C84.9043 172.457 85.1082 172.286 85.2147 172.088L74.6017 171.983C74.3229 172.188 74.0085 172.39 73.6645 172.588C73.3173 172.786 72.8595 172.965 72.288 173.123C71.7165 173.282 71.0042 173.41 70.1525 173.509C69.2975 173.608 68.2275 173.66 66.9325 173.666C65.9598 173.671 65.0127 173.634 64.0854 173.556C63.158 173.477 62.334 173.36 61.6145 173.204C60.895 173.047 60.305 172.854 59.842 172.623C59.3823 172.392 59.1238 172.128 59.0706 171.829L56.1912 171.799C55.9374 171.797 55.7131 171.777 55.5112 171.739C55.3126 171.701 55.2113 171.65 55.2113 171.586L55.21 171.298L59.1468 171.335C59.3211 171.032 59.6776 170.767 60.2228 170.542C60.768 170.317 61.4343 170.117 62.2209 169.941L63.5395 170.122C63.94 170.179 64.1387 170.244 64.1393 170.32C64.1393 170.361 64.0584 170.411 63.8927 170.472C63.7237 170.532 63.529 170.605 63.3014 170.688C63.0772 170.772 62.8568 170.871 62.6457 170.984C62.4313 171.097 62.2728 171.225 62.1663 171.368L71.8414 171.464ZM62.1288 171.856C62.2077 172.045 62.384 172.208 62.6516 172.344C62.9193 172.482 63.2514 172.594 63.652 172.682C64.0525 172.771 64.5017 172.835 64.9996 172.876C65.5007 172.918 66.0249 172.937 66.5714 172.934C67.2087 172.931 67.7651 172.903 68.24 172.852C68.7115 172.8 69.1272 172.73 69.4882 172.641C69.846 172.552 70.161 172.449 70.4267 172.331C70.6931 172.213 70.9299 172.086 71.1436 171.948L62.1288 171.856ZM85.2325 171.598C85.1536 171.407 84.9609 171.239 84.661 171.095C84.3611 170.951 83.9763 170.83 83.5107 170.732C83.045 170.634 82.5011 170.561 81.8796 170.513C81.2614 170.465 80.5781 170.444 79.8296 170.447C79.166 170.45 78.5906 170.48 78.1124 170.536C77.6343 170.592 77.2186 170.667 76.8641 170.763C76.5129 170.857 76.2111 170.968 75.9677 171.094C75.7211 171.22 75.4909 171.355 75.2798 171.499L85.2325 171.598Z" fill="#FCB048"/>
<path d="M74.7807 167.644C60.9306 167.644 46.5103 168.863 44.2031 171.222C44.2932 171.306 44.3774 171.395 44.455 171.488C46.3991 169.85 58.3071 168.201 74.7801 168.201C91.6766 168.201 103.775 169.936 105.241 171.614C105.313 171.522 105.39 171.434 105.473 171.351C103.568 168.908 88.8768 167.644 74.7807 167.644Z" fill="url(#paint29_linear_394_5836)"/>
<path d="M35.0796 164.002V170.892C35.0796 173.118 48.9863 174.923 66.1413 174.923C83.2962 174.923 97.2029 173.118 97.2029 170.892V164.002H35.0796Z" fill="url(#paint30_linear_394_5836)"/>
<path d="M66.1417 168.033C83.2966 168.033 97.2034 166.228 97.2034 164.002C97.2034 161.776 83.2966 159.971 66.1417 159.971C48.9869 159.971 35.0801 161.776 35.0801 164.002C35.0801 166.228 48.9869 168.033 66.1417 168.033Z" fill="url(#paint31_linear_394_5836)"/>
<path d="M66.1416 168.311C50.9485 168.311 35.0615 166.861 35.0615 164.061C35.0615 163.908 35.1161 163.637 35.27 163.637C35.4239 163.637 35.3575 163.848 35.3575 164.002C35.3575 165.777 48.0001 167.755 66.1409 167.755C84.2818 167.755 96.9244 165.777 96.9244 164.002C96.9244 163.848 96.9507 163.704 97.1046 163.704C97.2585 163.704 97.221 163.909 97.221 164.063C97.2217 166.862 81.3347 168.311 66.1416 168.311Z" fill="url(#paint32_linear_394_5836)"/>
<path d="M63.2064 164.227C63.5109 164.016 63.8358 163.808 64.1824 163.602C64.5263 163.397 64.9742 163.212 65.5168 163.046C66.0627 162.88 66.7454 162.745 67.5642 162.641C68.3836 162.536 69.4083 162.481 70.6309 162.475C71.8312 162.469 72.9572 162.507 74.0114 162.59C75.0624 162.671 75.9904 162.794 76.7915 162.958C77.5892 163.121 78.241 163.324 78.7435 163.564C79.2426 163.804 79.5399 164.08 79.6359 164.39L83.1335 164.426C83.3874 164.427 83.6116 164.448 83.8043 164.488C83.9997 164.528 84.0944 164.578 84.0944 164.639L84.0957 164.927L79.5991 164.884C79.4413 165.236 79.0394 165.559 78.3936 165.852C77.751 166.144 76.9289 166.398 75.9279 166.613L74.2903 166.385C74.1436 166.363 74.0233 166.334 73.9286 166.3C73.8339 166.265 73.7885 166.228 73.7878 166.187C73.7878 166.132 73.9141 166.069 74.1673 165.998C74.4205 165.927 74.7066 165.839 75.0249 165.733C75.3432 165.629 75.655 165.505 75.9634 165.362C76.2686 165.22 76.4725 165.049 76.579 164.851L65.966 164.746C65.6871 164.951 65.3728 165.153 65.0288 165.351C64.6815 165.549 64.2238 165.727 63.6523 165.886C63.0807 166.044 62.3685 166.173 61.5168 166.272C60.6618 166.371 59.5917 166.423 58.2968 166.429C57.324 166.434 56.377 166.397 55.4497 166.319C54.5223 166.24 53.6982 166.123 52.9787 165.967C52.2592 165.81 51.6693 165.617 51.2063 165.387C50.7466 165.156 50.4881 164.891 50.4348 164.592L47.5555 164.562C47.3016 164.561 47.0773 164.54 46.8754 164.502C46.6768 164.464 46.5755 164.413 46.5755 164.349L46.5742 164.061L50.5111 164.098C50.6854 163.795 51.0419 163.531 51.5871 163.305C52.1323 163.08 52.7985 162.88 53.5851 162.704L54.9038 162.885C55.3043 162.941 55.5029 163.007 55.5036 163.083C55.5036 163.124 55.4227 163.174 55.257 163.235C55.0879 163.295 54.8933 163.368 54.6657 163.452C54.4414 163.536 54.2211 163.635 54.01 163.748C53.7956 163.861 53.6371 163.988 53.5305 164.132L63.2064 164.227ZM53.4937 164.619C53.5726 164.808 53.7489 164.97 54.0166 165.107C54.2842 165.245 54.6164 165.356 55.0169 165.445C55.4174 165.533 55.8666 165.598 56.3645 165.639C56.8656 165.681 57.3898 165.7 57.9363 165.697C58.5743 165.694 59.13 165.666 59.6049 165.615C60.0764 165.563 60.4928 165.493 60.8532 165.404C61.2103 165.315 61.5253 165.212 61.7917 165.094C62.058 164.976 62.2948 164.849 62.5086 164.711L53.4937 164.619ZM76.5981 164.362C76.5192 164.171 76.3265 164.003 76.0266 163.859C75.7267 163.715 75.3419 163.594 74.8763 163.496C74.4107 163.398 73.8667 163.325 73.2452 163.277C72.627 163.229 71.9437 163.207 71.1952 163.21C70.5316 163.214 69.9562 163.243 69.478 163.299C68.9999 163.356 68.5842 163.431 68.2297 163.526C67.8792 163.621 67.5767 163.731 67.3333 163.858C67.0867 163.984 66.8565 164.119 66.6454 164.263L76.5981 164.362Z" fill="#FCB048"/>
<path d="M66.1464 160.407C52.2963 160.407 37.876 161.626 35.5688 163.985C35.659 164.069 35.7431 164.157 35.8207 164.251C37.7648 162.613 49.6728 160.964 66.1458 160.964C83.0423 160.964 95.1403 162.699 96.6063 164.377C96.678 164.285 96.7556 164.197 96.8384 164.114C94.9338 161.671 80.2419 160.407 66.1464 160.407Z" fill="url(#paint33_linear_394_5836)"/>
<path d="M42.5303 156.787V163.677C42.5303 165.903 56.4369 167.708 73.5919 167.708C90.7469 167.708 104.654 165.903 104.654 163.677V156.787H42.5303Z" fill="url(#paint34_linear_394_5836)"/>
<path d="M73.5924 160.818C90.7473 160.818 104.654 159.013 104.654 156.787C104.654 154.561 90.7473 152.756 73.5924 152.756C56.4375 152.756 42.5308 154.561 42.5308 156.787C42.5308 159.013 56.4375 160.818 73.5924 160.818Z" fill="url(#paint35_linear_394_5836)"/>
<path d="M73.5923 161.096C58.3992 161.096 42.5122 159.645 42.5122 156.846C42.5122 156.692 42.5668 156.422 42.7207 156.422C42.8746 156.422 42.8082 156.634 42.8082 156.788C42.8082 158.563 55.4508 160.54 73.5916 160.54C91.7325 160.54 104.375 158.563 104.375 156.788C104.375 156.634 104.401 156.49 104.555 156.49C104.709 156.49 104.672 156.695 104.672 156.849C104.672 159.647 88.7854 161.096 73.5923 161.096Z" fill="url(#paint36_linear_394_5836)"/>
<path d="M70.657 157.011C70.9615 156.8 71.2857 156.592 71.633 156.386C71.977 156.181 72.4248 155.996 72.9674 155.83C73.5133 155.664 74.196 155.529 75.0148 155.425C75.8343 155.32 76.8583 155.265 78.0816 155.259C79.2818 155.253 80.4078 155.291 81.462 155.373C82.513 155.455 83.441 155.578 84.2421 155.742C85.0398 155.905 85.6916 156.107 86.194 156.347C86.6932 156.588 86.9905 156.864 87.0865 157.174L90.5841 157.21C90.8379 157.211 91.0622 157.232 91.2549 157.272C91.4502 157.312 91.5449 157.362 91.5449 157.423L91.5463 157.711L87.0497 157.667C86.8918 158.02 86.49 158.343 85.8442 158.636C85.2016 158.928 84.3795 159.182 83.3785 159.397L81.7409 159.169C81.5942 159.147 81.4739 159.118 81.3792 159.083C81.2845 159.049 81.2391 159.012 81.2384 158.971C81.2384 158.916 81.3647 158.853 81.6179 158.782C81.8711 158.711 82.1572 158.622 82.4755 158.517C82.7938 158.413 83.1056 158.289 83.414 158.146C83.7192 158.004 83.9231 157.833 84.0296 157.635L73.4166 157.53C73.1378 157.735 72.8234 157.936 72.4794 158.134C72.1322 158.332 71.6744 158.511 71.1029 158.669C70.5314 158.828 69.8191 158.956 68.9674 159.055C68.1124 159.154 67.0424 159.206 65.7474 159.213C64.7747 159.218 63.8276 159.181 62.9003 159.103C61.973 159.024 61.1489 158.907 60.4294 158.75C59.7099 158.593 59.12 158.4 58.6569 158.17C58.1972 157.939 57.9388 157.675 57.8855 157.375L55.0062 157.345C54.7523 157.344 54.528 157.323 54.3261 157.285C54.1275 157.247 54.0262 157.196 54.0262 157.132L54.0249 156.844L57.9618 156.882C58.1361 156.578 58.4925 156.314 59.0377 156.088C59.583 155.863 60.2492 155.663 61.0358 155.487L62.3544 155.668C62.755 155.725 62.9536 155.79 62.9542 155.866C62.9542 155.907 62.8733 155.957 62.7076 156.018C62.5386 156.078 62.3439 156.151 62.1163 156.235C61.8921 156.319 61.6718 156.418 61.4606 156.531C61.2462 156.644 61.0877 156.772 60.9812 156.915L70.657 157.011ZM60.9444 157.404C61.0233 157.592 61.2002 157.755 61.4672 157.892C61.7342 158.029 62.067 158.141 62.4676 158.23C62.8681 158.318 63.3173 158.382 63.8151 158.424C64.3163 158.465 64.8405 158.484 65.387 158.482C66.0243 158.478 66.5807 158.451 67.0555 158.399C67.5271 158.347 67.9427 158.277 68.3038 158.188C68.6616 158.1 68.9766 157.996 69.2423 157.879C69.5087 157.761 69.7454 157.633 69.9592 157.495L60.9444 157.404ZM84.0487 157.147C83.9698 156.955 83.7771 156.787 83.4772 156.643C83.1773 156.499 82.7925 156.378 82.3269 156.28C81.8612 156.182 81.3173 156.109 80.6958 156.061C80.0776 156.014 79.3943 155.992 78.6458 155.995C77.9822 155.998 77.4061 156.028 76.9286 156.084C76.4505 156.14 76.0348 156.215 75.6804 156.311C75.3292 156.405 75.0273 156.516 74.7839 156.642C74.5373 156.768 74.3071 156.903 74.096 157.047L84.0487 157.147Z" fill="#FCB048"/>
<path d="M73.5967 153.192C59.7465 153.192 45.3262 154.411 43.019 156.77C43.1091 156.853 43.1933 156.942 43.2709 157.035C45.215 155.397 57.123 153.748 73.596 153.748C90.4925 153.748 102.591 155.483 104.057 157.162C104.128 157.07 104.205 156.981 104.289 156.899C102.384 154.456 87.6921 153.192 73.5967 153.192Z" fill="url(#paint37_linear_394_5836)"/>
<path d="M38.6543 149.55V156.44C38.6543 158.666 52.561 160.471 69.716 160.471C86.8709 160.471 100.778 158.666 100.778 156.44V149.55H38.6543Z" fill="url(#paint38_linear_394_5836)"/>
<path d="M69.7174 153.581C86.8723 153.581 100.779 151.777 100.779 149.55C100.779 147.324 86.8723 145.519 69.7174 145.519C52.5625 145.519 38.6558 147.324 38.6558 149.55C38.6558 151.777 52.5625 153.581 69.7174 153.581Z" fill="url(#paint39_linear_394_5836)"/>
<path d="M69.7163 153.859C54.5232 153.859 38.6362 152.408 38.6362 149.609C38.6362 149.455 38.6908 149.185 38.8447 149.185C38.9986 149.185 38.9322 149.396 38.9322 149.55C38.9322 151.325 51.5748 153.303 69.7157 153.303C87.8571 153.303 100.499 151.325 100.499 149.55C100.499 149.396 100.525 149.252 100.679 149.252C100.833 149.252 100.796 149.458 100.796 149.611C100.797 152.41 84.9094 153.859 69.7163 153.859Z" fill="url(#paint40_linear_394_5836)"/>
<path d="M66.781 149.775C67.0855 149.564 67.4104 149.356 67.757 149.15C68.101 148.945 68.5489 148.759 69.0915 148.593C69.6374 148.428 70.32 148.293 71.1388 148.188C71.9583 148.084 72.983 148.028 74.2056 148.023C75.4059 148.017 76.5318 148.055 77.5861 148.137C78.6371 148.219 79.5651 148.342 80.3661 148.505C81.1639 148.668 81.8157 148.871 82.3181 149.111C82.8173 149.352 83.1146 149.627 83.2106 149.938L86.7081 149.973C86.962 149.975 87.1863 149.996 87.379 150.035C87.5743 150.075 87.669 150.125 87.669 150.186L87.6703 150.474L83.1738 150.431C83.0159 150.784 82.6141 151.106 81.9682 151.399C81.3257 151.692 80.5036 151.946 79.5026 152.16L77.865 151.933C77.7183 151.91 77.5979 151.882 77.5032 151.847C77.4085 151.813 77.3631 151.775 77.3625 151.735C77.3625 151.679 77.4888 151.616 77.742 151.545C77.9952 151.474 78.2813 151.386 78.5996 151.281C78.9179 151.176 79.2296 151.053 79.5381 150.91C79.8433 150.767 80.0471 150.597 80.1537 150.399L69.5407 150.294C69.2618 150.499 68.9474 150.7 68.6035 150.899C68.2562 151.097 67.7985 151.275 67.2269 151.433C66.6554 151.592 65.9432 151.72 65.0915 151.819C64.2365 151.918 63.1664 151.971 61.8714 151.977C60.8987 151.981 59.9517 151.944 59.0243 151.866C58.097 151.788 57.2729 151.67 56.5534 151.514C55.8339 151.357 55.244 151.164 54.781 150.933C54.3213 150.702 54.0628 150.438 54.0095 150.138L51.1302 150.109C50.8763 150.107 50.652 150.087 50.4501 150.049C50.2515 150.011 50.1502 149.959 50.1502 149.896L50.1489 149.608L54.0858 149.645C54.2601 149.342 54.6166 149.078 55.1618 148.853C55.707 148.627 56.3732 148.427 57.1598 148.251L58.4785 148.432C58.879 148.489 59.0776 148.555 59.0783 148.63C59.0783 148.671 58.9974 148.722 58.8316 148.782C58.6626 148.843 58.4679 148.915 58.2404 148.999C58.0161 149.083 57.7958 149.181 57.5847 149.295C57.3703 149.408 57.2118 149.535 57.1052 149.679L66.781 149.775ZM57.0684 150.167C57.1473 150.356 57.3242 150.518 57.5913 150.655C57.8589 150.793 58.1911 150.905 58.5916 150.993C58.9921 151.081 59.4413 151.146 59.9392 151.187C60.4403 151.229 60.9645 151.248 61.511 151.245C62.149 151.242 62.7047 151.214 63.1796 151.163C63.6511 151.111 64.0674 151.041 64.4279 150.952C64.785 150.863 65.1 150.76 65.3664 150.642C65.6327 150.524 65.8695 150.397 66.0832 150.259L57.0684 150.167ZM80.1721 149.909C80.0932 149.718 79.9005 149.55 79.6006 149.406C79.3007 149.262 78.9159 149.141 78.4503 149.043C77.9847 148.945 77.4408 148.872 76.8192 148.824C76.201 148.776 75.5177 148.755 74.7692 148.758C74.1056 148.761 73.5302 148.791 73.052 148.847C72.5739 148.903 72.1583 148.978 71.8038 149.074C71.4526 149.168 71.1507 149.279 70.9073 149.405C70.6607 149.531 70.4305 149.666 70.2194 149.81L80.1721 149.909Z" fill="#FCB048"/>
<path d="M69.7212 145.955C55.8711 145.955 41.4507 147.174 39.1436 149.533C39.2337 149.617 39.3178 149.706 39.3954 149.799C41.3396 148.161 53.2476 146.512 69.7205 146.512C86.6171 146.512 98.7151 148.247 100.181 149.925C100.253 149.833 100.33 149.745 100.413 149.662C98.5086 147.22 83.8173 145.955 69.7212 145.955Z" fill="url(#paint41_linear_394_5836)"/>
<path d="M109.615 154.407L104.001 158.401C102.187 159.691 108.777 172.07 118.72 186.049C128.664 200.028 138.195 210.315 140.009 209.025L145.623 205.031L109.615 154.407Z" fill="url(#paint42_linear_394_5836)"/>
<path d="M145.623 205.03C143.809 206.321 134.277 196.035 124.334 182.055C114.39 168.076 107.8 155.697 109.614 154.407C111.428 153.116 120.96 163.402 130.904 177.382C140.847 191.361 147.437 203.74 145.623 205.03Z" fill="url(#paint43_linear_394_5836)"/>
<path d="M124.107 182.216C115.301 169.836 107.275 156.049 109.556 154.426C109.681 154.338 109.933 154.225 110.022 154.351C110.111 154.476 109.9 154.545 109.775 154.634C108.329 155.662 114.045 167.111 124.561 181.894C135.076 196.676 144.016 205.833 145.462 204.803C145.587 204.715 145.72 204.652 145.808 204.778C145.897 204.903 145.709 204.992 145.584 205.081C143.303 206.703 132.913 194.596 124.107 182.216Z" fill="url(#paint44_linear_394_5836)"/>
<path d="M125.734 177.457C126.083 177.583 126.44 177.727 126.809 177.89C127.175 178.052 127.586 178.309 128.035 178.655C128.486 179.004 128.992 179.482 129.552 180.089C130.112 180.696 130.751 181.499 131.464 182.492C132.165 183.467 132.786 184.407 133.331 185.314C133.873 186.218 134.311 187.045 134.642 187.792C134.972 188.538 135.185 189.185 135.28 189.734C135.373 190.28 135.321 190.682 135.124 190.94L137.122 193.811C137.268 194.019 137.382 194.213 137.46 194.393C137.541 194.575 137.555 194.682 137.505 194.717L137.271 194.886L134.7 191.197C134.321 191.272 133.825 191.132 133.213 190.775C132.602 190.421 131.919 189.898 131.164 189.207L130.4 187.74C130.334 187.608 130.287 187.493 130.26 187.396C130.233 187.299 130.237 187.24 130.271 187.216C130.315 187.184 130.44 187.251 130.645 187.416C130.85 187.581 131.088 187.764 131.357 187.962C131.627 188.161 131.908 188.344 132.204 188.512C132.496 188.678 132.753 188.745 132.977 188.717L126.912 180.008C126.583 179.899 126.236 179.76 125.876 179.594C125.514 179.426 125.103 179.156 124.642 178.783C124.182 178.409 123.664 177.903 123.09 177.266C122.514 176.626 121.851 175.785 121.095 174.734C120.528 173.944 120.009 173.151 119.535 172.349C119.061 171.548 118.679 170.809 118.39 170.132C118.1 169.454 117.916 168.862 117.835 168.351C117.757 167.842 117.823 167.479 118.036 167.261L116.391 164.897C116.245 164.689 116.131 164.495 116.046 164.308C115.962 164.124 115.945 164.012 115.996 163.975L116.231 163.806L118.482 167.036C118.83 167.002 119.252 167.139 119.752 167.454C120.252 167.767 120.801 168.194 121.399 168.734L122.016 169.913C122.202 170.272 122.264 170.472 122.202 170.516C122.169 170.54 122.081 170.503 121.936 170.403C121.789 170.3 121.617 170.183 121.417 170.047C121.218 169.913 121.011 169.79 120.796 169.684C120.58 169.575 120.384 169.519 120.205 169.515L125.734 177.457ZM119.785 169.77C119.677 169.944 119.647 170.182 119.69 170.479C119.733 170.776 119.834 171.112 119.994 171.49C120.155 171.867 120.363 172.271 120.618 172.701C120.875 173.133 121.162 173.571 121.481 174.015C121.854 174.532 122.198 174.97 122.516 175.327C122.832 175.681 123.13 175.979 123.412 176.221C123.691 176.461 123.958 176.658 124.208 176.807C124.459 176.955 124.7 177.074 124.936 177.169L119.785 169.77ZM133.386 188.448C133.496 188.272 133.521 188.018 133.465 187.69C133.409 187.362 133.284 186.978 133.094 186.542C132.904 186.106 132.649 185.62 132.327 185.086C132.008 184.555 131.63 183.985 131.193 183.377C130.805 182.839 130.448 182.387 130.125 182.03C129.802 181.673 129.499 181.377 129.216 181.144C128.936 180.913 128.671 180.731 128.427 180.606C128.181 180.478 127.937 180.369 127.698 180.28L133.386 188.448Z" fill="#FCB048"/>
<path d="M130.551 177.639C122.523 166.353 113.171 155.308 109.911 154.795C109.896 154.917 109.872 155.037 109.841 155.154C112.303 155.789 120.549 164.537 130.097 177.961C139.89 191.729 145.489 202.594 144.971 204.761C145.087 204.766 145.204 204.778 145.32 204.798C146.207 201.829 138.721 189.125 130.551 177.639Z" fill="url(#paint45_linear_394_5836)"/>
<defs>
<linearGradient id="paint0_linear_394_5836" x1="135.44" y1="100.744" x2="283.526" y2="169.222" gradientUnits="userSpaceOnUse">
<stop offset="0.00359712" stop-color="#E38DDD"/>
<stop offset="1" stop-color="#9571F6"/>
</linearGradient>
<linearGradient id="paint1_linear_394_5836" x1="72.0834" y1="152.242" x2="210.866" y2="66.4637" gradientUnits="userSpaceOnUse">
<stop offset="0.00359712" stop-color="#E38DDD"/>
<stop offset="1" stop-color="#9571F6"/>
</linearGradient>
<linearGradient id="paint2_linear_394_5836" x1="52.2043" y1="138.071" x2="176.354" y2="138.071" gradientUnits="userSpaceOnUse">
<stop offset="0.00359712" stop-color="#6165D7"/>
<stop offset="1" stop-color="#AA80F9"/>
</linearGradient>
<linearGradient id="paint3_linear_394_5836" x1="52.2043" y1="139.874" x2="123.799" y2="139.874" gradientUnits="userSpaceOnUse">
<stop offset="0.00359712" stop-color="#6165D7"/>
<stop offset="1" stop-color="#AA80F9"/>
</linearGradient>
<linearGradient id="paint4_linear_394_5836" x1="109.073" y1="49.6423" x2="95.6535" y2="98.6529" gradientUnits="userSpaceOnUse">
<stop offset="0.00359712" stop-color="#6165D7"/>
<stop offset="1" stop-color="#AA80F9"/>
</linearGradient>
<linearGradient id="paint5_linear_394_5836" x1="109.073" y1="54.6644" x2="95.6534" y2="103.675" gradientUnits="userSpaceOnUse">
<stop offset="0.00359712" stop-color="#6165D7"/>
<stop offset="1" stop-color="#AA80F9"/>
</linearGradient>
<linearGradient id="paint6_linear_394_5836" x1="80.6732" y1="63.0466" x2="140.126" y2="63.0466" gradientUnits="userSpaceOnUse">
<stop offset="0.00359712" stop-color="#6165D7"/>
<stop offset="1" stop-color="#AA80F9"/>
</linearGradient>
<linearGradient id="paint7_linear_394_5836" x1="90.2084" y1="79.3142" x2="128.256" y2="79.3142" gradientUnits="userSpaceOnUse">
<stop stop-color="#444B8C"/>
<stop offset="0.9964" stop-color="#26264F"/>
</linearGradient>
<linearGradient id="paint8_linear_394_5836" x1="80.6747" y1="66.0473" x2="133.714" y2="66.0473" gradientUnits="userSpaceOnUse">
<stop offset="0.00359712" stop-color="#6165D7"/>
<stop offset="1" stop-color="#AA80F9"/>
</linearGradient>
<linearGradient id="paint9_linear_394_5836" x1="109.219" y1="105.828" x2="128.136" y2="176.726" gradientUnits="userSpaceOnUse">
<stop offset="0.00359712" stop-color="#EBEFF2"/>
<stop offset="1" stop-color="white"/>
</linearGradient>
<linearGradient id="paint10_linear_394_5836" x1="38.4039" y1="206.196" x2="109.873" y2="206.196" gradientUnits="userSpaceOnUse">
<stop stop-color="#FCB148"/>
<stop offset="0.0521" stop-color="#FDBA46"/>
<stop offset="0.1424" stop-color="#FFC244"/>
<stop offset="0.3183" stop-color="#FFC444"/>
<stop offset="0.4849" stop-color="#FDB946"/>
<stop offset="0.7754" stop-color="#F99C4D"/>
<stop offset="0.8658" stop-color="#F8924F"/>
<stop offset="1" stop-color="#F8924F"/>
</linearGradient>
<linearGradient id="paint11_linear_394_5836" x1="74.4678" y1="198.145" x2="78.2356" y2="229.687" gradientUnits="userSpaceOnUse">
<stop stop-color="#FFDB44"/>
<stop offset="1" stop-color="#FEEF06"/>
</linearGradient>
<linearGradient id="paint12_linear_394_5836" x1="74.3036" y1="196.739" x2="75.4607" y2="206.426" gradientUnits="userSpaceOnUse">
<stop stop-color="#FFDB44"/>
<stop offset="1" stop-color="#FEEF06"/>
</linearGradient>
<linearGradient id="paint13_linear_394_5836" x1="75.3911" y1="205.41" x2="74.2381" y2="195.757" gradientUnits="userSpaceOnUse">
<stop offset="0.00359712" stop-color="#F36F56"/>
<stop offset="0.3059" stop-color="#F99C4C"/>
<stop offset="0.545" stop-color="#FDB946"/>
<stop offset="0.6817" stop-color="#FFC444"/>
<stop offset="0.8038" stop-color="#FFC244"/>
<stop offset="0.8667" stop-color="#FEBA46"/>
<stop offset="0.916" stop-color="#FCAD49"/>
<stop offset="0.958" stop-color="#F99A4D"/>
<stop offset="0.9955" stop-color="#F58152"/>
<stop offset="1" stop-color="#F57E53"/>
</linearGradient>
<linearGradient id="paint14_linear_394_5836" x1="29.7688" y1="198.959" x2="101.238" y2="198.959" gradientUnits="userSpaceOnUse">
<stop stop-color="#FCB148"/>
<stop offset="0.0521" stop-color="#FDBA46"/>
<stop offset="0.1424" stop-color="#FFC244"/>
<stop offset="0.3183" stop-color="#FFC444"/>
<stop offset="0.4849" stop-color="#FDB946"/>
<stop offset="0.7754" stop-color="#F99C4D"/>
<stop offset="0.8658" stop-color="#F8924F"/>
<stop offset="1" stop-color="#F8924F"/>
</linearGradient>
<linearGradient id="paint15_linear_394_5836" x1="65.8325" y1="190.908" x2="69.6002" y2="222.45" gradientUnits="userSpaceOnUse">
<stop stop-color="#FFDB44"/>
<stop offset="1" stop-color="#FEEF06"/>
</linearGradient>
<linearGradient id="paint16_linear_394_5836" x1="65.6685" y1="189.502" x2="66.8256" y2="199.189" gradientUnits="userSpaceOnUse">
<stop stop-color="#FFDB44"/>
<stop offset="1" stop-color="#FEEF06"/>
</linearGradient>
<linearGradient id="paint17_linear_394_5836" x1="66.7565" y1="198.173" x2="65.6034" y2="188.521" gradientUnits="userSpaceOnUse">
<stop offset="0.00359712" stop-color="#F36F56"/>
<stop offset="0.3059" stop-color="#F99C4C"/>
<stop offset="0.545" stop-color="#FDB946"/>
<stop offset="0.6817" stop-color="#FFC444"/>
<stop offset="0.8038" stop-color="#FFC244"/>
<stop offset="0.8667" stop-color="#FEBA46"/>
<stop offset="0.916" stop-color="#FCAD49"/>
<stop offset="0.958" stop-color="#F99A4D"/>
<stop offset="0.9955" stop-color="#F58152"/>
<stop offset="1" stop-color="#F57E53"/>
</linearGradient>
<linearGradient id="paint18_linear_394_5836" x1="37.2194" y1="191.744" x2="108.689" y2="191.744" gradientUnits="userSpaceOnUse">
<stop stop-color="#FCB148"/>
<stop offset="0.0521" stop-color="#FDBA46"/>
<stop offset="0.1424" stop-color="#FFC244"/>
<stop offset="0.3183" stop-color="#FFC444"/>
<stop offset="0.4849" stop-color="#FDB946"/>
<stop offset="0.7754" stop-color="#F99C4D"/>
<stop offset="0.8658" stop-color="#F8924F"/>
<stop offset="1" stop-color="#F8924F"/>
</linearGradient>
<linearGradient id="paint19_linear_394_5836" x1="73.2831" y1="183.693" x2="77.0508" y2="215.235" gradientUnits="userSpaceOnUse">
<stop stop-color="#FFDB44"/>
<stop offset="1" stop-color="#FEEF06"/>
</linearGradient>
<linearGradient id="paint20_linear_394_5836" x1="73.1192" y1="182.286" x2="74.2763" y2="191.973" gradientUnits="userSpaceOnUse">
<stop stop-color="#FFDB44"/>
<stop offset="1" stop-color="#FEEF06"/>
</linearGradient>
<linearGradient id="paint21_linear_394_5836" x1="74.2067" y1="190.958" x2="73.0536" y2="181.305" gradientUnits="userSpaceOnUse">
<stop offset="0.00359712" stop-color="#F36F56"/>
<stop offset="0.3059" stop-color="#F99C4C"/>
<stop offset="0.545" stop-color="#FDB946"/>
<stop offset="0.6817" stop-color="#FFC444"/>
<stop offset="0.8038" stop-color="#FFC244"/>
<stop offset="0.8667" stop-color="#FEBA46"/>
<stop offset="0.916" stop-color="#FCAD49"/>
<stop offset="0.958" stop-color="#F99A4D"/>
<stop offset="0.9955" stop-color="#F58152"/>
<stop offset="1" stop-color="#F57E53"/>
</linearGradient>
<linearGradient id="paint22_linear_394_5836" x1="41.7413" y1="184.507" x2="113.211" y2="184.507" gradientUnits="userSpaceOnUse">
<stop stop-color="#FCB148"/>
<stop offset="0.0521" stop-color="#FDBA46"/>
<stop offset="0.1424" stop-color="#FFC244"/>
<stop offset="0.3183" stop-color="#FFC444"/>
<stop offset="0.4849" stop-color="#FDB946"/>
<stop offset="0.7754" stop-color="#F99C4D"/>
<stop offset="0.8658" stop-color="#F8924F"/>
<stop offset="1" stop-color="#F8924F"/>
</linearGradient>
<linearGradient id="paint23_linear_394_5836" x1="77.8049" y1="176.456" x2="81.5727" y2="207.998" gradientUnits="userSpaceOnUse">
<stop stop-color="#FFDB44"/>
<stop offset="1" stop-color="#FEEF06"/>
</linearGradient>
<linearGradient id="paint24_linear_394_5836" x1="77.6409" y1="175.05" x2="78.7981" y2="184.737" gradientUnits="userSpaceOnUse">
<stop stop-color="#FFDB44"/>
<stop offset="1" stop-color="#FEEF06"/>
</linearGradient>
<linearGradient id="paint25_linear_394_5836" x1="78.7286" y1="183.721" x2="77.5755" y2="174.068" gradientUnits="userSpaceOnUse">
<stop offset="0.00359712" stop-color="#F36F56"/>
<stop offset="0.3059" stop-color="#F99C4C"/>
<stop offset="0.545" stop-color="#FDB946"/>
<stop offset="0.6817" stop-color="#FFC444"/>
<stop offset="0.8038" stop-color="#FFC244"/>
<stop offset="0.8667" stop-color="#FEBA46"/>
<stop offset="0.916" stop-color="#FCAD49"/>
<stop offset="0.958" stop-color="#F99A4D"/>
<stop offset="0.9955" stop-color="#F58152"/>
<stop offset="1" stop-color="#F57E53"/>
</linearGradient>
<linearGradient id="paint26_linear_394_5836" x1="38.4039" y1="176.699" x2="109.873" y2="176.699" gradientUnits="userSpaceOnUse">
<stop stop-color="#FCB148"/>
<stop offset="0.0521" stop-color="#FDBA46"/>
<stop offset="0.1424" stop-color="#FFC244"/>
<stop offset="0.3183" stop-color="#FFC444"/>
<stop offset="0.4849" stop-color="#FDB946"/>
<stop offset="0.7754" stop-color="#F99C4D"/>
<stop offset="0.8658" stop-color="#F8924F"/>
<stop offset="1" stop-color="#F8924F"/>
</linearGradient>
<linearGradient id="paint27_linear_394_5836" x1="74.4678" y1="168.649" x2="78.2356" y2="200.191" gradientUnits="userSpaceOnUse">
<stop stop-color="#FFDB44"/>
<stop offset="1" stop-color="#FEEF06"/>
</linearGradient>
<linearGradient id="paint28_linear_394_5836" x1="74.3036" y1="167.242" x2="75.4607" y2="176.929" gradientUnits="userSpaceOnUse">
<stop stop-color="#FFDB44"/>
<stop offset="1" stop-color="#FEEF06"/>
</linearGradient>
<linearGradient id="paint29_linear_394_5836" x1="75.3911" y1="175.913" x2="74.2381" y2="166.261" gradientUnits="userSpaceOnUse">
<stop offset="0.00359712" stop-color="#F36F56"/>
<stop offset="0.3059" stop-color="#F99C4C"/>
<stop offset="0.545" stop-color="#FDB946"/>
<stop offset="0.6817" stop-color="#FFC444"/>
<stop offset="0.8038" stop-color="#FFC244"/>
<stop offset="0.8667" stop-color="#FEBA46"/>
<stop offset="0.916" stop-color="#FCAD49"/>
<stop offset="0.958" stop-color="#F99A4D"/>
<stop offset="0.9955" stop-color="#F58152"/>
<stop offset="1" stop-color="#F57E53"/>
</linearGradient>
<linearGradient id="paint30_linear_394_5836" x1="29.7688" y1="169.463" x2="101.238" y2="169.463" gradientUnits="userSpaceOnUse">
<stop stop-color="#FCB148"/>
<stop offset="0.0521" stop-color="#FDBA46"/>
<stop offset="0.1424" stop-color="#FFC244"/>
<stop offset="0.3183" stop-color="#FFC444"/>
<stop offset="0.4849" stop-color="#FDB946"/>
<stop offset="0.7754" stop-color="#F99C4D"/>
<stop offset="0.8658" stop-color="#F8924F"/>
<stop offset="1" stop-color="#F8924F"/>
</linearGradient>
<linearGradient id="paint31_linear_394_5836" x1="65.8325" y1="161.412" x2="69.6003" y2="192.954" gradientUnits="userSpaceOnUse">
<stop stop-color="#FFDB44"/>
<stop offset="1" stop-color="#FEEF06"/>
</linearGradient>
<linearGradient id="paint32_linear_394_5836" x1="65.6685" y1="160.005" x2="66.8257" y2="169.692" gradientUnits="userSpaceOnUse">
<stop stop-color="#FFDB44"/>
<stop offset="1" stop-color="#FEEF06"/>
</linearGradient>
<linearGradient id="paint33_linear_394_5836" x1="66.7565" y1="168.677" x2="65.6034" y2="159.024" gradientUnits="userSpaceOnUse">
<stop offset="0.00359712" stop-color="#F36F56"/>
<stop offset="0.3059" stop-color="#F99C4C"/>
<stop offset="0.545" stop-color="#FDB946"/>
<stop offset="0.6817" stop-color="#FFC444"/>
<stop offset="0.8038" stop-color="#FFC244"/>
<stop offset="0.8667" stop-color="#FEBA46"/>
<stop offset="0.916" stop-color="#FCAD49"/>
<stop offset="0.958" stop-color="#F99A4D"/>
<stop offset="0.9955" stop-color="#F58152"/>
<stop offset="1" stop-color="#F57E53"/>
</linearGradient>
<linearGradient id="paint34_linear_394_5836" x1="37.2194" y1="162.247" x2="108.689" y2="162.247" gradientUnits="userSpaceOnUse">
<stop stop-color="#FCB148"/>
<stop offset="0.0521" stop-color="#FDBA46"/>
<stop offset="0.1424" stop-color="#FFC244"/>
<stop offset="0.3183" stop-color="#FFC444"/>
<stop offset="0.4849" stop-color="#FDB946"/>
<stop offset="0.7754" stop-color="#F99C4D"/>
<stop offset="0.8658" stop-color="#F8924F"/>
<stop offset="1" stop-color="#F8924F"/>
</linearGradient>
<linearGradient id="paint35_linear_394_5836" x1="73.2831" y1="154.196" x2="77.0509" y2="185.738" gradientUnits="userSpaceOnUse">
<stop stop-color="#FFDB44"/>
<stop offset="1" stop-color="#FEEF06"/>
</linearGradient>
<linearGradient id="paint36_linear_394_5836" x1="73.1192" y1="152.79" x2="74.2763" y2="162.477" gradientUnits="userSpaceOnUse">
<stop stop-color="#FFDB44"/>
<stop offset="1" stop-color="#FEEF06"/>
</linearGradient>
<linearGradient id="paint37_linear_394_5836" x1="74.2067" y1="161.461" x2="73.0536" y2="151.808" gradientUnits="userSpaceOnUse">
<stop offset="0.00359712" stop-color="#F36F56"/>
<stop offset="0.3059" stop-color="#F99C4C"/>
<stop offset="0.545" stop-color="#FDB946"/>
<stop offset="0.6817" stop-color="#FFC444"/>
<stop offset="0.8038" stop-color="#FFC244"/>
<stop offset="0.8667" stop-color="#FEBA46"/>
<stop offset="0.916" stop-color="#FCAD49"/>
<stop offset="0.958" stop-color="#F99A4D"/>
<stop offset="0.9955" stop-color="#F58152"/>
<stop offset="1" stop-color="#F57E53"/>
</linearGradient>
<linearGradient id="paint38_linear_394_5836" x1="33.3437" y1="155.01" x2="104.813" y2="155.01" gradientUnits="userSpaceOnUse">
<stop stop-color="#FCB148"/>
<stop offset="0.0521" stop-color="#FDBA46"/>
<stop offset="0.1424" stop-color="#FFC244"/>
<stop offset="0.3183" stop-color="#FFC444"/>
<stop offset="0.4849" stop-color="#FDB946"/>
<stop offset="0.7754" stop-color="#F99C4D"/>
<stop offset="0.8658" stop-color="#F8924F"/>
<stop offset="1" stop-color="#F8924F"/>
</linearGradient>
<linearGradient id="paint39_linear_394_5836" x1="69.4077" y1="146.96" x2="73.1755" y2="178.502" gradientUnits="userSpaceOnUse">
<stop stop-color="#FFDB44"/>
<stop offset="1" stop-color="#FEEF06"/>
</linearGradient>
<linearGradient id="paint40_linear_394_5836" x1="69.2434" y1="145.553" x2="70.4005" y2="155.24" gradientUnits="userSpaceOnUse">
<stop stop-color="#FFDB44"/>
<stop offset="1" stop-color="#FEEF06"/>
</linearGradient>
<linearGradient id="paint41_linear_394_5836" x1="70.3315" y1="154.224" x2="69.1784" y2="144.572" gradientUnits="userSpaceOnUse">
<stop offset="0.00359712" stop-color="#F36F56"/>
<stop offset="0.3059" stop-color="#F99C4C"/>
<stop offset="0.545" stop-color="#FDB946"/>
<stop offset="0.6817" stop-color="#FFC444"/>
<stop offset="0.8038" stop-color="#FFC244"/>
<stop offset="0.8667" stop-color="#FEBA46"/>
<stop offset="0.916" stop-color="#FCAD49"/>
<stop offset="0.958" stop-color="#F99A4D"/>
<stop offset="0.9955" stop-color="#F58152"/>
<stop offset="1" stop-color="#F57E53"/>
</linearGradient>
<linearGradient id="paint42_linear_394_5836" x1="102.088" y1="153.244" x2="143.512" y2="211.485" gradientUnits="userSpaceOnUse">
<stop stop-color="#FCB148"/>
<stop offset="0.0521" stop-color="#FDBA46"/>
<stop offset="0.1424" stop-color="#FFC244"/>
<stop offset="0.3183" stop-color="#FFC444"/>
<stop offset="0.4849" stop-color="#FDB946"/>
<stop offset="0.7754" stop-color="#F99C4D"/>
<stop offset="0.8658" stop-color="#F8924F"/>
<stop offset="1" stop-color="#F8924F"/>
</linearGradient>
<linearGradient id="paint43_linear_394_5836" x1="129.55" y1="177.965" x2="106.033" y2="199.315" gradientUnits="userSpaceOnUse">
<stop stop-color="#FFDB44"/>
<stop offset="1" stop-color="#FEEF06"/>
</linearGradient>
<linearGradient id="paint44_linear_394_5836" x1="130.601" y1="177.017" x2="123.379" y2="183.573" gradientUnits="userSpaceOnUse">
<stop stop-color="#FFDB44"/>
<stop offset="1" stop-color="#FEEF06"/>
</linearGradient>
<linearGradient id="paint45_linear_394_5836" x1="124.167" y1="182.928" x2="131.363" y2="176.395" gradientUnits="userSpaceOnUse">
<stop offset="0.00359712" stop-color="#F36F56"/>
<stop offset="0.3059" stop-color="#F99C4C"/>
<stop offset="0.545" stop-color="#FDB946"/>
<stop offset="0.6817" stop-color="#FFC444"/>
<stop offset="0.8038" stop-color="#FFC244"/>
<stop offset="0.8667" stop-color="#FEBA46"/>
<stop offset="0.916" stop-color="#FCAD49"/>
<stop offset="0.958" stop-color="#F99A4D"/>
<stop offset="0.9955" stop-color="#F58152"/>
<stop offset="1" stop-color="#F57E53"/>
</linearGradient>
</defs>
</svg>
