<svg width="226" height="226" viewBox="0 0 226 226" fill="none" xmlns="http://www.w3.org/2000/svg">
<path d="M28.25 113C28.25 66.1939 66.1939 28.25 113 28.25C159.806 28.25 197.75 66.1939 197.75 113C197.75 159.806 159.806 197.75 113 197.75C66.1939 197.75 28.25 159.806 28.25 113Z" stroke="#46B64B" stroke-opacity="0.1" stroke-width="18.8333"/>
<path d="M150.667 84.75L103.583 141.25L75.3334 115.568" stroke="#46B64B" stroke-opacity="0.1" stroke-width="18.8333" stroke-linecap="round" stroke-linejoin="round"/>
<path opacity="0.4" d="M97.0165 89.2219C93.696 87.2975 89.017 86.6749 84.7532 87.2787C80.4893 86.6561 75.8104 87.2975 72.471 89.2219L28.8135 114.428C23.7572 117.352 23.7195 122.088 28.7569 125.012L129.241 182.97C131.825 184.461 135.221 185.178 138.617 185.14H144.372L145.372 117.107L97.0165 89.2219Z" fill="#50197C"/>
<path d="M189.652 150.859L141.127 178.876C140.24 179.386 139.164 179.386 138.278 178.876L34.511 118.956C32.6055 117.862 30.2471 115.22 33.1526 111.956L77.7157 85.8638C81.1117 83.8262 86.0736 82.5433 89.9979 83.0527C91.7336 83.2791 93.9221 83.6941 94.9032 84.279L192.161 140.294C196.255 142.652 193.746 148.482 189.652 150.859Z" fill="url(#paint0_linear_1011_4029)"/>
<path d="M197.5 142.633L97.0163 84.6751C91.9789 81.7507 83.7908 81.7507 78.7345 84.6751L35.0771 109.881C30.0208 112.805 29.9831 117.541 35.0205 120.465L135.504 178.424C140.542 181.348 148.73 181.348 153.786 178.424L197.444 153.218C202.5 150.293 202.538 145.558 197.5 142.633ZM133.938 175.688L34.2281 118.145C31.8509 116.767 31.8509 113.315 34.2281 111.937L45.4915 105.428C45.6801 105.315 45.9065 105.24 46.1141 105.221L54.7739 104.202C54.9437 104.183 55.0946 104.127 55.2455 104.051L68.8484 96.1837C69.0559 96.0705 69.2069 95.9007 69.3201 95.6932L72.584 89.9012C72.6595 89.7691 72.7727 89.6559 72.9236 89.5615L79.8477 85.5618C84.9228 82.6186 91.1866 82.6186 96.2806 85.5618L192.519 141.105C193.331 141.577 193.331 142.766 192.519 143.237L136.41 175.65C135.618 176.122 134.693 176.122 133.938 175.688Z" fill="#353131"/>
<path d="M177.219 159.538L174.653 158.048C173.37 157.312 171.219 157.387 169.747 158.236L164.012 161.557C163.521 161.84 163.144 162.198 162.936 162.576C162.446 163.443 162.748 164.387 163.71 164.953L166.276 166.443C167.559 167.179 169.71 167.104 171.181 166.255L176.917 162.934C177.407 162.651 177.785 162.293 177.992 161.915C178.483 161.047 178.181 160.104 177.219 159.538Z" fill="#262424"/>
<path d="M177.256 160.161L174.672 158.67C173.389 157.934 171.219 158.01 169.747 158.859L163.993 162.179C163.502 162.462 163.125 162.821 162.899 163.198C162.804 163.368 162.748 163.557 162.71 163.726C162.804 164.217 163.106 164.67 163.653 164.972L166.238 166.462C167.521 167.198 169.691 167.122 171.162 166.273L176.917 162.953C177.407 162.67 177.785 162.311 178.011 161.934C178.105 161.764 178.162 161.576 178.2 161.406C178.105 160.915 177.803 160.462 177.256 160.161Z" fill="#353131"/>
<path d="M64.7732 94.599L55.6795 99.8439C55.1701 100.127 55.1323 100.58 55.5663 100.825C56.0002 101.07 56.7549 101.051 57.2643 100.749L66.358 95.5046C66.8674 95.2216 66.9051 94.7687 66.4712 94.5235C66.0373 94.2782 65.2826 94.316 64.7732 94.599Z" fill="#191414"/>
<path d="M53.0375 132.879C52.9431 132.615 52.8111 132.37 52.6601 132.144C52.4715 131.898 52.2639 131.672 52.0187 131.54L43.6607 126.729C43.34 126.54 43.057 126.54 42.8683 126.653L42.0382 127.125C42.2457 127.012 42.5287 127.031 42.8306 127.201L51.1886 132.012C51.4338 132.144 51.6413 132.351 51.83 132.615C51.9998 132.842 52.1319 133.087 52.2073 133.351C52.2828 133.559 52.3205 133.785 52.3205 133.993V134.351C52.3205 134.71 52.1885 134.974 51.9809 135.087L52.8111 134.615C53.0186 134.502 53.1507 134.238 53.1507 133.879V133.521C53.1695 133.313 53.1129 133.087 53.0375 132.879Z" fill="#F9F7FB"/>
<path d="M51.1892 132.012L42.8312 127.201C42.2086 126.842 41.6992 127.144 41.6992 127.861V128.22C41.6992 128.936 42.2086 129.823 42.8312 130.182L51.1892 134.993C51.8118 135.351 52.3211 135.049 52.3211 134.332V133.974C52.34 133.257 51.8306 132.37 51.1892 132.012Z" fill="#C0B9C8"/>
<path d="M65.791 140.219C65.6967 139.954 65.5646 139.709 65.4137 139.483C65.225 139.237 65.0175 139.011 64.7722 138.879L56.4143 134.068C56.0935 133.879 55.8106 133.879 55.6219 133.993L54.7917 134.464C54.9993 134.351 55.2823 134.37 55.5842 134.54L63.9421 139.351C64.1874 139.483 64.3949 139.69 64.5835 139.954C64.7533 140.181 64.8854 140.426 64.9609 140.69C65.0363 140.898 65.0741 141.124 65.0741 141.332V141.69C65.0741 142.049 64.942 142.313 64.7345 142.426L65.5646 141.954C65.7722 141.841 65.9042 141.577 65.9042 141.218V140.86C65.9042 140.652 65.8665 140.445 65.791 140.219Z" fill="#F9F7FB"/>
<path d="M63.9428 139.37L55.5849 134.559C54.9623 134.2 54.4529 134.483 54.4529 135.219V135.577C54.4529 136.294 54.9623 137.181 55.5849 137.54L63.9428 142.351C64.5654 142.709 65.0748 142.407 65.0748 141.69V141.332C65.0748 140.615 64.5654 139.728 63.9428 139.37Z" fill="#C0B9C8"/>
<path d="M53.9627 103.032C53.3401 103.391 52.359 103.391 51.7364 103.032C51.1326 102.674 51.1326 102.108 51.7364 101.75C52.359 101.391 53.3401 101.391 53.9627 101.75C54.5664 102.108 54.5664 102.674 53.9627 103.032Z" fill="#191414"/>
<path opacity="0.1" d="M52.0562 102.881C52.509 103.126 53.2448 103.107 53.6977 102.843C54.1505 102.56 54.1316 102.145 53.6599 101.9C53.2071 101.655 52.4713 101.674 52.0185 101.938C51.5845 102.202 51.6034 102.636 52.0562 102.881Z" fill="#CFD5D5"/>
<path opacity="0.1" d="M52.3967 102.617C52.642 102.75 53.0382 102.749 53.2834 102.599C53.5287 102.448 53.5098 102.221 53.2646 102.089C53.0193 101.957 52.6231 101.957 52.3778 102.108C52.1514 102.259 52.1514 102.485 52.3967 102.617Z" fill="#CFD5D5"/>
<path opacity="0.2" d="M52.6798 102.448C52.7741 102.504 52.925 102.485 53.0005 102.448C53.0948 102.391 53.0948 102.316 53.0005 102.259C52.9062 102.202 52.7552 102.221 52.6609 102.259C52.5854 102.316 52.5854 102.41 52.6798 102.448Z" fill="#CFD5D5"/>
<path d="M201.255 147.878C201.255 149.803 199.991 151.746 197.444 153.218L153.786 178.424C148.73 181.348 140.542 181.348 135.504 178.424L35.0206 120.465C32.5302 119.012 31.2661 117.107 31.2661 115.201L31.285 119.767C31.285 121.673 32.549 123.578 35.0394 125.031L135.523 182.989C140.561 185.914 148.749 185.914 153.805 182.989L197.463 157.783C200.01 156.312 201.274 154.387 201.274 152.444L201.255 147.878Z" fill="url(#paint1_linear_1011_4029)"/>
<path d="M178.483 167.82L172.559 171.235C171.861 171.631 171.313 171.386 171.313 170.707C171.313 170.009 171.879 169.141 172.559 168.745L178.483 165.33C179.181 164.934 179.728 165.179 179.728 165.858C179.747 166.537 179.181 167.405 178.483 167.82Z" fill="#262424"/>
<mask id="mask0_1011_4029" style="mask-type:alpha" maskUnits="userSpaceOnUse" x="171" y="165" width="9" height="7">
<path d="M178.482 167.82L172.558 171.235C171.86 171.631 171.313 171.386 171.313 170.707C171.313 170.009 171.879 169.141 172.558 168.745L178.482 165.33C179.181 164.934 179.728 165.179 179.728 165.858C179.747 166.537 179.181 167.405 178.482 167.82Z" fill="#262424"/>
</mask>
<g mask="url(#mask0_1011_4029)">
<path d="M170.313 168.744L169.483 169.216L172.407 170.914L173.238 170.442L170.313 168.744ZM172.124 167.706L171.294 168.178L174.219 169.876L175.049 169.404L172.124 167.706ZM173.936 166.65L173.106 167.121L176.03 168.819L176.86 168.348L173.936 166.65ZM175.747 165.612L174.917 166.084L177.841 167.782L178.671 167.31L175.747 165.612Z" fill="#9E6512"/>
</g>
<path opacity="0.7" d="M194.255 124.352L135.467 158.293L38.1523 102.089L96.922 68.1666L194.255 124.352Z" fill="#CFE9FF"/>
<path d="M97.2993 68.3742L38.5296 102.315L31.2471 98.1081L90.0356 64.1858L97.2993 68.3742Z" fill="#788EFF"/>
<path d="M47.7558 105.164L46.6238 105.825L47.2086 106.183L47.8124 105.825L56.642 110.937L56.0382 111.277L56.642 111.617L57.2269 111.277L66.0565 116.371L65.4716 116.711L66.0565 117.05L67.2073 116.39L47.7558 105.164Z" fill="white"/>
<path opacity="0.9" d="M96.1863 33.6972L92.5262 36.9611L88.3756 41.8476L84.4324 42.7532L79.6214 43.2437L72.4898 48.1868L67.3769 54.6769L61.0755 59.2804L55.6607 65.1479H51.0384L47.6235 73.3172V105.24L103.45 73.0153V32.2633L98.6767 32.6784L96.1863 33.6972Z" fill="#A82EDB"/>
<path d="M98.7332 32.4332L95.9787 33.584L92.4506 36.7159L88.2433 41.7156L84.4511 42.5835L79.6213 43.0928L72.4708 48.0548L67.3579 54.5638L61.0753 59.1295L55.6606 65.0159L50.9817 65.0536L47.6611 72.9588V73.8644L51.1703 65.3932L55.7927 65.3555L61.1885 59.488L67.5843 54.7713L72.5652 48.4132L79.6779 43.4136L84.4889 42.8853L88.3754 41.9986C88.3943 41.9986 92.5449 37.0932 92.5449 37.0932L96.1485 33.867L98.8275 32.7728L103.506 32.3954V32.0747L98.7332 32.4332Z" fill="#B84BFF"/>
<path opacity="0.9" d="M100.715 46.8851L97.0545 48.0548L92.9038 50.6772L88.9607 51.564L84.1497 56.4316L78.5463 58.8843L71.9052 67.8647L65.6038 72.4682L60.189 78.3358L55.5856 82.1657L52.1519 90.3349V107.843L107.978 75.6379V45.4512L103.205 48.2057L100.715 46.8851Z" fill="#E952EB"/>
<path d="M103.261 47.9982L100.79 46.6964L97.0731 47.885L92.9413 50.5075L88.9793 51.4131L84.1494 56.2807L78.5271 58.7522L71.8672 67.7516L65.5846 72.3174L60.1699 78.2038L55.491 82.0903L52.1704 89.9955V90.6181L55.6796 82.2601L60.2642 78.4491L65.6412 72.6004L71.9238 68.0158L78.5837 59.0352L84.1305 56.6014C84.1683 56.5826 88.9793 51.7338 88.9793 51.7338L92.8658 50.8471C92.8847 50.8471 97.0354 48.2058 97.0354 48.2058L100.639 47.0549L103.148 48.3756L107.997 45.5833V45.2626L103.261 47.9982Z" fill="#FF61F1"/>
<path opacity="0.9" d="M106.28 57.6949L101.922 59.374L97.9788 62.8455L93.0734 65.6755L88.3001 71.1657L82.8477 74.8824L76.999 81.2405L69.4523 87.7684L64.4904 94.1641L60.3963 97.6545L57.2456 101.371V110.767L113.072 78.5614V53.7706L106.28 57.6949Z" fill="#7934E5"/>
<path d="M106.299 57.526L101.941 59.2051C101.903 59.224 97.9599 62.6955 97.9599 62.6955L93.0545 65.5255L88.2435 71.0346L82.8288 74.7513L76.9424 81.1094L69.3957 87.6561L64.4338 94.0519L60.3586 97.5233L57.2456 101.297V101.655L60.4529 97.7686L64.5281 94.2971L69.4901 87.9014L77.0367 81.3546L82.8665 75.0343L88.3001 71.3175L93.0923 65.8273L97.9788 63.0162L101.922 59.5448L106.28 57.8656L113.072 53.9413V53.6206L106.299 57.526Z" fill="#9252FF"/>
<path opacity="0.9" d="M110.94 70.8637L106.582 72.1277L102.638 77.0896L96.752 82.0893L92.9598 82.1271L87.9036 86.5796L83.6585 93.7112L74.8101 98.824L67.5275 106.484L64.3391 110.936L61.9053 112.351V113.483L117.732 81.2592V66.9583L110.94 70.8637Z" fill="#6780FF"/>
<path d="M110.959 70.6948L106.544 71.9589L102.582 76.9774L96.7712 81.9205L92.979 81.9582L87.8284 86.4863L83.6023 93.599L74.8104 98.6741L67.4335 106.409L64.2828 110.805L61.8867 112.202V112.522L64.396 111.07L67.5844 106.598L74.8481 98.976L83.7343 93.8443L87.9793 86.6938L93.0167 82.2224L96.809 82.1847L102.676 77.2227L106.601 72.2796L110.902 71.0533L117.732 67.1101V66.7894L110.959 70.6948Z" fill="#7DDDFF"/>
<path opacity="0.9" d="M116.09 78.3925L111.732 79.3358L107.808 83.3732L101.903 87.9201L98.1104 88.7125L93.0542 93.165L85.866 96.8818L80.3758 102.334L74.263 106.692L69.4897 112.975L67.0559 114.39V116.465L122.882 84.2223V74.4871L116.09 78.3925Z" fill="#FFC41D"/>
<path d="M116.11 78.2227L111.714 79.1848L107.733 83.26L101.922 87.7315L98.1296 88.5239L92.979 93.0707L85.8097 96.7686L80.3761 102.164L74.1878 106.617L69.4523 112.843L67.0374 114.22V114.541L69.5466 113.107L74.3387 106.806L80.4138 102.466L85.9417 97.0138L93.1299 93.2594L98.1862 88.788L101.978 87.9956L107.827 83.5053L111.751 79.5056L116.053 78.5623L122.883 74.638V74.3173L116.11 78.2227Z" fill="#FFD91F"/>
<path d="M49.9442 53.6205L50.3593 53.3941C50.4159 53.4319 50.4159 53.5451 50.4159 53.5451C50.4159 53.5828 50.397 53.6205 50.3593 53.6394L49.9442 53.8658V54.3186C49.9442 54.3563 49.9254 54.3941 49.8876 54.4129L49.7556 54.4884C49.699 54.4507 49.699 54.0167 49.699 54.0167L49.2839 54.262C49.2273 54.2431 49.2273 54.1111 49.2273 54.1111C49.2273 54.0733 49.2462 54.0356 49.2839 54.0167L49.699 53.7715V53.3375C49.699 53.2998 49.7178 53.262 49.7556 53.2432L49.8876 53.1677C49.9442 53.1677 49.9442 53.6205 49.9442 53.6205Z" fill="#A82EDB"/>
<path d="M50.7555 54.2054V53.9224C50.7555 53.7904 50.8121 53.6583 50.9064 53.5074L51.4347 52.715C51.529 52.5829 51.5667 52.4697 51.5667 52.3754V52.2811C51.5667 52.1301 51.4913 52.0924 51.3592 52.1867L51.2271 52.2622C51.1517 52.2999 51.0951 52.3565 51.0762 52.4131C51.0573 52.4697 51.0196 52.5263 51.0196 52.6018V52.715C51.0196 52.7527 51.0007 52.7716 50.963 52.7904L50.7744 52.9036C50.7178 52.8848 50.7178 52.7527 50.7178 52.7527C50.7178 52.6018 50.7555 52.4697 50.831 52.3377C50.9064 52.2056 51.0196 52.1113 51.1517 52.0358L51.3781 51.9037C51.5101 51.8282 51.6233 51.8094 51.6988 51.8471C51.7743 51.8848 51.812 51.9792 51.812 52.1301V52.2622C51.812 52.4131 51.7554 52.5829 51.6422 52.7527L51.0951 53.5451C51.0574 53.6017 51.0385 53.6772 51.0385 53.7149V53.8092L51.7743 53.3753C51.8309 53.3942 51.8309 53.564 51.8309 53.564C51.8309 53.6017 51.812 53.6206 51.7743 53.6395L50.7744 54.2054C50.7555 54.262 50.7555 54.2432 50.7555 54.2054Z" fill="#A82EDB"/>
<path d="M52.4158 52.8847V53.1299C52.4158 53.1865 52.3969 53.2431 52.3592 53.3375L52.2083 53.7148C52.1328 53.7336 52.1328 53.0356 52.1328 53.0356C52.1328 52.9979 52.1517 52.979 52.1894 52.9601L52.378 52.8469C52.3969 52.8469 52.4158 52.8469 52.4158 52.8847Z" fill="#A82EDB"/>
<path d="M53.4347 52.7149L53.1517 52.8847C53.0196 52.9602 52.9064 52.979 52.831 52.9413C52.7555 52.9036 52.7178 52.8093 52.7178 52.6583V51.6395C52.7178 51.4886 52.7555 51.3565 52.831 51.2244C52.9064 51.0924 53.0196 50.998 53.1517 50.9037L53.4347 50.7339C53.5668 50.6584 53.68 50.6396 53.7555 50.6773C53.8309 50.715 53.8687 50.8094 53.8687 50.9603V51.9791C53.8687 52.1301 53.8309 52.2621 53.7555 52.3942C53.68 52.5263 53.5856 52.6395 53.4347 52.7149ZM53.1894 52.5828L53.397 52.4696C53.529 52.3942 53.6045 52.281 53.6045 52.1301V51.1301C53.6045 50.9792 53.529 50.9414 53.397 51.0169L53.1894 51.1301C53.0574 51.2056 52.9819 51.3188 52.9819 51.4697V52.4696C53.0008 52.6394 53.0574 52.6583 53.1894 52.5828Z" fill="#A82EDB"/>
<path d="M54.1328 50.8283V50.6396C54.1328 50.6019 54.1517 50.583 54.1706 50.5453L54.4724 50.1869C54.5101 50.1491 54.5478 50.1114 54.5667 50.0925L54.7365 49.9982C54.7931 50.017 54.7931 51.9037 54.7931 51.9037C54.7931 51.9415 54.7742 51.9603 54.7554 51.9792L54.5667 52.0924C54.5101 52.0735 54.5101 50.4698 54.5101 50.4698L54.2083 50.8472C54.1517 50.866 54.1328 50.8661 54.1328 50.8283Z" fill="#A82EDB"/>
<path d="M55.7551 50.3188L55.5853 50.4132C55.5475 50.432 55.5287 50.4509 55.4909 50.4886C55.4155 50.6207 55.3966 50.6584 55.3588 50.6773L55.189 50.7717C55.1324 50.7528 55.1324 49.7906 55.1324 49.7906C55.1324 49.7528 55.1513 49.734 55.189 49.7151L56.1512 49.168C56.2078 49.1868 56.2078 49.3566 56.2078 49.3566C56.2078 49.3944 56.189 49.4132 56.1512 49.4321L55.4154 49.8472V50.4132C55.4532 50.3 55.5286 50.2057 55.6607 50.1302L55.8305 50.0359C55.9626 49.9604 56.0758 49.9415 56.1512 49.9793C56.2267 50.017 56.2644 50.1113 56.2644 50.2622V50.6207C56.2644 50.7716 56.2267 50.9037 56.1512 51.0358C56.0758 51.1679 55.9626 51.2622 55.8305 51.3565L55.5853 51.4886C55.4532 51.564 55.34 51.5829 55.2645 51.5452C55.189 51.5075 55.1513 51.4131 55.1513 51.2622C55.1513 51.149 55.1702 51.1113 55.2079 51.0924L55.3777 50.998C55.4343 51.2433 55.4909 51.281 55.623 51.2056L55.7928 51.1112C55.9248 51.0358 56.0003 50.9226 56.0003 50.7717V50.4698C56.0003 50.3754 55.9814 50.3189 55.9437 50.3C55.8871 50.2623 55.8305 50.2811 55.7551 50.3188Z" fill="#A82EDB"/>
<path d="M47.7369 54.2242L46.6992 56.7712L48.7746 55.5638L47.7369 54.2242Z" fill="#6FAF00"/>
<path d="M61.8114 46.7719L62.2265 46.5455C62.2831 46.5832 62.2831 46.6964 62.2831 46.6964C62.2831 46.7342 62.2642 46.7719 62.2265 46.7908L61.8114 47.0172V47.47C61.8114 47.5077 61.7925 47.5455 61.7548 47.5643L61.6227 47.6398C61.5661 47.602 61.5661 47.1681 61.5661 47.1681L61.1511 47.4134C61.0945 47.3945 61.0945 47.2624 61.0945 47.2624C61.0945 47.2247 61.1133 47.187 61.1511 47.1681L61.5661 46.9417V46.5078C61.5661 46.47 61.585 46.4323 61.6227 46.4135L61.7548 46.338C61.8114 46.3191 61.8114 46.7719 61.8114 46.7719Z" fill="#E952EB"/>
<path d="M63.2454 45.9983L63.0756 46.0926C63.0378 46.1115 63.019 46.1304 62.9813 46.1681C62.9058 46.3002 62.8869 46.3379 62.8492 46.3568L62.6794 46.4511C62.6228 46.4322 62.6228 45.47 62.6228 45.47C62.6228 45.4323 62.6417 45.4134 62.6794 45.3945L63.6416 44.8474C63.6982 44.8663 63.6982 45.0361 63.6982 45.0361C63.6982 45.0738 63.6793 45.0927 63.6416 45.1115L62.9058 45.5266V46.0926C62.9435 45.9794 63.019 45.8851 63.1511 45.8096L63.3208 45.7153C63.4529 45.6398 63.5661 45.6209 63.6416 45.6587C63.717 45.6964 63.7548 45.7908 63.7548 45.9417V46.3001C63.7548 46.4511 63.717 46.5831 63.6416 46.7152C63.5661 46.8473 63.4529 46.9416 63.3208 47.036L63.0756 47.168C62.9435 47.2435 62.8303 47.2624 62.7549 47.2246C62.6794 47.1869 62.6417 47.0926 62.6417 46.9416C62.6417 46.8284 62.6605 46.7907 62.6983 46.7718L62.868 46.6775C62.9246 46.9228 62.9813 46.9605 63.1133 46.885L63.2831 46.7907C63.4152 46.7152 63.4906 46.602 63.4906 46.4511V46.1492C63.4906 46.0549 63.4718 45.9983 63.434 45.9794C63.3963 45.9417 63.3397 45.9606 63.2454 45.9983Z" fill="#E952EB"/>
<path d="M64.3016 46.0173V46.2626C64.3016 46.3192 64.2827 46.3758 64.245 46.4701L64.094 46.8474C64.0186 46.8663 64.0186 46.1682 64.0186 46.1682C64.0186 46.1305 64.0374 46.1117 64.0752 46.0928L64.2638 45.9796C64.2827 45.9607 64.3016 45.9796 64.3016 46.0173Z" fill="#E952EB"/>
<path d="M65.6036 45.6964L65.4338 45.7908C65.3772 45.7719 65.3772 45.4511 65.3772 45.4511L64.6226 45.8851C64.566 45.9228 64.5471 45.904 64.5471 45.8474V45.753C64.5471 45.7153 64.5471 45.6587 64.566 45.621L65.2074 44.0361C65.2263 43.9984 65.2452 43.9607 65.2452 43.9418C65.3018 43.8852 65.547 43.7531 65.547 43.7531C65.6036 43.7154 65.6225 43.7343 65.6225 43.7909V45.0361L65.83 44.9229C65.8866 44.9417 65.8866 45.0927 65.8866 45.0927C65.8866 45.1304 65.8678 45.1681 65.83 45.187L65.6225 45.3002V45.621C65.6414 45.6398 65.6225 45.6776 65.6036 45.6964ZM65.3772 45.1682V44.0739L64.8112 45.4889L65.3772 45.1682Z" fill="#E952EB"/>
<path d="M66.7358 43.9795L66.566 44.0738C66.5282 44.0927 66.5094 44.1116 66.4716 44.1493C66.3962 44.2814 66.3773 44.3191 66.3396 44.338L66.1698 44.4323C66.1132 44.4134 66.1132 43.4512 66.1132 43.4512C66.1132 43.4135 66.132 43.3946 66.1698 43.3758L67.132 42.8286C67.1886 42.8475 67.1886 43.0173 67.1886 43.0173C67.1886 43.055 67.1697 43.0739 67.132 43.0927L66.3962 43.5078V44.0738C66.4339 43.9606 66.5094 43.8663 66.6414 43.7908L66.8113 43.6965C66.9433 43.621 67.0565 43.6022 67.132 43.6399C67.2074 43.6776 67.2452 43.772 67.2452 43.9229V44.2814C67.2452 44.4323 67.2074 44.5644 67.132 44.6964C67.0565 44.8285 66.9433 44.9228 66.8113 45.0172L66.566 45.1493C66.4339 45.2247 66.3207 45.2436 66.2452 45.2059C66.1698 45.1681 66.132 45.0738 66.132 44.9228C66.132 44.8096 66.1509 44.7719 66.1886 44.753L66.3584 44.6587C66.415 44.904 66.4716 44.9417 66.6037 44.8662L66.7735 44.7719C66.9056 44.6964 66.981 44.5832 66.981 44.4323V44.1304C66.981 44.0361 66.9622 43.9795 66.9244 43.9606C66.8678 43.9229 66.8301 43.9418 66.7358 43.9795Z" fill="#E952EB"/>
<path d="M68.2827 44.1494L67.9808 44.3192C67.8487 44.3947 67.7355 44.4324 67.6601 44.3946C67.5846 44.3569 67.5469 44.2626 67.5469 44.1117V43.9418C67.5469 43.7532 67.6035 43.5834 67.7355 43.4513C67.6035 43.4702 67.5469 43.3759 67.5469 43.1872V43.0363C67.5469 42.8853 67.5846 42.7533 67.6601 42.6401C67.7355 42.5269 67.8487 42.4137 67.9808 42.3382L68.2827 42.1684C68.4147 42.0929 68.5279 42.0552 68.6034 42.0929C68.6789 42.1307 68.7166 42.225 68.7166 42.3571V42.508C68.7166 42.6023 68.6977 42.6967 68.66 42.7721C68.6223 42.8665 68.5845 42.9231 68.5279 42.9797C68.66 42.9608 68.7166 43.0551 68.7166 43.2438V43.4136C68.7166 43.5645 68.6789 43.6966 68.6034 43.8286C68.5279 43.9607 68.4147 44.055 68.2827 44.1494ZM68.0185 43.1872L68.2449 43.0551C68.377 42.9797 68.4525 42.8665 68.4525 42.7155V42.5646C68.4525 42.4891 68.4336 42.4514 68.3959 42.4325C68.3581 42.4137 68.3204 42.4325 68.2449 42.4703L68.0185 42.6023C67.9431 42.6401 67.9053 42.6966 67.8676 42.7344C67.8299 42.791 67.811 42.8476 67.811 42.9231V43.074C67.811 43.2249 67.8865 43.2627 68.0185 43.1872ZM68.0185 44.0362L68.2449 43.9041C68.3204 43.8664 68.3581 43.8098 68.3959 43.772C68.4336 43.7154 68.4525 43.6589 68.4525 43.5834V43.4136C68.4525 43.2626 68.377 43.2249 68.2449 43.3004L68.0185 43.4325C67.8865 43.5079 67.811 43.6211 67.811 43.772V43.9418C67.811 44.0173 67.8299 44.0551 67.8676 44.0739C67.8865 44.0928 67.9431 44.0739 68.0185 44.0362Z" fill="#E952EB"/>
<path d="M59.6041 47.3756L58.5664 49.9037L60.6418 48.7152L59.6041 47.3756Z" fill="#6FAF00"/>
<path d="M73.5087 40.2629L72.9427 40.5837C72.8861 40.5648 72.8861 40.4139 72.8861 40.4139C72.8861 40.3762 72.905 40.3573 72.9427 40.3384L73.5087 40.0177C73.5653 40.0366 73.5653 40.1875 73.5653 40.1875C73.5464 40.2252 73.5275 40.2441 73.5087 40.2629Z" fill="#7934E5"/>
<path d="M73.7352 39.4893V39.3006C73.7352 39.2629 73.7541 39.244 73.773 39.2063L74.0748 38.8478C74.1126 38.8101 74.1503 38.7724 74.1692 38.7535L74.339 38.6592C74.3956 38.678 74.3956 40.5647 74.3956 40.5647C74.3956 40.6024 74.3767 40.6213 74.3579 40.6402L74.1692 40.7534C74.1126 40.7345 74.1126 39.1308 74.1126 39.1308L73.8107 39.5082C73.7541 39.527 73.7352 39.5271 73.7352 39.4893Z" fill="#7934E5"/>
<path d="M75.018 39.8289V40.0742C75.018 40.1308 74.9991 40.1874 74.9614 40.2817L74.8104 40.659C74.735 40.6779 74.735 39.9798 74.735 39.9798C74.735 39.9421 74.7538 39.9232 74.7916 39.9043L74.9803 39.7911C74.9991 39.7911 75.018 39.7911 75.018 39.8289Z" fill="#7934E5"/>
<path d="M76.0556 39.6593L75.7726 39.8291C75.6405 39.9045 75.5273 39.9234 75.4518 39.8857C75.3764 39.8479 75.3386 39.7536 75.3386 39.6027V38.5839C75.3386 38.4329 75.3764 38.3008 75.4518 38.1688C75.5273 38.0367 75.6405 37.9424 75.7726 37.848L76.0556 37.6782C76.1876 37.6028 76.3008 37.5839 76.3763 37.6217C76.4517 37.6594 76.4895 37.7537 76.4895 37.9046V38.9235C76.4895 39.0744 76.4517 39.2065 76.3763 39.3385C76.3008 39.4706 76.1876 39.5838 76.0556 39.6593ZM75.8103 39.5272L76.0178 39.414C76.1499 39.3385 76.2253 39.2253 76.2253 39.0744V38.0745C76.2253 37.9235 76.1499 37.8858 76.0178 37.9612L75.8103 38.0745C75.6782 38.1499 75.6028 38.2631 75.6028 38.4141V39.414C75.6028 39.5838 75.6782 39.6215 75.8103 39.5272Z" fill="#7934E5"/>
<path d="M77.546 38.7913L77.263 38.9611C77.1309 39.0366 77.0178 39.0555 76.9423 39.0178C76.8668 38.98 76.8291 38.8857 76.8291 38.7347V37.716C76.8291 37.565 76.8668 37.4329 76.9423 37.3009C77.0178 37.1688 77.1309 37.0745 77.263 36.9802L77.546 36.8103C77.6781 36.7349 77.7913 36.716 77.8667 36.7537C77.9422 36.7915 77.9799 36.8858 77.9799 37.0367V38.0555C77.9799 38.2065 77.9422 38.3385 77.8667 38.4706C77.7913 38.6027 77.6781 38.7159 77.546 38.7913ZM77.3007 38.6781L77.5083 38.5649C77.6403 38.4895 77.7158 38.3763 77.7158 38.2253V37.2254C77.7158 37.0745 77.6403 37.0367 77.5083 37.1122L77.3007 37.2254C77.1687 37.3009 77.0932 37.4141 77.0932 37.565V38.5649C77.0932 38.7159 77.1687 38.7536 77.3007 38.6781Z" fill="#7934E5"/>
<path d="M78.7915 36.9612L78.9424 36.8669C79.0745 36.7914 79.1499 36.6782 79.1499 36.5273V36.3764C79.1499 36.2254 79.0745 36.1877 78.9424 36.282L78.7726 36.3764C78.6971 36.4141 78.6594 36.4707 78.6217 36.5085C78.5839 36.5651 78.5651 36.6216 78.5651 36.6971C78.5651 36.8292 78.5462 36.848 78.5085 36.8669L78.3198 36.9801C78.2632 36.9613 78.2632 36.8669 78.2632 36.8669C78.2632 36.716 78.3009 36.5839 78.3764 36.4519C78.4519 36.3198 78.5651 36.2255 78.6972 36.15L78.9424 35.999C79.0745 35.9236 79.1877 35.9047 79.2631 35.9425C79.3386 35.9802 79.3763 36.0745 79.3763 36.2254V36.3952C79.3763 36.5839 79.3009 36.7348 79.1499 36.8669C79.3009 36.8103 79.3763 36.8858 79.3763 37.0744V37.2443C79.3763 37.3952 79.3386 37.5273 79.2631 37.6593C79.1877 37.7914 79.0745 37.8857 78.9424 37.9801L78.6972 38.131C78.5651 38.2065 78.4519 38.2253 78.3764 38.1876C78.3009 38.1499 78.2632 38.0555 78.2632 37.9046V37.7914C78.2632 37.7536 78.282 37.7348 78.3198 37.7159L78.5085 37.6027C78.5651 37.6216 78.5651 37.7348 78.5651 37.7348C78.5651 37.8102 78.5839 37.848 78.6217 37.8669C78.6594 37.8857 78.6971 37.8668 78.7726 37.8291L78.9424 37.7348C79.0745 37.6593 79.1499 37.5461 79.1499 37.3952V37.2254C79.1499 37.0744 79.0745 37.0367 78.9424 37.1311L78.7915 37.2254C78.7349 37.2065 78.7349 37.0556 78.7349 37.0556C78.7349 37.0178 78.7537 36.9801 78.7915 36.9612Z" fill="#7934E5"/>
<path d="M71.4713 42.4703L70.4336 41.1119L72.5089 39.9233L71.4713 42.4703Z" fill="#DB3E3E"/>
<path d="M85.5457 33.0559L85.9607 32.8295C86.0173 32.8672 86.0173 32.9804 86.0173 32.9804C86.0173 33.0181 85.9985 33.0559 85.9607 33.0747L85.5457 33.3011V33.7539C85.5457 33.7917 85.5268 33.8294 85.4891 33.8483L85.357 33.9237C85.3004 33.886 85.3004 33.4521 85.3004 33.4521L84.8853 33.6973C84.8287 33.6785 84.8287 33.5464 84.8287 33.5464C84.8287 33.5087 84.8476 33.4709 84.8853 33.4521L85.3004 33.2068V32.754C85.3004 32.7163 85.3193 32.6785 85.357 32.6597L85.4891 32.5842C85.5457 32.622 85.5457 33.0559 85.5457 33.0559Z" fill="#6780FF"/>
<path d="M86.2815 32.2446V32.0559C86.2815 32.0182 86.3004 31.9993 86.3192 31.9616L86.6211 31.6031C86.6589 31.5654 86.6966 31.5276 86.7155 31.5088L86.8853 31.4144C86.9419 31.4333 86.9419 33.32 86.9419 33.32C86.9419 33.3577 86.923 33.3766 86.9041 33.3954L86.7155 33.5086C86.6589 33.4898 86.6588 31.8861 86.6588 31.8861L86.357 32.2635C86.3004 32.2823 86.2815 32.2823 86.2815 32.2446Z" fill="#6780FF"/>
<path d="M87.5642 32.5841V32.8294C87.5642 32.886 87.5454 32.9426 87.5077 33.0369L87.3567 33.4143C87.2813 33.4331 87.2812 32.7351 87.2812 32.7351C87.2812 32.6973 87.3001 32.6784 87.3378 32.6596L87.5265 32.5464C87.5454 32.5464 87.5642 32.5464 87.5642 32.5841Z" fill="#6780FF"/>
<path d="M88.3189 31.4522L88.4698 31.3579C88.6019 31.2824 88.6773 31.1692 88.6773 31.0183V30.8673C88.6773 30.7164 88.6019 30.6787 88.4698 30.773L88.3 30.8673C88.2246 30.9051 88.1868 30.9617 88.1491 30.9994C88.1113 31.056 88.0925 31.1126 88.0925 31.1881C88.0925 31.3201 88.0736 31.339 88.0359 31.3579L87.8472 31.4711C87.7906 31.4522 87.7906 31.3579 87.7906 31.3579C87.7906 31.2069 87.8284 31.0749 87.9038 30.9428C87.9793 30.8107 88.0925 30.7164 88.2245 30.641L88.4698 30.49C88.6019 30.4145 88.7151 30.3957 88.7906 30.4334C88.866 30.4712 88.9038 30.5655 88.9038 30.7164V30.8673C88.9038 31.056 88.8283 31.207 88.6773 31.339C88.8283 31.2824 88.9038 31.3579 88.9038 31.5466V31.7163C88.9038 31.8673 88.866 31.9994 88.7906 32.1314C88.7151 32.2635 88.6019 32.3578 88.4698 32.4522L88.2245 32.6031C88.0925 32.6786 87.9793 32.6974 87.9038 32.6597C87.8284 32.622 87.7906 32.5276 87.7906 32.3767V32.2635C87.7906 32.2258 87.8095 32.2069 87.8472 32.188L88.0359 32.0748C88.0925 32.0937 88.0925 32.2069 88.0925 32.2069C88.0925 32.2824 88.1113 32.3201 88.1491 32.339C88.1868 32.3578 88.2246 32.339 88.3 32.3012L88.4698 32.2069C88.6019 32.1314 88.6773 32.0182 88.6773 31.8673V31.6975C88.6773 31.5466 88.6019 31.5088 88.4698 31.6032L88.3189 31.6975C88.2623 31.6786 88.2623 31.5277 88.2623 31.5277C88.2812 31.49 88.3 31.4711 88.3189 31.4522Z" fill="#6780FF"/>
<path d="M90.0361 31.5843L89.7343 31.7541C89.6022 31.8295 89.489 31.8673 89.4135 31.8295C89.338 31.7918 89.3003 31.6975 89.3003 31.5465V31.3767C89.3003 31.1881 89.3569 31.0183 89.489 30.8862C89.3569 30.9051 89.3003 30.8107 89.3003 30.6221V30.4711C89.3003 30.3202 89.338 30.1882 89.4135 30.0561C89.489 29.9429 89.6022 29.8297 89.7343 29.7542L90.0361 29.5844C90.1681 29.509 90.2814 29.4712 90.3568 29.5089C90.4323 29.5467 90.47 29.641 90.47 29.7731V29.924C90.47 30.0183 90.4512 30.1127 90.4134 30.1881C90.3757 30.2825 90.338 30.3391 90.2814 30.3957C90.4134 30.3768 90.47 30.4711 90.47 30.6598V30.8673C90.47 31.0183 90.4323 31.1503 90.3568 31.2824C90.2814 31.3956 90.187 31.5088 90.0361 31.5843ZM89.772 30.6221L89.9984 30.49C90.1304 30.4145 90.2059 30.3013 90.2059 30.1504V29.9995C90.2059 29.924 90.1871 29.8863 90.1493 29.8674C90.1116 29.8485 90.055 29.8674 89.9984 29.9052L89.772 30.0372C89.6965 30.0749 89.6587 30.1316 89.621 30.1693C89.5833 30.2259 89.5644 30.2825 89.5644 30.3579V30.5089C89.5644 30.6598 89.6399 30.6975 89.772 30.6221ZM89.772 31.4711L89.9984 31.339C90.0738 31.3013 90.1116 31.2447 90.1493 31.2069C90.1871 31.1503 90.2059 31.0937 90.2059 31.0183V30.8485C90.2059 30.6975 90.1304 30.6598 89.9984 30.7353L89.772 30.8673C89.6399 30.9428 89.5644 31.056 89.5644 31.2069V31.3767C89.5644 31.4522 89.5833 31.4899 89.621 31.5088C89.6587 31.5277 89.6965 31.5088 89.772 31.4711Z" fill="#6780FF"/>
<path d="M91.5074 30.7353L91.2433 30.8862C91.1112 30.9617 90.998 30.9805 90.9225 30.9428C90.8471 30.9051 90.8093 30.8107 90.8093 30.6598V29.641C90.8093 29.4901 90.8471 29.358 90.9225 29.226C90.998 29.0939 91.1112 28.9996 91.2433 28.9052L91.8093 28.5845C91.8659 28.6033 91.8659 28.7732 91.8659 28.7732C91.8659 28.8109 91.847 28.8297 91.8093 28.8486L91.281 29.1505C91.1489 29.2259 91.0735 29.3392 91.0735 29.4901V29.7542L91.5074 29.5089C91.6395 29.4335 91.7527 29.4146 91.8281 29.4524C91.9036 29.4901 91.9413 29.5844 91.9413 29.7353V29.9995C91.9413 30.1504 91.9036 30.2825 91.8281 30.4145C91.7527 30.5466 91.6583 30.6409 91.5074 30.7353ZM91.281 30.6032L91.4697 30.49C91.6017 30.4146 91.6772 30.3013 91.6772 30.1504V29.9052C91.6772 29.7542 91.6017 29.7165 91.4697 29.7919L91.0735 30.0184V30.49C91.0735 30.641 91.1489 30.6787 91.281 30.6032Z" fill="#6780FF"/>
<path d="M83.3385 33.6595L82.3008 36.2065L84.3762 35.0179L83.3385 33.6595Z" fill="#6FAF00"/>
<path d="M97.2429 26.5658L96.677 26.8866C96.6204 26.8677 96.6204 26.7168 96.6204 26.7168C96.6204 26.679 96.6392 26.6602 96.677 26.6413L97.2429 26.3206C97.2995 26.3394 97.2995 26.4904 97.2995 26.4904C97.2807 26.5092 97.2807 26.547 97.2429 26.5658Z" fill="#FFC41D"/>
<path d="M98.0356 25.8488L98.1865 25.7545C98.3186 25.679 98.3941 25.5658 98.3941 25.4149V25.2639C98.3941 25.113 98.3186 25.0753 98.1865 25.1696L98.0167 25.2639C97.9412 25.3017 97.9035 25.3583 97.8658 25.396C97.8281 25.4526 97.8092 25.5092 97.8092 25.5847C97.8092 25.7167 97.7903 25.7356 97.7526 25.7545L97.5639 25.8677C97.5073 25.8488 97.5073 25.7545 97.5073 25.7545C97.5073 25.6035 97.5451 25.4715 97.6205 25.3394C97.696 25.2074 97.8092 25.113 97.9412 25.0376L98.1865 24.8866C98.3186 24.8112 98.4318 24.7923 98.5073 24.83C98.5827 24.8678 98.6205 24.9621 98.6205 25.113V25.2828C98.6205 25.4715 98.545 25.6224 98.3941 25.7545C98.545 25.6979 98.6205 25.7733 98.6205 25.962V26.1318C98.6205 26.2828 98.5827 26.4148 98.5073 26.5469C98.4318 26.679 98.3186 26.7733 98.1865 26.8676L97.9412 27.0186C97.8092 27.094 97.696 27.1129 97.6205 27.0752C97.5451 27.0374 97.5073 26.9431 97.5073 26.7921V26.6789C97.5073 26.6412 97.5262 26.6224 97.5639 26.6035L97.7526 26.4903C97.8092 26.5091 97.8092 26.6223 97.8092 26.6223C97.8092 26.6978 97.8281 26.7356 97.8658 26.7544C97.9035 26.7733 97.9412 26.7544 98.0167 26.7167L98.1865 26.6223C98.3186 26.5469 98.3941 26.4337 98.3941 26.2828V26.1129C98.3941 25.962 98.3186 25.9243 98.1865 26.0186L98.0356 26.1129C97.979 26.0941 97.979 25.9431 97.979 25.9431C97.979 25.9054 97.9979 25.8677 98.0356 25.8488Z" fill="#FFC41D"/>
<path d="M99.2617 25.83V26.0753C99.2617 26.1319 99.2428 26.1885 99.2051 26.2828L99.0541 26.6601C98.9786 26.679 98.9786 25.9809 98.9786 25.9809C98.9786 25.9432 98.9975 25.9243 99.0352 25.9054L99.2239 25.7922C99.2428 25.7922 99.2617 25.7922 99.2617 25.83Z" fill="#FFC41D"/>
<path d="M100.243 25.679L99.658 26.0186C99.6014 25.9997 99.6014 25.8299 99.6014 25.8299C99.6014 25.7922 99.6202 25.7733 99.658 25.7544L100.186 25.4526C100.318 25.3771 100.394 25.2639 100.394 25.113V24.8677L99.9598 25.113C99.8278 25.1884 99.7146 25.2073 99.6391 25.1696C99.5637 25.1318 99.5259 25.0375 99.5259 24.8866V24.6036C99.5259 24.4526 99.5637 24.3206 99.6391 24.1885C99.7146 24.0564 99.8278 23.9621 99.9598 23.8678L100.224 23.7168C100.356 23.6414 100.469 23.6225 100.545 23.6602C100.62 23.698 100.658 23.7923 100.658 23.9432V24.962C100.658 25.113 100.62 25.245 100.545 25.3771C100.507 25.4903 100.394 25.6035 100.243 25.679ZM100.016 24.8111L100.413 24.5847V24.0942C100.413 23.9432 100.337 23.9055 100.205 23.981L100.016 24.0942C99.8844 24.1696 99.8089 24.2828 99.8089 24.4338V24.6979C99.8089 24.8677 99.8844 24.8866 100.016 24.8111Z" fill="#FFC41D"/>
<path d="M101.639 23.83L101.469 23.9244C101.431 23.9432 101.413 23.9621 101.375 23.9998C101.299 24.1319 101.28 24.1696 101.243 24.1885L101.073 24.2828C101.016 24.2639 101.016 23.3018 101.016 23.3018C101.016 23.2641 101.035 23.2452 101.073 23.2263L102.035 22.6792C102.092 22.6981 102.092 22.8678 102.092 22.8678C102.092 22.9056 102.073 22.9245 102.035 22.9433L101.299 23.3584V23.9244C101.337 23.8112 101.413 23.7168 101.545 23.6414L101.714 23.547C101.846 23.4716 101.96 23.4527 102.035 23.4904C102.111 23.5282 102.148 23.6225 102.148 23.7734V24.1319C102.148 24.2828 102.111 24.4149 102.035 24.5469C101.96 24.679 101.846 24.7734 101.714 24.8677L101.469 24.9997C101.337 25.0752 101.224 25.0941 101.148 25.0563C101.073 25.0186 101.035 24.9243 101.035 24.7733C101.035 24.6602 101.054 24.6224 101.092 24.6035L101.262 24.5092C101.318 24.7545 101.375 24.7922 101.507 24.7168L101.677 24.6224C101.809 24.5469 101.884 24.4337 101.884 24.2828V23.981C101.884 23.8866 101.865 23.83 101.828 23.8112C101.771 23.7734 101.714 23.7923 101.639 23.83Z" fill="#FFC41D"/>
<path d="M102.903 23.0377L103.054 22.9434C103.186 22.8679 103.261 22.7547 103.261 22.6037V22.4528C103.261 22.3019 103.186 22.2642 103.054 22.3585L102.884 22.4528C102.808 22.4905 102.771 22.5471 102.733 22.5849C102.695 22.6415 102.676 22.6981 102.676 22.7736C102.676 22.9056 102.658 22.9245 102.62 22.9434L102.431 23.0566C102.375 23.0377 102.375 22.9434 102.375 22.9434C102.375 22.7924 102.412 22.6603 102.488 22.5283C102.563 22.3962 102.676 22.3019 102.808 22.2264L103.054 22.0755C103.186 22 103.299 21.9811 103.374 22.0189C103.45 22.0566 103.488 22.151 103.488 22.3019V22.4717C103.488 22.6604 103.412 22.8113 103.261 22.9434C103.412 22.8868 103.488 22.9622 103.488 23.1509V23.3207C103.488 23.4716 103.45 23.6037 103.374 23.7358C103.299 23.8678 103.186 23.9622 103.054 24.0565L102.808 24.2074C102.676 24.2829 102.563 24.3018 102.488 24.264C102.412 24.2263 102.375 24.132 102.375 23.981V23.8678C102.375 23.8301 102.393 23.8112 102.431 23.7924L102.62 23.6792C102.676 23.698 102.676 23.8112 102.676 23.8112C102.676 23.8867 102.695 23.9244 102.733 23.9433C102.771 23.9622 102.808 23.9433 102.884 23.9056L103.054 23.8112C103.186 23.7357 103.261 23.6226 103.261 23.4716V23.3018C103.261 23.1509 103.186 23.1132 103.054 23.2075L102.903 23.3018C102.846 23.283 102.846 23.132 102.846 23.132C102.846 23.0943 102.865 23.0566 102.903 23.0377Z" fill="#FFC41D"/>
<path d="M95.2057 28.7542L94.168 27.4147L96.2433 26.2261L95.2057 28.7542Z" fill="#DB3E3E"/>
<path d="M46.6238 58.1297V58.7145L47.2087 58.375V67.2046L46.6238 67.5441V68.1479L47.2087 67.8083V76.619L46.6238 76.9775V77.5623L47.2087 77.2228V86.0523L46.6238 86.3919V86.9957L47.2087 86.6372V95.4668L46.6238 95.8253V96.4101L47.2087 96.0705V104.9L46.6238 105.24V105.843L47.7747 105.183V57.4694L46.6238 58.1297Z" fill="#E4E2E8"/>
<path d="M81.1498 114.277L72.9239 119.031L70.792 117.805L79.0179 113.051L81.1498 114.277Z" fill="#FFD91F"/>
<path d="M75.735 119.711L75.9426 119.597C76.1312 119.484 76.1312 119.39 75.9426 119.277L75.7539 119.163C75.5652 119.069 75.3954 119.069 75.2068 119.163L74.9804 119.296C74.886 119.352 74.8483 119.409 74.8483 119.447C74.8483 119.503 74.886 119.541 74.9804 119.597L75.0936 119.654C75.1313 119.673 75.1313 119.711 75.0936 119.73L74.8483 119.862C74.8105 119.88 74.7728 119.88 74.7162 119.862L74.603 119.786C74.4143 119.673 74.3389 119.579 74.3389 119.447C74.3389 119.333 74.4332 119.22 74.6219 119.107L74.9426 118.918C75.1313 118.805 75.3199 118.767 75.5275 118.748C75.735 118.748 75.9237 118.805 76.0935 118.899L76.301 119.013C76.5274 119.145 76.5652 119.277 76.4142 119.428C76.6595 119.333 76.9048 119.371 77.1312 119.503L77.3387 119.635C77.5274 119.748 77.6028 119.843 77.6028 119.975C77.6028 120.088 77.5085 120.201 77.3198 120.314L76.9991 120.503C76.8104 120.616 76.6218 120.654 76.4142 120.673C76.2067 120.673 76.018 120.616 75.8482 120.522L75.7162 120.446C75.6784 120.428 75.6784 120.39 75.7162 120.371L75.9614 120.239C75.9991 120.22 76.0558 120.22 76.0935 120.239L76.2255 120.314C76.3199 120.371 76.4142 120.39 76.4897 120.39C76.584 120.39 76.6595 120.371 76.7538 120.314L76.9802 120.182C77.1689 120.069 77.1689 119.975 76.9802 119.862L76.7727 119.748C76.584 119.635 76.4142 119.654 76.2255 119.748L76.018 119.862C75.9803 119.88 75.9426 119.88 75.886 119.862L75.7162 119.767C75.6973 119.767 75.6973 119.729 75.735 119.711Z" fill="white"/>
<path d="M78.1879 119.258L78.6406 119.522C78.6784 119.541 78.6784 119.579 78.6406 119.597L78.3954 119.748C78.3577 119.767 78.3199 119.767 78.2633 119.748L77.8105 119.484C77.7728 119.465 77.7728 119.446 77.8105 119.409L78.0558 119.258C78.1124 119.239 78.1501 119.239 78.1879 119.258Z" fill="white"/>
<path d="M78.6403 118.126L78.414 118.258C78.3574 118.277 78.3385 118.315 78.3196 118.333C78.3385 118.447 78.3385 118.484 78.3008 118.503L78.0744 118.635C78.0366 118.654 77.9989 118.654 77.9423 118.635L76.7726 117.956C76.7348 117.937 76.7348 117.9 76.7726 117.881L78.0366 117.145C78.0744 117.126 78.1309 117.126 78.1687 117.145L78.3762 117.277C78.4139 117.296 78.4139 117.334 78.3762 117.352L77.414 117.9L78.0932 118.296C78.0178 118.201 78.0555 118.107 78.2253 118.013L78.4517 117.881C78.6215 117.786 78.8101 117.73 78.9988 117.73C79.1875 117.73 79.3762 117.786 79.546 117.881L79.9799 118.126C80.1686 118.239 80.244 118.333 80.244 118.465C80.244 118.579 80.1497 118.692 79.9799 118.805L79.6592 118.994C79.4705 119.107 79.2818 119.145 79.0743 119.145C78.8668 119.145 78.6781 119.088 78.4894 118.994L78.3951 118.937C78.3574 118.918 78.3574 118.881 78.3951 118.862L78.6215 118.73C78.6592 118.711 78.7158 118.711 78.7536 118.73L78.8479 118.786C79.0365 118.899 79.2064 118.899 79.395 118.786L79.6026 118.654C79.7912 118.541 79.7912 118.447 79.6026 118.333L79.2252 118.107C79.112 118.05 79.0177 118.013 78.9234 118.013C78.8479 118.032 78.7535 118.069 78.6403 118.126Z" fill="white"/>
<path d="M81.8479 117.749L81.0933 118.182C81.0367 118.201 80.9989 118.22 80.9612 118.182L80.7725 118.069C80.7348 118.05 80.7348 118.013 80.7914 117.994L81.4895 117.579C81.6593 117.484 81.6593 117.371 81.4895 117.258L81.1876 117.088L80.6216 117.428C80.4329 117.541 80.2443 117.579 80.0367 117.598C79.8292 117.598 79.6405 117.541 79.4519 117.447L79.0934 117.239C78.9047 117.126 78.8104 117.013 78.8104 116.9C78.8104 116.786 78.9047 116.673 79.0934 116.56L79.4519 116.352C79.6405 116.239 79.8292 116.201 80.0367 116.183C80.2443 116.164 80.4329 116.239 80.6216 116.334L81.8668 117.05C82.0555 117.164 82.1309 117.258 82.1309 117.39C82.1309 117.522 82.0366 117.635 81.8479 117.749ZM80.3386 117.22L80.8669 116.918L80.282 116.579C80.0933 116.466 79.9235 116.466 79.7349 116.579L79.4896 116.73C79.3198 116.824 79.3198 116.937 79.4896 117.05L79.8103 117.239C79.9801 117.315 80.1499 117.315 80.3386 117.22Z" fill="white"/>
<path d="M83.2252 116.956L82.961 117.107C82.9044 117.126 82.8856 117.126 82.8478 117.088L81.6592 115.485L80.7159 116.032C80.6782 116.051 80.6216 116.051 80.5839 116.032L80.3763 115.918C80.3386 115.9 80.3386 115.862 80.3763 115.843L81.6404 115.107C81.6781 115.088 81.7347 115.088 81.7724 115.107L81.9988 115.239C82.0366 115.258 82.0743 115.296 82.112 115.352L83.244 116.881C83.2818 116.881 83.2818 116.918 83.2252 116.956Z" fill="white"/>
<path d="M92.4507 107.749L84.2248 112.503L82.0929 111.277L90.3188 106.523L92.4507 107.749Z" fill="#6780FF"/>
<path d="M88.5642 113.862L88.168 114.088C87.9793 114.202 87.7907 114.258 87.602 114.258C87.4133 114.258 87.2247 114.22 87.036 114.107L86.8285 113.994C86.6021 113.862 86.5266 113.73 86.6398 113.579C86.3945 113.636 86.1681 113.598 85.9229 113.466L85.7342 113.353C85.5644 113.258 85.4701 113.145 85.4701 113.032C85.4701 112.919 85.5644 112.805 85.7531 112.711L86.1493 112.485C86.338 112.372 86.5266 112.315 86.7153 112.315C86.904 112.315 87.0926 112.353 87.2813 112.466L87.4699 112.579C87.5831 112.655 87.6586 112.711 87.6963 112.787C87.7341 112.862 87.7152 112.919 87.6774 112.994C87.9038 112.938 88.1491 112.975 88.3755 113.107L88.5642 113.22C88.7528 113.334 88.8283 113.428 88.8283 113.541C88.8472 113.654 88.7528 113.749 88.5642 113.862ZM86.8662 113.277L87.1681 113.107C87.3567 113.013 87.3379 112.9 87.1492 112.787L86.9605 112.673C86.8662 112.617 86.7719 112.598 86.6964 112.598C86.6021 112.598 86.5266 112.617 86.4323 112.673L86.1304 112.843C86.0361 112.9 85.9984 112.956 85.9984 112.994C85.9984 113.051 86.0361 113.088 86.1304 113.145L86.3191 113.258C86.5077 113.39 86.6964 113.39 86.8662 113.277ZM87.9039 113.881L88.2057 113.711C88.3 113.654 88.3378 113.598 88.3378 113.56C88.3378 113.503 88.3 113.466 88.2057 113.409L87.9982 113.296C87.8095 113.183 87.6209 113.183 87.4511 113.296L87.1492 113.466C86.9605 113.56 86.9794 113.673 87.1681 113.787L87.3756 113.9C87.4699 113.956 87.5643 113.975 87.6397 113.975C87.7341 113.956 87.8095 113.937 87.9039 113.881Z" fill="white"/>
<path d="M89.4132 112.786L89.866 113.051C89.9037 113.069 89.9037 113.107 89.866 113.126L89.6207 113.277C89.583 113.296 89.5453 113.296 89.4887 113.277L89.0359 113.013C88.9981 112.994 88.9981 112.975 89.0359 112.937L89.2811 112.786C89.3189 112.768 89.3755 112.768 89.4132 112.786Z" fill="white"/>
<path d="M89.5829 111.711L89.7905 111.598C89.9791 111.485 89.9791 111.39 89.7905 111.277L89.6018 111.164C89.4131 111.07 89.2433 111.07 89.0546 111.164L88.8282 111.296C88.7339 111.353 88.6962 111.409 88.6962 111.447C88.6962 111.504 88.7339 111.541 88.8282 111.598L88.9414 111.654C88.9792 111.673 88.9792 111.711 88.9414 111.73L88.6962 111.862C88.6584 111.881 88.6207 111.881 88.5641 111.862L88.4509 111.787C88.2622 111.673 88.1868 111.579 88.1868 111.447C88.1868 111.334 88.2811 111.221 88.4698 111.107L88.7905 110.919C88.9792 110.805 89.1679 110.768 89.3754 110.749C89.5829 110.749 89.7716 110.806 89.9414 110.9L90.1489 111.013C90.3754 111.145 90.4131 111.277 90.2621 111.428C90.5074 111.334 90.7526 111.371 90.979 111.504L91.1866 111.636C91.3753 111.749 91.4507 111.843 91.4507 111.975C91.4507 112.088 91.3564 112.202 91.1677 112.315L90.847 112.503C90.6583 112.617 90.4697 112.654 90.2621 112.673C90.0546 112.673 89.8659 112.617 89.6961 112.522L89.564 112.447C89.5263 112.428 89.5263 112.39 89.564 112.371L89.8093 112.239C89.847 112.22 89.9036 112.22 89.9414 112.239L90.0735 112.315C90.1678 112.371 90.2621 112.39 90.3376 112.39C90.4319 112.39 90.5074 112.371 90.6017 112.315L90.8281 112.183C91.0168 112.07 91.0168 111.975 90.8281 111.862L90.6206 111.749C90.432 111.636 90.2621 111.654 90.0735 111.749L89.8659 111.862C89.8282 111.881 89.7905 111.881 89.7339 111.862L89.564 111.768C89.5452 111.768 89.5263 111.749 89.5829 111.711Z" fill="white"/>
<path d="M93.1867 111.202L92.7905 111.428C92.6019 111.541 92.4131 111.598 92.2245 111.598C92.0358 111.598 91.8472 111.56 91.6585 111.447L91.4509 111.334C91.2245 111.202 91.1491 111.07 91.2623 110.919C91.017 110.975 90.7906 110.938 90.5454 110.805L90.3567 110.692C90.1869 110.598 90.0925 110.485 90.0925 110.372C90.0925 110.258 90.1869 110.145 90.3756 110.051L90.7718 109.824C90.9604 109.711 91.1491 109.655 91.3377 109.655C91.5264 109.655 91.7151 109.692 91.9038 109.806L92.0925 109.919C92.2057 109.994 92.2811 110.051 92.3189 110.126C92.3566 110.202 92.3377 110.258 92.3 110.334C92.5264 110.277 92.7716 110.315 92.998 110.447L93.1867 110.56C93.3754 110.673 93.4509 110.768 93.4509 110.881C93.4509 110.994 93.3565 111.088 93.1867 111.202ZM91.4887 110.617L91.7906 110.447C91.9793 110.353 91.9604 110.24 91.7717 110.126L91.583 110.013C91.4887 109.957 91.3944 109.938 91.3189 109.938C91.2246 109.938 91.1491 109.957 91.0548 110.013L90.7529 110.183C90.6585 110.24 90.6209 110.296 90.6209 110.334C90.6209 110.39 90.6585 110.428 90.7529 110.485L90.9416 110.598C91.1114 110.73 91.3 110.73 91.4887 110.617ZM92.5075 111.221L92.8093 111.051C92.9037 110.994 92.9414 110.938 92.9414 110.9C92.9414 110.843 92.9037 110.805 92.8093 110.749L92.6018 110.636C92.4132 110.522 92.2245 110.522 92.0547 110.636L91.7528 110.805C91.5641 110.9 91.583 111.013 91.7717 111.126L91.9792 111.239C92.0735 111.296 92.1679 111.315 92.2434 111.315C92.3377 111.296 92.4321 111.277 92.5075 111.221Z" fill="white"/>
<path d="M95.0923 110.089L94.3375 110.523C94.2809 110.541 94.2433 110.56 94.2055 110.523L94.0168 110.409C93.9791 110.391 93.9791 110.353 94.0357 110.334L94.7338 109.919C94.9036 109.824 94.9036 109.711 94.7338 109.598L94.4319 109.428L93.8659 109.768C93.6772 109.881 93.4885 109.919 93.281 109.938C93.0735 109.938 92.8848 109.881 92.6961 109.787L92.3377 109.579C92.149 109.466 92.0547 109.353 92.0547 109.24C92.0547 109.126 92.149 109.013 92.3377 108.9L92.6961 108.692C92.8848 108.579 93.0735 108.542 93.281 108.523C93.4885 108.523 93.6772 108.579 93.8659 108.674L95.1111 109.391C95.2997 109.504 95.3752 109.598 95.3752 109.73C95.3564 109.881 95.2809 109.994 95.0923 110.089ZM93.5641 109.579L94.0923 109.277L93.5075 108.938C93.3188 108.825 93.149 108.825 92.9603 108.938L92.715 109.089C92.5452 109.183 92.5452 109.296 92.715 109.409L93.0358 109.598C93.2245 109.674 93.3943 109.674 93.5641 109.579Z" fill="white"/>
<path d="M103.771 101.221L95.5451 105.976L93.3943 104.749L101.639 99.995L103.771 101.221Z" fill="#7934E5"/>
<path d="M97.5074 106.617L97.281 106.485C97.2433 106.466 97.2244 106.428 97.2432 106.41L97.3942 106.051C97.4131 106.013 97.4319 105.976 97.4696 105.957L97.6961 105.825C97.7338 105.806 97.7715 105.806 97.8281 105.825L100.092 107.127C100.13 107.145 100.13 107.183 100.092 107.202L99.8468 107.334C99.8091 107.353 99.7713 107.353 99.7147 107.334L97.7715 106.202L97.6017 106.579C97.6017 106.636 97.564 106.636 97.5074 106.617Z" fill="white"/>
<path d="M100.469 106.391L100.922 106.655C100.96 106.674 100.96 106.711 100.922 106.73L100.677 106.881C100.639 106.9 100.602 106.9 100.545 106.881L100.092 106.617C100.054 106.598 100.054 106.579 100.092 106.542L100.337 106.391C100.394 106.372 100.432 106.372 100.469 106.391Z" fill="white"/>
<path d="M101.299 106.428L100.96 106.24C100.809 106.145 100.733 106.032 100.771 105.9L100.903 105.164C100.922 105.032 100.884 104.938 100.752 104.862L100.639 104.787C100.45 104.693 100.281 104.693 100.092 104.787L99.9032 104.9C99.8088 104.957 99.7711 105.013 99.7711 105.051C99.7711 105.108 99.8277 105.145 99.9221 105.202L100.054 105.278C100.092 105.296 100.092 105.334 100.054 105.353L99.8089 105.485C99.7711 105.504 99.7145 105.504 99.6768 105.485L99.5258 105.41C99.3372 105.296 99.2617 105.202 99.2617 105.07C99.2617 104.957 99.356 104.844 99.5447 104.73L99.8277 104.561C100.016 104.447 100.205 104.41 100.394 104.41C100.601 104.41 100.79 104.466 100.96 104.561L101.111 104.655C101.299 104.768 101.394 104.9 101.356 105.07L101.224 105.825C101.205 105.881 101.243 105.938 101.299 105.976L101.413 106.051L102.375 105.485C102.412 105.466 102.469 105.466 102.507 105.485L102.695 105.598C102.733 105.617 102.733 105.655 102.695 105.674L101.394 106.428C101.394 106.466 101.356 106.466 101.299 106.428Z" fill="white"/>
<path d="M102.469 104.278L102.677 104.164C102.865 104.051 102.865 103.957 102.677 103.844L102.488 103.73C102.299 103.636 102.13 103.636 101.941 103.73L101.714 103.863C101.62 103.919 101.582 103.976 101.582 104.013C101.582 104.07 101.62 104.108 101.714 104.164L101.828 104.221C101.865 104.24 101.865 104.278 101.828 104.297L101.582 104.429C101.545 104.447 101.507 104.447 101.45 104.429L101.337 104.353C101.148 104.24 101.073 104.146 101.073 104.013C101.073 103.9 101.167 103.787 101.356 103.674L101.677 103.485C101.865 103.372 102.054 103.334 102.262 103.315C102.469 103.315 102.658 103.372 102.828 103.466L103.035 103.58C103.262 103.712 103.299 103.844 103.148 103.995C103.394 103.9 103.639 103.938 103.865 104.07L104.073 104.202C104.261 104.315 104.337 104.41 104.337 104.542C104.337 104.655 104.243 104.768 104.054 104.881L103.733 105.07C103.545 105.183 103.356 105.221 103.148 105.24C102.941 105.24 102.752 105.183 102.582 105.089L102.45 105.013C102.413 104.995 102.413 104.957 102.45 104.938L102.696 104.806C102.733 104.787 102.79 104.787 102.828 104.806L102.96 104.881C103.054 104.938 103.148 104.957 103.224 104.957C103.318 104.957 103.394 104.938 103.488 104.881L103.714 104.749C103.903 104.636 103.903 104.542 103.714 104.429L103.507 104.315C103.318 104.202 103.148 104.202 102.96 104.315L102.752 104.429C102.714 104.447 102.677 104.447 102.62 104.429L102.45 104.334C102.413 104.334 102.413 104.297 102.469 104.278Z" fill="white"/>
<path d="M106.016 103.787L105.658 103.995C105.469 104.108 105.28 104.146 105.073 104.146C104.865 104.146 104.676 104.089 104.488 103.995L103.243 103.278C103.054 103.164 102.96 103.051 102.96 102.938C102.96 102.825 103.054 102.712 103.243 102.598L103.978 102.165C104.016 102.146 104.054 102.146 104.11 102.165L104.299 102.278C104.337 102.297 104.337 102.315 104.299 102.353L103.601 102.749C103.412 102.844 103.431 102.957 103.601 103.07L103.922 103.259L104.488 102.919C104.676 102.806 104.865 102.768 105.073 102.749C105.28 102.749 105.469 102.806 105.658 102.9L105.978 103.089C106.167 103.202 106.242 103.297 106.242 103.429C106.28 103.58 106.205 103.693 106.016 103.787ZM105.393 103.787L105.639 103.636C105.808 103.542 105.808 103.429 105.639 103.315L105.337 103.146C105.148 103.032 104.978 103.032 104.79 103.146L104.261 103.447L104.827 103.787C105.035 103.881 105.205 103.881 105.393 103.787Z" fill="white"/>
<path d="M115.072 94.6934L106.846 99.4478L104.714 98.2215L112.94 93.467L115.072 94.6934Z" fill="#E952EB"/>
<path d="M111.468 100.636L111.242 100.768C111.204 100.787 111.166 100.787 111.11 100.768L110.714 100.542L109.733 101.108C109.657 101.146 109.582 101.146 109.525 101.108L109.412 101.032C109.355 100.995 109.318 100.976 109.299 100.938L108.657 99.5985C108.695 99.4664 109.035 99.2778 109.035 99.2778C109.11 99.2401 109.185 99.2401 109.242 99.2778L110.751 100.146L111.016 99.9947C111.053 99.9759 111.091 99.9759 111.148 99.9947L111.336 100.108C111.393 100.127 111.393 100.165 111.336 100.183L111.072 100.334L111.468 100.561C111.506 100.598 111.506 100.617 111.468 100.636ZM110.412 100.353L109.091 99.5985L109.676 100.787L110.412 100.353Z" fill="white"/>
<path d="M111.978 99.7495L112.43 100.014C112.468 100.032 112.468 100.07 112.43 100.089L112.185 100.24C112.147 100.259 112.11 100.259 112.053 100.24L111.6 99.9759C111.563 99.957 111.563 99.9381 111.6 99.9004L111.846 99.7495C111.902 99.7306 111.94 99.7306 111.978 99.7495Z" fill="white"/>
<path d="M113.827 99.2778L113.468 99.4853C113.28 99.5985 113.091 99.6363 112.883 99.6363C112.676 99.6363 112.487 99.5797 112.299 99.4853L111.053 98.7684C110.865 98.6552 110.77 98.542 110.77 98.4288C110.77 98.3156 110.865 98.2024 111.053 98.0892L111.789 97.6553C111.827 97.6364 111.865 97.6364 111.921 97.6553L112.11 97.7685C112.148 97.7873 112.148 97.8062 112.11 97.8439L111.412 98.2401C111.223 98.3345 111.242 98.4477 111.412 98.5609L111.733 98.7496L112.299 98.4099C112.487 98.2967 112.676 98.259 112.883 98.2401C113.091 98.2401 113.28 98.2968 113.468 98.3911L113.789 98.5798C113.978 98.693 114.053 98.7873 114.053 98.9194C114.11 99.0703 114.015 99.1646 113.827 99.2778ZM113.204 99.2778L113.449 99.1269C113.619 99.0325 113.619 98.9194 113.449 98.8062L113.148 98.6364C112.959 98.5232 112.789 98.5232 112.6 98.6364L112.072 98.9382L112.638 99.2778C112.846 99.3722 113.034 99.3722 113.204 99.2778Z" fill="white"/>
<path d="M115.808 98.1458L115.411 98.3722C115.223 98.4854 115.034 98.542 114.845 98.542C114.657 98.542 114.468 98.5043 114.279 98.3911L114.072 98.2779C113.846 98.1458 113.77 98.0138 113.883 97.8628C113.638 97.9194 113.412 97.8817 113.166 97.7496L112.978 97.6364C112.808 97.5421 112.714 97.4289 112.714 97.3157C112.714 97.2025 112.808 97.0893 112.996 96.9949L113.393 96.7685C113.581 96.6553 113.77 96.5988 113.959 96.5988C114.147 96.5988 114.336 96.6365 114.525 96.7497L114.713 96.8629C114.827 96.9384 114.902 96.9949 114.94 97.0704C114.978 97.1459 114.959 97.2025 114.921 97.278C115.147 97.2214 115.393 97.2591 115.619 97.3912L115.808 97.5044C115.996 97.6176 116.072 97.7119 116.072 97.8251C116.072 97.9194 115.977 98.0326 115.808 98.1458ZM114.091 97.561L114.393 97.3912C114.581 97.2968 114.562 97.1836 114.374 97.0704L114.185 96.9572C114.091 96.9006 113.996 96.8817 113.921 96.8817C113.827 96.8817 113.751 96.9006 113.657 96.9572L113.355 97.127C113.261 97.1836 113.223 97.2402 113.223 97.278C113.223 97.3346 113.261 97.3723 113.355 97.4289L113.544 97.5421C113.732 97.6553 113.921 97.6553 114.091 97.561ZM115.128 98.1647L115.43 97.9949C115.525 97.9383 115.562 97.8817 115.562 97.8439C115.562 97.7873 115.525 97.7496 115.43 97.693L115.223 97.5798C115.034 97.4666 114.845 97.4666 114.676 97.5798L114.374 97.7496C114.185 97.8628 114.204 97.9571 114.393 98.0703L114.6 98.1835C114.695 98.2401 114.789 98.259 114.864 98.259C114.959 98.2401 115.053 98.2024 115.128 98.1647Z" fill="white"/>
<path d="M117.713 97.0328L116.959 97.4667C116.902 97.4855 116.864 97.5044 116.826 97.4667L116.638 97.3535C116.6 97.3346 116.6 97.2969 116.657 97.2781L117.355 96.863C117.524 96.7686 117.524 96.6554 117.355 96.5422L117.053 96.3724L116.487 96.712C116.298 96.8252 116.11 96.8629 115.902 96.8818C115.694 96.8818 115.506 96.8252 115.317 96.7309L114.959 96.5233C114.77 96.4101 114.676 96.2969 114.676 96.1837C114.676 96.0705 114.77 95.9574 114.959 95.8442L115.317 95.6366C115.506 95.5234 115.694 95.4857 115.902 95.4668C116.11 95.4668 116.298 95.5234 116.487 95.6178L117.732 96.3347C117.921 96.4479 117.996 96.5422 117.996 96.6743C117.977 96.8252 117.902 96.9384 117.713 97.0328ZM116.185 96.5045L116.713 96.2026L116.128 95.863C115.94 95.7498 115.77 95.7498 115.581 95.863L115.336 96.014C115.166 96.1083 115.166 96.2215 115.336 96.3347L115.657 96.5233C115.827 96.6177 116.015 96.6177 116.185 96.5045Z" fill="white"/>
<path d="M126.392 88.1655L118.148 92.92L116.016 91.6936L124.26 86.9392L126.392 88.1655Z" fill="#A82EDB"/>
<path d="M121.261 93.5236L121.034 93.6557C120.978 93.6746 120.959 93.7123 120.94 93.7312C120.959 93.8444 120.959 93.8821 120.921 93.901L120.695 94.033C120.657 94.0519 120.619 94.0519 120.563 94.033L119.393 93.3538C119.355 93.335 119.355 93.2972 119.393 93.2783L120.657 92.5426C120.695 92.5237 120.751 92.5237 120.789 92.5426L120.996 92.6747C121.034 92.6935 121.034 92.7312 120.996 92.7501L120.034 93.2972L120.713 93.6934C120.638 93.5991 120.676 93.5048 120.845 93.4104L121.072 93.2783C121.242 93.184 121.43 93.1274 121.619 93.1274C121.808 93.1274 121.996 93.184 122.166 93.2783L122.6 93.5236C122.789 93.6368 122.864 93.7312 122.864 93.8633C122.864 93.9765 122.77 94.0896 122.6 94.2028L122.279 94.3915C122.091 94.5047 121.902 94.5424 121.694 94.5424C121.487 94.5424 121.298 94.4858 121.11 94.3915L121.015 94.3349C120.978 94.3161 120.978 94.2783 121.015 94.2594L121.242 94.1274C121.279 94.1085 121.336 94.1085 121.374 94.1274L121.468 94.184C121.657 94.2972 121.827 94.2972 122.015 94.184L122.223 94.0519C122.411 93.9387 122.411 93.8444 122.223 93.7312L121.845 93.5048C121.732 93.4482 121.638 93.4104 121.544 93.4104C121.468 93.4293 121.374 93.467 121.261 93.5236Z" fill="white"/>
<path d="M123.392 93.165L123.845 93.4292C123.883 93.4481 123.883 93.4858 123.845 93.5047L123.6 93.6556C123.562 93.6745 123.524 93.6745 123.468 93.6556L123.015 93.3915C122.977 93.3726 122.977 93.3537 123.015 93.316L123.26 93.165C123.317 93.1273 123.355 93.1273 123.392 93.165Z" fill="white"/>
<path d="M125.279 92.6557L124.883 92.8821C124.694 92.9953 124.506 93.0519 124.317 93.0519C124.128 93.0519 123.94 93.0142 123.751 92.901L123.543 92.7878C123.317 92.6557 123.242 92.5236 123.355 92.3727C123.11 92.4293 122.883 92.3916 122.638 92.2595L122.449 92.1463C122.279 92.052 122.185 91.9388 122.185 91.8256C122.185 91.7124 122.279 91.5992 122.468 91.5049L122.864 91.2784C123.053 91.1652 123.242 91.1086 123.43 91.1086C123.619 91.1086 123.808 91.1464 123.996 91.2596L124.185 91.3728C124.298 91.4483 124.374 91.5048 124.411 91.5803C124.449 91.6558 124.43 91.7124 124.392 91.7879C124.619 91.7313 124.864 91.769 125.091 91.9011L125.279 92.0143C125.468 92.1274 125.543 92.2217 125.543 92.3349C125.562 92.4481 125.468 92.5614 125.279 92.6557ZM123.581 92.0897L123.883 91.9199C124.072 91.8256 124.053 91.7124 123.864 91.5992L123.676 91.486C123.581 91.4294 123.487 91.4105 123.411 91.4105C123.317 91.4105 123.242 91.4294 123.147 91.486L122.845 91.6558C122.751 91.7124 122.713 91.769 122.713 91.8067C122.713 91.8633 122.751 91.9011 122.845 91.9577L123.034 92.0708C123.223 92.184 123.411 92.1841 123.581 92.0897ZM124.619 92.6746L124.921 92.5048C125.015 92.4482 125.053 92.3916 125.053 92.3538C125.053 92.2972 125.015 92.2595 124.921 92.2029L124.713 92.0897C124.525 91.9765 124.336 91.9765 124.166 92.0897L123.864 92.2595C123.676 92.3727 123.694 92.467 123.883 92.5802L124.091 92.6934C124.185 92.75 124.279 92.7689 124.355 92.7689C124.449 92.7689 124.525 92.7312 124.619 92.6746Z" fill="white"/>
<path d="M125.845 90.8823L125.619 91.0143C125.562 91.0332 125.543 91.071 125.525 91.0898C125.543 91.203 125.543 91.2407 125.506 91.2596L125.279 91.3916C125.242 91.4105 125.204 91.4105 125.147 91.3916L123.978 90.7125C123.94 90.6936 123.94 90.6559 123.978 90.637L125.242 89.9012C125.279 89.8824 125.336 89.8824 125.374 89.9012L125.581 90.0333C125.619 90.0521 125.619 90.0899 125.581 90.1087L124.619 90.6559L125.298 91.0521C125.223 90.9577 125.26 90.8634 125.43 90.7691L125.657 90.637C125.826 90.5427 126.015 90.4861 126.204 90.4861C126.392 90.4861 126.581 90.5427 126.751 90.637L127.185 90.8823C127.373 90.9955 127.449 91.0898 127.449 91.2218C127.449 91.335 127.355 91.4483 127.185 91.5615L126.864 91.7501C126.675 91.8633 126.487 91.9011 126.279 91.9011C126.072 91.9011 125.883 91.8444 125.694 91.7501L125.6 91.6935C125.562 91.6746 125.562 91.6369 125.6 91.6181L125.826 91.486C125.864 91.4671 125.921 91.4671 125.958 91.486L126.053 91.5426C126.242 91.6558 126.411 91.6558 126.6 91.5426L126.808 91.4105C126.996 91.2973 126.996 91.203 126.808 91.0898L126.43 90.8634C126.317 90.8068 126.223 90.7691 126.128 90.7691C126.053 90.7879 125.94 90.8257 125.845 90.8823Z" fill="white"/>
<path d="M129.071 90.4861L128.713 90.6936C128.524 90.8068 128.336 90.8445 128.128 90.8445C127.92 90.8445 127.732 90.7879 127.543 90.6936L126.298 89.9766C126.109 89.8634 126.015 89.7503 126.015 89.6371C126.015 89.5239 126.109 89.4107 126.298 89.2975L127.034 88.8635C127.071 88.8446 127.109 88.8446 127.166 88.8635L127.354 88.9767C127.392 88.9956 127.392 89.0145 127.354 89.0522L126.656 89.4484C126.468 89.5427 126.487 89.6559 126.656 89.7691L126.977 89.9578L127.543 89.6182C127.732 89.505 127.92 89.4672 128.128 89.4484C128.336 89.4484 128.524 89.505 128.713 89.5993L129.034 89.788C129.222 89.9012 129.298 89.9955 129.298 90.1276C129.354 90.2597 129.26 90.3729 129.071 90.4861ZM128.449 90.4672L128.694 90.3163C128.864 90.2219 128.864 90.1087 128.694 89.9955L128.392 89.8257C128.203 89.7125 128.034 89.7125 127.845 89.8257L127.317 90.1276L127.883 90.4672C128.09 90.5804 128.279 90.5804 128.449 90.4672Z" fill="white"/>
<path d="M125.77 118.428L150.013 113.051C155.145 120.786 148.466 129.446 135.09 132.408C134.203 132.596 133.411 132.747 132.505 132.898L125.77 118.428Z" fill="#FFD91F"/>
<path d="M125.769 118.428L105.601 108.994C112.827 103.844 124.373 102.051 135.071 104.429L125.769 118.428Z" fill="#E952EB"/>
<path d="M125.769 118.428L100.13 120.767C98.9411 116.409 100.79 112.428 105.601 108.994L125.769 118.428Z" fill="#8022B2"/>
<path d="M125.769 118.428L132.486 132.898C118.638 135.049 104.393 130.295 100.696 122.295C100.45 121.767 100.28 121.295 100.13 120.767L125.769 118.428Z" fill="#7948D8"/>
<path d="M125.77 118.428L135.071 104.428C142.203 106.013 147.259 108.938 149.994 113.051L125.77 118.428Z" fill="#7BA4FF"/>
<path d="M137.391 142.52L140.297 140.841L140.995 141.237L138.089 142.917L137.391 142.52ZM139.165 147.86L134.637 150.482L135.335 150.878L140.712 147.784L142.579 146.709L141.881 146.312L139.165 147.86ZM141.127 144.35L140.429 143.954L138.165 145.275L136.674 146.143L137.372 146.539L138.863 145.671L141.127 144.35ZM135.599 146.728L131.863 148.878L132.561 149.275L136.297 147.124L135.599 146.728ZM135.467 144.426L137.033 143.52L136.335 143.124L133.637 144.671L129.146 147.275L129.845 147.671L135.467 144.426ZM128.279 145.388L131.939 143.275L131.241 142.879L127.581 144.992L126.392 145.671L127.09 146.067L128.279 145.388ZM135.618 141.162L136.787 140.483L136.089 140.086L134.523 140.992L132.316 142.275L133.014 142.671L135.618 141.162ZM145.843 143.992L142.938 145.671L143.636 146.067L146.541 144.388L145.843 143.992ZM154.466 139.03L151.749 140.596L152.447 140.992L155.164 139.426L154.466 139.03ZM146.164 134.276L144.542 135.219L145.24 135.615L146.862 134.672L146.164 134.276ZM143.466 135.823L142.07 136.634L142.768 137.03L144.164 136.219L143.466 135.823ZM148.938 135.841L146.259 137.389L146.957 137.785L149.636 136.238L148.938 135.841ZM147.674 139.747L146.523 140.407L147.221 140.803L148.372 140.143L147.674 139.747ZM149.447 139.539L152.428 137.822L151.73 137.426L148.749 139.143L149.447 139.539ZM158.673 136.596L157.503 137.275L158.201 137.671L159.371 136.992L158.673 136.596ZM150.371 131.842L148.749 132.785L149.447 133.181L151.069 132.238L150.371 131.842ZM153.164 133.408L152.032 134.068L152.73 134.464L153.862 133.804L153.164 133.408ZM154.522 135.804L155.22 136.2L156.635 135.37L155.937 134.974L154.522 135.804ZM131.297 153.199L132.505 152.501L131.807 152.105L130.599 152.803L131.297 153.199ZM122.996 148.444L123.732 148.01L123.034 147.614L122.298 148.048L122.996 148.444ZM125.769 150.029L127.015 149.312L126.316 148.916L125.071 149.633L125.769 150.029ZM127.864 151.199L128.562 151.595L129.505 151.048L128.807 150.652L127.864 151.199Z" fill="white"/>
<path d="M163.106 127.672L166.012 125.993L166.71 126.389L163.804 128.068L163.106 127.672ZM164.88 133.012L160.352 135.634L161.05 136.03L166.427 132.936L168.295 131.861L167.596 131.464L164.88 133.012ZM166.823 129.502L166.125 129.106L163.861 130.427L162.37 131.295L163.068 131.691L164.559 130.823L166.823 129.502ZM161.295 131.898L157.559 134.049L158.257 134.445L161.993 132.295L161.295 131.898ZM161.163 129.597L162.729 128.691L162.031 128.295L159.333 129.842L154.843 132.445L155.541 132.842L161.163 129.597ZM153.994 130.54L157.654 128.427L156.956 128.031L153.295 130.144L152.107 130.823L152.805 131.219L153.994 130.54ZM161.314 126.314L162.484 125.635L161.785 125.238L160.22 126.144L158.012 127.427L158.71 127.823L161.314 126.314ZM171.54 129.163L168.634 130.842L169.332 131.238L172.238 129.559L171.54 129.163ZM180.18 124.182L177.464 125.748L178.162 126.144L180.879 124.578L180.18 124.182ZM171.86 119.427L170.238 120.371L170.936 120.767L172.558 119.824L171.86 119.427ZM169.162 120.993L167.766 121.805L168.464 122.201L169.86 121.39L169.162 120.993ZM174.653 120.993L171.974 122.54L172.672 122.937L175.351 121.39L174.653 120.993ZM173.389 124.918L172.238 125.578L172.936 125.974L174.087 125.314L173.389 124.918ZM175.143 124.691L178.124 122.974L177.426 122.578L174.445 124.295L175.143 124.691ZM184.388 121.748L183.218 122.427L183.916 122.823L185.086 122.144L184.388 121.748ZM176.086 116.994L174.464 117.937L175.162 118.333L176.784 117.39L176.086 116.994ZM178.86 118.578L177.728 119.239L178.426 119.635L179.558 118.994L178.86 118.578ZM180.218 120.975L180.916 121.371L182.331 120.541L181.633 120.144L180.218 120.975Z" fill="white"/>
<path d="M146.655 147.539L145.957 147.143L143.693 148.463L142.203 149.331L142.901 149.727L144.391 148.859L146.655 147.539ZM141.127 149.935L137.392 152.086L138.09 152.482L141.825 150.331L141.127 149.935ZM153.202 142.954L152.051 143.615L152.749 144.011L153.9 143.35L153.202 142.954ZM154.975 142.728L157.956 141.011L157.258 140.615L154.277 142.332L154.975 142.728ZM160.032 139.011L160.73 139.407L162.145 138.577L161.447 138.181L160.032 139.011ZM133.392 154.387L134.09 154.784L135.033 154.236L134.335 153.84L133.392 154.387Z" fill="white"/>
<path d="M172.352 132.691L171.654 132.295L169.39 133.615L167.899 134.483L168.597 134.879L170.088 134.011L172.352 132.691ZM166.824 135.087L163.088 137.238L163.786 137.634L167.522 135.483L166.824 135.087ZM178.917 128.106L177.766 128.766L178.464 129.163L179.615 128.502L178.917 128.106ZM180.672 127.899L183.653 126.182L182.955 125.786L179.974 127.502L180.672 127.899ZM185.747 124.163L186.445 124.559L187.86 123.748L187.162 123.352L185.747 124.163Z" fill="white"/>
<path d="M117.902 145.463L119.11 144.765L118.412 144.369L117.204 145.067L117.902 145.463ZM109.601 140.728L110.337 140.294L109.639 139.898L108.903 140.332L109.601 140.728ZM112.374 142.294L113.619 141.577L112.921 141.181L111.676 141.898L112.374 142.294ZM114.469 143.464L115.167 143.86L116.11 143.313L115.412 142.916L114.469 143.464Z" fill="white"/>
<path d="M170.993 114.013L169.823 114.692L170.521 115.088L171.691 114.409L170.993 114.013ZM162.692 109.258L161.069 110.202L161.767 110.598L163.39 109.655L162.692 109.258ZM165.465 110.843L164.333 111.503L165.031 111.9L166.163 111.239L165.465 110.843ZM166.823 113.239L167.521 113.635L168.936 112.805L168.238 112.409L166.823 113.239Z" fill="white"/>
<path d="M104.526 137.747L105.733 137.049L105.035 136.653L103.828 137.351L104.526 137.747ZM96.2055 132.992L96.9413 132.559L96.2432 132.162L95.5074 132.596L96.2055 132.992ZM98.9977 134.558L100.243 133.841L99.5449 133.445L98.2997 134.162L98.9977 134.558ZM101.073 135.747L101.771 136.143L102.714 135.596L102.016 135.2L101.073 135.747Z" fill="white"/>
<path d="M157.616 106.277L156.447 106.957L157.145 107.353L158.315 106.674L157.616 106.277ZM149.296 101.542L147.674 102.485L148.372 102.881L149.994 101.938L149.296 101.542ZM152.089 103.108L150.956 103.749L151.655 104.145L152.787 103.504L152.089 103.108ZM153.447 105.504L154.145 105.9L155.56 105.07L154.862 104.674L153.447 105.504Z" fill="white"/>
<path d="M91.1303 130.012L92.3378 129.314L91.6397 128.917L90.4323 129.615L91.1303 130.012ZM82.8101 125.257L83.5459 124.823L82.8479 124.427L82.1121 124.861L82.8101 125.257ZM85.6024 126.842L86.8476 126.125L86.1495 125.729L84.9043 126.446L85.6024 126.842ZM87.6966 128.012L88.3946 128.408L89.338 127.861L88.6399 127.465L87.6966 128.012Z" fill="white"/>
<path d="M144.221 98.5609L143.051 99.2401L143.75 99.6364L144.919 98.9571L144.221 98.5609ZM135.92 93.8065L134.297 94.7498L134.995 95.1461L136.618 94.2028L135.92 93.8065ZM138.693 95.3725L137.561 96.0328L138.259 96.429L139.391 95.7687L138.693 95.3725ZM140.052 97.7874L140.75 98.1836L142.165 97.3535L141.467 96.9573L140.052 97.7874Z" fill="white"/>
<defs>
<linearGradient id="paint0_linear_1011_4029" x1="118.21" y1="84.0502" x2="103.117" y2="216.116" gradientUnits="userSpaceOnUse">
<stop stop-color="#5917FF"/>
<stop offset="0.1588" stop-color="#6D22F8"/>
<stop offset="0.4847" stop-color="#A13DE7"/>
<stop offset="0.9459" stop-color="#F569CA"/>
<stop offset="1" stop-color="#FF6EC7"/>
</linearGradient>
<linearGradient id="paint1_linear_1011_4029" x1="134.36" y1="150.204" x2="152.822" y2="150.204" gradientUnits="userSpaceOnUse">
<stop stop-color="#C0B9C8"/>
<stop offset="1" stop-color="#E0DBE1"/>
</linearGradient>
</defs>
</svg>
