<svg width="179" height="105" viewBox="0 0 179 105" fill="none" xmlns="http://www.w3.org/2000/svg">
<path opacity="0.4" d="M39.1143 39.8315L0 62.4618L30.2873 79.9529H50.6664L39.1143 39.8315Z" fill="#50197C"/>
<path d="M50.6516 79.9529L123.282 38.0098V27.0205L50.6516 43.8303V79.9529Z" fill="#D8D2B8"/>
<path d="M14.7512 59.2183L50.6516 79.9529V43.8303L14.7512 48.229V59.2183Z" fill="#C4BEA3"/>
<path d="M123.283 27.0205L50.6523 68.9488L14.7815 48.229L87.3969 6.30078L123.283 27.0205Z" fill="#FFF9E1"/>
<path d="M17.4761 48.6438L49.7776 67.2901L120.423 26.5022L88.1217 7.87073L17.4761 48.6438ZM113.522 23.5846C115.047 24.4584 115.017 25.895 113.477 26.7984L50.2663 63.2913C48.7112 64.1799 46.2231 64.1947 44.7124 63.3209L24.5258 51.6651C23.0004 50.7913 23.03 49.3547 24.5703 48.4512L87.7811 11.9584C89.3362 11.0698 91.8243 11.055 93.335 11.9288L113.522 23.5846Z" fill="#687A51"/>
<path d="M52.903 28.309C45.868 32.3671 47.3639 39.8315 56.2057 44.9411C65.0623 50.0507 77.977 50.9097 84.9971 46.8517C92.0321 42.7936 90.5362 35.3292 81.6944 30.2196C72.8526 25.11 59.9379 24.251 52.903 28.309ZM84.8194 46.748C77.8881 50.7468 65.1364 49.8878 56.3834 44.8375C47.6305 39.7871 46.1494 32.4263 53.0807 28.4275C60.012 24.4287 72.7637 25.2877 81.5167 30.3381C90.2696 35.3884 91.7507 42.7492 84.8194 46.748Z" fill="#A5AA9F"/>
<path d="M81.1464 30.5454C89.7068 35.4921 91.2027 42.6604 84.4639 46.5407C77.7252 50.4358 65.3141 49.5768 56.7537 44.6301C48.1933 39.6835 46.6974 32.5152 53.4361 28.6349C60.1749 24.7398 72.586 25.5988 81.1464 30.5454Z" fill="#A5AA9F"/>
<path d="M79.3692 31.5674C86.6855 35.7884 87.9592 41.9051 82.198 45.2374C76.4367 48.5549 65.8473 47.8292 58.531 43.6083C51.2146 39.3873 49.9409 33.2706 55.7022 29.9383C61.4634 26.6059 72.0529 27.3465 79.3692 31.5674Z" fill="#FFF9E1"/>
<path d="M91.7653 29.5382L89.3364 30.9304L90.2843 31.4784L92.7132 30.0714L91.7653 29.5382Z" fill="#687A51"/>
<path d="M93.0391 28.7977L93.9869 29.3457L104.413 23.3179L103.466 22.7699L93.0391 28.7977Z" fill="#687A51"/>
<path d="M45.009 56.5229L42.5801 57.9299L43.5279 58.4779L45.9569 57.0709L45.009 56.5229Z" fill="#687A51"/>
<path d="M46.2979 55.7824L47.2309 56.3304L57.6574 50.3174L56.7244 49.7694L46.2979 55.7824Z" fill="#687A51"/>
<path d="M26.4666 49.9619L27.7699 50.7024L40.3587 43.4305L39.0702 42.6899L26.4666 49.9619Z" fill="#687A51"/>
<path d="M77.4438 20.5336L78.7323 21.2741L91.336 14.017L90.0327 13.2617L77.4438 20.5336Z" fill="#A5AA9F"/>
<path d="M105.924 28.8125L103.095 27.1833H103.006L102.014 27.9683L102.162 28.0572L102.533 27.9239C102.681 27.8646 102.769 27.8646 102.947 27.9683L105.184 29.2568C105.332 29.3457 105.317 29.3901 105.213 29.4642L104.902 29.6715L105.08 29.7752L106.828 28.7681L106.65 28.6644L106.294 28.8421C106.161 28.8865 106.072 28.9014 105.924 28.8125Z" fill="#687A51"/>
<path d="M105.436 25.7763C104.517 26.3095 105.006 26.9315 105.88 27.4499C106.768 27.9535 107.85 28.2348 108.768 27.7017C109.686 27.1685 109.212 26.5465 108.324 26.0281C107.435 25.5246 106.354 25.258 105.436 25.7763ZM108.546 27.5832C108.146 27.8202 107.198 27.3166 106.65 27.0056C106.102 26.6946 105.243 26.1466 105.643 25.9096C106.043 25.6727 106.991 26.1762 107.539 26.4872C108.087 26.7982 108.946 27.3462 108.546 27.5832Z" fill="#687A51"/>
<path d="M108.175 24.1916C107.257 24.7248 107.746 25.3468 108.619 25.8652C109.508 26.3688 110.589 26.6502 111.507 26.117C112.426 25.5838 111.952 24.9618 111.063 24.4434C110.189 23.9398 109.108 23.6585 108.175 24.1916ZM111.3 25.9985C110.9 26.2355 109.952 25.7319 109.404 25.4209C108.856 25.1099 107.997 24.5619 108.397 24.3249C108.797 24.088 109.745 24.5915 110.293 24.9025C110.856 25.2136 111.7 25.7615 111.3 25.9985Z" fill="#687A51"/>
<path d="M81.8427 14.4614L79.947 13.3655C79.8877 13.3655 79.2361 13.8987 79.2361 13.8987L79.3398 13.9579L79.5915 13.869C79.6952 13.8246 79.7545 13.8246 79.8729 13.8987L81.3688 14.7577C81.4725 14.8169 81.4576 14.8465 81.3836 14.9058L81.1762 15.0391L81.2947 15.1131L82.4648 14.4318L82.3463 14.3578L82.1093 14.4763C82.0056 14.5207 81.9464 14.5207 81.8427 14.4614Z" fill="#FFF9E1"/>
<path d="M81.5168 12.4325C80.8948 12.7879 81.2206 13.2026 81.813 13.5581C82.4054 13.8987 83.1311 14.0912 83.7532 13.7358C84.3752 13.3803 84.0494 12.9656 83.457 12.6102C82.8497 12.2695 82.124 12.077 81.5168 12.4325ZM83.605 13.6469C83.3385 13.8098 82.7016 13.4692 82.3314 13.2619C81.9611 13.0545 81.3983 12.6842 81.6649 12.5361C81.9315 12.3732 82.5683 12.7139 82.9386 12.9212C83.294 13.1286 83.8716 13.484 83.605 13.6469Z" fill="#FFF9E1"/>
<path d="M83.3532 11.3661C82.7312 11.7215 83.057 12.1362 83.6494 12.4917C84.2419 12.8323 84.9676 13.0248 85.5896 12.6694C86.2117 12.3139 85.8858 11.8992 85.2934 11.5438C84.701 11.2031 83.9753 11.0106 83.3532 11.3661ZM85.4415 12.5805C85.1749 12.7434 84.5381 12.4028 84.1678 12.1954C83.7975 11.9881 83.2348 11.6178 83.5013 11.4697C83.7679 11.3068 84.4048 11.6475 84.7751 11.8548C85.1453 12.0622 85.7081 12.4176 85.4415 12.5805Z" fill="#FFF9E1"/>
<path d="M26.6145 46.3482L24.7187 45.2522C24.6595 45.2522 24.0078 45.7854 24.0078 45.7854L24.1115 45.8446L24.3633 45.7558C24.4669 45.7113 24.5262 45.7113 24.6447 45.7854L26.1405 46.6444C26.2442 46.7036 26.2294 46.7332 26.1553 46.7925L25.948 46.9258L26.0665 46.9998L27.2365 46.3185L27.118 46.2445L26.881 46.363C26.7774 46.4074 26.7181 46.4074 26.6145 46.3482Z" fill="#FFF9E1"/>
<path d="M26.2885 44.3192C25.6665 44.6746 25.9923 45.0893 26.5847 45.4448C27.1772 45.7854 27.9029 45.9779 28.5249 45.6225C29.1469 45.267 28.8211 44.8524 28.2287 44.4969C27.6363 44.1563 26.8958 43.9637 26.2885 44.3192ZM28.3768 45.5188C28.1102 45.6817 27.4734 45.3411 27.1031 45.1338C26.7328 44.9264 26.1701 44.5561 26.4366 44.408C26.7032 44.2451 27.3401 44.5858 27.7103 44.7931C28.0658 45.0005 28.6434 45.3707 28.3768 45.5188Z" fill="#FFF9E1"/>
<path d="M28.125 43.2528C27.5029 43.6082 27.8287 44.0229 28.4212 44.3784C29.0136 44.719 29.7393 44.9115 30.3613 44.5561C30.9833 44.2006 30.6575 43.7859 30.0651 43.4305C29.4727 43.0899 28.747 42.8973 28.125 43.2528ZM30.2132 44.4672C29.9466 44.6301 29.3098 44.2895 28.9395 44.0821C28.5693 43.8748 28.0065 43.5045 28.2731 43.3564C28.5396 43.1935 29.1765 43.5342 29.5467 43.7415C29.917 43.9489 30.4798 44.3043 30.2132 44.4672Z" fill="#FFF9E1"/>
<path d="M53.0067 62.7876L53.2585 62.9357C53.451 63.0542 53.451 63.2319 53.2585 63.3504L50.9036 64.7129C50.6963 64.8314 50.3705 64.8314 50.1779 64.7129L49.9261 64.5648C49.7336 64.4612 49.7336 64.2835 49.8965 64.165L50.2075 63.9428L47.3195 62.2692L46.89 62.4321C46.6827 62.5062 46.4161 62.4914 46.2531 62.4025L46.0458 62.284C45.8681 62.1804 45.8533 62.0175 46.0014 61.899L47.3195 60.8474C47.4676 60.7586 47.5861 60.7289 47.7046 60.7289H47.8082C47.9563 60.7289 48.1045 60.7586 48.2081 60.8178L51.9255 62.9653L52.2958 62.7876C52.518 62.6691 52.8142 62.6839 53.0067 62.7876ZM58.9309 57.1448C60.5896 58.0927 60.797 59.0702 59.5233 59.8107C58.5902 60.3439 57.4498 60.4179 56.2502 60.0477C56.887 60.7438 56.7685 61.3954 55.8355 61.9434C54.5618 62.6839 52.8734 62.5506 51.2294 61.6028C49.5707 60.6549 49.3633 59.6774 50.637 58.9369C51.5701 58.4037 52.7105 58.3297 53.9101 58.6999C53.2733 58.0038 53.3918 57.3522 54.3248 56.8042C55.5985 56.0637 57.2869 56.1822 58.9309 57.1448Z" fill="#FFF9E1"/>
<path d="M51.6441 63.2171L47.8378 61.0251H47.7341L46.416 62.0767L46.6234 62.1952L47.1121 62.0026C47.3195 61.9286 47.438 61.9286 47.6601 62.0619L50.6518 63.7947C50.8591 63.9132 50.8295 63.9872 50.6814 64.0761L50.2667 64.3575L50.5185 64.5056L52.8733 63.143L52.6216 62.9949L52.1328 63.2319C51.9699 63.3208 51.8514 63.3356 51.6441 63.2171Z" fill="#A5AA9F"/>
<path d="M50.9927 59.1443C49.7634 59.8552 50.4003 60.6994 51.5851 61.3807C52.7699 62.062 54.2361 62.4323 55.4654 61.7214C56.6947 61.0105 56.0578 60.1663 54.873 59.485C53.6882 58.8037 52.2219 58.4334 50.9927 59.1443ZM55.1692 61.5584C54.6212 61.8695 53.3623 61.203 52.6218 60.7883C51.8813 60.3588 50.7409 59.6331 51.2741 59.3221C51.822 59.011 53.0809 59.6775 53.8215 60.0922C54.5768 60.5217 55.7172 61.2474 55.1692 61.5584Z" fill="#A5AA9F"/>
<path d="M54.6804 57.0116C53.4512 57.7225 54.088 58.5667 55.2729 59.248C56.4577 59.9293 57.9239 60.2996 59.1532 59.5887C60.3824 58.8778 59.7456 58.0336 58.5608 57.3523C57.3907 56.671 55.9245 56.3007 54.6804 57.0116ZM58.8718 59.4257C58.3238 59.7368 57.0649 59.0703 56.3244 58.6556C55.5839 58.2261 54.4435 57.5004 54.9766 57.1894C55.5246 56.8783 56.7835 57.5448 57.524 57.9595C58.2645 58.389 59.4198 59.1147 58.8718 59.4257Z" fill="#A5AA9F"/>
<path d="M86.819 21.0667C84.6122 22.3404 84.5826 24.3991 86.7449 25.6432C88.9221 26.902 92.4617 26.8724 94.6685 25.5987C96.8752 24.325 96.9049 22.2664 94.7426 21.0223C92.5802 19.7782 89.0257 19.793 86.819 21.0667ZM94.2538 25.3618C92.284 26.5022 89.1146 26.517 87.1892 25.3914C85.2491 24.2806 85.2787 22.4441 87.2485 21.3037C89.2183 20.1633 92.3877 20.1485 94.3131 21.2741C96.2384 22.3997 96.2236 24.2214 94.2538 25.3618Z" fill="#A5AA9F"/>
<path d="M40.0475 48.0661C37.8407 49.3398 37.8111 51.3985 39.9734 52.6425C42.1506 53.9014 45.6902 53.8718 47.897 52.5981C50.1037 51.3244 50.1334 49.2658 47.971 48.0217C45.8087 46.7776 42.2542 46.7924 40.0475 48.0661ZM47.4823 52.3611C45.5125 53.5015 42.3431 53.5163 40.4177 52.3908C38.4776 51.28 38.5072 49.4435 40.477 48.3031C42.4468 47.1627 45.6162 47.1479 47.5415 48.2735C49.4817 49.3991 49.4521 51.2207 47.4823 52.3611Z" fill="#A5AA9F"/>
<path d="M90.2992 21.5111C90.1955 21.7628 89.8845 21.9406 89.4846 21.9998L89.2773 22.0294C88.8774 22.0887 88.5664 22.2664 88.4775 22.4886L88.4331 22.607C88.3442 22.844 88.0332 23.0217 87.6333 23.0662C87.2334 23.1254 87.1001 23.3772 87.3667 23.5253L89.4105 24.6953C89.6031 24.8138 89.8697 24.873 90.1511 24.873L93.3057 24.8582L93.4242 24.799L93.4538 22.9773C93.4538 22.8144 93.3501 22.6663 93.1576 22.5478L91.1138 21.3778C90.8175 21.2297 90.3732 21.3037 90.2992 21.5111Z" fill="#687A51"/>
<path d="M43.5128 48.5253C43.4091 48.7771 43.0981 48.9548 42.6982 49.0141L42.4909 49.0437C42.091 49.1029 41.78 49.2807 41.6911 49.5028L41.6467 49.6213C41.5578 49.8583 41.2468 50.036 40.8469 50.0804C40.4471 50.1397 40.3138 50.3915 40.5803 50.5396L42.6242 51.7096C42.8167 51.8281 43.0833 51.8873 43.3647 51.8873L46.5193 51.8725L46.6378 51.8133L46.6674 49.9916C46.6674 49.8287 46.5637 49.6806 46.3712 49.5621L44.3274 48.3921C44.0312 48.244 43.5869 48.318 43.5128 48.5253Z" fill="#687A51"/>
<path d="M68.661 35.4181L67.0911 35.8476L61.9964 32.9151C62.7665 32.6041 64.0254 32.5153 66.4247 33.1521C67.0467 33.3002 67.491 33.3002 68.0538 32.9892C68.5277 32.7078 69.5941 31.7303 68.4093 31.049C67.3725 30.4566 64.2624 30.3974 60.8708 32.2635L58.901 31.1231L57.494 31.9377L59.4638 33.0781C56.6646 34.8109 55.7908 37.0324 58.901 38.8245C61.1966 40.1574 64.1439 39.9057 67.2393 39.0763L69.0165 38.5875L74.8222 41.9347C74.215 42.1717 72.8228 42.4382 69.5941 41.6385C68.824 41.4608 68.3056 41.4756 67.6984 41.8162C67.0467 42.1865 66.6024 43.2676 67.6687 43.8897C68.5129 44.3784 71.5935 44.9264 75.9626 42.5863L78.5248 44.0674L79.9318 43.2528L77.3696 41.7718C79.68 40.4388 81.5609 37.8322 78.036 35.7736C75.2813 34.2185 72.3192 34.4406 68.661 35.4181ZM65.1362 36.3364C63.5811 36.8695 61.8631 36.9732 60.6782 36.2919C59.449 35.581 59.3897 34.4999 60.5894 33.7149L65.1362 36.3364ZM76.2292 41.1201L70.8974 38.0395C72.7783 37.5508 74.7185 37.61 76.2292 38.4691C77.6806 39.3132 77.5621 40.35 76.2292 41.1201Z" fill="#687A51"/>
<path d="M98.8895 33.3594L92.7135 36.9287L92.3433 36.7065L98.5192 33.1372L98.8895 33.3594Z" fill="#A5AA9F"/>
<path d="M67.595 51.428L61.4191 54.9974L61.0488 54.79L67.2248 51.2207L67.595 51.428Z" fill="#A5AA9F"/>
<path d="M59.0336 22.6659L43.5715 31.5818L79.4868 52.3163L94.934 43.4005L59.0336 22.6659Z" fill="#F9F8F2"/>
<path d="M94.9347 54.4643L79.4727 63.3801V52.3168L94.9347 43.4009V54.4643Z" fill="#E5E2D8"/>
<path d="M93.2312 44.3783L57.3308 23.6437L59.271 22.533L95.1714 43.2527V54.3309L93.2312 55.4565V44.3783Z" fill="#788EFF"/>
<path d="M79.1762 52.4944L43.261 31.7598L45.2012 30.649L81.1016 51.3836V62.4618L79.1762 63.5726V52.4944Z" fill="#788EFF"/>
<path d="M93.2314 44.3783L95.1717 43.2527V54.3309L93.2314 55.4565V44.3783Z" fill="#576FD3"/>
<path d="M79.176 52.4943L81.1014 51.3835V62.4617L79.176 63.5725V52.4943Z" fill="#576FD3"/>
<g opacity="0.8">
<path opacity="0.8" d="M53.8951 49.2065C51.6143 47.9032 48.4152 47.4885 45.5124 47.9328C42.5799 47.4885 39.3216 47.918 37.026 49.2658C33.59 51.2652 33.6048 54.479 37.0557 56.4488C38.7589 57.4263 40.9952 57.9003 43.2168 57.9003H47.6747C49.9407 57.9003 52.1919 57.4115 53.9247 56.4044C57.3607 54.3902 57.3459 51.1763 53.8951 49.2065Z" fill="#C4BEA3"/>
<path opacity="0.8" d="M43.4092 41.0164C41.1284 39.713 37.9294 39.2983 35.0265 39.7427C32.0941 39.2983 28.8358 39.7278 26.5402 41.0756C23.1042 43.075 23.119 46.2889 26.5698 48.2586C28.273 49.2361 30.5094 49.7101 32.7309 49.7101H37.1889C39.4549 49.7101 41.706 49.2213 43.4389 48.2142C46.8749 46.2 46.8601 42.9861 43.4092 41.0164Z" fill="#C4BEA3"/>
</g>
<path opacity="0.4" d="M140.462 46.5556C139.247 46.4815 137.944 46.7037 136.922 47.2961L79.354 80.6047C77.6952 81.5674 77.5175 83.004 78.9541 83.8334L113.433 103.694C114.218 104.153 115.343 104.361 116.454 104.257L143.468 47.0591C142.698 46.6 141.572 46.4519 140.462 46.5556Z" fill="#50197C"/>
<path d="M178.91 68.4008C178.895 69.0229 178.451 69.6745 177.562 70.1929L119.994 103.501C118.335 104.464 115.832 104.568 114.396 103.738L79.917 83.8777C79.2061 83.463 78.8951 82.915 78.9544 82.3374C78.984 82.0116 78.9988 81.7302 79.0432 81.3451C79.1173 80.7675 79.5616 80.1603 80.391 79.6863L137.959 46.3777C139.618 45.4151 142.121 45.3114 143.557 46.1408L178.036 66.0015C178.643 66.357 178.969 66.8161 178.999 67.3197C179.013 67.7195 178.91 68.075 178.91 68.4008Z" fill="#E0DBE1"/>
<path d="M137.944 46.3925L80.3757 79.7011C78.7169 80.6638 78.5392 82.1004 79.9758 82.9298L114.454 102.791C115.891 103.62 118.394 103.516 120.053 102.554L177.621 69.245C179.28 68.2823 179.457 66.8457 178.021 66.0163L143.542 46.1555C142.105 45.3262 139.602 45.4298 137.944 46.3925Z" fill="#788EFF"/>
<path d="M129.902 55.2936C129.414 55.575 129.103 55.9453 129.058 56.3304C129.014 56.7006 129.221 57.0561 129.651 57.293L131.931 58.5964C132.82 59.0999 134.375 59.0407 135.397 58.4483L143.661 53.6645C144.15 53.3831 144.461 53.0128 144.505 52.6278C144.55 52.2427 144.342 51.9021 143.913 51.6651L141.632 50.347C140.744 49.8434 139.188 49.9026 138.167 50.4951L129.902 55.2936Z" fill="#F0F2FF"/>
<path opacity="0.4" d="M111.256 94.4967C110.767 94.7781 110.456 95.1483 110.412 95.5334C110.367 95.9036 110.575 96.2591 111.004 96.4961L115.373 99.0138C116.262 99.5174 117.817 99.4581 118.839 98.8657L127.844 93.6525C128.332 93.3711 128.643 93.0008 128.688 92.6157C128.732 92.2307 128.525 91.89 128.095 91.6531L123.711 89.1353C122.823 88.6317 121.268 88.691 120.246 89.2834L111.256 94.4967Z" fill="#3452A5"/>
<path d="M127.518 93.7562L118.513 98.9695C117.669 99.4582 116.38 99.5174 115.655 99.0879L111.271 96.5702C110.53 96.1407 110.634 95.415 111.478 94.9262L120.483 89.713C121.327 89.2242 122.615 89.165 123.341 89.5945L127.725 92.1122C128.451 92.5269 128.362 93.2674 127.518 93.7562Z" fill="#FFC440"/>
<g opacity="0.6">
<path opacity="0.6" d="M122.675 90.6311L119.846 92.275C118.943 91.9048 117.58 91.9936 116.647 92.5268C115.714 93.06 115.551 93.8449 116.203 94.3633L113.226 96.0961L111.33 95.0001C111.241 95.0594 111.167 95.1186 111.108 95.1779L118.024 99.1619C118.128 99.1174 118.232 99.0878 118.335 99.0286L116.617 98.0363L119.609 96.3035C120.513 96.6441 121.831 96.5404 122.734 96.0221C123.638 95.5037 123.815 94.7335 123.223 94.2152L126.066 92.5712L127.77 93.5487C127.844 93.4895 127.918 93.4154 127.977 93.3562L121.135 89.4166C121.016 89.4462 120.898 89.4907 120.794 89.5351L122.675 90.6311ZM119.357 96.2146L116.395 97.9326L113.463 96.2442L116.425 94.5262L119.313 96.185C119.328 96.1998 119.342 96.1998 119.357 96.2146ZM119.89 96.1702L122.971 94.3929C123.445 94.8372 123.267 95.4741 122.512 95.9036C121.757 96.3479 120.661 96.4367 119.89 96.1702ZM119.565 92.4379L116.469 94.23C115.951 93.7857 116.099 93.134 116.869 92.6749C117.654 92.2158 118.794 92.1269 119.565 92.4379ZM122.719 94.2152C122.764 94.2448 119.624 96.0517 119.624 96.0517C119.579 96.0221 116.691 94.3633 116.691 94.3633L119.831 92.5416L122.719 94.2152ZM122.912 90.7644L125.844 92.4528L123.03 94.0819C122.986 94.0523 120.098 92.3935 120.098 92.3935L122.912 90.7644Z" fill="#D88C1D"/>
</g>
<path d="M167.461 69.8374C169.465 69.8374 171.089 68.8958 171.089 67.7343C171.089 66.5728 169.465 65.6312 167.461 65.6312C165.457 65.6312 163.832 66.5728 163.832 67.7343C163.832 68.8958 165.457 69.8374 167.461 69.8374Z" fill="#F4AC1C"/>
<path d="M161.552 73.2585C163.556 73.2585 165.18 72.3169 165.18 71.1554C165.18 69.9939 163.556 69.0524 161.552 69.0524C159.548 69.0524 157.923 69.9939 157.923 71.1554C157.923 72.3169 159.548 73.2585 161.552 73.2585Z" fill="#B53333"/>
<path d="M99.5855 88.1727L99.0375 88.4985C98.7857 88.6466 98.6672 88.7948 98.6672 88.9725C98.6672 89.1354 98.8005 89.2983 99.0523 89.4464L100.978 90.5572C101.229 90.7053 101.511 90.7793 101.792 90.7793C102.074 90.7793 102.355 90.7053 102.607 90.5572L103.155 90.2314C103.407 90.0833 103.525 89.9352 103.54 89.7574C103.54 89.5945 103.421 89.4316 103.155 89.2835L101.229 88.1727C100.978 88.0246 100.696 87.9506 100.415 87.9506C100.104 87.9654 99.8373 88.0394 99.5855 88.1727ZM102.725 89.5056C103.051 89.6834 103.051 89.8759 102.74 90.0536L102.281 90.3202C101.97 90.4979 101.659 90.4979 101.348 90.3054L99.467 89.2094C99.1412 89.0317 99.1412 88.8392 99.4522 88.6615L99.9113 88.3949C100.222 88.2171 100.533 88.2171 100.859 88.4097L102.725 89.5056Z" fill="#F4A9FF"/>
<path d="M102.414 86.5583L101.866 86.8842C101.615 87.0323 101.496 87.1804 101.496 87.3581C101.496 87.521 101.629 87.6839 101.881 87.832L103.807 88.9428C104.058 89.0909 104.34 89.165 104.621 89.165C104.902 89.165 105.184 89.0909 105.436 88.9428L105.984 88.617C106.235 88.4689 106.354 88.3208 106.369 88.1431C106.369 87.9801 106.25 87.8172 105.984 87.6691L104.058 86.5583C103.807 86.4102 103.525 86.3362 103.244 86.3362C102.933 86.3362 102.666 86.4102 102.414 86.5583ZM105.539 87.8765C105.865 88.0542 105.865 88.2467 105.554 88.4245L105.095 88.691C104.784 88.8688 104.473 88.8688 104.162 88.6762L102.281 87.5803C101.955 87.4025 101.955 87.21 102.266 87.0323L102.725 86.7657C103.036 86.588 103.347 86.588 103.673 86.7805L105.539 87.8765Z" fill="#F4A9FF"/>
<path d="M105.229 84.9293L104.681 85.2551C104.429 85.4032 104.31 85.5514 104.31 85.7291C104.31 85.892 104.444 86.0549 104.695 86.203L106.621 87.3138C106.872 87.4619 107.154 87.536 107.435 87.536C107.717 87.536 107.998 87.4619 108.25 87.3138L108.798 86.988C109.05 86.8399 109.168 86.6918 109.183 86.514C109.183 86.3511 109.064 86.1882 108.798 86.0401L106.872 84.9293C106.621 84.7812 106.339 84.7072 106.058 84.7072C105.747 84.7072 105.48 84.7812 105.229 84.9293ZM108.368 86.2623C108.694 86.44 108.694 86.6325 108.383 86.8102L107.924 87.0768C107.613 87.2545 107.302 87.2546 106.991 87.062L105.11 85.966C104.784 85.7883 104.784 85.5958 105.095 85.4181L105.554 85.1515C105.865 84.9737 106.176 84.9737 106.502 85.1663L108.368 86.2623Z" fill="#F4A9FF"/>
<path d="M108.042 83.3002L107.494 83.626C107.243 83.7741 107.124 83.9222 107.124 84.0999C107.124 84.2628 107.257 84.4257 107.509 84.5739L109.434 85.6846C109.686 85.8327 109.968 85.9068 110.249 85.9068C110.53 85.9068 110.812 85.8327 111.064 85.6846L111.612 85.3588C111.863 85.2107 111.982 85.0626 111.997 84.8849C111.997 84.722 111.863 84.559 111.612 84.4109L109.686 83.3002C109.434 83.1521 109.153 83.078 108.872 83.078C108.575 83.078 108.294 83.1521 108.042 83.3002ZM111.182 84.6331C111.508 84.8108 111.508 85.0033 111.197 85.1811L110.738 85.4477C110.427 85.6254 110.116 85.6254 109.805 85.4328L107.924 84.3369C107.598 84.1592 107.598 83.9666 107.909 83.7889L108.368 83.5223C108.679 83.3446 108.99 83.3446 109.316 83.5371L111.182 84.6331Z" fill="#F4A9FF"/>
<path d="M114.914 79.3309L114.366 79.6568C114.114 79.8049 113.996 79.953 113.996 80.1307C113.996 80.2936 114.129 80.4565 114.381 80.6046L116.306 81.7154C116.558 81.8635 116.839 81.9376 117.121 81.9376C117.402 81.9376 117.684 81.8635 117.935 81.7154L118.483 81.3896C118.735 81.2415 118.854 81.0934 118.868 80.9156C118.868 80.7527 118.735 80.5898 118.483 80.4417L116.558 79.3309C116.306 79.1828 116.025 79.1088 115.743 79.1088C115.432 79.1088 115.166 79.1828 114.914 79.3309ZM118.054 80.6639C118.38 80.8416 118.38 81.0341 118.069 81.2118L117.61 81.4784C117.299 81.6562 116.988 81.6562 116.677 81.4636L114.796 80.3676C114.47 80.1899 114.47 79.9974 114.781 79.8197L115.24 79.5531C115.551 79.3754 115.862 79.3753 116.188 79.5679L118.054 80.6639Z" fill="#F4A9FF"/>
<path d="M117.728 77.7018L117.18 78.0276C116.929 78.1757 116.81 78.3238 116.81 78.5015C116.81 78.6644 116.943 78.8274 117.195 78.9755L119.121 80.0862C119.372 80.2343 119.654 80.3084 119.935 80.3084C120.216 80.3084 120.498 80.2343 120.75 80.0862L121.298 79.7604C121.549 79.6123 121.668 79.4642 121.683 79.2865C121.683 79.1236 121.549 78.9607 121.298 78.8125L119.372 77.7018C119.12 77.5537 118.839 77.4796 118.558 77.4796C118.247 77.4944 117.98 77.5537 117.728 77.7018ZM120.868 79.0347C121.194 79.2124 121.194 79.405 120.883 79.5827L120.424 79.8493C120.113 80.027 119.802 80.027 119.491 79.8345L117.61 78.7385C117.284 78.5608 117.284 78.3682 117.595 78.1905L118.054 77.9239C118.365 77.7462 118.676 77.7462 119.002 77.9387L120.868 79.0347Z" fill="#F4A9FF"/>
<path d="M120.557 76.0727L120.009 76.3986C119.757 76.5467 119.639 76.6948 119.639 76.8725C119.639 77.0354 119.772 77.1983 120.024 77.3464L121.949 78.4572C122.201 78.6053 122.483 78.6794 122.764 78.6794C123.045 78.6794 123.327 78.6053 123.578 78.4572L124.126 78.1314C124.378 77.9833 124.497 77.8352 124.512 77.6574C124.512 77.4945 124.378 77.3316 124.126 77.1835L122.201 76.0727C121.949 75.9246 121.668 75.8506 121.387 75.8506C121.076 75.8654 120.809 75.9394 120.557 76.0727ZM123.682 77.4057C124.008 77.5834 124.008 77.7759 123.697 77.9537L123.238 78.2203C122.927 78.398 122.616 78.398 122.305 78.2054L120.424 77.1095C120.098 76.9317 120.098 76.7392 120.409 76.5615L120.868 76.2949C121.179 76.1172 121.49 76.1172 121.816 76.3097L123.682 77.4057Z" fill="#F4A9FF"/>
<path d="M123.371 74.4435L122.823 74.7693C122.571 74.9174 122.453 75.0655 122.453 75.2432C122.453 75.4062 122.586 75.5691 122.838 75.7172L124.763 76.828C125.015 76.9761 125.296 77.0501 125.578 77.0501C125.859 77.0501 126.14 76.9761 126.392 76.828L126.94 76.5021C127.192 76.354 127.31 76.2059 127.325 76.0282C127.325 75.8653 127.192 75.7024 126.94 75.5543L125.015 74.4435C124.763 74.2954 124.482 74.2213 124.2 74.2213C123.889 74.2361 123.623 74.3102 123.371 74.4435ZM126.511 75.7764C126.837 75.9541 126.837 76.1467 126.526 76.3244L126.066 76.591C125.755 76.7687 125.444 76.7687 125.133 76.5762L123.252 75.4802C122.927 75.3025 122.927 75.1099 123.238 74.9322L123.697 74.6656C124.008 74.4879 124.319 74.4879 124.645 74.6804L126.511 75.7764Z" fill="#F4A9FF"/>
<path d="M130.243 70.4891L129.695 70.815C129.443 70.9631 129.325 71.1112 129.325 71.2889C129.325 71.4518 129.458 71.6147 129.71 71.7628L131.635 72.8736C131.887 73.0217 132.169 73.0958 132.45 73.0958C132.746 73.0958 133.013 73.0217 133.265 72.8736L133.813 72.5478C134.064 72.3997 134.183 72.2516 134.198 72.0738C134.198 71.9109 134.064 71.748 133.813 71.5999L131.887 70.4891C131.635 70.341 131.354 70.267 131.073 70.267C130.762 70.267 130.48 70.341 130.243 70.4891ZM133.368 71.8221C133.694 71.9998 133.694 72.1923 133.383 72.37L132.924 72.6366C132.613 72.8143 132.302 72.8144 131.991 72.6218L130.11 71.5258C129.784 71.3481 129.784 71.1556 130.095 70.9779L130.554 70.7113C130.865 70.5336 131.176 70.5336 131.502 70.7261L133.368 71.8221Z" fill="#F4A9FF"/>
<path d="M133.057 68.86L132.509 69.1858C132.257 69.3339 132.139 69.482 132.139 69.6597C132.139 69.8227 132.272 69.9856 132.524 70.1337L134.449 71.2445C134.701 71.3926 134.982 71.4666 135.264 71.4666C135.56 71.4666 135.826 71.3926 136.078 71.2445L136.626 70.9186C136.878 70.7705 136.997 70.6224 137.011 70.4447C137.011 70.2818 136.878 70.1189 136.626 69.9708L134.701 68.86C134.449 68.7119 134.168 68.6378 133.886 68.6378C133.575 68.6378 133.309 68.7119 133.057 68.86ZM136.197 70.1929C136.523 70.3706 136.523 70.5632 136.212 70.7409L135.752 71.0075C135.441 71.1852 135.13 71.1852 134.819 70.9927L132.938 69.8967C132.613 69.719 132.613 69.5265 132.924 69.3487L133.383 69.0821C133.694 68.9044 134.005 68.9044 134.331 69.0969L136.197 70.1929Z" fill="#F4A9FF"/>
<path d="M135.871 67.2307L135.323 67.5565C135.071 67.7046 134.953 67.8527 134.953 68.0305C134.953 68.1934 135.086 68.3563 135.338 68.5044L137.263 69.6152C137.515 69.7633 137.796 69.8373 138.078 69.8373C138.374 69.8373 138.64 69.7633 138.892 69.6152L139.44 69.2894C139.692 69.1412 139.81 68.9931 139.825 68.8154C139.825 68.6525 139.692 68.4896 139.44 68.3415L137.515 67.2307C137.263 67.0826 136.982 67.0085 136.7 67.0085C136.404 67.0085 136.123 67.0826 135.871 67.2307ZM139.011 68.5636C139.337 68.7414 139.337 68.9339 139.026 69.1116L138.566 69.3782C138.255 69.5559 137.944 69.5559 137.633 69.3634L135.752 68.2674C135.427 68.0897 135.427 67.8972 135.738 67.7194L136.197 67.4529C136.508 67.2751 136.819 67.2751 137.145 67.4677L139.011 68.5636Z" fill="#F4A9FF"/>
<path d="M138.7 65.6017L138.152 65.9275C137.9 66.0756 137.782 66.2237 137.782 66.4014C137.782 66.5643 137.915 66.7273 138.167 66.8754L140.092 67.9861C140.344 68.1342 140.625 68.2083 140.907 68.2083C141.203 68.2083 141.47 68.1342 141.721 67.9861L142.269 67.6603C142.521 67.5122 142.64 67.3641 142.654 67.1864C142.654 67.0235 142.521 66.8605 142.269 66.7124L140.344 65.6017C140.092 65.4536 139.811 65.3795 139.529 65.3795C139.218 65.3795 138.952 65.4536 138.7 65.6017ZM141.825 66.9346C142.151 67.1123 142.151 67.3049 141.84 67.4826L141.381 67.7492C141.07 67.9269 140.759 67.9269 140.448 67.7344L138.567 66.6384C138.241 66.4607 138.241 66.2681 138.552 66.0904L139.011 65.8238C139.322 65.6461 139.633 65.6461 139.959 65.8386L141.825 66.9346Z" fill="#F4A9FF"/>
<path d="M145.557 61.6325L145.009 61.9584C144.757 62.1065 144.639 62.2546 144.639 62.4323C144.639 62.5952 144.772 62.7581 145.024 62.9062L146.949 64.017C147.201 64.1651 147.482 64.2392 147.764 64.2392C148.06 64.2392 148.326 64.1651 148.578 64.017L149.126 63.6912C149.378 63.5431 149.496 63.395 149.511 63.2173C149.511 63.0543 149.393 62.8914 149.126 62.7433L147.201 61.6325C146.949 61.4844 146.668 61.4104 146.386 61.4104C146.09 61.4252 145.809 61.4993 145.557 61.6325ZM148.697 62.9655C149.023 63.1432 149.023 63.3358 148.712 63.5135L148.252 63.7801C147.941 63.9578 147.63 63.9578 147.319 63.7653L145.438 62.6693C145.113 62.4916 145.113 62.299 145.424 62.1213L145.883 61.8547C146.194 61.677 146.505 61.677 146.831 61.8695L148.697 62.9655Z" fill="#F4A9FF"/>
<path d="M148.386 60.0033L147.838 60.3291C147.586 60.4772 147.468 60.6253 147.468 60.8031C147.468 60.966 147.601 61.1289 147.853 61.277L149.778 62.3878C150.03 62.5359 150.311 62.6099 150.593 62.6099C150.889 62.6099 151.156 62.5359 151.407 62.3878L151.955 62.0619C152.207 61.9138 152.326 61.7657 152.34 61.588C152.34 61.4251 152.222 61.2622 151.955 61.1141L150.03 60.0033C149.778 59.8552 149.497 59.7811 149.215 59.7811C148.904 59.7959 148.638 59.87 148.386 60.0033ZM151.511 61.3362C151.837 61.514 151.837 61.7065 151.526 61.8842L151.067 62.1508C150.756 62.3285 150.445 62.3285 150.134 62.136L148.253 61.0548C147.927 60.8771 147.927 60.6846 148.238 60.5068L148.697 60.2403C149.008 60.0625 149.319 60.0625 149.645 60.2551L151.511 61.3362Z" fill="#F4A9FF"/>
<path d="M151.2 58.389L150.652 58.7149C150.4 58.863 150.282 59.0111 150.282 59.1888C150.282 59.3517 150.415 59.5146 150.667 59.6627L152.592 60.7735C152.844 60.9216 153.125 60.9957 153.407 60.9957C153.703 60.9957 153.97 60.9216 154.221 60.7735L154.769 60.4477C155.021 60.2996 155.14 60.1515 155.154 59.9738C155.154 59.8108 155.036 59.6479 154.769 59.4998L152.844 58.389C152.592 58.2409 152.311 58.1669 152.029 58.1669C151.718 58.1669 151.452 58.2409 151.2 58.389ZM154.34 59.7072C154.666 59.8849 154.666 60.0774 154.355 60.2551L153.895 60.5217C153.584 60.6995 153.273 60.6995 152.962 60.5069L151.082 59.4109C150.756 59.2332 150.756 59.0407 151.067 58.863L151.526 58.5964C151.837 58.4186 152.148 58.4187 152.474 58.6112L154.34 59.7072Z" fill="#F4A9FF"/>
<path d="M154.828 56.5377C154.532 56.5377 154.265 56.6118 154.014 56.7599L153.466 57.0857C153.214 57.2338 153.095 57.3819 153.095 57.5596C153.095 57.7225 153.229 57.8855 153.481 58.0336L155.406 59.1443C155.658 59.2924 155.939 59.3665 156.22 59.3665C156.517 59.3665 156.783 59.2924 157.035 59.1443L157.583 58.8185C157.835 58.6704 157.953 58.5223 157.968 58.3446C157.968 58.1817 157.85 58.0188 157.583 57.8707L155.658 56.7599C155.391 56.6118 155.125 56.5377 154.828 56.5377ZM157.154 58.078C157.479 58.2557 157.479 58.4483 157.168 58.626L156.709 58.8926C156.398 59.0703 156.087 59.0703 155.776 58.8777L153.895 57.7818C153.569 57.6041 153.569 57.4115 153.88 57.2338L154.34 56.9672C154.651 56.7895 154.962 56.7895 155.287 56.982L157.154 58.078Z" fill="#F4A9FF"/>
<path d="M152.947 57.4708C152.947 57.6485 153.08 57.8114 153.347 57.9595L155.332 59.1147C155.598 59.2628 155.879 59.3517 156.176 59.3517C156.472 59.3517 156.739 59.2776 156.99 59.1295L157.538 58.8037C157.79 58.6556 157.909 58.5075 157.909 58.3298C157.909 58.1521 157.775 58.0039 157.509 57.841L155.524 56.6858C155.257 56.5377 154.976 56.4637 154.68 56.4489C154.384 56.4489 154.102 56.5229 153.865 56.6562L153.317 56.982C153.066 57.1449 152.947 57.293 152.947 57.4708ZM153.762 57.7374C153.436 57.5448 153.421 57.3671 153.732 57.1746L154.191 56.908C154.502 56.7303 154.813 56.7451 155.154 56.9376L157.109 58.0632C157.435 58.2557 157.449 58.4335 157.153 58.6112L156.694 58.8778C156.383 59.0555 156.057 59.0555 155.731 58.863L153.762 57.7374Z" fill="#F0F2FF"/>
<path d="M150.119 59.0999C150.119 59.2776 150.252 59.4406 150.519 59.5887L152.503 60.7439C152.77 60.892 153.051 60.9808 153.347 60.9808C153.644 60.9808 153.91 60.9068 154.162 60.7587L154.71 60.4328C154.962 60.2847 155.08 60.1366 155.08 59.9589C155.08 59.7812 154.947 59.6331 154.68 59.4702L152.696 58.315C152.429 58.1669 152.148 58.0928 151.851 58.078C151.555 58.078 151.274 58.1521 151.037 58.2853L150.489 58.6112C150.237 58.7741 150.119 58.937 150.119 59.0999ZM150.948 59.3665C150.622 59.174 150.607 58.9962 150.918 58.8037L151.378 58.5371C151.689 58.3594 152 58.3742 152.34 58.5667L154.295 59.6923C154.621 59.8849 154.636 60.0626 154.34 60.2403L153.881 60.5069C153.57 60.6846 153.244 60.6846 152.918 60.4921L150.948 59.3665Z" fill="#F0F2FF"/>
<path d="M147.29 60.7291C147.29 60.9068 147.423 61.0697 147.69 61.2178L149.674 62.373C149.941 62.5211 150.222 62.61 150.518 62.61C150.815 62.61 151.081 62.5359 151.333 62.3878L151.881 62.062C152.133 61.9139 152.251 61.7658 152.251 61.5881C152.251 61.4104 152.118 61.2622 151.851 61.0993L149.867 59.9441C149.6 59.796 149.319 59.722 149.023 59.7072C148.726 59.7072 148.445 59.7812 148.208 59.9145L147.66 60.2403C147.408 60.4032 147.29 60.5662 147.29 60.7291ZM148.119 60.9957C147.793 60.8031 147.779 60.6254 148.09 60.4329L148.549 60.1663C148.86 59.9885 149.171 60.0034 149.511 60.1811L151.466 61.3067C151.792 61.4992 151.807 61.6769 151.511 61.8547L151.052 62.1213C150.741 62.299 150.415 62.299 150.089 62.1064L148.119 60.9957Z" fill="#F0F2FF"/>
<path d="M144.475 62.3582C144.475 62.5359 144.609 62.6989 144.875 62.847L146.86 64.0022C147.127 64.1503 147.408 64.2391 147.704 64.2391C148 64.2391 148.267 64.1651 148.519 64.017L149.067 63.6912C149.318 63.543 149.437 63.3949 149.437 63.2172C149.437 63.0395 149.304 62.8914 149.037 62.7285L147.052 61.5733C146.786 61.4252 146.504 61.3511 146.208 61.3363C145.912 61.3363 145.631 61.4104 145.394 61.5436L144.846 61.8695C144.594 62.0324 144.461 62.1953 144.475 62.3582ZM145.29 62.6248C144.964 62.4323 144.949 62.2545 145.26 62.062L145.72 61.7954C146.031 61.6177 146.342 61.6325 146.682 61.8102L148.637 62.9358C148.963 63.1284 148.978 63.3061 148.682 63.4838L148.223 63.7504C147.911 63.9281 147.586 63.9281 147.26 63.7356L145.29 62.6248Z" fill="#F0F2FF"/>
<path d="M137.589 66.3422C137.589 66.5199 137.722 66.6829 137.989 66.831L139.974 67.9862C140.24 68.1343 140.522 68.2231 140.818 68.2231C141.114 68.2231 141.381 68.1491 141.632 68.001L142.18 67.6752C142.432 67.5271 142.551 67.379 142.551 67.2012C142.551 67.0235 142.417 66.8754 142.151 66.7125L140.166 65.5573C139.899 65.4092 139.618 65.3203 139.322 65.3203C139.026 65.3203 138.744 65.3944 138.507 65.5277L137.959 65.8535C137.708 66.0164 137.589 66.1645 137.589 66.3422ZM138.404 66.6088C138.078 66.4163 138.063 66.2386 138.374 66.046L138.833 65.7794C139.144 65.6017 139.455 65.6165 139.796 65.809L141.751 66.9346C142.077 67.1272 142.091 67.3049 141.795 67.4826L141.336 67.7492C141.025 67.9269 140.699 67.9269 140.373 67.7344L138.404 66.6088Z" fill="#F0F2FF"/>
<path d="M134.76 67.9714C134.76 68.1491 134.893 68.312 135.16 68.4601L137.144 69.6153C137.411 69.7634 137.692 69.8523 137.989 69.8523C138.285 69.8523 138.551 69.7782 138.803 69.6301L139.351 69.3043C139.603 69.1562 139.721 69.0081 139.721 68.8304C139.721 68.6526 139.588 68.5046 139.322 68.3416L137.337 67.1864C137.07 67.0383 136.789 66.9643 136.493 66.9495C136.197 66.9495 135.915 67.0235 135.678 67.1568L135.13 67.4826C134.878 67.6455 134.76 67.7937 134.76 67.9714ZM135.575 68.238C135.249 68.0454 135.234 67.8677 135.545 67.6752L136.004 67.4086C136.315 67.2309 136.626 67.2457 136.967 67.4382L138.922 68.5638C139.248 68.7563 139.262 68.934 138.966 69.1118L138.507 69.3784C138.196 69.5561 137.87 69.5561 137.544 69.3635L135.575 68.238Z" fill="#F0F2FF"/>
<path d="M131.931 69.6005C131.931 69.7783 132.064 69.9412 132.331 70.0893L134.316 71.2445C134.582 71.3926 134.864 71.4814 135.16 71.4814C135.456 71.4814 135.723 71.4074 135.974 71.2593L136.522 70.9335C136.774 70.7854 136.893 70.6373 136.893 70.4595C136.893 70.2818 136.759 70.1337 136.493 69.9708L134.508 68.8156C134.242 68.6675 133.96 68.5934 133.664 68.5786C133.368 68.5786 133.086 68.6527 132.849 68.786L132.301 69.1118C132.05 69.2747 131.931 69.4376 131.931 69.6005ZM132.746 69.8671C132.42 69.6746 132.405 69.4969 132.716 69.3043L133.175 69.0377C133.486 68.86 133.797 68.8748 134.138 69.0525L136.093 70.1781C136.419 70.3707 136.434 70.5484 136.137 70.7261L135.678 70.9927C135.367 71.1704 135.041 71.1704 134.716 70.9779L132.746 69.8671Z" fill="#F0F2FF"/>
<path d="M129.103 71.2297C129.103 71.4074 129.236 71.5703 129.502 71.7184L131.487 72.8736C131.754 73.0217 132.035 73.1106 132.331 73.1106C132.627 73.1106 132.894 73.0365 133.146 72.8884L133.694 72.5626C133.946 72.4145 134.064 72.2664 134.064 72.0887C134.064 71.911 133.931 71.7629 133.664 71.5999L131.68 70.4447C131.413 70.2966 131.132 70.2078 130.835 70.2078C130.539 70.2078 130.258 70.2818 130.021 70.4151L129.473 70.7409C129.221 70.9039 129.103 71.0668 129.103 71.2297ZM129.932 71.4963C129.606 71.3037 129.591 71.126 129.902 70.9335L130.361 70.6669C130.672 70.4892 130.983 70.504 131.324 70.6817L133.279 71.8073C133.605 71.9998 133.62 72.1775 133.324 72.3553L132.864 72.6219C132.553 72.7996 132.228 72.7996 131.902 72.607L129.932 71.4963Z" fill="#F0F2FF"/>
<path d="M122.231 75.2136C122.231 75.3913 122.364 75.5542 122.63 75.7023L124.615 76.8575C124.882 77.0056 125.163 77.0945 125.459 77.0945C125.755 77.0945 126.022 77.0204 126.274 76.8723L126.822 76.5465C127.074 76.3984 127.192 76.2503 127.192 76.0726C127.192 75.8948 127.059 75.7468 126.792 75.5838L124.808 74.4286C124.541 74.2805 124.26 74.2065 123.963 74.1917C123.667 74.1917 123.386 74.2657 123.149 74.399L122.601 74.7248C122.349 74.8729 122.216 75.0358 122.231 75.2136ZM123.045 75.4802C122.719 75.2876 122.705 75.1099 123.016 74.9174L123.475 74.6508C123.786 74.473 124.097 74.4879 124.437 74.6804L126.392 75.806C126.718 75.9985 126.733 76.1762 126.437 76.354L125.978 76.6206C125.667 76.7983 125.341 76.7983 125.015 76.6057L123.045 75.4802Z" fill="#F0F2FF"/>
<path d="M119.402 76.8427C119.402 77.0204 119.535 77.1834 119.802 77.3315L121.786 78.4867C122.053 78.6348 122.334 78.7236 122.63 78.7236C122.927 78.7236 123.193 78.6496 123.445 78.5015L123.993 78.1757C124.245 78.0276 124.363 77.8795 124.363 77.7017C124.363 77.524 124.23 77.3759 123.963 77.213L121.979 76.0578C121.712 75.9097 121.431 75.8356 121.135 75.8208C120.838 75.8208 120.557 75.8949 120.32 76.0281L119.772 76.354C119.52 76.5169 119.387 76.665 119.402 76.8427ZM120.216 77.1093C119.89 76.9168 119.876 76.739 120.187 76.5465L120.646 76.2799C120.957 76.1022 121.268 76.117 121.609 76.3095L123.564 77.4351C123.889 77.6277 123.904 77.8054 123.608 77.9831L123.149 78.2497C122.838 78.4274 122.512 78.4274 122.186 78.2349L120.216 77.1093Z" fill="#F0F2FF"/>
<path d="M116.573 78.472C116.573 78.6497 116.706 78.8126 116.973 78.9607L118.957 80.116C119.224 80.2641 119.505 80.3529 119.801 80.3529C120.098 80.3529 120.364 80.2789 120.616 80.1308L121.164 79.8049C121.416 79.6568 121.534 79.5087 121.534 79.331C121.534 79.1533 121.401 79.0052 121.134 78.8423L119.15 77.687C118.883 77.5389 118.602 77.4649 118.306 77.4501C118.009 77.4501 117.728 77.5241 117.491 77.6574L116.943 77.9833C116.691 78.1462 116.573 78.2943 116.573 78.472ZM117.387 78.7386C117.062 78.5461 117.047 78.3683 117.358 78.1758L117.817 77.9092C118.128 77.7315 118.439 77.7463 118.779 77.9388L120.734 79.0644C121.06 79.257 121.075 79.4347 120.779 79.6124L120.32 79.879C120.009 80.0567 119.683 80.0567 119.357 79.8642L117.387 78.7386Z" fill="#F0F2FF"/>
<path d="M113.744 80.1011C113.744 80.2789 113.878 80.4418 114.144 80.5899L116.129 81.7451C116.395 81.8932 116.677 81.9821 116.973 81.9821C117.269 81.9821 117.536 81.908 117.788 81.7599L118.336 81.4341C118.587 81.286 118.706 81.1379 118.706 80.9601C118.706 80.7824 118.573 80.6343 118.306 80.4714L116.321 79.3162C116.055 79.1681 115.773 79.094 115.477 79.0792C115.181 79.0792 114.9 79.1533 114.663 79.2866L114.115 79.6124C113.863 79.7753 113.744 79.9382 113.744 80.1011ZM114.559 80.3677C114.233 80.1752 114.218 79.9975 114.529 79.8049L114.988 79.5383C115.299 79.3606 115.611 79.3754 115.951 79.5532L117.906 80.6787C118.232 80.8713 118.247 81.049 117.951 81.2267L117.491 81.4933C117.18 81.671 116.855 81.671 116.529 81.4785L114.559 80.3677Z" fill="#F0F2FF"/>
<path d="M106.857 84.085C106.857 84.2628 106.991 84.4257 107.257 84.5738L109.242 85.729C109.508 85.8771 109.79 85.9659 110.086 85.9659C110.382 85.9659 110.649 85.8919 110.901 85.7438L111.449 85.418C111.7 85.2699 111.819 85.1218 111.819 84.944C111.819 84.7663 111.686 84.6182 111.419 84.4553L109.434 83.3001C109.168 83.152 108.886 83.0779 108.59 83.0631C108.294 83.0631 108.013 83.1372 107.776 83.2705L107.228 83.5963C106.976 83.7444 106.857 83.9073 106.857 84.085ZM107.687 84.3368C107.361 84.1443 107.346 83.9665 107.657 83.774L108.116 83.5074C108.427 83.3297 108.738 83.3445 109.079 83.537L111.034 84.6626C111.36 84.8552 111.375 85.0329 111.078 85.2106L110.619 85.4772C110.308 85.6549 109.982 85.6549 109.657 85.4624L107.687 84.3368Z" fill="#F0F2FF"/>
<path d="M104.043 85.7142C104.043 85.8919 104.177 86.0548 104.443 86.2029L106.428 87.3581C106.694 87.5062 106.976 87.5951 107.272 87.5951C107.568 87.5951 107.835 87.5211 108.087 87.3729L108.635 87.0471C108.886 86.899 109.005 86.7509 109.005 86.5732C109.005 86.3955 108.872 86.2474 108.605 86.0844L106.62 84.9292C106.354 84.7811 106.072 84.6923 105.776 84.6923C105.48 84.6923 105.199 84.7663 104.962 84.8996L104.414 85.2254C104.162 85.3735 104.029 85.5365 104.043 85.7142ZM104.858 85.9808C104.532 85.7882 104.517 85.6105 104.828 85.418L105.287 85.1514C105.598 84.9737 105.909 84.9885 106.25 85.181L108.205 86.3066C108.531 86.4991 108.546 86.6769 108.249 86.8546L107.79 87.1212C107.479 87.2989 107.154 87.2989 106.828 87.1064L104.858 85.9808Z" fill="#F0F2FF"/>
<path d="M101.214 87.3434C101.214 87.5212 101.348 87.6841 101.614 87.8322L103.599 88.9874C103.866 89.1355 104.147 89.2244 104.443 89.2244C104.739 89.2244 105.006 89.1503 105.258 89.0022L105.806 88.6764C106.058 88.5283 106.176 88.3802 106.176 88.2024C106.176 88.0247 106.043 87.8766 105.776 87.7137L103.792 86.5585C103.525 86.4104 103.244 86.3363 102.947 86.3215C102.651 86.3215 102.37 86.3956 102.133 86.5289L101.585 86.8547C101.333 87.0176 101.2 87.1657 101.214 87.3434ZM102.029 87.61C101.703 87.4175 101.688 87.2398 101.999 87.0472L102.459 86.7806C102.77 86.6029 103.081 86.6177 103.421 86.8103L105.376 87.9359C105.702 88.1284 105.717 88.3061 105.421 88.4838L104.962 88.7504C104.651 88.9282 104.325 88.9281 103.999 88.7356L102.029 87.61Z" fill="#F0F2FF"/>
<path d="M98.7856 89.4612L100.77 90.6164C101.037 90.7645 101.318 90.8534 101.614 90.8534C101.911 90.8534 102.177 90.7793 102.429 90.6312L102.977 90.3054C103.229 90.1573 103.347 90.0092 103.347 89.8315C103.347 89.6538 103.214 89.5057 102.947 89.3427L100.963 88.1875C100.696 88.0394 100.415 87.9506 100.119 87.9506C99.8223 87.9506 99.5409 88.0246 99.304 88.1579L98.756 88.4837C98.5042 88.6318 98.3857 88.7799 98.3857 88.9577C98.3857 89.1502 98.519 89.3131 98.7856 89.4612ZM99.2003 89.2391C98.8745 89.0465 98.8597 88.8688 99.1707 88.6763L99.6298 88.4097C99.9408 88.232 100.252 88.2468 100.592 88.4245L102.547 89.5501C102.873 89.7426 102.888 89.9203 102.592 90.0981L102.133 90.3647C101.822 90.5424 101.496 90.5424 101.17 90.3498L99.2003 89.2391Z" fill="#F0F2FF"/>
<path d="M90.2546 83.1074L89.7214 83.4184C89.4844 83.5517 89.2474 83.611 88.9957 83.611C88.7439 83.611 88.4921 83.5369 88.2552 83.4036L86.6557 82.4705C86.4187 82.3373 86.3002 82.1892 86.2854 82.0411C86.2854 81.8929 86.3891 81.7596 86.626 81.6264L87.1592 81.3153C87.3814 81.182 87.6331 81.1228 87.8849 81.1228C88.1367 81.1228 88.3884 81.1969 88.6254 81.3301L88.8624 81.4634C88.9216 81.4931 88.9216 81.5227 88.8624 81.5671L88.5662 81.73C88.5069 81.7596 88.4625 81.7596 88.4033 81.73L88.1959 81.6115C87.959 81.4783 87.722 81.4634 87.4998 81.5967L87.1 81.8337C86.8778 81.967 86.8778 82.1003 87.1148 82.2336L88.6847 83.137C88.9216 83.2703 89.1586 83.2851 89.3808 83.1518L89.7806 82.9149C90.0028 82.7816 90.0028 82.6483 89.7658 82.515L89.5585 82.3965C89.4992 82.3669 89.4992 82.3373 89.5437 82.3076L89.8399 82.1447C89.8991 82.1151 89.9583 82.1151 90.0176 82.1447L90.2546 82.278C90.4915 82.4113 90.61 82.5594 90.61 82.7075C90.5804 82.826 90.4767 82.9741 90.2546 83.1074Z" fill="#F0F2FF"/>
<path d="M91.9282 82.13L91.632 82.2929C91.5727 82.3225 91.5283 82.3225 91.4691 82.2929L88.5366 80.6045C88.4774 80.5749 88.4774 80.5453 88.5366 80.5157L89.6326 79.8788C89.8548 79.7455 90.1065 79.6863 90.3731 79.6863C90.6397 79.6863 90.8915 79.7603 91.1136 79.8936L91.5135 80.1306C91.8838 80.3379 91.9726 80.5601 91.7653 80.7971C91.7801 80.8119 93.4241 81.1673 93.4241 81.1673C93.5277 81.1821 93.5277 81.2118 93.4537 81.2562L93.1575 81.4191C93.0834 81.4635 93.0094 81.4783 92.9353 81.4487L91.321 81.0933L90.847 81.3599C90.8026 81.3747 90.8026 81.4043 90.8322 81.4191L91.8986 82.0263C91.9726 82.0708 91.9726 82.1004 91.9282 82.13ZM90.4768 81.1525L91.0692 80.8119C91.3062 80.6786 91.2914 80.5453 91.0692 80.412L90.6693 80.175C90.4324 80.0417 90.1954 80.0417 89.9732 80.175L89.3808 80.5157C89.3512 80.5305 89.3512 80.5601 89.3808 80.5749L90.4027 81.1673C90.4027 81.1673 90.4472 81.1673 90.4768 81.1525Z" fill="#F0F2FF"/>
<path d="M95.6457 79.9824L94.1498 80.8415C94.0906 80.8711 94.0461 80.8711 93.9869 80.8415L91.0544 79.1531C90.9952 79.1234 90.9952 79.0938 91.0544 79.0642L92.5503 78.2052C92.5947 78.1756 92.654 78.1756 92.7132 78.2052L92.965 78.3533C93.0242 78.3829 93.0242 78.4126 92.9798 78.4422L91.9134 79.0494C91.869 79.0642 91.869 79.0938 91.8986 79.1086L92.7132 79.5826C92.7428 79.5974 92.7873 79.5974 92.8169 79.5826L93.7203 79.0642C93.7795 79.0346 93.8388 79.0346 93.8832 79.0642L94.135 79.2123C94.1942 79.2419 94.1942 79.2715 94.135 79.3012L93.2316 79.8195C93.1871 79.8344 93.1871 79.864 93.2168 79.8788L94.0758 80.3675C94.1054 80.3823 94.1498 80.3823 94.1794 80.3675L95.2458 79.7603C95.2902 79.7307 95.3494 79.7307 95.4087 79.7603L95.6605 79.9084C95.6901 79.9232 95.6901 79.9528 95.6457 79.9824Z" fill="#F0F2FF"/>
<path d="M96.2381 79.553L93.3057 77.8646C93.2464 77.835 93.2464 77.8054 93.3057 77.7758L94.4461 77.1093C94.6682 76.976 94.92 76.9167 95.1718 76.9167C95.4384 76.9167 95.6753 76.9908 95.9123 77.1241L97.5118 78.0572C97.7488 78.1904 97.8673 78.3386 97.8673 78.4867C97.8673 78.6348 97.7636 78.7829 97.5266 78.9162L96.3862 79.5826C96.3418 79.5826 96.2825 79.5826 96.2381 79.553ZM96.401 79.0791L97.0527 78.694C97.2748 78.5607 97.2748 78.4274 97.0379 78.2941L95.468 77.3907C95.231 77.2574 94.9941 77.2426 94.7719 77.3759L94.1202 77.7609C94.0906 77.7757 94.0906 77.8054 94.1202 77.8202L96.2974 79.0791C96.3418 79.0939 96.3714 79.0939 96.401 79.0791Z" fill="#F0F2FF"/>
<path d="M96.3566 76.0873L99.2891 77.7757C99.3483 77.8053 99.3483 77.8349 99.2891 77.8645L98.9928 78.0274C98.9336 78.0571 98.8892 78.0571 98.8299 78.0274L95.8975 76.3391C95.8382 76.3094 95.8382 76.2798 95.8975 76.2502L96.1937 76.0873C96.2529 76.0577 96.2973 76.0577 96.3566 76.0873Z" fill="#F0F2FF"/>
<path d="M100.903 76.9464L100.607 77.1093C100.548 77.1389 100.488 77.1389 100.444 77.1093L97.8818 75.6282C97.8522 75.6134 97.8226 75.6134 97.793 75.6282L97.2006 75.9689C97.1413 75.9985 97.0821 75.9985 97.0377 75.9689L96.7859 75.8208C96.7266 75.7912 96.7266 75.7615 96.7859 75.7319L98.5187 74.7396C98.5779 74.71 98.6224 74.71 98.6816 74.7396L98.9334 74.8877C98.9926 74.9173 98.9926 74.947 98.9334 74.9766L98.341 75.3172C98.3114 75.332 98.3114 75.3617 98.341 75.3765L100.903 76.8575C100.948 76.8871 100.948 76.9167 100.903 76.9464Z" fill="#F0F2FF"/>
<path d="M104.428 74.9172L103.88 75.2282C103.643 75.3615 103.406 75.4208 103.154 75.4208C102.902 75.4208 102.651 75.3467 102.414 75.2134L100.814 74.2804C100.577 74.1471 100.459 73.999 100.444 73.8509C100.429 73.7028 100.548 73.5695 100.784 73.4362L101.332 73.1251C101.555 72.9919 101.806 72.9326 102.058 72.9326C102.31 72.9326 102.562 73.0067 102.799 73.14L103.036 73.2733C103.095 73.3029 103.095 73.3325 103.036 73.3769L102.739 73.5398C102.68 73.5695 102.636 73.5695 102.577 73.5398L102.369 73.4214C102.132 73.2881 101.895 73.2733 101.673 73.4065L101.273 73.6435C101.051 73.7768 101.051 73.9101 101.288 74.0434L102.858 74.9468C103.095 75.0801 103.332 75.0949 103.554 74.9616L103.954 74.7247C104.176 74.5914 104.176 74.4581 103.939 74.3248L103.732 74.2063C103.673 74.1767 103.673 74.1471 103.717 74.1174L104.013 73.9545C104.072 73.9249 104.132 73.9249 104.191 73.9545L104.428 74.0878C104.665 74.2211 104.783 74.3692 104.783 74.5173C104.768 74.6358 104.65 74.7839 104.428 74.9172Z" fill="#F0F2FF"/>
<path d="M105.895 74.0731L105.554 74.2656C105.509 74.2953 105.465 74.2805 105.421 74.2508L103.303 72.0885C103.258 72.0441 103.273 72.0145 103.332 71.97L103.791 71.7034C103.851 71.6738 103.925 71.659 103.984 71.6886L107.731 72.9179C107.805 72.9475 107.805 72.9623 107.761 72.992L107.435 73.1845C107.405 73.1993 107.376 73.2141 107.361 73.2141C107.331 73.2141 107.301 73.1993 107.272 73.1845L106.472 72.9179L105.45 73.5103L105.895 73.9694C105.939 74.0139 105.939 74.0435 105.895 74.0731ZM104.014 72.1033L105.139 73.2289L105.983 72.7402L104.028 72.0885L104.014 72.1033Z" fill="#F0F2FF"/>
<path d="M108.649 72.4736L108.353 72.6365C108.293 72.6662 108.249 72.6662 108.19 72.6365L105.257 70.9481C105.198 70.9185 105.198 70.8889 105.257 70.8593L106.353 70.2224C106.575 70.0891 106.827 70.0299 107.094 70.0299C107.36 70.0299 107.612 70.104 107.834 70.2373L108.234 70.4742C108.604 70.6816 108.693 70.9037 108.486 71.1407C108.501 71.1555 110.145 71.511 110.145 71.511C110.248 71.5258 110.248 71.5554 110.174 71.5998L109.878 71.7627C109.804 71.8072 109.73 71.822 109.656 71.7923L108.042 71.4369L107.597 71.7035C107.553 71.7183 107.553 71.7479 107.583 71.7627L108.649 72.3699C108.708 72.4144 108.708 72.444 108.649 72.4736ZM107.212 71.4813L107.805 71.1407C108.042 71.0074 108.027 70.8741 107.805 70.7408L107.405 70.5038C107.168 70.3705 106.931 70.3705 106.709 70.5038L106.116 70.8445C106.087 70.8593 106.087 70.8889 106.116 70.9037L107.138 71.4961C107.138 71.5109 107.183 71.5109 107.212 71.4813Z" fill="#F0F2FF"/>
<path d="M110.722 71.1851L107.79 69.4967C107.731 69.4671 107.731 69.4374 107.79 69.4078L108.93 68.7414C109.152 68.6081 109.404 68.5488 109.656 68.5488C109.923 68.5488 110.159 68.6229 110.396 68.7562L111.996 69.6892C112.233 69.8225 112.351 69.9706 112.351 70.1187C112.351 70.2668 112.248 70.4149 112.011 70.5482L110.87 71.2147C110.841 71.2147 110.782 71.2147 110.722 71.1851ZM110.9 70.6963L111.552 70.3113C111.774 70.178 111.774 70.0447 111.537 69.9114L109.967 69.0079C109.73 68.8747 109.493 68.8598 109.271 68.9931L108.619 69.3782C108.59 69.393 108.59 69.4226 108.619 69.4375L110.796 70.6963C110.841 70.726 110.87 70.726 110.9 70.6963Z" fill="#F0F2FF"/>
<path d="M67.3284 7.92997C62.3669 10.818 59.2863 16.9495 59.2567 25.6728L59.2271 37.8914L69.6684 31.8043V19.6302C69.698 10.9069 72.7786 4.76055 77.7401 1.88733L67.3284 7.92997Z" fill="#7621D8"/>
<path d="M124.511 44.7634C122.23 31.6858 113.937 14.0467 97.4822 3.78304C89.7956 -0.660079 82.7755 -1.04515 77.7547 1.8725L67.343 7.91515C72.3786 4.9975 79.295 5.427 86.9816 9.87012C100.341 17.5863 111.463 34.8849 114.011 50.8505L110.397 52.9536C110.397 52.9536 117.861 61.3067 120.897 66.1497C120.897 66.1497 127.444 46.1408 128.199 42.6159L124.511 44.7634Z" fill="url(#paint0_linear_108_15888)"/>
<path d="M43.6763 38.1876C41.277 37.5212 38.7296 37.536 36.3451 38.2172C32.9684 39.1947 31.2652 41.0016 31.2356 42.8085C31.2207 43.4898 31.2207 44.1562 31.2504 44.8375C31.2948 46.6444 33.0128 48.4512 36.4044 49.3991C38.8037 50.0656 41.3511 50.0508 43.7355 49.3695C47.1123 48.392 48.8155 46.5851 48.8451 44.7783C48.8599 44.097 48.86 43.4305 48.8303 42.7492C48.7859 40.9276 47.0679 39.1355 43.6763 38.1876Z" fill="url(#paint1_linear_108_15888)"/>
<path opacity="0.2" d="M32.0493 45.0004L32.0641 46.9257C31.7827 46.5703 31.5754 46.2 31.4421 45.8298L31.4272 43.9489C31.5605 44.3043 31.7827 44.6597 32.0493 45.0004ZM36.5516 47.5181L36.5665 49.4435C36.7738 49.5027 36.9812 49.5472 37.1885 49.5916L37.1737 47.6366C36.9663 47.607 36.759 47.5626 36.5516 47.5181ZM39.1139 47.8884L39.1287 49.873C39.336 49.8878 39.5434 49.8878 39.7507 49.8878L39.7359 47.918C39.5137 47.9032 39.3212 47.8884 39.1139 47.8884ZM37.8253 47.7551L37.8402 49.7249C38.0475 49.7545 38.2548 49.7841 38.4622 49.8138L38.4474 47.8588C38.24 47.8292 38.0327 47.7847 37.8253 47.7551ZM32.7158 45.6965L32.7306 47.5922C32.9231 47.7551 33.1304 47.918 33.3526 48.0661L33.3378 46.126C33.1304 45.9927 32.8935 45.8594 32.7158 45.6965ZM35.278 47.1331L35.2928 49.0436C35.4853 49.1177 35.7075 49.1769 35.9148 49.251L35.9 47.3256C35.6927 47.2516 35.4705 47.2071 35.278 47.1331ZM34.0043 46.5555L34.0191 48.466C34.2116 48.5697 34.4189 48.6734 34.6411 48.7622L34.6263 46.8369C34.4041 46.748 34.1968 46.6591 34.0043 46.5555ZM40.3876 47.9032L40.4024 49.873C40.6097 49.873 40.8171 49.8582 41.0244 49.8434L41.0096 47.8588C40.8022 47.8884 40.5949 47.9032 40.3876 47.9032ZM46.756 46.0667L46.7708 48.0069C46.993 47.844 47.2003 47.6811 47.3929 47.5181L47.3781 45.6224C47.2003 45.7705 46.9634 45.9186 46.756 46.0667ZM41.6612 47.8292L41.6761 49.7841C41.8834 49.7545 42.0908 49.7249 42.2981 49.6953L42.2833 47.7255C42.0759 47.7699 41.8686 47.8144 41.6612 47.8292ZM48.0297 44.8967L48.0445 46.8221C48.3259 46.4518 48.5333 46.0815 48.6518 45.6817L48.6369 43.8156C48.5185 44.2006 48.2963 44.5561 48.0297 44.8967ZM45.4823 46.7924L45.4971 48.7178C45.7045 48.6141 45.9266 48.5104 46.1192 48.4068L46.1044 46.4962C45.9118 46.5999 45.6897 46.6888 45.4823 46.7924ZM44.2086 47.2812L44.2234 49.2065C44.4308 49.1325 44.6529 49.0732 44.8455 48.9992L44.8307 47.0886C44.6381 47.1627 44.416 47.2219 44.2086 47.2812ZM42.9349 47.6218L42.9497 49.5768C43.1571 49.5324 43.3644 49.4731 43.5718 49.4287L43.557 47.4885C43.3496 47.533 43.1423 47.5774 42.9349 47.6218Z" fill="url(#paint2_linear_108_15888)"/>
<path d="M46.2379 39.2248C49.6887 41.1945 49.7036 44.4084 46.2675 46.4078C42.8315 48.4072 37.2628 48.4368 33.812 46.467C30.3612 44.4972 30.3464 41.2834 33.7824 39.284C37.2184 37.2846 42.7871 37.255 46.2379 39.2248Z" fill="#FFCE45"/>
<path d="M45.6749 39.5502C48.8147 41.3423 48.8295 44.2747 45.7045 46.0964C42.5795 47.9181 37.4996 47.9329 34.3598 46.1408C31.2199 44.3488 31.2051 41.4163 34.3301 39.5946C37.4699 37.7729 42.5351 37.7581 45.6749 39.5502Z" fill="#FFCE45"/>
<path opacity="0.6" d="M34.4929 40.0242C37.529 38.247 42.4757 38.2321 45.5267 39.9798C47.7482 41.2535 48.3555 43.1048 47.3483 44.7043C48.6517 43.0011 48.0889 40.9425 45.6748 39.5651C42.535 37.773 37.455 37.7878 34.33 39.6095C31.9159 41.0165 31.3827 43.0751 32.7008 44.7635C31.6937 43.164 32.2861 41.3127 34.4929 40.0242Z" fill="#E0890B"/>
<path d="M43.6314 35.27C41.2321 34.6036 38.6847 34.6184 36.3002 35.2996C32.9235 36.2771 31.2203 38.084 31.1906 39.8909C31.1758 40.5721 31.1758 41.2386 31.2054 41.9199C31.2499 43.7268 32.9679 45.5336 36.3595 46.4815C38.7588 47.148 41.3061 47.1331 43.6906 46.4519C47.0674 45.4744 48.7706 43.6675 48.8002 41.8607C48.815 41.1794 48.815 40.5129 48.7854 39.8316C48.741 38.01 47.023 36.2031 43.6314 35.27Z" fill="url(#paint3_linear_108_15888)"/>
<path opacity="0.2" d="M32.0202 42.068L32.035 43.9933C31.7536 43.6379 31.5463 43.2676 31.413 42.8974L31.3982 41.0164C31.5315 41.3719 31.7536 41.7273 32.0202 42.068ZM36.5226 44.5857L36.5374 46.5111C36.7448 46.5703 36.9521 46.6148 37.1594 46.6592L37.1446 44.7042C36.9373 44.6746 36.7299 44.645 36.5226 44.5857ZM39.07 44.956L39.0848 46.9406C39.2921 46.9554 39.4995 46.9554 39.7068 46.9554L39.692 44.9856C39.4847 44.9856 39.2773 44.9708 39.07 44.956ZM37.7963 44.8227L37.8111 46.7925C38.0184 46.8221 38.2258 46.8517 38.4331 46.8814L38.4183 44.9264C38.211 44.8968 38.0036 44.8523 37.7963 44.8227ZM32.6867 42.7641L32.7015 44.6598C32.894 44.8227 33.1014 44.9856 33.3235 45.1337L33.3087 43.1936C33.1014 43.0603 32.8644 42.927 32.6867 42.7641ZM35.2489 44.2155L35.2637 46.126C35.4562 46.2001 35.6784 46.2593 35.8857 46.3334L35.8709 44.408C35.6636 44.334 35.4414 44.2747 35.2489 44.2155ZM33.9604 43.6231L33.9752 45.5336C34.1677 45.6373 34.3751 45.741 34.5972 45.8298L34.5824 43.9045C34.3751 43.8156 34.1677 43.7267 33.9604 43.6231ZM40.3585 44.9856L40.3733 46.9554C40.5806 46.9554 40.788 46.9406 40.9953 46.9258L40.9805 44.9412C40.7732 44.956 40.5658 44.9708 40.3585 44.9856ZM46.727 43.1343L46.7418 45.0745C46.9639 44.9116 47.1713 44.7487 47.3638 44.5857L47.349 42.69C47.1713 42.8529 46.9343 42.9862 46.727 43.1343ZM41.6322 44.9116L41.647 46.8666C41.8543 46.8369 42.0617 46.8073 42.269 46.7777L42.2542 44.8079C42.0469 44.8375 41.8395 44.882 41.6322 44.9116ZM48.0007 41.9791L48.0155 43.9045C48.2969 43.5342 48.5042 43.1639 48.6227 42.7641L48.6079 40.8979C48.4894 41.2682 48.2672 41.6237 48.0007 41.9791ZM45.4533 43.86L45.4681 45.7854C45.6754 45.6817 45.8976 45.578 46.0901 45.4744L46.0753 43.5638C45.8828 43.6675 45.6606 43.7564 45.4533 43.86ZM44.1796 44.3488L44.1944 46.2741C44.4017 46.2001 44.6239 46.1408 44.8164 46.0668L44.8016 44.1562C44.5943 44.2303 44.3869 44.2895 44.1796 44.3488ZM42.9059 44.6894L42.9207 46.6444C43.128 46.6 43.3354 46.5407 43.5427 46.4963L43.5279 44.5561C43.3206 44.6006 43.1132 44.645 42.9059 44.6894Z" fill="url(#paint4_linear_108_15888)"/>
<path d="M46.2086 36.3064C49.6595 38.2762 49.6743 41.4901 46.2383 43.4895C42.8022 45.4889 37.2335 45.5185 33.7827 43.5487C30.3319 41.5789 30.3171 38.3651 33.7531 36.3657C37.1891 34.3514 42.7578 34.3218 46.2086 36.3064Z" fill="#FFCE45"/>
<path d="M45.6459 36.6178C48.7857 38.4099 48.8005 41.3423 45.6755 43.164C42.5505 44.9857 37.4705 45.0005 34.3307 43.2085C31.1909 41.4164 31.1761 38.4839 34.3011 36.6622C37.4261 34.8406 42.506 34.8258 45.6459 36.6178Z" fill="#FFCE45"/>
<path opacity="0.6" d="M34.4638 37.0917C37.5 35.3145 42.4466 35.2997 45.4976 37.0473C47.7191 38.321 48.3264 40.1723 47.3193 41.7718C48.6226 40.0686 48.0598 38.01 45.6457 36.6326C42.5059 34.8405 37.4259 34.8553 34.3009 36.677C31.8868 38.084 31.3537 40.1427 32.6718 41.831C31.6647 40.2463 32.2571 38.3802 34.4638 37.0917Z" fill="#E0890B"/>
<path d="M43.6614 32.9448C41.2621 32.2784 38.7147 32.2932 36.3303 32.9745C32.9535 33.9519 31.2503 35.7588 31.2207 37.5657C31.2059 38.247 31.2059 38.9134 31.2355 39.5947C31.2799 41.4164 32.9979 43.2084 36.3895 44.1563C38.7888 44.8228 41.3362 44.808 43.7207 44.1267C47.0974 43.1492 48.8006 41.3423 48.8303 39.5355C48.8451 38.8542 48.8451 38.1877 48.8155 37.5064C48.7562 35.6996 47.0382 33.8927 43.6614 32.9448Z" fill="url(#paint5_linear_108_15888)"/>
<path opacity="0.2" d="M32.0344 39.7576L32.0492 41.6829C31.7678 41.3275 31.5605 40.9572 31.4272 40.587L31.4124 38.7061C31.5456 39.0615 31.7678 39.4169 32.0344 39.7576ZM36.5368 42.2753L36.5516 44.2007C36.7589 44.2599 36.9663 44.3044 37.1736 44.3488L37.1588 42.3938C36.9515 42.3642 36.7441 42.3346 36.5368 42.2753ZM39.099 42.6456L39.1138 44.6302C39.3211 44.645 39.5285 44.645 39.7358 44.645L39.721 42.6752C39.4988 42.6752 39.3063 42.6604 39.099 42.6456ZM37.8104 42.5123L37.8253 44.4821C38.0326 44.5117 38.24 44.5413 38.4473 44.571L38.4325 42.616C38.2251 42.5864 38.0178 42.5419 37.8104 42.5123ZM32.7009 40.4537L32.7157 42.3494C32.9082 42.5123 33.1156 42.6752 33.3377 42.8233L33.3229 40.8832C33.1156 40.7499 32.8786 40.6166 32.7009 40.4537ZM35.2631 41.8903L35.2779 43.8008C35.4704 43.8749 35.6926 43.9341 35.8999 44.0082L35.8851 42.0828C35.6778 42.0236 35.4556 41.9643 35.2631 41.8903ZM33.9746 41.3127L33.9894 43.2232C34.1819 43.3269 34.3893 43.4306 34.6114 43.5194L34.5966 41.5941C34.3892 41.5052 34.1819 41.4164 33.9746 41.3127ZM40.3727 42.6752L40.3875 44.645C40.5948 44.645 40.8022 44.6302 41.0095 44.6154L40.9947 42.6308C40.7873 42.6456 40.58 42.6604 40.3727 42.6752ZM46.7411 40.8239L46.7559 42.7641C46.9781 42.6012 47.1854 42.4383 47.378 42.2753L47.3632 40.3796C47.1854 40.5425 46.9485 40.6758 46.7411 40.8239ZM41.6463 42.6012L41.6612 44.5561C41.8685 44.5265 42.0759 44.4969 42.2832 44.4673L42.2684 42.4975C42.061 42.5271 41.8537 42.5716 41.6463 42.6012ZM48.0148 39.6539L48.0296 41.5793C48.311 41.209 48.5184 40.8387 48.6369 40.4389L48.622 38.5728C48.5036 38.9578 48.2814 39.3133 48.0148 39.6539ZM45.4674 41.5496L45.4822 43.475C45.6896 43.3713 45.9117 43.2676 46.1043 43.164L46.0895 41.2534C45.8969 41.3571 45.6748 41.446 45.4674 41.5496ZM44.1937 42.0384L44.2086 43.9637C44.4159 43.8897 44.6381 43.8304 44.8306 43.7564L44.8158 41.8458C44.6233 41.9199 44.4011 41.9791 44.1937 42.0384ZM42.92 42.379L42.9349 44.334C43.1422 44.2896 43.3495 44.2303 43.5569 44.1859L43.5421 42.2457C43.3347 42.2902 43.1274 42.3346 42.92 42.379Z" fill="url(#paint6_linear_108_15888)"/>
<path d="M46.223 33.982C49.6739 35.9517 49.6887 39.1656 46.2526 41.165C42.8166 43.1644 37.2479 43.194 33.7971 41.2242C30.3463 39.2545 30.3315 36.0406 33.7675 34.0412C37.2035 32.0418 42.7722 32.0122 46.223 33.982Z" fill="#FFCE45"/>
<path d="M45.6602 34.3075C48.8001 36.0996 48.8149 39.032 45.6899 40.8537C42.5649 42.6754 37.4849 42.6902 34.3451 40.8981C31.2053 39.1061 31.1905 36.1736 34.3155 34.3519C37.4553 32.5303 42.5204 32.5155 45.6602 34.3075Z" fill="#FFCE45"/>
<path opacity="0.6" d="M34.4782 34.7814C37.5144 33.0042 42.4611 32.9893 45.512 34.737C47.7336 36.0107 48.3408 37.862 47.3337 39.4615C48.637 37.7583 48.0742 35.6997 45.6601 34.3223C42.5203 32.5302 37.4403 32.545 34.3153 34.3667C31.9012 35.7737 31.3681 37.8323 32.6862 39.5207C31.6791 37.9212 32.2715 36.0699 34.4782 34.7814Z" fill="#E0890B"/>
<path d="M43.6763 30.6343C41.277 29.9678 38.7296 29.9826 36.3451 30.6639C32.9684 31.6414 31.2652 33.4483 31.2356 35.2551C31.2207 35.9364 31.2207 36.6029 31.2504 37.2842C31.2948 39.091 33.0128 40.8979 36.4044 41.8458C38.8037 42.5122 41.3511 42.4974 43.7355 41.8161C47.1123 40.8387 48.8155 39.0318 48.8451 37.2249C48.8599 36.5436 48.86 35.8772 48.8303 35.1959C48.7859 33.3742 47.0679 31.5821 43.6763 30.6343Z" fill="url(#paint7_linear_108_15888)"/>
<path opacity="0.2" d="M32.0493 37.447L32.0641 39.3724C31.7827 39.0169 31.5754 38.6467 31.4421 38.2764L31.4272 36.3955C31.5605 36.751 31.7827 37.1064 32.0493 37.447ZM36.5516 39.9648L36.5665 41.8902C36.7738 41.9494 36.9812 41.9938 37.1885 42.0383L37.1737 40.0833C36.9663 40.0537 36.759 40.024 36.5516 39.9648ZM39.1139 40.3351L39.1287 42.3197C39.336 42.3345 39.5434 42.3345 39.7507 42.3345L39.7359 40.3647C39.5137 40.3647 39.3212 40.3351 39.1139 40.3351ZM37.8253 40.2018L37.8402 42.1715C38.0475 42.2012 38.2548 42.2308 38.4622 42.2604L38.4474 40.3054C38.24 40.2758 38.0327 40.2314 37.8253 40.2018ZM32.7158 38.1431L32.7306 40.0389C32.9231 40.2018 33.1304 40.3647 33.3526 40.5128L33.3378 38.5726C33.1304 38.4393 32.8935 38.306 32.7158 38.1431ZM35.278 39.5797L35.2928 41.4903C35.4853 41.5643 35.7075 41.6236 35.9148 41.6976L35.9 39.7723C35.6927 39.713 35.4705 39.6538 35.278 39.5797ZM34.0043 39.0021L34.0191 40.9127C34.2116 41.0163 34.4189 41.12 34.6411 41.2089L34.6263 39.2835C34.4041 39.1947 34.1968 39.1058 34.0043 39.0021ZM40.3876 40.3647L40.4024 42.3345C40.6097 42.3345 40.8171 42.3197 41.0244 42.3048L41.0096 40.3203C40.8022 40.3351 40.5949 40.3499 40.3876 40.3647ZM46.756 38.5134L46.7708 40.4535C46.993 40.2906 47.2003 40.1277 47.3929 39.9648L47.3781 38.0691C47.2003 38.2172 46.9634 38.3653 46.756 38.5134ZM41.6612 40.2758L41.6761 42.2308C41.8834 42.2012 42.0908 42.1716 42.2981 42.1419L42.2833 40.1721C42.0759 40.2166 41.8686 40.261 41.6612 40.2758ZM48.0297 37.3434L48.0445 39.2687C48.3259 38.8985 48.5333 38.5282 48.6518 38.1283L48.6369 36.2622C48.5185 36.6473 48.2963 37.0027 48.0297 37.3434ZM45.4823 39.2391L45.4971 41.1644C45.7045 41.0608 45.9266 40.9571 46.1192 40.8534L46.1044 38.9429C45.9118 39.0466 45.6897 39.1354 45.4823 39.2391ZM44.2086 39.7278L44.2234 41.6532C44.4308 41.5791 44.6529 41.5199 44.8455 41.4458L44.8307 39.5353C44.6381 39.6094 44.416 39.6686 44.2086 39.7278ZM42.9349 40.0685L42.9497 42.0234C43.1571 41.979 43.3644 41.9198 43.5718 41.8753L43.557 39.9352C43.3496 39.9796 43.1423 40.024 42.9349 40.0685Z" fill="url(#paint8_linear_108_15888)"/>
<path d="M46.2379 31.6713C49.6887 33.6411 49.7036 36.8549 46.2675 38.8543C42.8315 40.8537 37.2628 40.8834 33.812 38.9136C30.3612 36.9438 30.3464 33.7299 33.7824 31.7305C37.2184 29.7311 42.7871 29.7015 46.2379 31.6713Z" fill="#FFCE45"/>
<path d="M45.6749 31.9968C48.8147 33.7889 48.8295 36.7214 45.7045 38.543C42.5795 40.3647 37.4996 40.3795 34.3598 38.5875C31.2199 36.7954 31.2051 33.863 34.3301 32.0413C37.4699 30.2196 42.5351 30.2048 45.6749 31.9968Z" fill="#FFCE45"/>
<path opacity="0.6" d="M34.4929 32.4707C37.529 30.6935 42.4757 30.6787 45.5267 32.4263C47.7482 33.7 48.3555 35.5513 47.3483 37.1508C48.6517 35.4476 48.0889 33.389 45.6748 32.0116C42.535 30.2196 37.455 30.2344 34.33 32.0561C31.9159 33.463 31.3827 35.5217 32.7008 37.2101C31.6937 35.6105 32.2861 33.7592 34.4929 32.4707Z" fill="#E0890B"/>
<path d="M44.4165 28.3535C42.0173 27.6871 39.4699 27.7019 37.0854 28.3831C33.7086 29.3606 32.0054 31.1675 31.9758 32.9744C31.961 33.6556 31.961 34.3221 31.9906 35.0034C32.035 36.8103 33.753 38.6171 37.1446 39.565C39.5439 40.2315 42.0913 40.2167 44.4758 39.5354C47.8526 38.5579 49.5557 36.751 49.5854 34.9442C49.6002 34.2629 49.6002 33.5964 49.5706 32.9151C49.5261 31.0934 47.8081 29.3014 44.4165 28.3535Z" fill="url(#paint9_linear_108_15888)"/>
<path opacity="0.2" d="M32.8049 35.1515L32.8197 37.0768C32.5383 36.7214 32.331 36.3511 32.1977 35.9808L32.1829 34.0999C32.3162 34.4702 32.5383 34.8256 32.8049 35.1515ZM37.3073 37.684L37.3221 39.6094C37.5294 39.6687 37.7368 39.7131 37.9441 39.7575L37.9293 37.8025C37.7219 37.7729 37.5146 37.7285 37.3073 37.684ZM39.8547 38.0543L39.8695 40.0389C40.0768 40.0537 40.2842 40.0537 40.4915 40.0537L40.4767 38.0839C40.2693 38.0691 40.062 38.0543 39.8547 38.0543ZM38.581 37.921L38.5958 39.8908C38.8031 39.9204 39.0105 39.95 39.2178 39.9797L39.203 38.0247C38.9956 37.9951 38.7883 37.9506 38.581 37.921ZM33.4714 35.8624L33.4862 37.7581C33.6787 37.921 33.8861 38.0839 34.1082 38.232L34.0934 36.2919C33.8712 36.1586 33.6491 36.0105 33.4714 35.8624ZM36.0336 37.299L36.0484 39.2095C36.2409 39.2836 36.4631 39.3428 36.6704 39.4169L36.6556 37.4915C36.4334 37.4175 36.2261 37.373 36.0336 37.299ZM34.7451 36.7214L34.7599 38.6319C34.9524 38.7356 35.1597 38.8393 35.3819 38.9281L35.3671 37.0028C35.1598 36.9139 34.9376 36.825 34.7451 36.7214ZM41.1431 38.0691L41.158 40.0389C41.3653 40.0389 41.5727 40.0241 41.78 40.0093L41.7504 38.0395C41.543 38.0543 41.3357 38.0691 41.1431 38.0691ZM47.5116 36.2326L47.5264 38.1728C47.7486 38.0099 47.956 37.847 48.1485 37.684L48.1337 35.7883C47.9559 35.9364 47.719 36.0845 47.5116 36.2326ZM42.4168 37.9951L42.4317 39.95C42.639 39.9204 42.8463 39.8908 43.0537 39.8612L43.0389 37.8914C42.8167 37.9358 42.6242 37.9803 42.4168 37.9951ZM48.7853 35.0626L48.8001 36.988C49.0815 36.6177 49.2889 36.2474 49.4074 35.8476L49.3926 33.9814C49.2741 34.3665 49.0519 34.722 48.7853 35.0626ZM46.2379 36.9435L46.2527 38.8689C46.4601 38.7652 46.6823 38.6615 46.8748 38.5579L46.86 36.6473C46.6526 36.7658 46.4453 36.8547 46.2379 36.9435ZM44.9642 37.4471L44.979 39.3724C45.1864 39.2984 45.4086 39.2391 45.6011 39.1651L45.5863 37.2545C45.3789 37.3286 45.1716 37.373 44.9642 37.4471ZM43.6905 37.7877L43.7054 39.7427C43.9127 39.6983 44.12 39.639 44.3274 39.5946L44.3126 37.6544C44.1052 37.6989 43.8979 37.7433 43.6905 37.7877Z" fill="url(#paint10_linear_108_15888)"/>
<path d="M46.9784 29.3907C50.4292 31.3604 50.444 34.5743 47.008 36.5737C43.572 38.5731 38.0033 38.6027 34.5525 36.6329C31.1017 34.6631 31.0868 31.4493 34.5229 29.4499C37.9589 27.4505 43.5424 27.4209 46.9784 29.3907Z" fill="#FFCE45"/>
<path d="M46.4305 29.7161C49.5703 31.5081 49.5851 34.4406 46.4601 36.2623C43.3351 38.084 38.2552 38.0988 35.1154 36.3067C31.9756 34.5147 31.9607 31.5822 35.0857 29.7605C38.2107 27.9388 43.2907 27.924 46.4305 29.7161Z" fill="#FFCE45"/>
<path opacity="0.6" d="M35.2485 30.19C38.2846 28.4127 43.2313 28.3979 46.2823 30.1455C48.5038 31.4192 49.111 33.2705 48.1039 34.87C49.4073 33.1668 48.8445 31.1082 46.4304 29.7309C43.2906 27.9388 38.2106 27.9536 35.0856 29.7753C32.6715 31.1823 32.1383 33.2409 33.4565 34.9293C32.4493 33.3298 33.0418 31.4785 35.2485 30.19Z" fill="#E0890B"/>
<path d="M44.3428 25.8654C41.9435 25.1989 39.3961 25.2137 37.0117 25.895C33.6349 26.8725 31.9317 28.6793 31.9021 30.4862C31.8873 31.1675 31.8873 31.834 31.9169 32.5152C31.9613 34.3369 33.6793 36.129 37.0709 37.0768C39.4702 37.7433 42.0176 37.7285 44.402 37.0472C47.7788 36.0697 49.482 34.2629 49.5116 32.456C49.5264 31.7747 49.5264 31.1082 49.4968 30.427C49.4524 28.6053 47.7344 26.8132 44.3428 25.8654Z" fill="url(#paint11_linear_108_15888)"/>
<path opacity="0.2" d="M32.7307 32.6633L32.7455 34.5887C32.4641 34.2332 32.2567 33.863 32.1235 33.4927L32.1086 31.6118C32.2419 31.982 32.4641 32.3227 32.7307 32.6633ZM37.233 35.1959L37.2479 37.1213C37.4552 37.1805 37.6625 37.2249 37.8699 37.2694L37.8551 35.3144C37.6329 35.27 37.4256 35.2403 37.233 35.1959ZM39.7804 35.5513L39.7953 37.5359C40.0026 37.5508 40.2099 37.5508 40.4173 37.5508L40.4025 35.581C40.1951 35.581 39.9878 35.5662 39.7804 35.5513ZM38.5067 35.4329L38.5216 37.4026C38.7289 37.4323 38.9362 37.4619 39.1436 37.4915L39.1288 35.5365C38.9214 35.4921 38.7141 35.4625 38.5067 35.4329ZM33.3972 33.3742L33.412 35.27C33.6045 35.4329 33.8118 35.5958 34.034 35.7439L34.0192 33.8037C33.797 33.6556 33.5749 33.5223 33.3972 33.3742ZM35.9445 34.8108L35.9593 36.7214C36.1519 36.7954 36.374 36.8547 36.5814 36.9287L36.5666 35.0034C36.3592 34.9293 36.1519 34.8849 35.9445 34.8108ZM34.6708 34.2184L34.6857 36.129C34.8782 36.2326 35.0855 36.3363 35.3077 36.4252L35.2929 34.4998C35.0855 34.4258 34.8634 34.3369 34.6708 34.2184ZM41.0541 35.581L41.0689 37.5508C41.2763 37.5508 41.4836 37.5359 41.691 37.5211L41.6762 35.5365C41.4688 35.5514 41.2615 35.581 41.0541 35.581ZM47.4374 33.7297L47.4522 35.6698C47.6744 35.5069 47.8817 35.344 48.0743 35.1811L48.0595 33.2853C47.8817 33.4483 47.6448 33.5816 47.4374 33.7297ZM42.3426 35.5069L42.3575 37.4619C42.5648 37.4323 42.7721 37.4027 42.9795 37.373L42.9647 35.4032C42.7425 35.4329 42.55 35.4773 42.3426 35.5069ZM48.7111 32.5745L48.7259 34.4998C49.0073 34.1295 49.2147 33.7593 49.3332 33.3594L49.3183 31.4933C49.1999 31.8635 48.9777 32.219 48.7111 32.5745ZM46.1637 34.4554L46.1785 36.3807C46.3859 36.2771 46.608 36.1734 46.8006 36.0697L46.7858 34.1592C46.5784 34.2777 46.3711 34.3665 46.1637 34.4554ZM44.89 34.9441L44.9049 36.8695C45.1122 36.7954 45.3344 36.7362 45.5269 36.6621L45.5121 34.7516C45.3047 34.8405 45.0974 34.8849 44.89 34.9441ZM43.6163 35.2848L43.6311 37.2397C43.8385 37.1953 44.0458 37.1361 44.2532 37.0916L44.2384 35.1515C44.031 35.2107 43.8237 35.2403 43.6163 35.2848Z" fill="url(#paint12_linear_108_15888)"/>
<path d="M40.7217 35.5961C45.5803 35.5758 49.5095 33.2849 49.4978 30.4793C49.4861 27.6737 45.5379 25.4158 40.6792 25.4361C35.8206 25.4564 31.8913 27.7473 31.9031 30.5529C31.9148 33.3585 35.863 35.6164 40.7217 35.5961Z" fill="#FFCE45"/>
<path d="M46.3565 27.2279C49.4964 29.02 49.5112 31.9524 46.3862 33.7741C43.2612 35.5958 38.1812 35.6106 35.0414 33.8185C31.9016 32.0265 31.8868 29.094 35.0118 27.2723C38.1368 25.4507 43.2167 25.421 46.3565 27.2279Z" fill="#FFCE45"/>
<path opacity="0.6" d="M35.1748 27.687C38.2109 25.9098 43.1576 25.895 46.2085 27.6426C48.4301 28.9163 49.0373 30.7676 48.0302 32.3671C49.3335 30.6639 48.7707 28.6053 46.3566 27.2279C43.2168 25.4359 38.1369 25.4507 35.0119 27.2724C32.5978 28.6793 32.0646 30.738 33.3827 32.4264C32.3756 30.8417 32.968 28.9755 35.1748 27.687Z" fill="#E0890B"/>
<path d="M61.0933 39.3577C58.694 38.6912 56.1466 38.706 53.7621 39.3873C50.3854 40.3648 48.6822 42.1716 48.6526 43.9785C48.6377 44.6598 48.6377 45.3263 48.6674 46.0075C48.7118 47.8144 50.4298 49.6213 53.8214 50.5692C56.2207 51.2356 58.7681 51.2208 61.1525 50.5395C64.5293 49.562 66.2325 47.7552 66.2621 45.9483C66.2769 45.267 66.2769 44.6006 66.2473 43.9193C66.2029 42.0976 64.4849 40.3055 61.0933 39.3577Z" fill="url(#paint13_linear_108_15888)"/>
<path opacity="0.2" d="M49.4665 46.1556L49.4813 48.081C49.1999 47.7255 48.9926 47.3553 48.8593 46.985L48.8445 45.1041C48.9778 45.4743 49.2 45.8298 49.4665 46.1556ZM53.9689 48.6882L53.9837 50.6135C54.191 50.6728 54.3984 50.7172 54.6057 50.7616L54.5909 48.8067C54.3836 48.7771 54.1762 48.7326 53.9689 48.6882ZM56.5311 49.0436L56.5459 51.0282C56.7533 51.043 56.9606 51.043 57.1679 51.043L57.1531 49.0733C56.931 49.0733 56.7384 49.0584 56.5311 49.0436ZM55.2426 48.9252L55.2574 50.8949C55.4647 50.9246 55.6721 50.9542 55.8794 50.9838L55.8646 49.0288C55.6573 48.9992 55.4499 48.9548 55.2426 48.9252ZM50.133 46.8665L50.1478 48.7622C50.3403 48.9252 50.5477 49.0881 50.7698 49.2362L50.755 47.296C50.5477 47.1627 50.3107 47.0146 50.133 46.8665ZM52.6952 48.3031L52.71 50.2137C52.9025 50.2877 53.1247 50.347 53.3321 50.421L53.3172 48.4957C53.1099 48.4216 52.8877 48.3772 52.6952 48.3031ZM51.4067 47.7255L51.4215 49.6361C51.614 49.7397 51.8214 49.8434 52.0435 49.9323L52.0287 48.0069C51.8214 47.9181 51.614 47.8292 51.4067 47.7255ZM57.8048 49.0733L57.8196 51.043C58.027 51.043 58.2343 51.0282 58.4416 51.0134L58.4268 49.0288C58.2195 49.0585 58.0121 49.0733 57.8048 49.0733ZM64.1733 47.222L64.1881 49.1621C64.4102 48.9992 64.6176 48.8363 64.8101 48.6734L64.7953 46.7777C64.6176 46.9406 64.3806 47.0887 64.1733 47.222ZM59.0785 48.9992L59.0933 50.9542C59.3006 50.9246 59.508 50.8949 59.7153 50.8653L59.7005 48.8955C59.4932 48.94 59.2858 48.9844 59.0785 48.9992ZM65.447 46.0668L65.4618 47.9921C65.7432 47.6218 65.9505 47.2516 66.069 46.8517L66.0542 44.9856C65.9357 45.3707 65.7135 45.7261 65.447 46.0668ZM62.8996 47.9477L62.9144 49.873C63.1217 49.7694 63.3439 49.6657 63.5364 49.562L63.5216 47.6515C63.3291 47.77 63.1069 47.8588 62.8996 47.9477ZM61.6259 48.4512L61.6407 50.3766C61.848 50.3025 62.0702 50.2433 62.2627 50.1692L62.2479 48.2587C62.0554 48.3327 61.8332 48.3772 61.6259 48.4512ZM60.3522 48.7919L60.367 50.7468C60.5743 50.7024 60.7817 50.6432 60.989 50.5987L60.9742 48.6586C60.7669 48.703 60.5595 48.7474 60.3522 48.7919Z" fill="url(#paint14_linear_108_15888)"/>
<path d="M63.6549 40.3948C67.1057 42.3646 67.1205 45.5784 63.6845 47.5778C60.2485 49.5772 54.6798 49.6069 51.229 47.6371C47.7782 45.6673 47.7634 42.4534 51.1994 40.454C54.6354 38.4546 60.2041 38.425 63.6549 40.3948Z" fill="#FFCE45"/>
<path d="M63.0921 40.7204C66.2319 42.5124 66.2467 45.4449 63.1217 47.2665C59.9967 49.0882 54.9168 49.103 51.777 47.311C48.6372 45.5189 48.6224 42.5865 51.7474 40.7648C54.8872 38.9431 59.9523 38.9283 63.0921 40.7204Z" fill="#FFCE45"/>
<path opacity="0.6" d="M51.9101 41.1943C54.9463 39.417 59.893 39.4022 62.9439 41.1498C65.1655 42.4235 65.7727 44.2748 64.7656 45.8743C66.0689 44.1711 65.5061 42.1125 63.092 40.7351C59.9522 38.9431 54.8722 38.9579 51.7472 40.7796C49.3331 42.1866 48.7999 44.2452 50.1181 45.9336C49.111 44.3341 49.7034 42.4828 51.9101 41.1943Z" fill="#E0890B"/>
<path d="M60.2938 36.4252C57.8945 35.7587 55.3471 35.7735 52.9626 36.4548C49.5858 37.4323 47.8826 39.2392 47.853 41.046C47.8382 41.7273 47.8382 42.3938 47.8678 43.075C47.9122 44.8967 49.6302 46.6888 53.0218 47.6367C55.4211 48.3031 57.9685 48.2883 60.353 47.607C63.7298 46.6296 65.433 44.8227 65.4626 43.0158C65.4774 42.3345 65.4774 41.6681 65.4478 40.9868C65.4033 39.1799 63.6853 37.373 60.2938 36.4252Z" fill="url(#paint15_linear_108_15888)"/>
<path opacity="0.2" d="M48.6816 43.2379L48.6964 45.1633C48.415 44.8078 48.2077 44.4376 48.0744 44.0673L48.0596 42.1864C48.1929 42.5418 48.4002 42.8973 48.6816 43.2379ZM53.1692 45.7557L53.184 47.681C53.3913 47.7403 53.5987 47.7847 53.806 47.8291L53.7912 45.8742C53.5839 45.8446 53.3765 45.8149 53.1692 45.7557ZM55.7314 46.126L55.7462 48.1105C55.9535 48.1254 56.1609 48.1254 56.3682 48.1254L56.3534 46.1556C56.1461 46.1556 55.9387 46.1408 55.7314 46.126ZM54.4429 45.9927L54.4577 47.9624C54.665 47.9921 54.8724 48.0217 55.0797 48.0513L55.0649 46.0963C54.8576 46.0667 54.6502 46.0223 54.4429 45.9927ZM49.3333 43.934L49.3481 45.8297C49.5406 45.9927 49.748 46.1556 49.9701 46.3037L49.9553 44.3635C49.748 44.2302 49.511 44.0969 49.3333 43.934ZM51.8955 45.3706L51.9103 47.2812C52.1028 47.3552 52.325 47.4145 52.5323 47.4885L52.5175 45.5632C52.3102 45.5039 52.088 45.4447 51.8955 45.3706ZM50.6218 44.793L50.6366 46.7036C50.8291 46.8072 51.0365 46.9109 51.2586 46.9998L51.2438 45.0744C51.0217 44.9855 50.8143 44.8967 50.6218 44.793ZM57.0051 46.1556L57.0199 48.1254C57.2272 48.1254 57.4346 48.1105 57.6419 48.0957L57.6271 46.1111C57.4197 46.126 57.2124 46.1408 57.0051 46.1556ZM63.3735 44.3043L63.3883 46.2444C63.6105 46.0815 63.8178 45.9186 64.0104 45.7557L63.9956 43.86C63.8178 44.0229 63.5809 44.1562 63.3735 44.3043ZM58.2788 46.0815L58.2936 48.0365C58.5009 48.0069 58.7082 47.9772 58.9156 47.9476L58.9008 45.9778C58.6934 46.0075 58.4861 46.0519 58.2788 46.0815ZM64.6472 43.1343L64.662 45.0596C64.9434 44.6893 65.1508 44.3191 65.2693 43.9192L65.2544 42.0531C65.136 42.4382 64.9138 42.7936 64.6472 43.1343ZM62.0998 45.03L62.1146 46.9553C62.322 46.8517 62.5441 46.748 62.7367 46.6443L62.7219 44.7338C62.5293 44.8375 62.3072 44.9263 62.0998 45.03ZM60.8261 45.5187L60.8409 47.4441C61.0483 47.37 61.2704 47.3108 61.463 47.2367L61.4482 45.3262C61.2556 45.4002 61.0335 45.4595 60.8261 45.5187ZM59.5524 45.8594L59.5673 47.8143C59.7746 47.7699 59.9819 47.7107 60.1893 47.6662L60.1745 45.7261C59.9671 45.7705 59.7598 45.8149 59.5524 45.8594Z" fill="url(#paint16_linear_108_15888)"/>
<path d="M62.8554 37.4623C66.3062 39.4321 66.321 42.646 62.885 44.6454C59.449 46.6448 53.8803 46.6744 50.4294 44.7046C46.9786 42.7348 46.9638 39.521 50.3998 37.5215C53.8358 35.5221 59.4045 35.4925 62.8554 37.4623Z" fill="#FFCE45"/>
<path d="M56.6563 45.7272C61.0815 45.7086 64.6601 43.6181 64.6493 41.0579C64.6386 38.4977 61.0426 36.4373 56.6174 36.4559C52.1923 36.4744 48.6137 38.565 48.6244 41.1252C48.6352 43.6854 52.2312 45.7458 56.6563 45.7272Z" fill="#FFCE45"/>
<path opacity="0.6" d="M51.1103 38.2618C54.1465 36.4845 59.0931 36.4697 62.1441 38.2173C64.3656 39.491 64.9728 41.3423 63.9657 42.9419C65.2691 41.2387 64.7063 39.18 62.2922 37.8026C59.1524 36.0106 54.0724 36.0254 50.9474 37.8471C48.5333 39.2541 48.0001 41.3127 49.3183 43.0011C48.3112 41.4016 48.9036 39.5503 51.1103 38.2618Z" fill="#E0890B"/>
<path d="M60.3086 34.1148C57.9093 33.4483 55.3619 33.4631 52.9775 34.1444C49.6007 35.1219 47.8975 36.9287 47.8679 38.7356C47.8531 39.4169 47.8531 40.0834 47.8827 40.7646C47.9271 42.5715 49.6451 44.3784 53.0367 45.3262C55.436 45.9927 57.9834 45.9779 60.3679 45.2966C63.7446 44.3191 65.4478 42.5123 65.4774 40.7054C65.4922 40.0241 65.4922 39.3576 65.4626 38.6764C65.4182 36.8547 63.7002 35.0626 60.3086 34.1148Z" fill="url(#paint17_linear_108_15888)"/>
<path opacity="0.2" d="M48.6967 40.9276L48.7115 42.853C48.4301 42.4975 48.2228 42.1273 48.0895 41.757L48.0747 39.8761C48.208 40.2315 48.4153 40.587 48.6967 40.9276ZM53.1843 43.4454L53.1991 45.3707C53.4064 45.43 53.6138 45.4744 53.8211 45.5189L53.8063 43.5639C53.599 43.5343 53.3916 43.5046 53.1843 43.4454ZM55.7465 43.8157L55.7613 45.8003C55.9687 45.8151 56.176 45.8151 56.3833 45.8151L56.3685 43.8453C56.1612 43.8453 55.9538 43.8157 55.7465 43.8157ZM54.4728 43.6824L54.4876 45.6522C54.695 45.6818 54.9023 45.7114 55.1097 45.741L55.08 43.7712C54.8727 43.7564 54.6801 43.712 54.4728 43.6824ZM49.3484 41.6237L49.3632 43.5195C49.5557 43.6824 49.7631 43.8453 49.9852 43.9934L49.9704 42.0532C49.7631 41.9199 49.5261 41.7866 49.3484 41.6237ZM51.9106 43.0603L51.9254 44.9709C52.1179 45.0449 52.3401 45.1042 52.5474 45.1782L52.5326 43.2529C52.3253 43.1936 52.1031 43.1344 51.9106 43.0603ZM50.6369 42.4827L50.6517 44.3933C50.8442 44.4969 51.0516 44.6006 51.2737 44.6895L51.2589 42.7641C51.0368 42.6753 50.8294 42.5864 50.6369 42.4827ZM57.0202 43.8453L57.035 45.8151C57.2424 45.8151 57.4497 45.8002 57.657 45.7854L57.6422 43.8009C57.4349 43.8157 57.2275 43.8305 57.0202 43.8453ZM63.3887 41.994L63.4035 43.9341C63.6256 43.7712 63.833 43.6083 64.0255 43.4454L64.0107 41.5497C63.833 41.6978 63.6108 41.8459 63.3887 41.994ZM58.2939 43.7564L58.3087 45.7114C58.516 45.6818 58.7234 45.6521 58.9307 45.6225L58.9159 43.6527C58.7086 43.6972 58.5012 43.7416 58.2939 43.7564ZM64.6624 40.824L64.6772 42.7493C64.9586 42.379 65.1659 42.0088 65.2844 41.6089L65.2696 39.7428C65.1511 40.1279 64.9438 40.4833 64.6624 40.824ZM62.115 42.7197L62.1298 44.645C62.3371 44.5414 62.5593 44.4377 62.7518 44.334L62.737 42.4235C62.5445 42.5272 62.3223 42.616 62.115 42.7197ZM60.8413 43.2084L60.8561 45.1338C61.0634 45.0597 61.2856 45.0005 61.4781 44.9264L61.4633 43.0159C61.2708 43.0899 61.0486 43.1492 60.8413 43.2084ZM59.5676 43.5491L59.5824 45.504C59.7897 45.4596 59.9971 45.4004 60.2044 45.3559L60.1896 43.4158C59.9823 43.4602 59.7749 43.5046 59.5676 43.5491Z" fill="url(#paint18_linear_108_15888)"/>
<path d="M62.8703 35.1519C66.3211 37.1217 66.3359 40.3355 62.8999 42.3349C59.4639 44.3343 53.8951 44.364 50.4443 42.3942C46.9935 40.4244 46.9787 37.2105 50.4147 35.2111C53.8507 33.2117 59.4194 33.1821 62.8703 35.1519Z" fill="#FFCE45"/>
<path d="M62.3077 35.4774C65.4475 37.2695 65.4623 40.2019 62.3373 42.0236C59.2123 43.8453 54.1324 43.8601 50.9926 42.0681C47.8528 40.276 47.8379 37.3435 50.9629 35.5219C54.1027 33.7002 59.1827 33.6854 62.3077 35.4774Z" fill="#FFCE45"/>
<path opacity="0.6" d="M51.1257 35.9513C54.1619 34.1741 59.1085 34.1593 62.1595 35.9069C64.381 37.1806 64.9882 39.0319 63.9811 40.6314C65.2845 38.9282 64.7217 36.8696 62.3076 35.4922C59.1678 33.7001 54.0878 33.715 50.9628 35.5366C48.5487 36.9436 48.0155 39.0023 49.3336 40.6907C48.3265 39.0911 48.919 37.2398 51.1257 35.9513Z" fill="#E0890B"/>
<path d="M51.6587 46.2445C49.2594 45.578 46.712 45.5929 44.3276 46.2741C40.9508 47.2516 39.2476 49.0585 39.218 50.8654C39.2032 51.5466 39.2032 52.2131 39.2328 52.8944C39.2772 54.7161 40.9952 56.5081 44.3868 57.456C46.7861 58.1225 49.3335 58.1077 51.7179 57.4264C55.0947 56.4489 56.7979 54.642 56.8275 52.8352C56.8423 52.1539 56.8423 51.4874 56.8127 50.8061C56.7683 48.9844 55.0503 47.1776 51.6587 46.2445Z" fill="url(#paint19_linear_108_15888)"/>
<path opacity="0.2" d="M40.0471 53.0425L40.0619 54.9678C39.7805 54.6124 39.5732 54.2421 39.4399 53.8718L39.425 51.9909C39.5583 52.3464 39.7657 52.7018 40.0471 53.0425ZM44.5346 55.5602L44.5494 57.4856C44.7568 57.5448 44.9641 57.5893 45.1715 57.6337L45.1567 55.6787C44.9493 55.6491 44.742 55.6195 44.5346 55.5602ZM47.0968 55.9305L47.1116 57.9151C47.319 57.9299 47.5263 57.9299 47.7337 57.9299L47.7189 55.9601C47.5115 55.9601 47.3042 55.9453 47.0968 55.9305ZM45.8231 55.7972L45.8379 57.767C46.0453 57.7966 46.2526 57.8262 46.46 57.8558L46.4452 55.9009C46.223 55.8712 46.0305 55.8268 45.8231 55.7972ZM40.6987 53.7534L40.7136 55.6491C40.9061 55.812 41.1134 55.9749 41.3356 56.123L41.3208 54.1829C41.1134 54.0348 40.8765 53.9015 40.6987 53.7534ZM43.2609 55.19L43.2758 57.1005C43.4683 57.1746 43.6904 57.2338 43.8978 57.3079L43.883 55.3825C43.6756 55.3085 43.4535 55.2492 43.2609 55.19ZM41.9873 54.5975L42.0021 56.5081C42.1946 56.6118 42.4019 56.7154 42.6241 56.8043L42.6093 54.8789C42.3871 54.7901 42.1798 54.7012 41.9873 54.5975ZM48.3705 55.9601L48.3853 57.9299C48.5927 57.9299 48.8 57.9151 49.0074 57.9003L48.9926 55.9157C48.7852 55.9305 48.5779 55.9453 48.3705 55.9601ZM54.739 54.1088L54.7538 56.049C54.976 55.8861 55.1833 55.7231 55.3758 55.5602L55.361 53.6645C55.1833 53.8274 54.9612 53.9607 54.739 54.1088ZM49.6442 55.8861L49.659 57.841C49.8664 57.8114 50.0737 57.7818 50.2811 57.7522L50.2663 55.7824C50.0589 55.812 49.8516 55.8564 49.6442 55.8861ZM56.0127 52.9536L56.0275 54.8789C56.3089 54.5087 56.5163 54.1384 56.6347 53.7386L56.6199 51.8724C56.5014 52.2427 56.2941 52.5981 56.0127 52.9536ZM53.4653 54.8345L53.4801 56.7599C53.6875 56.6562 53.9096 56.5525 54.1022 56.4488L54.0873 54.5383C53.8948 54.642 53.6875 54.7308 53.4653 54.8345ZM52.1916 55.3233L52.2064 57.2486C52.4138 57.1746 52.6359 57.1153 52.8285 57.0413L52.8137 55.1307C52.6211 55.2048 52.399 55.264 52.1916 55.3233ZM50.9179 55.6639L50.9327 57.6189C51.1401 57.5744 51.3474 57.5152 51.5548 57.4708L51.54 55.5306C51.3326 55.575 51.1253 55.6195 50.9179 55.6639Z" fill="url(#paint20_linear_108_15888)"/>
<path d="M54.2206 47.2816C57.6714 49.2514 57.6862 52.4653 54.2502 54.4647C50.8142 56.4641 45.2455 56.4937 41.7947 54.5239C38.3438 52.5541 38.329 49.3403 41.765 47.3409C45.2011 45.3267 50.7698 45.3119 54.2206 47.2816Z" fill="#FFCE45"/>
<path d="M48.0361 55.5317C52.4613 55.5131 56.0399 53.4226 56.0291 50.8624C56.0184 48.3022 52.4224 46.2418 47.9973 46.2604C43.5721 46.2789 39.9936 48.3694 40.0043 50.9296C40.015 53.4898 43.611 55.5502 48.0361 55.5317Z" fill="#FFCE45"/>
<path opacity="0.6" d="M42.4758 48.0661C45.5119 46.2888 50.4586 46.274 53.5096 48.0216C55.7311 49.2953 56.3384 51.1466 55.3312 52.7462C56.6346 51.043 56.0718 48.9843 53.6577 47.607C50.5179 45.8149 45.4379 45.8297 42.3129 47.6514C39.8988 49.0584 39.3656 51.117 40.6838 52.8054C39.6766 51.2207 40.2691 49.3546 42.4758 48.0661Z" fill="#E0890B"/>
<path d="M51.3328 43.9341C48.9335 43.2676 46.3861 43.2824 44.0016 43.9637C40.6249 44.9412 38.9217 46.7481 38.8921 48.5549C38.8772 49.2362 38.8772 49.9027 38.9069 50.584C38.9513 52.3908 40.6693 54.1977 44.0609 55.1456C46.4602 55.812 49.0076 55.7972 51.392 55.116C54.7688 54.1385 56.472 52.3316 56.5016 50.5247C56.5165 49.8434 56.5164 49.177 56.4868 48.4957C56.4424 46.674 54.7244 44.8672 51.3328 43.9341Z" fill="url(#paint21_linear_108_15888)"/>
<path opacity="0.2" d="M39.7212 50.732L39.736 52.6574C39.4546 52.3019 39.2472 51.9317 39.1139 51.5614L39.0991 49.6805C39.2324 50.0359 39.4546 50.3914 39.7212 50.732ZM44.2235 53.2498L44.2383 55.1751C44.4457 55.2344 44.653 55.2788 44.8604 55.3232L44.8455 53.3683C44.6382 53.3387 44.4309 53.309 44.2235 53.2498ZM46.7709 53.6201L46.7857 55.6046C46.993 55.6194 47.2004 55.6195 47.4078 55.6195L47.3929 53.6497C47.1856 53.6497 46.9782 53.6349 46.7709 53.6201ZM45.4972 53.4868L45.512 55.4565C45.7194 55.4862 45.9267 55.5158 46.1341 55.5454L46.1192 53.5904C45.9119 53.5608 45.7046 53.5164 45.4972 53.4868ZM40.3876 51.4281L40.4024 53.3238C40.595 53.4868 40.7875 53.6497 41.0245 53.7978L41.0097 51.8576C40.7875 51.7243 40.5654 51.591 40.3876 51.4281ZM42.935 52.8647L42.9498 54.7753C43.1424 54.8493 43.3645 54.9086 43.5719 54.9826L43.557 53.0573C43.3497 52.998 43.1424 52.9388 42.935 52.8647ZM41.6613 52.2871L41.6761 54.1977C41.8687 54.3013 42.076 54.405 42.2982 54.4939L42.2834 52.5685C42.076 52.4797 41.8539 52.3908 41.6613 52.2871ZM48.0446 53.6497L48.0594 55.6195C48.2667 55.6195 48.4741 55.6046 48.6814 55.5898L48.6666 53.6052C48.4593 53.62 48.2519 53.6349 48.0446 53.6497ZM54.4279 51.7984L54.4427 53.7385C54.6648 53.5756 54.8722 53.4127 55.0647 53.2498L55.0499 51.3541C54.8722 51.517 54.6352 51.6503 54.4279 51.7984ZM49.3331 53.5756L49.3479 55.5306C49.5553 55.501 49.7626 55.4713 49.9699 55.4417L49.9551 53.472C49.733 53.5016 49.5404 53.546 49.3331 53.5756ZM55.7016 50.6432L55.7164 52.5685C55.9978 52.1983 56.2051 51.828 56.3236 51.4281L56.3088 49.562C56.1903 49.9323 55.9681 50.2877 55.7016 50.6432ZM53.1542 52.5241L53.169 54.4494C53.3763 54.3458 53.5985 54.2421 53.791 54.1384L53.7762 52.2279C53.5689 52.3315 53.3615 52.4204 53.1542 52.5241ZM51.8805 53.0128L51.8953 54.9382C52.1026 54.8641 52.3248 54.8049 52.5173 54.7308L52.5025 52.8203C52.2952 52.8943 52.0878 52.9536 51.8805 53.0128ZM50.6068 53.3535L50.6216 55.3084C50.829 55.264 51.0363 55.2048 51.2436 55.1603L51.2288 53.2202C51.0215 53.2646 50.8141 53.309 50.6068 53.3535Z" fill="url(#paint22_linear_108_15888)"/>
<path d="M53.8947 44.9558C57.3455 46.9256 57.3603 50.1395 53.9243 52.1389C50.4883 54.1383 44.9196 54.1679 41.4687 52.1981C38.0179 50.2283 38.0031 47.0145 41.4391 45.0151C44.8751 43.0157 50.4587 42.9861 53.8947 44.9558Z" fill="#FFCE45"/>
<path d="M47.7102 53.2212C52.1354 53.2027 55.7139 51.1122 55.7032 48.552C55.6925 45.9918 52.0965 43.9314 47.6714 43.9499C43.2462 43.9685 39.6676 46.059 39.6784 48.6192C39.6891 51.1794 43.2851 53.2398 47.7102 53.2212Z" fill="#FFCE45"/>
<path opacity="0.6" d="M42.1648 45.7559C45.2009 43.9787 50.1476 43.9638 53.1985 45.7115C55.4201 46.9851 56.0273 48.8364 55.0202 50.436C56.3235 48.7328 55.7607 46.6741 53.3466 45.2968C50.2068 43.5047 45.1269 43.5195 42.0019 45.3412C39.5878 46.7482 39.0546 48.8068 40.3727 50.4952C39.3656 48.9105 39.958 47.0444 42.1648 45.7559Z" fill="#E0890B"/>
<defs>
<linearGradient id="paint0_linear_108_15888" x1="46.5393" y1="-12.9838" x2="131.375" y2="51.7499" gradientUnits="userSpaceOnUse">
<stop stop-color="#7626F5"/>
<stop offset="0.2544" stop-color="#8328F6"/>
<stop offset="0.7257" stop-color="#A62FFA"/>
<stop offset="1" stop-color="#BD33FC"/>
</linearGradient>
<linearGradient id="paint1_linear_108_15888" x1="31.2162" y1="43.7994" x2="48.8408" y2="43.7994" gradientUnits="userSpaceOnUse">
<stop stop-color="#D88000"/>
<stop offset="1" stop-color="#FFAC33"/>
</linearGradient>
<linearGradient id="paint2_linear_108_15888" x1="31.433" y1="46.8585" x2="48.6544" y2="46.8585" gradientUnits="userSpaceOnUse">
<stop stop-color="#D88F25"/>
<stop offset="1" stop-color="#EBA136"/>
</linearGradient>
<linearGradient id="paint3_linear_108_15888" x1="31.1837" y1="40.8716" x2="48.8082" y2="40.8716" gradientUnits="userSpaceOnUse">
<stop stop-color="#D88000"/>
<stop offset="1" stop-color="#FFAC33"/>
</linearGradient>
<linearGradient id="paint4_linear_108_15888" x1="31.4016" y1="43.9307" x2="48.6228" y2="43.9307" gradientUnits="userSpaceOnUse">
<stop stop-color="#D88F25"/>
<stop offset="1" stop-color="#EBA136"/>
</linearGradient>
<linearGradient id="paint5_linear_108_15888" x1="31.2001" y1="38.5601" x2="48.8248" y2="38.5601" gradientUnits="userSpaceOnUse">
<stop stop-color="#D88000"/>
<stop offset="1" stop-color="#FFAC33"/>
</linearGradient>
<linearGradient id="paint6_linear_108_15888" x1="31.4169" y1="41.6191" x2="48.6382" y2="41.6191" gradientUnits="userSpaceOnUse">
<stop stop-color="#D88F25"/>
<stop offset="1" stop-color="#EBA136"/>
</linearGradient>
<linearGradient id="paint7_linear_108_15888" x1="31.2162" y1="36.2483" x2="48.8408" y2="36.2483" gradientUnits="userSpaceOnUse">
<stop stop-color="#D88000"/>
<stop offset="1" stop-color="#FFAC33"/>
</linearGradient>
<linearGradient id="paint8_linear_108_15888" x1="31.433" y1="39.3074" x2="48.6544" y2="39.3074" gradientUnits="userSpaceOnUse">
<stop stop-color="#D88F25"/>
<stop offset="1" stop-color="#EBA136"/>
</linearGradient>
<linearGradient id="paint9_linear_108_15888" x1="31.9662" y1="33.9646" x2="49.5907" y2="33.9646" gradientUnits="userSpaceOnUse">
<stop stop-color="#D88000"/>
<stop offset="1" stop-color="#FFAC33"/>
</linearGradient>
<linearGradient id="paint10_linear_108_15888" x1="32.1836" y1="37.0237" x2="49.4048" y2="37.0237" gradientUnits="userSpaceOnUse">
<stop stop-color="#D88F25"/>
<stop offset="1" stop-color="#EBA136"/>
</linearGradient>
<linearGradient id="paint11_linear_108_15888" x1="31.891" y1="31.4711" x2="49.5156" y2="31.4711" gradientUnits="userSpaceOnUse">
<stop stop-color="#D88000"/>
<stop offset="1" stop-color="#FFAC33"/>
</linearGradient>
<linearGradient id="paint12_linear_108_15888" x1="32.1079" y1="34.5302" x2="49.3292" y2="34.5302" gradientUnits="userSpaceOnUse">
<stop stop-color="#D88F25"/>
<stop offset="1" stop-color="#EBA136"/>
</linearGradient>
<linearGradient id="paint13_linear_108_15888" x1="48.6327" y1="44.9682" x2="66.2574" y2="44.9682" gradientUnits="userSpaceOnUse">
<stop stop-color="#D88000"/>
<stop offset="1" stop-color="#FFAC33"/>
</linearGradient>
<linearGradient id="paint14_linear_108_15888" x1="48.8498" y1="48.0272" x2="66.0711" y2="48.0272" gradientUnits="userSpaceOnUse">
<stop stop-color="#D88F25"/>
<stop offset="1" stop-color="#EBA136"/>
</linearGradient>
<linearGradient id="paint15_linear_108_15888" x1="47.8345" y1="42.0402" x2="65.4592" y2="42.0402" gradientUnits="userSpaceOnUse">
<stop stop-color="#D88000"/>
<stop offset="1" stop-color="#FFAC33"/>
</linearGradient>
<linearGradient id="paint16_linear_108_15888" x1="48.0516" y1="45.0993" x2="65.2728" y2="45.0993" gradientUnits="userSpaceOnUse">
<stop stop-color="#D88F25"/>
<stop offset="1" stop-color="#EBA136"/>
</linearGradient>
<linearGradient id="paint17_linear_108_15888" x1="47.8507" y1="39.7286" x2="65.4754" y2="39.7286" gradientUnits="userSpaceOnUse">
<stop stop-color="#D88000"/>
<stop offset="1" stop-color="#FFAC33"/>
</linearGradient>
<linearGradient id="paint18_linear_108_15888" x1="48.0679" y1="42.7878" x2="65.2891" y2="42.7878" gradientUnits="userSpaceOnUse">
<stop stop-color="#D88F25"/>
<stop offset="1" stop-color="#EBA136"/>
</linearGradient>
<linearGradient id="paint19_linear_108_15888" x1="39.2012" y1="51.8468" x2="56.8259" y2="51.8468" gradientUnits="userSpaceOnUse">
<stop stop-color="#D88000"/>
<stop offset="1" stop-color="#FFAC33"/>
</linearGradient>
<linearGradient id="paint20_linear_108_15888" x1="39.4187" y1="54.9059" x2="56.6399" y2="54.9059" gradientUnits="userSpaceOnUse">
<stop stop-color="#D88F25"/>
<stop offset="1" stop-color="#EBA136"/>
</linearGradient>
<linearGradient id="paint21_linear_108_15888" x1="38.8814" y1="49.5351" x2="56.5061" y2="49.5351" gradientUnits="userSpaceOnUse">
<stop stop-color="#D88000"/>
<stop offset="1" stop-color="#FFAC33"/>
</linearGradient>
<linearGradient id="paint22_linear_108_15888" x1="39.0988" y1="52.5943" x2="56.3202" y2="52.5943" gradientUnits="userSpaceOnUse">
<stop stop-color="#D88F25"/>
<stop offset="1" stop-color="#EBA136"/>
</linearGradient>
</defs>
</svg>
