<svg width="24" height="24" fill="none" xmlns="http://www.w3.org/2000/svg"><path fill-rule="evenodd" clip-rule="evenodd" d="M6 3.875C6 3.392 6.392 3 6.875 3h10c.483 0 .875.392.875.875v2.353a2.875 2.875 0 110 5.293v.354a5.876 5.876 0 01-5 5.81V20h3.125a.875.875 0 010 1.75h-8a.875.875 0 010-1.75H11v-2.316a5.875 5.875 0 01-5-5.809v-.353a2.875 2.875 0 110-5.293V3.874zm11.75 5a1.125 1.125 0 102.25 0 1.125 1.125 0 00-2.25 0zM4.875 7.75a1.125 1.125 0 110 2.25 1.125 1.125 0 010-2.25z" fill="#A6ACB7"/></svg>