<svg width="20" height="20" fill="none" xmlns="http://www.w3.org/2000/svg"><path fill-rule="evenodd" clip-rule="evenodd" d="M7.333 10.833a3.5 3.5 0 013.5-3.5H15a3.5 3.5 0 013.5 3.5V15a3.5 3.5 0 01-3.5 3.5h-4.167a3.5 3.5 0 01-3.5-3.5v-4.167zm3.5-1.5a1.5 1.5 0 00-1.5 1.5V15a1.5 1.5 0 001.5 1.5H15a1.5 1.5 0 001.5-1.5v-4.167a1.5 1.5 0 00-1.5-1.5h-4.167z" fill="#646E82"/><path fill-rule="evenodd" clip-rule="evenodd" d="M1.5 5A3.5 3.5 0 015 1.5h4.167a3.5 3.5 0 013.5 3.5v.174a1 1 0 11-2 0V5a1.5 1.5 0 00-1.5-1.5H5A1.5 1.5 0 003.5 5v4.167a1.5 1.5 0 001.5 1.5h.174a1 1 0 110 2H5a3.5 3.5 0 01-3.5-3.5V5z" fill="#646E82"/></svg>