<svg width="24" height="24" fill="none" xmlns="http://www.w3.org/2000/svg"><path fill-rule="evenodd" clip-rule="evenodd" d="M5.615 5.995A2.75 2.75 0 018.259 4h7.483a2.75 2.75 0 012.644 1.995l1.585 5.549a.75.75 0 11-1.442.412l-1.585-5.55a1.25 1.25 0 00-1.202-.906H8.259a1.25 1.25 0 00-1.202.907L5.47 11.956a.75.75 0 01-1.442-.412l1.586-5.55z" fill="#A6ACB7"/><path fill-rule="evenodd" clip-rule="evenodd" d="M4 11.75a.75.75 0 01.75-.75h4.42c.769 0 1.324.502 1.64.912a1.496 1.496 0 002.382 0m-.001 0c.315-.41.87-.912 1.638-.912h4.421a.75.75 0 01.75.75v5.5A2.75 2.75 0 0117.25 20H6.75A2.75 2.75 0 014 17.25v-5.5" fill="#A6ACB7"/></svg>