<svg width="20" height="20" fill="none" xmlns="http://www.w3.org/2000/svg"><path fill-rule="evenodd" clip-rule="evenodd" d="M5.833 3.5A2.333 2.333 0 003.5 5.833v8.334A2.333 2.333 0 005.833 16.5h8.334a2.333 2.333 0 002.333-2.333v-5a1 1 0 112 0v5a4.333 4.333 0 01-4.333 4.333H5.833A4.333 4.333 0 011.5 14.167V5.833A4.333 4.333 0 015.833 1.5h5a1 1 0 110 2h-5z" fill="#A6ACB7"/><path fill-rule="evenodd" clip-rule="evenodd" d="M15.998 3.5a.502.502 0 00-.355.147L9.11 10.18l-.237.947.947-.237 6.532-6.532a.502.502 0 00-.355-.857zm-1.77-1.267a2.502 2.502 0 113.54 3.539l-6.728 6.727a1 1 0 01-.465.263l-2.832.708a1 1 0 01-1.213-1.213l.708-2.832a1 1 0 01.263-.465l6.728-6.727z" fill="#A6ACB7"/><path fill-rule="evenodd" clip-rule="evenodd" d="M12.626 4.293a1 1 0 011.415 0l1.666 1.667a1 1 0 01-1.414 1.414l-1.667-1.667a1 1 0 010-1.414z" fill="#A6ACB7"/></svg>