<svg width="24" height="24" fill="none" xmlns="http://www.w3.org/2000/svg"><path d="M12 22c5.523 0 10-4.477 10-10S17.523 2 12 2 2 6.477 2 12s4.477 10 10 10z" fill="#A6ACB7"/><path fill-rule="evenodd" clip-rule="evenodd" d="M10.53 6.457a3.475 3.475 0 112.76 6.369.625.625 0 00-.416.624.875.875 0 11-1.748.1 2.375 2.375 0 011.57-2.37 1.726 1.726 0 10-1.999-2.651.875.875 0 11-1.394-1.058 3.475 3.475 0 011.227-1.014zM12 16.125c.483 0 .875.392.875.875v.01a.875.875 0 11-1.75 0V17c0-.483.392-.875.875-.875z" fill="#fff"/></svg>