<svg width="24" height="24" fill="none" xmlns="http://www.w3.org/2000/svg"><path fill-rule="evenodd" clip-rule="evenodd" d="M12.779 3c.909 0 1.646.69 1.646 1.541 0 .655.451 1.223 1.066 1.536.096.048.19.1.284.152.603.34 1.36.422 1.97.095.799-.428 1.816-.173 2.278.571l.753 1.21c.46.74.189 1.69-.606 2.116-.61.326-.912.978-.897 1.635a6.283 6.283 0 010 .288c-.015.657.288 1.309.897 1.635.794.425 1.066 1.376.606 2.117l-.753 1.209c-.462.744-1.48.999-2.277.571-.612-.327-1.368-.245-1.971.095a7.35 7.35 0 01-.284.152c-.615.313-1.066.881-1.066 1.536 0 .851-.737 1.541-1.646 1.541H11.22c-.909 0-1.646-.69-1.646-1.541 0-.655-.451-1.223-1.066-1.536-.096-.048-.19-.1-.284-.152-.603-.34-1.36-.422-1.97-.095-.799.428-1.815.173-2.278-.571l-.753-1.21c-.46-.74-.188-1.69.606-2.116.61-.326.912-.978.897-1.635a6.356 6.356 0 010-.288c.015-.657-.288-1.309-.897-1.635-.794-.426-1.067-1.376-.606-2.117l.753-1.209c.462-.744 1.48-.999 2.277-.571.612.327 1.368.245 1.97-.095.094-.053.19-.104.285-.152.615-.313 1.066-.881 1.066-1.536C9.574 3.69 10.311 3 11.22 3h1.558zM15 12a3 3 0 11-6 0 3 3 0 016 0z" fill="#A6ACB7"/></svg>