<svg width="24" height="24" fill="none" xmlns="http://www.w3.org/2000/svg"><path fill-rule="evenodd" clip-rule="evenodd" d="M12 7c-.283 0-.565.023-.844.067a1 1 0 01-.311-1.975A7.42 7.42 0 0112 5c2.11 0 4.006.927 5.51 2.009 1.51 1.087 2.71 2.391 3.45 3.29a2.66 2.66 0 010 3.402c-.331.403-.752.882-1.248 1.386a1 1 0 01-1.424-1.404c.447-.454.828-.889 1.128-1.253a.66.66 0 000-.86c-.68-.826-1.756-1.989-3.075-2.938C15.014 7.678 13.526 7 12.001 7zM7.908 8.458c-1.431.977-2.6 2.233-3.324 3.112a.66.66 0 000 .86c.68.826 1.756 1.989 3.075 2.938C8.986 16.322 10.474 17 12 17c1.317 0 2.608-.504 3.797-1.263l1.076 1.686C15.491 18.305 13.827 19 12 19c-2.11 0-4.006-.927-5.509-2.009-1.51-1.087-2.71-2.391-3.45-3.29a2.66 2.66 0 010-3.402c.784-.954 2.09-2.368 3.74-3.493l1.127 1.652z" fill="#282C33"/><path fill-rule="evenodd" clip-rule="evenodd" d="M2.293 2.293a1 1 0 011.414 0l18 18a1 1 0 01-1.414 1.414l-18-18a1 1 0 010-1.414zm6.55 9.517a1 1 0 011.225.708 2 2 0 001.414 1.414 1 1 0 01-.518 1.932 4 4 0 01-2.828-2.829 1 1 0 01.707-1.224z" fill="#282C33"/></svg>