<svg width="14" height="18" fill="none" xmlns="http://www.w3.org/2000/svg"><path d="M13.763 1.967a.808.808 0 00-.57-.236h-.808V16.27h.807a.808.808 0 00.808-.807V2.539a.808.808 0 00-.237-.572zM10.48.304a.807.807 0 00-.659-.176L.667 1.744A.808.808 0 000 2.54v12.923c0 .392.281.727.667.795l9.154 1.615a.812.812 0 00.66-.176.807.807 0 00.288-.619V.923a.808.808 0 00-.288-.619zM7.303 10.11a.813.813 0 01-.571.236.815.815 0 01-.572-.236.814.814 0 01-.236-.572c0-.212.086-.42.236-.57a.815.815 0 01.572-.237c.212 0 .42.086.571.236.15.15.237.359.237.571a.818.818 0 01-.237.572z" fill="#646E82"/></svg>