<svg width="16" height="18" fill="none" xmlns="http://www.w3.org/2000/svg"><path d="M3.748 1.9C4.738.773 6.192.126 8 .126c1.808 0 3.262.647 4.252 1.776.973 1.109 1.415 2.588 1.415 4.124V7.54c0 .175.078.406.32.727.233.31.537.601.883.933l.056.053A3.434 3.434 0 0116 11.742c0 1.407-1.099 2.633-2.556 2.633H2.556C1.099 14.375 0 13.149 0 11.742c0-1.03.455-1.894 1.074-2.488L1.13 9.2c.346-.332.65-.624.883-.933.242-.321.32-.552.32-.727V6.025c0-1.536.442-3.015 1.415-4.124z" fill="#646E82"/><path fill-rule="evenodd" clip-rule="evenodd" d="M5.693 15.17a1 1 0 011.388.273.9.9 0 00.355.3c.164.082.36.129.564.129.205 0 .4-.047.564-.129a.914.914 0 00.355-.3 1 1 0 011.662 1.114c-.282.42-.675.752-1.125.976-.45.224-.952.339-1.456.339a3.272 3.272 0 01-1.456-.339 2.912 2.912 0 01-1.125-.976 1 1 0 01.274-1.388z" fill="#646E82"/></svg>