<svg width="24" height="24" fill="none" xmlns="http://www.w3.org/2000/svg"><path fill-rule="evenodd" clip-rule="evenodd" d="M7.66 8.632c-1.32.95-2.396 2.112-3.076 2.938a.66.66 0 000 .86c.68.826 1.756 1.989 3.075 2.938C8.986 16.322 10.474 17 12 17c1.526 0 3.014-.678 4.341-1.632 1.32-.95 2.395-2.112 3.075-2.938a.66.66 0 000-.86c-.68-.826-1.756-1.989-3.075-2.938C15.014 7.678 13.526 7 12.001 7c-1.527 0-3.015.678-4.342 1.632zM6.49 7.01C7.994 5.927 9.891 5 12.001 5s4.005.927 5.508 2.009c1.511 1.087 2.711 2.391 3.451 3.29a2.66 2.66 0 010 3.402c-.74.899-1.94 2.203-3.45 3.29C16.005 18.073 14.11 19 12 19s-4.006-.927-5.509-2.009c-1.51-1.087-2.71-2.391-3.45-3.29a2.66 2.66 0 010-3.402c.74-.899 1.94-2.203 3.45-3.29z" fill="#282C33"/><path fill-rule="evenodd" clip-rule="evenodd" d="M12 10a2 2 0 100 4 2 2 0 000-4zm-4 2a4 4 0 118 0 4 4 0 01-8 0z" fill="#282C33"/></svg>