<svg width="24" height="24" fill="none" xmlns="http://www.w3.org/2000/svg"><path fill-rule="evenodd" clip-rule="evenodd" d="M6.968 4.215c2.419-.806 4.862.709 5.54 3.161.464 1.671.025 3.423-1.043 4.623a8.528 8.528 0 001.528 1.53c1.2-1.076 2.957-1.52 4.633-1.055 2.452.68 3.964 3.126 3.159 5.544-.529 1.586-1.514 2.55-2.828 2.867-1.22.295-2.537-.018-3.699-.5-2.338-.973-4.647-2.888-5.702-3.943-1.08-1.08-2.986-3.393-3.95-5.727-.478-1.16-.786-2.47-.49-3.686.318-1.308 1.277-2.288 2.852-2.814zm3.613 3.694c-.412-1.49-1.784-2.195-2.98-1.796-1.051.35-1.416.872-1.542 1.388-.148.61-.02 1.444.396 2.45.825 1.999 2.535 4.095 3.516 5.077.957.958 3.052 2.677 5.055 3.51 1.01.42 1.85.551 2.462.403.519-.125 1.045-.492 1.4-1.555.399-1.2-.307-2.572-1.796-2.984l.267-.964-.267.964c-1.108-.307-2.247.049-2.925.775-.438.468-1.272.736-1.982.24a10.486 10.486 0 01-2.606-2.609c-.493-.707-.23-1.538.236-1.977.72-.68 1.072-1.816.766-2.922z" fill="#A6ACB7"/></svg>