<svg width="24" height="24" fill="none" xmlns="http://www.w3.org/2000/svg"><path fill-rule="evenodd" clip-rule="evenodd" d="M3.75 3a.75.75 0 000 1.5h.075v9.337c.005.917.25 1.74.843 2.33C5.26 16.756 6.083 17 7 17h4.334v1.287l-2.92 1.459a.75.75 0 00.672 1.341l2.997-1.498 2.998 1.498a.75.75 0 10.67-1.341l-2.917-1.46V17h4.325c.917 0 1.74-.243 2.332-.834.592-.592.834-1.416.834-2.333V4.5h.092a.75.75 0 000-1.5H3.75zm12.659 5.27a.75.75 0 01-.095 1.056l-2.625 2.191-.012.01c-.257.206-.59.307-.93.25a1.167 1.167 0 01-.805-.554l-.002-.004-.801-1.335-2.325 1.942a.75.75 0 01-.962-1.152l2.624-2.19a1.16 1.16 0 01.95-.263c.344.06.626.272.798.556l.002.004.801 1.335 2.325-1.942a.75.75 0 011.057.095z" fill="#A6ACB7"/></svg>