<svg width="24" height="24" fill="none" xmlns="http://www.w3.org/2000/svg"><path fill-rule="evenodd" clip-rule="evenodd" d="M5.493 15.069c.837-1.03 2.122-1.819 4.007-1.819 1.885 0 3.17.789 4.007 1.819.811.999 1.176 2.19 1.342 3.01.222 1.09-.669 1.921-1.63 1.921H5.781c-.963 0-1.853-.83-1.632-1.92.167-.82.532-2.012 1.343-3.011zm9.577-1.387a.75.75 0 01.68-.432c1.347 0 2.286.714 2.9 1.585.6.848.925 1.884 1.106 2.698.304 1.369-.803 2.444-2.04 2.467a3.932 3.932 0 01-1.088-.01.75.75 0 01-.487-1.178c.285-.395.382-1.078.193-1.948a5.795 5.795 0 00-1.16-2.384.75.75 0 01-.103-.798zM6 7.5a3.5 3.5 0 117 0 3.5 3.5 0 01-7 0zm8.142-3.189A.75.75 0 0114.75 4C16.774 4 18 5.665 18 7.5S16.774 11 14.75 11a.75.75 0 01-.711-.987c.366-1.1.524-1.822.524-2.513 0-.691-.158-1.413-.524-2.513a.75.75 0 01.103-.676z" fill="#A6ACB7"/></svg>