<svg width="20" height="20" fill="none" xmlns="http://www.w3.org/2000/svg"><path fill-rule="evenodd" clip-rule="evenodd" d="M18.161 2.583a1 1 0 01.31.993l-3.334 13.333a1 1 0 01-1.677.465l-3.352-3.352L8.3 16.433a1 1 0 01-1.749-.283l-1.535-4.607-2.963-1.482a1 1 0 01.085-1.826l15-5.834a1 1 0 011.023.182zm-7.442 9.222a.96.96 0 00-.022-.022l-.116-.116 2.626-2.627a1 1 0 00-1.414-1.414L8.46 10.96a1 1 0 000 1.414l.22.22-.835 1.113-1.063-3.19a1 1 0 00-.501-.578L4.965 9.28 16.06 4.966l-2.436 9.745-2.906-2.906z" fill="#282C33"/></svg>