<svg width="49" height="48" fill="none" xmlns="http://www.w3.org/2000/svg"><path fill-rule="evenodd" clip-rule="evenodd" d="M5.5 16a7 7 0 017-7h14a7 7 0 017 7v16a7 7 0 01-7 7h-14a7 7 0 01-7-7V16zm7-5a5 5 0 00-5 5v16a5 5 0 005 5h14a5 5 0 005-5V16a5 5 0 00-5-5h-14z" fill="#0065FF"/><path fill-rule="evenodd" clip-rule="evenodd" d="M38.493 14.26c1.93-1.737 5.007-.367 5.007 2.23v15.02c0 2.597-3.076 3.967-5.007 2.23l-6-5.4a3 3 0 01-.993-2.23v-4.22a3 3 0 01.993-2.23l6-5.4zm3.007 2.23c0-.865-1.025-1.322-1.669-.743l-6 5.4a1 1 0 00-.331.744v4.218a1 1 0 00.331.744l6 5.4c.644.579 1.669.122 1.669-.744V16.491z" fill="#0065FF"/></svg>