<svg width="20" height="20" fill="none" xmlns="http://www.w3.org/2000/svg"><path fill-rule="evenodd" clip-rule="evenodd" d="M14.225 5.069a6.5 6.5 0 00-9.532 8.688 1 1 0 01.1.975l-.633 1.457 2.373-.424a1 1 0 01.615.087 6.5 6.5 0 007.077-10.783zM2.384 18.494a.997.997 0 00.305-.012l3.884-.692a8.5 8.5 0 10-3.83-3.36l-1.155 2.66a.995.995 0 00.128 1.03 1 1 0 00.668.373z" fill="#282C33"/><path fill-rule="evenodd" clip-rule="evenodd" d="M6.915 6.498A1.417 1.417 0 019.333 7.5v.833a1.417 1.417 0 01-.61 1.166 3.166 3.166 0 001.778 1.779 1.417 1.417 0 011.165-.611h.834a1.416 1.416 0 110 2.833h-.833A5.166 5.166 0 016.5 8.333V7.5c0-.376.15-.736.415-1.002zm1.41 1.419a.583.583 0 00-.817 0 .583.583 0 00.817 0z" fill="#282C33"/></svg>