<svg width="24" height="24" viewBox="0 0 24 24" fill="none" xmlns="http://www.w3.org/2000/svg">
<path fill-rule="evenodd" clip-rule="evenodd" d="M7.125 21C7.125 20.5168 7.51675 20.125 8 20.125H16C16.4832 20.125 16.875 20.5168 16.875 21C16.875 21.4832 16.4832 21.875 16 21.875H8C7.51675 21.875 7.125 21.4832 7.125 21Z" fill="#A6ACB7"/>
<path fill-rule="evenodd" clip-rule="evenodd" d="M12 16.125C12.4832 16.125 12.875 16.5168 12.875 17V21C12.875 21.4832 12.4832 21.875 12 21.875C11.5168 21.875 11.125 21.4832 11.125 21V17C11.125 16.5168 11.5168 16.125 12 16.125Z" fill="#A6ACB7"/>
<path fill-rule="evenodd" clip-rule="evenodd" d="M6.125 4C6.125 3.51675 6.51675 3.125 7 3.125H17C17.4832 3.125 17.875 3.51675 17.875 4C17.875 4.48325 17.4832 4.875 17 4.875H7C6.51675 4.875 6.125 4.48325 6.125 4Z" fill="#A6ACB7"/>
<path d="M17 4V12C17 13.3261 16.4732 14.5979 15.5355 15.5355C14.5979 16.4732 13.3261 17 12 17C10.6739 17 9.40215 16.4732 8.46447 15.5355C7.52678 14.5979 7 13.3261 7 12V4" fill="#A6ACB7"/>
<path fill-rule="evenodd" clip-rule="evenodd" d="M7 3.125C7.48325 3.125 7.875 3.51675 7.875 4V12C7.875 13.094 8.3096 14.1432 9.08318 14.9168C9.85677 15.6904 10.906 16.125 12 16.125C13.094 16.125 14.1432 15.6904 14.9168 14.9168C15.6904 14.1432 16.125 13.094 16.125 12V4C16.125 3.51675 16.5168 3.125 17 3.125C17.4832 3.125 17.875 3.51675 17.875 4V12C17.875 13.5581 17.256 15.0525 16.1543 16.1543C15.0525 17.256 13.5581 17.875 12 17.875C10.4419 17.875 8.94752 17.256 7.84575 16.1543C6.74397 15.0525 6.125 13.5581 6.125 12V4C6.125 3.51675 6.51675 3.125 7 3.125Z" fill="#A6ACB7"/>
<path fill-rule="evenodd" clip-rule="evenodd" d="M5 7.875C4.37868 7.875 3.875 8.37868 3.875 9C3.875 9.62132 4.37868 10.125 5 10.125C5.62132 10.125 6.125 9.62132 6.125 9C6.125 8.37868 5.62132 7.875 5 7.875ZM2.125 9C2.125 7.41218 3.41218 6.125 5 6.125C6.58782 6.125 7.875 7.41218 7.875 9C7.875 10.5878 6.58782 11.875 5 11.875C3.41218 11.875 2.125 10.5878 2.125 9Z" fill="#A6ACB7"/>
<path fill-rule="evenodd" clip-rule="evenodd" d="M19 7.875C18.3787 7.875 17.875 8.37868 17.875 9C17.875 9.62132 18.3787 10.125 19 10.125C19.6213 10.125 20.125 9.62132 20.125 9C20.125 8.37868 19.6213 7.875 19 7.875ZM16.125 9C16.125 7.41218 17.4122 6.125 19 6.125C20.5878 6.125 21.875 7.41218 21.875 9C21.875 10.5878 20.5878 11.875 19 11.875C17.4122 11.875 16.125 10.5878 16.125 9Z" fill="#A6ACB7"/>
</svg>
