<svg width="16" height="16" viewBox="0 0 16 16" fill="none" xmlns="http://www.w3.org/2000/svg">
<path fill-rule="evenodd" clip-rule="evenodd" d="M8.17773 2.5C5.14017 2.5 2.67773 4.96243 2.67773 8C2.67773 11.0376 5.14017 13.5 8.17773 13.5C11.2153 13.5 13.6777 11.0376 13.6777 8C13.6777 4.96243 11.2153 2.5 8.17773 2.5ZM1.67773 8C1.67773 4.41015 4.58788 1.5 8.17773 1.5C11.7676 1.5 14.6777 4.41015 14.6777 8C14.6777 11.5899 11.7676 14.5 8.17773 14.5C4.58788 14.5 1.67773 11.5899 1.67773 8Z" fill="#0065FF"/>
<path fill-rule="evenodd" clip-rule="evenodd" d="M8.17773 4.83325C8.45388 4.83325 8.67773 5.05711 8.67773 5.33325V7.99992C8.67773 8.27606 8.45388 8.49992 8.17773 8.49992C7.90159 8.49992 7.67773 8.27606 7.67773 7.99992V5.33325C7.67773 5.05711 7.90159 4.83325 8.17773 4.83325ZM7.67773 10.6666C7.67773 10.3904 7.90159 10.1666 8.17773 10.1666H8.1844C8.46054 10.1666 8.6844 10.3904 8.6844 10.6666C8.6844 10.9427 8.46054 11.1666 8.1844 11.1666H8.17773C7.90159 11.1666 7.67773 10.9427 7.67773 10.6666Z" fill="#0065FF"/>
</svg>
