<svg width="24" height="24" viewBox="0 0 24 24" fill="none" xmlns="http://www.w3.org/2000/svg">
<path fill-rule="evenodd" clip-rule="evenodd" d="M5.61436 5.99451C5.95167 4.81395 7.03072 4 8.25855 4H15.7413C16.9692 4 18.0482 4.81394 18.3855 5.99451C18.3855 5.99452 18.3855 5.99451 18.3855 5.99451L19.9711 11.544C20.0849 11.9422 19.8543 12.3573 19.456 12.4711C19.0577 12.5849 18.6426 12.3543 18.5288 11.956L16.9432 6.40661C16.7899 5.86997 16.2995 5.5 15.7413 5.5H8.25855C7.70046 5.5 7.20997 5.86997 7.05664 6.4066C7.05664 6.4066 7.05664 6.4066 7.05664 6.4066L5.47109 11.956C5.3573 12.3543 4.94218 12.5849 4.54391 12.4711C4.14563 12.3574 3.91501 11.9422 4.02881 11.544L5.61436 5.99451Z" fill="#A6ACB7"/>
<path d="M10.2142 12.3689C9.95611 12.0327 9.59467 11.75 9.17085 11.75H4.75V17.25C4.75 18.3546 5.64543 19.25 6.75 19.25H17.25C18.3546 19.25 19.25 18.3546 19.25 17.25V11.75H14.8291C14.4053 11.75 14.0439 12.0327 13.7858 12.3689C13.3745 12.9046 12.7276 13.25 12 13.25C11.2724 13.25 10.6255 12.9046 10.2142 12.3689Z" fill="#A6ACB7"/>
<path fill-rule="evenodd" clip-rule="evenodd" d="M4 11.75C4 11.3358 4.33579 11 4.75 11H9.17085C9.93867 11 10.494 11.5017 10.8091 11.9122C11.0846 12.271 11.5154 12.5 12 12.5C12.4846 12.5 12.9154 12.271 13.1909 11.9122M5.5 12.5V17.25C5.5 17.9404 6.05964 18.5 6.75 18.5H17.25C17.9404 18.5 18.5 17.9404 18.5 17.25V12.5H14.8291C14.7493 12.5 14.5819 12.5636 14.3807 12.8256L14.3807 12.8256C13.8336 13.5382 12.9706 14 12 14C11.0294 14 10.1664 13.5382 9.61932 12.8256L9.61928 12.8256C9.41818 12.5636 9.25065 12.5 9.17085 12.5H5.5ZM13.1909 11.9122C13.506 11.5018 14.0613 11 14.8291 11H19.25C19.6642 11 20 11.3358 20 11.75V17.25C20 18.7688 18.7688 20 17.25 20H6.75C5.23122 20 4 18.7688 4 17.25V11.75" fill="#A6ACB7"/>
</svg>
