<svg width="26" height="26" viewBox="0 0 26 26" fill="none" xmlns="http://www.w3.org/2000/svg">
<path d="M18.0916 8.66667C17.876 8.05484 17.4822 7.52155 16.9609 7.13541C16.4396 6.74928 15.8147 6.52798 15.1666 6.5H10.8333C9.9713 6.5 9.14465 6.84241 8.53516 7.4519C7.92566 8.0614 7.58325 8.88805 7.58325 9.75C7.58325 10.612 7.92566 11.4386 8.53516 12.0481C9.14465 12.6576 9.9713 13 10.8333 13H15.1666C16.0285 13 16.8552 13.3424 17.4647 13.9519C18.0742 14.5614 18.4166 15.388 18.4166 16.25C18.4166 17.112 18.0742 17.9386 17.4647 18.5481C16.8552 19.1576 16.0285 19.5 15.1666 19.5H10.8333C10.1851 19.472 9.56024 19.2507 9.03896 18.8646C8.51768 18.4785 8.12389 17.9452 7.90825 17.3333" stroke="#A6ACB7" stroke-width="1.75" stroke-linecap="round" stroke-linejoin="round"/>
<path d="M13 19.5V22.75M13 3.25V6.5V3.25Z" stroke="#A6ACB7" stroke-width="1.75" stroke-linecap="round" stroke-linejoin="round"/>
</svg>
