<svg width="20" height="20" viewBox="0 0 20 20" fill="none" xmlns="http://www.w3.org/2000/svg">
<path fill-rule="evenodd" clip-rule="evenodd" d="M5.83333 3.5C4.54467 3.5 3.5 4.54467 3.5 5.83333V14.1667C3.5 15.4553 4.54467 16.5 5.83333 16.5H14.1667C15.4553 16.5 16.5 15.4553 16.5 14.1667V9.16667C16.5 8.61438 16.9477 8.16667 17.5 8.16667C18.0523 8.16667 18.5 8.61438 18.5 9.16667V14.1667C18.5 16.5599 16.5599 18.5 14.1667 18.5H5.83333C3.4401 18.5 1.5 16.5599 1.5 14.1667V5.83333C1.5 3.4401 3.4401 1.5 5.83333 1.5H10.8333C11.3856 1.5 11.8333 1.94772 11.8333 2.5C11.8333 3.05228 11.3856 3.5 10.8333 3.5H5.83333Z" fill="#A6ACB7"/>
<path fill-rule="evenodd" clip-rule="evenodd" d="M15.9978 3.5C15.8646 3.5 15.7369 3.55291 15.6427 3.64709L9.11113 10.1787L8.87439 11.1256L9.82137 10.8889L16.3529 4.35733C16.4471 4.26315 16.5 4.13541 16.5 4.00221C16.5 3.86902 16.4471 3.74128 16.3529 3.64709C16.2587 3.55291 16.131 3.5 15.9978 3.5ZM14.2285 2.23288C14.6977 1.76362 15.3342 1.5 15.9978 1.5C16.6614 1.5 17.2979 1.76362 17.7671 2.23288C18.2364 2.70214 18.5 3.33858 18.5 4.00221C18.5 4.66584 18.2364 5.30229 17.7671 5.77154L11.0397 12.499C10.9116 12.6271 10.751 12.718 10.5752 12.762L7.74256 13.4701C7.40178 13.5553 7.04129 13.4555 6.79291 13.2071C6.54453 12.9587 6.44468 12.5982 6.52988 12.2575L7.23803 9.42487C7.28199 9.24904 7.3729 9.08846 7.50106 8.9603L14.2285 2.23288Z" fill="#A6ACB7"/>
<path fill-rule="evenodd" clip-rule="evenodd" d="M12.6264 4.29289C13.0169 3.90237 13.6501 3.90237 14.0406 4.29289L15.7073 5.95956C16.0978 6.35008 16.0978 6.98325 15.7073 7.37377C15.3167 7.7643 14.6836 7.7643 14.2931 7.37377L12.6264 5.70711C12.2359 5.31658 12.2359 4.68342 12.6264 4.29289Z" fill="#A6ACB7"/>
</svg>
