<svg width="24" height="24" viewBox="0 0 24 24" fill="none" xmlns="http://www.w3.org/2000/svg">
<path d="M12 22C17.5228 22 22 17.5228 22 12C22 6.47715 17.5228 2 12 2C6.47715 2 2 6.47715 2 12C2 17.5228 6.47715 22 12 22Z" fill="#A6ACB7"/>
<path fill-rule="evenodd" clip-rule="evenodd" d="M10.5302 6.45695C11.0123 6.21842 11.5432 6.09505 12.081 6.09654C12.6188 6.09803 13.149 6.22435 13.6297 6.46555C14.1105 6.70675 14.5287 7.05625 14.8514 7.48653C15.1741 7.91681 15.3925 8.41612 15.4894 8.94516C15.5864 9.4742 15.5592 10.0185 15.41 10.5353C15.2609 11.052 14.9938 11.5271 14.6298 11.9231C14.2659 12.3191 13.815 12.6252 13.3126 12.8173C13.3052 12.8201 13.2978 12.8228 13.2903 12.8255C13.1625 12.8704 13.0528 12.9557 12.9776 13.0684C12.9025 13.1811 12.866 13.3152 12.8736 13.4505C12.901 13.9329 12.5321 14.3462 12.0496 14.3736C11.5671 14.401 11.1538 14.032 11.1265 13.5496C11.0973 13.0356 11.236 12.526 11.5215 12.0977C11.8044 11.6733 12.2163 11.3514 12.6962 11.1794C12.9421 11.0838 13.1628 10.9331 13.3414 10.7388C13.5221 10.5423 13.6546 10.3064 13.7287 10.0499C13.8027 9.79341 13.8162 9.52321 13.7681 9.2606C13.72 8.99798 13.6116 8.75012 13.4514 8.53653C13.2912 8.32294 13.0836 8.14944 12.8449 8.02971C12.6063 7.90998 12.3431 7.84727 12.0761 7.84653C11.8092 7.84579 11.5456 7.90704 11.3063 8.02544C11.067 8.14385 10.8585 8.31619 10.6971 8.52889C10.405 8.91387 9.85616 8.98918 9.47117 8.69709C9.08619 8.405 9.01088 7.85612 9.30297 7.47114C9.62806 7.04266 10.0482 6.69548 10.5302 6.45695ZM12 16.125C12.4833 16.125 12.875 16.5168 12.875 17V17.01C12.875 17.4933 12.4833 17.885 12 17.885C11.5168 17.885 11.125 17.4933 11.125 17.01V17C11.125 16.5168 11.5168 16.125 12 16.125Z" fill="white"/>
</svg>
