<svg width="14" height="14" viewBox="0 0 14 14" fill="none" xmlns="http://www.w3.org/2000/svg">
<path fill-rule="evenodd" clip-rule="evenodd" d="M11.7901 7.45956C12.1806 7.85008 12.1806 8.48325 11.7901 8.87377L7.70678 12.9571C7.51924 13.1446 7.26489 13.25 6.99967 13.25C6.73446 13.25 6.4801 13.1446 6.29257 12.9571L2.20923 8.87377C1.81871 8.48325 1.81871 7.85008 2.20923 7.45956C2.59976 7.06904 3.23292 7.06904 3.62345 7.45956L5.99967 9.83579L5.99967 1.75C5.99967 1.19771 6.44739 0.75 6.99967 0.75C7.55196 0.75 7.99967 1.19772 7.99967 1.75L7.99967 9.83579L10.3759 7.45956C10.7664 7.06904 11.3996 7.06904 11.7901 7.45956Z" fill="#646E82"/>
</svg>
