<svg width="24" height="24" viewBox="0 0 24 24" fill="none" xmlns="http://www.w3.org/2000/svg">
<path fill-rule="evenodd" clip-rule="evenodd" d="M14.2704 4.54104C14.2704 3.68995 13.5804 3 12.7294 3H11.2707C10.4196 3 9.72965 3.68995 9.72965 4.54104C9.72965 5.19575 9.30679 5.76411 8.73145 6.07658C8.64149 6.12544 8.55277 6.17624 8.46535 6.22895C7.90045 6.56948 7.19253 6.65124 6.62002 6.32367C5.87295 5.89621 4.92094 6.15129 4.48767 6.89501L3.78325 8.10415C3.35168 8.84495 3.60637 9.79549 4.35051 10.2213C4.92055 10.5474 5.20432 11.1992 5.19044 11.8558C5.18942 11.9037 5.18891 11.9518 5.18891 12C5.18891 12.0482 5.18942 12.0963 5.19044 12.1443C5.20433 12.8009 4.92056 13.4526 4.35052 13.7787C3.6064 14.2045 3.35171 15.155 3.78327 15.8958L4.48772 17.105C4.92098 17.8487 5.87298 18.1038 6.62005 17.6763C7.19255 17.3488 7.90047 17.4305 8.46535 17.7711C8.55278 17.8238 8.6415 17.8746 8.73145 17.9234C9.30679 18.2359 9.72965 18.8042 9.72965 19.459C9.72965 20.3101 10.4196 21 11.2707 21H12.7294C13.5804 21 14.2704 20.3101 14.2704 19.459C14.2704 18.8042 14.6933 18.2359 15.2686 17.9234C15.3585 17.8746 15.4473 17.8238 15.5347 17.7711C16.0996 17.4305 16.8075 17.3488 17.38 17.6763C18.1271 18.1038 19.0791 17.8487 19.5123 17.105L20.2168 15.8958C20.6483 15.1551 20.3936 14.2045 19.6495 13.7788C19.0795 13.4526 18.7957 12.8009 18.8096 12.1443C18.8106 12.0963 18.8111 12.0482 18.8111 12C18.8111 11.9518 18.8106 11.9037 18.8096 11.8558C18.7957 11.1992 19.0795 10.5474 19.6495 10.2213C20.3937 9.79548 20.6484 8.84494 20.2168 8.10414L19.5124 6.89501C19.0791 6.15128 18.1271 5.8962 17.38 6.32366C16.8075 6.65123 16.0996 6.56948 15.5347 6.22894C15.4473 6.17624 15.3585 6.12543 15.2686 6.07658C14.6933 5.76411 14.2704 5.19575 14.2704 4.54104Z" fill="#A6ACB7"/>
<path d="M12 15C13.6569 15 15 13.6569 15 12C15 10.3431 13.6569 9 12 9C10.3431 9 9 10.3431 9 12C9 13.6569 10.3431 15 12 15Z" fill="white"/>
</svg>
