<svg width="24" height="24" viewBox="0 0 24 24" fill="none" xmlns="http://www.w3.org/2000/svg">
<path fill-rule="evenodd" clip-rule="evenodd" d="M12 4.12479C8.88889 4.12479 7.33333 6.31859 7.33333 9.02479V10.5415C7.33333 11.508 6.46395 12.3063 5.76651 12.9754C5.31709 13.4066 5 14.0181 5 14.7415C5 15.6435 5.69645 16.3748 6.55556 16.3748H17.4444C18.3036 16.3748 19 15.6435 19 14.7415C19 14.0181 18.6829 13.4066 18.2335 12.9754C17.5361 12.3063 16.6667 11.5079 16.6667 10.5415V9.02479C16.6667 6.31859 15.1111 4.12479 12 4.12479Z" fill="#646E82" stroke="#646E82" stroke-width="2"/>
<path d="M13.75 18.9998C13.5722 19.265 13.3169 19.4851 13.0098 19.6381C12.7026 19.7911 12.3544 19.8717 12 19.8717C11.6456 19.8717 11.2974 19.7911 10.9902 19.6381C10.6831 19.4851 10.4278 19.265 10.25 18.9998" stroke="#646E82" stroke-width="2" stroke-linecap="round" stroke-linejoin="round"/>
</svg>
