<svg width="20" height="20" viewBox="0 0 20 20" fill="none" xmlns="http://www.w3.org/2000/svg">
<path d="M4.9167 14.1667H15.075C16.6584 14.1667 17.4917 13.3334 17.4917 11.75V1.66669H2.4917V11.75C2.50003 13.3334 3.33337 14.1667 4.9167 14.1667Z" fill="#A6ACB7"/>
<path fill-rule="evenodd" clip-rule="evenodd" d="M1.7417 1.66669C1.7417 1.25247 2.07749 0.916687 2.4917 0.916687H17.4917C17.9059 0.916687 18.2417 1.25247 18.2417 1.66669V11.75C18.2417 12.6671 17.999 13.4909 17.4074 14.0824C16.8159 14.674 15.9921 14.9167 15.075 14.9167H4.9167C3.99936 14.9167 3.17616 14.6738 2.58393 14.0831C1.99204 13.4927 1.74653 12.6703 1.74171 11.754L1.7417 11.75V1.66669ZM3.2417 2.41669V11.748C3.24553 12.4138 3.42074 12.7992 3.64323 13.0211C3.86558 13.2429 4.25071 13.4167 4.9167 13.4167H15.075C15.7413 13.4167 16.1258 13.2427 16.3468 13.0218C16.5677 12.8008 16.7417 12.4163 16.7417 11.75V2.41669H3.2417Z" fill="#A6ACB7"/>
<path fill-rule="evenodd" clip-rule="evenodd" d="M0.916626 1.66669C0.916626 1.25247 1.25241 0.916687 1.66663 0.916687H18.3333C18.7475 0.916687 19.0833 1.25247 19.0833 1.66669C19.0833 2.0809 18.7475 2.41669 18.3333 2.41669H1.66663C1.25241 2.41669 0.916626 2.0809 0.916626 1.66669Z" fill="#A6ACB7"/>
<path fill-rule="evenodd" clip-rule="evenodd" d="M10 13.4167C10.4142 13.4167 10.75 13.7525 10.75 14.1667V16.6667C10.75 16.9508 10.5895 17.2105 10.3354 17.3375L7.00208 19.0042C6.63159 19.1894 6.18109 19.0392 5.99585 18.6688C5.81061 18.2983 5.96077 17.8478 6.33126 17.6625L9.25 16.2032V14.1667C9.25 13.7525 9.58579 13.4167 10 13.4167Z" fill="#A6ACB7"/>
<path fill-rule="evenodd" clip-rule="evenodd" d="M9.3291 16.3313C9.51434 15.9608 9.96485 15.8106 10.3353 15.9959L13.6687 17.6625C14.0391 17.8478 14.1893 18.2983 14.0041 18.6688C13.8188 19.0393 13.3683 19.1894 12.9978 19.0042L9.66451 17.3375C9.29403 17.1523 9.14386 16.7018 9.3291 16.3313Z" fill="#A6ACB7"/>
<path fill-rule="evenodd" clip-rule="evenodd" d="M14.3257 6.186C14.5912 6.50396 14.5487 6.97692 14.2307 7.24239L11.6057 9.43406L11.5935 9.444C11.3366 9.64955 11.0036 9.75053 10.6642 9.69397C10.322 9.63692 10.0353 9.42975 9.85893 9.13924L9.8569 9.13589L9.85691 9.13588L9.05595 7.80098L6.7307 9.74239C6.41274 10.0079 5.93977 9.96531 5.6743 9.64735C5.40883 9.32939 5.45138 8.85643 5.76934 8.59096L8.39262 6.40073C8.39296 6.40044 8.39331 6.40015 8.39365 6.39986C8.65499 6.18081 8.99649 6.07652 9.34247 6.13739C9.68662 6.19794 9.96852 6.40986 10.1411 6.69411L10.1431 6.69746L10.1431 6.69747L10.9441 8.03237L13.2693 6.09096C13.5873 5.82549 14.0603 5.86804 14.3257 6.186Z" fill="white"/>
</svg>
