<svg width="24" height="24" viewBox="0 0 24 24" fill="none" xmlns="http://www.w3.org/2000/svg">
<path d="M7 6H5C4.44772 6 4 6.44772 4 7V10C4 10.5523 4.44772 11 5 11H7C7.55228 11 8 10.5523 8 10V7C8 6.44772 7.55228 6 7 6Z" fill="#A6ACB7"/>
<path fill-rule="evenodd" clip-rule="evenodd" d="M3 7C3 5.89543 3.89543 5 5 5H7C8.10457 5 9 5.89543 9 7V10C9 11.1046 8.10457 12 7 12H5C3.89543 12 3 11.1046 3 10V7ZM7 7H5V10H7V7Z" fill="#A6ACB7"/>
<path fill-rule="evenodd" clip-rule="evenodd" d="M6 3C6.55228 3 7 3.44772 7 4V6C7 6.55228 6.55228 7 6 7C5.44772 7 5 6.55228 5 6V4C5 3.44772 5.44772 3 6 3Z" fill="#A6ACB7"/>
<path fill-rule="evenodd" clip-rule="evenodd" d="M6 10C6.55228 10 7 10.4477 7 11V20C7 20.5523 6.55228 21 6 21C5.44772 21 5 20.5523 5 20V11C5 10.4477 5.44772 10 6 10Z" fill="#A6ACB7"/>
<path d="M13 14H11C10.4477 14 10 14.4477 10 15V18C10 18.5523 10.4477 19 11 19H13C13.5523 19 14 18.5523 14 18V15C14 14.4477 13.5523 14 13 14Z" fill="#A6ACB7"/>
<path fill-rule="evenodd" clip-rule="evenodd" d="M9 15C9 13.8954 9.89543 13 11 13H13C14.1046 13 15 13.8954 15 15V18C15 19.1046 14.1046 20 13 20H11C9.89543 20 9 19.1046 9 18V15ZM13 15H11V18H13V15Z" fill="#A6ACB7"/>
<path fill-rule="evenodd" clip-rule="evenodd" d="M12 3C12.5523 3 13 3.44772 13 4V14C13 14.5523 12.5523 15 12 15C11.4477 15 11 14.5523 11 14V4C11 3.44772 11.4477 3 12 3Z" fill="#A6ACB7"/>
<path fill-rule="evenodd" clip-rule="evenodd" d="M12 18C12.5523 18 13 18.4477 13 19V20C13 20.5523 12.5523 21 12 21C11.4477 21 11 20.5523 11 20V19C11 18.4477 11.4477 18 12 18Z" fill="#A6ACB7"/>
<path d="M19 5H17C16.4477 5 16 5.44772 16 6V10C16 10.5523 16.4477 11 17 11H19C19.5523 11 20 10.5523 20 10V6C20 5.44772 19.5523 5 19 5Z" fill="#A6ACB7"/>
<path fill-rule="evenodd" clip-rule="evenodd" d="M15 6C15 4.89543 15.8954 4 17 4H19C20.1046 4 21 4.89543 21 6V10C21 11.1046 20.1046 12 19 12H17C15.8954 12 15 11.1046 15 10V6ZM19 6H17V10H19V6Z" fill="#A6ACB7"/>
<path fill-rule="evenodd" clip-rule="evenodd" d="M18 3C18.5523 3 19 3.44772 19 4V5C19 5.55228 18.5523 6 18 6C17.4477 6 17 5.55228 17 5V4C17 3.44772 17.4477 3 18 3Z" fill="#A6ACB7"/>
<path fill-rule="evenodd" clip-rule="evenodd" d="M18 10C18.5523 10 19 10.4477 19 11V20C19 20.5523 18.5523 21 18 21C17.4477 21 17 20.5523 17 20V11C17 10.4477 17.4477 10 18 10Z" fill="#A6ACB7"/>
</svg>
