<svg width="24" height="24" viewBox="0 0 24 24" fill="none" xmlns="http://www.w3.org/2000/svg">
<path d="M5.78164 19.25H13.2183C13.7828 19.25 14.227 18.7817 14.1145 18.2285C13.804 16.7012 12.7897 14 9.49996 14C6.21027 14 5.19601 16.7012 4.88545 18.2285C4.77296 18.7817 5.21714 19.25 5.78164 19.25Z" fill="#A6ACB7"/>
<path fill-rule="evenodd" clip-rule="evenodd" d="M5.49346 15.0686C6.33 14.0388 7.6147 13.25 9.50005 13.25C11.3854 13.25 12.6701 14.0388 13.5066 15.0686C14.3184 16.068 14.6828 17.2591 14.8495 18.079C15.0712 19.1692 14.1805 20 13.2183 20H5.78173C4.81954 20 3.9289 19.1692 4.15058 18.0791C4.31731 17.2591 4.68168 16.0681 5.49346 15.0686ZM6.65777 16.0144C6.06237 16.7474 5.76433 17.6706 5.6205 18.3779L5.62049 18.378C5.61617 18.3992 5.61847 18.4105 5.62007 18.4161C5.62202 18.423 5.62654 18.4331 5.63731 18.4451C5.65965 18.4699 5.70765 18.5 5.78173 18.5H13.2183C13.2924 18.5 13.3404 18.4699 13.3628 18.4451C13.3735 18.4331 13.3781 18.423 13.38 18.4161C13.3816 18.4105 13.3839 18.3992 13.3796 18.378L13.3796 18.3779C13.2358 17.6706 12.9377 16.7474 12.3423 16.0144C11.7717 15.3118 10.9044 14.75 9.50005 14.75C8.0957 14.75 7.22843 15.3118 6.65777 16.0144Z" fill="#A6ACB7"/>
<path d="M19.0239 17.696C18.6802 16.1479 17.8288 14 15.75 14C17 15.5 17.6769 17.9618 16.75 19.25C17.1071 19.3089 17.6769 19.25 17.6769 19.25C18.5333 19.25 19.2095 18.532 19.0239 17.696Z" fill="#A6ACB7"/>
<path fill-rule="evenodd" clip-rule="evenodd" d="M15.0708 13.6819C15.1943 13.4183 15.459 13.25 15.75 13.25C17.0972 13.25 18.0357 13.9642 18.6503 14.8349C19.2493 15.6834 19.5753 16.719 19.7561 17.5334L19.0239 17.696L19.7561 17.5334C20.0599 18.9017 18.9529 19.9772 17.7163 19.9996C17.6973 20.0014 17.6716 20.0036 17.6407 20.006C17.5744 20.0112 17.4822 20.0174 17.3769 20.0215C17.1809 20.0292 16.8856 20.0325 16.6279 19.99C16.3719 19.9477 16.1559 19.7762 16.0568 19.5364C15.9578 19.2966 15.9897 19.0226 16.1412 18.812C16.4256 18.4167 16.5227 17.7342 16.3335 16.8638C16.1492 16.0163 15.7205 15.1362 15.1738 14.4801C14.9875 14.2566 14.9474 13.9454 15.0708 13.6819ZM17.7032 16.1602C17.7393 16.2884 17.7713 16.4169 17.7992 16.5451C17.9355 17.1718 17.9812 17.8459 17.8621 18.4769C17.9959 18.4425 18.1056 18.3725 18.181 18.2877C18.2835 18.1727 18.3292 18.0272 18.2917 17.8585C18.167 17.2969 17.9786 16.6891 17.7032 16.1602Z" fill="#A6ACB7"/>
<path d="M9.5 10.25C11.0188 10.25 12.25 9.01878 12.25 7.5C12.25 5.98122 11.0188 4.75 9.5 4.75C7.98122 4.75 6.75 5.98122 6.75 7.5C6.75 9.01878 7.98122 10.25 9.5 10.25Z" fill="#A6ACB7"/>
<path fill-rule="evenodd" clip-rule="evenodd" d="M9.5 5.5C8.39543 5.5 7.5 6.39543 7.5 7.5C7.5 8.60457 8.39543 9.5 9.5 9.5C10.6046 9.5 11.5 8.60457 11.5 7.5C11.5 6.39543 10.6046 5.5 9.5 5.5ZM6 7.5C6 5.567 7.567 4 9.5 4C11.433 4 13 5.567 13 7.5C13 9.433 11.433 11 9.5 11C7.567 11 6 9.433 6 7.5Z" fill="#A6ACB7"/>
<path d="M14.75 10.25C16.2688 10.25 17.25 9.01878 17.25 7.5C17.25 5.98122 16.2688 4.75 14.75 4.75C15.5 7 15.5 8 14.75 10.25Z" fill="#A6ACB7"/>
<path fill-rule="evenodd" clip-rule="evenodd" d="M14.1416 4.31147C14.2825 4.11589 14.5089 4 14.75 4C16.7744 4 18 5.66472 18 7.5C18 9.33528 16.7744 11 14.75 11C14.5089 11 14.2825 10.8841 14.1416 10.6885C14.0006 10.493 13.9623 10.2415 14.0385 10.0128C14.4051 8.91308 14.5625 8.19146 14.5625 7.5C14.5625 6.80854 14.4051 6.08692 14.0385 4.98717C13.9623 4.75846 14.0006 4.50704 14.1416 4.31147ZM15.8668 5.91096C15.9942 6.46364 16.0625 6.97709 16.0625 7.5C16.0625 8.02291 15.9942 8.53636 15.8668 9.08904C16.2605 8.73944 16.5 8.18548 16.5 7.5C16.5 6.81452 16.2605 6.26055 15.8668 5.91096Z" fill="#A6ACB7"/>
</svg>
