<svg width="830" height="452" viewBox="0 0 830 452" fill="none" xmlns="http://www.w3.org/2000/svg">
<line x1="48" y1="428.5" x2="827" y2="428.5" stroke="#D5DBE4"/>
<line x1="48" y1="8.5" x2="827" y2="8.49993" stroke="#D5DBE4"/>
<line x1="48" y1="113.5" x2="827" y2="113.5" stroke="#D5DBE4"/>
<line x1="48" y1="218.5" x2="827" y2="218.5" stroke="#D5DBE4"/>
<line x1="48" y1="323.5" x2="827" y2="323.5" stroke="#D5DBE4"/>
<line x1="61.5" y1="429" x2="61.5" y2="9" stroke="#D5DBE4"/>
<line x1="112.5" y1="429" x2="112.5" y2="9" stroke="#D5DBE4"/>
<line x1="163.5" y1="429" x2="163.5" y2="9" stroke="#D5DBE4"/>
<line x1="214.5" y1="429" x2="214.5" y2="9" stroke="#D5DBE4"/>
<line x1="265.5" y1="429" x2="265.5" y2="9" stroke="#D5DBE4"/>
<line x1="316.5" y1="429" x2="316.5" y2="9" stroke="#D5DBE4"/>
<line x1="367.5" y1="429" x2="367.5" y2="9" stroke="#D5DBE4"/>
<line x1="418.5" y1="429" x2="418.5" y2="9" stroke="#D5DBE4"/>
<line x1="469.5" y1="429" x2="469.5" y2="9" stroke="#D5DBE4"/>
<line x1="520.5" y1="429" x2="520.5" y2="9" stroke="#D5DBE4"/>
<line x1="571.5" y1="429" x2="571.5" y2="9" stroke="#D5DBE4"/>
<line x1="622.5" y1="429" x2="622.5" y2="9" stroke="#D5DBE4"/>
<line x1="673.5" y1="429" x2="673.5" y2="9" stroke="#D5DBE4"/>
<line x1="724.5" y1="429" x2="724.5" y2="9" stroke="#D5DBE4"/>
<line x1="775.5" y1="429" x2="775.5" y2="9" stroke="#D5DBE4"/>
<line x1="826.5" y1="429" x2="826.5" y2="9" stroke="#D5DBE4"/>
<path d="M100.032 448.12C99.36 448.12 98.76 447.952 98.232 447.616C97.704 447.272 97.288 446.776 96.984 446.128C96.68 445.472 96.528 444.696 96.528 443.8C96.528 442.904 96.68 442.132 96.984 441.484C97.288 440.828 97.704 440.332 98.232 439.996C98.76 439.652 99.36 439.48 100.032 439.48C100.704 439.48 101.304 439.652 101.832 439.996C102.368 440.332 102.788 440.828 103.092 441.484C103.396 442.132 103.548 442.904 103.548 443.8C103.548 444.696 103.396 445.472 103.092 446.128C102.788 446.776 102.368 447.272 101.832 447.616C101.304 447.952 100.704 448.12 100.032 448.12ZM100.032 446.764C100.632 446.764 101.104 446.516 101.448 446.02C101.8 445.524 101.976 444.784 101.976 443.8C101.976 442.816 101.8 442.076 101.448 441.58C101.104 441.084 100.632 440.836 100.032 440.836C99.44 440.836 98.968 441.084 98.616 441.58C98.272 442.076 98.1 442.816 98.1 443.8C98.1 444.784 98.272 445.524 98.616 446.02C98.968 446.516 99.44 446.764 100.032 446.764ZM108.061 443.068C108.837 443.164 109.429 443.428 109.837 443.86C110.245 444.292 110.449 444.832 110.449 445.48C110.449 445.968 110.325 446.412 110.077 446.812C109.829 447.212 109.453 447.532 108.949 447.772C108.453 448.004 107.845 448.12 107.125 448.12C106.525 448.12 105.945 448.036 105.385 447.868C104.833 447.692 104.361 447.452 103.969 447.148L104.641 445.936C104.945 446.192 105.313 446.396 105.745 446.548C106.185 446.692 106.637 446.764 107.101 446.764C107.653 446.764 108.085 446.652 108.397 446.428C108.717 446.196 108.877 445.884 108.877 445.492C108.877 445.1 108.725 444.796 108.421 444.58C108.125 444.356 107.669 444.244 107.053 444.244H106.285V443.176L108.193 440.908H104.377V439.6H110.101V440.644L108.061 443.068ZM112.405 448.084C112.133 448.084 111.901 447.992 111.709 447.808C111.517 447.616 111.421 447.376 111.421 447.088C111.421 446.792 111.513 446.552 111.697 446.368C111.889 446.184 112.125 446.092 112.405 446.092C112.685 446.092 112.917 446.184 113.101 446.368C113.293 446.552 113.389 446.792 113.389 447.088C113.389 447.376 113.293 447.616 113.101 447.808C112.909 447.992 112.677 448.084 112.405 448.084ZM117.762 448.12C117.09 448.12 116.49 447.952 115.962 447.616C115.434 447.272 115.018 446.776 114.714 446.128C114.41 445.472 114.258 444.696 114.258 443.8C114.258 442.904 114.41 442.132 114.714 441.484C115.018 440.828 115.434 440.332 115.962 439.996C116.49 439.652 117.09 439.48 117.762 439.48C118.434 439.48 119.034 439.652 119.562 439.996C120.098 440.332 120.518 440.828 120.822 441.484C121.126 442.132 121.278 442.904 121.278 443.8C121.278 444.696 121.126 445.472 120.822 446.128C120.518 446.776 120.098 447.272 119.562 447.616C119.034 447.952 118.434 448.12 117.762 448.12ZM117.762 446.764C118.362 446.764 118.834 446.516 119.178 446.02C119.53 445.524 119.706 444.784 119.706 443.8C119.706 442.816 119.53 442.076 119.178 441.58C118.834 441.084 118.362 440.836 117.762 440.836C117.17 440.836 116.698 441.084 116.346 441.58C116.002 442.076 115.83 442.816 115.83 443.8C115.83 444.784 116.002 445.524 116.346 446.02C116.698 446.516 117.17 446.764 117.762 446.764ZM127.781 443.584C128.221 443.784 128.557 444.056 128.789 444.4C129.029 444.736 129.149 445.132 129.149 445.588C129.149 446.1 129.005 446.548 128.717 446.932C128.437 447.316 128.037 447.612 127.517 447.82C126.997 448.02 126.393 448.12 125.705 448.12C125.017 448.12 124.413 448.02 123.893 447.82C123.381 447.612 122.985 447.316 122.705 446.932C122.425 446.548 122.285 446.1 122.285 445.588C122.285 445.132 122.401 444.736 122.633 444.4C122.865 444.056 123.197 443.784 123.629 443.584C123.293 443.4 123.033 443.16 122.849 442.864C122.673 442.56 122.585 442.212 122.585 441.82C122.585 441.348 122.713 440.936 122.969 440.584C123.233 440.232 123.601 439.96 124.073 439.768C124.545 439.576 125.089 439.48 125.705 439.48C126.329 439.48 126.877 439.576 127.349 439.768C127.821 439.96 128.189 440.232 128.453 440.584C128.717 440.936 128.849 441.348 128.849 441.82C128.849 442.212 128.757 442.556 128.573 442.852C128.389 443.148 128.125 443.392 127.781 443.584ZM125.705 440.704C125.217 440.704 124.829 440.808 124.541 441.016C124.261 441.224 124.121 441.516 124.121 441.892C124.121 442.252 124.261 442.54 124.541 442.756C124.829 442.964 125.217 443.068 125.705 443.068C126.201 443.068 126.593 442.964 126.881 442.756C127.169 442.54 127.313 442.252 127.313 441.892C127.313 441.516 127.165 441.224 126.869 441.016C126.581 440.808 126.193 440.704 125.705 440.704ZM125.705 446.896C126.281 446.896 126.737 446.776 127.073 446.536C127.409 446.296 127.577 445.964 127.577 445.54C127.577 445.124 127.409 444.796 127.073 444.556C126.737 444.316 126.281 444.196 125.705 444.196C125.129 444.196 124.677 444.316 124.349 444.556C124.021 444.796 123.857 445.124 123.857 445.54C123.857 445.964 124.021 446.296 124.349 446.536C124.677 446.776 125.129 446.896 125.705 446.896Z" fill="#A6ACB7"/>
<path d="M51.612 446.68V448H45.42V446.956L48.756 443.788C49.132 443.428 49.384 443.116 49.512 442.852C49.648 442.58 49.716 442.312 49.716 442.048C49.716 441.656 49.584 441.356 49.32 441.148C49.056 440.94 48.668 440.836 48.156 440.836C47.3 440.836 46.644 441.128 46.188 441.712L45.096 440.872C45.424 440.432 45.864 440.092 46.416 439.852C46.976 439.604 47.6 439.48 48.288 439.48C49.2 439.48 49.928 439.696 50.472 440.128C51.016 440.56 51.288 441.148 51.288 441.892C51.288 442.348 51.192 442.776 51 443.176C50.808 443.576 50.44 444.032 49.896 444.544L47.652 446.68H51.612ZM55.3444 439.48C56.4964 439.48 57.3884 439.84 58.0204 440.56C58.6604 441.28 58.9804 442.312 58.9804 443.656C58.9804 444.6 58.8084 445.408 58.4644 446.08C58.1204 446.744 57.6364 447.252 57.0124 447.604C56.3964 447.948 55.6804 448.12 54.8644 448.12C54.4324 448.12 54.0244 448.076 53.6404 447.988C53.2644 447.892 52.9364 447.756 52.6564 447.58L53.2324 446.404C53.6484 446.676 54.1804 446.812 54.8284 446.812C55.6364 446.812 56.2684 446.564 56.7244 446.068C57.1804 445.572 57.4084 444.856 57.4084 443.92V443.908C57.1604 444.196 56.8444 444.416 56.4604 444.568C56.0764 444.712 55.6444 444.784 55.1644 444.784C54.6124 444.784 54.1164 444.68 53.6764 444.472C53.2364 444.256 52.8924 443.952 52.6444 443.56C52.3964 443.168 52.2724 442.716 52.2724 442.204C52.2724 441.66 52.4084 441.184 52.6804 440.776C52.9524 440.36 53.3204 440.04 53.7844 439.816C54.2484 439.592 54.7684 439.48 55.3444 439.48ZM55.4644 443.56C55.9684 443.56 56.3764 443.424 56.6884 443.152C57.0084 442.88 57.1684 442.536 57.1684 442.12C57.1684 441.712 57.0124 441.376 56.7004 441.112C56.3964 440.84 55.9724 440.704 55.4284 440.704C54.9404 440.704 54.5444 440.836 54.2404 441.1C53.9364 441.356 53.7844 441.7 53.7844 442.132C53.7844 442.572 53.9364 442.92 54.2404 443.176C54.5444 443.432 54.9524 443.56 55.4644 443.56ZM60.8312 448.084C60.5592 448.084 60.3272 447.992 60.1352 447.808C59.9432 447.616 59.8472 447.376 59.8472 447.088C59.8472 446.792 59.9392 446.552 60.1232 446.368C60.3152 446.184 60.5512 446.092 60.8312 446.092C61.1112 446.092 61.3432 446.184 61.5272 446.368C61.7192 446.552 61.8152 446.792 61.8152 447.088C61.8152 447.376 61.7192 447.616 61.5272 447.808C61.3352 447.992 61.1032 448.084 60.8312 448.084ZM66.1883 448.12C65.5163 448.12 64.9163 447.952 64.3883 447.616C63.8603 447.272 63.4443 446.776 63.1403 446.128C62.8363 445.472 62.6843 444.696 62.6843 443.8C62.6843 442.904 62.8363 442.132 63.1403 441.484C63.4443 440.828 63.8603 440.332 64.3883 439.996C64.9163 439.652 65.5163 439.48 66.1883 439.48C66.8603 439.48 67.4603 439.652 67.9883 439.996C68.5243 440.332 68.9443 440.828 69.2483 441.484C69.5523 442.132 69.7043 442.904 69.7043 443.8C69.7043 444.696 69.5523 445.472 69.2483 446.128C68.9443 446.776 68.5243 447.272 67.9883 447.616C67.4603 447.952 66.8603 448.12 66.1883 448.12ZM66.1883 446.764C66.7883 446.764 67.2603 446.516 67.6043 446.02C67.9563 445.524 68.1323 444.784 68.1323 443.8C68.1323 442.816 67.9563 442.076 67.6043 441.58C67.2603 441.084 66.7883 440.836 66.1883 440.836C65.5963 440.836 65.1243 441.084 64.7723 441.58C64.4283 442.076 64.2563 442.816 64.2563 443.8C64.2563 444.784 64.4283 445.524 64.7723 446.02C65.1243 446.516 65.5963 446.764 66.1883 446.764ZM77.0359 439.6V440.644L73.7719 448H72.1039L75.2599 440.92H71.9599V442.348H70.5079V439.6H77.0359Z" fill="#A6ACB7"/>
<path d="M6.612 431.68V433H0.42V431.956L3.756 428.788C4.132 428.428 4.384 428.116 4.512 427.852C4.648 427.58 4.716 427.312 4.716 427.048C4.716 426.656 4.584 426.356 4.32 426.148C4.056 425.94 3.668 425.836 3.156 425.836C2.3 425.836 1.644 426.128 1.188 426.712L0.096 425.872C0.424 425.432 0.864 425.092 1.416 424.852C1.976 424.604 2.6 424.48 3.288 424.48C4.2 424.48 4.928 424.696 5.472 425.128C6.016 425.56 6.288 426.148 6.288 426.892C6.288 427.348 6.192 427.776 6 428.176C5.808 428.576 5.44 429.032 4.896 429.544L2.652 431.68H6.612ZM11.0884 428.068C11.8644 428.164 12.4564 428.428 12.8644 428.86C13.2724 429.292 13.4764 429.832 13.4764 430.48C13.4764 430.968 13.3524 431.412 13.1044 431.812C12.8564 432.212 12.4804 432.532 11.9764 432.772C11.4804 433.004 10.8724 433.12 10.1524 433.12C9.55238 433.12 8.97238 433.036 8.41238 432.868C7.86038 432.692 7.38838 432.452 6.99638 432.148L7.66838 430.936C7.97238 431.192 8.34038 431.396 8.77238 431.548C9.21238 431.692 9.66438 431.764 10.1284 431.764C10.6804 431.764 11.1124 431.652 11.4244 431.428C11.7444 431.196 11.9044 430.884 11.9044 430.492C11.9044 430.1 11.7524 429.796 11.4484 429.58C11.1524 429.356 10.6964 429.244 10.0804 429.244H9.31238V428.176L11.2204 425.908H7.40438V424.6H13.1284V425.644L11.0884 428.068ZM24.4132 430.624C24.4132 431.272 24.1732 431.824 23.6932 432.28C23.2212 432.728 22.5332 433 21.6292 433.096V434.44H20.6452V433.108C20.0532 433.068 19.4932 432.96 18.9652 432.784C18.4372 432.608 18.0172 432.384 17.7052 432.112L18.2452 430.9C18.5412 431.14 18.9012 431.344 19.3252 431.512C19.7492 431.672 20.1892 431.772 20.6452 431.812V429.412C20.0772 429.276 19.6012 429.128 19.2172 428.968C18.8412 428.8 18.5252 428.56 18.2692 428.248C18.0132 427.928 17.8852 427.508 17.8852 426.988C17.8852 426.34 18.1212 425.788 18.5932 425.332C19.0652 424.876 19.7492 424.604 20.6452 424.516V423.16H21.6292V424.492C22.0772 424.516 22.5132 424.592 22.9372 424.72C23.3692 424.848 23.7452 425.016 24.0652 425.224L23.5732 426.436C22.9652 426.084 22.3172 425.868 21.6292 425.788V428.212C22.2052 428.348 22.6812 428.496 23.0572 428.656C23.4412 428.816 23.7612 429.056 24.0172 429.376C24.2812 429.688 24.4132 430.104 24.4132 430.624ZM19.4332 426.916C19.4332 427.18 19.5372 427.392 19.7452 427.552C19.9532 427.712 20.2532 427.848 20.6452 427.96V425.824C20.2372 425.888 19.9332 426.016 19.7332 426.208C19.5332 426.4 19.4332 426.636 19.4332 426.916ZM21.6292 431.788C22.0532 431.724 22.3652 431.6 22.5652 431.416C22.7732 431.232 22.8772 431.004 22.8772 430.732C22.8772 430.46 22.7692 430.244 22.5532 430.084C22.3372 429.916 22.0292 429.776 21.6292 429.664V431.788ZM31.7484 430.252L30.6324 431.308V433H29.1324V424.096H30.6324V429.472L33.7404 426.592H35.5404L32.8644 429.28L35.7924 433H33.9684L31.7484 430.252Z" fill="#A6ACB7"/>
<path d="M4.104 323.068C4.88 323.164 5.472 323.428 5.88 323.86C6.288 324.292 6.492 324.832 6.492 325.48C6.492 325.968 6.368 326.412 6.12 326.812C5.872 327.212 5.496 327.532 4.992 327.772C4.496 328.004 3.888 328.12 3.168 328.12C2.568 328.12 1.988 328.036 1.428 327.868C0.876 327.692 0.404 327.452 0.012 327.148L0.684 325.936C0.988 326.192 1.356 326.396 1.788 326.548C2.228 326.692 2.68 326.764 3.144 326.764C3.696 326.764 4.128 326.652 4.44 326.428C4.76 326.196 4.92 325.884 4.92 325.492C4.92 325.1 4.768 324.796 4.464 324.58C4.168 324.356 3.712 324.244 3.096 324.244H2.328V323.176L4.236 320.908H0.42V319.6H6.144V320.644L4.104 323.068ZM10.4164 319.6V328H8.85638V320.908H7.08038V319.6H10.4164ZM21.9991 325.624C21.9991 326.272 21.7591 326.824 21.2791 327.28C20.8071 327.728 20.1191 328 19.2151 328.096V329.44H18.2311V328.108C17.6391 328.068 17.0791 327.96 16.5511 327.784C16.0231 327.608 15.6031 327.384 15.2911 327.112L15.8311 325.9C16.1271 326.14 16.4871 326.344 16.9111 326.512C17.3351 326.672 17.7751 326.772 18.2311 326.812V324.412C17.6631 324.276 17.1871 324.128 16.8031 323.968C16.4271 323.8 16.1111 323.56 15.8551 323.248C15.5991 322.928 15.4711 322.508 15.4711 321.988C15.4711 321.34 15.7071 320.788 16.1791 320.332C16.6511 319.876 17.3351 319.604 18.2311 319.516V318.16H19.2151V319.492C19.6631 319.516 20.0991 319.592 20.5231 319.72C20.9551 319.848 21.3311 320.016 21.6511 320.224L21.1591 321.436C20.5511 321.084 19.9031 320.868 19.2151 320.788V323.212C19.7911 323.348 20.2671 323.496 20.6431 323.656C21.0271 323.816 21.3471 324.056 21.6031 324.376C21.8671 324.688 21.9991 325.104 21.9991 325.624ZM17.0191 321.916C17.0191 322.18 17.1231 322.392 17.3311 322.552C17.5391 322.712 17.8391 322.848 18.2311 322.96V320.824C17.8231 320.888 17.5191 321.016 17.3191 321.208C17.1191 321.4 17.0191 321.636 17.0191 321.916ZM19.2151 326.788C19.6391 326.724 19.9511 326.6 20.1511 326.416C20.3591 326.232 20.4631 326.004 20.4631 325.732C20.4631 325.46 20.3551 325.244 20.1391 325.084C19.9231 324.916 19.6151 324.776 19.2151 324.664V326.788ZM29.3344 325.252L28.2184 326.308V328H26.7184V319.096H28.2184V324.472L31.3264 321.592H33.1264L30.4504 324.28L33.3784 328H31.5544L29.3344 325.252Z" fill="#A6ACB7"/>
<path d="M4.104 218.068C4.88 218.164 5.472 218.428 5.88 218.86C6.288 219.292 6.492 219.832 6.492 220.48C6.492 220.968 6.368 221.412 6.12 221.812C5.872 222.212 5.496 222.532 4.992 222.772C4.496 223.004 3.888 223.12 3.168 223.12C2.568 223.12 1.988 223.036 1.428 222.868C0.876 222.692 0.404 222.452 0.012 222.148L0.684 220.936C0.988 221.192 1.356 221.396 1.788 221.548C2.228 221.692 2.68 221.764 3.144 221.764C3.696 221.764 4.128 221.652 4.44 221.428C4.76 221.196 4.92 220.884 4.92 220.492C4.92 220.1 4.768 219.796 4.464 219.58C4.168 219.356 3.712 219.244 3.096 219.244H2.328V218.176L4.236 215.908H0.42V214.6H6.144V215.644L4.104 218.068ZM10.3444 214.48C11.4964 214.48 12.3884 214.84 13.0204 215.56C13.6604 216.28 13.9804 217.312 13.9804 218.656C13.9804 219.6 13.8084 220.408 13.4644 221.08C13.1204 221.744 12.6364 222.252 12.0124 222.604C11.3964 222.948 10.6804 223.12 9.86438 223.12C9.43238 223.12 9.02438 223.076 8.64038 222.988C8.26438 222.892 7.93638 222.756 7.65638 222.58L8.23238 221.404C8.64838 221.676 9.18038 221.812 9.82838 221.812C10.6364 221.812 11.2684 221.564 11.7244 221.068C12.1804 220.572 12.4084 219.856 12.4084 218.92V218.908C12.1604 219.196 11.8444 219.416 11.4604 219.568C11.0764 219.712 10.6444 219.784 10.1644 219.784C9.61238 219.784 9.11638 219.68 8.67638 219.472C8.23638 219.256 7.89238 218.952 7.64438 218.56C7.39638 218.168 7.27238 217.716 7.27238 217.204C7.27238 216.66 7.40838 216.184 7.68038 215.776C7.95238 215.36 8.32038 215.04 8.78438 214.816C9.24838 214.592 9.76838 214.48 10.3444 214.48ZM10.4644 218.56C10.9684 218.56 11.3764 218.424 11.6884 218.152C12.0084 217.88 12.1684 217.536 12.1684 217.12C12.1684 216.712 12.0124 216.376 11.7004 216.112C11.3964 215.84 10.9724 215.704 10.4284 215.704C9.94038 215.704 9.54438 215.836 9.24038 216.1C8.93638 216.356 8.78438 216.7 8.78438 217.132C8.78438 217.572 8.93638 217.92 9.24038 218.176C9.54438 218.432 9.95238 218.56 10.4644 218.56ZM24.9522 220.624C24.9522 221.272 24.7122 221.824 24.2322 222.28C23.7602 222.728 23.0722 223 22.1682 223.096V224.44H21.1842V223.108C20.5922 223.068 20.0322 222.96 19.5042 222.784C18.9762 222.608 18.5562 222.384 18.2442 222.112L18.7842 220.9C19.0802 221.14 19.4402 221.344 19.8642 221.512C20.2882 221.672 20.7282 221.772 21.1842 221.812V219.412C20.6162 219.276 20.1402 219.128 19.7562 218.968C19.3802 218.8 19.0642 218.56 18.8082 218.248C18.5522 217.928 18.4242 217.508 18.4242 216.988C18.4242 216.34 18.6602 215.788 19.1322 215.332C19.6042 214.876 20.2882 214.604 21.1842 214.516V213.16H22.1682V214.492C22.6162 214.516 23.0522 214.592 23.4762 214.72C23.9082 214.848 24.2842 215.016 24.6042 215.224L24.1122 216.436C23.5042 216.084 22.8562 215.868 22.1682 215.788V218.212C22.7442 218.348 23.2202 218.496 23.5962 218.656C23.9802 218.816 24.3002 219.056 24.5562 219.376C24.8202 219.688 24.9522 220.104 24.9522 220.624ZM19.9722 216.916C19.9722 217.18 20.0762 217.392 20.2842 217.552C20.4922 217.712 20.7922 217.848 21.1842 217.96V215.824C20.7762 215.888 20.4722 216.016 20.2722 216.208C20.0722 216.4 19.9722 216.636 19.9722 216.916ZM22.1682 221.788C22.5922 221.724 22.9042 221.6 23.1042 221.416C23.3122 221.232 23.4162 221.004 23.4162 220.732C23.4162 220.46 23.3082 220.244 23.0922 220.084C22.8762 219.916 22.5682 219.776 22.1682 219.664V221.788ZM32.2875 220.252L31.1715 221.308V223H29.6715V214.096H31.1715V219.472L34.2795 216.592H36.0795L33.4035 219.28L36.3315 223H34.5075L32.2875 220.252Z" fill="#A6ACB7"/>
<path d="M8.016 116.092H6.528V118H5.016V116.092H0.408V115.012L4.548 109.6H6.216L2.316 114.772H5.064V113.08H6.528V114.772H8.016V116.092ZM14.4695 109.6V110.644L11.2055 118H9.53747L12.6935 110.92H9.39347V112.348H7.94147V109.6H14.4695ZM25.3507 115.624C25.3507 116.272 25.1107 116.824 24.6307 117.28C24.1587 117.728 23.4707 118 22.5667 118.096V119.44H21.5827V118.108C20.9907 118.068 20.4307 117.96 19.9027 117.784C19.3747 117.608 18.9547 117.384 18.6427 117.112L19.1827 115.9C19.4787 116.14 19.8387 116.344 20.2627 116.512C20.6867 116.672 21.1267 116.772 21.5827 116.812V114.412C21.0147 114.276 20.5387 114.128 20.1547 113.968C19.7787 113.8 19.4627 113.56 19.2067 113.248C18.9507 112.928 18.8227 112.508 18.8227 111.988C18.8227 111.34 19.0587 110.788 19.5307 110.332C20.0027 109.876 20.6867 109.604 21.5827 109.516V108.16H22.5667V109.492C23.0147 109.516 23.4507 109.592 23.8747 109.72C24.3067 109.848 24.6827 110.016 25.0027 110.224L24.5107 111.436C23.9027 111.084 23.2547 110.868 22.5667 110.788V113.212C23.1427 113.348 23.6187 113.496 23.9947 113.656C24.3787 113.816 24.6987 114.056 24.9547 114.376C25.2187 114.688 25.3507 115.104 25.3507 115.624ZM20.3707 111.916C20.3707 112.18 20.4747 112.392 20.6827 112.552C20.8907 112.712 21.1907 112.848 21.5827 112.96V110.824C21.1747 110.888 20.8707 111.016 20.6707 111.208C20.4707 111.4 20.3707 111.636 20.3707 111.916ZM22.5667 116.788C22.9907 116.724 23.3027 116.6 23.5027 116.416C23.7107 116.232 23.8147 116.004 23.8147 115.732C23.8147 115.46 23.7067 115.244 23.4907 115.084C23.2747 114.916 22.9667 114.776 22.5667 114.664V116.788ZM32.6859 115.252L31.5699 116.308V118H30.0699V109.096H31.5699V114.472L34.6779 111.592H36.4779L33.8019 114.28L36.7299 118H34.9059L32.6859 115.252Z" fill="#A6ACB7"/>
<path d="M5.344 7.816C5.896 7.816 6.392 7.924 6.832 8.14C7.272 8.348 7.616 8.648 7.864 9.04C8.112 9.432 8.236 9.884 8.236 10.396C8.236 10.94 8.1 11.42 7.828 11.836C7.556 12.244 7.188 12.56 6.724 12.784C6.26 13.008 5.74 13.12 5.164 13.12C4.012 13.12 3.116 12.76 2.476 12.04C1.844 11.32 1.528 10.288 1.528 8.944C1.528 8 1.7 7.196 2.044 6.532C2.388 5.86 2.868 5.352 3.484 5.008C4.108 4.656 4.828 4.48 5.644 4.48C6.076 4.48 6.48 4.528 6.856 4.624C7.24 4.712 7.572 4.844 7.852 5.02L7.276 6.196C6.86 5.924 6.328 5.788 5.68 5.788C4.872 5.788 4.24 6.036 3.784 6.532C3.328 7.028 3.1 7.744 3.1 8.68V8.692C3.348 8.404 3.664 8.188 4.048 8.044C4.432 7.892 4.864 7.816 5.344 7.816ZM5.08 11.896C5.568 11.896 5.964 11.768 6.268 11.512C6.572 11.248 6.724 10.9 6.724 10.468C6.724 10.028 6.572 9.68 6.268 9.424C5.964 9.168 5.556 9.04 5.044 9.04C4.54 9.04 4.128 9.176 3.808 9.448C3.496 9.72 3.34 10.064 3.34 10.48C3.34 10.888 3.492 11.228 3.796 11.5C4.108 11.764 4.536 11.896 5.08 11.896ZM12.6274 8.068C13.4034 8.164 13.9954 8.428 14.4034 8.86C14.8114 9.292 15.0154 9.832 15.0154 10.48C15.0154 10.968 14.8914 11.412 14.6434 11.812C14.3954 12.212 14.0194 12.532 13.5154 12.772C13.0194 13.004 12.4114 13.12 11.6914 13.12C11.0914 13.12 10.5114 13.036 9.95144 12.868C9.39944 12.692 8.92744 12.452 8.53544 12.148L9.20744 10.936C9.51144 11.192 9.87944 11.396 10.3114 11.548C10.7514 11.692 11.2034 11.764 11.6674 11.764C12.2194 11.764 12.6514 11.652 12.9634 11.428C13.2834 11.196 13.4434 10.884 13.4434 10.492C13.4434 10.1 13.2914 9.796 12.9874 9.58C12.6914 9.356 12.2354 9.244 11.6194 9.244H10.8514V8.176L12.7594 5.908H8.94344V4.6H14.6674V5.644L12.6274 8.068ZM25.9522 10.624C25.9522 11.272 25.7122 11.824 25.2322 12.28C24.7602 12.728 24.0722 13 23.1682 13.096V14.44H22.1842V13.108C21.5922 13.068 21.0322 12.96 20.5042 12.784C19.9762 12.608 19.5562 12.384 19.2442 12.112L19.7842 10.9C20.0802 11.14 20.4402 11.344 20.8642 11.512C21.2882 11.672 21.7282 11.772 22.1842 11.812V9.412C21.6162 9.276 21.1402 9.128 20.7562 8.968C20.3802 8.8 20.0642 8.56 19.8082 8.248C19.5522 7.928 19.4242 7.508 19.4242 6.988C19.4242 6.34 19.6602 5.788 20.1322 5.332C20.6042 4.876 21.2882 4.604 22.1842 4.516V3.16H23.1682V4.492C23.6162 4.516 24.0522 4.592 24.4762 4.72C24.9082 4.848 25.2842 5.016 25.6042 5.224L25.1122 6.436C24.5042 6.084 23.8562 5.868 23.1682 5.788V8.212C23.7442 8.348 24.2202 8.496 24.5962 8.656C24.9802 8.816 25.3002 9.056 25.5562 9.376C25.8202 9.688 25.9522 10.104 25.9522 10.624ZM20.9722 6.916C20.9722 7.18 21.0762 7.392 21.2842 7.552C21.4922 7.712 21.7922 7.848 22.1842 7.96V5.824C21.7762 5.888 21.4722 6.016 21.2722 6.208C21.0722 6.4 20.9722 6.636 20.9722 6.916ZM23.1682 11.788C23.5922 11.724 23.9042 11.6 24.1042 11.416C24.3122 11.232 24.4162 11.004 24.4162 10.732C24.4162 10.46 24.3082 10.244 24.0922 10.084C23.8762 9.916 23.5682 9.776 23.1682 9.664V11.788ZM33.2875 10.252L32.1715 11.308V13H30.6715V4.096H32.1715V9.472L35.2795 6.592H37.0795L34.4035 9.28L37.3315 13H35.5075L33.2875 10.252Z" fill="#A6ACB7"/>
<path d="M151.032 448.12C150.36 448.12 149.76 447.952 149.232 447.616C148.704 447.272 148.288 446.776 147.984 446.128C147.68 445.472 147.528 444.696 147.528 443.8C147.528 442.904 147.68 442.132 147.984 441.484C148.288 440.828 148.704 440.332 149.232 439.996C149.76 439.652 150.36 439.48 151.032 439.48C151.704 439.48 152.304 439.652 152.832 439.996C153.368 440.332 153.788 440.828 154.092 441.484C154.396 442.132 154.548 442.904 154.548 443.8C154.548 444.696 154.396 445.472 154.092 446.128C153.788 446.776 153.368 447.272 152.832 447.616C152.304 447.952 151.704 448.12 151.032 448.12ZM151.032 446.764C151.632 446.764 152.104 446.516 152.448 446.02C152.8 445.524 152.976 444.784 152.976 443.8C152.976 442.816 152.8 442.076 152.448 441.58C152.104 441.084 151.632 440.836 151.032 440.836C150.44 440.836 149.968 441.084 149.616 441.58C149.272 442.076 149.1 442.816 149.1 443.8C149.1 444.784 149.272 445.524 149.616 446.02C149.968 446.516 150.44 446.764 151.032 446.764ZM159.418 442.816C159.97 442.816 160.466 442.924 160.906 443.14C161.346 443.348 161.69 443.648 161.938 444.04C162.186 444.432 162.31 444.884 162.31 445.396C162.31 445.94 162.174 446.42 161.902 446.836C161.63 447.244 161.262 447.56 160.798 447.784C160.334 448.008 159.814 448.12 159.238 448.12C158.086 448.12 157.19 447.76 156.55 447.04C155.918 446.32 155.602 445.288 155.602 443.944C155.602 443 155.774 442.196 156.118 441.532C156.462 440.86 156.942 440.352 157.558 440.008C158.182 439.656 158.902 439.48 159.718 439.48C160.15 439.48 160.554 439.528 160.93 439.624C161.314 439.712 161.646 439.844 161.926 440.02L161.35 441.196C160.934 440.924 160.402 440.788 159.754 440.788C158.946 440.788 158.314 441.036 157.858 441.532C157.402 442.028 157.174 442.744 157.174 443.68V443.692C157.422 443.404 157.738 443.188 158.122 443.044C158.506 442.892 158.938 442.816 159.418 442.816ZM159.154 446.896C159.642 446.896 160.038 446.768 160.342 446.512C160.646 446.248 160.798 445.9 160.798 445.468C160.798 445.028 160.646 444.68 160.342 444.424C160.038 444.168 159.63 444.04 159.118 444.04C158.614 444.04 158.202 444.176 157.882 444.448C157.57 444.72 157.414 445.064 157.414 445.48C157.414 445.888 157.566 446.228 157.87 446.5C158.182 446.764 158.61 446.896 159.154 446.896ZM164.179 448.084C163.907 448.084 163.675 447.992 163.483 447.808C163.291 447.616 163.195 447.376 163.195 447.088C163.195 446.792 163.287 446.552 163.471 446.368C163.663 446.184 163.899 446.092 164.179 446.092C164.459 446.092 164.691 446.184 164.875 446.368C165.067 446.552 165.163 446.792 165.163 447.088C165.163 447.376 165.067 447.616 164.875 447.808C164.683 447.992 164.451 448.084 164.179 448.084ZM169.536 448.12C168.864 448.12 168.264 447.952 167.736 447.616C167.208 447.272 166.792 446.776 166.488 446.128C166.184 445.472 166.032 444.696 166.032 443.8C166.032 442.904 166.184 442.132 166.488 441.484C166.792 440.828 167.208 440.332 167.736 439.996C168.264 439.652 168.864 439.48 169.536 439.48C170.208 439.48 170.808 439.652 171.336 439.996C171.872 440.332 172.292 440.828 172.596 441.484C172.9 442.132 173.052 442.904 173.052 443.8C173.052 444.696 172.9 445.472 172.596 446.128C172.292 446.776 171.872 447.272 171.336 447.616C170.808 447.952 170.208 448.12 169.536 448.12ZM169.536 446.764C170.136 446.764 170.608 446.516 170.952 446.02C171.304 445.524 171.48 444.784 171.48 443.8C171.48 442.816 171.304 442.076 170.952 441.58C170.608 441.084 170.136 440.836 169.536 440.836C168.944 440.836 168.472 441.084 168.12 441.58C167.776 442.076 167.604 442.816 167.604 443.8C167.604 444.784 167.776 445.524 168.12 446.02C168.472 446.516 168.944 446.764 169.536 446.764ZM179.554 443.584C179.994 443.784 180.33 444.056 180.562 444.4C180.802 444.736 180.922 445.132 180.922 445.588C180.922 446.1 180.778 446.548 180.49 446.932C180.21 447.316 179.81 447.612 179.29 447.82C178.77 448.02 178.166 448.12 177.478 448.12C176.79 448.12 176.186 448.02 175.666 447.82C175.154 447.612 174.758 447.316 174.478 446.932C174.198 446.548 174.058 446.1 174.058 445.588C174.058 445.132 174.174 444.736 174.406 444.4C174.638 444.056 174.97 443.784 175.402 443.584C175.066 443.4 174.806 443.16 174.622 442.864C174.446 442.56 174.358 442.212 174.358 441.82C174.358 441.348 174.486 440.936 174.742 440.584C175.006 440.232 175.374 439.96 175.846 439.768C176.318 439.576 176.862 439.48 177.478 439.48C178.102 439.48 178.65 439.576 179.122 439.768C179.594 439.96 179.962 440.232 180.226 440.584C180.49 440.936 180.622 441.348 180.622 441.82C180.622 442.212 180.53 442.556 180.346 442.852C180.162 443.148 179.898 443.392 179.554 443.584ZM177.478 440.704C176.99 440.704 176.602 440.808 176.314 441.016C176.034 441.224 175.894 441.516 175.894 441.892C175.894 442.252 176.034 442.54 176.314 442.756C176.602 442.964 176.99 443.068 177.478 443.068C177.974 443.068 178.366 442.964 178.654 442.756C178.942 442.54 179.086 442.252 179.086 441.892C179.086 441.516 178.938 441.224 178.642 441.016C178.354 440.808 177.966 440.704 177.478 440.704ZM177.478 446.896C178.054 446.896 178.51 446.776 178.846 446.536C179.182 446.296 179.35 445.964 179.35 445.54C179.35 445.124 179.182 444.796 178.846 444.556C178.51 444.316 178.054 444.196 177.478 444.196C176.902 444.196 176.45 444.316 176.122 444.556C175.794 444.796 175.63 445.124 175.63 445.54C175.63 445.964 175.794 446.296 176.122 446.536C176.45 446.776 176.902 446.896 177.478 446.896Z" fill="#A6ACB7"/>
<path d="M202.458 448.12C201.786 448.12 201.186 447.952 200.658 447.616C200.13 447.272 199.714 446.776 199.41 446.128C199.106 445.472 198.954 444.696 198.954 443.8C198.954 442.904 199.106 442.132 199.41 441.484C199.714 440.828 200.13 440.332 200.658 439.996C201.186 439.652 201.786 439.48 202.458 439.48C203.13 439.48 203.73 439.652 204.258 439.996C204.794 440.332 205.214 440.828 205.518 441.484C205.822 442.132 205.974 442.904 205.974 443.8C205.974 444.696 205.822 445.472 205.518 446.128C205.214 446.776 204.794 447.272 204.258 447.616C203.73 447.952 203.13 448.12 202.458 448.12ZM202.458 446.764C203.058 446.764 203.53 446.516 203.874 446.02C204.226 445.524 204.402 444.784 204.402 443.8C204.402 442.816 204.226 442.076 203.874 441.58C203.53 441.084 203.058 440.836 202.458 440.836C201.866 440.836 201.394 441.084 201.042 441.58C200.698 442.076 200.526 442.816 200.526 443.8C200.526 444.784 200.698 445.524 201.042 446.02C201.394 446.516 201.866 446.764 202.458 446.764ZM209.86 439.48C211.012 439.48 211.904 439.84 212.536 440.56C213.176 441.28 213.496 442.312 213.496 443.656C213.496 444.6 213.324 445.408 212.98 446.08C212.636 446.744 212.152 447.252 211.528 447.604C210.912 447.948 210.196 448.12 209.38 448.12C208.948 448.12 208.54 448.076 208.156 447.988C207.78 447.892 207.452 447.756 207.172 447.58L207.748 446.404C208.164 446.676 208.696 446.812 209.344 446.812C210.152 446.812 210.784 446.564 211.24 446.068C211.696 445.572 211.924 444.856 211.924 443.92V443.908C211.676 444.196 211.36 444.416 210.976 444.568C210.592 444.712 210.16 444.784 209.68 444.784C209.128 444.784 208.632 444.68 208.192 444.472C207.752 444.256 207.408 443.952 207.16 443.56C206.912 443.168 206.788 442.716 206.788 442.204C206.788 441.66 206.924 441.184 207.196 440.776C207.468 440.36 207.836 440.04 208.3 439.816C208.764 439.592 209.284 439.48 209.86 439.48ZM209.98 443.56C210.484 443.56 210.892 443.424 211.204 443.152C211.524 442.88 211.684 442.536 211.684 442.12C211.684 441.712 211.528 441.376 211.216 441.112C210.912 440.84 210.488 440.704 209.944 440.704C209.456 440.704 209.06 440.836 208.756 441.1C208.452 441.356 208.3 441.7 208.3 442.132C208.3 442.572 208.452 442.92 208.756 443.176C209.06 443.432 209.468 443.56 209.98 443.56ZM215.347 448.084C215.075 448.084 214.843 447.992 214.651 447.808C214.459 447.616 214.363 447.376 214.363 447.088C214.363 446.792 214.455 446.552 214.639 446.368C214.831 446.184 215.067 446.092 215.347 446.092C215.627 446.092 215.859 446.184 216.043 446.368C216.235 446.552 216.331 446.792 216.331 447.088C216.331 447.376 216.235 447.616 216.043 447.808C215.851 447.992 215.619 448.084 215.347 448.084ZM220.704 448.12C220.032 448.12 219.432 447.952 218.904 447.616C218.376 447.272 217.96 446.776 217.656 446.128C217.352 445.472 217.2 444.696 217.2 443.8C217.2 442.904 217.352 442.132 217.656 441.484C217.96 440.828 218.376 440.332 218.904 439.996C219.432 439.652 220.032 439.48 220.704 439.48C221.376 439.48 221.976 439.652 222.504 439.996C223.04 440.332 223.46 440.828 223.764 441.484C224.068 442.132 224.22 442.904 224.22 443.8C224.22 444.696 224.068 445.472 223.764 446.128C223.46 446.776 223.04 447.272 222.504 447.616C221.976 447.952 221.376 448.12 220.704 448.12ZM220.704 446.764C221.304 446.764 221.776 446.516 222.12 446.02C222.472 445.524 222.648 444.784 222.648 443.8C222.648 442.816 222.472 442.076 222.12 441.58C221.776 441.084 221.304 440.836 220.704 440.836C220.112 440.836 219.64 441.084 219.288 441.58C218.944 442.076 218.772 442.816 218.772 443.8C218.772 444.784 218.944 445.524 219.288 446.02C219.64 446.516 220.112 446.764 220.704 446.764ZM230.722 443.584C231.162 443.784 231.498 444.056 231.73 444.4C231.97 444.736 232.09 445.132 232.09 445.588C232.09 446.1 231.946 446.548 231.658 446.932C231.378 447.316 230.978 447.612 230.458 447.82C229.938 448.02 229.334 448.12 228.646 448.12C227.958 448.12 227.354 448.02 226.834 447.82C226.322 447.612 225.926 447.316 225.646 446.932C225.366 446.548 225.226 446.1 225.226 445.588C225.226 445.132 225.342 444.736 225.574 444.4C225.806 444.056 226.138 443.784 226.57 443.584C226.234 443.4 225.974 443.16 225.79 442.864C225.614 442.56 225.526 442.212 225.526 441.82C225.526 441.348 225.654 440.936 225.91 440.584C226.174 440.232 226.542 439.96 227.014 439.768C227.486 439.576 228.03 439.48 228.646 439.48C229.27 439.48 229.818 439.576 230.29 439.768C230.762 439.96 231.13 440.232 231.394 440.584C231.658 440.936 231.79 441.348 231.79 441.82C231.79 442.212 231.698 442.556 231.514 442.852C231.33 443.148 231.066 443.392 230.722 443.584ZM228.646 440.704C228.158 440.704 227.77 440.808 227.482 441.016C227.202 441.224 227.062 441.516 227.062 441.892C227.062 442.252 227.202 442.54 227.482 442.756C227.77 442.964 228.158 443.068 228.646 443.068C229.142 443.068 229.534 442.964 229.822 442.756C230.11 442.54 230.254 442.252 230.254 441.892C230.254 441.516 230.106 441.224 229.81 441.016C229.522 440.808 229.134 440.704 228.646 440.704ZM228.646 446.896C229.222 446.896 229.678 446.776 230.014 446.536C230.35 446.296 230.518 445.964 230.518 445.54C230.518 445.124 230.35 444.796 230.014 444.556C229.678 444.316 229.222 444.196 228.646 444.196C228.07 444.196 227.618 444.316 227.29 444.556C226.962 444.796 226.798 445.124 226.798 445.54C226.798 445.964 226.962 446.296 227.29 446.536C227.618 446.776 228.07 446.896 228.646 446.896Z" fill="#A6ACB7"/>
<path d="M254.75 439.6V448H253.19V440.908H251.414V439.6H254.75ZM262.501 446.68V448H256.309V446.956L259.645 443.788C260.021 443.428 260.273 443.116 260.401 442.852C260.537 442.58 260.605 442.312 260.605 442.048C260.605 441.656 260.473 441.356 260.209 441.148C259.945 440.94 259.557 440.836 259.045 440.836C258.189 440.836 257.533 441.128 257.077 441.712L255.985 440.872C256.313 440.432 256.753 440.092 257.305 439.852C257.865 439.604 258.489 439.48 259.177 439.48C260.089 439.48 260.817 439.696 261.361 440.128C261.905 440.56 262.177 441.148 262.177 441.892C262.177 442.348 262.081 442.776 261.889 443.176C261.697 443.576 261.329 444.032 260.785 444.544L258.541 446.68H262.501ZM264.454 448.084C264.182 448.084 263.95 447.992 263.758 447.808C263.566 447.616 263.47 447.376 263.47 447.088C263.47 446.792 263.562 446.552 263.746 446.368C263.938 446.184 264.174 446.092 264.454 446.092C264.734 446.092 264.966 446.184 265.15 446.368C265.342 446.552 265.438 446.792 265.438 447.088C265.438 447.376 265.342 447.616 265.15 447.808C264.958 447.992 264.726 448.084 264.454 448.084ZM269.811 448.12C269.139 448.12 268.539 447.952 268.011 447.616C267.483 447.272 267.067 446.776 266.763 446.128C266.459 445.472 266.307 444.696 266.307 443.8C266.307 442.904 266.459 442.132 266.763 441.484C267.067 440.828 267.483 440.332 268.011 439.996C268.539 439.652 269.139 439.48 269.811 439.48C270.483 439.48 271.083 439.652 271.611 439.996C272.147 440.332 272.567 440.828 272.871 441.484C273.175 442.132 273.327 442.904 273.327 443.8C273.327 444.696 273.175 445.472 272.871 446.128C272.567 446.776 272.147 447.272 271.611 447.616C271.083 447.952 270.483 448.12 269.811 448.12ZM269.811 446.764C270.411 446.764 270.883 446.516 271.227 446.02C271.579 445.524 271.755 444.784 271.755 443.8C271.755 442.816 271.579 442.076 271.227 441.58C270.883 441.084 270.411 440.836 269.811 440.836C269.219 440.836 268.747 441.084 268.395 441.58C268.051 442.076 267.879 442.816 267.879 443.8C267.879 444.784 268.051 445.524 268.395 446.02C268.747 446.516 269.219 446.764 269.811 446.764ZM279.83 443.584C280.27 443.784 280.606 444.056 280.838 444.4C281.078 444.736 281.198 445.132 281.198 445.588C281.198 446.1 281.054 446.548 280.766 446.932C280.486 447.316 280.086 447.612 279.566 447.82C279.046 448.02 278.442 448.12 277.754 448.12C277.066 448.12 276.462 448.02 275.942 447.82C275.43 447.612 275.034 447.316 274.754 446.932C274.474 446.548 274.334 446.1 274.334 445.588C274.334 445.132 274.45 444.736 274.682 444.4C274.914 444.056 275.246 443.784 275.678 443.584C275.342 443.4 275.082 443.16 274.898 442.864C274.722 442.56 274.634 442.212 274.634 441.82C274.634 441.348 274.762 440.936 275.018 440.584C275.282 440.232 275.65 439.96 276.122 439.768C276.594 439.576 277.138 439.48 277.754 439.48C278.378 439.48 278.926 439.576 279.398 439.768C279.87 439.96 280.238 440.232 280.502 440.584C280.766 440.936 280.898 441.348 280.898 441.82C280.898 442.212 280.806 442.556 280.622 442.852C280.438 443.148 280.174 443.392 279.83 443.584ZM277.754 440.704C277.266 440.704 276.878 440.808 276.59 441.016C276.31 441.224 276.17 441.516 276.17 441.892C276.17 442.252 276.31 442.54 276.59 442.756C276.878 442.964 277.266 443.068 277.754 443.068C278.25 443.068 278.642 442.964 278.93 442.756C279.218 442.54 279.362 442.252 279.362 441.892C279.362 441.516 279.214 441.224 278.918 441.016C278.63 440.808 278.242 440.704 277.754 440.704ZM277.754 446.896C278.33 446.896 278.786 446.776 279.122 446.536C279.458 446.296 279.626 445.964 279.626 445.54C279.626 445.124 279.458 444.796 279.122 444.556C278.786 444.316 278.33 444.196 277.754 444.196C277.178 444.196 276.726 444.316 276.398 444.556C276.07 444.796 275.906 445.124 275.906 445.54C275.906 445.964 276.07 446.296 276.398 446.536C276.726 446.776 277.178 446.896 277.754 446.896Z" fill="#A6ACB7"/>
<path d="M304.797 439.6V448H303.237V440.908H301.461V439.6H304.797ZM309.092 442.852C310.276 442.852 311.152 443.084 311.72 443.548C312.288 444.004 312.572 444.628 312.572 445.42C312.572 445.924 312.448 446.38 312.2 446.788C311.952 447.196 311.58 447.52 311.084 447.76C310.588 448 309.976 448.12 309.248 448.12C308.648 448.12 308.068 448.036 307.508 447.868C306.948 447.692 306.476 447.452 306.092 447.148L306.752 445.936C307.064 446.192 307.436 446.396 307.868 446.548C308.308 446.692 308.76 446.764 309.224 446.764C309.776 446.764 310.208 446.652 310.52 446.428C310.84 446.196 311 445.88 311 445.48C311 445.048 310.828 444.724 310.484 444.508C310.148 444.284 309.568 444.172 308.744 444.172H306.716L307.148 439.6H312.08V440.908H308.468L308.288 442.852H309.092ZM314.407 448.084C314.135 448.084 313.903 447.992 313.711 447.808C313.519 447.616 313.423 447.376 313.423 447.088C313.423 446.792 313.515 446.552 313.699 446.368C313.891 446.184 314.127 446.092 314.407 446.092C314.687 446.092 314.919 446.184 315.103 446.368C315.295 446.552 315.391 446.792 315.391 447.088C315.391 447.376 315.295 447.616 315.103 447.808C314.911 447.992 314.679 448.084 314.407 448.084ZM319.764 448.12C319.092 448.12 318.492 447.952 317.964 447.616C317.436 447.272 317.02 446.776 316.716 446.128C316.412 445.472 316.26 444.696 316.26 443.8C316.26 442.904 316.412 442.132 316.716 441.484C317.02 440.828 317.436 440.332 317.964 439.996C318.492 439.652 319.092 439.48 319.764 439.48C320.436 439.48 321.036 439.652 321.564 439.996C322.1 440.332 322.52 440.828 322.824 441.484C323.128 442.132 323.28 442.904 323.28 443.8C323.28 444.696 323.128 445.472 322.824 446.128C322.52 446.776 322.1 447.272 321.564 447.616C321.036 447.952 320.436 448.12 319.764 448.12ZM319.764 446.764C320.364 446.764 320.836 446.516 321.18 446.02C321.532 445.524 321.708 444.784 321.708 443.8C321.708 442.816 321.532 442.076 321.18 441.58C320.836 441.084 320.364 440.836 319.764 440.836C319.172 440.836 318.7 441.084 318.348 441.58C318.004 442.076 317.832 442.816 317.832 443.8C317.832 444.784 318.004 445.524 318.348 446.02C318.7 446.516 319.172 446.764 319.764 446.764ZM329.783 443.584C330.223 443.784 330.559 444.056 330.791 444.4C331.031 444.736 331.151 445.132 331.151 445.588C331.151 446.1 331.007 446.548 330.719 446.932C330.439 447.316 330.039 447.612 329.519 447.82C328.999 448.02 328.395 448.12 327.707 448.12C327.019 448.12 326.415 448.02 325.895 447.82C325.383 447.612 324.987 447.316 324.707 446.932C324.427 446.548 324.287 446.1 324.287 445.588C324.287 445.132 324.403 444.736 324.635 444.4C324.867 444.056 325.199 443.784 325.631 443.584C325.295 443.4 325.035 443.16 324.851 442.864C324.675 442.56 324.587 442.212 324.587 441.82C324.587 441.348 324.715 440.936 324.971 440.584C325.235 440.232 325.603 439.96 326.075 439.768C326.547 439.576 327.091 439.48 327.707 439.48C328.331 439.48 328.879 439.576 329.351 439.768C329.823 439.96 330.191 440.232 330.455 440.584C330.719 440.936 330.851 441.348 330.851 441.82C330.851 442.212 330.759 442.556 330.575 442.852C330.391 443.148 330.127 443.392 329.783 443.584ZM327.707 440.704C327.219 440.704 326.831 440.808 326.543 441.016C326.263 441.224 326.123 441.516 326.123 441.892C326.123 442.252 326.263 442.54 326.543 442.756C326.831 442.964 327.219 443.068 327.707 443.068C328.203 443.068 328.595 442.964 328.883 442.756C329.171 442.54 329.315 442.252 329.315 441.892C329.315 441.516 329.167 441.224 328.871 441.016C328.583 440.808 328.195 440.704 327.707 440.704ZM327.707 446.896C328.283 446.896 328.739 446.776 329.075 446.536C329.411 446.296 329.579 445.964 329.579 445.54C329.579 445.124 329.411 444.796 329.075 444.556C328.739 444.316 328.283 444.196 327.707 444.196C327.131 444.196 326.679 444.316 326.351 444.556C326.023 444.796 325.859 445.124 325.859 445.54C325.859 445.964 326.023 446.296 326.351 446.536C326.679 446.776 327.131 446.896 327.707 446.896Z" fill="#282C33"/>
<path d="M355.828 439.6V448H354.268V440.908H352.492V439.6H355.828ZM362.943 443.584C363.383 443.784 363.719 444.056 363.951 444.4C364.191 444.736 364.311 445.132 364.311 445.588C364.311 446.1 364.167 446.548 363.879 446.932C363.599 447.316 363.199 447.612 362.679 447.82C362.159 448.02 361.555 448.12 360.867 448.12C360.179 448.12 359.575 448.02 359.055 447.82C358.543 447.612 358.147 447.316 357.867 446.932C357.587 446.548 357.447 446.1 357.447 445.588C357.447 445.132 357.563 444.736 357.795 444.4C358.027 444.056 358.359 443.784 358.791 443.584C358.455 443.4 358.195 443.16 358.011 442.864C357.835 442.56 357.747 442.212 357.747 441.82C357.747 441.348 357.875 440.936 358.131 440.584C358.395 440.232 358.763 439.96 359.235 439.768C359.707 439.576 360.251 439.48 360.867 439.48C361.491 439.48 362.039 439.576 362.511 439.768C362.983 439.96 363.351 440.232 363.615 440.584C363.879 440.936 364.011 441.348 364.011 441.82C364.011 442.212 363.919 442.556 363.735 442.852C363.551 443.148 363.287 443.392 362.943 443.584ZM360.867 440.704C360.379 440.704 359.991 440.808 359.703 441.016C359.423 441.224 359.283 441.516 359.283 441.892C359.283 442.252 359.423 442.54 359.703 442.756C359.991 442.964 360.379 443.068 360.867 443.068C361.363 443.068 361.755 442.964 362.043 442.756C362.331 442.54 362.475 442.252 362.475 441.892C362.475 441.516 362.327 441.224 362.031 441.016C361.743 440.808 361.355 440.704 360.867 440.704ZM360.867 446.896C361.443 446.896 361.899 446.776 362.235 446.536C362.571 446.296 362.739 445.964 362.739 445.54C362.739 445.124 362.571 444.796 362.235 444.556C361.899 444.316 361.443 444.196 360.867 444.196C360.291 444.196 359.839 444.316 359.511 444.556C359.183 444.796 359.019 445.124 359.019 445.54C359.019 445.964 359.183 446.296 359.511 446.536C359.839 446.776 360.291 446.896 360.867 446.896ZM366.376 448.084C366.104 448.084 365.872 447.992 365.68 447.808C365.488 447.616 365.392 447.376 365.392 447.088C365.392 446.792 365.484 446.552 365.668 446.368C365.86 446.184 366.096 446.092 366.376 446.092C366.656 446.092 366.888 446.184 367.072 446.368C367.264 446.552 367.36 446.792 367.36 447.088C367.36 447.376 367.264 447.616 367.072 447.808C366.88 447.992 366.648 448.084 366.376 448.084ZM371.733 448.12C371.061 448.12 370.461 447.952 369.933 447.616C369.405 447.272 368.989 446.776 368.685 446.128C368.381 445.472 368.229 444.696 368.229 443.8C368.229 442.904 368.381 442.132 368.685 441.484C368.989 440.828 369.405 440.332 369.933 439.996C370.461 439.652 371.061 439.48 371.733 439.48C372.405 439.48 373.005 439.652 373.533 439.996C374.069 440.332 374.489 440.828 374.793 441.484C375.097 442.132 375.249 442.904 375.249 443.8C375.249 444.696 375.097 445.472 374.793 446.128C374.489 446.776 374.069 447.272 373.533 447.616C373.005 447.952 372.405 448.12 371.733 448.12ZM371.733 446.764C372.333 446.764 372.805 446.516 373.149 446.02C373.501 445.524 373.677 444.784 373.677 443.8C373.677 442.816 373.501 442.076 373.149 441.58C372.805 441.084 372.333 440.836 371.733 440.836C371.141 440.836 370.669 441.084 370.317 441.58C369.973 442.076 369.801 442.816 369.801 443.8C369.801 444.784 369.973 445.524 370.317 446.02C370.669 446.516 371.141 446.764 371.733 446.764ZM381.751 443.584C382.191 443.784 382.527 444.056 382.759 444.4C382.999 444.736 383.119 445.132 383.119 445.588C383.119 446.1 382.975 446.548 382.687 446.932C382.407 447.316 382.007 447.612 381.487 447.82C380.967 448.02 380.363 448.12 379.675 448.12C378.987 448.12 378.383 448.02 377.863 447.82C377.351 447.612 376.955 447.316 376.675 446.932C376.395 446.548 376.255 446.1 376.255 445.588C376.255 445.132 376.371 444.736 376.603 444.4C376.835 444.056 377.167 443.784 377.599 443.584C377.263 443.4 377.003 443.16 376.819 442.864C376.643 442.56 376.555 442.212 376.555 441.82C376.555 441.348 376.683 440.936 376.939 440.584C377.203 440.232 377.571 439.96 378.043 439.768C378.515 439.576 379.059 439.48 379.675 439.48C380.299 439.48 380.847 439.576 381.319 439.768C381.791 439.96 382.159 440.232 382.423 440.584C382.687 440.936 382.819 441.348 382.819 441.82C382.819 442.212 382.727 442.556 382.543 442.852C382.359 443.148 382.095 443.392 381.751 443.584ZM379.675 440.704C379.187 440.704 378.799 440.808 378.511 441.016C378.231 441.224 378.091 441.516 378.091 441.892C378.091 442.252 378.231 442.54 378.511 442.756C378.799 442.964 379.187 443.068 379.675 443.068C380.171 443.068 380.563 442.964 380.851 442.756C381.139 442.54 381.283 442.252 381.283 441.892C381.283 441.516 381.135 441.224 380.839 441.016C380.551 440.808 380.163 440.704 379.675 440.704ZM379.675 446.896C380.251 446.896 380.707 446.776 381.043 446.536C381.379 446.296 381.547 445.964 381.547 445.54C381.547 445.124 381.379 444.796 381.043 444.556C380.707 444.316 380.251 444.196 379.675 444.196C379.099 444.196 378.647 444.316 378.319 444.556C377.991 444.796 377.827 445.124 377.827 445.54C377.827 445.964 377.991 446.296 378.319 446.536C378.647 446.776 379.099 446.896 379.675 446.896Z" fill="#A6ACB7"/>
<path d="M409.989 446.68V448H403.797V446.956L407.133 443.788C407.509 443.428 407.761 443.116 407.889 442.852C408.025 442.58 408.093 442.312 408.093 442.048C408.093 441.656 407.961 441.356 407.697 441.148C407.433 440.94 407.045 440.836 406.533 440.836C405.677 440.836 405.021 441.128 404.565 441.712L403.473 440.872C403.801 440.432 404.241 440.092 404.793 439.852C405.353 439.604 405.977 439.48 406.665 439.48C407.577 439.48 408.305 439.696 408.849 440.128C409.393 440.56 409.665 441.148 409.665 441.892C409.665 442.348 409.569 442.776 409.377 443.176C409.185 443.576 408.817 444.032 408.273 444.544L406.029 446.68H409.989ZM413.793 439.6V448H412.233V440.908H410.457V439.6H413.793ZM416.396 448.084C416.124 448.084 415.892 447.992 415.7 447.808C415.508 447.616 415.412 447.376 415.412 447.088C415.412 446.792 415.504 446.552 415.688 446.368C415.88 446.184 416.116 446.092 416.396 446.092C416.676 446.092 416.908 446.184 417.092 446.368C417.284 446.552 417.38 446.792 417.38 447.088C417.38 447.376 417.284 447.616 417.092 447.808C416.9 447.992 416.668 448.084 416.396 448.084ZM421.753 448.12C421.081 448.12 420.481 447.952 419.953 447.616C419.425 447.272 419.009 446.776 418.705 446.128C418.401 445.472 418.249 444.696 418.249 443.8C418.249 442.904 418.401 442.132 418.705 441.484C419.009 440.828 419.425 440.332 419.953 439.996C420.481 439.652 421.081 439.48 421.753 439.48C422.425 439.48 423.025 439.652 423.553 439.996C424.089 440.332 424.509 440.828 424.813 441.484C425.117 442.132 425.269 442.904 425.269 443.8C425.269 444.696 425.117 445.472 424.813 446.128C424.509 446.776 424.089 447.272 423.553 447.616C423.025 447.952 422.425 448.12 421.753 448.12ZM421.753 446.764C422.353 446.764 422.825 446.516 423.169 446.02C423.521 445.524 423.697 444.784 423.697 443.8C423.697 442.816 423.521 442.076 423.169 441.58C422.825 441.084 422.353 440.836 421.753 440.836C421.161 440.836 420.689 441.084 420.337 441.58C419.993 442.076 419.821 442.816 419.821 443.8C419.821 444.784 419.993 445.524 420.337 446.02C420.689 446.516 421.161 446.764 421.753 446.764ZM431.771 443.584C432.211 443.784 432.547 444.056 432.779 444.4C433.019 444.736 433.139 445.132 433.139 445.588C433.139 446.1 432.995 446.548 432.707 446.932C432.427 447.316 432.027 447.612 431.507 447.82C430.987 448.02 430.383 448.12 429.695 448.12C429.007 448.12 428.403 448.02 427.883 447.82C427.371 447.612 426.975 447.316 426.695 446.932C426.415 446.548 426.275 446.1 426.275 445.588C426.275 445.132 426.391 444.736 426.623 444.4C426.855 444.056 427.187 443.784 427.619 443.584C427.283 443.4 427.023 443.16 426.839 442.864C426.663 442.56 426.575 442.212 426.575 441.82C426.575 441.348 426.703 440.936 426.959 440.584C427.223 440.232 427.591 439.96 428.063 439.768C428.535 439.576 429.079 439.48 429.695 439.48C430.319 439.48 430.867 439.576 431.339 439.768C431.811 439.96 432.179 440.232 432.443 440.584C432.707 440.936 432.839 441.348 432.839 441.82C432.839 442.212 432.747 442.556 432.563 442.852C432.379 443.148 432.115 443.392 431.771 443.584ZM429.695 440.704C429.207 440.704 428.819 440.808 428.531 441.016C428.251 441.224 428.111 441.516 428.111 441.892C428.111 442.252 428.251 442.54 428.531 442.756C428.819 442.964 429.207 443.068 429.695 443.068C430.191 443.068 430.583 442.964 430.871 442.756C431.159 442.54 431.303 442.252 431.303 441.892C431.303 441.516 431.155 441.224 430.859 441.016C430.571 440.808 430.183 440.704 429.695 440.704ZM429.695 446.896C430.271 446.896 430.727 446.776 431.063 446.536C431.399 446.296 431.567 445.964 431.567 445.54C431.567 445.124 431.399 444.796 431.063 444.556C430.727 444.316 430.271 444.196 429.695 444.196C429.119 444.196 428.667 444.316 428.339 444.556C428.011 444.796 427.847 445.124 427.847 445.54C427.847 445.964 428.011 446.296 428.339 446.536C428.667 446.776 429.119 446.896 429.695 446.896Z" fill="#A6ACB7"/>
<path d="M460.782 446.68V448H454.59V446.956L457.926 443.788C458.302 443.428 458.554 443.116 458.682 442.852C458.818 442.58 458.886 442.312 458.886 442.048C458.886 441.656 458.754 441.356 458.49 441.148C458.226 440.94 457.838 440.836 457.326 440.836C456.47 440.836 455.814 441.128 455.358 441.712L454.266 440.872C454.594 440.432 455.034 440.092 455.586 439.852C456.146 439.604 456.77 439.48 457.458 439.48C458.37 439.48 459.098 439.696 459.642 440.128C460.186 440.56 460.458 441.148 460.458 441.892C460.458 442.348 460.362 442.776 460.17 443.176C459.978 443.576 459.61 444.032 459.066 444.544L456.822 446.68H460.782ZM465.258 443.068C466.034 443.164 466.626 443.428 467.034 443.86C467.442 444.292 467.646 444.832 467.646 445.48C467.646 445.968 467.522 446.412 467.274 446.812C467.026 447.212 466.65 447.532 466.146 447.772C465.65 448.004 465.042 448.12 464.322 448.12C463.722 448.12 463.142 448.036 462.582 447.868C462.03 447.692 461.558 447.452 461.166 447.148L461.838 445.936C462.142 446.192 462.51 446.396 462.942 446.548C463.382 446.692 463.834 446.764 464.298 446.764C464.85 446.764 465.282 446.652 465.594 446.428C465.914 446.196 466.074 445.884 466.074 445.492C466.074 445.1 465.922 444.796 465.618 444.58C465.322 444.356 464.866 444.244 464.25 444.244H463.482V443.176L465.39 440.908H461.574V439.6H467.298V440.644L465.258 443.068ZM469.603 448.084C469.331 448.084 469.099 447.992 468.907 447.808C468.715 447.616 468.619 447.376 468.619 447.088C468.619 446.792 468.711 446.552 468.895 446.368C469.087 446.184 469.323 446.092 469.603 446.092C469.883 446.092 470.115 446.184 470.299 446.368C470.491 446.552 470.587 446.792 470.587 447.088C470.587 447.376 470.491 447.616 470.299 447.808C470.107 447.992 469.875 448.084 469.603 448.084ZM474.96 448.12C474.288 448.12 473.688 447.952 473.16 447.616C472.632 447.272 472.216 446.776 471.912 446.128C471.608 445.472 471.456 444.696 471.456 443.8C471.456 442.904 471.608 442.132 471.912 441.484C472.216 440.828 472.632 440.332 473.16 439.996C473.688 439.652 474.288 439.48 474.96 439.48C475.632 439.48 476.232 439.652 476.76 439.996C477.296 440.332 477.716 440.828 478.02 441.484C478.324 442.132 478.476 442.904 478.476 443.8C478.476 444.696 478.324 445.472 478.02 446.128C477.716 446.776 477.296 447.272 476.76 447.616C476.232 447.952 475.632 448.12 474.96 448.12ZM474.96 446.764C475.56 446.764 476.032 446.516 476.376 446.02C476.728 445.524 476.904 444.784 476.904 443.8C476.904 442.816 476.728 442.076 476.376 441.58C476.032 441.084 475.56 440.836 474.96 440.836C474.368 440.836 473.896 441.084 473.544 441.58C473.2 442.076 473.028 442.816 473.028 443.8C473.028 444.784 473.2 445.524 473.544 446.02C473.896 446.516 474.368 446.764 474.96 446.764ZM484.978 443.584C485.418 443.784 485.754 444.056 485.986 444.4C486.226 444.736 486.346 445.132 486.346 445.588C486.346 446.1 486.202 446.548 485.914 446.932C485.634 447.316 485.234 447.612 484.714 447.82C484.194 448.02 483.59 448.12 482.902 448.12C482.214 448.12 481.61 448.02 481.09 447.82C480.578 447.612 480.182 447.316 479.902 446.932C479.622 446.548 479.482 446.1 479.482 445.588C479.482 445.132 479.598 444.736 479.83 444.4C480.062 444.056 480.394 443.784 480.826 443.584C480.49 443.4 480.23 443.16 480.046 442.864C479.87 442.56 479.782 442.212 479.782 441.82C479.782 441.348 479.91 440.936 480.166 440.584C480.43 440.232 480.798 439.96 481.27 439.768C481.742 439.576 482.286 439.48 482.902 439.48C483.526 439.48 484.074 439.576 484.546 439.768C485.018 439.96 485.386 440.232 485.65 440.584C485.914 440.936 486.046 441.348 486.046 441.82C486.046 442.212 485.954 442.556 485.77 442.852C485.586 443.148 485.322 443.392 484.978 443.584ZM482.902 440.704C482.414 440.704 482.026 440.808 481.738 441.016C481.458 441.224 481.318 441.516 481.318 441.892C481.318 442.252 481.458 442.54 481.738 442.756C482.026 442.964 482.414 443.068 482.902 443.068C483.398 443.068 483.79 442.964 484.078 442.756C484.366 442.54 484.51 442.252 484.51 441.892C484.51 441.516 484.362 441.224 484.066 441.016C483.778 440.808 483.39 440.704 482.902 440.704ZM482.902 446.896C483.478 446.896 483.934 446.776 484.27 446.536C484.606 446.296 484.774 445.964 484.774 445.54C484.774 445.124 484.606 444.796 484.27 444.556C483.934 444.316 483.478 444.196 482.902 444.196C482.326 444.196 481.874 444.316 481.546 444.556C481.218 444.796 481.054 445.124 481.054 445.54C481.054 445.964 481.218 446.296 481.546 446.536C481.874 446.776 482.326 446.896 482.902 446.896Z" fill="#A6ACB7"/>
<path d="M510.971 446.68V448H504.779V446.956L508.115 443.788C508.491 443.428 508.743 443.116 508.871 442.852C509.007 442.58 509.075 442.312 509.075 442.048C509.075 441.656 508.943 441.356 508.679 441.148C508.415 440.94 508.027 440.836 507.515 440.836C506.659 440.836 506.003 441.128 505.547 441.712L504.455 440.872C504.783 440.432 505.223 440.092 505.775 439.852C506.335 439.604 506.959 439.48 507.647 439.48C508.559 439.48 509.287 439.696 509.831 440.128C510.375 440.56 510.647 441.148 510.647 441.892C510.647 442.348 510.551 442.776 510.359 443.176C510.167 443.576 509.799 444.032 509.255 444.544L507.011 446.68H510.971ZM515.653 442.816C516.205 442.816 516.701 442.924 517.141 443.14C517.581 443.348 517.925 443.648 518.173 444.04C518.421 444.432 518.545 444.884 518.545 445.396C518.545 445.94 518.409 446.42 518.137 446.836C517.865 447.244 517.497 447.56 517.033 447.784C516.569 448.008 516.049 448.12 515.473 448.12C514.321 448.12 513.425 447.76 512.785 447.04C512.153 446.32 511.837 445.288 511.837 443.944C511.837 443 512.009 442.196 512.353 441.532C512.697 440.86 513.177 440.352 513.793 440.008C514.417 439.656 515.137 439.48 515.953 439.48C516.385 439.48 516.789 439.528 517.165 439.624C517.549 439.712 517.881 439.844 518.161 440.02L517.585 441.196C517.169 440.924 516.637 440.788 515.989 440.788C515.181 440.788 514.549 441.036 514.093 441.532C513.637 442.028 513.409 442.744 513.409 443.68V443.692C513.657 443.404 513.973 443.188 514.357 443.044C514.741 442.892 515.173 442.816 515.653 442.816ZM515.389 446.896C515.877 446.896 516.273 446.768 516.577 446.512C516.881 446.248 517.033 445.9 517.033 445.468C517.033 445.028 516.881 444.68 516.577 444.424C516.273 444.168 515.865 444.04 515.353 444.04C514.849 444.04 514.437 444.176 514.117 444.448C513.805 444.72 513.649 445.064 513.649 445.48C513.649 445.888 513.801 446.228 514.105 446.5C514.417 446.764 514.845 446.896 515.389 446.896ZM520.413 448.084C520.141 448.084 519.909 447.992 519.717 447.808C519.525 447.616 519.429 447.376 519.429 447.088C519.429 446.792 519.521 446.552 519.705 446.368C519.897 446.184 520.133 446.092 520.413 446.092C520.693 446.092 520.925 446.184 521.109 446.368C521.301 446.552 521.397 446.792 521.397 447.088C521.397 447.376 521.301 447.616 521.109 447.808C520.917 447.992 520.685 448.084 520.413 448.084ZM525.77 448.12C525.098 448.12 524.498 447.952 523.97 447.616C523.442 447.272 523.026 446.776 522.722 446.128C522.418 445.472 522.266 444.696 522.266 443.8C522.266 442.904 522.418 442.132 522.722 441.484C523.026 440.828 523.442 440.332 523.97 439.996C524.498 439.652 525.098 439.48 525.77 439.48C526.442 439.48 527.042 439.652 527.57 439.996C528.106 440.332 528.526 440.828 528.83 441.484C529.134 442.132 529.286 442.904 529.286 443.8C529.286 444.696 529.134 445.472 528.83 446.128C528.526 446.776 528.106 447.272 527.57 447.616C527.042 447.952 526.442 448.12 525.77 448.12ZM525.77 446.764C526.37 446.764 526.842 446.516 527.186 446.02C527.538 445.524 527.714 444.784 527.714 443.8C527.714 442.816 527.538 442.076 527.186 441.58C526.842 441.084 526.37 440.836 525.77 440.836C525.178 440.836 524.706 441.084 524.354 441.58C524.01 442.076 523.838 442.816 523.838 443.8C523.838 444.784 524.01 445.524 524.354 446.02C524.706 446.516 525.178 446.764 525.77 446.764ZM535.789 443.584C536.229 443.784 536.565 444.056 536.797 444.4C537.037 444.736 537.157 445.132 537.157 445.588C537.157 446.1 537.013 446.548 536.725 446.932C536.445 447.316 536.045 447.612 535.525 447.82C535.005 448.02 534.401 448.12 533.713 448.12C533.025 448.12 532.421 448.02 531.901 447.82C531.389 447.612 530.993 447.316 530.713 446.932C530.433 446.548 530.293 446.1 530.293 445.588C530.293 445.132 530.409 444.736 530.641 444.4C530.873 444.056 531.205 443.784 531.637 443.584C531.301 443.4 531.041 443.16 530.857 442.864C530.681 442.56 530.593 442.212 530.593 441.82C530.593 441.348 530.721 440.936 530.977 440.584C531.241 440.232 531.609 439.96 532.081 439.768C532.553 439.576 533.097 439.48 533.713 439.48C534.337 439.48 534.885 439.576 535.357 439.768C535.829 439.96 536.197 440.232 536.461 440.584C536.725 440.936 536.857 441.348 536.857 441.82C536.857 442.212 536.765 442.556 536.581 442.852C536.397 443.148 536.133 443.392 535.789 443.584ZM533.713 440.704C533.225 440.704 532.837 440.808 532.549 441.016C532.269 441.224 532.129 441.516 532.129 441.892C532.129 442.252 532.269 442.54 532.549 442.756C532.837 442.964 533.225 443.068 533.713 443.068C534.209 443.068 534.601 442.964 534.889 442.756C535.177 442.54 535.321 442.252 535.321 441.892C535.321 441.516 535.173 441.224 534.877 441.016C534.589 440.808 534.201 440.704 533.713 440.704ZM533.713 446.896C534.289 446.896 534.745 446.776 535.081 446.536C535.417 446.296 535.585 445.964 535.585 445.54C535.585 445.124 535.417 444.796 535.081 444.556C534.745 444.316 534.289 444.196 533.713 444.196C533.137 444.196 532.685 444.316 532.357 444.556C532.029 444.796 531.865 445.124 531.865 445.54C531.865 445.964 532.029 446.296 532.357 446.536C532.685 446.776 533.137 446.896 533.713 446.896Z" fill="#A6ACB7"/>
<path d="M561.083 446.68V448H554.891V446.956L558.227 443.788C558.603 443.428 558.855 443.116 558.983 442.852C559.119 442.58 559.187 442.312 559.187 442.048C559.187 441.656 559.055 441.356 558.791 441.148C558.527 440.94 558.139 440.836 557.627 440.836C556.771 440.836 556.115 441.128 555.659 441.712L554.567 440.872C554.895 440.432 555.335 440.092 555.887 439.852C556.447 439.604 557.071 439.48 557.759 439.48C558.671 439.48 559.399 439.696 559.943 440.128C560.487 440.56 560.759 441.148 560.759 441.892C560.759 442.348 560.663 442.776 560.471 443.176C560.279 443.576 559.911 444.032 559.367 444.544L557.123 446.68H561.083ZM564.815 439.48C565.967 439.48 566.859 439.84 567.491 440.56C568.131 441.28 568.451 442.312 568.451 443.656C568.451 444.6 568.279 445.408 567.935 446.08C567.591 446.744 567.107 447.252 566.483 447.604C565.867 447.948 565.151 448.12 564.335 448.12C563.903 448.12 563.495 448.076 563.111 447.988C562.735 447.892 562.407 447.756 562.127 447.58L562.703 446.404C563.119 446.676 563.651 446.812 564.299 446.812C565.107 446.812 565.739 446.564 566.195 446.068C566.651 445.572 566.879 444.856 566.879 443.92V443.908C566.631 444.196 566.315 444.416 565.931 444.568C565.547 444.712 565.115 444.784 564.635 444.784C564.083 444.784 563.587 444.68 563.147 444.472C562.707 444.256 562.363 443.952 562.115 443.56C561.867 443.168 561.743 442.716 561.743 442.204C561.743 441.66 561.879 441.184 562.151 440.776C562.423 440.36 562.791 440.04 563.255 439.816C563.719 439.592 564.239 439.48 564.815 439.48ZM564.935 443.56C565.439 443.56 565.847 443.424 566.159 443.152C566.479 442.88 566.639 442.536 566.639 442.12C566.639 441.712 566.483 441.376 566.171 441.112C565.867 440.84 565.443 440.704 564.899 440.704C564.411 440.704 564.015 440.836 563.711 441.1C563.407 441.356 563.255 441.7 563.255 442.132C563.255 442.572 563.407 442.92 563.711 443.176C564.015 443.432 564.423 443.56 564.935 443.56ZM570.302 448.084C570.03 448.084 569.798 447.992 569.606 447.808C569.414 447.616 569.318 447.376 569.318 447.088C569.318 446.792 569.41 446.552 569.594 446.368C569.786 446.184 570.022 446.092 570.302 446.092C570.582 446.092 570.814 446.184 570.998 446.368C571.19 446.552 571.286 446.792 571.286 447.088C571.286 447.376 571.19 447.616 570.998 447.808C570.806 447.992 570.574 448.084 570.302 448.084ZM575.659 448.12C574.987 448.12 574.387 447.952 573.859 447.616C573.331 447.272 572.915 446.776 572.611 446.128C572.307 445.472 572.155 444.696 572.155 443.8C572.155 442.904 572.307 442.132 572.611 441.484C572.915 440.828 573.331 440.332 573.859 439.996C574.387 439.652 574.987 439.48 575.659 439.48C576.331 439.48 576.931 439.652 577.459 439.996C577.995 440.332 578.415 440.828 578.719 441.484C579.023 442.132 579.175 442.904 579.175 443.8C579.175 444.696 579.023 445.472 578.719 446.128C578.415 446.776 577.995 447.272 577.459 447.616C576.931 447.952 576.331 448.12 575.659 448.12ZM575.659 446.764C576.259 446.764 576.731 446.516 577.075 446.02C577.427 445.524 577.603 444.784 577.603 443.8C577.603 442.816 577.427 442.076 577.075 441.58C576.731 441.084 576.259 440.836 575.659 440.836C575.067 440.836 574.595 441.084 574.243 441.58C573.899 442.076 573.727 442.816 573.727 443.8C573.727 444.784 573.899 445.524 574.243 446.02C574.595 446.516 575.067 446.764 575.659 446.764ZM585.677 443.584C586.117 443.784 586.453 444.056 586.685 444.4C586.925 444.736 587.045 445.132 587.045 445.588C587.045 446.1 586.901 446.548 586.613 446.932C586.333 447.316 585.933 447.612 585.413 447.82C584.893 448.02 584.289 448.12 583.601 448.12C582.913 448.12 582.309 448.02 581.789 447.82C581.277 447.612 580.881 447.316 580.601 446.932C580.321 446.548 580.181 446.1 580.181 445.588C580.181 445.132 580.297 444.736 580.529 444.4C580.761 444.056 581.093 443.784 581.525 443.584C581.189 443.4 580.929 443.16 580.745 442.864C580.569 442.56 580.481 442.212 580.481 441.82C580.481 441.348 580.609 440.936 580.865 440.584C581.129 440.232 581.497 439.96 581.969 439.768C582.441 439.576 582.985 439.48 583.601 439.48C584.225 439.48 584.773 439.576 585.245 439.768C585.717 439.96 586.085 440.232 586.349 440.584C586.613 440.936 586.745 441.348 586.745 441.82C586.745 442.212 586.653 442.556 586.469 442.852C586.285 443.148 586.021 443.392 585.677 443.584ZM583.601 440.704C583.113 440.704 582.725 440.808 582.437 441.016C582.157 441.224 582.017 441.516 582.017 441.892C582.017 442.252 582.157 442.54 582.437 442.756C582.725 442.964 583.113 443.068 583.601 443.068C584.097 443.068 584.489 442.964 584.777 442.756C585.065 442.54 585.209 442.252 585.209 441.892C585.209 441.516 585.061 441.224 584.765 441.016C584.477 440.808 584.089 440.704 583.601 440.704ZM583.601 446.896C584.177 446.896 584.633 446.776 584.969 446.536C585.305 446.296 585.473 445.964 585.473 445.54C585.473 445.124 585.305 444.796 584.969 444.556C584.633 444.316 584.177 444.196 583.601 444.196C583.025 444.196 582.573 444.316 582.245 444.556C581.917 444.796 581.753 445.124 581.753 445.54C581.753 445.964 581.917 446.296 582.245 446.536C582.573 446.776 583.025 446.896 583.601 446.896Z" fill="#A6ACB7"/>
<path d="M612.481 443.068C613.257 443.164 613.849 443.428 614.257 443.86C614.665 444.292 614.869 444.832 614.869 445.48C614.869 445.968 614.745 446.412 614.497 446.812C614.249 447.212 613.873 447.532 613.369 447.772C612.873 448.004 612.265 448.12 611.545 448.12C610.945 448.12 610.365 448.036 609.805 447.868C609.253 447.692 608.781 447.452 608.389 447.148L609.061 445.936C609.365 446.192 609.733 446.396 610.165 446.548C610.605 446.692 611.057 446.764 611.521 446.764C612.073 446.764 612.505 446.652 612.817 446.428C613.137 446.196 613.297 445.884 613.297 445.492C613.297 445.1 613.145 444.796 612.841 444.58C612.545 444.356 612.089 444.244 611.473 444.244H610.705V443.176L612.613 440.908H608.797V439.6H614.521V440.644L612.481 443.068ZM618.793 439.6V448H617.233V440.908H615.457V439.6H618.793ZM621.396 448.084C621.124 448.084 620.892 447.992 620.7 447.808C620.508 447.616 620.412 447.376 620.412 447.088C620.412 446.792 620.504 446.552 620.688 446.368C620.88 446.184 621.116 446.092 621.396 446.092C621.676 446.092 621.908 446.184 622.092 446.368C622.284 446.552 622.38 446.792 622.38 447.088C622.38 447.376 622.284 447.616 622.092 447.808C621.9 447.992 621.668 448.084 621.396 448.084ZM626.753 448.12C626.081 448.12 625.481 447.952 624.953 447.616C624.425 447.272 624.009 446.776 623.705 446.128C623.401 445.472 623.249 444.696 623.249 443.8C623.249 442.904 623.401 442.132 623.705 441.484C624.009 440.828 624.425 440.332 624.953 439.996C625.481 439.652 626.081 439.48 626.753 439.48C627.425 439.48 628.025 439.652 628.553 439.996C629.089 440.332 629.509 440.828 629.813 441.484C630.117 442.132 630.269 442.904 630.269 443.8C630.269 444.696 630.117 445.472 629.813 446.128C629.509 446.776 629.089 447.272 628.553 447.616C628.025 447.952 627.425 448.12 626.753 448.12ZM626.753 446.764C627.353 446.764 627.825 446.516 628.169 446.02C628.521 445.524 628.697 444.784 628.697 443.8C628.697 442.816 628.521 442.076 628.169 441.58C627.825 441.084 627.353 440.836 626.753 440.836C626.161 440.836 625.689 441.084 625.337 441.58C624.993 442.076 624.821 442.816 624.821 443.8C624.821 444.784 624.993 445.524 625.337 446.02C625.689 446.516 626.161 446.764 626.753 446.764ZM636.771 443.584C637.211 443.784 637.547 444.056 637.779 444.4C638.019 444.736 638.139 445.132 638.139 445.588C638.139 446.1 637.995 446.548 637.707 446.932C637.427 447.316 637.027 447.612 636.507 447.82C635.987 448.02 635.383 448.12 634.695 448.12C634.007 448.12 633.403 448.02 632.883 447.82C632.371 447.612 631.975 447.316 631.695 446.932C631.415 446.548 631.275 446.1 631.275 445.588C631.275 445.132 631.391 444.736 631.623 444.4C631.855 444.056 632.187 443.784 632.619 443.584C632.283 443.4 632.023 443.16 631.839 442.864C631.663 442.56 631.575 442.212 631.575 441.82C631.575 441.348 631.703 440.936 631.959 440.584C632.223 440.232 632.591 439.96 633.063 439.768C633.535 439.576 634.079 439.48 634.695 439.48C635.319 439.48 635.867 439.576 636.339 439.768C636.811 439.96 637.179 440.232 637.443 440.584C637.707 440.936 637.839 441.348 637.839 441.82C637.839 442.212 637.747 442.556 637.563 442.852C637.379 443.148 637.115 443.392 636.771 443.584ZM634.695 440.704C634.207 440.704 633.819 440.808 633.531 441.016C633.251 441.224 633.111 441.516 633.111 441.892C633.111 442.252 633.251 442.54 633.531 442.756C633.819 442.964 634.207 443.068 634.695 443.068C635.191 443.068 635.583 442.964 635.871 442.756C636.159 442.54 636.303 442.252 636.303 441.892C636.303 441.516 636.155 441.224 635.859 441.016C635.571 440.808 635.183 440.704 634.695 440.704ZM634.695 446.896C635.271 446.896 635.727 446.776 636.063 446.536C636.399 446.296 636.567 445.964 636.567 445.54C636.567 445.124 636.399 444.796 636.063 444.556C635.727 444.316 635.271 444.196 634.695 444.196C634.119 444.196 633.667 444.316 633.339 444.556C633.011 444.796 632.847 445.124 632.847 445.54C632.847 445.964 633.011 446.296 633.339 446.536C633.667 446.776 634.119 446.896 634.695 446.896Z" fill="#A6ACB7"/>
<path d="M661.368 448.12C660.696 448.12 660.096 447.952 659.568 447.616C659.04 447.272 658.624 446.776 658.32 446.128C658.016 445.472 657.864 444.696 657.864 443.8C657.864 442.904 658.016 442.132 658.32 441.484C658.624 440.828 659.04 440.332 659.568 439.996C660.096 439.652 660.696 439.48 661.368 439.48C662.04 439.48 662.64 439.652 663.168 439.996C663.704 440.332 664.124 440.828 664.428 441.484C664.732 442.132 664.884 442.904 664.884 443.8C664.884 444.696 664.732 445.472 664.428 446.128C664.124 446.776 663.704 447.272 663.168 447.616C662.64 447.952 662.04 448.12 661.368 448.12ZM661.368 446.764C661.968 446.764 662.44 446.516 662.784 446.02C663.136 445.524 663.312 444.784 663.312 443.8C663.312 442.816 663.136 442.076 662.784 441.58C662.44 441.084 661.968 440.836 661.368 440.836C660.776 440.836 660.304 441.084 659.952 441.58C659.608 442.076 659.436 442.816 659.436 443.8C659.436 444.784 659.608 445.524 659.952 446.02C660.304 446.516 660.776 446.764 661.368 446.764ZM669.397 443.068C670.173 443.164 670.765 443.428 671.173 443.86C671.581 444.292 671.785 444.832 671.785 445.48C671.785 445.968 671.661 446.412 671.413 446.812C671.165 447.212 670.789 447.532 670.285 447.772C669.789 448.004 669.181 448.12 668.461 448.12C667.861 448.12 667.281 448.036 666.721 447.868C666.169 447.692 665.697 447.452 665.305 447.148L665.977 445.936C666.281 446.192 666.649 446.396 667.081 446.548C667.521 446.692 667.973 446.764 668.437 446.764C668.989 446.764 669.421 446.652 669.733 446.428C670.053 446.196 670.213 445.884 670.213 445.492C670.213 445.1 670.061 444.796 669.757 444.58C669.461 444.356 669.005 444.244 668.389 444.244H667.621V443.176L669.529 440.908H665.713V439.6H671.437V440.644L669.397 443.068ZM673.741 448.084C673.469 448.084 673.237 447.992 673.045 447.808C672.853 447.616 672.757 447.376 672.757 447.088C672.757 446.792 672.849 446.552 673.033 446.368C673.225 446.184 673.461 446.092 673.741 446.092C674.021 446.092 674.253 446.184 674.437 446.368C674.629 446.552 674.725 446.792 674.725 447.088C674.725 447.376 674.629 447.616 674.437 447.808C674.245 447.992 674.013 448.084 673.741 448.084ZM679.098 448.12C678.426 448.12 677.826 447.952 677.298 447.616C676.77 447.272 676.354 446.776 676.05 446.128C675.746 445.472 675.594 444.696 675.594 443.8C675.594 442.904 675.746 442.132 676.05 441.484C676.354 440.828 676.77 440.332 677.298 439.996C677.826 439.652 678.426 439.48 679.098 439.48C679.77 439.48 680.37 439.652 680.898 439.996C681.434 440.332 681.854 440.828 682.158 441.484C682.462 442.132 682.614 442.904 682.614 443.8C682.614 444.696 682.462 445.472 682.158 446.128C681.854 446.776 681.434 447.272 680.898 447.616C680.37 447.952 679.77 448.12 679.098 448.12ZM679.098 446.764C679.698 446.764 680.17 446.516 680.514 446.02C680.866 445.524 681.042 444.784 681.042 443.8C681.042 442.816 680.866 442.076 680.514 441.58C680.17 441.084 679.698 440.836 679.098 440.836C678.506 440.836 678.034 441.084 677.682 441.58C677.338 442.076 677.166 442.816 677.166 443.8C677.166 444.784 677.338 445.524 677.682 446.02C678.034 446.516 678.506 446.764 679.098 446.764ZM686.501 439.48C687.653 439.48 688.545 439.84 689.177 440.56C689.817 441.28 690.137 442.312 690.137 443.656C690.137 444.6 689.965 445.408 689.621 446.08C689.277 446.744 688.793 447.252 688.169 447.604C687.553 447.948 686.837 448.12 686.021 448.12C685.589 448.12 685.181 448.076 684.797 447.988C684.421 447.892 684.093 447.756 683.813 447.58L684.389 446.404C684.805 446.676 685.337 446.812 685.985 446.812C686.793 446.812 687.425 446.564 687.881 446.068C688.337 445.572 688.565 444.856 688.565 443.92V443.908C688.317 444.196 688.001 444.416 687.617 444.568C687.233 444.712 686.801 444.784 686.321 444.784C685.769 444.784 685.273 444.68 684.833 444.472C684.393 444.256 684.049 443.952 683.801 443.56C683.553 443.168 683.429 442.716 683.429 442.204C683.429 441.66 683.565 441.184 683.837 440.776C684.109 440.36 684.477 440.04 684.941 439.816C685.405 439.592 685.925 439.48 686.501 439.48ZM686.621 443.56C687.125 443.56 687.533 443.424 687.845 443.152C688.165 442.88 688.325 442.536 688.325 442.12C688.325 441.712 688.169 441.376 687.857 441.112C687.553 440.84 687.129 440.704 686.585 440.704C686.097 440.704 685.701 440.836 685.397 441.1C685.093 441.356 684.941 441.7 684.941 442.132C684.941 442.572 685.093 442.92 685.397 443.176C685.701 443.432 686.109 443.56 686.621 443.56Z" fill="#A6ACB7"/>
<path d="M712.481 448.12C711.809 448.12 711.209 447.952 710.681 447.616C710.153 447.272 709.737 446.776 709.433 446.128C709.129 445.472 708.977 444.696 708.977 443.8C708.977 442.904 709.129 442.132 709.433 441.484C709.737 440.828 710.153 440.332 710.681 439.996C711.209 439.652 711.809 439.48 712.481 439.48C713.153 439.48 713.753 439.652 714.281 439.996C714.817 440.332 715.237 440.828 715.541 441.484C715.845 442.132 715.997 442.904 715.997 443.8C715.997 444.696 715.845 445.472 715.541 446.128C715.237 446.776 714.817 447.272 714.281 447.616C713.753 447.952 713.153 448.12 712.481 448.12ZM712.481 446.764C713.081 446.764 713.553 446.516 713.897 446.02C714.249 445.524 714.425 444.784 714.425 443.8C714.425 442.816 714.249 442.076 713.897 441.58C713.553 441.084 713.081 440.836 712.481 440.836C711.889 440.836 711.417 441.084 711.065 441.58C710.721 442.076 710.549 442.816 710.549 443.8C710.549 444.784 710.721 445.524 711.065 446.02C711.417 446.516 711.889 446.764 712.481 446.764ZM720.867 442.816C721.419 442.816 721.915 442.924 722.355 443.14C722.795 443.348 723.139 443.648 723.387 444.04C723.635 444.432 723.759 444.884 723.759 445.396C723.759 445.94 723.623 446.42 723.351 446.836C723.079 447.244 722.711 447.56 722.247 447.784C721.783 448.008 721.263 448.12 720.687 448.12C719.535 448.12 718.639 447.76 717.999 447.04C717.367 446.32 717.051 445.288 717.051 443.944C717.051 443 717.223 442.196 717.567 441.532C717.911 440.86 718.391 440.352 719.007 440.008C719.631 439.656 720.351 439.48 721.167 439.48C721.599 439.48 722.003 439.528 722.379 439.624C722.763 439.712 723.095 439.844 723.375 440.02L722.799 441.196C722.383 440.924 721.851 440.788 721.203 440.788C720.395 440.788 719.763 441.036 719.307 441.532C718.851 442.028 718.623 442.744 718.623 443.68V443.692C718.871 443.404 719.187 443.188 719.571 443.044C719.955 442.892 720.387 442.816 720.867 442.816ZM720.603 446.896C721.091 446.896 721.487 446.768 721.791 446.512C722.095 446.248 722.247 445.9 722.247 445.468C722.247 445.028 722.095 444.68 721.791 444.424C721.487 444.168 721.079 444.04 720.567 444.04C720.063 444.04 719.651 444.176 719.331 444.448C719.019 444.72 718.863 445.064 718.863 445.48C718.863 445.888 719.015 446.228 719.319 446.5C719.631 446.764 720.059 446.896 720.603 446.896ZM725.628 448.084C725.356 448.084 725.124 447.992 724.932 447.808C724.74 447.616 724.644 447.376 724.644 447.088C724.644 446.792 724.736 446.552 724.92 446.368C725.112 446.184 725.348 446.092 725.628 446.092C725.908 446.092 726.14 446.184 726.324 446.368C726.516 446.552 726.612 446.792 726.612 447.088C726.612 447.376 726.516 447.616 726.324 447.808C726.132 447.992 725.9 448.084 725.628 448.084ZM730.985 448.12C730.313 448.12 729.713 447.952 729.185 447.616C728.657 447.272 728.241 446.776 727.937 446.128C727.633 445.472 727.481 444.696 727.481 443.8C727.481 442.904 727.633 442.132 727.937 441.484C728.241 440.828 728.657 440.332 729.185 439.996C729.713 439.652 730.313 439.48 730.985 439.48C731.657 439.48 732.257 439.652 732.785 439.996C733.321 440.332 733.741 440.828 734.045 441.484C734.349 442.132 734.501 442.904 734.501 443.8C734.501 444.696 734.349 445.472 734.045 446.128C733.741 446.776 733.321 447.272 732.785 447.616C732.257 447.952 731.657 448.12 730.985 448.12ZM730.985 446.764C731.585 446.764 732.057 446.516 732.401 446.02C732.753 445.524 732.929 444.784 732.929 443.8C732.929 442.816 732.753 442.076 732.401 441.58C732.057 441.084 731.585 440.836 730.985 440.836C730.393 440.836 729.921 441.084 729.569 441.58C729.225 442.076 729.053 442.816 729.053 443.8C729.053 444.784 729.225 445.524 729.569 446.02C729.921 446.516 730.393 446.764 730.985 446.764ZM738.387 439.48C739.539 439.48 740.431 439.84 741.063 440.56C741.703 441.28 742.023 442.312 742.023 443.656C742.023 444.6 741.851 445.408 741.507 446.08C741.163 446.744 740.679 447.252 740.055 447.604C739.439 447.948 738.723 448.12 737.907 448.12C737.475 448.12 737.067 448.076 736.683 447.988C736.307 447.892 735.979 447.756 735.699 447.58L736.275 446.404C736.691 446.676 737.223 446.812 737.871 446.812C738.679 446.812 739.311 446.564 739.767 446.068C740.223 445.572 740.451 444.856 740.451 443.92V443.908C740.203 444.196 739.887 444.416 739.503 444.568C739.119 444.712 738.687 444.784 738.207 444.784C737.655 444.784 737.159 444.68 736.719 444.472C736.279 444.256 735.935 443.952 735.687 443.56C735.439 443.168 735.315 442.716 735.315 442.204C735.315 441.66 735.451 441.184 735.723 440.776C735.995 440.36 736.363 440.04 736.827 439.816C737.291 439.592 737.811 439.48 738.387 439.48ZM738.507 443.56C739.011 443.56 739.419 443.424 739.731 443.152C740.051 442.88 740.211 442.536 740.211 442.12C740.211 441.712 740.055 441.376 739.743 441.112C739.439 440.84 739.015 440.704 738.471 440.704C737.983 440.704 737.587 440.836 737.283 441.1C736.979 441.356 736.827 441.7 736.827 442.132C736.827 442.572 736.979 442.92 737.283 443.176C737.587 443.432 737.995 443.56 738.507 443.56Z" fill="#A6ACB7"/>
<path d="M763.11 448.12C762.438 448.12 761.838 447.952 761.31 447.616C760.782 447.272 760.366 446.776 760.062 446.128C759.758 445.472 759.606 444.696 759.606 443.8C759.606 442.904 759.758 442.132 760.062 441.484C760.366 440.828 760.782 440.332 761.31 439.996C761.838 439.652 762.438 439.48 763.11 439.48C763.782 439.48 764.382 439.652 764.91 439.996C765.446 440.332 765.866 440.828 766.17 441.484C766.474 442.132 766.626 442.904 766.626 443.8C766.626 444.696 766.474 445.472 766.17 446.128C765.866 446.776 765.446 447.272 764.91 447.616C764.382 447.952 763.782 448.12 763.11 448.12ZM763.11 446.764C763.71 446.764 764.182 446.516 764.526 446.02C764.878 445.524 765.054 444.784 765.054 443.8C765.054 442.816 764.878 442.076 764.526 441.58C764.182 441.084 763.71 440.836 763.11 440.836C762.518 440.836 762.046 441.084 761.694 441.58C761.35 442.076 761.178 442.816 761.178 443.8C761.178 444.784 761.35 445.524 761.694 446.02C762.046 446.516 762.518 446.764 763.11 446.764ZM770.512 439.48C771.664 439.48 772.556 439.84 773.188 440.56C773.828 441.28 774.148 442.312 774.148 443.656C774.148 444.6 773.976 445.408 773.632 446.08C773.288 446.744 772.804 447.252 772.18 447.604C771.564 447.948 770.848 448.12 770.032 448.12C769.6 448.12 769.192 448.076 768.808 447.988C768.432 447.892 768.104 447.756 767.824 447.58L768.4 446.404C768.816 446.676 769.348 446.812 769.996 446.812C770.804 446.812 771.436 446.564 771.892 446.068C772.348 445.572 772.576 444.856 772.576 443.92V443.908C772.328 444.196 772.012 444.416 771.628 444.568C771.244 444.712 770.812 444.784 770.332 444.784C769.78 444.784 769.284 444.68 768.844 444.472C768.404 444.256 768.06 443.952 767.812 443.56C767.564 443.168 767.44 442.716 767.44 442.204C767.44 441.66 767.576 441.184 767.848 440.776C768.12 440.36 768.488 440.04 768.952 439.816C769.416 439.592 769.936 439.48 770.512 439.48ZM770.632 443.56C771.136 443.56 771.544 443.424 771.856 443.152C772.176 442.88 772.336 442.536 772.336 442.12C772.336 441.712 772.18 441.376 771.868 441.112C771.564 440.84 771.14 440.704 770.596 440.704C770.108 440.704 769.712 440.836 769.408 441.1C769.104 441.356 768.952 441.7 768.952 442.132C768.952 442.572 769.104 442.92 769.408 443.176C769.712 443.432 770.12 443.56 770.632 443.56ZM775.999 448.084C775.727 448.084 775.495 447.992 775.303 447.808C775.111 447.616 775.015 447.376 775.015 447.088C775.015 446.792 775.107 446.552 775.291 446.368C775.483 446.184 775.719 446.092 775.999 446.092C776.279 446.092 776.511 446.184 776.695 446.368C776.887 446.552 776.983 446.792 776.983 447.088C776.983 447.376 776.887 447.616 776.695 447.808C776.503 447.992 776.271 448.084 775.999 448.084ZM781.356 448.12C780.684 448.12 780.084 447.952 779.556 447.616C779.028 447.272 778.612 446.776 778.308 446.128C778.004 445.472 777.852 444.696 777.852 443.8C777.852 442.904 778.004 442.132 778.308 441.484C778.612 440.828 779.028 440.332 779.556 439.996C780.084 439.652 780.684 439.48 781.356 439.48C782.028 439.48 782.628 439.652 783.156 439.996C783.692 440.332 784.112 440.828 784.416 441.484C784.72 442.132 784.872 442.904 784.872 443.8C784.872 444.696 784.72 445.472 784.416 446.128C784.112 446.776 783.692 447.272 783.156 447.616C782.628 447.952 782.028 448.12 781.356 448.12ZM781.356 446.764C781.956 446.764 782.428 446.516 782.772 446.02C783.124 445.524 783.3 444.784 783.3 443.8C783.3 442.816 783.124 442.076 782.772 441.58C782.428 441.084 781.956 440.836 781.356 440.836C780.764 440.836 780.292 441.084 779.94 441.58C779.596 442.076 779.424 442.816 779.424 443.8C779.424 444.784 779.596 445.524 779.94 446.02C780.292 446.516 780.764 446.764 781.356 446.764ZM788.758 439.48C789.91 439.48 790.802 439.84 791.434 440.56C792.074 441.28 792.394 442.312 792.394 443.656C792.394 444.6 792.222 445.408 791.878 446.08C791.534 446.744 791.05 447.252 790.426 447.604C789.81 447.948 789.094 448.12 788.278 448.12C787.846 448.12 787.438 448.076 787.054 447.988C786.678 447.892 786.35 447.756 786.07 447.58L786.646 446.404C787.062 446.676 787.594 446.812 788.242 446.812C789.05 446.812 789.682 446.564 790.138 446.068C790.594 445.572 790.822 444.856 790.822 443.92V443.908C790.574 444.196 790.258 444.416 789.874 444.568C789.49 444.712 789.058 444.784 788.578 444.784C788.026 444.784 787.53 444.68 787.09 444.472C786.65 444.256 786.306 443.952 786.058 443.56C785.81 443.168 785.686 442.716 785.686 442.204C785.686 441.66 785.822 441.184 786.094 440.776C786.366 440.36 786.734 440.04 787.198 439.816C787.662 439.592 788.182 439.48 788.758 439.48ZM788.878 443.56C789.382 443.56 789.79 443.424 790.102 443.152C790.422 442.88 790.582 442.536 790.582 442.12C790.582 441.712 790.426 441.376 790.114 441.112C789.81 440.84 789.386 440.704 788.842 440.704C788.354 440.704 787.958 440.836 787.654 441.1C787.35 441.356 787.198 441.7 787.198 442.132C787.198 442.572 787.35 442.92 787.654 443.176C787.958 443.432 788.366 443.56 788.878 443.56Z" fill="#A6ACB7"/>
<path d="M799.903 439.6V448H798.343V440.908H796.567V439.6H799.903ZM807.653 446.68V448H801.461V446.956L804.797 443.788C805.173 443.428 805.425 443.116 805.553 442.852C805.689 442.58 805.757 442.312 805.757 442.048C805.757 441.656 805.625 441.356 805.361 441.148C805.097 440.94 804.709 440.836 804.197 440.836C803.341 440.836 802.685 441.128 802.229 441.712L801.137 440.872C801.465 440.432 801.905 440.092 802.457 439.852C803.017 439.604 803.641 439.48 804.329 439.48C805.241 439.48 805.969 439.696 806.513 440.128C807.057 440.56 807.329 441.148 807.329 441.892C807.329 442.348 807.233 442.776 807.041 443.176C806.849 443.576 806.481 444.032 805.937 444.544L803.693 446.68H807.653ZM809.607 448.084C809.335 448.084 809.103 447.992 808.911 447.808C808.719 447.616 808.623 447.376 808.623 447.088C808.623 446.792 808.715 446.552 808.899 446.368C809.091 446.184 809.327 446.092 809.607 446.092C809.887 446.092 810.119 446.184 810.303 446.368C810.495 446.552 810.591 446.792 810.591 447.088C810.591 447.376 810.495 447.616 810.303 447.808C810.111 447.992 809.879 448.084 809.607 448.084ZM814.964 448.12C814.292 448.12 813.692 447.952 813.164 447.616C812.636 447.272 812.22 446.776 811.916 446.128C811.612 445.472 811.46 444.696 811.46 443.8C811.46 442.904 811.612 442.132 811.916 441.484C812.22 440.828 812.636 440.332 813.164 439.996C813.692 439.652 814.292 439.48 814.964 439.48C815.636 439.48 816.236 439.652 816.764 439.996C817.3 440.332 817.72 440.828 818.024 441.484C818.328 442.132 818.48 442.904 818.48 443.8C818.48 444.696 818.328 445.472 818.024 446.128C817.72 446.776 817.3 447.272 816.764 447.616C816.236 447.952 815.636 448.12 814.964 448.12ZM814.964 446.764C815.564 446.764 816.036 446.516 816.38 446.02C816.732 445.524 816.908 444.784 816.908 443.8C816.908 442.816 816.732 442.076 816.38 441.58C816.036 441.084 815.564 440.836 814.964 440.836C814.372 440.836 813.9 441.084 813.548 441.58C813.204 442.076 813.032 442.816 813.032 443.8C813.032 444.784 813.204 445.524 813.548 446.02C813.9 446.516 814.372 446.764 814.964 446.764ZM822.366 439.48C823.518 439.48 824.41 439.84 825.042 440.56C825.682 441.28 826.002 442.312 826.002 443.656C826.002 444.6 825.83 445.408 825.486 446.08C825.142 446.744 824.658 447.252 824.034 447.604C823.418 447.948 822.702 448.12 821.886 448.12C821.454 448.12 821.046 448.076 820.662 447.988C820.286 447.892 819.958 447.756 819.678 447.58L820.254 446.404C820.67 446.676 821.202 446.812 821.85 446.812C822.658 446.812 823.29 446.564 823.746 446.068C824.202 445.572 824.43 444.856 824.43 443.92V443.908C824.182 444.196 823.866 444.416 823.482 444.568C823.098 444.712 822.666 444.784 822.186 444.784C821.634 444.784 821.138 444.68 820.698 444.472C820.258 444.256 819.914 443.952 819.666 443.56C819.418 443.168 819.294 442.716 819.294 442.204C819.294 441.66 819.43 441.184 819.702 440.776C819.974 440.36 820.342 440.04 820.806 439.816C821.27 439.592 821.79 439.48 822.366 439.48ZM822.486 443.56C822.99 443.56 823.398 443.424 823.71 443.152C824.03 442.88 824.19 442.536 824.19 442.12C824.19 441.712 824.034 441.376 823.722 441.112C823.418 440.84 822.994 440.704 822.45 440.704C821.962 440.704 821.566 440.836 821.262 441.1C820.958 441.356 820.806 441.7 820.806 442.132C820.806 442.572 820.958 442.92 821.262 443.176C821.566 443.432 821.974 443.56 822.486 443.56Z" fill="#A6ACB7"/>
<path d="M61.5 401.5H48V428.5H826.5V44.5L775.5 60L724.5 112.5L674.5 146.5L622.5 160.5H571.5L520.5 179.5H470.5L418.5 189L367.5 264.5L316.5 279.5L265.5 326.5L214.5 334L163.5 359L112.5 369L61.5 401.5Z" fill="url(#paint0_linear_851_5340)"/>
<line x1="316.5" y1="9" x2="316.5" y2="429" stroke="#282C33"/>
<path d="M48 401.5H61.5L112.5 369L163.5 358.5L214.5 334L265.5 326.5L316.5 280L367.5 264.5L418.5 189L469.5 179.5H520.5L571.5 160.5H622.5L673.5 146.5L724 113L775 60L826 45" stroke="#0065FF" stroke-width="2" stroke-linecap="round"/>
<circle cx="214.5" cy="334.5" r="3.5" fill="white" stroke="#0065FF" stroke-width="2"/>
<circle cx="163.5" cy="358.5" r="3.5" fill="white" stroke="#0065FF" stroke-width="2"/>
<circle cx="112.5" cy="369.5" r="3.5" fill="white" stroke="#0065FF" stroke-width="2"/>
<circle cx="61.5" cy="401.5" r="3.5" fill="white" stroke="#0065FF" stroke-width="2"/>
<circle cx="265.5" cy="326.5" r="3.5" fill="white" stroke="#0065FF" stroke-width="2"/>
<circle cx="316.5" cy="280.5" r="3.5" fill="white" stroke="#0065FF" stroke-width="2"/>
<circle cx="367.5" cy="264.5" r="3.5" fill="white" stroke="#0065FF" stroke-width="2"/>
<circle cx="418.5" cy="189.5" r="3.5" fill="white" stroke="#0065FF" stroke-width="2"/>
<circle cx="469.5" cy="179.5" r="3.5" fill="white" stroke="#0065FF" stroke-width="2"/>
<circle cx="520.5" cy="179.5" r="3.5" fill="white" stroke="#0065FF" stroke-width="2"/>
<circle cx="571.5" cy="160.5" r="3.5" fill="white" stroke="#0065FF" stroke-width="2"/>
<circle cx="622.5" cy="160.5" r="3.5" fill="white" stroke="#0065FF" stroke-width="2"/>
<circle cx="673.5" cy="146.5" r="3.5" fill="white" stroke="#0065FF" stroke-width="2"/>
<circle cx="724.5" cy="112.5" r="3.5" fill="white" stroke="#0065FF" stroke-width="2"/>
<circle cx="775.5" cy="60.5" r="3.5" fill="white" stroke="#0065FF" stroke-width="2"/>
<circle cx="825.5" cy="44.5" r="3.5" fill="white" stroke="#0065FF" stroke-width="2"/>
<defs>
<linearGradient id="paint0_linear_851_5340" x1="269.5" y1="215.5" x2="309.75" y2="428.5" gradientUnits="userSpaceOnUse">
<stop stop-color="#0065FF" stop-opacity="0.19"/>
<stop offset="1" stop-color="#0065FF" stop-opacity="0.04"/>
</linearGradient>
</defs>
</svg>
