<svg width="361" height="100" viewBox="0 0 361 100" fill="none" xmlns="http://www.w3.org/2000/svg">
<g clip-path="url(#clip0_951_2925)">
<path d="M0 78.5714C30 78.5714 23 73.2143 40 73.2143C57 73.2143 58 56.7857 80 56.7857C102 56.7857 95 68.2143 120 68.2143C145 68.2143 138 41.4286 160 41.4286C182 41.4286 178.5 30 200 30C221.5 30 222 46.0714 239.5 46.0714C257 46.0714 260.5 58.9286 280 58.9286C299.5 58.9286 300 25.7143 320 25.7143C340 25.7143 339 0 360 0" stroke="#4A92FF"/>
<path d="M40 73.2143C23 73.2143 30 78.5714 0 78.5714V98.2143H360V0C339 0 340 25.7143 320 25.7143C300 25.7143 299.5 58.9286 280 58.9286C260.5 58.9286 257 46.0714 239.5 46.0714C222 46.0714 221.5 30 200 30C178.5 30 182 41.4286 160 41.4286C138 41.4286 145 68.2143 120 68.2143C95 68.2143 102 56.7857 80 56.7857C58 56.7857 57 73.2143 40 73.2143Z" fill="url(#paint0_linear_951_2925)" fill-opacity="0.2"/>
</g>
<defs>
<linearGradient id="paint0_linear_951_2925" x1="180" y1="0" x2="180" y2="98.5714" gradientUnits="userSpaceOnUse">
<stop stop-color="#0065FF"/>
<stop offset="1" stop-color="#0065FF" stop-opacity="0"/>
</linearGradient>
<clipPath id="clip0_951_2925">
<rect width="361" height="100" fill="white"/>
</clipPath>
</defs>
</svg>
